<svg xmlns="http://www.w3.org/2000/svg" xmlns:xlink="http://www.w3.org/1999/xlink" width="900" zoomAndPan="magnify" viewBox="0 0 675 449.999984" height="600" preserveAspectRatio="xMidYMid meet" version="1.0"><defs><filter x="0%" y="0%" width="100%" height="100%" id="c2df9edf0e"><feColorMatrix values="0 0 0 0 1 0 0 0 0 1 0 0 0 0 1 0 0 0 1 0" color-interpolation-filters="sRGB"/></filter><mask id="753d0b7454"><g filter="url(#c2df9edf0e)"><rect x="-67.5" width="810" fill="#000000" y="-44.999998" height="539.99998" fill-opacity="0.12"/></g></mask><clipPath id="38b26f7de5"><path d="M 0 3 L 675 3 L 675 360 L 0 360 Z M 0 3 " clip-rule="nonzero"/></clipPath><clipPath id="fc8a2fc61b"><path d="M 0 7 L 675 7 L 675 358 L 0 358 Z M 0 7 " clip-rule="nonzero"/></clipPath><clipPath id="b13fc404eb"><path d="M 0 11 L 675 11 L 675 356 L 0 356 Z M 0 11 " clip-rule="nonzero"/></clipPath><clipPath id="690a0bceb9"><path d="M 0 15 L 675 15 L 675 353 L 0 353 Z M 0 15 " clip-rule="nonzero"/></clipPath><clipPath id="87866c9404"><path d="M 0 19 L 675 19 L 675 351 L 0 351 Z M 0 19 " clip-rule="nonzero"/></clipPath><clipPath id="89451eff9c"><path d="M 0 23 L 675 23 L 675 349 L 0 349 Z M 0 23 " clip-rule="nonzero"/></clipPath><clipPath id="0a1b15ea63"><path d="M 0 26 L 675 26 L 675 348 L 0 348 Z M 0 26 " clip-rule="nonzero"/></clipPath><clipPath id="bc7c386081"><path d="M 0 30 L 675 30 L 675 346 L 0 346 Z M 0 30 " clip-rule="nonzero"/></clipPath><clipPath id="90c7c86c11"><path d="M 0 34 L 675 34 L 675 345 L 0 345 Z M 0 34 " clip-rule="nonzero"/></clipPath><clipPath id="e2f00f2d0d"><path d="M 0 37 L 675 37 L 675 346 L 0 346 Z M 0 37 " clip-rule="nonzero"/></clipPath><clipPath id="c2b2b50d8e"><path d="M 0 40 L 675 40 L 675 347 L 0 347 Z M 0 40 " clip-rule="nonzero"/></clipPath><clipPath id="fd1207b473"><path d="M 0 43 L 675 43 L 675 348 L 0 348 Z M 0 43 " clip-rule="nonzero"/></clipPath><clipPath id="3fee8366cc"><path d="M 0 46 L 675 46 L 675 350 L 0 350 Z M 0 46 " clip-rule="nonzero"/></clipPath><clipPath id="f3dd4de248"><path d="M 0 49 L 675 49 L 675 351 L 0 351 Z M 0 49 " clip-rule="nonzero"/></clipPath><clipPath id="cbf8c882db"><path d="M 0 52 L 675 52 L 675 353 L 0 353 Z M 0 52 " clip-rule="nonzero"/></clipPath><clipPath id="b02f1f66b3"><path d="M 0 55 L 675 55 L 675 354 L 0 354 Z M 0 55 " clip-rule="nonzero"/></clipPath><clipPath id="1318e42986"><path d="M 0 58 L 675 58 L 675 356 L 0 356 Z M 0 58 " clip-rule="nonzero"/></clipPath><clipPath id="94e39552e2"><path d="M 0 60 L 675 60 L 675 357 L 0 357 Z M 0 60 " clip-rule="nonzero"/></clipPath><clipPath id="7a011924ac"><path d="M 0 62 L 675 62 L 675 359 L 0 359 Z M 0 62 " clip-rule="nonzero"/></clipPath><clipPath id="c1314a97c1"><path d="M 0 65 L 675 65 L 675 361 L 0 361 Z M 0 65 " clip-rule="nonzero"/></clipPath><clipPath id="789986ef2c"><path d="M 0 67 L 675 67 L 675 362 L 0 362 Z M 0 67 " clip-rule="nonzero"/></clipPath><clipPath id="c563bc1cc0"><path d="M 0 69 L 675 69 L 675 364 L 0 364 Z M 0 69 " clip-rule="nonzero"/></clipPath><clipPath id="1784be9b93"><path d="M 0 71 L 675 71 L 675 365.621094 L 0 365.621094 Z M 0 71 " clip-rule="nonzero"/></clipPath><clipPath id="b9a5df0a57"><rect x="0" width="675" y="0" height="366"/></clipPath></defs><g mask="url(#753d0b7454)"><g transform="matrix(1, 0, 0, 1, 0, 42)"><g clip-path="url(#b9a5df0a57)"><g clip-path="url(#38b26f7de5)"><path fill="#b3b3b3" d="M 262.679688 359.625 C 269.234375 359.625 275.648438 358.511719 281.722656 355.804688 C 288.28125 352.886719 294.152344 348.1875 299.167969 341.84375 C 304.660156 334.902344 309.320312 325.75 313.023438 314.644531 C 321.976562 287.785156 348.210938 282.28125 368.796875 288.53125 C 375.460938 290.554688 384.117188 294.378906 393.277344 298.425781 C 411.15625 306.328125 432.585938 315.796875 448.464844 315.796875 C 452.136719 315.796875 455.511719 315.289062 458.476562 314.140625 C 469.886719 309.722656 469.765625 299.34375 469.605469 286.199219 C 469.472656 275.433594 469.328125 263.234375 474.980469 250.398438 C 484.542969 228.699219 502.132812 200.25 531.632812 187.925781 C 540.089844 184.394531 549.535156 182.160156 558.667969 180.003906 C 576.914062 175.691406 595.78125 171.230469 606.53125 156.140625 C 617.113281 141.28125 615.625 122.007812 614.179688 103.375 C 613.929688 100.136719 613.671875 96.785156 613.488281 93.558594 C 612.03125 68 616.527344 46.929688 626.84375 30.929688 C 639.496094 11.3125 662.183594 0.429688 682.011719 4.472656 L 682.082031 4.125 C 671.90625 2.050781 661.0625 3.714844 650.722656 8.929688 C 645.804688 11.441406 641.300781 14.546875 637.199219 18.246094 C 633.101562 21.945312 629.550781 26.109375 626.546875 30.742188 C 616.1875 46.800781 611.675781 67.945312 613.136719 93.578125 C 613.320312 96.8125 613.582031 100.160156 613.832031 103.402344 C 615.269531 121.972656 616.753906 141.179688 606.246094 155.9375 C 595.570312 170.921875 577.605469 175.164062 558.585938 179.660156 C 549.4375 181.824219 539.980469 184.058594 531.496094 187.601562 C 501.890625 199.96875 484.246094 228.5 474.660156 250.257812 C 468.976562 263.160156 469.121094 275.402344 469.253906 286.203125 C 469.410156 299.210938 469.535156 309.484375 458.351562 313.8125 C 442.691406 319.878906 415.371094 307.804688 393.421875 298.105469 C 384.25 294.054688 375.585938 290.226562 368.898438 288.195312 C 357.289062 284.667969 345.433594 285 335.523438 289.125 C 324.613281 293.667969 316.714844 302.453125 312.691406 314.53125 C 305.550781 335.945312 295.375 349.34375 281.582031 355.484375 C 259.175781 365.460938 232.066406 353.640625 210.289062 344.144531 C 205.175781 341.917969 200.347656 339.8125 195.984375 338.171875 C 174.527344 330.105469 147.824219 323.921875 121.996094 317.945312 C 107.128906 314.503906 91.761719 310.945312 77.816406 307.109375 C 56.285156 301.1875 40.296875 299.300781 27.492188 301.171875 C 10.992188 303.582031 -0.34375 312.21875 -7.175781 327.570312 L -6.851562 327.714844 C 8.347656 293.542969 44.429688 298.292969 77.722656 307.449219 C 91.671875 311.285156 107.046875 314.84375 121.914062 318.285156 C 147.730469 324.261719 174.425781 330.441406 195.859375 338.5 C 200.21875 340.140625 205.039062 342.242188 210.148438 344.46875 C 226.101562 351.425781 244.914062 359.625 262.679688 359.625 Z M 262.679688 359.625 " fill-opacity="1" fill-rule="nonzero"/></g><g clip-path="url(#fc8a2fc61b)"><path fill="#b3b3b3" d="M 263.910156 357.339844 C 267.542969 357.355469 271.144531 357.039062 274.71875 356.398438 C 292.363281 353.152344 305.183594 340.066406 313.910156 316.398438 C 323.226562 291.128906 349.003906 285.890625 370.414062 291.902344 C 377.089844 293.753906 385.480469 297.082031 394.363281 300.605469 C 416.699219 309.46875 444.492188 320.496094 460.644531 313.667969 C 471.667969 309.007812 471.671875 298.839844 471.683594 285.96875 C 471.6875 275.570312 471.695312 263.78125 477.164062 251.355469 C 486.496094 230.148438 503.554688 202.238281 531.835938 189.734375 C 539.929688 186.152344 548.980469 183.816406 557.730469 181.558594 C 576.0625 176.828125 593.382812 172.355469 603.554688 157.410156 C 612.5625 144.167969 612.433594 127.394531 611.453125 109.929688 C 611.378906 108.621094 611.304688 107.3125 611.226562 106.007812 C 611 102.148438 610.765625 98.15625 610.648438 94.324219 C 610.277344 82.511719 611.238281 71.570312 613.507812 61.808594 C 616.054688 50.773438 620.308594 41.011719 626.148438 32.792969 C 639.5625 14.035156 662.425781 4.230469 681.75 8.941406 L 681.832031 8.597656 C 662.375 3.855469 639.355469 13.71875 625.859375 32.585938 C 619.992188 40.84375 615.722656 50.644531 613.164062 61.726562 C 610.890625 71.519531 609.921875 82.492188 610.296875 94.335938 C 610.414062 98.171875 610.648438 102.164062 610.875 106.027344 C 610.953125 107.332031 611.027344 108.640625 611.101562 109.949219 C 612.078125 127.351562 612.210938 144.0625 603.261719 157.210938 C 593.164062 172.046875 575.910156 176.503906 557.640625 181.21875 C 548.875 183.484375 539.816406 185.820312 531.691406 189.414062 C 503.308594 201.964844 486.199219 229.949219 476.839844 251.214844 C 471.34375 263.707031 471.335938 275.535156 471.328125 285.96875 C 471.324219 298.714844 471.316406 308.777344 460.507812 313.347656 C 444.488281 320.117188 416.769531 309.121094 394.492188 300.28125 C 385.597656 296.753906 377.199219 293.421875 370.507812 291.566406 C 348.945312 285.507812 322.976562 290.800781 313.582031 316.277344 C 304.898438 339.824219 292.167969 352.832031 274.65625 356.054688 C 253.800781 359.890625 230.433594 351.160156 211.660156 344.148438 C 206.332031 342.160156 201.304688 340.28125 196.714844 338.816406 C 187.519531 335.890625 176.996094 332.9375 164.53125 329.792969 C 153.351562 326.996094 141.519531 324.34375 130.074219 321.777344 C 112.480469 317.828125 94.289062 313.746094 78.273438 309.101562 C 74.167969 307.910156 70.625 306.90625 67.449219 306.03125 C 50.738281 301.429688 36.09375 300.582031 23.914062 303.515625 C 9.925781 306.882812 -0.429688 315.214844 -6.855469 328.277344 L -6.539062 328.433594 C 8.648438 297.5625 42.027344 299.394531 67.355469 306.371094 C 70.53125 307.242188 74.070312 308.25 78.175781 309.4375 C 94.203125 314.089844 112.398438 318.171875 130 322.117188 C 141.441406 324.683594 153.273438 327.339844 164.449219 330.132812 C 176.902344 333.273438 187.421875 336.226562 196.609375 339.152344 C 201.191406 340.609375 206.214844 342.488281 211.535156 344.476562 C 227.167969 350.316406 245.976562 357.339844 263.910156 357.339844 Z M 263.910156 357.339844 " fill-opacity="1" fill-rule="nonzero"/></g><g clip-path="url(#b13fc404eb)"><path fill="#b3b3b3" d="M 265.347656 355.113281 C 268.554688 355.121094 271.75 354.925781 274.933594 354.53125 C 283.503906 353.457031 290.773438 350.25 297.160156 344.734375 C 304.203125 338.652344 309.972656 329.957031 314.800781 318.152344 C 323.234375 297.523438 345.699219 288.542969 372.035156 295.277344 C 378.539062 296.941406 386.449219 299.738281 394.824219 302.695312 C 411.953125 308.75 432.222656 315.914062 448.320312 315.914062 C 453.710938 315.914062 458.628906 315.109375 462.808594 313.195312 C 473.449219 308.316406 473.589844 298.355469 473.765625 285.75 C 473.90625 275.707031 474.0625 264.320312 479.34375 252.308594 C 488.445312 231.589844 504.976562 204.226562 532.035156 191.539062 C 539.769531 187.914062 548.417969 185.472656 556.78125 183.113281 C 574.367188 178.152344 590.972656 173.46875 600.574219 158.675781 C 609.695312 144.625 608.949219 126.636719 608.292969 110.765625 L 608.214844 108.816406 C 608.027344 104.277344 607.832031 99.578125 607.804688 95.085938 C 607.734375 83.277344 609.046875 72.398438 611.703125 62.757812 C 614.648438 51.945312 619.273438 42.488281 625.449219 34.648438 C 639.546875 16.738281 662.59375 8.003906 681.488281 13.410156 L 681.585938 13.074219 C 662.554688 7.628906 639.359375 16.414062 625.171875 34.429688 C 618.96875 42.308594 614.324219 51.808594 611.363281 62.664062 C 608.699219 72.335938 607.382812 83.246094 607.453125 95.089844 C 607.480469 99.589844 607.675781 104.289062 607.863281 108.832031 L 607.941406 110.78125 C 608.597656 126.597656 609.335938 144.527344 600.277344 158.484375 C 590.75 173.167969 574.203125 177.832031 556.6875 182.773438 C 548.308594 185.140625 539.648438 187.582031 531.886719 191.21875 C 504.726562 203.953125 488.148438 231.394531 479.019531 252.167969 C 473.710938 264.25 473.550781 275.667969 473.410156 285.746094 C 473.234375 298.230469 473.097656 308.089844 462.660156 312.878906 C 446.125 320.457031 417.742188 310.425781 394.9375 302.367188 C 386.554688 299.402344 378.636719 296.605469 372.117188 294.9375 C 360 291.839844 347.84375 292.101562 337.886719 295.667969 C 326.945312 299.589844 318.847656 307.316406 314.472656 318.019531 C 305.429688 340.144531 292.480469 351.972656 274.886719 354.183594 C 254.101562 356.796875 232.339844 350.050781 213.140625 344.097656 C 207.5625 342.367188 202.296875 340.734375 197.441406 339.464844 C 187.582031 336.882812 176.75 334.195312 165.242188 331.46875 C 156.0625 329.332031 146.429688 327.257812 137.117188 325.25 C 117.089844 320.941406 96.382812 316.480469 78.726562 311.089844 C 75.132812 309.992188 71.546875 308.863281 68.0625 307.738281 C 52.640625 302.742188 37.703125 301.792969 24.867188 305 C 11.003906 308.460938 0.144531 316.753906 -6.539062 328.984375 L -6.230469 329.152344 C 6.6875 305.511719 35.113281 297.433594 67.957031 308.070312 C 71.4375 309.199219 75.027344 310.328125 78.625 311.425781 C 96.296875 316.824219 117.011719 321.28125 137.042969 325.59375 C 146.355469 327.597656 155.988281 329.671875 165.164062 331.808594 C 176.667969 334.535156 187.496094 337.222656 197.351562 339.800781 C 202.199219 341.070312 207.464844 342.703125 213.039062 344.429688 C 229.339844 349.484375 247.492188 355.113281 265.347656 355.113281 Z M 265.347656 355.113281 " fill-opacity="1" fill-rule="nonzero"/></g><g clip-path="url(#690a0bceb9)"><path fill="#b3b3b3" d="M 267.980469 352.90625 C 270.371094 352.90625 272.761719 352.828125 275.144531 352.667969 C 293.214844 351.417969 306.09375 341.007812 315.6875 319.90625 C 326.230469 296.707031 352.542969 293.714844 373.648438 298.652344 C 379.90625 300.113281 387.28125 302.414062 395.085938 304.84375 C 411.800781 310.050781 431.429688 316.167969 447.570312 316.167969 C 454.078125 316.167969 460.015625 315.175781 464.972656 312.722656 C 475.230469 307.648438 475.503906 297.894531 475.851562 285.546875 C 476.121094 275.855469 476.429688 264.871094 481.523438 253.265625 C 490.398438 233.03125 506.398438 206.210938 532.238281 193.34375 C 539.609375 189.671875 547.855469 187.128906 555.832031 184.667969 C 572.660156 179.476562 588.558594 174.570312 597.597656 159.941406 C 606.070312 146.234375 605.605469 129.011719 605.15625 112.359375 L 605.132812 111.601562 C 605 106.421875 604.863281 101.066406 604.964844 95.851562 C 605.1875 84.109375 606.847656 73.296875 609.898438 63.707031 C 613.269531 53.121094 618.265625 43.96875 624.75 36.503906 C 639.578125 19.445312 662.800781 11.785156 681.226562 17.878906 L 681.339844 17.546875 C 671.945312 14.4375 661.363281 14.757812 650.742188 18.464844 C 645.675781 20.257812 640.917969 22.664062 636.46875 25.683594 C 632.023438 28.699219 628.027344 32.230469 624.484375 36.273438 C 617.96875 43.773438 612.949219 52.96875 609.566406 63.601562 C 606.503906 73.222656 604.835938 84.070312 604.613281 95.84375 C 604.511719 101.066406 604.648438 106.429688 604.785156 111.613281 L 604.804688 112.367188 C 605.25 128.96875 605.714844 146.136719 597.296875 159.757812 C 588.328125 174.273438 572.492188 179.160156 555.726562 184.332031 C 547.738281 186.796875 539.480469 189.347656 532.082031 193.03125 C 506.148438 205.945312 490.097656 232.839844 481.203125 253.125 C 476.078125 264.792969 475.769531 275.8125 475.5 285.539062 C 475.15625 297.769531 474.886719 307.429688 464.816406 312.410156 C 447.703125 320.871094 418.585938 311.796875 395.191406 304.507812 C 387.378906 302.074219 380 299.773438 373.730469 298.308594 C 361.179688 295.375 349.195312 295.589844 339.070312 298.929688 C 328.113281 302.546875 319.917969 309.75 315.367188 319.761719 C 305.835938 340.730469 293.046875 351.074219 275.121094 352.316406 C 254.507812 353.742188 233.445312 348.5625 214.863281 343.996094 C 208.953125 342.542969 203.371094 341.171875 198.171875 340.105469 C 190.503906 338.53125 182.125 336.691406 173.253906 334.742188 C 170.863281 334.214844 168.433594 333.683594 165.957031 333.140625 C 158.035156 331.40625 149.777344 329.707031 141.789062 328.070312 C 120.113281 323.617188 97.695312 319.015625 79.1875 313.078125 C 75.445312 311.878906 71.914062 310.652344 68.683594 309.441406 C 54.398438 304.078125 39.175781 303.023438 25.816406 306.476562 C 11.925781 310.066406 0.851562 318.089844 -6.21875 329.683594 L -5.917969 329.867188 C 8.121094 306.839844 38.746094 298.578125 68.558594 309.769531 C 71.792969 310.988281 75.335938 312.210938 79.078125 313.414062 C 97.605469 319.355469 120.03125 323.960938 141.71875 328.414062 C 149.703125 330.054688 157.964844 331.75 165.882812 333.484375 C 168.355469 334.023438 170.789062 334.558594 173.179688 335.085938 C 182.050781 337.035156 190.429688 338.878906 198.101562 340.449219 C 203.296875 341.515625 208.875 342.886719 214.777344 344.335938 C 231.242188 348.382812 249.648438 352.90625 267.980469 352.90625 Z M 267.980469 352.90625 " fill-opacity="1" fill-rule="nonzero"/></g><g clip-path="url(#87866c9404)"><path fill="#b3b3b3" d="M 269.222656 350.9375 C 271.269531 350.9375 273.316406 350.890625 275.363281 350.796875 C 294.082031 349.929688 306.792969 340.945312 316.574219 321.660156 C 325.648438 303.765625 348.140625 296.242188 375.269531 302.023438 C 381.136719 303.273438 387.832031 305.09375 394.921875 307.019531 C 411.1875 311.4375 430.132812 316.585938 446.246094 316.585938 C 454.09375 316.585938 461.265625 315.367188 467.136719 312.25 C 477.019531 307 477.429688 297.449219 477.945312 285.355469 C 478.34375 276.007812 478.796875 265.414062 483.707031 254.21875 C 492.351562 234.472656 507.824219 208.191406 532.4375 195.152344 C 539.449219 191.4375 547.289062 188.789062 554.875 186.222656 C 570.949219 180.792969 586.132812 175.664062 594.617188 161.210938 C 602.46875 147.835938 602.238281 131.230469 602.015625 115.171875 C 602 114.257812 601.988281 113.347656 601.980469 112.4375 C 601.921875 107.589844 601.886719 101.972656 602.125 96.613281 C 602.640625 84.878906 604.652344 74.128906 608.097656 64.65625 C 611.855469 54.328125 617.226562 45.480469 624.054688 38.359375 C 639.613281 22.144531 663.015625 15.5625 680.964844 22.347656 L 681.089844 22.019531 C 671.957031 18.566406 661.46875 18.4375 650.753906 21.644531 C 645.636719 23.199219 640.792969 25.375 636.226562 28.164062 C 631.660156 30.953125 627.519531 34.273438 623.800781 38.121094 C 616.9375 45.273438 611.542969 54.164062 607.765625 64.539062 C 604.308594 74.042969 602.292969 84.828125 601.773438 96.601562 C 601.53125 101.964844 601.570312 107.59375 601.625 112.445312 C 601.636719 113.355469 601.648438 114.265625 601.660156 115.179688 C 601.882812 131.1875 602.113281 147.746094 594.3125 161.035156 C 585.894531 175.375 570.769531 180.484375 554.761719 185.894531 C 547.164062 188.460938 539.308594 191.113281 532.273438 194.839844 C 507.570312 207.929688 492.050781 234.28125 483.382812 254.082031 C 478.449219 265.335938 477.992188 275.964844 477.59375 285.339844 C 477.082031 297.324219 476.675781 306.785156 466.96875 311.941406 C 449.167969 321.398438 419.140625 313.238281 395.011719 306.679688 C 387.917969 304.753906 381.21875 302.933594 375.339844 301.679688 C 362.535156 298.949219 350.402344 299.128906 340.257812 302.191406 C 329.285156 305.503906 320.988281 312.183594 316.261719 321.503906 C 306.542969 340.660156 293.925781 349.585938 275.347656 350.449219 C 255.480469 351.367188 235.5625 347.539062 217.988281 344.160156 C 211.242188 342.863281 204.875 341.640625 198.898438 340.75 C 189.480469 339.351562 179.203125 337.367188 166.664062 334.816406 C 160.230469 333.503906 153.558594 332.207031 147.105469 330.953125 C 123.507812 326.363281 99.109375 321.617188 79.640625 315.066406 C 75.863281 313.796875 72.382812 312.480469 69.296875 311.148438 C 41.980469 299.382812 9.652344 307.652344 -5.898438 330.390625 L -5.609375 330.589844 C 9.851562 307.988281 41.996094 299.769531 69.160156 311.472656 C 72.253906 312.804688 75.742188 314.125 79.53125 315.402344 C 99.019531 321.957031 123.429688 326.707031 147.039062 331.296875 C 153.492188 332.550781 160.164062 333.851562 166.597656 335.160156 C 179.140625 337.710938 189.425781 339.695312 198.847656 341.101562 C 204.816406 341.988281 211.183594 343.210938 217.921875 344.507812 C 233.703125 347.542969 251.378906 350.9375 269.222656 350.9375 Z M 269.222656 350.9375 " fill-opacity="1" fill-rule="nonzero"/></g><g clip-path="url(#89451eff9c)"><path fill="#b3b3b3" d="M 277.839844 348.976562 C 285.828125 348.976562 292.6875 347.265625 298.746094 343.761719 C 305.910156 339.621094 312.03125 332.964844 317.460938 323.417969 C 326.925781 306.761719 349.144531 300.027344 376.886719 305.394531 C 382.179688 306.421875 388.03125 307.789062 394.222656 309.242188 C 419.316406 315.117188 450.542969 322.429688 469.296875 311.777344 C 478.8125 306.375 479.359375 297.015625 480.046875 285.171875 C 480.570312 276.167969 481.164062 265.960938 485.886719 255.175781 C 494.304688 235.910156 509.25 210.171875 532.640625 196.957031 C 539.285156 193.203125 546.71875 190.449219 553.910156 187.785156 C 569.226562 182.109375 583.695312 176.75 591.640625 162.476562 C 598.90625 149.421875 598.863281 133.398438 598.824219 117.902344 C 598.820312 116.359375 598.816406 114.816406 598.820312 113.277344 C 598.835938 108.488281 598.902344 102.855469 599.28125 97.378906 C 600.089844 85.640625 602.449219 74.953125 606.292969 65.609375 C 610.4375 55.535156 616.175781 46.996094 623.355469 40.21875 C 639.648438 24.84375 663.230469 19.332031 680.703125 26.816406 L 680.84375 26.496094 C 671.972656 22.695312 661.574219 22.117188 650.769531 24.820312 C 645.59375 26.140625 640.667969 28.082031 635.984375 30.644531 C 631.300781 33.207031 627.011719 36.316406 623.113281 39.964844 C 615.898438 46.773438 610.128906 55.355469 605.96875 65.476562 C 602.109375 74.851562 599.746094 85.578125 598.929688 97.355469 C 598.550781 102.839844 598.484375 108.480469 598.46875 113.277344 C 598.464844 114.816406 598.464844 116.359375 598.472656 117.902344 C 598.511719 133.355469 598.554688 149.332031 591.332031 162.304688 C 583.453125 176.464844 569.042969 181.804688 553.785156 187.457031 C 546.585938 190.125 539.140625 192.882812 532.46875 196.648438 C 508.992188 209.914062 494.003906 235.722656 485.5625 255.035156 C 480.816406 265.875 480.21875 276.117188 479.695312 285.152344 C 479.011719 296.890625 478.472656 306.164062 469.125 311.472656 C 450.492188 322.054688 419.335938 314.761719 394.300781 308.898438 C 388.105469 307.449219 382.253906 306.078125 376.953125 305.050781 C 349.054688 299.652344 326.703125 306.453125 317.15625 323.246094 C 306.78125 341.484375 293.960938 349.304688 275.585938 348.582031 C 256.925781 347.855469 238.578125 345.734375 222.394531 343.863281 C 214.367188 342.9375 206.785156 342.0625 199.625 341.398438 C 191.183594 340.613281 181.238281 339.097656 167.378906 336.488281 C 162.371094 335.542969 157.203125 334.597656 152.207031 333.683594 C 126.726562 329.023438 100.382812 324.203125 80.101562 317.058594 C 76.625 315.855469 73.230469 314.453125 69.917969 312.859375 C 57.214844 306.636719 42.226562 305.414062 27.707031 309.421875 C 14.351562 313.109375 2.21875 321.007812 -5.574219 331.09375 L -5.296875 331.308594 C 9.835938 311.734375 42.050781 299.597656 69.761719 313.175781 C 73.089844 314.777344 76.496094 316.179688 79.980469 317.390625 C 100.292969 324.542969 126.652344 329.367188 152.144531 334.03125 C 157.140625 334.945312 162.304688 335.890625 167.3125 336.835938 C 181.183594 339.449219 191.140625 340.960938 199.59375 341.75 C 206.75 342.414062 214.328125 343.289062 222.351562 344.214844 C 238.546875 346.085938 256.898438 348.207031 275.570312 348.933594 C 276.335938 348.964844 277.09375 348.976562 277.839844 348.976562 Z M 277.839844 348.976562 " fill-opacity="1" fill-rule="nonzero"/></g><g clip-path="url(#0a1b15ea63)"><path fill="#b3b3b3" d="M 281.179688 347.320312 C 297.015625 347.320312 308.628906 340.335938 318.34375 325.175781 C 328.207031 309.785156 350.136719 303.804688 378.503906 308.769531 C 382.980469 309.554688 387.769531 310.507812 392.839844 311.519531 C 408.140625 314.574219 425.632812 318.066406 441.46875 318.066406 C 452.773438 318.066406 463.234375 316.289062 471.460938 311.304688 C 480.613281 305.761719 481.296875 296.597656 482.15625 284.996094 C 482.800781 276.328125 483.535156 266.5 488.066406 256.132812 C 499.816406 229.195312 515.296875 209.359375 532.84375 198.761719 C 539.125 194.96875 546.144531 192.113281 552.9375 189.351562 C 567.496094 183.425781 581.246094 177.832031 588.660156 163.746094 C 595.375 150.988281 595.488281 135.523438 595.597656 120.5625 C 595.609375 118.445312 595.625 116.257812 595.660156 114.113281 C 595.777344 107.574219 596.015625 102.652344 596.441406 98.144531 C 597.542969 86.386719 600.25 75.761719 604.488281 66.5625 C 609.011719 56.742188 615.125 48.503906 622.660156 42.074219 C 639.691406 27.539062 663.453125 23.101562 680.445312 31.285156 L 680.597656 30.96875 C 671.988281 26.824219 661.683594 25.796875 650.785156 28.003906 C 645.554688 29.082031 640.539062 30.792969 635.742188 33.128906 C 630.941406 35.464844 626.503906 38.359375 622.429688 41.808594 C 614.855469 48.273438 608.710938 56.550781 604.167969 66.414062 C 599.914062 75.652344 597.195312 86.320312 596.089844 98.113281 C 595.664062 102.628906 595.425781 107.5625 595.308594 114.109375 C 595.273438 116.253906 595.257812 118.445312 595.242188 120.5625 C 595.136719 135.480469 595.023438 150.902344 588.351562 163.582031 C 580.996094 177.554688 567.300781 183.128906 552.804688 189.027344 C 546 191.792969 538.964844 194.65625 532.664062 198.460938 C 515.054688 209.097656 499.523438 228.988281 487.746094 255.992188 C 483.1875 266.417969 482.457031 276.273438 481.808594 284.972656 C 480.953125 296.472656 480.277344 305.558594 471.28125 311.007812 C 451.640625 322.902344 419.074219 316.402344 392.910156 311.179688 C 387.835938 310.164062 383.042969 309.210938 378.566406 308.425781 C 350.050781 303.433594 327.992188 309.46875 318.050781 324.988281 C 307.34375 341.695312 294.316406 348.394531 275.816406 346.71875 C 262.730469 345.527344 250.300781 345.027344 238.28125 344.539062 C 224.8125 343.996094 212.09375 343.480469 200.371094 342.042969 C 197.242188 341.660156 193.996094 341.339844 190.5625 340.996094 C 183.804688 340.324219 176.148438 339.5625 168.089844 338.164062 C 164.503906 337.539062 160.894531 336.921875 157.261719 336.300781 C 129.878906 331.621094 101.5625 326.78125 80.554688 319.046875 C 77.101562 317.804688 73.761719 316.3125 70.535156 314.566406 C 55.140625 306.046875 39.261719 307.859375 28.652344 310.882812 C 15.519531 314.625 3.160156 322.246094 -5.253906 331.796875 L -4.988281 332.027344 C 12.144531 312.582031 45.015625 300.847656 70.363281 314.871094 C 73.609375 316.628906 76.964844 318.128906 80.433594 319.375 C 101.472656 327.125 129.804688 331.964844 157.203125 336.648438 C 160.828125 337.269531 164.4375 337.886719 168.027344 338.507812 C 176.101562 339.910156 183.765625 340.671875 190.527344 341.34375 C 193.960938 341.6875 197.207031 342.011719 200.328125 342.390625 C 212.066406 343.828125 224.792969 344.34375 238.265625 344.886719 C 250.285156 345.375 262.707031 345.875 275.785156 347.0625 C 277.636719 347.234375 279.433594 347.316406 281.179688 347.320312 Z M 281.179688 347.320312 " fill-opacity="1" fill-rule="nonzero"/></g><g clip-path="url(#bc7c386081)"><path fill="#b3b3b3" d="M 284.648438 345.839844 C 290.253906 345.839844 295.265625 344.9375 299.8125 343.121094 C 307.0625 340.222656 313.414062 334.929688 319.230469 326.933594 C 329.488281 312.828125 351.113281 307.574219 380.121094 312.144531 C 383.453125 312.667969 386.90625 313.25 390.558594 313.867188 C 405.402344 316.375 422.195312 319.207031 437.808594 319.210938 C 451.292969 319.210938 463.902344 317.097656 473.625 310.832031 C 482.421875 305.167969 483.242188 296.191406 484.28125 284.824219 C 485.039062 276.488281 485.902344 267.042969 490.25 257.089844 C 501.835938 230.464844 516.234375 211.449219 533.046875 200.570312 C 538.960938 196.742188 545.566406 193.785156 551.953125 190.925781 C 565.753906 184.742188 578.789062 178.90625 585.683594 165.015625 C 591.871094 152.542969 592.105469 137.609375 592.332031 123.167969 C 592.375 120.46875 592.417969 117.679688 592.5 114.953125 C 592.703125 108.617188 593.050781 103.519531 593.597656 98.910156 C 594.988281 87.132812 598.046875 76.570312 602.683594 67.515625 C 607.578125 57.953125 614.0625 50.019531 621.957031 43.933594 C 639.738281 30.230469 663.679688 26.867188 680.183594 35.753906 L 680.351562 35.445312 C 672.007812 30.953125 661.789062 29.476562 650.800781 31.183594 C 645.515625 32.027344 640.414062 33.503906 635.5 35.613281 C 630.582031 37.726562 625.996094 40.40625 621.746094 43.652344 C 613.808594 49.769531 607.289062 57.746094 602.371094 67.351562 C 597.714844 76.445312 594.648438 87.046875 593.25 98.867188 C 592.703125 103.484375 592.351562 108.59375 592.152344 114.941406 C 592.070312 117.671875 592.027344 120.460938 591.984375 123.160156 C 591.757812 137.5625 591.523438 152.457031 585.371094 164.855469 C 578.53125 178.636719 565.554688 184.445312 551.8125 190.601562 C 545.410156 193.46875 538.792969 196.433594 532.855469 200.273438 C 515.988281 211.191406 501.542969 230.257812 489.925781 256.945312 C 485.558594 266.953125 484.695312 276.429688 483.929688 284.792969 C 482.902344 296.0625 482.089844 304.964844 473.4375 310.535156 C 452.5625 323.980469 418.214844 318.179688 390.617188 313.519531 C 386.960938 312.902344 383.511719 312.320312 380.175781 311.796875 C 366.386719 309.625 354.160156 309.675781 343.832031 311.949219 C 332.660156 314.410156 324.289062 319.382812 318.945312 326.726562 C 307.765625 342.097656 294.9375 347.515625 276.050781 344.851562 C 259.292969 342.484375 244.109375 342.757812 229.421875 343.023438 C 219.527344 343.199219 210.183594 343.367188 201.101562 342.691406 C 198.6875 342.511719 196.21875 342.363281 193.601562 342.210938 C 186.210938 341.773438 177.832031 341.273438 168.800781 339.839844 C 166.671875 339.5 164.535156 339.160156 162.394531 338.820312 C 133.039062 334.175781 102.6875 329.371094 81.011719 321.035156 C 77.578125 319.757812 74.292969 318.171875 71.152344 316.277344 C 56.582031 307.214844 40.511719 309.132812 29.597656 312.339844 C 17.058594 316.023438 4.148438 323.558594 -4.925781 332.496094 L -4.679688 332.75 C 10.53125 317.769531 44.519531 300.128906 70.96875 316.574219 C 74.125 318.480469 77.433594 320.078125 80.886719 321.363281 C 102.597656 329.710938 132.96875 334.519531 162.339844 339.167969 C 164.484375 339.507812 166.617188 339.84375 168.746094 340.183594 C 177.792969 341.625 186.183594 342.121094 193.585938 342.558594 C 196.199219 342.714844 198.667969 342.859375 201.078125 343.039062 C 210.175781 343.71875 219.527344 343.550781 229.429688 343.371094 C 244.101562 343.109375 259.273438 342.835938 276.003906 345.199219 C 278.867188 345.613281 281.75 345.828125 284.648438 345.839844 Z M 284.648438 345.839844 " fill-opacity="1" fill-rule="nonzero"/></g><g clip-path="url(#90c7c86c11)"><path fill="#b3b3b3" d="M 288.179688 344.554688 C 301.167969 344.554688 311.105469 339.503906 320.113281 328.6875 C 325.585938 322.117188 333.992188 317.691406 345.09375 315.542969 C 355.378906 313.546875 367.710938 313.539062 381.738281 315.515625 C 383.472656 315.757812 385.246094 316.011719 387.050781 316.269531 C 416.546875 320.496094 453.253906 325.757812 475.789062 310.359375 C 484.238281 304.582031 485.246094 295.34375 486.414062 284.648438 C 487.285156 276.648438 488.273438 267.578125 492.429688 258.039062 C 503.691406 232.105469 517.425781 213.375 533.25 202.371094 C 538.792969 198.515625 544.980469 195.457031 550.960938 192.5 C 564 186.058594 576.316406 179.972656 582.703125 166.277344 C 588.390625 154.085938 588.722656 139.664062 589.046875 125.71875 C 589.121094 122.453125 589.199219 119.082031 589.34375 115.789062 C 589.625 109.617188 590.085938 104.347656 590.753906 99.671875 C 592.4375 87.867188 595.84375 77.363281 600.878906 68.460938 C 606.136719 59.152344 612.996094 51.523438 621.257812 45.789062 C 639.792969 32.917969 663.914062 30.628906 679.921875 40.21875 L 680.101562 39.917969 C 672.027344 35.078125 661.898438 33.160156 650.816406 34.363281 C 645.472656 34.972656 640.285156 36.214844 635.25 38.101562 C 630.214844 39.984375 625.484375 42.449219 621.058594 45.5 C 612.753906 51.269531 605.859375 58.9375 600.570312 68.292969 C 595.515625 77.234375 592.097656 87.773438 590.40625 99.625 C 589.738281 104.308594 589.273438 109.59375 588.992188 115.773438 C 588.847656 119.070312 588.769531 122.445312 588.695312 125.710938 C 588.375 139.621094 588.042969 154.003906 582.386719 166.132812 C 576.050781 179.714844 563.789062 185.773438 550.808594 192.1875 C 544.8125 195.152344 538.613281 198.214844 533.050781 202.085938 C 517.171875 213.128906 503.398438 231.90625 492.105469 257.902344 C 487.929688 267.488281 486.9375 276.585938 486.0625 284.613281 C 484.859375 295.660156 483.90625 304.386719 475.589844 310.070312 C 453.167969 325.394531 416.535156 320.144531 387.101562 315.925781 C 385.296875 315.667969 383.523438 315.414062 381.785156 315.167969 C 367.71875 313.1875 355.351562 313.199219 345.027344 315.199219 C 333.84375 317.367188 325.367188 321.828125 319.839844 328.46875 C 308.347656 342.269531 295.320312 346.609375 276.277344 342.984375 C 253.40625 338.632812 233.976562 340.4375 215.183594 342.183594 C 210.785156 342.59375 206.238281 343.015625 201.808594 343.335938 C 192.964844 343.980469 182.398438 343.382812 169.511719 341.507812 L 167.753906 341.253906 C 136.304688 336.695312 103.789062 331.976562 81.46875 323.023438 C 78.046875 321.707031 74.816406 320.023438 71.769531 317.984375 C 60.84375 310.382812 46.585938 308.933594 30.539062 313.785156 C 18.710938 317.367188 5.574219 324.621094 -4.601562 333.199219 L -4.375 333.46875 C 5.765625 324.921875 18.855469 317.6875 30.640625 314.125 C 46.582031 309.300781 60.734375 310.738281 71.570312 318.273438 C 74.636719 320.328125 77.890625 322.023438 81.335938 323.351562 C 103.695312 332.320312 136.234375 337.039062 167.703125 341.601562 L 169.460938 341.859375 C 182.371094 343.730469 192.964844 344.328125 201.835938 343.6875 C 206.265625 343.363281 210.816406 342.941406 215.21875 342.53125 C 233.984375 340.789062 253.386719 338.984375 276.210938 343.328125 C 280.164062 344.113281 284.152344 344.523438 288.179688 344.554688 Z M 288.179688 344.554688 " fill-opacity="1" fill-rule="nonzero"/></g><g clip-path="url(#e2f00f2d0d)"><path fill="#b3b3b3" d="M 190.785156 345.03125 C 194.734375 345.046875 198.664062 344.816406 202.582031 344.335938 C 207.507812 343.710938 212.488281 342.894531 217.304688 342.109375 C 235.328125 339.160156 253.96875 336.117188 276.425781 341.460938 C 281.957031 342.777344 286.996094 343.449219 291.648438 343.449219 C 303.28125 343.449219 312.503906 339.253906 320.996094 330.449219 C 331.882812 319.152344 353.449219 315.15625 383.355469 318.886719 C 397.015625 320.59375 415.71875 322.925781 433.058594 322.367188 C 452.535156 321.738281 467.21875 317.65625 477.953125 309.886719 C 486.066406 304.011719 487.222656 294.957031 488.558594 284.476562 C 489.539062 276.804688 490.648438 268.113281 494.609375 258.996094 C 505.554688 233.746094 518.625 215.300781 533.453125 204.175781 C 538.625 200.296875 544.386719 197.144531 549.960938 194.097656 C 562.238281 187.382812 573.835938 181.039062 579.726562 167.546875 C 584.933594 155.621094 585.339844 141.695312 585.734375 128.230469 C 585.847656 124.417969 585.960938 120.472656 586.183594 116.628906 C 586.472656 111.199219 587.050781 105.800781 587.914062 100.4375 C 589.890625 88.597656 593.644531 78.160156 599.070312 69.414062 C 604.695312 60.355469 611.925781 53.03125 620.558594 47.644531 C 639.546875 35.796875 664.402344 34.554688 679.660156 44.6875 L 679.851562 44.394531 C 672.046875 39.207031 662.011719 36.839844 650.835938 37.550781 C 645.433594 37.917969 640.160156 38.929688 635.007812 40.589844 C 629.851562 42.246094 624.976562 44.496094 620.371094 47.34375 C 611.691406 52.761719 604.421875 60.125 598.773438 69.226562 C 593.320312 78.011719 589.550781 88.492188 587.566406 100.378906 C 586.699219 105.757812 586.121094 111.164062 585.832031 116.605469 C 585.609375 120.457031 585.496094 124.402344 585.382812 128.21875 C 584.988281 141.652344 584.582031 155.542969 579.402344 167.40625 C 573.558594 180.789062 562.015625 187.101562 549.792969 193.789062 C 544.207031 196.84375 538.433594 200 533.242188 203.894531 C 518.359375 215.058594 505.253906 233.550781 494.289062 258.855469 C 490.304688 268.019531 489.191406 276.738281 488.210938 284.429688 C 486.882812 294.832031 485.734375 303.816406 477.746094 309.601562 C 453.339844 327.269531 412.917969 322.222656 383.398438 318.539062 C 353.378906 314.789062 331.710938 318.824219 320.742188 330.203125 C 308.957031 342.429688 295.726562 345.695312 276.507812 341.121094 C 253.980469 335.757812 235.308594 338.808594 217.246094 341.761719 C 212.433594 342.546875 207.457031 343.359375 202.539062 343.984375 C 193.5625 345.125 182.992188 344.863281 170.222656 343.183594 C 141.097656 339.359375 104.851562 334.597656 81.925781 325.015625 C 78.074219 323.40625 74.863281 321.617188 72.386719 319.695312 C 48.882812 301.472656 14.265625 320.773438 -4.277344 333.902344 L -4.074219 334.1875 C 14.390625 321.117188 48.847656 301.886719 72.171875 319.972656 C 74.671875 321.914062 77.910156 323.71875 81.789062 325.339844 C 104.761719 334.941406 141.03125 339.707031 170.175781 343.535156 C 177.011719 344.480469 183.882812 344.980469 190.785156 345.03125 Z M 190.785156 345.03125 " fill-opacity="1" fill-rule="nonzero"/></g><g clip-path="url(#c2b2b50d8e)"><path fill="#b3b3b3" d="M 187.675781 346.277344 C 192.929688 346.316406 198.148438 345.882812 203.328125 344.976562 C 208.597656 344.023438 213.839844 342.789062 218.914062 341.59375 C 236.339844 337.492188 254.363281 333.25 276.640625 339.589844 C 296.449219 345.230469 309.554688 343.089844 321.871094 332.207031 C 333.140625 322.25 354.371094 318.902344 384.972656 322.257812 C 400.179688 323.925781 418.039062 325.449219 435.210938 324.105469 C 454.480469 322.597656 469.167969 317.789062 480.113281 309.410156 C 487.902344 303.445312 489.207031 294.570312 490.71875 284.289062 C 491.796875 276.953125 493.019531 268.636719 496.789062 259.949219 C 507.414062 235.371094 519.816406 217.214844 533.65625 205.976562 C 538.453125 202.082031 543.785156 198.84375 548.945312 195.707031 C 560.460938 188.710938 571.335938 182.105469 576.746094 168.808594 C 581.488281 157.152344 581.953125 143.710938 582.402344 130.714844 C 582.554688 126.355469 582.710938 121.851562 583.023438 117.460938 C 583.390625 112 584.074219 106.578125 585.070312 101.199219 C 587.304688 89.488281 591.523438 78.824219 597.265625 70.363281 C 600.160156 66.046875 603.515625 62.125 607.332031 58.597656 C 611.148438 55.074219 615.324219 52.039062 619.859375 49.496094 C 639.605469 38.46875 664.644531 38.324219 679.398438 49.152344 L 679.605469 48.871094 C 672.066406 43.335938 662.128906 40.523438 650.855469 40.734375 C 645.398438 40.867188 640.03125 41.644531 634.761719 43.078125 C 629.488281 44.507812 624.464844 46.546875 619.6875 49.191406 C 615.132812 51.746094 610.933594 54.796875 607.097656 58.339844 C 603.257812 61.886719 599.886719 65.828125 596.976562 70.167969 C 591.207031 78.667969 586.972656 89.375 584.726562 101.132812 C 583.726562 106.527344 583.042969 111.964844 582.675781 117.4375 C 582.363281 121.835938 582.207031 126.34375 582.054688 130.707031 C 581.609375 143.671875 581.144531 157.078125 576.421875 168.679688 C 571.054688 181.867188 560.226562 188.445312 548.761719 195.410156 C 543.59375 198.550781 538.25 201.796875 533.433594 205.707031 C 519.550781 216.980469 507.113281 235.183594 496.46875 259.8125 C 492.679688 268.542969 491.453125 276.882812 490.371094 284.242188 C 488.871094 294.445312 487.574219 303.257812 479.902344 309.132812 C 456.566406 327.003906 418.835938 325.621094 385.011719 321.914062 C 354.308594 318.542969 332.984375 321.921875 321.640625 331.945312 C 309.425781 342.738281 296.414062 344.859375 276.738281 339.257812 C 254.371094 332.890625 236.304688 337.144531 218.835938 341.257812 C 213.769531 342.449219 208.527344 343.683594 203.269531 344.636719 C 194.183594 346.285156 183.609375 346.359375 170.933594 344.863281 C 137.949219 340.972656 103.941406 336.390625 82.382812 327.007812 C 78.519531 325.328125 75.363281 323.441406 73.003906 321.40625 C 63.476562 313.195312 50.558594 311.378906 34.609375 316.007812 C 21.160156 319.910156 8.296875 327.441406 -1.09375 332.941406 C -2.089844 333.527344 -3.042969 334.082031 -3.949219 334.609375 L -3.773438 334.914062 C -2.867188 334.386719 -1.914062 333.832031 -0.917969 333.246094 C 17.210938 322.628906 50.960938 302.867188 72.773438 321.671875 C 75.160156 323.730469 78.347656 325.632812 82.238281 327.328125 C 103.84375 336.730469 137.882812 341.316406 170.890625 345.210938 C 176.464844 345.894531 182.058594 346.25 187.675781 346.277344 Z M 187.675781 346.277344 " fill-opacity="1" fill-rule="nonzero"/></g><g clip-path="url(#fd1207b473)"><path fill="#b3b3b3" d="M 185.175781 347.640625 C 192.109375 347.640625 198.359375 346.96875 204.078125 345.625 C 209.632812 344.316406 215.0625 342.640625 220.3125 341.019531 C 237.984375 335.558594 254.675781 330.402344 276.859375 337.726562 C 296.890625 344.335938 310.1875 343.246094 322.753906 333.96875 C 334.378906 325.375 355.261719 322.652344 386.589844 325.632812 C 415.421875 328.375 456.707031 329.632812 482.277344 308.9375 C 489.746094 302.894531 491.207031 294.183594 492.894531 284.101562 C 494.070312 277.097656 495.398438 269.164062 498.972656 260.90625 C 509.285156 236.992188 521.023438 219.117188 533.859375 207.785156 C 538.277344 203.882812 543.175781 200.5625 547.917969 197.351562 C 558.671875 190.0625 568.828125 183.175781 573.769531 170.078125 C 578.066406 158.6875 578.570312 145.730469 579.058594 133.195312 C 579.25 128.296875 579.449219 123.230469 579.867188 118.300781 C 580.3125 112.804688 581.097656 107.359375 582.230469 101.964844 C 584.757812 90.207031 589.332031 79.609375 595.460938 71.3125 C 598.558594 67.089844 602.109375 63.289062 606.117188 59.914062 C 610.121094 56.539062 614.472656 53.6875 619.160156 51.355469 C 639.667969 41.144531 664.890625 42.097656 679.140625 53.621094 L 679.359375 53.347656 C 672.089844 47.464844 662.242188 44.207031 650.878906 43.921875 C 645.359375 43.816406 639.902344 44.363281 634.515625 45.566406 C 629.125 46.769531 623.957031 48.59375 619.007812 51.039062 C 614.289062 53.382812 609.917969 56.253906 605.890625 59.644531 C 601.863281 63.039062 598.292969 66.859375 595.179688 71.105469 C 589.019531 79.441406 584.421875 90.085938 581.882812 101.890625 C 580.75 107.300781 579.960938 112.761719 579.515625 118.269531 C 579.09375 123.210938 578.898438 128.277344 578.707031 133.183594 C 578.21875 145.6875 577.714844 158.621094 573.4375 169.953125 C 568.535156 182.949219 558.421875 189.800781 547.71875 197.058594 C 542.972656 200.273438 538.0625 203.601562 533.625 207.519531 C 520.75 218.886719 508.980469 236.800781 498.648438 260.765625 C 495.054688 269.0625 493.722656 277.019531 492.546875 284.039062 C 490.871094 294.054688 489.421875 302.699219 482.054688 308.664062 C 456.585938 329.277344 415.390625 328.019531 386.621094 325.28125 C 355.203125 322.289062 334.242188 325.039062 322.542969 333.683594 C 310.082031 342.886719 296.875 343.960938 276.964844 337.390625 C 254.675781 330.035156 237.933594 335.207031 220.207031 340.679688 C 214.960938 342.300781 209.535156 343.976562 203.996094 345.28125 C 194.8125 347.445312 184.230469 347.851562 171.644531 346.535156 C 140.125 343.230469 104.671875 338.878906 82.835938 328.992188 C 78.96875 327.242188 75.863281 325.265625 73.617188 323.113281 C 54.777344 305.089844 25.488281 320.332031 6.105469 330.421875 C 2.558594 332.265625 -0.789062 334.011719 -3.621094 335.308594 L -3.472656 335.625 C -0.636719 334.324219 2.71875 332.582031 6.269531 330.734375 C 25.5625 320.691406 54.71875 305.515625 73.375 323.367188 C 75.652344 325.542969 78.785156 327.546875 82.691406 329.3125 C 104.574219 339.21875 140.0625 343.574219 171.609375 346.882812 C 176.117188 347.371094 180.640625 347.625 185.175781 347.640625 Z M 185.175781 347.640625 " fill-opacity="1" fill-rule="nonzero"/></g><g clip-path="url(#3fee8366cc)"><path fill="#b3b3b3" d="M 183.023438 349.070312 C 191.082031 349.070312 198.382812 348.132812 204.820312 346.269531 C 210.628906 344.589844 216.203125 342.449219 221.597656 340.378906 C 238.746094 333.792969 254.945312 327.574219 277.070312 335.855469 C 287.261719 339.667969 295.355469 341.480469 302.539062 341.554688 C 310.175781 341.625 316.882812 339.78125 323.625 335.722656 C 335.585938 328.527344 356.105469 326.394531 388.207031 329.003906 C 431.953125 332.566406 464.332031 325.652344 484.441406 308.464844 C 491.609375 302.335938 493.222656 293.789062 495.09375 283.886719 C 496.351562 277.226562 497.777344 269.675781 501.152344 261.863281 C 511.300781 238.261719 522.066406 221.164062 534.0625 209.585938 C 538.097656 205.691406 542.558594 202.300781 546.871094 199.023438 C 556.863281 191.429688 566.304688 184.253906 570.789062 171.34375 C 574.648438 160.238281 575.179688 147.753906 575.695312 135.683594 C 575.925781 130.242188 576.167969 124.609375 576.707031 119.136719 C 577.234375 113.609375 578.125 108.136719 579.386719 102.726562 C 582.203125 90.925781 587.136719 80.390625 593.652344 72.265625 C 596.953125 68.128906 600.703125 64.449219 604.898438 61.226562 C 609.09375 58.003906 613.613281 55.332031 618.460938 53.207031 C 639.734375 43.824219 665.144531 45.871094 678.875 58.085938 L 679.109375 57.824219 C 672.109375 51.597656 662.355469 47.894531 650.898438 47.113281 C 645.316406 46.765625 639.769531 47.078125 634.261719 48.054688 C 628.757812 49.03125 623.441406 50.640625 618.320312 52.886719 C 613.445312 55.023438 608.902344 57.710938 604.683594 60.949219 C 600.464844 64.191406 596.699219 67.886719 593.378906 72.042969 C 586.828125 80.210938 581.871094 90.792969 579.046875 102.644531 C 577.78125 108.070312 576.886719 113.558594 576.355469 119.105469 C 575.816406 124.585938 575.578125 130.222656 575.34375 135.667969 C 574.832031 147.714844 574.300781 160.171875 570.457031 171.230469 C 566.007812 184.039062 556.609375 191.183594 546.65625 198.746094 C 542.335938 202.027344 537.867188 205.425781 533.816406 209.332031 C 521.789062 220.941406 511 238.078125 500.832031 261.722656 C 497.4375 269.574219 496.011719 277.144531 494.75 283.824219 C 492.890625 293.65625 491.289062 302.148438 484.210938 308.199219 C 464.179688 325.324219 431.890625 332.203125 388.234375 328.65625 C 356.054688 326.039062 335.46875 328.191406 323.445312 335.425781 C 310.605469 343.152344 297.640625 343.179688 277.195312 335.527344 C 254.945312 327.199219 238.683594 333.441406 221.472656 340.050781 C 216.085938 342.121094 210.515625 344.257812 204.726562 345.933594 C 195.582031 348.578125 184.691406 349.34375 172.355469 348.210938 C 140.113281 345.246094 104.320312 340.878906 83.292969 330.984375 C 79.414062 329.160156 76.367188 327.089844 74.234375 324.828125 C 57.523438 307.101562 30.855469 320.039062 11.382812 329.484375 C 5.707031 332.238281 0.808594 334.613281 -3.285156 336.015625 L -3.171875 336.347656 C 0.941406 334.9375 5.851562 332.558594 11.535156 329.800781 C 30.910156 320.402344 57.441406 307.53125 73.980469 325.066406 C 76.140625 327.363281 79.226562 329.460938 83.144531 331.304688 C 104.21875 341.21875 140.050781 345.589844 172.324219 348.558594 C 176.023438 348.898438 179.589844 349.070312 183.023438 349.070312 Z M 183.023438 349.070312 " fill-opacity="1" fill-rule="nonzero"/></g><g clip-path="url(#f3dd4de248)"><path fill="#b3b3b3" d="M 181.449219 350.578125 C 190.378906 350.578125 198.464844 349.351562 205.566406 346.914062 C 211.605469 344.839844 217.296875 342.21875 222.800781 339.679688 C 239.457031 332.007812 255.1875 324.757812 277.289062 333.988281 C 298.148438 342.695312 311.386719 343.675781 324.503906 337.484375 C 336.894531 331.628906 356.429688 330.105469 389.824219 332.378906 C 394.789062 332.71875 400.078125 332.925781 405.554688 332.925781 C 432.714844 332.925781 464.65625 327.804688 486.605469 307.992188 C 493.484375 301.78125 495.257812 293.378906 497.316406 283.652344 C 498.648438 277.335938 500.160156 270.183594 503.335938 262.820312 C 513.1875 239.84375 523.304688 223.019531 534.265625 211.390625 C 537.917969 207.519531 541.929688 204.078125 545.808594 200.75 C 555.042969 192.828125 563.765625 185.347656 567.8125 172.613281 C 571.246094 161.800781 571.792969 149.804688 572.320312 138.203125 C 572.59375 132.203125 572.875 126.003906 573.550781 119.976562 C 574.152344 114.410156 575.152344 108.914062 576.546875 103.492188 C 579.652344 91.636719 584.945312 81.167969 591.847656 73.214844 C 595.367188 69.183594 599.320312 65.632812 603.703125 62.5625 C 608.085938 59.492188 612.769531 56.992188 617.761719 55.0625 C 639.8125 46.5 665.40625 49.648438 678.617188 62.554688 L 678.863281 62.300781 C 672.132812 55.730469 662.472656 51.578125 650.917969 50.304688 C 645.273438 49.71875 639.640625 49.796875 634.015625 50.546875 C 628.390625 51.296875 622.929688 52.691406 617.632812 54.734375 C 612.617188 56.675781 607.90625 59.191406 603.5 62.277344 C 599.09375 65.363281 595.121094 68.933594 591.582031 72.984375 C 584.644531 80.980469 579.328125 91.496094 576.207031 103.402344 C 574.808594 108.84375 573.808594 114.355469 573.199219 119.9375 C 572.527344 125.972656 572.242188 132.179688 571.96875 138.183594 C 571.441406 149.765625 570.898438 161.738281 567.476562 172.507812 C 563.460938 185.144531 554.777344 192.59375 545.578125 200.484375 C 541.691406 203.816406 537.671875 207.261719 534.011719 211.148438 C 523.019531 222.808594 512.878906 239.664062 503.011719 262.679688 C 499.824219 270.074219 498.308594 277.25 496.972656 283.578125 C 494.929688 293.246094 493.164062 301.597656 486.367188 307.730469 C 460.085938 331.457031 419.371094 334.039062 389.847656 332.027344 C 356.390625 329.75 336.804688 331.285156 324.351562 337.164062 C 311.339844 343.308594 298.179688 342.328125 277.425781 333.660156 C 255.179688 324.375 239.382812 331.65625 222.65625 339.363281 C 217.160156 341.894531 211.472656 344.515625 205.453125 346.582031 C 196.230469 349.746094 185.335938 350.859375 173.066406 349.882812 C 142.644531 347.464844 105 343.359375 83.75 332.972656 C 79.863281 331.074219 76.871094 328.910156 74.851562 326.539062 C 59.765625 308.816406 35.261719 320.175781 15.574219 329.300781 C 8.640625 332.515625 2.09375 335.550781 -2.953125 336.722656 L -2.875 337.0625 C 2.207031 335.882812 8.773438 332.839844 15.722656 329.621094 C 35.304688 320.542969 59.671875 309.25 74.585938 326.765625 C 76.636719 329.175781 79.667969 331.371094 83.597656 333.289062 C 104.898438 343.703125 142.585938 347.816406 173.042969 350.234375 C 175.921875 350.460938 178.722656 350.578125 181.449219 350.578125 Z M 181.449219 350.578125 " fill-opacity="1" fill-rule="nonzero"/></g><g clip-path="url(#cbf8c882db)"><path fill="#b3b3b3" d="M 180.257812 352.132812 C 189.910156 352.132812 198.652344 350.601562 206.3125 347.558594 C 212.566406 345.074219 218.355469 341.953125 223.953125 338.933594 C 240.128906 330.203125 255.40625 321.960938 277.507812 332.117188 C 291.519531 338.554688 302.132812 341.613281 311.539062 341.613281 C 316.289062 341.617188 320.902344 340.828125 325.378906 339.238281 C 337.921875 334.851562 357.0625 333.84375 391.441406 335.75 C 410.464844 336.804688 428.128906 335.269531 443.945312 331.1875 C 462.140625 326.488281 477.222656 318.523438 488.769531 307.519531 C 495.378906 301.21875 497.320312 292.949219 499.570312 283.371094 C 501.035156 277.128906 502.554688 270.671875 505.519531 263.773438 C 515.089844 241.378906 524.5625 224.832031 534.472656 213.191406 C 537.726562 209.367188 541.28125 205.902344 544.71875 202.546875 C 553.203125 194.273438 561.214844 186.460938 564.832031 173.878906 C 567.851562 163.386719 568.398438 151.890625 568.929688 140.773438 C 569.242188 134.203125 569.566406 127.410156 570.390625 120.8125 C 571.074219 115.210938 572.179688 109.691406 573.703125 104.257812 C 577.105469 92.351562 582.753906 81.945312 590.042969 74.167969 C 593.769531 70.226562 597.917969 66.800781 602.492188 63.882812 C 607.0625 60.964844 611.917969 58.640625 617.0625 56.917969 C 639.894531 49.179688 665.671875 53.429688 678.355469 67.019531 L 678.613281 66.777344 C 672.15625 59.863281 662.585938 55.269531 650.941406 53.496094 C 645.230469 52.667969 639.507812 52.515625 633.761719 53.039062 C 628.019531 53.558594 622.414062 54.742188 616.949219 56.582031 C 611.777344 58.316406 606.894531 60.648438 602.300781 63.582031 C 597.703125 66.515625 593.53125 69.964844 589.785156 73.921875 C 582.457031 81.742188 576.78125 92.199219 573.363281 104.15625 C 571.835938 109.609375 570.726562 115.148438 570.039062 120.769531 C 569.214844 127.378906 568.890625 134.179688 568.578125 140.753906 C 568.046875 151.851562 567.5 163.328125 564.492188 173.78125 C 560.902344 186.273438 552.921875 194.054688 544.472656 202.292969 C 541.027344 205.652344 537.46875 209.125 534.203125 212.960938 C 524.269531 224.632812 514.78125 241.207031 505.191406 263.632812 C 502.214844 270.5625 500.625 277.324219 499.222656 283.292969 C 496.988281 292.8125 495.054688 301.035156 488.523438 307.261719 C 459.613281 334.824219 415.300781 336.722656 391.460938 335.398438 C 357.027344 333.488281 337.847656 334.503906 325.257812 338.90625 C 312.117188 343.496094 298.769531 341.503906 277.652344 331.796875 C 255.394531 321.566406 240.039062 329.851562 223.78125 338.625 C 218.191406 341.636719 212.414062 344.757812 206.183594 347.230469 C 196.886719 350.921875 185.984375 352.378906 173.777344 351.558594 C 145.636719 349.667969 105.738281 345.890625 84.203125 334.960938 C 80.3125 332.988281 77.371094 330.730469 75.464844 328.25 C 69.339844 320.277344 60.792969 317.230469 49.347656 318.929688 C 39.402344 320.40625 28.605469 325.261719 19.078125 329.546875 C 10.910156 333.222656 3.199219 336.691406 -2.621094 337.429688 L -2.578125 337.777344 C 3.296875 337.03125 11.03125 333.554688 19.21875 329.867188 C 28.726562 325.59375 39.503906 320.746094 49.394531 319.277344 C 60.707031 317.597656 69.144531 320.601562 75.183594 328.460938 C 77.125 330.984375 80.105469 333.277344 84.042969 335.277344 C 105.632812 346.234375 145.582031 350.015625 173.753906 351.910156 C 175.964844 352.058594 178.132812 352.132812 180.257812 352.132812 Z M 180.257812 352.132812 " fill-opacity="1" fill-rule="nonzero"/></g><g clip-path="url(#b02f1f66b3)"><path fill="#b3b3b3" d="M 179.371094 353.71875 C 189.625 353.71875 198.917969 351.871094 207.058594 348.203125 C 213.511719 345.292969 219.378906 341.65625 225.050781 338.136719 C 241.449219 327.960938 255.613281 319.175781 277.722656 330.246094 C 299.628906 341.214844 312.78125 344.128906 326.246094 340.992188 C 340.664062 337.632812 361.660156 337.761719 393.058594 339.121094 C 411.820312 339.929688 430.183594 337.8125 446.164062 332.988281 C 464.175781 327.546875 479.238281 318.820312 490.929688 307.042969 C 497.285156 300.640625 499.40625 292.484375 501.859375 283.039062 C 503.378906 277.1875 504.949219 271.140625 507.695312 264.726562 C 517.152344 242.535156 525.726562 226.730469 534.675781 214.988281 C 537.523438 211.25 540.613281 207.792969 543.601562 204.445312 C 551.335938 195.785156 558.644531 187.605469 561.851562 175.144531 C 564.460938 165.011719 565 154.042969 565.519531 143.433594 C 565.871094 136.261719 566.238281 128.84375 567.230469 121.648438 C 567.992188 116.007812 569.203125 110.464844 570.859375 105.019531 C 574.554688 93.054688 580.5625 82.714844 588.234375 75.113281 C 595.839844 67.574219 605.566406 61.925781 616.359375 58.769531 C 639.980469 51.863281 665.945312 57.210938 678.097656 71.484375 L 678.363281 71.253906 C 672.179688 63.996094 662.707031 58.957031 650.960938 56.691406 C 639.800781 54.535156 627.476562 55.152344 616.265625 58.429688 C 605.410156 61.605469 595.632812 67.285156 587.988281 74.863281 C 580.277344 82.507812 574.238281 92.898438 570.523438 104.914062 C 568.863281 110.378906 567.648438 115.941406 566.882812 121.601562 C 565.886719 128.8125 565.523438 136.234375 565.171875 143.417969 C 564.652344 154.007812 564.113281 164.960938 561.515625 175.054688 C 558.328125 187.4375 551.050781 195.585938 543.34375 204.214844 C 540.351562 207.5625 537.253906 211.027344 534.398438 214.777344 C 525.429688 226.542969 516.84375 242.371094 507.375 264.589844 C 504.617188 271.027344 503.042969 277.089844 501.519531 282.949219 C 499.078125 292.34375 496.972656 300.460938 490.679688 306.796875 C 460.695312 336.996094 416.65625 339.792969 393.074219 338.769531 C 361.648438 337.410156 340.625 337.28125 326.171875 340.648438 C 312.792969 343.765625 299.703125 340.859375 277.882812 329.933594 C 267.703125 324.835938 258.539062 323.574219 249.042969 325.960938 C 240.585938 328.085938 232.949219 332.820312 224.867188 337.835938 C 219.203125 341.347656 213.347656 344.980469 206.917969 347.878906 C 197.550781 352.101562 186.640625 353.902344 174.492188 353.230469 C 130.207031 350.789062 100.824219 345.464844 84.664062 336.953125 C 80.765625 334.898438 77.878906 332.546875 76.082031 329.957031 C 63.492188 311.808594 41.507812 321.503906 22.113281 330.0625 C 12.898438 334.125 4.195312 337.964844 -2.285156 338.136719 L -2.277344 338.488281 C 4.273438 338.316406 13.007812 334.460938 22.257812 330.382812 C 41.527344 321.882812 63.371094 312.246094 75.792969 330.15625 C 77.621094 332.792969 80.550781 335.183594 84.5 337.261719 C 100.707031 345.796875 130.136719 351.136719 174.472656 353.582031 C 176.128906 353.675781 177.761719 353.71875 179.371094 353.71875 Z M 179.371094 353.71875 " fill-opacity="1" fill-rule="nonzero"/></g><g clip-path="url(#1318e42986)"><path fill="#b3b3b3" d="M 178.742188 355.335938 C 189.488281 355.335938 199.25 353.15625 207.804688 348.84375 C 214.449219 345.496094 220.378906 341.324219 226.109375 337.292969 C 242.046875 326.085938 255.808594 316.40625 277.941406 328.378906 C 296.910156 338.640625 311.75 344.621094 327.121094 342.742188 C 341.890625 340.9375 362.414062 341.472656 394.675781 342.496094 C 413.511719 343.09375 432.09375 340.433594 448.402344 334.800781 C 466.25 328.640625 481.285156 319.140625 493.09375 306.570312 C 499.222656 300.039062 501.53125 291.964844 504.203125 282.617188 C 505.753906 277.191406 507.359375 271.585938 509.878906 265.683594 C 516.207031 250.785156 524.765625 231.765625 534.878906 216.789062 C 537.3125 213.191406 539.921875 209.796875 542.449219 206.511719 C 549.449219 197.40625 556.0625 188.808594 558.875 176.410156 C 561.078125 166.691406 561.597656 156.289062 562.097656 146.230469 C 562.488281 138.410156 562.890625 130.324219 564.074219 122.488281 C 564.914062 116.808594 566.230469 111.238281 568.019531 105.78125 C 572.007812 93.765625 578.375 83.488281 586.429688 76.0625 C 594.371094 68.742188 604.480469 63.402344 615.664062 60.621094 C 640.074219 54.554688 666.21875 61 677.835938 75.949219 L 678.113281 75.734375 C 672.207031 68.128906 662.824219 62.652344 650.980469 59.886719 C 639.730469 57.261719 627.160156 57.402344 615.578125 60.28125 C 604.335938 63.074219 594.175781 68.445312 586.191406 75.804688 C 578.09375 83.269531 571.695312 93.597656 567.683594 105.671875 C 565.890625 111.144531 564.570312 116.734375 563.722656 122.433594 C 562.539062 130.289062 562.136719 138.386719 561.746094 146.214844 C 561.246094 156.257812 560.726562 166.644531 558.53125 176.332031 C 555.738281 188.65625 549.148438 197.222656 542.167969 206.296875 C 539.640625 209.585938 537.027344 212.984375 534.585938 216.59375 C 524.457031 231.59375 515.886719 250.632812 509.554688 265.546875 C 507.027344 271.46875 505.417969 277.085938 503.867188 282.519531 C 501.207031 291.824219 498.910156 299.863281 492.835938 306.328125 C 470.277344 330.351562 434.507812 343.410156 394.683594 342.144531 C 362.40625 341.121094 341.871094 340.585938 327.078125 342.394531 C 311.804688 344.261719 297.015625 338.296875 278.109375 328.070312 C 267.90625 322.550781 258.828125 321.210938 249.539062 323.855469 C 241.253906 326.214844 233.800781 331.457031 225.910156 337.003906 C 220.1875 341.03125 214.269531 345.191406 207.648438 348.53125 C 198.214844 353.289062 187.300781 355.429688 175.203125 354.90625 C 131.332031 353.003906 101.023438 347.632812 85.121094 338.945312 C 81.214844 336.808594 78.382812 334.363281 76.699219 331.671875 C 65.136719 313.1875 43.714844 322.523438 24.8125 330.757812 C 14.679688 335.175781 5.105469 339.34375 -1.953125 338.851562 L -1.976562 339.203125 C 5.175781 339.703125 14.78125 335.515625 24.953125 331.082031 C 43.722656 322.902344 65 313.632812 76.398438 331.859375 C 78.113281 334.601562 80.992188 337.089844 84.949219 339.253906 C 100.902344 347.96875 131.261719 353.351562 175.1875 355.261719 C 176.382812 355.3125 177.566406 355.335938 178.742188 355.335938 Z M 178.742188 355.335938 " fill-opacity="1" fill-rule="nonzero"/></g><g clip-path="url(#94e39552e2)"><path fill="#b3b3b3" d="M 178.320312 356.972656 C 189.480469 356.972656 199.636719 354.457031 208.546875 349.488281 C 215.375 345.679688 221.351562 340.964844 227.132812 336.40625 C 242.617188 324.195312 255.988281 313.644531 278.15625 326.507812 C 298.933594 338.5625 311.769531 344.597656 324.96875 344.597656 C 325.976562 344.597656 326.984375 344.5625 328 344.492188 C 337.683594 343.824219 349.777344 344.289062 365.085938 344.878906 C 374.183594 345.230469 384.496094 345.625 396.289062 345.867188 C 415.273438 346.257812 434.074219 343.0625 450.660156 336.628906 C 468.367188 329.761719 483.371094 319.492188 495.253906 306.097656 C 501.195312 299.398438 503.714844 291.363281 506.628906 282.058594 C 508.179688 277.101562 509.785156 271.980469 512.058594 266.636719 C 519.089844 250.019531 526.746094 232.695312 535.082031 218.589844 C 537.078125 215.214844 539.191406 211.976562 541.234375 208.84375 C 547.523438 199.203125 553.464844 190.101562 555.894531 177.675781 C 557.703125 168.445312 558.1875 158.675781 558.65625 149.226562 C 559.078125 140.691406 559.515625 131.867188 560.914062 123.324219 C 561.835938 117.605469 563.257812 112.011719 565.175781 106.542969 C 569.464844 94.46875 576.1875 84.253906 584.625 77.007812 C 592.898438 69.902344 603.390625 64.875 614.964844 62.472656 C 640.167969 57.246094 666.5 64.789062 677.578125 80.414062 L 677.863281 80.210938 C 672.230469 72.265625 662.941406 66.34375 651 63.082031 C 639.664062 59.988281 626.839844 59.652344 614.894531 62.128906 C 603.261719 64.542969 592.714844 69.59375 584.394531 76.742188 C 575.914062 84.027344 569.15625 94.292969 564.847656 106.425781 C 562.921875 111.910156 561.496094 117.527344 560.570312 123.265625 C 559.167969 131.828125 558.730469 140.664062 558.304688 149.207031 C 557.835938 158.644531 557.355469 168.402344 555.554688 177.609375 C 553.136719 189.964844 547.214844 199.042969 540.945312 208.652344 C 538.898438 211.789062 536.78125 215.03125 534.785156 218.410156 C 526.4375 232.535156 518.773438 249.871094 511.738281 266.5 C 509.460938 271.859375 507.851562 276.988281 506.296875 281.953125 C 503.390625 291.21875 500.882812 299.222656 494.996094 305.863281 C 471.914062 331.875 435.941406 346.320312 396.300781 345.515625 C 384.507812 345.273438 374.199219 344.875 365.101562 344.523438 C 349.785156 343.933594 337.683594 343.46875 327.980469 344.140625 C 313.75 345.128906 300.636719 339.140625 278.335938 326.203125 C 255.960938 313.21875 242.5 323.835938 226.917969 336.128906 C 221.148438 340.679688 215.179688 345.386719 208.378906 349.179688 C 198.886719 354.476562 187.964844 356.964844 175.917969 356.582031 C 132.4375 355.191406 101.199219 349.78125 85.578125 340.929688 C 81.664062 338.714844 78.886719 336.175781 77.3125 333.378906 C 72.558594 324.941406 65.375 321.328125 55.34375 322.34375 C 46.535156 323.234375 36.738281 327.476562 27.261719 331.578125 C 16.3125 336.316406 5.96875 340.789062 -1.621094 339.5625 L -1.679688 339.910156 C 6.015625 341.15625 16.402344 336.660156 27.402344 331.898438 C 36.851562 327.808594 46.625 323.582031 55.378906 322.695312 C 65.253906 321.695312 72.328125 325.246094 77.003906 333.554688 C 78.609375 336.402344 81.433594 338.988281 85.402344 341.238281 C 105.203125 352.453125 145.546875 355.960938 175.90625 356.929688 C 176.714844 356.957031 177.519531 356.972656 178.320312 356.972656 Z M 178.320312 356.972656 " fill-opacity="1" fill-rule="nonzero"/></g><g clip-path="url(#7a011924ac)"><path fill="#b3b3b3" d="M 178.144531 358.625 C 189.753906 358.625 199.957031 355.839844 209.292969 350.132812 C 216.292969 345.855469 222.304688 340.582031 228.121094 335.484375 C 243.167969 322.289062 256.164062 310.898438 278.378906 324.640625 C 299.445312 337.671875 313.730469 344.972656 328.863281 346.242188 C 343.480469 347.464844 364.539062 348.914062 397.90625 349.238281 C 398.378906 349.246094 398.855469 349.246094 399.324219 349.246094 C 438.484375 349.246094 474.167969 333.394531 497.417969 305.621094 C 503.222656 298.6875 506.117188 290.222656 509.183594 281.261719 C 510.6875 276.855469 512.246094 272.296875 514.238281 267.59375 L 515.574219 264.421875 C 521.921875 249.347656 528.488281 233.757812 535.285156 220.390625 C 536.808594 217.398438 538.394531 214.472656 539.929688 211.648438 C 545.542969 201.3125 550.847656 191.554688 552.914062 178.941406 C 554.332031 170.308594 554.769531 161.257812 555.191406 152.503906 C 555.640625 143.164062 556.105469 133.503906 557.753906 124.164062 C 558.757812 118.402344 560.285156 112.785156 562.332031 107.308594 C 566.917969 95.171875 574.003906 85.023438 582.816406 77.960938 C 591.425781 71.058594 602.300781 66.347656 614.265625 64.328125 C 640.261719 59.941406 666.78125 68.585938 677.320312 84.878906 L 677.613281 84.6875 C 672.253906 76.402344 663.058594 70.035156 651.019531 66.285156 C 639.59375 62.722656 626.523438 61.902344 614.207031 63.980469 C 602.183594 66.007812 591.253906 70.746094 582.597656 77.683594 C 573.734375 84.789062 566.613281 94.988281 562.003906 107.183594 C 559.949219 112.679688 558.417969 118.316406 557.410156 124.097656 C 555.757812 133.460938 555.289062 143.132812 554.839844 152.484375 C 554.417969 161.226562 553.984375 170.269531 552.570312 178.886719 C 550.511719 191.4375 545.222656 201.171875 539.625 211.476562 C 538.085938 214.308594 536.496094 217.234375 534.972656 220.230469 C 528.167969 233.609375 521.601562 249.203125 515.25 264.285156 L 513.914062 267.457031 C 511.917969 272.171875 510.359375 276.734375 508.847656 281.144531 C 505.796875 290.074219 502.910156 298.511719 497.148438 305.394531 C 473.6875 333.421875 437.519531 349.257812 397.910156 348.886719 C 364.554688 348.5625 343.503906 347.117188 328.890625 345.890625 C 313.828125 344.628906 299.582031 337.34375 278.558594 324.339844 C 256.125 310.460938 243.039062 321.933594 227.886719 335.21875 C 222.082031 340.308594 216.082031 345.570312 209.105469 349.832031 C 199.421875 355.753906 188.796875 358.511719 176.625 358.257812 C 146.132812 357.625 105.667969 354.457031 86.03125 342.921875 C 82.113281 340.621094 79.386719 337.988281 77.921875 335.09375 C 73.554688 326.457031 66.730469 322.679688 57.054688 323.53125 C 48.53125 324.285156 38.867188 328.457031 29.519531 332.488281 C 17.828125 337.53125 6.78125 342.296875 -1.296875 340.277344 L -1.378906 340.621094 C 6.8125 342.667969 17.910156 337.878906 29.660156 332.8125 C 48.511719 324.675781 68.007812 316.265625 77.609375 335.253906 C 79.101562 338.207031 81.878906 340.890625 85.851562 343.226562 C 105.554688 354.796875 146.085938 357.976562 176.617188 358.609375 C 177.128906 358.617188 177.636719 358.625 178.144531 358.625 Z M 178.144531 358.625 " fill-opacity="1" fill-rule="nonzero"/></g><g clip-path="url(#c1314a97c1)"><path fill="#b3b3b3" d="M 178.125 360.285156 C 189.96875 360.285156 200.414062 357.171875 210.035156 350.777344 C 217.199219 346.015625 223.238281 340.171875 229.078125 334.519531 C 243.699219 320.375 256.328125 308.160156 278.59375 322.769531 C 301.390625 337.726562 314.855469 345.3125 329.738281 347.988281 C 346.808594 351.054688 368.332031 352.480469 399.523438 352.613281 L 400.085938 352.613281 C 439.546875 352.613281 475.78125 335.332031 499.582031 305.144531 C 505.355469 297.820312 508.570312 289.15625 511.976562 279.984375 C 513.355469 276.28125 514.777344 272.453125 516.421875 268.546875 C 519.421875 261.398438 522.375 254.105469 525.234375 247.054688 C 528.769531 238.328125 532.109375 230.089844 535.492188 222.183594 C 536.472656 219.890625 537.480469 217.613281 538.453125 215.40625 C 543.46875 204.054688 548.207031 193.328125 549.9375 180.203125 C 550.980469 172.3125 551.351562 164.113281 551.707031 156.1875 C 552.171875 145.902344 552.65625 135.261719 554.597656 124.996094 C 555.679688 119.195312 557.3125 113.554688 559.488281 108.070312 C 564.390625 95.835938 571.832031 85.753906 581.007812 78.90625 C 589.914062 72.214844 601.171875 67.8125 613.566406 66.179688 C 640.359375 62.644531 667.0625 72.386719 677.0625 89.34375 L 677.363281 89.164062 C 672.277344 80.539062 663.175781 73.734375 651.039062 69.484375 C 639.527344 65.453125 626.203125 64.15625 613.523438 65.828125 C 601.066406 67.46875 589.753906 71.894531 580.800781 78.625 C 571.570312 85.507812 564.089844 95.644531 559.164062 107.9375 C 556.976562 113.445312 555.339844 119.109375 554.25 124.929688 C 552.304688 135.222656 551.820312 145.871094 551.355469 156.171875 C 550.996094 164.089844 550.628906 172.28125 549.589844 180.160156 C 547.863281 193.230469 543.136719 203.933594 538.128906 215.265625 C 537.15625 217.46875 536.148438 219.75 535.167969 222.046875 C 531.78125 229.953125 528.441406 238.195312 524.90625 246.921875 C 522.050781 253.972656 519.09375 261.265625 516.097656 268.410156 C 514.449219 272.320312 513.023438 276.15625 511.648438 279.863281 C 508.25 289.007812 505.042969 297.648438 499.304688 304.925781 C 475.457031 335.171875 439.089844 352.40625 399.523438 352.257812 C 368.355469 352.128906 346.851562 350.703125 329.800781 347.640625 C 314.976562 344.976562 301.539062 337.402344 278.785156 322.472656 C 256.285156 307.707031 243.5625 320.015625 228.832031 334.265625 C 223.003906 339.902344 216.976562 345.734375 209.839844 350.480469 C 200.066406 356.976562 189.425781 360.070312 177.335938 359.929688 C 152.304688 359.738281 107.222656 357.535156 86.488281 344.910156 C 82.566406 342.523438 79.890625 339.792969 78.535156 336.800781 C 69.605469 317.082031 50.300781 325.410156 31.636719 333.460938 C 19.257812 338.800781 7.566406 343.84375 -0.964844 340.992188 L -1.078125 341.324219 C 7.582031 344.222656 19.332031 339.152344 31.773438 333.785156 C 50.285156 325.800781 69.429688 317.542969 78.214844 336.945312 C 79.601562 340.003906 82.324219 342.785156 86.304688 345.210938 C 107.113281 357.878906 152.269531 360.089844 177.335938 360.28125 C 177.597656 360.285156 177.863281 360.285156 178.125 360.285156 Z M 178.125 360.285156 " fill-opacity="1" fill-rule="nonzero"/></g><g clip-path="url(#789986ef2c)"><path fill="#b3b3b3" d="M 176.746094 361.960938 C 177.183594 361.960938 177.613281 361.960938 178.050781 361.960938 L 178.058594 361.960938 C 190.203125 361.960938 200.902344 358.511719 210.777344 351.421875 C 218.097656 346.164062 224.152344 339.738281 230.007812 333.527344 C 237.128906 325.972656 243.851562 318.839844 251.460938 315.664062 C 259.890625 312.148438 268.582031 313.8125 278.816406 320.902344 C 300.554688 335.960938 314.683594 345.414062 330.613281 349.734375 C 347.820312 354.402344 368.914062 356.273438 401.140625 355.984375 C 441.269531 355.5 477.9375 336.796875 501.742188 304.671875 C 507.71875 296.605469 511.417969 287.347656 515.335938 277.546875 C 516.378906 274.929688 517.460938 272.222656 518.605469 269.503906 C 524.949219 254.3125 530.566406 238.648438 535.695312 223.980469 L 536.519531 221.625 C 541.152344 208.40625 545.527344 195.925781 546.960938 181.46875 C 547.648438 174.535156 547.933594 167.390625 548.210938 160.480469 C 548.667969 149.042969 549.144531 137.21875 551.441406 125.832031 C 552.605469 119.988281 554.34375 114.320312 556.652344 108.828125 C 561.847656 96.546875 569.648438 86.527344 579.207031 79.851562 C 588.457031 73.355469 600.101562 69.265625 612.875 68.027344 C 640.464844 65.347656 667.351562 76.191406 676.804688 93.808594 L 677.113281 93.644531 C 672.300781 84.675781 663.292969 77.429688 651.054688 72.6875 C 639.460938 68.191406 625.886719 66.414062 612.835938 67.679688 C 600.003906 68.925781 588.304688 73.035156 579.003906 79.566406 C 569.390625 86.28125 561.546875 96.355469 556.324219 108.695312 C 554.007812 114.210938 552.265625 119.902344 551.09375 125.765625 C 548.789062 137.179688 548.316406 149.023438 547.859375 160.472656 C 547.582031 167.375 547.296875 174.515625 546.609375 181.4375 C 545.179688 195.851562 540.8125 208.316406 536.1875 221.511719 L 535.363281 223.867188 C 530.238281 238.527344 524.621094 254.1875 518.277344 269.367188 C 517.136719 272.09375 516.054688 274.800781 515.007812 277.417969 C 511.101562 287.195312 507.410156 296.433594 501.460938 304.460938 C 477.722656 336.496094 441.15625 355.148438 401.136719 355.632812 C 368.941406 355.921875 347.878906 354.054688 330.707031 349.394531 C 314.832031 345.085938 300.722656 335.648438 279.015625 320.613281 C 256.4375 304.96875 244.074219 318.089844 229.753906 333.285156 C 223.910156 339.484375 217.867188 345.898438 210.574219 351.132812 C 200.761719 358.179688 190.125 361.605469 178.0625 361.605469 L 178.050781 361.605469 C 177.617188 361.605469 177.179688 361.605469 176.746094 361.605469 C 134.460938 361.605469 101.78125 356.261719 86.945312 346.902344 C 83.019531 344.425781 80.398438 341.601562 79.148438 338.515625 C 76.804688 332.707031 73.503906 328.996094 69.0625 327.175781 C 59.570312 323.28125 46.386719 328.980469 33.636719 334.492188 C 21.191406 339.871094 8.328125 345.433594 -0.636719 341.707031 L -0.769531 342.03125 C 8.328125 345.816406 21.265625 340.222656 33.773438 334.816406 C 46.457031 329.332031 59.574219 323.664062 68.929688 327.5 C 73.277344 329.285156 76.515625 332.929688 78.824219 338.644531 C 80.101562 341.804688 82.769531 344.679688 86.757812 347.199219 C 101.644531 356.59375 134.402344 361.957031 176.746094 361.960938 Z M 176.746094 361.960938 " fill-opacity="1" fill-rule="nonzero"/></g><g clip-path="url(#c563bc1cc0)"><path fill="#b3b3b3" d="M 172.730469 363.671875 C 174.71875 363.671875 176.734375 363.65625 178.765625 363.632812 C 190.890625 363.496094 201.605469 359.714844 211.523438 352.0625 C 218.988281 346.300781 225.046875 339.289062 230.902344 332.507812 C 237.835938 324.484375 244.386719 316.902344 251.855469 313.539062 C 260.109375 309.820312 268.746094 311.566406 279.03125 319.03125 L 279.796875 319.589844 C 301.328125 335.347656 315.554688 345.757812 331.488281 351.480469 C 348.863281 357.714844 369.507812 360 402.753906 359.355469 C 412.773438 359.175781 422.621094 357.789062 432.296875 355.199219 C 441.976562 352.609375 451.199219 348.890625 459.96875 344.046875 C 477.175781 334.578125 492.371094 320.800781 503.90625 304.195312 C 510.960938 294.039062 515.695312 282.671875 520.707031 270.636719 L 520.78125 270.457031 C 526.417969 256.902344 531.503906 241.867188 535.894531 225.777344 C 539.492188 212.597656 542.960938 198.257812 543.976562 182.738281 C 544.347656 177.089844 544.53125 171.304688 544.707031 165.710938 C 545.113281 152.8125 545.535156 139.472656 548.277344 126.671875 C 549.527344 120.789062 551.371094 115.097656 553.804688 109.597656 C 559.300781 97.261719 567.460938 87.304688 577.398438 80.800781 C 586.972656 74.515625 598.996094 70.742188 612.171875 69.878906 C 640.578125 68.089844 667.652344 80.03125 676.546875 98.273438 L 676.863281 98.121094 C 672.328125 88.816406 663.410156 81.132812 651.074219 75.898438 C 639.402344 70.945312 625.578125 68.683594 612.148438 69.53125 C 598.914062 70.394531 586.828125 74.191406 577.203125 80.507812 C 567.210938 87.050781 559.007812 97.058594 553.484375 109.453125 C 551.039062 114.976562 549.1875 120.691406 547.933594 126.597656 C 545.1875 139.429688 544.761719 152.785156 544.355469 165.699219 C 544.179688 171.289062 543.996094 177.070312 543.625 182.710938 C 542.609375 198.203125 539.148438 212.519531 535.554688 225.683594 C 531.167969 241.761719 526.085938 256.777344 520.457031 270.320312 L 520.382812 270.5 C 515.378906 282.515625 510.652344 293.867188 503.613281 303.996094 C 479.914062 338.109375 443.148438 358.160156 402.75 359.003906 C 369.550781 359.644531 348.941406 357.367188 331.609375 351.148438 C 315.722656 345.445312 301.515625 335.046875 280.003906 319.304688 L 279.242188 318.746094 C 268.839844 311.199219 260.09375 309.441406 251.714844 313.214844 C 244.167969 316.613281 237.597656 324.222656 230.636719 332.277344 C 224.789062 339.046875 218.746094 346.042969 211.304688 351.785156 C 201.453125 359.386719 190.808594 363.144531 178.761719 363.277344 C 135.515625 363.820312 102.214844 358.578125 87.402344 348.890625 C 83.472656 346.324219 80.902344 343.40625 79.761719 340.226562 C 77.597656 334.1875 74.425781 330.339844 70.074219 328.453125 C 60.984375 324.523438 48.050781 330.136719 35.539062 335.5625 C 22.523438 341.210938 9.066406 347.050781 -0.3125 342.425781 L -0.46875 342.742188 C 9.054688 347.441406 22.589844 341.566406 35.679688 335.886719 C 48.121094 330.488281 60.984375 324.90625 69.933594 328.777344 C 74.191406 330.621094 77.300781 334.402344 79.429688 340.34375 C 80.597656 343.597656 83.214844 346.574219 87.210938 349.183594 C 101.378906 358.453125 132.355469 363.667969 172.730469 363.671875 Z M 172.730469 363.671875 " fill-opacity="1" fill-rule="nonzero"/></g><g clip-path="url(#1784be9b93)"><path fill="#b3b3b3" d="M 169.90625 365.414062 C 173.0625 365.414062 176.253906 365.378906 179.480469 365.308594 C 205.320312 364.734375 219.382812 347.046875 231.789062 331.441406 C 238.550781 322.933594 244.9375 314.902344 252.277344 311.351562 C 260.371094 307.441406 268.941406 309.289062 279.253906 317.164062 C 281.890625 319.179688 284.421875 321.121094 286.847656 322.988281 C 307.046875 338.5 320.390625 348.75 336.855469 355.078125 C 353.390625 361.433594 372.953125 363.652344 404.371094 362.730469 C 409.464844 362.589844 414.523438 362.128906 419.558594 361.34375 C 424.589844 360.558594 429.550781 359.457031 434.445312 358.042969 C 439.335938 356.625 444.121094 354.90625 448.792969 352.878906 C 453.46875 350.855469 457.992188 348.542969 462.371094 345.941406 C 479.609375 335.792969 494.71875 321.195312 506.066406 303.722656 C 517.0625 286.792969 525.65625 267.5 531.601562 246.382812 C 537.164062 226.628906 540.324219 205.640625 540.996094 184.003906 C 541.117188 180.152344 541.1875 176.226562 541.253906 172.433594 C 541.519531 157.566406 541.792969 142.195312 545.117188 127.507812 C 549.636719 107.542969 560.746094 90.863281 575.589844 81.75 C 593.25 70.90625 618.441406 68.601562 641.328125 75.730469 C 658.296875 81.015625 671.039062 90.859375 676.289062 102.742188 L 676.609375 102.601562 C 671.320312 90.628906 658.5 80.714844 641.433594 75.398438 C 630.375 71.980469 619.074219 70.714844 607.53125 71.601562 C 595.488281 72.535156 584.382812 75.941406 575.40625 81.453125 C 560.480469 90.617188 549.316406 107.375 544.777344 127.433594 C 541.445312 142.15625 541.167969 157.546875 540.902344 172.429688 C 540.835938 176.222656 540.765625 180.144531 540.648438 183.996094 C 539.242188 229.238281 527.183594 270.574219 505.773438 303.535156 C 482.261719 339.734375 445.296875 361.179688 404.359375 362.378906 C 341.121094 364.234375 327.5 353.769531 287.0625 322.710938 C 284.632812 320.84375 282.097656 318.902344 279.464844 316.886719 C 269.035156 308.921875 260.351562 307.0625 252.125 311.039062 C 244.710938 314.621094 238.300781 322.683594 231.511719 331.222656 C 219.152344 346.769531 205.144531 364.386719 179.472656 364.957031 C 154.402344 365.515625 131.164062 363.886719 114.039062 360.375 C 94.566406 356.378906 82.925781 350.003906 80.371094 341.941406 C 78.386719 335.667969 75.339844 331.675781 71.066406 329.730469 C 62.351562 325.773438 50.21875 331.066406 37.367188 336.671875 C 23.808594 342.585938 9.785156 348.703125 0.0117188 343.144531 L -0.164062 343.449219 C 9.765625 349.09375 23.867188 342.945312 37.507812 336.996094 C 50.285156 331.421875 62.351562 326.160156 70.917969 330.050781 C 75.097656 331.949219 78.082031 335.875 80.035156 342.046875 C 82.632812 350.238281 94.363281 356.695312 113.96875 360.71875 C 128.917969 363.78125 148.507812 365.414062 169.90625 365.414062 Z M 169.90625 365.414062 " fill-opacity="1" fill-rule="nonzero"/></g></g></g></g></svg>