<svg xmlns="http://www.w3.org/2000/svg" xmlns:xlink="http://www.w3.org/1999/xlink" width="900" zoomAndPan="magnify" viewBox="0 0 675 449.999984" height="600" preserveAspectRatio="xMidYMid meet" version="1.0"><defs><filter x="0%" y="0%" width="100%" height="100%" id="270b3f1249"><feColorMatrix values="0 0 0 0 1 0 0 0 0 1 0 0 0 0 1 0 0 0 1 0" color-interpolation-filters="sRGB"/></filter><mask id="a4c2218318"><g filter="url(#270b3f1249)"><rect x="-67.5" width="810" fill="#000000" y="-44.999998" height="539.99998" fill-opacity="0.15"/></g></mask><clipPath id="52b584650b"><path d="M 0 123 L 675 123 L 675 385 L 0 385 Z M 0 123 " clip-rule="nonzero"/></clipPath><clipPath id="3270110207"><path d="M 260.71875 -242.21875 L 723.613281 86.519531 L 360.132812 598.332031 L -102.761719 269.59375 Z M 260.71875 -242.21875 " clip-rule="nonzero"/></clipPath><clipPath id="32055c6f13"><path d="M 260.71875 -242.21875 L 723.613281 86.519531 L 360.132812 598.332031 L -102.761719 269.59375 Z M 260.71875 -242.21875 " clip-rule="nonzero"/></clipPath><clipPath id="154f289b59"><path d="M 260.71875 -242.21875 L 723.613281 86.519531 L 360.132812 598.332031 L -102.761719 269.59375 Z M 260.71875 -242.21875 " clip-rule="nonzero"/></clipPath><clipPath id="554bcedd0f"><path d="M 0 116 L 675 116 L 675 379 L 0 379 Z M 0 116 " clip-rule="nonzero"/></clipPath><clipPath id="637337d80e"><path d="M 260.71875 -242.21875 L 723.613281 86.519531 L 360.132812 598.332031 L -102.761719 269.59375 Z M 260.71875 -242.21875 " clip-rule="nonzero"/></clipPath><clipPath id="772c8fd20c"><path d="M 260.71875 -242.21875 L 723.613281 86.519531 L 360.132812 598.332031 L -102.761719 269.59375 Z M 260.71875 -242.21875 " clip-rule="nonzero"/></clipPath><clipPath id="8ce11d9115"><path d="M 260.71875 -242.21875 L 723.613281 86.519531 L 360.132812 598.332031 L -102.761719 269.59375 Z M 260.71875 -242.21875 " clip-rule="nonzero"/></clipPath><clipPath id="d33ceed189"><path d="M 0 110 L 675 110 L 675 374 L 0 374 Z M 0 110 " clip-rule="nonzero"/></clipPath><clipPath id="7a10ea4e06"><path d="M 260.71875 -242.21875 L 723.613281 86.519531 L 360.132812 598.332031 L -102.761719 269.59375 Z M 260.71875 -242.21875 " clip-rule="nonzero"/></clipPath><clipPath id="84d9eadc25"><path d="M 260.71875 -242.21875 L 723.613281 86.519531 L 360.132812 598.332031 L -102.761719 269.59375 Z M 260.71875 -242.21875 " clip-rule="nonzero"/></clipPath><clipPath id="0c1646c336"><path d="M 260.71875 -242.21875 L 723.613281 86.519531 L 360.132812 598.332031 L -102.761719 269.59375 Z M 260.71875 -242.21875 " clip-rule="nonzero"/></clipPath><clipPath id="9787f568e5"><path d="M 0 104 L 675 104 L 675 368 L 0 368 Z M 0 104 " clip-rule="nonzero"/></clipPath><clipPath id="3967e3fac1"><path d="M 260.71875 -242.21875 L 723.613281 86.519531 L 360.132812 598.332031 L -102.761719 269.59375 Z M 260.71875 -242.21875 " clip-rule="nonzero"/></clipPath><clipPath id="605949979f"><path d="M 260.71875 -242.21875 L 723.613281 86.519531 L 360.132812 598.332031 L -102.761719 269.59375 Z M 260.71875 -242.21875 " clip-rule="nonzero"/></clipPath><clipPath id="a3f2565114"><path d="M 260.71875 -242.21875 L 723.613281 86.519531 L 360.132812 598.332031 L -102.761719 269.59375 Z M 260.71875 -242.21875 " clip-rule="nonzero"/></clipPath><clipPath id="00cc3eb3f4"><path d="M 0 98 L 675 98 L 675 363 L 0 363 Z M 0 98 " clip-rule="nonzero"/></clipPath><clipPath id="ffaec3f3ff"><path d="M 260.71875 -242.21875 L 723.613281 86.519531 L 360.132812 598.332031 L -102.761719 269.59375 Z M 260.71875 -242.21875 " clip-rule="nonzero"/></clipPath><clipPath id="095788600a"><path d="M 260.71875 -242.21875 L 723.613281 86.519531 L 360.132812 598.332031 L -102.761719 269.59375 Z M 260.71875 -242.21875 " clip-rule="nonzero"/></clipPath><clipPath id="d888a0fbcd"><path d="M 260.71875 -242.21875 L 723.613281 86.519531 L 360.132812 598.332031 L -102.761719 269.59375 Z M 260.71875 -242.21875 " clip-rule="nonzero"/></clipPath><clipPath id="962db37824"><path d="M 0 92 L 675 92 L 675 357 L 0 357 Z M 0 92 " clip-rule="nonzero"/></clipPath><clipPath id="0c923764d3"><path d="M 260.71875 -242.21875 L 723.613281 86.519531 L 360.132812 598.332031 L -102.761719 269.59375 Z M 260.71875 -242.21875 " clip-rule="nonzero"/></clipPath><clipPath id="6fc4100198"><path d="M 260.71875 -242.21875 L 723.613281 86.519531 L 360.132812 598.332031 L -102.761719 269.59375 Z M 260.71875 -242.21875 " clip-rule="nonzero"/></clipPath><clipPath id="fccaa71080"><path d="M 260.71875 -242.21875 L 723.613281 86.519531 L 360.132812 598.332031 L -102.761719 269.59375 Z M 260.71875 -242.21875 " clip-rule="nonzero"/></clipPath><clipPath id="9cc09592d9"><path d="M 0 86 L 675 86 L 675 352 L 0 352 Z M 0 86 " clip-rule="nonzero"/></clipPath><clipPath id="38c2224a06"><path d="M 260.71875 -242.21875 L 723.613281 86.519531 L 360.132812 598.332031 L -102.761719 269.59375 Z M 260.71875 -242.21875 " clip-rule="nonzero"/></clipPath><clipPath id="5ec6d9209c"><path d="M 260.71875 -242.21875 L 723.613281 86.519531 L 360.132812 598.332031 L -102.761719 269.59375 Z M 260.71875 -242.21875 " clip-rule="nonzero"/></clipPath><clipPath id="8ea3d1c3bc"><path d="M 260.71875 -242.21875 L 723.613281 86.519531 L 360.132812 598.332031 L -102.761719 269.59375 Z M 260.71875 -242.21875 " clip-rule="nonzero"/></clipPath><clipPath id="bd004dd4b9"><path d="M 0 80 L 675 80 L 675 347 L 0 347 Z M 0 80 " clip-rule="nonzero"/></clipPath><clipPath id="25ca3a1724"><path d="M 260.71875 -242.21875 L 723.613281 86.519531 L 360.132812 598.332031 L -102.761719 269.59375 Z M 260.71875 -242.21875 " clip-rule="nonzero"/></clipPath><clipPath id="5a2aa6bfc3"><path d="M 260.71875 -242.21875 L 723.613281 86.519531 L 360.132812 598.332031 L -102.761719 269.59375 Z M 260.71875 -242.21875 " clip-rule="nonzero"/></clipPath><clipPath id="040cb69e78"><path d="M 260.71875 -242.21875 L 723.613281 86.519531 L 360.132812 598.332031 L -102.761719 269.59375 Z M 260.71875 -242.21875 " clip-rule="nonzero"/></clipPath><clipPath id="a3bf915376"><path d="M 0 74 L 675 74 L 675 341 L 0 341 Z M 0 74 " clip-rule="nonzero"/></clipPath><clipPath id="145c458fa3"><path d="M 260.71875 -242.21875 L 723.613281 86.519531 L 360.132812 598.332031 L -102.761719 269.59375 Z M 260.71875 -242.21875 " clip-rule="nonzero"/></clipPath><clipPath id="4a8c2d238c"><path d="M 260.71875 -242.21875 L 723.613281 86.519531 L 360.132812 598.332031 L -102.761719 269.59375 Z M 260.71875 -242.21875 " clip-rule="nonzero"/></clipPath><clipPath id="06e7181bd7"><path d="M 260.71875 -242.21875 L 723.613281 86.519531 L 360.132812 598.332031 L -102.761719 269.59375 Z M 260.71875 -242.21875 " clip-rule="nonzero"/></clipPath><clipPath id="b316425573"><path d="M 0 68 L 675 68 L 675 336 L 0 336 Z M 0 68 " clip-rule="nonzero"/></clipPath><clipPath id="fa563309a7"><path d="M 260.71875 -242.21875 L 723.613281 86.519531 L 360.132812 598.332031 L -102.761719 269.59375 Z M 260.71875 -242.21875 " clip-rule="nonzero"/></clipPath><clipPath id="1f7d652f1f"><path d="M 260.71875 -242.21875 L 723.613281 86.519531 L 360.132812 598.332031 L -102.761719 269.59375 Z M 260.71875 -242.21875 " clip-rule="nonzero"/></clipPath><clipPath id="b3e78e4cb8"><path d="M 260.71875 -242.21875 L 723.613281 86.519531 L 360.132812 598.332031 L -102.761719 269.59375 Z M 260.71875 -242.21875 " clip-rule="nonzero"/></clipPath><clipPath id="595f3f83cc"><path d="M 0 62 L 675 62 L 675 331 L 0 331 Z M 0 62 " clip-rule="nonzero"/></clipPath><clipPath id="4abba24f65"><path d="M 260.71875 -242.21875 L 723.613281 86.519531 L 360.132812 598.332031 L -102.761719 269.59375 Z M 260.71875 -242.21875 " clip-rule="nonzero"/></clipPath><clipPath id="3c4b17cb68"><path d="M 260.71875 -242.21875 L 723.613281 86.519531 L 360.132812 598.332031 L -102.761719 269.59375 Z M 260.71875 -242.21875 " clip-rule="nonzero"/></clipPath><clipPath id="26944baa2f"><path d="M 260.71875 -242.21875 L 723.613281 86.519531 L 360.132812 598.332031 L -102.761719 269.59375 Z M 260.71875 -242.21875 " clip-rule="nonzero"/></clipPath><clipPath id="f3e8da328f"><path d="M 0 66 L 675 66 L 675 333 L 0 333 Z M 0 66 " clip-rule="nonzero"/></clipPath><clipPath id="3a2baeb308"><path d="M 260.71875 -242.21875 L 723.613281 86.519531 L 360.132812 598.332031 L -102.761719 269.59375 Z M 260.71875 -242.21875 " clip-rule="nonzero"/></clipPath><clipPath id="24aba7ed92"><path d="M 260.71875 -242.21875 L 723.613281 86.519531 L 360.132812 598.332031 L -102.761719 269.59375 Z M 260.71875 -242.21875 " clip-rule="nonzero"/></clipPath><clipPath id="64d437c0f9"><path d="M 260.71875 -242.21875 L 723.613281 86.519531 L 360.132812 598.332031 L -102.761719 269.59375 Z M 260.71875 -242.21875 " clip-rule="nonzero"/></clipPath><clipPath id="92b5f174ac"><path d="M 0 70 L 675 70 L 675 335 L 0 335 Z M 0 70 " clip-rule="nonzero"/></clipPath><clipPath id="d463eb3bc4"><path d="M 260.71875 -242.21875 L 723.613281 86.519531 L 360.132812 598.332031 L -102.761719 269.59375 Z M 260.71875 -242.21875 " clip-rule="nonzero"/></clipPath><clipPath id="e48f40cba6"><path d="M 260.71875 -242.21875 L 723.613281 86.519531 L 360.132812 598.332031 L -102.761719 269.59375 Z M 260.71875 -242.21875 " clip-rule="nonzero"/></clipPath><clipPath id="ff4431484a"><path d="M 260.71875 -242.21875 L 723.613281 86.519531 L 360.132812 598.332031 L -102.761719 269.59375 Z M 260.71875 -242.21875 " clip-rule="nonzero"/></clipPath><clipPath id="593690a42d"><path d="M 0 74 L 675 74 L 675 337 L 0 337 Z M 0 74 " clip-rule="nonzero"/></clipPath><clipPath id="1ad81cd6a2"><path d="M 260.71875 -242.21875 L 723.613281 86.519531 L 360.132812 598.332031 L -102.761719 269.59375 Z M 260.71875 -242.21875 " clip-rule="nonzero"/></clipPath><clipPath id="f5e0689fc0"><path d="M 260.71875 -242.21875 L 723.613281 86.519531 L 360.132812 598.332031 L -102.761719 269.59375 Z M 260.71875 -242.21875 " clip-rule="nonzero"/></clipPath><clipPath id="dade65f204"><path d="M 260.71875 -242.21875 L 723.613281 86.519531 L 360.132812 598.332031 L -102.761719 269.59375 Z M 260.71875 -242.21875 " clip-rule="nonzero"/></clipPath><clipPath id="128005bb22"><path d="M 0 78 L 675 78 L 675 339 L 0 339 Z M 0 78 " clip-rule="nonzero"/></clipPath><clipPath id="6769836ef1"><path d="M 260.71875 -242.21875 L 723.613281 86.519531 L 360.132812 598.332031 L -102.761719 269.59375 Z M 260.71875 -242.21875 " clip-rule="nonzero"/></clipPath><clipPath id="e5afd70564"><path d="M 260.71875 -242.21875 L 723.613281 86.519531 L 360.132812 598.332031 L -102.761719 269.59375 Z M 260.71875 -242.21875 " clip-rule="nonzero"/></clipPath><clipPath id="80073efe3d"><path d="M 260.71875 -242.21875 L 723.613281 86.519531 L 360.132812 598.332031 L -102.761719 269.59375 Z M 260.71875 -242.21875 " clip-rule="nonzero"/></clipPath><clipPath id="12506a7bdd"><path d="M 0 82 L 675 82 L 675 341 L 0 341 Z M 0 82 " clip-rule="nonzero"/></clipPath><clipPath id="391188a4e9"><path d="M 260.71875 -242.21875 L 723.613281 86.519531 L 360.132812 598.332031 L -102.761719 269.59375 Z M 260.71875 -242.21875 " clip-rule="nonzero"/></clipPath><clipPath id="23e4df407f"><path d="M 260.71875 -242.21875 L 723.613281 86.519531 L 360.132812 598.332031 L -102.761719 269.59375 Z M 260.71875 -242.21875 " clip-rule="nonzero"/></clipPath><clipPath id="2bfe7a6518"><path d="M 260.71875 -242.21875 L 723.613281 86.519531 L 360.132812 598.332031 L -102.761719 269.59375 Z M 260.71875 -242.21875 " clip-rule="nonzero"/></clipPath><clipPath id="8c3fffd9dd"><path d="M 0 85 L 675 85 L 675 343 L 0 343 Z M 0 85 " clip-rule="nonzero"/></clipPath><clipPath id="620497df4d"><path d="M 260.71875 -242.21875 L 723.613281 86.519531 L 360.132812 598.332031 L -102.761719 269.59375 Z M 260.71875 -242.21875 " clip-rule="nonzero"/></clipPath><clipPath id="03d61e4c56"><path d="M 260.71875 -242.21875 L 723.613281 86.519531 L 360.132812 598.332031 L -102.761719 269.59375 Z M 260.71875 -242.21875 " clip-rule="nonzero"/></clipPath><clipPath id="f97c76f0d4"><path d="M 260.71875 -242.21875 L 723.613281 86.519531 L 360.132812 598.332031 L -102.761719 269.59375 Z M 260.71875 -242.21875 " clip-rule="nonzero"/></clipPath><clipPath id="aca54e8e9d"><path d="M 0 89 L 675 89 L 675 345 L 0 345 Z M 0 89 " clip-rule="nonzero"/></clipPath><clipPath id="e9ef93984d"><path d="M 260.71875 -242.21875 L 723.613281 86.519531 L 360.132812 598.332031 L -102.761719 269.59375 Z M 260.71875 -242.21875 " clip-rule="nonzero"/></clipPath><clipPath id="6c960ae441"><path d="M 260.71875 -242.21875 L 723.613281 86.519531 L 360.132812 598.332031 L -102.761719 269.59375 Z M 260.71875 -242.21875 " clip-rule="nonzero"/></clipPath><clipPath id="414197441e"><path d="M 260.71875 -242.21875 L 723.613281 86.519531 L 360.132812 598.332031 L -102.761719 269.59375 Z M 260.71875 -242.21875 " clip-rule="nonzero"/></clipPath><clipPath id="a41f97d4ba"><path d="M 0 92 L 675 92 L 675 348 L 0 348 Z M 0 92 " clip-rule="nonzero"/></clipPath><clipPath id="f6362a7999"><path d="M 260.71875 -242.21875 L 723.613281 86.519531 L 360.132812 598.332031 L -102.761719 269.59375 Z M 260.71875 -242.21875 " clip-rule="nonzero"/></clipPath><clipPath id="1b7150a2ba"><path d="M 260.71875 -242.21875 L 723.613281 86.519531 L 360.132812 598.332031 L -102.761719 269.59375 Z M 260.71875 -242.21875 " clip-rule="nonzero"/></clipPath><clipPath id="b0ac198a41"><path d="M 260.71875 -242.21875 L 723.613281 86.519531 L 360.132812 598.332031 L -102.761719 269.59375 Z M 260.71875 -242.21875 " clip-rule="nonzero"/></clipPath><clipPath id="fe8987455d"><path d="M 0 95 L 675 95 L 675 350 L 0 350 Z M 0 95 " clip-rule="nonzero"/></clipPath><clipPath id="a4de75c9d5"><path d="M 260.71875 -242.21875 L 723.613281 86.519531 L 360.132812 598.332031 L -102.761719 269.59375 Z M 260.71875 -242.21875 " clip-rule="nonzero"/></clipPath><clipPath id="1221f8b274"><path d="M 260.71875 -242.21875 L 723.613281 86.519531 L 360.132812 598.332031 L -102.761719 269.59375 Z M 260.71875 -242.21875 " clip-rule="nonzero"/></clipPath><clipPath id="8ccbc348b1"><path d="M 260.71875 -242.21875 L 723.613281 86.519531 L 360.132812 598.332031 L -102.761719 269.59375 Z M 260.71875 -242.21875 " clip-rule="nonzero"/></clipPath><clipPath id="6a9e3337b6"><path d="M 0 98 L 675 98 L 675 353 L 0 353 Z M 0 98 " clip-rule="nonzero"/></clipPath><clipPath id="bc0a283c07"><path d="M 260.71875 -242.21875 L 723.613281 86.519531 L 360.132812 598.332031 L -102.761719 269.59375 Z M 260.71875 -242.21875 " clip-rule="nonzero"/></clipPath><clipPath id="85e6ce43f4"><path d="M 260.71875 -242.21875 L 723.613281 86.519531 L 360.132812 598.332031 L -102.761719 269.59375 Z M 260.71875 -242.21875 " clip-rule="nonzero"/></clipPath><clipPath id="1635774e56"><path d="M 260.71875 -242.21875 L 723.613281 86.519531 L 360.132812 598.332031 L -102.761719 269.59375 Z M 260.71875 -242.21875 " clip-rule="nonzero"/></clipPath><clipPath id="e64903c972"><path d="M 0 101 L 675 101 L 675 356 L 0 356 Z M 0 101 " clip-rule="nonzero"/></clipPath><clipPath id="d1fc2a436b"><path d="M 260.71875 -242.21875 L 723.613281 86.519531 L 360.132812 598.332031 L -102.761719 269.59375 Z M 260.71875 -242.21875 " clip-rule="nonzero"/></clipPath><clipPath id="8ea0bf2b36"><path d="M 260.71875 -242.21875 L 723.613281 86.519531 L 360.132812 598.332031 L -102.761719 269.59375 Z M 260.71875 -242.21875 " clip-rule="nonzero"/></clipPath><clipPath id="99a935b8a1"><path d="M 260.71875 -242.21875 L 723.613281 86.519531 L 360.132812 598.332031 L -102.761719 269.59375 Z M 260.71875 -242.21875 " clip-rule="nonzero"/></clipPath><clipPath id="aee8ca8dda"><path d="M 0 103 L 675 103 L 675 360 L 0 360 Z M 0 103 " clip-rule="nonzero"/></clipPath><clipPath id="5e353e47fe"><path d="M 260.71875 -242.21875 L 723.613281 86.519531 L 360.132812 598.332031 L -102.761719 269.59375 Z M 260.71875 -242.21875 " clip-rule="nonzero"/></clipPath><clipPath id="5f14652ffa"><path d="M 260.71875 -242.21875 L 723.613281 86.519531 L 360.132812 598.332031 L -102.761719 269.59375 Z M 260.71875 -242.21875 " clip-rule="nonzero"/></clipPath><clipPath id="c98ac13bdc"><path d="M 260.71875 -242.21875 L 723.613281 86.519531 L 360.132812 598.332031 L -102.761719 269.59375 Z M 260.71875 -242.21875 " clip-rule="nonzero"/></clipPath><clipPath id="c994dcd752"><path d="M 0 106 L 675 106 L 675 364 L 0 364 Z M 0 106 " clip-rule="nonzero"/></clipPath><clipPath id="e9e4fdc8ea"><path d="M 260.71875 -242.21875 L 723.613281 86.519531 L 360.132812 598.332031 L -102.761719 269.59375 Z M 260.71875 -242.21875 " clip-rule="nonzero"/></clipPath><clipPath id="95e60bb63e"><path d="M 260.71875 -242.21875 L 723.613281 86.519531 L 360.132812 598.332031 L -102.761719 269.59375 Z M 260.71875 -242.21875 " clip-rule="nonzero"/></clipPath><clipPath id="73d5e6074d"><path d="M 260.71875 -242.21875 L 723.613281 86.519531 L 360.132812 598.332031 L -102.761719 269.59375 Z M 260.71875 -242.21875 " clip-rule="nonzero"/></clipPath><clipPath id="98b37a1497"><path d="M 0 108 L 675 108 L 675 367 L 0 367 Z M 0 108 " clip-rule="nonzero"/></clipPath><clipPath id="9cfa34f217"><path d="M 260.71875 -242.21875 L 723.613281 86.519531 L 360.132812 598.332031 L -102.761719 269.59375 Z M 260.71875 -242.21875 " clip-rule="nonzero"/></clipPath><clipPath id="838069ec0c"><path d="M 260.71875 -242.21875 L 723.613281 86.519531 L 360.132812 598.332031 L -102.761719 269.59375 Z M 260.71875 -242.21875 " clip-rule="nonzero"/></clipPath><clipPath id="b900213e67"><path d="M 260.71875 -242.21875 L 723.613281 86.519531 L 360.132812 598.332031 L -102.761719 269.59375 Z M 260.71875 -242.21875 " clip-rule="nonzero"/></clipPath><clipPath id="c0222c6f32"><path d="M 0 110 L 673 110 L 673 372 L 0 372 Z M 0 110 " clip-rule="nonzero"/></clipPath><clipPath id="326b384ee4"><path d="M 260.71875 -242.21875 L 723.613281 86.519531 L 360.132812 598.332031 L -102.761719 269.59375 Z M 260.71875 -242.21875 " clip-rule="nonzero"/></clipPath><clipPath id="f10e78017b"><path d="M 260.71875 -242.21875 L 723.613281 86.519531 L 360.132812 598.332031 L -102.761719 269.59375 Z M 260.71875 -242.21875 " clip-rule="nonzero"/></clipPath><clipPath id="680967b554"><path d="M 260.71875 -242.21875 L 723.613281 86.519531 L 360.132812 598.332031 L -102.761719 269.59375 Z M 260.71875 -242.21875 " clip-rule="nonzero"/></clipPath><clipPath id="ce12c76ff0"><path d="M 0 112 L 671 112 L 671 376 L 0 376 Z M 0 112 " clip-rule="nonzero"/></clipPath><clipPath id="80c495702c"><path d="M 260.71875 -242.21875 L 723.613281 86.519531 L 360.132812 598.332031 L -102.761719 269.59375 Z M 260.71875 -242.21875 " clip-rule="nonzero"/></clipPath><clipPath id="1b56435461"><path d="M 260.71875 -242.21875 L 723.613281 86.519531 L 360.132812 598.332031 L -102.761719 269.59375 Z M 260.71875 -242.21875 " clip-rule="nonzero"/></clipPath><clipPath id="e89abf2b79"><path d="M 260.71875 -242.21875 L 723.613281 86.519531 L 360.132812 598.332031 L -102.761719 269.59375 Z M 260.71875 -242.21875 " clip-rule="nonzero"/></clipPath><clipPath id="2cd065a748"><rect x="0" width="675" y="0" height="450"/></clipPath></defs><g mask="url(#a4c2218318)"><g transform="matrix(1, 0, 0, 1, 0, 0)"><g clip-path="url(#2cd065a748)"><g clip-path="url(#52b584650b)"><g clip-path="url(#3270110207)"><g clip-path="url(#32055c6f13)"><g clip-path="url(#154f289b59)"><path fill="#b3b3b3" d="M -56.847656 290.746094 L -56.890625 289.996094 C -26.449219 288.214844 4.109375 273.066406 36.523438 243.6875 C 47.28125 233.9375 57.601562 223.34375 67.582031 213.101562 C 82.015625 198.285156 96.9375 182.964844 113.441406 169.9375 C 126.355469 159.742188 137.621094 153.136719 148.882812 149.144531 C 164.621094 143.570312 182.527344 142.691406 200.667969 146.609375 C 217.519531 150.25 234.15625 157.851562 248.773438 168.589844 C 279.128906 190.886719 299.8125 224.003906 314.4375 250.367188 C 318.121094 257.003906 321.753906 263.824219 325.265625 270.417969 C 334.972656 288.640625 345.007812 307.484375 357.195312 324.535156 C 376.425781 351.445312 398.25 369.507812 422.066406 378.199219 C 450.941406 388.75 482.445312 383.953125 502.320312 365.976562 C 516.21875 353.410156 525.359375 334.113281 529.492188 308.617188 C 531.289062 297.519531 532.101562 286.105469 532.890625 275.066406 C 533.617188 264.859375 534.371094 254.304688 535.898438 244.007812 C 537.03125 236.460938 538.574219 229 540.535156 221.625 C 542.496094 214.246094 544.859375 207.003906 547.625 199.886719 C 550.386719 192.773438 553.539062 185.835938 557.074219 179.070312 C 560.609375 172.304688 564.507812 165.757812 568.773438 159.425781 C 574.238281 151.328125 581.871094 141.222656 592.457031 134.882812 C 602.496094 128.867188 614.535156 126.679688 624.980469 125.335938 C 643.953125 122.894531 662.972656 122.386719 682.042969 123.808594 L 681.988281 124.558594 C 662.96875 123.140625 643.996094 123.648438 625.078125 126.082031 C 614.707031 127.417969 602.765625 129.582031 592.84375 135.527344 C 582.386719 141.792969 574.816406 151.816406 569.394531 159.847656 C 565.148438 166.15625 561.261719 172.679688 557.742188 179.417969 C 554.21875 186.160156 551.078125 193.070312 548.324219 200.160156 C 545.570312 207.25 543.214844 214.46875 541.261719 221.816406 C 539.308594 229.164062 537.769531 236.601562 536.644531 244.121094 C 535.117188 254.386719 534.367188 264.925781 533.640625 275.117188 C 532.851562 286.175781 532.035156 297.609375 530.230469 308.738281 C 526.074219 334.40625 516.851562 353.851562 502.824219 366.535156 C 482.746094 384.695312 450.945312 389.550781 421.808594 378.90625 C 397.847656 370.15625 375.902344 352.007812 356.585938 324.972656 C 344.371094 307.882812 334.320312 289.015625 324.601562 270.769531 C 321.089844 264.179688 317.460938 257.363281 313.78125 250.734375 C 299.191406 224.4375 278.566406 191.40625 248.328125 169.195312 C 217.464844 146.523438 179.453125 139.113281 149.132812 149.855469 C 137.949219 153.816406 126.753906 160.386719 113.90625 170.53125 C 97.441406 183.527344 82.535156 198.828125 68.117188 213.628906 C 58.128906 223.878906 47.800781 234.480469 37.027344 244.246094 C 4.480469 273.742188 -26.226562 288.953125 -56.847656 290.746094 Z M -56.847656 290.746094 " fill-opacity="1" fill-rule="nonzero"/></g></g></g></g><g clip-path="url(#554bcedd0f)"><g clip-path="url(#637337d80e)"><g clip-path="url(#772c8fd20c)"><g clip-path="url(#8ce11d9115)"><path fill="#b3b3b3" d="M -56.386719 291.714844 L -56.382812 290.964844 C -27.09375 291.070312 4.019531 277.476562 36.089844 250.550781 C 46.847656 241.496094 56.910156 231.789062 66.175781 222.644531 C 67.988281 220.859375 69.800781 219.070312 71.609375 217.277344 C 84.644531 204.378906 98.128906 191.039062 112.699219 179.359375 C 125.347656 169.214844 136.269531 162.507812 147.066406 158.242188 C 159.828125 153.207031 173.695312 151.144531 188.292969 152.121094 C 207.878906 153.410156 227.238281 159.941406 244.273438 171.011719 C 247.789062 173.292969 251.28125 175.800781 254.652344 178.460938 C 277.324219 196.386719 293.796875 221.238281 305.613281 240.882812 C 307.207031 243.535156 308.859375 246.332031 310.519531 249.195312 C 313.863281 254.953125 317.191406 260.851562 320.40625 266.554688 C 330.730469 284.859375 341.402344 303.792969 354.234375 320.828125 C 373.679688 346.632812 395.414062 364.046875 418.84375 372.585938 C 442.742188 381.300781 469.578125 379.507812 488.875 367.902344 C 491.695312 366.207031 494.367188 364.300781 496.886719 362.179688 C 510.578125 350.648438 520.035156 332.46875 524.992188 308.148438 C 527.480469 295.9375 528.457031 283.136719 529.402344 270.753906 C 529.542969 268.894531 529.6875 267.039062 529.832031 265.183594 C 530.578125 255.71875 531.375 248.496094 532.40625 241.769531 C 537.238281 210.328125 549.160156 180.292969 566.886719 154.914062 C 568.082031 153.203125 569.214844 151.640625 570.351562 150.136719 C 577.363281 140.851562 584.109375 134.429688 591.578125 129.921875 C 602.195312 123.511719 614.375 121.0625 624.890625 119.511719 C 644.410156 116.59375 663.980469 116.175781 683.605469 118.265625 L 683.523438 119.011719 C 663.964844 116.929688 644.457031 117.34375 625 120.253906 C 614.558594 121.792969 602.46875 124.222656 591.964844 130.5625 C 584.582031 135.019531 577.902344 141.382812 570.949219 150.589844 C 569.820312 152.085938 568.691406 153.640625 567.5 155.34375 C 549.84375 180.628906 537.964844 210.554688 533.148438 241.882812 C 532.117188 248.589844 531.328125 255.796875 530.582031 265.242188 C 530.433594 267.097656 530.292969 268.953125 530.152344 270.808594 C 529.207031 283.210938 528.226562 296.039062 525.730469 308.296875 C 520.738281 332.789062 511.195312 351.109375 497.371094 362.753906 C 494.820312 364.898438 492.117188 366.828125 489.265625 368.542969 C 469.777344 380.261719 442.695312 382.082031 418.585938 373.289062 C 395.023438 364.703125 373.171875 347.199219 353.636719 321.277344 C 340.773438 304.203125 330.089844 285.25 319.753906 266.921875 C 316.539062 261.21875 313.214844 255.324219 309.875 249.570312 C 308.214844 246.714844 306.5625 243.917969 304.96875 241.265625 C 293.1875 221.675781 276.765625 196.902344 254.1875 179.050781 C 250.835938 176.402344 247.363281 173.910156 243.867188 171.640625 C 227.179688 160.796875 207.425781 154.132812 188.246094 152.867188 C 173.761719 151.902344 160 153.945312 147.34375 158.9375 C 136.617188 163.175781 125.757812 169.847656 113.167969 179.941406 C 98.628906 191.601562 85.160156 204.925781 72.136719 217.8125 C 70.324219 219.605469 68.515625 221.394531 66.703125 223.179688 C 57.421875 232.335938 47.347656 242.054688 36.570312 251.125 C 4.363281 278.167969 -26.914062 291.824219 -56.386719 291.714844 Z M -56.386719 291.714844 " fill-opacity="1" fill-rule="nonzero"/></g></g></g></g><g clip-path="url(#d33ceed189)"><g clip-path="url(#7a10ea4e06)"><g clip-path="url(#84d9eadc25)"><g clip-path="url(#0c1646c336)"><path fill="#b3b3b3" d="M -55.925781 292.683594 L -55.871094 291.933594 C -27.328125 293.957031 3.464844 282.34375 35.652344 257.414062 C 44.855469 250.257812 54.191406 242.117188 65.925781 231.007812 C 69.28125 227.839844 72.613281 224.644531 75.949219 221.453125 C 87.460938 210.433594 99.363281 199.035156 111.953125 188.78125 C 124.347656 178.683594 134.929688 171.871094 145.25 167.34375 C 157.527344 161.964844 170.859375 159.222656 184.875 159.191406 C 189.660156 159.167969 194.429688 159.453125 199.175781 160.046875 C 203.925781 160.644531 208.617188 161.542969 213.25 162.742188 C 217.878906 163.945312 222.414062 165.441406 226.855469 167.230469 C 231.292969 169.019531 235.59375 171.089844 239.765625 173.4375 C 243.363281 175.46875 246.851562 177.679688 250.222656 180.074219 C 272.339844 195.792969 288.621094 219.164062 301.628906 239.957031 C 303.210938 242.488281 304.839844 245.128906 306.601562 248.023438 C 309.507812 252.800781 312.421875 257.683594 315.238281 262.402344 C 326.269531 280.898438 337.679688 300.023438 351.269531 317.121094 C 370.917969 341.820312 392.570312 358.589844 415.617188 366.976562 C 439.042969 375.5 464.4375 374.242188 483.546875 363.613281 C 486.316406 362.074219 488.949219 360.332031 491.449219 358.386719 C 505.042969 347.796875 514.8125 330.738281 520.496094 307.683594 C 523.691406 294.714844 524.789062 280.875 525.855469 267.492188 L 526.164062 263.628906 C 526.925781 254.222656 527.800781 246.566406 528.914062 239.539062 C 534.105469 206.777344 546.582031 175.957031 564.996094 150.410156 C 566.246094 148.675781 567.4375 147.085938 568.632812 145.550781 C 575.796875 136.367188 583.015625 129.632812 590.695312 124.964844 C 601.980469 118.101562 614.847656 115.335938 624.796875 113.695312 C 645.292969 110.300781 665.605469 109.976562 685.160156 112.726562 L 685.054688 113.472656 C 665.574219 110.730469 645.34375 111.054688 624.917969 114.433594 C 615.035156 116.0625 602.261719 118.808594 591.085938 125.601562 C 583.484375 130.226562 576.332031 136.902344 569.226562 146.007812 C 568.035156 147.535156 566.847656 149.117188 565.601562 150.847656 C 547.257812 176.300781 534.828125 207.007812 529.652344 239.652344 C 528.542969 246.664062 527.671875 254.300781 526.910156 263.6875 L 526.601562 267.550781 C 525.535156 280.964844 524.433594 294.832031 521.222656 307.859375 C 515.503906 331.082031 505.636719 348.28125 491.910156 358.976562 C 489.378906 360.945312 486.714844 362.710938 483.914062 364.265625 C 464.613281 375 438.988281 376.277344 415.359375 367.675781 C 392.175781 359.246094 370.417969 342.394531 350.679688 317.582031 C 337.058594 300.445312 325.636719 281.300781 314.589844 262.785156 C 311.777344 258.066406 308.867188 253.1875 305.960938 248.414062 C 304.199219 245.519531 302.574219 242.882812 300.992188 240.351562 C 288.023438 219.625 271.796875 196.324219 249.785156 180.683594 C 246.4375 178.308594 242.972656 176.109375 239.394531 174.089844 C 235.253906 171.757812 230.980469 169.703125 226.570312 167.925781 C 222.164062 166.148438 217.660156 164.664062 213.058594 163.46875 C 208.457031 162.273438 203.796875 161.382812 199.082031 160.792969 C 194.363281 160.199219 189.628906 159.917969 184.875 159.941406 C 170.960938 159.96875 157.730469 162.691406 145.546875 168.03125 C 135.292969 172.53125 124.765625 179.308594 112.425781 189.363281 C 99.859375 199.597656 87.96875 210.984375 76.46875 221.996094 C 73.132812 225.191406 69.796875 228.382812 66.441406 231.554688 C 54.6875 242.679688 45.332031 250.835938 36.113281 258.007812 C 3.773438 283.050781 -27.191406 294.71875 -55.925781 292.683594 Z M -55.925781 292.683594 " fill-opacity="1" fill-rule="nonzero"/></g></g></g></g><g clip-path="url(#9787f568e5)"><g clip-path="url(#3967e3fac1)"><g clip-path="url(#605949979f)"><g clip-path="url(#a3f2565114)"><path fill="#b3b3b3" d="M -55.46875 293.648438 L -55.359375 292.90625 C -27.980469 296.835938 3.34375 286.9375 35.21875 264.277344 C 44.703125 257.492188 54.667969 249.347656 65.675781 239.367188 C 70.691406 234.832031 75.734375 230.136719 80.609375 225.597656 C 90.457031 216.429688 100.640625 206.949219 111.203125 198.203125 C 123.527344 188 133.464844 181.289062 143.429688 176.441406 C 149.390625 173.5625 155.566406 171.265625 161.960938 169.554688 C 168.355469 167.839844 174.851562 166.742188 181.453125 166.257812 C 200.472656 164.757812 219.074219 168.078125 235.257812 175.859375 C 238.878906 177.597656 242.390625 179.539062 245.789062 181.679688 C 267.460938 195.386719 283.519531 217.34375 297.640625 239.027344 C 299.339844 241.628906 301.019531 244.238281 302.683594 246.851562 C 305.023438 250.519531 307.347656 254.191406 309.660156 257.871094 C 321.53125 276.691406 333.800781 296.148438 348.300781 313.40625 C 368.140625 336.996094 389.703125 353.128906 412.390625 361.359375 C 434.996094 369.566406 459.605469 368.804688 478.222656 359.320312 C 480.9375 357.9375 483.53125 356.359375 486.011719 354.589844 C 499.617188 344.867188 509.703125 328.925781 515.996094 307.210938 C 519.898438 293.75 521.097656 279.144531 522.253906 265.019531 L 522.496094 262.074219 C 523.285156 252.570312 524.210938 244.699219 525.417969 237.300781 C 530.976562 203.234375 544.007812 171.628906 563.105469 145.898438 C 564.382812 144.175781 565.667969 142.515625 566.917969 140.957031 C 574.316406 131.761719 581.804688 124.90625 589.816406 120 C 598.984375 114.386719 610.070312 110.53125 624.703125 107.871094 C 645.921875 104 666.789062 103.769531 686.71875 107.183594 L 686.589844 107.925781 C 666.75 104.523438 645.96875 104.753906 624.839844 108.609375 C 610.296875 111.253906 599.292969 115.078125 590.207031 120.640625 C 582.269531 125.5 574.84375 132.300781 567.503906 141.429688 C 566.257812 142.976562 564.980469 144.632812 563.707031 146.347656 C 544.679688 171.980469 531.695312 203.472656 526.160156 237.421875 C 524.953125 244.800781 524.03125 252.652344 523.242188 262.132812 L 523 265.078125 C 521.839844 279.242188 520.640625 293.886719 516.71875 307.417969 C 510.375 329.300781 500.191406 345.375 486.449219 355.199219 C 483.9375 356.992188 481.308594 358.585938 478.5625 359.988281 C 459.761719 369.566406 434.929688 370.339844 412.136719 362.0625 C 389.320312 353.785156 367.652344 337.578125 347.726562 313.890625 C 333.195312 296.589844 320.90625 277.109375 309.027344 258.269531 C 306.707031 254.59375 304.382812 250.921875 302.054688 247.253906 C 300.386719 244.644531 298.707031 242.039062 297.015625 239.433594 C 282.9375 217.820312 266.941406 195.941406 245.390625 182.3125 C 242.015625 180.183594 238.53125 178.257812 234.933594 176.535156 C 218.871094 168.8125 200.398438 165.515625 181.515625 167.007812 C 174.960938 167.484375 168.507812 168.574219 162.160156 170.277344 C 155.8125 171.976562 149.675781 174.253906 143.757812 177.117188 C 133.851562 181.933594 123.960938 188.613281 111.683594 198.777344 C 101.140625 207.511719 90.964844 216.984375 81.125 226.144531 C 76.246094 230.6875 71.203125 235.382812 66.179688 239.925781 C 55.152344 249.921875 45.164062 258.085938 35.652344 264.886719 C 3.617188 287.664062 -27.890625 297.609375 -55.46875 293.648438 Z M -55.46875 293.648438 " fill-opacity="1" fill-rule="nonzero"/></g></g></g></g><g clip-path="url(#00cc3eb3f4)"><g clip-path="url(#ffaec3f3ff)"><g clip-path="url(#095788600a)"><g clip-path="url(#d888a0fbcd)"><path fill="#b3b3b3" d="M -55.011719 294.613281 L -54.847656 293.878906 C -21.253906 301.351562 12.433594 285.636719 34.78125 271.140625 C 44.6875 264.667969 54.710938 257.011719 65.425781 247.730469 C 72.242188 241.839844 79.03125 235.65625 85.59375 229.679688 C 93.648438 222.351562 101.972656 214.773438 110.457031 207.621094 C 118.609375 200.757812 129.515625 192.046875 141.609375 185.542969 C 153.058594 179.402344 165.199219 175.332031 178.035156 173.332031 C 196.789062 170.335938 215.019531 172.046875 230.746094 178.285156 C 234.390625 179.722656 237.929688 181.394531 241.355469 183.289062 C 262.675781 195.140625 279.09375 216.632812 293.660156 238.097656 C 295.371094 240.621094 297.074219 243.148438 298.765625 245.679688 C 300.359375 248.0625 301.949219 250.445312 303.535156 252.832031 C 316.40625 272.15625 329.714844 292.136719 345.335938 309.699219 C 365.347656 332.167969 386.824219 347.65625 409.167969 355.746094 C 431.292969 363.761719 454.523438 363.5 472.898438 355.03125 C 475.558594 353.800781 478.121094 352.390625 480.578125 350.792969 C 494.300781 341.882812 504.703125 327.0625 511.5 306.742188 C 516.101562 292.984375 517.375 277.808594 518.605469 263.136719 L 518.828125 260.515625 C 519.625 251.066406 520.640625 242.742188 521.921875 235.066406 C 527.84375 199.710938 541.433594 167.320312 561.214844 141.394531 C 562.554688 139.640625 563.894531 137.953125 565.203125 136.371094 C 572.820312 127.164062 580.585938 120.1875 588.9375 115.039062 C 598.472656 109.164062 610.144531 104.914062 624.613281 102.050781 C 646.523438 97.703125 667.945312 97.566406 688.277344 101.644531 L 688.128906 102.382812 C 667.894531 98.320312 646.570312 98.457031 624.757812 102.789062 C 610.378906 105.632812 598.792969 109.851562 589.328125 115.679688 C 581.050781 120.785156 573.347656 127.707031 565.78125 136.851562 C 564.480469 138.425781 563.144531 140.105469 561.8125 141.847656 C 542.101562 167.679688 528.566406 199.953125 522.664062 235.191406 C 521.382812 242.84375 520.375 251.152344 519.574219 260.578125 L 519.355469 263.199219 C 518.121094 277.917969 516.847656 293.136719 512.214844 306.980469 C 505.363281 327.464844 494.855469 342.417969 480.988281 351.421875 C 478.5 353.039062 475.90625 354.46875 473.210938 355.710938 C 454.660156 364.261719 431.222656 364.53125 408.914062 356.449219 C 386.457031 348.324219 364.875 332.757812 344.777344 310.195312 C 329.121094 292.597656 315.800781 272.59375 302.914062 253.246094 C 301.328125 250.863281 299.738281 248.480469 298.144531 246.097656 C 296.453125 243.570312 294.75 241.042969 293.039062 238.519531 C 278.527344 217.132812 262.175781 195.71875 240.996094 183.945312 C 237.59375 182.0625 234.085938 180.410156 230.472656 178.980469 C 214.867188 172.792969 196.777344 171.09375 178.152344 174.070312 C 165.402344 176.058594 153.339844 180.101562 141.96875 186.203125 C 129.933594 192.671875 119.066406 201.355469 110.945312 208.199219 C 102.46875 215.335938 94.148438 222.910156 86.101562 230.238281 C 79.535156 236.214844 72.742188 242.398438 65.917969 248.296875 C 55.179688 257.601562 45.128906 265.277344 35.191406 271.769531 C 12.722656 286.347656 -21.164062 302.140625 -55.011719 294.613281 Z M -55.011719 294.613281 " fill-opacity="1" fill-rule="nonzero"/></g></g></g></g><g clip-path="url(#962db37824)"><g clip-path="url(#0c923764d3)"><g clip-path="url(#6fc4100198)"><g clip-path="url(#fccaa71080)"><path fill="#b3b3b3" d="M -54.554688 295.574219 L -54.332031 294.855469 C -21.792969 304.894531 11.855469 291.234375 34.347656 278.003906 C 44.453125 272.015625 54.828125 264.644531 65.175781 256.09375 C 73.941406 248.867188 82.566406 241.136719 90.90625 233.660156 C 97.023438 228.171875 103.355469 222.5 109.710938 217.046875 C 118.242188 209.738281 128.484375 201.359375 139.789062 194.644531 C 150.691406 188.171875 162.300781 183.425781 174.613281 180.40625 C 193.367188 175.765625 210.734375 175.867188 226.234375 180.710938 C 229.898438 181.851562 233.460938 183.246094 236.921875 184.902344 C 258.949219 195.46875 275.710938 217.4375 289.675781 237.171875 C 291.40625 239.617188 293.128906 242.0625 294.847656 244.507812 L 296.65625 247.085938 C 310.757812 267.171875 325.339844 287.945312 342.371094 305.992188 C 362.535156 327.335938 383.925781 342.1875 405.941406 350.132812 C 427.277344 357.84375 449.738281 358.066406 467.570312 350.742188 C 470.183594 349.667969 472.707031 348.421875 475.144531 347 C 489.09375 338.867188 499.816406 325.167969 507.003906 306.277344 C 512.304688 292.355469 513.636719 276.757812 514.925781 261.667969 L 515.15625 258.964844 C 515.980469 249.410156 517.050781 240.863281 518.429688 232.835938 C 524.714844 196.199219 538.855469 163.019531 559.328125 136.890625 C 560.710938 135.121094 562.109375 133.40625 563.488281 131.785156 C 571.203125 122.707031 579.46875 115.40625 588.054688 110.082031 C 598.109375 103.851562 610.035156 99.320312 624.519531 96.230469 C 646.785156 91.472656 669.371094 91.429688 689.832031 96.109375 L 689.664062 96.839844 C 669.308594 92.1875 646.839844 92.230469 624.679688 96.964844 C 610.277344 100.035156 598.429688 104.535156 588.449219 110.722656 C 579.929688 116.003906 571.722656 123.253906 564.058594 132.273438 C 562.6875 133.882812 561.296875 135.59375 559.917969 137.351562 C 539.527344 163.386719 525.433594 196.445312 519.171875 232.960938 C 517.796875 240.964844 516.730469 249.492188 515.90625 259.027344 L 515.675781 261.730469 C 514.382812 276.871094 513.046875 292.523438 507.707031 306.542969 C 500.453125 325.597656 489.625 339.429688 475.523438 347.648438 C 473.058594 349.089844 470.5 350.351562 467.859375 351.4375 C 449.855469 358.828125 427.195312 358.613281 405.691406 350.839844 C 383.558594 342.851562 362.074219 327.9375 341.828125 306.507812 C 324.757812 288.417969 310.160156 267.625 296.042969 247.519531 L 294.234375 244.941406 C 292.515625 242.496094 290.792969 240.050781 289.0625 237.605469 C 275.152344 217.949219 258.515625 196.101562 236.601562 185.578125 C 233.171875 183.9375 229.640625 182.554688 226.011719 181.425781 C 210.648438 176.625 193.414062 176.527344 174.792969 181.136719 C 162.554688 184.136719 151.015625 188.855469 140.175781 195.289062 C 128.917969 201.972656 118.707031 210.324219 110.203125 217.617188 C 103.851562 223.0625 97.527344 228.734375 91.410156 234.21875 C 83.0625 241.699219 74.433594 249.4375 65.65625 256.671875 C 55.277344 265.246094 44.871094 272.640625 34.734375 278.652344 C 12.105469 291.957031 -21.75 305.691406 -54.554688 295.574219 Z M -54.554688 295.574219 " fill-opacity="1" fill-rule="nonzero"/></g></g></g></g><g clip-path="url(#9cc09592d9)"><g clip-path="url(#38c2224a06)"><g clip-path="url(#5ec6d9209c)"><g clip-path="url(#8ea3d1c3bc)"><path fill="#b3b3b3" d="M -54.097656 296.53125 L -53.816406 295.835938 C -29.289062 305.707031 1.867188 301.8125 33.914062 284.871094 C 44.851562 278.976562 55.1875 272.167969 64.925781 264.453125 C 75.804688 255.921875 86.339844 246.542969 96.527344 237.46875 C 100.589844 233.851562 104.792969 230.113281 108.964844 226.46875 C 117.84375 218.71875 127.503906 210.601562 137.972656 203.75 C 148.359375 196.929688 159.429688 191.507812 171.1875 187.488281 C 189.652344 181.160156 206.652344 179.695312 221.71875 183.140625 C 225.398438 183.976562 228.988281 185.101562 232.488281 186.515625 C 254.222656 195.367188 270.6875 215.933594 285.6875 236.246094 L 290.925781 243.339844 C 307.171875 265.34375 322.03125 284.964844 339.402344 302.285156 C 359.699219 322.492188 381.003906 336.703125 402.71875 344.519531 C 423.589844 352.046875 444.734375 352.730469 462.25 346.453125 C 464.808594 345.535156 467.296875 344.453125 469.714844 343.207031 C 483.789062 335.953125 495.125 323.023438 502.507812 305.8125 C 508.503906 291.828125 509.882812 275.894531 511.21875 260.488281 L 511.488281 257.40625 C 512.339844 247.738281 513.46875 238.96875 514.933594 230.601562 C 521.585938 192.699219 536.28125 158.734375 557.4375 132.382812 C 558.863281 130.601562 560.324219 128.859375 561.769531 127.199219 C 569.679688 118.132812 578.222656 110.703125 587.175781 105.125 C 597.609375 98.617188 610.144531 93.667969 624.429688 90.410156 C 647.347656 85.179688 670.503906 85.234375 691.386719 90.570312 L 691.203125 91.296875 C 670.429688 85.992188 647.398438 85.9375 624.59375 91.144531 C 610.390625 94.378906 597.9375 99.296875 587.570312 105.761719 C 578.683594 111.300781 570.195312 118.679688 562.335938 127.691406 C 560.894531 129.34375 559.445312 131.082031 558.023438 132.851562 C 536.945312 159.105469 522.300781 192.949219 515.675781 230.730469 C 514.210938 239.074219 513.085938 247.824219 512.238281 257.472656 L 511.96875 260.550781 C 510.628906 276.015625 509.242188 292.011719 503.199219 306.105469 C 495.75 323.480469 484.289062 336.539062 470.058594 343.871094 C 467.613281 345.132812 465.09375 346.226562 462.503906 347.15625 C 444.824219 353.496094 423.5 352.808594 402.464844 345.226562 C 380.644531 337.371094 359.25 323.101562 338.875 302.8125 C 321.464844 285.457031 306.589844 265.8125 290.324219 243.78125 L 285.085938 236.6875 C 270.148438 216.464844 253.761719 195.992188 232.207031 187.207031 C 228.746094 185.808594 225.191406 184.695312 221.550781 183.871094 C 206.625 180.457031 189.765625 181.914062 171.429688 188.195312 C 159.734375 192.195312 148.71875 197.589844 138.382812 204.375 C 127.953125 211.203125 118.320312 219.300781 109.460938 227.03125 C 105.289062 230.671875 101.089844 234.410156 97.03125 238.027344 C 86.832031 247.109375 76.289062 256.496094 65.390625 265.042969 C 55.617188 272.785156 45.242188 279.617188 34.265625 285.53125 C 2.019531 302.582031 -29.363281 306.488281 -54.097656 296.53125 Z M -54.097656 296.53125 " fill-opacity="1" fill-rule="nonzero"/></g></g></g></g><g clip-path="url(#bd004dd4b9)"><g clip-path="url(#25ca3a1724)"><g clip-path="url(#5a2aa6bfc3)"><g clip-path="url(#040cb69e78)"><path fill="#b3b3b3" d="M -53.625 297.496094 L -53.640625 297.488281 L -53.304688 296.816406 L -53.285156 296.824219 C -29.667969 308.761719 1.144531 306.953125 33.484375 291.734375 C 44.503906 286.457031 54.90625 280.148438 64.679688 272.8125 C 77.867188 262.996094 90.378906 251.820312 102.480469 241.007812 C 104.390625 239.300781 106.304688 237.59375 108.21875 235.890625 C 116.902344 228.167969 126.210938 220.027344 136.152344 212.851562 C 146.058594 205.664062 156.597656 199.570312 167.765625 194.566406 C 185.898438 186.46875 202.53125 183.441406 217.203125 185.570312 C 220.894531 186.097656 224.511719 186.949219 228.050781 188.128906 C 251.296875 195.917969 268.871094 218.6875 281.703125 235.3125 C 283.46875 237.601562 285.238281 239.882812 287.007812 242.164062 C 300.976562 260.148438 317.46875 280.820312 336.4375 298.574219 C 357.113281 317.902344 377.742188 331.097656 399.492188 338.90625 C 419.636719 346.144531 440.03125 347.300781 456.929688 342.160156 C 459.4375 341.394531 461.890625 340.480469 464.285156 339.410156 C 478.769531 332.941406 490.429688 321.160156 498.011719 305.34375 C 504.710938 291.371094 506.128906 275.167969 507.5 259.496094 L 507.820312 255.851562 C 508.695312 246.066406 509.878906 237.074219 511.441406 228.367188 C 518.457031 189.203125 533.707031 154.457031 555.546875 127.871094 C 557.039062 126.054688 558.558594 124.28125 560.054688 122.609375 C 568.132812 113.566406 576.960938 106.011719 586.292969 100.160156 C 597.273438 93.277344 610.074219 88.039062 624.335938 84.589844 C 647.898438 78.882812 671.625 79.035156 692.941406 85.027344 L 692.738281 85.75 C 671.542969 79.789062 647.953125 79.640625 624.511719 85.320312 C 610.328125 88.75 597.605469 93.957031 586.691406 100.796875 C 577.417969 106.609375 568.644531 114.117188 560.613281 123.109375 C 559.125 124.777344 557.613281 126.539062 556.125 128.347656 C 534.367188 154.828125 519.171875 189.460938 512.179688 228.496094 C 510.625 237.183594 509.441406 246.152344 508.570312 255.917969 L 508.246094 259.558594 C 506.871094 275.292969 505.445312 291.570312 498.691406 305.664062 C 491.03125 321.644531 479.238281 333.550781 464.589844 340.089844 C 462.167969 341.175781 459.6875 342.101562 457.148438 342.875 C 440.097656 348.0625 419.53125 346.902344 399.242188 339.609375 C 377.390625 331.769531 356.679688 318.523438 335.925781 299.121094 C 316.917969 281.332031 300.40625 260.628906 286.417969 242.625 C 284.644531 240.34375 282.878906 238.058594 281.113281 235.769531 C 268.335938 219.21875 250.84375 196.550781 227.816406 188.835938 C 224.316406 187.675781 220.746094 186.832031 217.09375 186.3125 C 202.566406 184.203125 186.074219 187.210938 168.070312 195.25 C 156.949219 200.234375 146.457031 206.300781 136.59375 213.457031 C 126.679688 220.613281 117.386719 228.738281 108.71875 236.449219 C 106.804688 238.152344 104.890625 239.859375 102.984375 241.566406 C 90.871094 252.386719 78.34375 263.578125 65.128906 273.414062 C 55.316406 280.78125 44.875 287.113281 33.804688 292.414062 C 1.253906 307.730469 -29.796875 309.535156 -53.625 297.496094 Z M -53.625 297.496094 " fill-opacity="1" fill-rule="nonzero"/></g></g></g></g><g clip-path="url(#a3bf915376)"><g clip-path="url(#145c458fa3)"><g clip-path="url(#4a8c2d238c)"><g clip-path="url(#06e7181bd7)"><path fill="#b3b3b3" d="M -47.894531 301.410156 C -49.675781 300.507812 -51.4375 299.519531 -53.183594 298.441406 L -52.789062 297.800781 C -22.214844 316.746094 14.117188 306.433594 33.050781 298.601562 C 44.148438 293.945312 54.609375 288.132812 64.429688 281.171875 C 80.117188 270.121094 94.648438 256.941406 107.472656 245.3125 L 107.984375 244.847656 C 116.503906 237.121094 125.3125 229.132812 134.332031 221.953125 C 144.339844 214.003906 154.4375 207.171875 164.34375 201.648438 C 182.332031 191.570312 198.144531 187.105469 212.683594 188 C 216.386719 188.222656 220.027344 188.800781 223.613281 189.738281 C 246.582031 195.820312 263.847656 217.199219 277.722656 234.386719 C 279.503906 236.59375 281.292969 238.796875 283.089844 240.992188 C 296.992188 257.980469 313.847656 277.667969 333.46875 294.863281 C 354.207031 313.019531 374.75 325.585938 396.269531 333.292969 C 410.039062 338.226562 430.820312 343.023438 451.609375 337.871094 C 454.070312 337.257812 456.488281 336.507812 458.859375 335.613281 C 473.609375 330.058594 485.917969 319.140625 493.519531 304.875 C 500.925781 290.972656 502.371094 274.527344 503.769531 258.628906 C 503.894531 257.179688 504.023438 255.734375 504.152344 254.296875 C 505.042969 244.515625 506.320312 235.039062 507.945312 226.128906 C 515.328125 185.71875 531.136719 150.183594 553.65625 123.367188 C 555.191406 121.539062 556.769531 119.742188 558.339844 118.023438 C 566.339844 109.199219 575.363281 101.59375 585.414062 95.203125 C 596.957031 87.929688 610.019531 82.398438 624.246094 78.769531 C 648.445312 72.585938 672.738281 72.835938 694.496094 79.492188 L 694.277344 80.207031 C 672.652344 73.59375 648.496094 73.347656 624.429688 79.496094 C 610.28125 83.105469 597.289062 88.605469 585.8125 95.835938 C 575.820312 102.191406 566.847656 109.753906 558.890625 118.527344 C 557.328125 120.238281 555.757812 122.03125 554.230469 123.851562 C 531.792969 150.566406 516.042969 185.980469 508.683594 226.265625 C 507.058594 235.152344 505.789062 244.605469 504.898438 254.363281 C 504.769531 255.800781 504.640625 257.246094 504.515625 258.691406 C 503.113281 274.667969 501.660156 291.1875 494.183594 305.226562 C 486.496094 319.65625 474.042969 330.695312 459.121094 336.316406 C 456.722656 337.21875 454.277344 337.980469 451.789062 338.597656 C 430.816406 343.796875 409.882812 338.96875 396.015625 333.996094 C 374.402344 326.261719 353.78125 313.644531 332.972656 295.425781 C 313.3125 278.195312 296.429688 258.480469 282.507812 241.464844 C 280.710938 239.269531 278.917969 237.066406 277.136719 234.855469 C 263.332031 217.757812 246.152344 196.476562 223.421875 190.464844 C 219.882812 189.539062 216.289062 188.96875 212.636719 188.75 C 198.246094 187.863281 182.570312 192.296875 164.710938 202.304688 C 154.839844 207.808594 144.777344 214.613281 134.800781 222.542969 C 125.800781 229.703125 117 237.683594 108.488281 245.402344 L 107.976562 245.867188 C 95.136719 257.511719 80.585938 270.707031 64.863281 281.785156 C 55 288.777344 44.488281 294.613281 33.339844 299.289062 C 15.355469 306.738281 -18.234375 316.398438 -47.894531 301.410156 Z M -47.894531 301.410156 " fill-opacity="1" fill-rule="nonzero"/></g></g></g></g><g clip-path="url(#b316425573)"><g clip-path="url(#fa563309a7)"><g clip-path="url(#1f7d652f1f)"><g clip-path="url(#b3e78e4cb8)"><path fill="#b3b3b3" d="M -42.96875 305.421875 C -46.398438 303.695312 -49.648438 301.683594 -52.726562 299.390625 L -52.277344 298.789062 C -30.925781 314.710938 0.015625 317.148438 32.621094 305.464844 C 43.785156 301.433594 54.308594 296.121094 64.183594 289.535156 C 78.734375 279.859375 91.714844 268.625 106.726562 254.734375 C 108.96875 252.65625 111.210938 250.574219 113.445312 248.484375 C 119.652344 242.699219 126.074219 236.714844 132.515625 231.058594 C 142.632812 222.1875 151.925781 214.886719 160.925781 208.738281 C 178.441406 196.734375 193.894531 190.746094 208.167969 190.433594 C 211.871094 190.347656 215.542969 190.652344 219.179688 191.355469 C 241.890625 195.789062 258.761719 215.746094 273.648438 233.347656 L 273.738281 233.457031 C 275.535156 235.582031 277.347656 237.703125 279.171875 239.816406 C 297.871094 261.484375 314.183594 277.796875 330.503906 291.152344 C 351.238281 308.109375 371.699219 320.058594 393.046875 327.675781 C 412.460938 334.609375 430.375 336.59375 446.292969 333.582031 C 448.707031 333.125 451.085938 332.539062 453.433594 331.820312 C 468.714844 327.15625 481.355469 317.421875 489.027344 304.40625 C 497.15625 290.621094 498.617188 273.953125 500.03125 257.835938 C 500.179688 256.132812 500.332031 254.433594 500.484375 252.742188 C 501.398438 242.84375 502.734375 233.140625 504.453125 223.898438 C 512.199219 182.242188 528.5625 145.921875 551.765625 118.863281 C 553.359375 117.007812 554.992188 115.183594 556.625 113.4375 C 561.160156 108.558594 566.011719 104.023438 571.1875 99.832031 C 576.363281 95.636719 581.808594 91.828125 587.519531 88.402344 C 593.230469 84.980469 599.15625 81.972656 605.292969 79.382812 C 611.429688 76.796875 617.714844 74.652344 624.15625 72.953125 C 648.988281 66.292969 673.851562 66.640625 696.050781 73.953125 L 695.816406 74.667969 C 673.753906 67.398438 649.042969 67.054688 624.347656 73.675781 C 617.945312 75.367188 611.691406 77.5 605.585938 80.074219 C 599.480469 82.648438 593.589844 85.640625 587.90625 89.046875 C 582.222656 92.453125 576.808594 96.242188 571.660156 100.414062 C 566.511719 104.585938 561.683594 109.097656 557.171875 113.949219 C 555.546875 115.6875 553.921875 117.503906 552.335938 119.351562 C 529.21875 146.308594 512.914062 182.511719 505.191406 224.035156 C 503.476562 233.253906 502.144531 242.9375 501.230469 252.808594 C 501.074219 254.5 500.925781 256.199219 500.777344 257.902344 C 499.359375 274.101562 497.886719 290.855469 489.675781 304.789062 C 481.90625 317.960938 469.113281 327.816406 453.652344 332.539062 C 451.277344 333.265625 448.871094 333.859375 446.433594 334.320312 C 430.378906 337.359375 412.332031 335.363281 392.792969 328.386719 C 371.363281 320.738281 350.832031 308.75 330.027344 291.734375 C 313.671875 278.355469 297.332031 262.011719 278.601562 240.308594 C 276.777344 238.195312 274.964844 236.074219 273.164062 233.941406 L 273.074219 233.835938 C 258.265625 216.324219 241.484375 196.476562 219.03125 192.09375 C 215.449219 191.402344 211.832031 191.101562 208.183594 191.1875 C 194.0625 191.496094 178.742188 197.4375 161.347656 209.359375 C 152.375 215.492188 143.105469 222.773438 133.011719 231.625 C 126.574219 237.273438 120.160156 243.253906 113.957031 249.035156 C 111.71875 251.121094 109.480469 253.207031 107.238281 255.285156 C 92.195312 269.203125 79.191406 280.457031 64.601562 290.160156 C 54.671875 296.78125 44.097656 302.121094 32.875 306.171875 C 4.699219 316.269531 -22.265625 315.886719 -42.96875 305.421875 Z M -42.96875 305.421875 " fill-opacity="1" fill-rule="nonzero"/></g></g></g></g><g clip-path="url(#595f3f83cc)"><g clip-path="url(#4abba24f65)"><g clip-path="url(#3c4b17cb68)"><g clip-path="url(#26944baa2f)"><path fill="#b3b3b3" d="M -37.832031 310.140625 C -43.070312 307.5 -47.878906 304.230469 -52.265625 300.339844 L -51.769531 299.777344 C -19.746094 328.179688 30.65625 318.710938 63.9375 297.894531 C 85.472656 284.425781 103.984375 266.296875 121.886719 248.761719 C 133.269531 237.613281 145.039062 226.089844 157.503906 215.828125 C 178.84375 198.261719 197.5625 190.789062 214.738281 192.972656 C 237.238281 195.839844 253.988281 214.742188 268.765625 231.417969 L 269.75 232.527344 C 311.121094 279.191406 349.273438 307.644531 389.820312 322.066406 C 408.992188 328.886719 425.726562 331.25 440.976562 329.296875 C 459.460938 326.921875 475.746094 317.445312 484.53125 303.9375 C 493.398438 290.3125 494.867188 273.417969 496.289062 257.078125 C 496.460938 255.105469 496.628906 253.140625 496.8125 251.1875 C 500.675781 209.988281 513.886719 151.855469 554.902344 108.851562 C 572.921875 89.957031 596.496094 75.429688 621.28125 67.941406 C 647.683594 59.964844 674.074219 60.128906 697.601562 68.414062 L 697.351562 69.121094 C 651.003906 52.800781 593.976562 68.972656 555.449219 109.367188 C 514.582031 152.214844 501.414062 210.175781 497.5625 251.253906 C 497.378906 253.207031 497.207031 255.171875 497.039062 257.144531 C 495.609375 273.574219 494.132812 290.5625 485.164062 304.347656 C 476.257812 318.035156 459.773438 327.640625 441.070312 330.039062 C 425.703125 332.011719 408.855469 329.636719 389.566406 322.773438 C 348.898438 308.304688 310.644531 279.785156 269.1875 233.027344 L 268.203125 231.917969 C 253.515625 215.339844 236.863281 196.546875 214.640625 193.71875 C 197.683594 191.558594 179.152344 198.980469 157.980469 216.40625 C 145.539062 226.644531 133.78125 238.160156 122.410156 249.296875 C 104.480469 266.859375 85.9375 285.019531 64.335938 298.53125 C 35.480469 316.578125 -6.1875 326.132812 -37.832031 310.140625 Z M -37.832031 310.140625 " fill-opacity="1" fill-rule="nonzero"/></g></g></g></g><g clip-path="url(#f3e8da328f)"><g clip-path="url(#3a2baeb308)"><g clip-path="url(#24aba7ed92)"><g clip-path="url(#64d437c0f9)"><path fill="#b3b3b3" d="M -42.871094 302.242188 C -46.585938 300.371094 -50.085938 298.164062 -53.375 295.617188 L -52.914062 295.023438 C -21.382812 319.5 29.035156 310.035156 62.53125 290.886719 C 66.726562 288.488281 71.027344 285.820312 75.316406 282.953125 C 91.367188 272.234375 106.007812 259.605469 120.167969 247.390625 C 131.9375 237.238281 144.105469 226.742188 156.820312 217.605469 C 165.882812 211.101562 174.054688 206.4375 181.800781 203.339844 C 192.789062 198.917969 202.910156 197.613281 212.738281 199.351562 C 233.808594 203.113281 249.355469 220.265625 264.394531 236.851562 C 265.269531 237.816406 266.140625 238.773438 267.007812 239.726562 C 284.082031 258.480469 301.710938 274.753906 319.40625 288.09375 C 342.011719 305.140625 365.265625 317.578125 388.523438 325.0625 C 407.535156 331.179688 423.945312 333.078125 438.703125 330.867188 C 456.730469 328.164062 472.628906 318.636719 481.238281 305.382812 C 490.296875 291.414062 491.828125 274.148438 493.308594 257.449219 C 493.460938 255.746094 493.617188 254.050781 493.769531 252.355469 C 496.824219 219.703125 503.726562 190.828125 514.28125 166.535156 C 523.8125 144.589844 536.636719 125.492188 552.402344 109.773438 C 562.839844 99.382812 574.554688 90.71875 587.542969 83.777344 C 623.03125 64.753906 662.539062 61.257812 695.9375 74.183594 L 695.667969 74.882812 C 662.472656 62.035156 623.191406 65.519531 587.898438 84.4375 C 574.976562 91.34375 563.320312 99.964844 552.933594 110.300781 C 537.234375 125.957031 524.464844 144.976562 514.96875 166.832031 C 504.445312 191.054688 497.566406 219.851562 494.519531 252.425781 C 494.359375 254.113281 494.207031 255.8125 494.058594 257.515625 C 492.570312 274.304688 491.03125 291.667969 481.867188 305.789062 C 473.144531 319.222656 457.050781 328.875 438.8125 331.609375 C 423.941406 333.835938 407.417969 331.929688 388.292969 325.777344 C 364.957031 318.265625 341.625 305.792969 318.953125 288.695312 C 301.222656 275.328125 283.558594 259.023438 266.453125 240.234375 C 265.585938 239.28125 264.714844 238.320312 263.839844 237.355469 C 248.886719 220.863281 233.421875 203.808594 212.609375 200.09375 C 202.921875 198.378906 192.933594 199.667969 182.078125 204.035156 C 174.390625 207.113281 166.269531 211.75 157.257812 218.214844 C 144.566406 227.332031 132.414062 237.820312 120.660156 247.960938 C 106.480469 260.1875 91.820312 272.835938 75.734375 283.578125 C 71.429688 286.453125 67.113281 289.132812 62.902344 291.539062 C 44.300781 302.175781 23.039062 308.820312 3.035156 310.246094 C -14.386719 311.492188 -30.015625 308.738281 -42.871094 302.242188 Z M -42.871094 302.242188 " fill-opacity="1" fill-rule="nonzero"/></g></g></g></g><g clip-path="url(#92b5f174ac)"><g clip-path="url(#d463eb3bc4)"><g clip-path="url(#e48f40cba6)"><g clip-path="url(#ff4431484a)"><path fill="#b3b3b3" d="M -48.042969 294.636719 C -50.265625 293.515625 -52.410156 292.269531 -54.484375 290.894531 L -54.070312 290.269531 C -22.882812 310.964844 26.257812 301.972656 61.121094 283.882812 C 65.34375 281.691406 69.695312 279.257812 74.046875 276.65625 C 89.644531 267.347656 103.90625 256.671875 117.703125 246.347656 C 130.671875 236.640625 142.921875 227.472656 156.140625 219.386719 C 165.117188 213.90625 173.152344 210.0625 180.699219 207.636719 C 191.441406 204.179688 201.265625 203.558594 210.738281 205.734375 C 230.386719 210.308594 245.398438 226.542969 259.914062 242.242188 C 261.371094 243.816406 262.820312 245.382812 264.265625 246.925781 C 280.898438 264.722656 298.824219 280.441406 317.546875 293.648438 C 340.347656 309.75 363.789062 321.328125 387.222656 328.058594 C 406.050781 333.464844 422.144531 334.898438 436.425781 332.4375 C 454.25 329.363281 469.382812 320.027344 477.9375 306.824219 C 487.203125 292.503906 488.796875 274.839844 490.335938 257.761719 C 490.464844 256.347656 490.59375 254.9375 490.726562 253.527344 C 493.949219 219.011719 500.519531 190.742188 510.8125 167.101562 C 520.328125 145.25 533.480469 126.273438 549.898438 110.695312 C 560.605469 100.550781 572.570312 92.21875 585.792969 85.695312 C 621.53125 68.007812 661.070312 65.914062 694.273438 79.949219 L 693.980469 80.640625 C 660.976562 66.691406 621.664062 68.777344 586.125 86.371094 C 572.96875 92.859375 561.066406 101.148438 550.414062 111.238281 C 534.066406 126.746094 520.976562 145.644531 511.5 167.402344 C 501.238281 190.96875 494.6875 219.164062 491.46875 253.597656 C 491.339844 255.003906 491.210938 256.414062 491.082031 257.828125 C 489.535156 275 487.933594 292.753906 478.566406 307.234375 C 469.898438 320.609375 454.585938 330.066406 436.554688 333.175781 C 422.15625 335.660156 405.953125 334.21875 387.015625 328.78125 C 363.503906 322.027344 339.984375 310.414062 317.113281 294.261719 C 298.347656 281.023438 280.382812 265.273438 263.714844 247.441406 C 262.269531 245.894531 260.820312 244.328125 259.363281 242.75 C 244.921875 227.136719 229.992188 210.988281 210.566406 206.464844 C 201.234375 204.320312 191.539062 204.9375 180.929688 208.347656 C 173.4375 210.757812 165.457031 214.578125 156.527344 220.023438 C 143.339844 228.09375 131.105469 237.25 118.152344 246.945312 C 104.339844 257.28125 90.058594 267.972656 74.429688 277.300781 C 70.0625 279.910156 65.703125 282.347656 61.464844 284.546875 C 28.71875 301.542969 -16.589844 310.53125 -48.042969 294.636719 Z M -48.042969 294.636719 " fill-opacity="1" fill-rule="nonzero"/></g></g></g></g><g clip-path="url(#593690a42d)"><g clip-path="url(#1ad81cd6a2)"><g clip-path="url(#f5e0689fc0)"><g clip-path="url(#dade65f204)"><path fill="#b3b3b3" d="M -53.773438 287.125 C -54.386719 286.816406 -54.988281 286.5 -55.585938 286.171875 L -55.226562 285.511719 C -24.605469 302.328125 24.566406 293.296875 59.714844 276.875 C 63.960938 274.890625 68.355469 272.699219 72.78125 270.355469 C 87.503906 262.589844 101.03125 253.96875 114.117188 245.628906 C 128.140625 236.691406 141.386719 228.25 155.464844 221.164062 C 164.375 216.695312 172.273438 213.675781 179.605469 211.929688 C 190.113281 209.429688 199.640625 209.488281 208.742188 212.113281 C 226.953125 217.367188 241.328125 232.671875 255.234375 247.476562 C 257.296875 249.671875 259.429688 251.945312 261.523438 254.128906 C 277.894531 271.175781 295.949219 286.199219 315.6875 299.203125 C 338.714844 314.390625 362.347656 325.105469 385.925781 331.054688 C 404.800781 335.816406 420.128906 336.757812 434.152344 334.007812 C 451.507812 330.601562 466.261719 321.21875 474.636719 308.269531 C 484.125 293.5625 485.777344 275.480469 487.375 257.988281 L 487.675781 254.695312 C 491.117188 217.789062 497.183594 190.949219 507.34375 167.667969 C 516.859375 145.871094 530.335938 127.011719 547.394531 111.613281 C 558.367188 101.714844 570.585938 93.714844 584.042969 87.613281 C 620.019531 71.242188 659.589844 70.550781 692.609375 85.714844 L 692.292969 86.398438 C 659.472656 71.324219 620.132812 72.015625 584.351562 88.296875 C 570.964844 94.367188 558.8125 102.324219 547.898438 112.171875 C 530.917969 127.496094 517.507812 146.269531 508.035156 167.96875 C 497.90625 191.171875 491.859375 217.941406 488.425781 254.765625 L 488.125 258.058594 C 486.515625 275.636719 484.855469 293.816406 475.269531 308.675781 C 466.78125 321.796875 451.847656 331.296875 434.296875 334.746094 C 420.160156 337.515625 404.730469 336.574219 385.742188 331.785156 C 362.082031 325.816406 338.371094 315.066406 315.273438 299.832031 C 295.488281 286.796875 277.390625 271.738281 260.980469 254.648438 C 258.886719 252.464844 256.75 250.191406 254.683594 247.992188 C 240.851562 233.261719 226.542969 218.035156 208.53125 212.839844 C 199.558594 210.25 190.152344 210.191406 179.78125 212.664062 C 172.503906 214.394531 164.660156 217.394531 155.800781 221.835938 C 141.757812 228.90625 128.527344 237.335938 114.523438 246.261719 C 101.421875 254.609375 87.878906 263.242188 73.132812 271.023438 C 68.695312 273.367188 64.289062 275.566406 60.035156 277.554688 C 25.398438 293.734375 -22.828125 302.765625 -53.773438 287.125 Z M -53.773438 287.125 " fill-opacity="1" fill-rule="nonzero"/></g></g></g></g><g clip-path="url(#128005bb22)"><g clip-path="url(#6769836ef1)"><g clip-path="url(#e5afd70564)"><g clip-path="url(#80073efe3d)"><path fill="#b3b3b3" d="M -56.683594 281.445312 L -56.386719 280.757812 C -24.367188 294.636719 25.410156 283.566406 58.308594 269.871094 C 62.628906 268.070312 66.949219 266.167969 71.515625 264.058594 C 84.710938 257.988281 96.953125 251.496094 108.789062 245.214844 C 124.488281 236.890625 139.316406 229.027344 154.792969 222.941406 C 163.75 219.445312 171.289062 217.3125 178.515625 216.226562 C 188.746094 214.691406 197.980469 215.433594 206.742188 218.496094 C 223.554688 224.367188 237.25 238.777344 250.492188 252.707031 C 253.207031 255.566406 256.015625 258.519531 258.78125 261.324219 C 274.785156 277.5625 293.304688 292.171875 313.828125 304.757812 C 337.113281 319.054688 360.929688 328.910156 384.628906 334.050781 C 403.269531 338.09375 418.285156 338.578125 431.878906 335.578125 C 448.761719 331.84375 463.144531 322.414062 471.339844 309.710938 C 481.0625 294.601562 482.773438 276.0625 484.425781 258.136719 L 484.636719 255.867188 C 487.183594 228.460938 491.464844 196.617188 503.882812 168.238281 C 513.273438 146.773438 527.453125 127.511719 544.890625 112.535156 C 556.136719 102.878906 568.605469 95.210938 582.292969 89.53125 C 618.507812 74.453125 658.109375 75.164062 690.945312 91.484375 L 690.609375 92.15625 C 657.96875 75.933594 618.59375 75.230469 582.582031 90.222656 C 568.964844 95.875 556.566406 103.5 545.382812 113.105469 C 528.027344 128.007812 513.917969 147.175781 504.570312 168.535156 C 492.195312 196.820312 487.925781 228.589844 485.382812 255.933594 L 485.171875 258.207031 C 483.511719 276.222656 481.792969 294.855469 471.972656 310.117188 C 463.667969 322.984375 449.113281 332.53125 432.042969 336.3125 C 418.335938 339.335938 403.21875 338.851562 384.46875 334.785156 C 360.6875 329.628906 336.789062 319.738281 313.4375 305.394531 C 292.863281 292.78125 274.292969 278.132812 258.25 261.851562 C 255.476562 259.039062 252.664062 256.082031 249.949219 253.226562 C 236.765625 239.359375 223.132812 225.015625 206.496094 219.207031 C 197.851562 216.183594 188.734375 215.453125 178.628906 216.96875 C 171.457031 218.046875 163.96875 220.164062 155.066406 223.640625 C 139.632812 229.707031 124.820312 237.5625 109.140625 245.878906 C 97.292969 252.164062 85.042969 258.660156 71.832031 264.742188 C 67.257812 266.851562 62.925781 268.757812 58.597656 270.5625 C 25.566406 284.316406 -24.449219 295.417969 -56.683594 281.445312 Z M -56.683594 281.445312 " fill-opacity="1" fill-rule="nonzero"/></g></g></g></g><g clip-path="url(#12506a7bdd)"><g clip-path="url(#391188a4e9)"><g clip-path="url(#23e4df407f)"><g clip-path="url(#2bfe7a6518)"><path fill="#b3b3b3" d="M -57.777344 276.722656 L -57.550781 276.003906 C -26.382812 285.84375 23.585938 275.074219 56.90625 262.863281 C 61.171875 261.296875 65.535156 259.628906 70.253906 257.761719 C 80.898438 253.566406 90.941406 249.25 100.652344 245.074219 C 119.050781 237.164062 136.425781 229.695312 154.125 224.722656 C 162.984375 222.261719 170.390625 220.929688 177.429688 220.527344 C 187.371094 219.960938 196.308594 221.382812 204.746094 224.882812 C 220.15625 231.269531 233.097656 244.777344 245.613281 257.839844 C 249.015625 261.394531 252.539062 265.070312 256.039062 268.523438 C 271.824219 284.121094 290.640625 298.179688 311.96875 310.308594 C 335.542969 323.75 359.550781 332.746094 383.332031 337.046875 C 401.710938 340.375 416.414062 340.40625 429.605469 337.148438 C 446.007812 333.089844 460.019531 323.613281 468.042969 311.152344 C 478.015625 295.609375 479.777344 276.582031 481.484375 258.179688 L 481.589844 257.035156 C 484.171875 229.230469 487.96875 197.1875 500.417969 168.804688 C 505.136719 158.058594 511.042969 148.007812 518.136719 138.652344 C 525.226562 129.300781 533.3125 120.902344 542.386719 113.457031 C 553.90625 104.039062 566.625 96.703125 580.542969 91.453125 C 616.988281 77.648438 656.613281 79.773438 689.277344 97.25 L 688.921875 97.914062 C 656.472656 80.519531 617.050781 78.425781 580.808594 92.152344 C 566.964844 97.378906 554.316406 104.671875 542.863281 114.039062 C 533.832031 121.445312 525.789062 129.800781 518.734375 139.105469 C 511.675781 148.414062 505.800781 158.414062 501.101562 169.105469 C 488.699219 197.386719 484.914062 229.359375 482.335938 257.105469 L 482.230469 258.25 C 480.515625 276.742188 478.746094 295.863281 468.671875 311.558594 C 460.546875 324.179688 446.371094 333.773438 429.785156 337.878906 C 416.488281 341.160156 401.683594 341.132812 383.195312 337.785156 C 359.332031 333.46875 335.242188 324.445312 311.597656 310.964844 C 290.214844 298.800781 271.34375 284.699219 255.511719 269.058594 C 252.003906 265.59375 248.480469 261.917969 245.070312 258.359375 C 232.609375 245.351562 219.722656 231.894531 204.457031 225.574219 C 196.128906 222.121094 187.300781 220.714844 177.472656 221.277344 C 170.488281 221.675781 163.128906 223.003906 154.324219 225.445312 C 136.675781 230.40625 119.320312 237.867188 100.949219 245.761719 C 91.230469 249.941406 81.183594 254.261719 70.527344 258.460938 C 65.804688 260.332031 61.433594 262 57.164062 263.566406 C 22.128906 276.40625 -26.460938 286.605469 -57.777344 276.722656 Z M -57.777344 276.722656 " fill-opacity="1" fill-rule="nonzero"/></g></g></g></g><g clip-path="url(#8c3fffd9dd)"><g clip-path="url(#620497df4d)"><g clip-path="url(#03d61e4c56)"><g clip-path="url(#f97c76f0d4)"><path fill="#b3b3b3" d="M -58.867188 271.992188 L -58.722656 271.257812 C -21 278.644531 38.242188 261.339844 55.5 255.859375 C 59.621094 254.546875 63.90625 253.152344 68.988281 251.46875 C 75.433594 249.34375 81.6875 247.214844 87.738281 245.160156 C 111.605469 237.050781 132.21875 230.050781 153.460938 226.507812 C 162.203125 225.082031 169.476562 224.550781 176.347656 224.832031 C 185.988281 225.226562 194.625 227.332031 202.75 231.265625 C 216.746094 238.046875 228.878906 250.65625 240.59375 262.84375 C 244.726562 267.144531 249 271.59375 253.300781 275.722656 C 268.917969 290.746094 288.035156 304.253906 310.113281 315.867188 C 334.003906 328.453125 358.207031 336.601562 382.03125 340.046875 C 400.121094 342.660156 414.515625 342.238281 427.328125 338.71875 C 443.492188 334.273438 456.777344 324.996094 464.742188 312.59375 C 474.988281 296.59375 476.796875 277.078125 478.542969 258.207031 C 481.453125 226.84375 485.046875 196.453125 496.949219 169.371094 C 499.328125 163.992188 502.023438 158.777344 505.046875 153.734375 C 508.066406 148.6875 511.386719 143.84375 515.003906 139.210938 C 518.625 134.574219 522.515625 130.179688 526.675781 126.023438 C 530.839844 121.871094 535.242188 117.988281 539.886719 114.378906 C 551.679688 105.195312 564.648438 98.195312 578.792969 93.371094 C 615.46875 80.820312 655.125 84.324219 687.613281 103.019531 L 687.238281 103.667969 C 654.945312 85.101562 615.507812 81.601562 579.035156 94.078125 C 564.96875 98.878906 552.074219 105.839844 540.347656 114.972656 C 535.730469 118.5625 531.351562 122.425781 527.210938 126.554688 C 523.070312 130.6875 519.199219 135.0625 515.597656 139.671875 C 512 144.285156 508.695312 149.097656 505.691406 154.117188 C 502.6875 159.136719 500.003906 164.324219 497.640625 169.675781 C 485.78125 196.652344 482.195312 226.980469 479.292969 258.277344 C 477.535156 277.238281 475.71875 296.84375 465.375 313 C 457.3125 325.558594 443.871094 334.949219 427.527344 339.445312 C 414.609375 342.992188 400.117188 343.417969 381.925781 340.789062 C 358.015625 337.335938 333.742188 329.171875 309.761719 316.53125 C 287.621094 304.886719 268.449219 291.339844 252.78125 276.265625 C 248.46875 272.125 244.191406 267.671875 240.054688 263.367188 C 228.382812 251.230469 216.332031 238.679688 202.421875 231.941406 C 194.394531 228.054688 185.851562 225.972656 176.316406 225.582031 C 169.496094 225.304688 162.273438 225.835938 153.585938 227.25 C 132.402344 230.78125 111.816406 237.773438 87.980469 245.875 C 81.929688 247.929688 75.671875 250.054688 69.226562 252.183594 C 64.140625 253.867188 59.851562 255.261719 55.726562 256.574219 C 38.425781 262.066406 -20.972656 279.417969 -58.867188 271.992188 Z M -58.867188 271.992188 " fill-opacity="1" fill-rule="nonzero"/></g></g></g></g><g clip-path="url(#aca54e8e9d)"><g clip-path="url(#e9ef93984d)"><g clip-path="url(#6c960ae441)"><g clip-path="url(#414197441e)"><path fill="#b3b3b3" d="M -59.953125 267.261719 L -59.894531 266.511719 C -26.832031 268.96875 25.714844 256.503906 54.09375 248.855469 L 58.835938 247.574219 C 61.839844 246.757812 64.804688 245.960938 67.726562 245.171875 C 97.625 237.191406 125.863281 229.65625 152.800781 228.296875 C 161.394531 227.898438 168.53125 228.164062 175.261719 229.140625 C 184.585938 230.488281 192.921875 233.269531 200.75 237.652344 C 213.367188 244.710938 224.574219 256.390625 235.410156 267.683594 C 240.3125 272.792969 245.382812 278.078125 250.558594 282.921875 C 266.269531 297.636719 285.144531 310.226562 308.253906 321.421875 C 332.523438 333.207031 356.910156 340.480469 380.734375 343.042969 C 398.5 344.953125 412.582031 344.078125 425.054688 340.292969 C 440.734375 335.519531 453.65625 326.195312 461.449219 314.039062 C 471.96875 297.554688 473.847656 277.269531 475.503906 259.375 C 478.300781 229.121094 481.195312 197.839844 493.488281 169.9375 C 502.96875 148.429688 518.148438 129.535156 537.386719 115.296875 C 549.476562 106.382812 562.695312 99.714844 577.046875 95.289062 C 613.953125 83.972656 653.644531 88.886719 685.949219 108.785156 L 685.554688 109.425781 C 653.4375 89.644531 613.964844 84.753906 577.265625 96.007812 C 562.996094 100.40625 549.851562 107.039062 537.832031 115.902344 C 518.699219 130.058594 503.601562 148.851562 494.175781 170.242188 C 481.929688 198.03125 479.042969 229.25 476.25 259.445312 C 474.589844 277.425781 472.703125 297.804688 462.082031 314.441406 C 454.195312 326.75 441.125 336.1875 425.277344 341.011719 C 412.703125 344.828125 398.523438 345.710938 380.65625 343.789062 C 356.742188 341.21875 332.277344 333.917969 307.925781 322.09375 C 284.757812 310.882812 265.816406 298.238281 250.046875 283.46875 C 244.855469 278.613281 239.777344 273.320312 234.867188 268.203125 C 224.070312 256.949219 212.90625 245.3125 200.386719 238.308594 C 192.636719 233.964844 184.386719 231.214844 175.15625 229.882812 C 168.472656 228.914062 161.378906 228.648438 152.839844 229.046875 C 125.980469 230.398438 97.78125 237.925781 67.921875 245.894531 C 65 246.683594 62.035156 247.480469 59.03125 248.296875 L 54.292969 249.578125 C 25.863281 257.242188 -26.777344 269.726562 -59.953125 267.261719 Z M -59.953125 267.261719 " fill-opacity="1" fill-rule="nonzero"/></g></g></g></g><g clip-path="url(#a41f97d4ba)"><g clip-path="url(#f6362a7999)"><g clip-path="url(#1b7150a2ba)"><g clip-path="url(#b0ac198a41)"><path fill="#b3b3b3" d="M -61.035156 262.519531 L -61.070312 261.773438 C -32.433594 260.359375 12.667969 250.75 52.691406 241.851562 C 57.773438 240.71875 62.28125 239.746094 66.464844 238.878906 C 94.351562 233.152344 124.027344 228.121094 152.140625 230.09375 C 160.347656 230.667969 167.558594 231.765625 174.179688 233.453125 C 182.953125 235.636719 191.140625 239.167969 198.753906 244.042969 C 209.960938 251.21875 219.71875 261.472656 230.050781 272.324219 C 235.765625 278.324219 241.671875 284.53125 247.816406 290.125 C 263.445312 304.371094 282.609375 316.425781 306.394531 326.980469 C 331.085938 337.964844 355.660156 344.378906 379.433594 346.042969 C 396.839844 347.261719 410.613281 345.933594 422.777344 341.867188 C 437.964844 336.777344 450.527344 327.40625 458.148438 315.484375 C 468.136719 299.796875 470.539062 281.324219 472.457031 260.546875 L 472.855469 256.1875 C 475.511719 227.15625 478.261719 197.140625 490.019531 170.511719 C 499.542969 148.949219 515.054688 130.175781 534.878906 116.226562 C 547.25 107.542969 560.722656 101.207031 575.292969 97.210938 C 579.871094 95.96875 584.503906 94.96875 589.1875 94.210938 C 593.871094 93.457031 598.578125 92.953125 603.316406 92.695312 C 608.054688 92.441406 612.789062 92.433594 617.527344 92.683594 C 622.265625 92.929688 626.972656 93.421875 631.660156 94.167969 C 636.34375 94.914062 640.972656 95.90625 645.554688 97.140625 C 650.132812 98.378906 654.632812 99.851562 659.054688 101.566406 C 663.476562 103.277344 667.796875 105.222656 672.011719 107.394531 C 676.230469 109.5625 680.320312 111.953125 684.28125 114.554688 L 683.871094 115.183594 C 679.929688 112.59375 675.863281 110.21875 671.667969 108.058594 C 667.476562 105.902344 663.179688 103.96875 658.785156 102.265625 C 654.386719 100.5625 649.910156 99.09375 645.355469 97.867188 C 640.804688 96.636719 636.199219 95.652344 631.539062 94.910156 C 626.882812 94.167969 622.199219 93.675781 617.488281 93.429688 C 612.777344 93.183594 608.066406 93.191406 603.355469 93.445312 C 598.644531 93.699219 593.960938 94.199219 589.304688 94.953125 C 584.648438 95.703125 580.042969 96.695312 575.488281 97.933594 C 561.003906 101.90625 547.609375 108.207031 535.3125 116.839844 C 515.597656 130.710938 500.171875 149.375 490.707031 170.8125 C 478.996094 197.332031 476.253906 227.285156 473.601562 256.253906 L 473.203125 260.617188 C 471.277344 281.488281 468.859375 300.054688 458.78125 315.886719 C 451.066406 327.953125 438.363281 337.433594 423.015625 342.578125 C 410.753906 346.679688 396.890625 348.015625 379.378906 346.789062 C 355.515625 345.121094 330.859375 338.6875 306.085938 327.664062 C 282.222656 317.078125 263 304.980469 247.308594 290.675781 C 241.148438 285.066406 235.230469 278.851562 229.507812 272.839844 C 219.207031 262.019531 209.476562 251.800781 198.347656 244.671875 C 190.804688 239.84375 182.6875 236.34375 173.996094 234.179688 C 167.414062 232.503906 160.25 231.410156 152.089844 230.839844 C 124.066406 228.875 94.445312 233.898438 66.617188 239.613281 C 62.4375 240.480469 57.933594 241.453125 52.855469 242.582031 C 12.796875 251.488281 -32.335938 261.105469 -61.035156 262.519531 Z M -61.035156 262.519531 " fill-opacity="1" fill-rule="nonzero"/></g></g></g></g><g clip-path="url(#fe8987455d)"><g clip-path="url(#a4de75c9d5)"><g clip-path="url(#1221f8b274)"><g clip-path="url(#8ccbc348b1)"><path fill="#b3b3b3" d="M -62.117188 257.777344 L -62.246094 257.039062 C -48.648438 254.660156 -31.140625 251.089844 -12.605469 247.308594 C 8.816406 242.941406 30.964844 238.425781 51.289062 234.847656 C 56.140625 233.992188 60.824219 233.230469 65.203125 232.585938 C 100.347656 227.480469 126.957031 227.265625 151.480469 231.890625 C 159.574219 233.449219 166.644531 235.371094 173.097656 237.765625 C 181.574219 240.882812 189.457031 245.105469 196.753906 250.429688 C 206.535156 257.550781 215.261719 266.847656 224.5 276.691406 C 231.0625 283.6875 237.855469 290.921875 245.074219 297.320312 C 260.644531 311.136719 280.09375 322.65625 304.53125 332.535156 C 329.6875 342.734375 354.449219 348.289062 378.132812 349.039062 C 395.148438 349.582031 408.613281 347.800781 420.503906 343.441406 C 435.195312 338.035156 447.394531 328.617188 454.851562 316.925781 C 465.082031 300.8125 467.574219 281.617188 469.410156 261.71875 C 469.660156 259.003906 469.90625 256.285156 470.144531 253.554688 C 472.636719 225.605469 475.214844 196.699219 486.554688 171.078125 C 496.128906 149.449219 511.972656 130.800781 532.378906 117.144531 C 538.65625 112.953125 545.253906 109.34375 552.167969 106.320312 C 559.082031 103.292969 566.207031 100.894531 573.546875 99.128906 C 610.921875 90.21875 650.675781 97.941406 682.617188 120.324219 L 682.183594 120.9375 C 650.421875 98.683594 610.886719 90.996094 573.71875 99.859375 C 566.425781 101.617188 559.339844 104 552.46875 107.007812 C 545.59375 110.015625 539.035156 113.601562 532.796875 117.769531 C 512.507812 131.347656 496.757812 149.882812 487.242188 171.378906 C 475.949219 196.886719 473.378906 225.730469 470.894531 253.621094 C 470.648438 256.347656 470.402344 259.070312 470.15625 261.785156 C 468.316406 281.78125 465.804688 301.074219 455.484375 317.328125 C 447.941406 329.15625 435.609375 338.679688 420.761719 344.144531 C 408.78125 348.539062 395.226562 350.335938 378.109375 349.792969 C 354.339844 349.035156 329.488281 343.460938 304.253906 333.226562 C 279.734375 323.320312 260.210938 311.757812 244.578125 297.882812 C 237.332031 291.460938 230.527344 284.214844 223.953125 277.203125 C 214.738281 267.386719 206.035156 258.117188 196.3125 251.035156 C 189.074219 245.753906 181.25 241.566406 172.835938 238.472656 C 166.421875 236.089844 159.390625 234.179688 151.34375 232.628906 C 126.902344 228.019531 100.371094 228.234375 65.3125 233.328125 C 60.9375 233.972656 56.261719 234.730469 51.417969 235.585938 C 31.105469 239.160156 8.960938 243.675781 -12.453125 248.042969 C -30.996094 251.828125 -48.507812 255.398438 -62.117188 257.777344 Z M -62.117188 257.777344 " fill-opacity="1" fill-rule="nonzero"/></g></g></g></g><g clip-path="url(#6a9e3337b6)"><g clip-path="url(#bc0a283c07)"><g clip-path="url(#85e6ce43f4)"><g clip-path="url(#1635774e56)"><path fill="#b3b3b3" d="M -63.203125 253.027344 L -63.421875 252.308594 C -35.410156 243.835938 10.488281 232.984375 49.882812 227.847656 C 54.722656 227.214844 59.453125 226.691406 63.941406 226.296875 C 97.179688 223.421875 125.597656 225.839844 150.820312 233.695312 C 158.101562 235.941406 165.167969 238.738281 172.011719 242.085938 C 180.171875 246.105469 187.75 251.019531 194.753906 256.820312 C 203.089844 263.679688 210.695312 271.964844 218.742188 280.734375 C 226.199219 288.855469 233.910156 297.253906 242.332031 304.523438 C 257.878906 317.945312 277.613281 328.925781 302.671875 338.089844 C 328.347656 347.511719 353.296875 352.203125 376.832031 352.039062 C 393.421875 351.925781 406.574219 349.691406 418.226562 345.011719 C 432.425781 339.300781 444.257812 329.835938 451.550781 318.367188 C 462.035156 301.820312 464.617188 281.886719 466.367188 262.886719 C 466.710938 259.125 467.035156 255.347656 467.359375 251.558594 C 469.683594 224.46875 472.085938 196.457031 483.089844 171.644531 C 492.714844 149.945312 508.894531 131.417969 529.875 118.070312 C 536.292969 113.992188 543.023438 110.523438 550.066406 107.664062 C 557.109375 104.804688 564.355469 102.601562 571.796875 101.054688 C 609.410156 93.3125 649.195312 102.441406 680.949219 126.09375 L 680.5 126.695312 C 648.917969 103.167969 609.351562 94.089844 571.945312 101.789062 C 564.550781 103.328125 557.351562 105.519531 550.347656 108.363281 C 543.347656 111.203125 536.65625 114.648438 530.277344 118.703125 C 509.421875 131.972656 493.34375 150.382812 483.773438 171.949219 C 472.820312 196.644531 470.421875 224.59375 468.105469 251.621094 C 467.78125 255.410156 467.449219 259.1875 467.113281 262.953125 C 465.355469 282.042969 462.757812 302.078125 452.183594 318.769531 C 444.808594 330.367188 432.847656 339.933594 418.503906 345.707031 C 406.761719 350.421875 393.523438 352.675781 376.835938 352.789062 C 353.210938 352.953125 328.167969 348.246094 302.414062 338.792969 C 277.269531 329.597656 257.453125 318.574219 241.839844 305.089844 C 233.382812 297.792969 225.660156 289.378906 218.1875 281.238281 C 210.15625 272.492188 202.570312 264.226562 194.273438 257.398438 C 187.308594 251.644531 179.777344 246.761719 171.675781 242.757812 C 164.867188 239.429688 157.839844 236.644531 150.59375 234.410156 C 125.46875 226.585938 97.144531 224.175781 64.003906 227.042969 C 59.527344 227.4375 54.808594 227.957031 49.980469 228.589844 C 10.628906 233.722656 -35.222656 244.5625 -63.203125 253.027344 Z M -63.203125 253.027344 " fill-opacity="1" fill-rule="nonzero"/></g></g></g></g><g clip-path="url(#e64903c972)"><g clip-path="url(#d1fc2a436b)"><g clip-path="url(#8ea0bf2b36)"><g clip-path="url(#99a935b8a1)"><path fill="#b3b3b3" d="M -64.292969 248.273438 L -64.59375 247.585938 C -35.167969 234.867188 10.269531 224.121094 48.476562 220.847656 C 53.328125 220.429688 58.109375 220.144531 62.679688 220.007812 C 95.46875 219.054688 124.082031 224.125 150.152344 235.503906 C 157.34375 238.632812 164.265625 242.265625 170.921875 246.410156 C 178.730469 251.320312 186.007812 256.921875 192.75 263.210938 C 199.617188 269.570312 206.003906 276.75 212.765625 284.351562 C 221.144531 293.769531 229.808594 303.511719 239.589844 311.722656 C 255.339844 324.960938 274.796875 335.105469 300.8125 343.648438 C 327.050781 352.292969 352.1875 356.125 375.53125 355.042969 C 391.4375 354.304688 404.65625 351.539062 415.949219 346.589844 C 429.84375 340.484375 441.015625 331.226562 448.253906 319.8125 C 458.992188 302.816406 461.585938 282.949219 463.320312 264.058594 C 463.746094 259.40625 464.136719 254.640625 464.511719 250.035156 C 466.664062 223.644531 468.890625 196.359375 479.625 172.214844 C 489.308594 150.429688 505.820312 132.023438 527.371094 118.992188 C 533.929688 115.03125 540.796875 111.703125 547.96875 109.011719 C 555.140625 106.320312 562.5 104.308594 570.042969 102.976562 C 607.910156 96.390625 647.722656 106.917969 679.28125 131.863281 L 678.816406 132.453125 C 647.425781 107.640625 607.828125 97.164062 570.171875 103.714844 C 562.675781 105.039062 555.359375 107.039062 548.230469 109.714844 C 541.105469 112.390625 534.28125 115.699219 527.761719 119.636719 C 506.34375 132.585938 489.933594 150.875 480.3125 172.519531 C 469.628906 196.546875 467.40625 223.769531 465.261719 250.09375 C 464.882812 254.707031 464.496094 259.472656 464.070312 264.128906 C 462.324219 283.109375 459.71875 303.074219 448.886719 320.214844 C 441.570312 331.753906 430.285156 341.113281 416.25 347.277344 C 404.875 352.265625 391.566406 355.050781 375.566406 355.792969 C 352.132812 356.878906 326.902344 353.035156 300.578125 344.363281 C 274.46875 335.789062 254.9375 325.601562 239.105469 312.296875 C 229.285156 304.054688 220.601562 294.292969 212.203125 284.851562 C 205.457031 277.265625 199.082031 270.097656 192.242188 263.765625 C 185.53125 257.507812 178.292969 251.933594 170.523438 247.046875 C 163.902344 242.921875 157.011719 239.304688 149.855469 236.195312 C 123.886719 224.859375 95.378906 219.8125 62.703125 220.757812 C 58.144531 220.898438 53.382812 221.179688 48.542969 221.597656 C 10.410156 224.863281 -34.9375 235.582031 -64.292969 248.273438 Z M -64.292969 248.273438 " fill-opacity="1" fill-rule="nonzero"/></g></g></g></g><g clip-path="url(#aee8ca8dda)"><g clip-path="url(#5e353e47fe)"><g clip-path="url(#5f14652ffa)"><g clip-path="url(#c98ac13bdc)"><path fill="#b3b3b3" d="M -65.386719 243.519531 L -65.757812 242.863281 C -37.925781 227.164062 7.414062 215.5 47.074219 213.84375 C 51.945312 213.640625 56.773438 213.597656 61.417969 213.71875 C 93.644531 214.59375 123.28125 222.527344 149.484375 237.3125 C 156.582031 241.308594 163.363281 245.78125 169.828125 250.734375 C 177.277344 256.496094 184.25 262.785156 190.75 269.601562 C 196.117188 275.179688 201.191406 281.132812 206.566406 287.4375 C 215.890625 298.371094 225.535156 309.679688 236.84375 318.917969 C 252.617188 331.816406 272.351562 341.433594 298.949219 349.203125 C 325.804688 357.066406 351.132812 360.039062 374.226562 358.039062 C 389.644531 356.703125 402.546875 353.472656 413.671875 348.160156 C 427.054688 341.757812 437.871094 332.453125 444.953125 321.253906 C 455.949219 303.808594 458.625 283.1875 460.273438 265.226562 C 460.769531 259.8125 461.195312 254.25 461.609375 248.875 C 463.59375 223.066406 465.644531 196.375 476.15625 172.78125 C 485.765625 151.210938 503.0625 132.4375 524.863281 119.917969 C 531.566406 116.070312 538.570312 112.882812 545.871094 110.355469 C 553.175781 107.832031 560.648438 106.011719 568.292969 104.894531 C 606.414062 99.449219 646.261719 111.382812 677.613281 137.632812 L 677.132812 138.207031 C 645.941406 112.09375 606.3125 100.222656 568.398438 105.640625 C 560.800781 106.746094 553.375 108.554688 546.117188 111.066406 C 538.863281 113.578125 531.902344 116.742188 525.242188 120.566406 C 503.578125 133.007812 486.390625 151.660156 476.84375 173.085938 C 466.386719 196.5625 464.339844 223.1875 462.359375 248.933594 C 461.949219 254.3125 461.519531 259.875 461.023438 265.296875 C 459.371094 283.339844 456.675781 304.066406 445.589844 321.65625 C 438.433594 332.976562 427.507812 342.375 413.996094 348.839844 C 402.789062 354.191406 389.804688 357.445312 374.292969 358.789062 C 351.105469 360.796875 325.6875 357.8125 298.742188 349.925781 C 272.042969 342.128906 252.226562 332.464844 236.371094 319.503906 C 225.011719 310.21875 215.34375 298.886719 206 287.925781 C 200.632812 281.628906 195.5625 275.683594 190.210938 270.121094 C 183.738281 263.332031 176.792969 257.070312 169.375 251.328125 C 162.9375 246.398438 156.183594 241.945312 149.117188 237.964844 C 123.011719 223.25 93.503906 215.34375 61.398438 214.46875 C 56.769531 214.347656 51.960938 214.390625 47.109375 214.59375 C 7.554688 216.246094 -37.652344 227.871094 -65.386719 243.519531 Z M -65.386719 243.519531 " fill-opacity="1" fill-rule="nonzero"/></g></g></g></g><g clip-path="url(#c994dcd752)"><g clip-path="url(#e9e4fdc8ea)"><g clip-path="url(#95e60bb63e)"><g clip-path="url(#73d5e6074d)"><path fill="#b3b3b3" d="M -66.484375 238.757812 L -66.914062 238.144531 C -39.605469 219.070312 4.585938 206.785156 45.671875 206.84375 C 50.582031 206.851562 55.453125 207.046875 60.15625 207.429688 C 92.507812 210.09375 122.332031 220.757812 148.8125 239.125 C 155.8125 243.988281 162.453125 249.300781 168.734375 255.058594 C 175.191406 260.992188 181.734375 267.839844 188.746094 275.992188 C 192.589844 280.460938 196.445312 285.238281 200.171875 289.859375 C 210.441406 302.589844 221.0625 315.75 234.105469 326.121094 C 249.914062 338.695312 269.929688 347.796875 297.09375 354.761719 C 324.605469 361.839844 350.121094 363.953125 372.929688 361.042969 C 387.617188 359.167969 400.558594 355.363281 411.394531 349.738281 C 424.257812 343.046875 434.722656 333.695312 441.65625 322.695312 C 452.375 305.648438 455.476562 285.5625 457.230469 266.398438 C 457.785156 260.308594 458.234375 254.050781 458.671875 248 C 460.488281 222.671875 462.367188 196.476562 472.695312 173.347656 C 482.371094 151.679688 500.011719 133.027344 522.367188 120.839844 C 529.214844 117.105469 536.351562 114.0625 543.78125 111.703125 C 551.214844 109.34375 558.800781 107.714844 566.542969 106.820312 C 604.933594 102.492188 644.808594 115.828125 675.949219 143.402344 L 675.449219 143.964844 C 644.46875 116.53125 604.804688 103.261719 566.628906 107.566406 C 558.933594 108.457031 551.394531 110.074219 544.007812 112.417969 C 536.625 114.761719 529.527344 117.789062 522.726562 121.496094 C 500.511719 133.609375 482.988281 152.132812 473.378906 173.65625 C 463.105469 196.664062 461.234375 222.789062 459.417969 248.054688 C 458.984375 254.109375 458.535156 260.371094 457.976562 266.46875 C 456.214844 285.726562 453.09375 305.914062 442.292969 323.097656 C 435.285156 334.210938 424.722656 343.652344 411.742188 350.402344 C 400.828125 356.074219 387.800781 359.902344 373.023438 361.785156 C 350.121094 364.707031 324.511719 362.589844 296.90625 355.488281 C 269.636719 348.496094 249.535156 339.351562 233.640625 326.707031 C 220.53125 316.285156 209.882812 303.09375 199.589844 290.332031 C 195.863281 285.714844 192.015625 280.941406 188.179688 276.484375 C 181.1875 268.351562 174.664062 261.523438 168.226562 255.609375 C 161.96875 249.875 155.355469 244.585938 148.386719 239.742188 C 122.015625 221.449219 92.3125 210.828125 60.09375 208.179688 C 55.414062 207.796875 50.5625 207.601562 45.671875 207.59375 C 4.730469 207.535156 -39.292969 219.769531 -66.484375 238.757812 Z M -66.484375 238.757812 " fill-opacity="1" fill-rule="nonzero"/></g></g></g></g><g clip-path="url(#98b37a1497)"><g clip-path="url(#9cfa34f217)"><g clip-path="url(#838069ec0c)"><g clip-path="url(#b900213e67)"><path fill="#b3b3b3" d="M -67.589844 234 L -68.070312 233.425781 C -41.445312 211.199219 2.648438 198.019531 44.265625 199.847656 C 49.210938 200.0625 54.132812 200.5 58.890625 201.144531 C 91.523438 205.585938 121.550781 218.976562 148.132812 240.9375 C 155.042969 246.65625 161.542969 252.804688 167.636719 259.382812 C 174.867188 267.203125 181.644531 275.785156 186.742188 282.386719 C 188.957031 285.273438 191.203125 288.265625 193.371094 291.15625 C 204.621094 306.140625 216.253906 321.636719 231.363281 333.320312 C 247.222656 345.59375 267.519531 354.171875 295.230469 360.320312 C 323.847656 366.683594 348.835938 367.902344 371.628906 364.042969 C 385.773438 361.648438 398.386719 357.367188 409.117188 351.3125 C 421.453125 344.347656 431.5625 334.953125 438.355469 324.140625 C 449.320312 306.660156 452.445312 286.621094 454.183594 267.570312 C 454.796875 260.886719 455.25 254.007812 455.691406 247.355469 C 457.347656 222.425781 459.054688 196.652344 469.230469 173.917969 C 478.972656 152.136719 496.957031 133.613281 519.863281 121.761719 C 526.855469 118.144531 534.132812 115.238281 541.691406 113.046875 C 549.253906 110.855469 556.953125 109.421875 564.792969 108.742188 C 584.34375 107.113281 604.113281 110.03125 623.554688 117.40625 C 642.003906 124.40625 659.542969 135.390625 674.28125 149.171875 L 673.765625 149.722656 C 643.007812 120.953125 603.308594 106.289062 564.855469 109.488281 C 557.0625 110.164062 549.410156 111.589844 541.898438 113.769531 C 534.386719 115.945312 527.15625 118.832031 520.210938 122.429688 C 497.449219 134.203125 479.589844 152.597656 469.914062 174.222656 C 459.796875 196.835938 458.09375 222.542969 456.445312 247.402344 C 456 254.058594 455.546875 260.941406 454.933594 267.636719 C 453.183594 286.78125 450.042969 306.925781 438.992188 324.539062 C 432.132812 335.457031 421.929688 344.941406 409.488281 351.964844 C 398.679688 358.0625 385.984375 362.375 371.753906 364.785156 C 348.863281 368.660156 323.78125 367.4375 295.070312 361.054688 C 267.246094 354.878906 246.855469 346.253906 230.90625 333.914062 C 215.71875 322.171875 204.054688 306.632812 192.773438 291.605469 C 190.601562 288.714844 188.359375 285.726562 186.148438 282.84375 C 181.0625 276.253906 174.296875 267.691406 167.085938 259.894531 C 161.015625 253.339844 154.539062 247.214844 147.65625 241.515625 C 121.179688 219.644531 91.28125 206.3125 58.789062 201.886719 C 54.054688 201.246094 49.15625 200.8125 44.234375 200.597656 C 2.792969 198.777344 -41.101562 211.886719 -67.589844 234 Z M -67.589844 234 " fill-opacity="1" fill-rule="nonzero"/></g></g></g></g><g clip-path="url(#c0222c6f32)"><g clip-path="url(#326b384ee4)"><g clip-path="url(#f10e78017b)"><g clip-path="url(#680967b554)"><path fill="#b3b3b3" d="M -68.699219 229.242188 L -69.222656 228.707031 C -42.75 202.933594 0.195312 189.195312 42.859375 192.847656 C 47.816406 193.269531 52.738281 193.941406 57.628906 194.859375 C 90.191406 201.011719 121.25 217.570312 147.449219 242.75 C 154.273438 249.316406 160.636719 256.300781 166.53125 263.710938 C 172.640625 271.363281 178.160156 279.253906 184.734375 288.777344 L 186.832031 291.832031 C 198.886719 309.382812 211.351562 327.53125 228.621094 340.519531 C 244.554688 352.507812 265.128906 360.566406 293.371094 365.878906 C 322.738281 371.414062 347.910156 371.796875 370.324219 367.046875 C 383.90625 364.167969 396.191406 359.40625 406.839844 352.890625 C 418.804688 345.5625 428.296875 336.378906 435.058594 325.585938 C 446.296875 307.621094 449.496094 286.769531 451.140625 268.738281 C 451.796875 261.523438 452.25 254.085938 452.6875 246.890625 C 454.179688 222.304688 455.722656 196.882812 465.761719 174.484375 C 475.578125 152.589844 493.90625 134.191406 517.359375 122.6875 C 524.5 119.183594 531.914062 116.417969 539.601562 114.394531 C 547.292969 112.371094 555.105469 111.128906 563.042969 110.664062 C 582.785156 109.589844 602.691406 113.160156 622.203125 121.277344 C 640.617188 128.9375 658.046875 140.582031 672.609375 154.945312 L 672.082031 155.480469 C 641.554688 125.363281 601.824219 109.304688 563.082031 111.417969 C 555.195312 111.875 547.433594 113.109375 539.789062 115.121094 C 532.148438 117.132812 524.785156 119.878906 517.691406 123.363281 C 494.390625 134.792969 476.191406 153.058594 466.445312 174.792969 C 456.460938 197.066406 454.921875 222.417969 453.433594 246.9375 C 453 254.136719 452.546875 261.578125 451.886719 268.808594 C 450.234375 286.925781 447.019531 307.886719 435.695312 325.984375 C 428.871094 336.875 419.296875 346.144531 407.230469 353.53125 C 396.507812 360.09375 384.144531 364.886719 370.480469 367.78125 C 347.96875 372.550781 322.699219 372.171875 293.230469 366.617188 C 264.871094 361.28125 244.195312 353.179688 228.167969 341.121094 C 210.800781 328.058594 198.300781 309.859375 186.214844 292.257812 L 184.117188 289.207031 C 177.546875 279.695312 172.039062 271.8125 165.945312 264.179688 C 160.070312 256.796875 153.730469 249.832031 146.933594 243.292969 C 120.835938 218.214844 89.90625 201.722656 57.488281 195.597656 C 52.625 194.683594 47.726562 194.015625 42.796875 193.597656 C 0.34375 189.960938 -42.378906 203.621094 -68.699219 229.242188 Z M -68.699219 229.242188 " fill-opacity="1" fill-rule="nonzero"/></g></g></g></g><g clip-path="url(#ce12c76ff0)"><g clip-path="url(#80c495702c)"><g clip-path="url(#1b56435461)"><g clip-path="url(#e89abf2b79)"><path fill="#b3b3b3" d="M -69.808594 224.484375 L -70.367188 223.984375 C -55.601562 207.523438 -35.5 195.558594 -12.238281 189.378906 C -6.648438 187.898438 -0.988281 186.765625 4.742188 185.988281 C 10.476562 185.207031 16.230469 184.785156 22.015625 184.714844 C 27.796875 184.648438 33.5625 184.9375 39.308594 185.582031 C 45.054688 186.226562 50.738281 187.226562 56.363281 188.574219 C 98.15625 198.628906 136.886719 226.847656 165.425781 268.035156 C 170.675781 275.609375 175.640625 283.667969 180.441406 291.460938 C 193.136719 312.0625 206.261719 333.371094 225.878906 347.71875 C 246.917969 363.109375 273.414062 368.628906 291.511719 371.4375 C 321.664062 376.125 347.019531 375.667969 369.023438 370.050781 C 396.148438 363.121094 419.015625 347.441406 431.761719 327.027344 C 446.539062 303.351562 448.121094 274.496094 449.65625 246.589844 C 450.988281 222.289062 452.363281 197.160156 462.296875 175.050781 C 478.574219 138.828125 518.355469 113.722656 561.292969 112.585938 C 581.234375 112.058594 601.273438 116.28125 620.851562 125.140625 C 639.238281 133.460938 656.554688 145.757812 670.945312 160.710938 L 670.402344 161.230469 C 640.5625 130.222656 599.78125 112.316406 561.3125 113.335938 C 518.65625 114.46875 479.140625 139.394531 462.980469 175.359375 C 453.105469 197.339844 451.730469 222.398438 450.402344 246.628906 C 448.867188 274.632812 447.277344 303.585938 432.398438 327.425781 C 419.550781 348 396.523438 363.800781 369.210938 370.777344 C 347.105469 376.421875 321.652344 376.878906 291.394531 372.179688 C 273.222656 369.355469 246.605469 363.8125 225.4375 348.324219 C 205.699219 333.886719 192.535156 312.519531 179.804688 291.855469 C 175.007812 284.070312 170.046875 276.019531 164.808594 268.460938 C 136.375 227.425781 97.800781 199.316406 56.1875 189.304688 C 9 177.953125 -40.453125 191.761719 -69.808594 224.484375 Z M -69.808594 224.484375 " fill-opacity="1" fill-rule="nonzero"/></g></g></g></g></g></g></g></svg>