<svg xmlns="http://www.w3.org/2000/svg" xmlns:xlink="http://www.w3.org/1999/xlink" width="900" zoomAndPan="magnify" viewBox="0 0 675 449.999984" height="600" preserveAspectRatio="xMidYMid meet" version="1.0"><defs><filter x="0%" y="0%" width="100%" height="100%" id="c898df6a1a"><feColorMatrix values="0 0 0 0 1 0 0 0 0 1 0 0 0 0 1 0 0 0 1 0" color-interpolation-filters="sRGB"/></filter><mask id="debe2190ed"><g filter="url(#c898df6a1a)"><rect x="-67.5" width="810" fill="#000000" y="-44.999998" height="539.99998" fill-opacity="0.1"/></g></mask><clipPath id="61ace18fef"><path d="M 0 0.882812 L 673 0.882812 L 673 370 L 0 370 Z M 0 0.882812 " clip-rule="nonzero"/></clipPath><clipPath id="08fd0b818e"><path d="M 0 4 L 673 4 L 673 367 L 0 367 Z M 0 4 " clip-rule="nonzero"/></clipPath><clipPath id="de7e434a63"><path d="M 0 8 L 674 8 L 674 364 L 0 364 Z M 0 8 " clip-rule="nonzero"/></clipPath><clipPath id="2806d6b012"><path d="M 0 12 L 674 12 L 674 361 L 0 361 Z M 0 12 " clip-rule="nonzero"/></clipPath><clipPath id="0a05d59dcd"><path d="M 0 16 L 675 16 L 675 358 L 0 358 Z M 0 16 " clip-rule="nonzero"/></clipPath><clipPath id="157609004a"><path d="M 0 20 L 675 20 L 675 355 L 0 355 Z M 0 20 " clip-rule="nonzero"/></clipPath><clipPath id="2be15c9c84"><path d="M 0 24 L 675 24 L 675 353 L 0 353 Z M 0 24 " clip-rule="nonzero"/></clipPath><clipPath id="f2359b3338"><path d="M 0 28 L 675 28 L 675 350 L 0 350 Z M 0 28 " clip-rule="nonzero"/></clipPath><clipPath id="a660fe491c"><path d="M 0 32 L 675 32 L 675 347 L 0 347 Z M 0 32 " clip-rule="nonzero"/></clipPath><clipPath id="afc8170889"><path d="M 0 36 L 675 36 L 675 345 L 0 345 Z M 0 36 " clip-rule="nonzero"/></clipPath><clipPath id="0d29c483ce"><path d="M 0 40 L 675 40 L 675 342 L 0 342 Z M 0 40 " clip-rule="nonzero"/></clipPath><clipPath id="5e3853d5f6"><path d="M 0 44 L 675 44 L 675 340 L 0 340 Z M 0 44 " clip-rule="nonzero"/></clipPath><clipPath id="422e501ad5"><path d="M 0 48 L 675 48 L 675 337 L 0 337 Z M 0 48 " clip-rule="nonzero"/></clipPath><clipPath id="8abe1c089f"><path d="M 0 52 L 675 52 L 675 335 L 0 335 Z M 0 52 " clip-rule="nonzero"/></clipPath><clipPath id="38e4bebc39"><path d="M 0 56 L 675 56 L 675 332 L 0 332 Z M 0 56 " clip-rule="nonzero"/></clipPath><clipPath id="ceb7920fc0"><path d="M 0 60 L 675 60 L 675 330 L 0 330 Z M 0 60 " clip-rule="nonzero"/></clipPath><clipPath id="6d7c5aaf45"><path d="M 0 63 L 675 63 L 675 333 L 0 333 Z M 0 63 " clip-rule="nonzero"/></clipPath><clipPath id="281afbe813"><path d="M 0 67 L 675 67 L 675 339 L 0 339 Z M 0 67 " clip-rule="nonzero"/></clipPath><clipPath id="359c32a894"><path d="M 0 70 L 675 70 L 675 344 L 0 344 Z M 0 70 " clip-rule="nonzero"/></clipPath><clipPath id="08f492e99a"><path d="M 0 73 L 675 73 L 675 349 L 0 349 Z M 0 73 " clip-rule="nonzero"/></clipPath><clipPath id="349d81b874"><path d="M 0 75 L 675 75 L 675 354 L 0 354 Z M 0 75 " clip-rule="nonzero"/></clipPath><clipPath id="947d01572a"><path d="M 0 77 L 675 77 L 675 360 L 0 360 Z M 0 77 " clip-rule="nonzero"/></clipPath><clipPath id="bb4d26ac1c"><path d="M 0 79 L 675 79 L 675 365 L 0 365 Z M 0 79 " clip-rule="nonzero"/></clipPath><clipPath id="a7066e8ca5"><rect x="0" width="675" y="0" height="376"/></clipPath></defs><g mask="url(#debe2190ed)"><g transform="matrix(1, 0, 0, 1, 0, 37)"><g clip-path="url(#a7066e8ca5)"><g clip-path="url(#61ace18fef)"><path fill="#b3b3b3" d="M 645.734375 369.613281 C 630.097656 369.601562 614.75 367.488281 599.695312 363.277344 C 575.878906 356.613281 553.671875 344.828125 535.472656 329.191406 C 525.019531 320.210938 515.375 309.691406 506.050781 299.523438 C 487.742188 279.554688 468.808594 258.902344 443.289062 249.648438 C 415.273438 239.492188 384.691406 244.890625 355.121094 250.113281 C 348.820312 251.222656 342.304688 252.375 335.960938 253.34375 C 334.234375 253.605469 332.496094 253.738281 330.75 253.738281 C 309.671875 253.738281 288.652344 234.980469 268.273438 216.792969 C 257.609375 207.277344 246.585938 197.4375 235.804688 190.5625 C 223.75 182.878906 213.230469 179.757812 203.644531 181.03125 C 191.332031 182.664062 180.152344 191.410156 169.476562 207.765625 C 164.3125 215.671875 158.585938 219.480469 152.453125 219.089844 C 143.742188 218.53125 134.035156 209.683594 122.785156 192.03125 C 113.007812 176.699219 103.398438 156.835938 94.914062 139.3125 C 89.503906 128.132812 84.394531 117.570312 79.824219 109.355469 C 77.121094 104.496094 74.40625 99.5 71.78125 94.664062 C 51.601562 57.511719 30.734375 19.089844 -7.683594 1.226562 L -7.53125 0.90625 C 30.992188 18.816406 51.886719 57.289062 72.09375 94.496094 C 74.71875 99.328125 77.433594 104.328125 80.132812 109.183594 C 84.707031 117.40625 89.820312 127.972656 95.234375 139.15625 C 112.125 174.0625 133.148438 217.5 152.472656 218.734375 C 158.46875 219.121094 164.089844 215.363281 169.175781 207.570312 C 179.917969 191.125 191.175781 182.328125 203.597656 180.679688 C 213.269531 179.394531 223.867188 182.53125 235.996094 190.261719 C 246.800781 197.152344 257.835938 207 268.507812 216.527344 C 290.503906 236.15625 313.246094 256.453125 335.90625 252.992188 C 342.25 252.023438 348.761719 250.871094 355.058594 249.761719 C 384.675781 244.53125 415.304688 239.125 443.410156 249.316406 C 469.011719 258.597656 487.972656 279.28125 506.3125 299.28125 C 515.628906 309.445312 525.265625 319.953125 535.703125 328.921875 C 572.863281 360.847656 623.894531 375.121094 672.210938 367.101562 L 672.269531 367.453125 C 663.484375 368.902344 654.640625 369.621094 645.734375 369.613281 Z M 645.734375 369.613281 " fill-opacity="1" fill-rule="nonzero"/></g><g clip-path="url(#08fd0b818e)"><path fill="#b3b3b3" d="M 640.175781 366.398438 C 635.757812 366.398438 631.359375 366.21875 626.976562 365.859375 C 611.492188 364.648438 596.558594 361.113281 582.171875 355.253906 C 570.695312 350.480469 559.945312 344.417969 549.914062 337.074219 C 544.464844 333.101562 539.25 328.84375 534.273438 324.296875 C 530.632812 320.976562 526.867188 317.320312 522.0625 312.449219 C 519.761719 310.117188 517.425781 307.71875 515.167969 305.402344 C 508.894531 298.96875 502.40625 292.3125 496.019531 286.339844 C 492.511719 283.054688 489.1875 280.066406 485.855469 277.203125 C 470.960938 264.363281 458.449219 256.605469 445.28125 252.050781 C 443.667969 251.492188 442.023438 250.980469 440.390625 250.523438 C 429.429688 247.449219 417.644531 246.546875 403.296875 247.679688 C 392.984375 248.511719 382.074219 250.363281 371.519531 252.152344 C 367.503906 252.832031 363.351562 253.539062 359.257812 254.179688 C 351.21875 255.449219 342.59375 256.558594 332.886719 257.582031 C 331.671875 257.707031 330.457031 257.773438 329.238281 257.769531 C 307.773438 257.769531 286.710938 238.339844 266.304688 219.511719 C 255.917969 209.929688 245.175781 200.015625 234.691406 193.042969 C 222.976562 185.253906 212.742188 181.972656 203.40625 183.011719 C 191.835938 184.304688 181.277344 192.085938 171.125 206.808594 C 166.363281 213.714844 161.078125 217.066406 155.429688 216.753906 C 140.804688 215.964844 125.539062 191.128906 113.878906 169.578125 C 108.882812 160.394531 104.003906 150.808594 99.28125 141.539062 C 92.960938 129.125 86.988281 117.394531 81.644531 108.441406 C 78.898438 103.839844 76.152344 99.113281 73.496094 94.539062 C 70.335938 89.105469 67.070312 83.484375 63.785156 78.035156 C 43.292969 43.992188 23.34375 18.574219 -7.402344 5.179688 L -7.261719 4.855469 C 7.75 11.394531 21.175781 21.339844 33.78125 35.265625 C 46.070312 48.84375 56 64.410156 64.089844 77.851562 C 67.378906 83.304688 70.644531 88.925781 73.800781 94.359375 C 76.457031 98.929688 79.207031 103.660156 81.949219 108.257812 C 87.296875 117.222656 93.273438 128.957031 99.597656 141.378906 C 104.320312 150.644531 109.199219 160.226562 114.191406 169.40625 C 125.8125 190.878906 141 215.621094 155.449219 216.402344 C 160.96875 216.695312 166.148438 213.40625 170.835938 206.609375 C 181.046875 191.796875 191.691406 183.964844 203.367188 182.660156 C 212.792969 181.613281 223.101562 184.910156 234.886719 192.75 C 245.394531 199.738281 256.148438 209.660156 266.546875 219.253906 C 288.050781 239.089844 310.285156 259.601562 332.847656 257.230469 C 342.550781 256.207031 351.167969 255.09375 359.199219 253.832031 C 363.296875 253.1875 367.445312 252.480469 371.460938 251.800781 C 382.019531 250.011719 392.941406 248.160156 403.269531 247.328125 C 417.660156 246.191406 429.488281 247.097656 440.488281 250.179688 C 442.125 250.640625 443.777344 251.15625 445.398438 251.714844 C 458.609375 256.285156 471.15625 264.0625 486.085938 276.933594 C 489.421875 279.800781 492.753906 282.792969 496.265625 286.078125 C 502.65625 292.058594 509.148438 298.714844 515.421875 305.152344 C 517.679688 307.46875 520.015625 309.867188 522.3125 312.199219 C 527.117188 317.066406 530.878906 320.714844 534.515625 324.03125 C 539.484375 328.570312 544.6875 332.820312 550.125 336.785156 C 560.132812 344.113281 570.859375 350.160156 582.3125 354.925781 C 596.660156 360.769531 611.558594 364.296875 627.007812 365.503906 C 642.347656 366.734375 657.566406 365.84375 672.664062 362.835938 L 672.730469 363.183594 C 661.984375 365.316406 651.132812 366.386719 640.175781 366.398438 Z M 640.175781 366.398438 " fill-opacity="1" fill-rule="nonzero"/></g><g clip-path="url(#de7e434a63)"><path fill="#b3b3b3" d="M 635.113281 363.332031 C 632.269531 363.332031 629.445312 363.257812 626.636719 363.101562 C 610.40625 362.203125 594.523438 358.566406 580.703125 352.582031 C 569.746094 347.839844 559.21875 341.421875 548.519531 332.964844 C 543.398438 328.921875 538.347656 324.484375 533.074219 319.398438 C 528.917969 315.386719 524.789062 311.148438 520.792969 307.054688 C 512.085938 298.121094 502.761719 288.828125 493.558594 281.363281 C 490.199219 278.632812 486.746094 275.984375 483.003906 273.269531 C 467.894531 262.222656 455.335938 255.804688 442.289062 252.464844 C 440.699219 252.0625 439.085938 251.703125 437.496094 251.394531 C 427.027344 249.359375 415.5 249.375 401.21875 251.445312 C 394.554688 252.429688 387.761719 253.765625 380.566406 255.179688 C 372.789062 256.707031 364.746094 258.285156 356.679688 259.433594 C 347.527344 260.734375 338.386719 261.324219 329.808594 261.820312 C 329.132812 261.859375 328.453125 261.878906 327.777344 261.878906 C 305.878906 261.878906 284.769531 241.722656 264.332031 222.210938 C 243.296875 202.128906 223.429688 183.15625 203.160156 184.949219 C 192.332031 185.902344 182.398438 192.742188 172.78125 205.855469 C 168.355469 211.890625 163.445312 214.78125 158.191406 214.449219 C 144.074219 213.554688 129.238281 190.105469 116.589844 167.289062 C 112.570312 160.035156 108.546875 152.503906 104.65625 145.21875 C 97.054688 130.992188 89.878906 117.554688 83.472656 107.53125 C 80.710938 103.210938 77.953125 98.777344 75.289062 94.488281 C 71.949219 89.121094 68.5 83.574219 65.019531 78.214844 C 44.050781 45.820312 23.761719 21.675781 -7.121094 9.132812 L -6.984375 8.804688 C 8 14.890625 21.492188 24.246094 34.269531 37.410156 C 46.949219 50.476562 57.523438 65.976562 65.316406 78.019531 C 68.796875 83.382812 72.25 88.933594 75.585938 94.300781 C 78.253906 98.589844 81.007812 103.019531 83.765625 107.335938 C 90.183594 117.375 97.363281 130.816406 104.964844 145.050781 C 108.855469 152.332031 112.878906 159.863281 116.898438 167.113281 C 125.042969 181.808594 131.660156 192.121094 137.726562 199.570312 C 145.363281 208.953125 152.066406 213.703125 158.210938 214.09375 C 163.335938 214.421875 168.140625 211.574219 172.488281 205.640625 C 182.167969 192.441406 192.191406 185.554688 203.125 184.589844 C 212.304688 183.78125 222.328125 187.253906 233.773438 195.199219 C 243.984375 202.292969 254.449219 212.285156 264.574219 221.949219 C 285.589844 242.015625 307.316406 262.765625 329.789062 261.464844 C 338.359375 260.96875 347.488281 260.378906 356.628906 259.078125 C 364.683594 257.933594 372.722656 256.355469 380.496094 254.828125 C 387.695312 253.414062 394.492188 252.078125 401.167969 251.09375 C 415.488281 249.019531 427.050781 249.003906 437.5625 251.046875 C 439.160156 251.351562 440.777344 251.714844 442.375 252.121094 C 455.46875 255.472656 468.0625 261.90625 483.214844 272.980469 C 486.960938 275.699219 490.414062 278.351562 493.78125 281.085938 C 502.996094 288.5625 512.332031 297.867188 521.046875 306.804688 C 525.039062 310.898438 529.167969 315.136719 533.320312 319.144531 C 538.585938 324.21875 543.628906 328.648438 548.738281 332.6875 C 559.414062 341.125 569.914062 347.523438 580.84375 352.257812 C 594.625 358.222656 610.46875 361.851562 626.65625 362.746094 C 641.6875 363.578125 657.320312 362.171875 673.109375 358.566406 L 673.1875 358.914062 C 660.660156 361.816406 647.96875 363.289062 635.113281 363.332031 Z M 635.113281 363.332031 " fill-opacity="1" fill-rule="nonzero"/></g><g clip-path="url(#2806d6b012)"><path fill="#b3b3b3" d="M 630.617188 360.40625 C 629.171875 360.40625 627.730469 360.382812 626.300781 360.339844 C 609.421875 359.835938 593.144531 356.230469 579.230469 349.910156 C 568.460938 345.019531 557.960938 338.132812 547.125 328.855469 C 542.304688 324.734375 537.316406 320.039062 531.875 314.503906 C 529.332031 311.910156 526.757812 309.214844 524.265625 306.605469 C 522.695312 304.957031 521.113281 303.308594 519.523438 301.652344 C 508.761719 290.496094 499.464844 282.230469 491.09375 276.382812 C 486.976562 273.496094 483.089844 271.097656 480.160156 269.332031 C 464.75 260.039062 452.148438 254.964844 439.292969 252.878906 C 437.742188 252.628906 436.164062 252.421875 434.601562 252.261719 C 424.476562 251.207031 413.539062 252.113281 399.144531 255.203125 C 394.859375 256.121094 390.503906 257.167969 385.890625 258.277344 C 375.621094 260.742188 365 263.289062 354.105469 264.679688 C 343.847656 265.988281 334.890625 266.4375 326.726562 266.054688 C 304.660156 265.023438 283.757812 244.519531 263.542969 224.6875 C 242.855469 204.394531 223.304688 185.21875 203.34375 186.511719 C 193.09375 187.175781 183.636719 193.1875 174.429688 204.898438 C 170.332031 210.109375 165.796875 212.5625 160.929688 212.195312 C 147.214844 211.15625 132.1875 187.753906 119.296875 164.996094 C 116.410156 159.898438 113.476562 154.636719 110.640625 149.546875 C 101.554688 133.242188 92.972656 117.839844 85.292969 106.617188 C 82.546875 102.601562 79.804688 98.484375 77.15625 94.503906 C 73.613281 89.183594 69.949219 83.679688 66.25 78.394531 C 47.722656 51.789062 26.046875 25.460938 -6.839844 13.085938 L -6.710938 12.753906 C 26.261719 25.160156 47.980469 51.535156 66.542969 78.191406 C 70.242188 83.476562 73.90625 88.984375 77.453125 94.308594 C 80.101562 98.289062 82.839844 102.402344 85.585938 106.414062 C 93.277344 117.652344 101.863281 133.0625 110.949219 149.375 C 113.785156 154.464844 116.71875 159.726562 119.605469 164.820312 C 132.449219 187.496094 147.410156 210.816406 160.957031 211.839844 C 165.695312 212.195312 170.132812 209.789062 174.152344 204.679688 C 183.421875 192.882812 192.964844 186.824219 203.320312 186.15625 C 223.453125 184.863281 243.046875 204.082031 263.792969 224.4375 C 283.957031 244.21875 304.8125 264.675781 326.742188 265.703125 C 334.886719 266.082031 343.820312 265.632812 354.058594 264.328125 C 364.933594 262.941406 375.546875 260.394531 385.804688 257.929688 C 390.421875 256.824219 394.78125 255.777344 399.070312 254.855469 C 413.503906 251.761719 424.472656 250.851562 434.636719 251.910156 C 436.207031 252.070312 437.792969 252.277344 439.351562 252.527344 C 452.25 254.621094 464.894531 259.710938 480.34375 269.03125 C 483.277344 270.800781 487.171875 273.199219 491.296875 276.09375 C 499.6875 281.953125 509 290.234375 519.777344 301.410156 C 521.371094 303.0625 522.953125 304.710938 524.523438 306.359375 C 527.011719 308.96875 529.589844 311.664062 532.128906 314.253906 C 537.5625 319.785156 542.542969 324.472656 547.355469 328.585938 C 558.164062 337.839844 568.640625 344.710938 579.378906 349.585938 C 593.25 355.886719 609.476562 359.484375 626.3125 359.984375 C 641.304688 360.433594 657.199219 358.523438 673.558594 354.300781 L 673.648438 354.644531 C 658.816406 358.472656 644.363281 360.40625 630.617188 360.40625 Z M 630.617188 360.40625 " fill-opacity="1" fill-rule="nonzero"/></g><g clip-path="url(#0a05d59dcd)"><path fill="#b3b3b3" d="M 626.78125 357.582031 C 626.507812 357.582031 626.234375 357.582031 625.960938 357.582031 C 608.472656 357.480469 591.804688 353.90625 577.761719 347.238281 C 566.972656 342.117188 556.792969 334.972656 545.726562 324.75 C 541.195312 320.566406 536.414062 315.757812 530.675781 309.605469 C 529.3125 308.140625 527.945312 306.664062 526.578125 305.175781 C 523.875 302.25 521.082031 299.222656 518.253906 296.257812 C 507.824219 285.335938 497.582031 276.742188 488.632812 271.410156 C 484.589844 268.988281 480.800781 267.089844 477.316406 265.398438 C 461.742188 257.859375 449.09375 254.125 436.300781 253.292969 C 434.789062 253.199219 433.242188 253.144531 431.707031 253.132812 C 419.699219 253.011719 407.960938 255.867188 397.066406 258.964844 C 394.664062 259.648438 392.242188 260.363281 389.683594 261.113281 C 378.046875 264.535156 364.855469 268.414062 351.527344 269.929688 C 342.214844 270.988281 333.230469 270.652344 324.539062 270.328125 L 323.65625 270.296875 C 301.222656 269.460938 280.421875 248.121094 260.304688 227.480469 C 240.507812 207.167969 221.792969 187.992188 202.632812 188.628906 C 193.273438 188.945312 184.589844 193.953125 176.078125 203.945312 C 172.308594 208.371094 168.132812 210.410156 163.660156 210 C 150.425781 208.800781 135.816406 186.5625 122 162.707031 C 120.601562 160.289062 119.195312 157.859375 117.789062 155.417969 C 107.300781 137.25 96.457031 118.460938 87.113281 105.703125 C 84.410156 102.011719 81.714844 98.234375 79.109375 94.578125 C 75.332031 89.28125 71.425781 83.800781 67.480469 78.578125 C 48.589844 53.390625 26.546875 28.5 -6.554688 17.039062 L -6.441406 16.703125 C 26.753906 28.195312 48.839844 53.128906 67.765625 78.363281 C 71.714844 83.589844 75.621094 89.070312 79.402344 94.371094 C 82.007812 98.023438 84.699219 101.804688 87.402344 105.492188 C 96.757812 118.265625 107.605469 137.0625 118.097656 155.238281 C 119.503906 157.675781 120.910156 160.105469 122.308594 162.527344 C 136.078125 186.300781 150.621094 208.464844 163.695312 209.648438 C 168.042969 210.042969 172.121094 208.046875 175.808594 203.714844 C 184.390625 193.640625 193.160156 188.589844 202.625 188.273438 C 221.964844 187.625 240.707031 206.863281 260.5625 227.234375 C 280.628906 247.820312 301.378906 269.109375 323.671875 269.9375 L 324.554688 269.972656 C 333.230469 270.296875 342.207031 270.632812 351.488281 269.578125 C 364.785156 268.066406 377.960938 264.191406 389.585938 260.773438 C 392.148438 260.019531 394.566406 259.308594 396.972656 258.625 C 407.890625 255.519531 419.671875 252.660156 431.710938 252.777344 C 433.25 252.789062 434.804688 252.84375 436.324219 252.9375 C 449.164062 253.773438 461.855469 257.515625 477.46875 265.078125 C 480.964844 266.773438 484.761719 268.675781 488.816406 271.101562 C 497.792969 276.453125 508.058594 285.066406 518.507812 296.011719 C 521.34375 298.980469 524.136719 302.007812 526.835938 304.9375 C 528.207031 306.421875 529.574219 307.898438 530.933594 309.367188 C 536.667969 315.507812 541.445312 320.3125 545.964844 324.488281 C 557.003906 334.6875 567.15625 341.8125 577.910156 346.917969 C 591.910156 353.5625 608.523438 357.125 625.960938 357.226562 C 641.128906 357.304688 656.84375 354.960938 674.003906 350.035156 L 674.101562 350.375 C 657.21875 355.222656 641.726562 357.582031 626.78125 357.582031 Z M 626.78125 357.582031 " fill-opacity="1" fill-rule="nonzero"/></g><g clip-path="url(#157609004a)"><path fill="#b3b3b3" d="M 623.40625 354.839844 C 606.160156 354.839844 589.914062 351.304688 576.289062 344.566406 C 565.585938 339.273438 555.433594 331.671875 544.332031 320.640625 C 539.0625 315.410156 534.078125 309.894531 529.476562 304.710938 L 528.058594 303.109375 C 524.492188 299.078125 520.808594 294.910156 516.980469 290.863281 C 506.585938 279.859375 495.644531 271.183594 486.171875 266.429688 C 482.367188 264.546875 478.46875 262.890625 474.472656 261.460938 C 458.984375 255.714844 445.902344 253.246094 433.3125 253.703125 C 431.824219 253.761719 430.3125 253.863281 428.816406 254 C 417.328125 255.027344 405.808594 258.871094 394.992188 262.726562 L 392.546875 263.597656 C 379.414062 268.292969 364.527344 273.613281 348.953125 275.179688 C 339.457031 276.132812 330.378906 275.363281 321.597656 274.617188 L 320.582031 274.53125 C 298.222656 272.640625 277.894531 250.980469 258.234375 230.03125 C 239.085938 209.628906 220.996094 190.355469 202.382812 190.355469 L 202.359375 190.355469 C 193.726562 190.363281 185.671875 194.496094 177.726562 202.992188 C 174.28125 206.675781 170.46875 208.316406 166.382812 207.875 C 153 206.414062 137.855469 182.613281 124.707031 160.414062 C 111.960938 138.890625 99.632812 118.441406 88.941406 104.789062 C 86.3125 101.4375 83.695312 98.011719 81.160156 94.695312 C 77.121094 89.40625 72.9375 83.9375 68.71875 78.757812 C 49.484375 54.984375 27.089844 31.535156 -6.273438 20.992188 L -6.167969 20.652344 C 8.765625 25.371094 22.464844 32.953125 35.722656 43.835938 C 46.4375 52.636719 56.699219 63.335938 68.992188 78.53125 C 73.21875 83.714844 77.398438 89.1875 81.445312 94.480469 C 83.976562 97.792969 86.59375 101.21875 89.21875 104.570312 C 99.925781 118.238281 112.261719 138.699219 125.015625 160.234375 C 138.117188 182.355469 153.203125 206.078125 166.421875 207.519531 C 170.386719 207.953125 174.101562 206.34375 177.46875 202.746094 C 185.484375 194.175781 193.625 190.007812 202.359375 190 L 202.382812 190 C 221.152344 190 239.289062 209.328125 258.492188 229.789062 C 278.105469 250.683594 298.386719 272.292969 320.613281 274.175781 L 321.628906 274.261719 C 330.390625 275.003906 339.457031 275.773438 348.917969 274.824219 C 364.449219 273.265625 379.3125 267.949219 392.425781 263.261719 L 394.875 262.386719 C 405.710938 258.527344 417.257812 254.671875 428.785156 253.644531 C 430.285156 253.503906 431.804688 253.40625 433.296875 253.34375 C 445.941406 252.890625 459.0625 255.363281 474.597656 261.125 C 478.605469 262.558594 482.515625 264.21875 486.332031 266.109375 C 495.839844 270.878906 506.816406 279.582031 517.242188 290.613281 C 521.070312 294.664062 524.757812 298.835938 528.324219 302.871094 L 529.742188 304.472656 C 534.339844 309.648438 539.320312 315.160156 544.582031 320.386719 C 555.65625 331.390625 565.78125 338.96875 576.449219 344.246094 C 590.601562 351.246094 607.605469 354.777344 625.617188 354.464844 C 640.753906 354.199219 656.730469 351.355469 674.457031 345.765625 L 674.566406 346.105469 C 656.804688 351.703125 640.796875 354.554688 625.625 354.820312 C 624.882812 354.832031 624.144531 354.839844 623.40625 354.839844 Z M 623.40625 354.839844 " fill-opacity="1" fill-rule="nonzero"/></g><g clip-path="url(#2be15c9c84)"><path fill="#b3b3b3" d="M 620.433594 352.15625 C 603.628906 352.15625 587.949219 348.640625 574.820312 341.894531 C 564.019531 336.34375 554.183594 328.523438 542.9375 316.53125 C 537.785156 311.046875 532.734375 305.078125 528.277344 299.8125 C 523.933594 294.664062 519.992188 290.03125 515.714844 285.460938 C 505.121094 274.152344 493.757812 265.621094 483.710938 261.445312 C 479.777344 259.851562 475.75 258.542969 471.632812 257.523438 C 456.039062 253.417969 442.917969 252.332031 430.320312 254.109375 C 428.921875 254.3125 427.484375 254.558594 425.925781 254.863281 C 414.964844 257.003906 404.257812 261.609375 392.917969 266.480469 C 378.332031 272.75 362.730469 278.988281 346.382812 280.425781 C 336.578125 281.289062 327.304688 280.058594 318.335938 278.875 L 317.507812 278.765625 C 295.191406 275.816406 275.316406 253.796875 256.097656 232.5 C 237.601562 212.003906 220.128906 192.648438 202.074219 191.988281 C 194.167969 191.699219 186.742188 194.984375 179.378906 202.035156 C 176.246094 205.03125 172.785156 206.304688 169.085938 205.816406 C 156.277344 204.125 141.476562 181.328125 127.417969 158.121094 C 116.714844 140.460938 102.878906 118.332031 90.765625 103.875 C 88.242188 100.863281 85.722656 97.792969 83.285156 94.820312 C 78.949219 89.539062 74.464844 84.078125 69.953125 78.933594 C 50.292969 56.542969 27.484375 34.503906 -5.992188 24.945312 L -5.894531 24.601562 C 9.007812 28.855469 22.773438 35.855469 36.183594 46 C 46.988281 54.167969 57.800781 64.558594 70.21875 78.699219 C 74.734375 83.847656 79.21875 89.3125 83.558594 94.597656 C 85.996094 97.566406 88.515625 100.636719 91.039062 103.644531 C 103.164062 118.121094 117.011719 140.265625 127.722656 157.9375 C 141.738281 181.070312 156.480469 203.792969 169.136719 205.464844 C 172.769531 205.945312 176.039062 204.738281 179.132812 201.777344 C 186.570312 194.660156 194.074219 191.339844 202.085938 191.632812 C 220.296875 192.296875 237.816406 211.710938 256.363281 232.265625 C 275.539062 253.511719 295.367188 275.480469 317.558594 278.410156 L 318.382812 278.519531 C 327.332031 279.707031 336.589844 280.929688 346.351562 280.074219 C 362.644531 278.636719 378.222656 272.414062 392.777344 266.15625 C 404.136719 261.273438 414.863281 256.664062 425.859375 254.515625 C 427.425781 254.210938 428.867188 253.964844 430.273438 253.757812 C 442.917969 251.976562 456.085938 253.058594 471.722656 257.179688 C 475.859375 258.203125 479.902344 259.515625 483.847656 261.121094 C 493.941406 265.3125 505.351562 273.871094 515.972656 285.21875 C 520.257812 289.792969 524.203125 294.429688 528.550781 299.585938 C 533.003906 304.847656 538.050781 310.808594 543.199219 316.289062 C 554.417969 328.246094 564.21875 336.046875 574.984375 341.578125 C 589.3125 348.941406 606.699219 352.441406 625.273438 351.703125 C 640.59375 351.097656 656.367188 347.855469 674.90625 341.5 L 675.023438 341.835938 C 656.449219 348.203125 640.644531 351.449219 625.285156 352.058594 C 623.660156 352.125 622.042969 352.15625 620.433594 352.15625 Z M 620.433594 352.15625 " fill-opacity="1" fill-rule="nonzero"/></g><g clip-path="url(#f2359b3338)"><path fill="#b3b3b3" d="M 617.820312 349.519531 C 605.058594 349.519531 588.71875 347.40625 573.347656 339.222656 C 559.527344 331.863281 549.09375 321.035156 541.542969 312.425781 C 537.292969 307.582031 533.113281 302.398438 529.070312 297.386719 L 527.082031 294.921875 C 522.566406 289.3125 518.6875 284.640625 514.441406 280.070312 C 503.777344 268.574219 491.679688 259.972656 481.25 256.46875 C 476.722656 254.929688 472.441406 254.175781 468.789062 253.585938 C 453.039062 251.050781 439.867188 251.347656 427.332031 254.519531 C 426.035156 254.847656 424.628906 255.246094 423.03125 255.730469 C 413.894531 258.519531 405.152344 262.964844 395.03125 268.117188 C 393.65625 268.816406 392.257812 269.523438 390.835938 270.242188 C 377.175781 277.148438 360.902344 284.382812 343.804688 285.679688 C 333.621094 286.449219 324.089844 284.738281 314.871094 283.082031 L 314.433594 283.003906 C 292.117188 278.996094 272.675781 256.566406 253.878906 234.871094 C 229.398438 206.625 206.273438 179.941406 181.019531 201.085938 C 178.195312 203.453125 175.078125 204.378906 171.753906 203.847656 C 159.578125 201.890625 145.695312 180.945312 130.121094 155.835938 C 115.445312 132.167969 102.816406 114.378906 92.585938 102.964844 C 90.246094 100.351562 87.902344 97.691406 85.636719 95.117188 C 80.9375 89.785156 76.078125 84.265625 71.183594 79.121094 C 52.183594 59.132812 28.1875 37.53125 -5.710938 28.898438 L -5.621094 28.554688 C 28.363281 37.210938 52.40625 58.847656 71.441406 78.875 C 76.339844 84.027344 81.203125 89.546875 85.902344 94.882812 C 88.167969 97.457031 90.511719 100.117188 92.851562 102.726562 C 103.09375 114.15625 115.738281 131.960938 130.425781 155.644531 C 145.949219 180.683594 159.78125 201.5625 171.8125 203.496094 C 175.074219 204.019531 178.011719 203.140625 180.792969 200.8125 C 206.316406 179.441406 229.550781 206.253906 254.148438 234.636719 C 272.90625 256.285156 292.304688 278.667969 314.496094 282.652344 L 314.933594 282.730469 C 324.132812 284.382812 333.640625 286.085938 343.777344 285.320312 C 360.816406 284.027344 377.046875 276.8125 390.679688 269.925781 C 392.101562 269.207031 393.496094 268.496094 394.871094 267.796875 C 405.007812 262.640625 413.761719 258.1875 422.929688 255.390625 C 424.53125 254.898438 425.941406 254.503906 427.242188 254.175781 C 439.828125 250.992188 453.046875 250.691406 468.84375 253.234375 C 472.515625 253.824219 476.808594 254.582031 481.363281 256.128906 C 491.847656 259.652344 504 268.289062 514.703125 279.824219 C 518.957031 284.40625 522.835938 289.082031 527.359375 294.695312 L 529.347656 297.160156 C 533.574219 302.402344 537.566406 307.355469 541.8125 312.191406 C 549.339844 320.777344 559.75 331.574219 573.515625 338.90625 C 587.828125 346.527344 606.082031 350.09375 624.925781 348.945312 C 640.230469 348.011719 656.257812 344.292969 675.359375 337.230469 L 675.480469 337.566406 C 656.347656 344.636719 640.289062 348.367188 624.949219 349.300781 C 622.734375 349.433594 620.347656 349.519531 617.820312 349.519531 Z M 617.820312 349.519531 " fill-opacity="1" fill-rule="nonzero"/></g><g clip-path="url(#a660fe491c)"><path fill="#b3b3b3" d="M 615.59375 346.90625 C 599.441406 346.90625 584.179688 343.324219 571.878906 336.550781 C 558.050781 328.933594 547.660156 317.460938 540.148438 308.316406 C 536.574219 303.96875 533.039062 299.355469 529.625 294.894531 C 528.382812 293.277344 527.136719 291.652344 525.882812 290.023438 C 522.285156 285.351562 517.960938 279.871094 513.171875 274.667969 C 502.257812 262.804688 489.726562 254.355469 478.789062 251.484375 C 474.09375 250.234375 469.699219 249.878906 465.945312 249.640625 C 450.304688 248.65625 436.695312 250.382812 424.339844 254.921875 C 423.078125 255.386719 421.742188 255.917969 420.140625 256.589844 C 412.527344 259.792969 405.019531 264.296875 397.070312 269.0625 C 394.398438 270.664062 391.640625 272.320312 388.757812 274 C 377.28125 280.691406 359.863281 289.722656 341.230469 290.925781 C 330.605469 291.605469 320.378906 289.285156 311.355469 287.234375 C 288.992188 282.15625 269.957031 259.25 251.546875 237.097656 C 239.773438 222.925781 228.648438 209.539062 217.328125 201.675781 C 204.636719 192.867188 193.621094 192.375 182.664062 200.136719 C 181.476562 201.015625 180.160156 201.617188 178.714844 201.933594 C 177.269531 202.253906 175.824219 202.261719 174.375 201.964844 C 162.035156 199.535156 147.847656 177.195312 132.828125 153.542969 C 123.035156 138.117188 108.417969 116.660156 94.414062 102.050781 C 92.316406 99.863281 90.214844 97.640625 88.179688 95.488281 C 83.054688 90.070312 77.753906 84.472656 72.417969 79.300781 C 53.164062 60.632812 28.855469 40.519531 -5.429688 32.851562 L -5.351562 32.503906 C 9.554688 35.839844 23.457031 41.65625 37.148438 50.292969 C 48.574219 57.496094 59.859375 66.632812 72.664062 79.046875 C 78.003906 84.222656 83.308594 89.824219 88.433594 95.246094 C 90.46875 97.394531 92.574219 99.621094 94.667969 101.804688 C 108.695312 116.4375 123.324219 137.914062 133.128906 153.355469 C 148.105469 176.9375 162.253906 199.214844 174.445312 201.617188 C 175.84375 201.914062 177.246094 201.90625 178.644531 201.597656 C 180.042969 201.289062 181.3125 200.707031 182.460938 199.84375 C 193.554688 191.988281 204.699219 192.476562 217.527344 201.382812 C 228.890625 209.273438 240.03125 222.679688 251.820312 236.871094 C 270.191406 258.976562 289.1875 281.839844 311.4375 286.890625 C 320.433594 288.933594 330.636719 291.253906 341.207031 290.570312 C 359.765625 289.375 377.132812 280.367188 388.582031 273.695312 C 391.457031 272.015625 394.21875 270.363281 396.886719 268.761719 C 404.847656 263.988281 412.363281 259.480469 420.003906 256.265625 C 421.609375 255.589844 422.949219 255.058594 424.214844 254.59375 C 436.621094 250.039062 450.277344 248.300781 465.96875 249.292969 C 469.738281 249.527344 474.152344 249.886719 478.878906 251.144531 C 489.878906 254.035156 502.476562 262.523438 513.433594 274.433594 C 518.230469 279.644531 522.558594 285.128906 526.164062 289.808594 C 527.421875 291.4375 528.667969 293.0625 529.90625 294.683594 C 533.320312 299.140625 536.851562 303.75 540.425781 308.09375 C 547.914062 317.214844 558.273438 328.65625 572.050781 336.242188 C 586.558594 344.230469 605.214844 347.765625 624.578125 346.1875 C 640.085938 344.925781 655.886719 340.851562 675.808594 332.96875 L 675.9375 333.296875 C 655.984375 341.195312 640.152344 345.277344 624.605469 346.542969 C 621.582031 346.785156 618.570312 346.90625 615.59375 346.90625 Z M 615.59375 346.90625 " fill-opacity="1" fill-rule="nonzero"/></g><g clip-path="url(#afc8170889)"><path fill="#b3b3b3" d="M 613.347656 344.335938 C 597.414062 344.335938 582.464844 340.730469 570.40625 333.878906 C 556.625 326.042969 546.671875 314.484375 538.753906 304.210938 C 535.691406 300.242188 532.65625 296.0625 529.722656 292.023438 C 528.078125 289.765625 526.382812 287.425781 524.683594 285.128906 C 521.375 280.640625 516.933594 274.785156 511.902344 269.273438 C 500.886719 257.203125 487.585938 248.691406 476.324219 246.503906 C 471.453125 245.539062 466.945312 245.585938 463.101562 245.703125 C 447.328125 246.183594 433.667969 249.332031 421.34375 255.328125 C 420.121094 255.925781 418.820312 256.601562 417.246094 257.453125 C 410.859375 260.917969 404.652344 265.28125 398.082031 269.90625 C 394.460938 272.453125 390.714844 275.089844 386.679688 277.761719 C 369.167969 289.363281 353.460938 295.386719 338.65625 296.175781 C 327.546875 296.773438 316.867188 293.832031 308.28125 291.476562 C 285.792969 285.292969 267.125 261.828125 249.066406 239.132812 C 238.003906 225.226562 227.554688 212.089844 216.921875 203.933594 C 205.019531 194.800781 194.652344 193.289062 184.300781 199.183594 C 178.402344 202.542969 171.550781 199.554688 162.734375 189.777344 C 154.933594 181.125 146.59375 168.28125 137.761719 154.683594 L 135.53125 151.253906 C 122.003906 130.449219 108.046875 112.652344 96.234375 101.132812 C 94.460938 99.40625 92.699219 97.679688 90.949219 95.949219 C 85.066406 90.160156 79.507812 84.695312 73.652344 79.476562 C 55.308594 63.140625 29.777344 43.523438 -5.144531 36.800781 L -5.078125 36.449219 C 9.84375 39.324219 23.8125 44.550781 37.632812 52.433594 C 49.390625 59.144531 60.910156 67.652344 73.890625 79.214844 C 79.75 84.433594 85.3125 89.90625 91.199219 95.699219 C 92.953125 97.421875 94.714844 99.148438 96.484375 100.878906 C 108.3125 112.414062 122.289062 130.234375 135.835938 151.058594 L 138.066406 154.488281 C 155.28125 181 171.542969 206.042969 184.128906 198.875 C 194.621094 192.898438 205.109375 194.414062 217.144531 203.648438 C 227.808594 211.832031 238.269531 224.984375 249.347656 238.90625 C 267.367188 261.558594 286 284.980469 308.378906 291.128906 C 316.9375 293.480469 327.589844 296.410156 338.636719 295.820312 C 353.378906 295.03125 369.03125 289.027344 386.484375 277.460938 C 390.515625 274.792969 394.257812 272.15625 397.878906 269.609375 C 404.460938 264.984375 410.675781 260.613281 417.078125 257.140625 C 418.65625 256.28125 419.964844 255.605469 421.191406 255.007812 C 433.5625 248.988281 447.269531 245.828125 463.09375 245.34375 C 466.957031 245.226562 471.488281 245.183594 476.394531 246.152344 C 487.730469 248.355469 501.101562 256.90625 512.167969 269.03125 C 517.207031 274.554688 521.65625 280.421875 524.972656 284.917969 C 526.671875 287.214844 528.371094 289.554688 530.011719 291.8125 C 532.945312 295.851562 535.976562 300.027344 539.039062 303.992188 C 546.9375 314.238281 556.859375 325.765625 570.585938 333.566406 C 585.300781 341.933594 604.351562 345.433594 624.234375 343.425781 C 644.109375 341.417969 662.476562 334.5 676.257812 328.699219 L 676.398438 329.027344 C 662.59375 334.839844 644.191406 341.769531 624.269531 343.777344 C 620.640625 344.148438 617 344.332031 613.347656 344.335938 Z M 613.347656 344.335938 " fill-opacity="1" fill-rule="nonzero"/></g><g clip-path="url(#0d29c483ce)"><path fill="#b3b3b3" d="M 611.257812 341.785156 C 595.5 341.785156 580.800781 338.152344 568.9375 331.203125 C 555.101562 323.101562 545.210938 310.933594 537.363281 300.101562 C 534.707031 296.441406 532.070312 292.609375 529.519531 288.90625 C 527.558594 286.058594 525.53125 283.117188 523.488281 280.230469 C 518.664062 273.40625 514.699219 268.363281 510.632812 263.875 C 499.347656 251.410156 485.601562 243.054688 473.863281 241.519531 C 468.800781 240.839844 464.1875 241.285156 460.261719 241.753906 C 444.324219 243.667969 430.613281 248.238281 418.351562 255.730469 C 417.171875 256.449219 415.902344 257.269531 414.351562 258.308594 C 408.941406 261.9375 403.742188 266.199219 398.242188 270.707031 C 393.953125 274.21875 389.523438 277.851562 384.601562 281.515625 C 367.738281 294.066406 351.414062 300.765625 336.082031 301.421875 C 325.351562 301.878906 315.355469 298.980469 305.210938 295.703125 C 282.507812 288.378906 264.148438 264.234375 246.390625 240.886719 C 236.058594 227.300781 226.296875 214.46875 216.386719 206.058594 C 205.296875 196.652344 195.621094 194.164062 185.941406 198.230469 C 174.101562 203.207031 159.769531 181.511719 143.171875 156.398438 C 141.546875 153.9375 139.902344 151.449219 138.246094 148.960938 C 124.953125 129.027344 110.683594 111.714844 98.058594 100.21875 C 96.707031 98.992188 95.363281 97.761719 94.023438 96.535156 C 87.511719 90.574219 81.363281 84.945312 74.886719 79.660156 C 47.375 57.199219 22.777344 45.199219 -4.863281 40.753906 L -4.808594 40.402344 C 22.898438 44.859375 47.546875 56.882812 75.113281 79.386719 C 81.59375 84.675781 87.746094 90.308594 94.265625 96.269531 C 95.605469 97.496094 96.949219 98.726562 98.300781 99.957031 C 110.941406 111.472656 125.234375 128.804688 138.539062 148.761719 C 140.199219 151.253906 141.84375 153.742188 143.46875 156.203125 C 159.980469 181.1875 174.234375 202.761719 185.800781 197.902344 C 195.621094 193.777344 205.414062 196.285156 216.617188 205.789062 C 226.558594 214.222656 236.328125 227.070312 246.671875 240.671875 C 264.394531 263.976562 282.722656 288.074219 305.316406 295.367188 C 315.433594 298.632812 325.394531 301.523438 336.066406 301.070312 C 351.328125 300.414062 367.585938 293.738281 384.390625 281.230469 C 389.304688 277.574219 393.734375 273.945312 398.015625 270.433594 C 403.527344 265.917969 408.730469 261.65625 414.152344 258.019531 C 415.710938 256.972656 416.984375 256.152344 418.167969 255.429688 C 430.472656 247.910156 444.230469 243.324219 460.21875 241.402344 C 464.171875 240.929688 468.808594 240.480469 473.910156 241.167969 C 485.730469 242.710938 499.558594 251.113281 510.898438 263.640625 C 514.972656 268.136719 518.945312 273.191406 523.777344 280.027344 C 525.828125 282.917969 527.851562 285.859375 529.8125 288.703125 C 532.363281 292.40625 535 296.238281 537.652344 299.894531 C 545.480469 310.699219 555.339844 322.832031 569.121094 330.898438 C 584.046875 339.644531 603.5 343.109375 623.890625 340.667969 C 643.65625 338.296875 661.683594 331.128906 676.710938 324.433594 L 676.855469 324.757812 C 661.804688 331.464844 643.746094 338.644531 623.929688 341.019531 C 619.722656 341.527344 615.496094 341.78125 611.257812 341.785156 Z M 611.257812 341.785156 " fill-opacity="1" fill-rule="nonzero"/></g><g clip-path="url(#5e3853d5f6)"><path fill="#b3b3b3" d="M 609.289062 339.253906 C 593.671875 339.253906 579.175781 335.585938 567.46875 328.53125 C 553.558594 320.15625 543.738281 307.382812 535.96875 295.996094 C 533.640625 292.585938 531.324219 289.035156 529.082031 285.597656 C 526.886719 282.230469 524.613281 278.746094 522.289062 275.335938 C 517.542969 268.339844 513.554688 263.140625 509.367188 258.476562 C 497.976562 245.804688 483.429688 237.394531 471.402344 236.535156 C 466.140625 236.140625 461.425781 236.984375 457.417969 237.808594 C 441.347656 241.113281 427.589844 247.105469 415.359375 256.132812 C 414.167969 257.019531 412.890625 258.015625 411.457031 259.167969 C 406.8125 262.917969 402.390625 267.105469 397.710938 271.542969 C 392.988281 276.019531 388.109375 280.648438 382.523438 285.273438 C 371.179688 294.671875 353.464844 306.015625 333.507812 306.671875 C 322.296875 307.035156 311.863281 303.546875 302.136719 299.9375 C 279.101562 291.398438 260.160156 265.289062 243.453125 242.253906 C 233.875 229.050781 224.824219 216.578125 215.667969 207.980469 C 205.429688 198.367188 196.5 194.964844 187.570312 197.28125 C 176.707031 200.089844 163.710938 180.644531 148.664062 158.125 C 146.164062 154.382812 143.578125 150.511719 140.949219 146.667969 C 127.84375 127.496094 113.257812 110.675781 99.886719 99.304688 L 97.464844 97.246094 C 90.203125 91.0625 83.339844 85.222656 76.121094 79.839844 C 48.386719 59.164062 23.5 48.328125 -4.582031 44.703125 L -4.535156 44.351562 C 10.46875 46.28125 24.847656 50.40625 38.597656 56.726562 C 50.886719 62.320312 63.230469 69.785156 76.335938 79.554688 C 83.5625 84.945312 90.425781 90.789062 97.691406 96.976562 L 100.113281 99.035156 C 113.511719 110.425781 128.117188 127.273438 141.242188 146.46875 C 143.871094 150.3125 146.457031 154.183594 148.960938 157.929688 C 163.929688 180.335938 176.859375 199.6875 187.480469 196.9375 C 196.539062 194.589844 205.574219 198.019531 215.910156 207.722656 C 225.09375 216.34375 234.152344 228.828125 243.738281 242.046875 C 260.417969 265.042969 279.324219 291.105469 302.257812 299.609375 C 311.949219 303.203125 322.34375 306.683594 333.496094 306.320312 C 353.351562 305.667969 370.992188 294.367188 382.292969 285 C 387.867188 280.386719 392.746094 275.761719 397.460938 271.292969 C 402.144531 266.847656 406.574219 262.652344 411.230469 258.898438 C 412.664062 257.738281 413.945312 256.742188 415.144531 255.851562 C 427.417969 246.792969 441.21875 240.78125 457.34375 237.464844 C 461.375 236.636719 466.121094 235.789062 471.425781 236.183594 C 483.539062 237.050781 498.179688 245.503906 509.628906 258.246094 C 513.828125 262.917969 517.824219 268.128906 522.582031 275.140625 C 524.90625 278.550781 527.179688 282.035156 529.378906 285.40625 C 531.621094 288.839844 533.9375 292.390625 536.261719 295.796875 C 544.011719 307.152344 553.800781 319.886719 567.652344 328.230469 C 582.796875 337.351562 602.648438 340.789062 623.542969 337.90625 C 643.328125 335.179688 661.75 327.40625 677.160156 320.164062 L 677.308594 320.488281 C 661.875 327.742188 643.425781 335.523438 623.589844 338.257812 C 618.84375 338.917969 614.078125 339.25 609.289062 339.253906 Z M 609.289062 339.253906 " fill-opacity="1" fill-rule="nonzero"/></g><g clip-path="url(#422e501ad5)"><path fill="#b3b3b3" d="M 607.429688 336.742188 C 591.917969 336.742188 577.585938 333.027344 566 325.859375 C 552 317.203125 542.257812 303.828125 534.578125 291.886719 C 532.515625 288.691406 530.464844 285.371094 528.476562 282.160156 C 526.097656 278.308594 523.632812 274.324219 521.089844 270.441406 C 516.46875 263.355469 512.335938 257.839844 508.09375 253.085938 C 496.425781 240.003906 481.421875 231.753906 468.9375 231.550781 C 463.476562 231.449219 458.660156 232.691406 454.570312 233.867188 C 438.480469 238.492188 424.28125 246.117188 412.359375 256.535156 C 411.125 257.621094 409.882812 258.765625 408.554688 260.03125 C 404.464844 263.902344 400.613281 268.101562 396.53125 272.546875 C 391.582031 277.941406 386.464844 283.519531 380.441406 289.03125 C 371.335938 297.363281 352.796875 311.417969 330.933594 311.921875 C 319.214844 312.1875 308.335938 308.066406 299.058594 304.175781 C 275.628906 294.351562 256.101562 265.917969 238.875 240.832031 C 220.640625 214.28125 204.894531 191.355469 189.234375 196.320312 C 179.945312 199.265625 168.5625 181.925781 155.382812 161.847656 C 151.605469 156.097656 147.707031 150.152344 143.65625 144.378906 C 130.6875 125.890625 115.792969 109.558594 101.710938 98.394531 L 101.410156 98.15625 C 93.226562 91.667969 85.496094 85.539062 77.359375 80.019531 C 49.828125 61.355469 23.878906 51.390625 -4.296875 48.65625 L -4.261719 48.300781 C 23.976562 51.042969 49.976562 61.027344 77.558594 79.726562 C 85.707031 85.25 93.441406 91.382812 101.632812 97.878906 L 101.929688 98.113281 C 116.039062 109.300781 130.960938 125.660156 143.949219 144.175781 C 148 149.953125 151.90625 155.902344 155.679688 161.652344 C 168.78125 181.609375 180.09375 198.847656 189.125 195.980469 C 205.039062 190.933594 220.855469 213.964844 239.167969 240.628906 C 256.367188 265.671875 275.863281 294.0625 299.199219 303.847656 C 308.4375 307.722656 319.269531 311.835938 330.925781 311.566406 C 352.671875 311.0625 371.132812 297.066406 380.203125 288.769531 C 386.214844 283.265625 391.328125 277.695312 396.273438 272.304688 C 400.355469 267.855469 404.210938 263.652344 408.3125 259.769531 C 409.640625 258.503906 410.890625 257.355469 412.125 256.265625 C 424.085938 245.816406 438.335938 238.164062 454.472656 233.523438 C 458.585938 232.339844 463.4375 231.089844 468.945312 231.195312 C 481.527344 231.398438 496.628906 239.695312 508.363281 252.84375 C 512.617188 257.613281 516.757812 263.140625 521.390625 270.246094 C 523.933594 274.132812 526.398438 278.117188 528.78125 281.96875 C 530.765625 285.179688 532.820312 288.496094 534.878906 291.695312 C 542.539062 303.601562 552.25 316.9375 566.1875 325.554688 C 581.558594 335.0625 601.804688 338.46875 623.199219 335.144531 C 642.964844 332.074219 661.03125 324.078125 677.613281 315.894531 L 677.769531 316.214844 C 661.164062 324.410156 643.066406 332.417969 623.253906 335.496094 C 618.007812 336.320312 612.734375 336.734375 607.429688 336.742188 Z M 607.429688 336.742188 " fill-opacity="1" fill-rule="nonzero"/></g><g clip-path="url(#8abe1c089f)"><path fill="#b3b3b3" d="M 605.851562 334.203125 C 601.457031 334.210938 597.082031 333.898438 592.730469 333.273438 C 582.128906 331.726562 572.640625 328.332031 564.527344 323.1875 C 550.429688 314.242188 540.773438 300.269531 533.183594 287.78125 C 531.351562 284.761719 529.515625 281.636719 527.746094 278.617188 C 525.222656 274.3125 522.617188 269.867188 519.894531 265.546875 C 515.324219 258.261719 511.171875 252.589844 506.828125 247.6875 C 495.199219 234.5625 480.246094 226.546875 467.527344 226.546875 C 467.175781 226.546875 466.824219 226.550781 466.472656 226.5625 C 461.375 226.730469 456.890625 228.027344 451.726562 229.917969 C 435.367188 235.90625 421.109375 244.996094 409.359375 256.9375 C 408.164062 258.160156 406.953125 259.453125 405.65625 260.886719 C 402.03125 264.871094 398.644531 269.085938 395.054688 273.550781 C 389.976562 279.867188 384.722656 286.402344 378.359375 292.789062 C 369.425781 301.757812 351.046875 316.855469 328.359375 317.171875 C 316.699219 317.320312 305.910156 313.054688 295.988281 308.410156 C 272.035156 297.195312 252.769531 267.398438 235.769531 241.109375 C 219.25 215.554688 204.980469 193.492188 190.859375 195.363281 C 181.972656 196.550781 172.011719 181.082031 160.476562 163.175781 C 155.996094 156.21875 151.359375 149.023438 146.367188 142.085938 C 133.5 124.21875 118.289062 108.375 103.535156 97.476562 C 95.210938 91.328125 87.042969 85.382812 78.59375 80.199219 C 50.9375 63.230469 24.6875 54.464844 -4.015625 52.609375 L -3.992188 52.253906 C 24.773438 54.113281 51.074219 62.898438 78.78125 79.894531 C 87.238281 85.085938 95.417969 91.039062 103.746094 97.191406 C 118.527344 108.113281 133.765625 123.984375 146.652344 141.878906 C 151.652344 148.824219 156.289062 156.023438 160.777344 162.984375 C 172.246094 180.789062 182.148438 196.15625 190.8125 195.011719 C 205.15625 193.105469 219.480469 215.261719 236.070312 240.914062 C 253.042969 267.164062 272.28125 296.917969 296.136719 308.085938 C 306.023438 312.714844 316.761719 316.984375 328.355469 316.8125 C 350.917969 316.5 369.210938 301.46875 378.109375 292.539062 C 384.457031 286.164062 389.703125 279.636719 394.777344 273.324219 C 398.371094 268.859375 401.761719 264.640625 405.390625 260.648438 C 406.691406 259.210938 407.90625 257.914062 409.109375 256.6875 C 420.894531 244.710938 435.191406 235.589844 451.601562 229.582031 C 456.800781 227.679688 461.316406 226.378906 466.460938 226.210938 C 473.113281 225.980469 480.554688 227.992188 487.992188 232.054688 C 495.246094 236.085938 501.609375 241.21875 507.09375 247.449219 C 511.449219 252.367188 515.613281 258.058594 520.195312 265.359375 C 522.917969 269.683594 525.527344 274.132812 528.050781 278.4375 C 529.824219 281.460938 531.65625 284.582031 533.488281 287.597656 C 541.054688 300.050781 550.679688 313.984375 564.71875 322.890625 C 580.089844 332.640625 601.277344 336.105469 622.851562 332.386719 C 642.65625 328.980469 661.089844 320.398438 678.0625 311.632812 L 678.222656 311.949219 C 661.226562 320.726562 642.765625 329.320312 622.910156 332.738281 C 617.265625 333.710938 611.582031 334.199219 605.851562 334.203125 Z M 605.851562 334.203125 " fill-opacity="1" fill-rule="nonzero"/></g><g clip-path="url(#38e4bebc39)"><path fill="#b3b3b3" d="M 604.304688 331.707031 C 588.816406 331.707031 574.371094 327.867188 563.058594 320.515625 C 548.882812 311.304688 539.652344 297.367188 531.792969 283.671875 C 530.144531 280.808594 528.5 277.851562 526.910156 274.988281 C 524.28125 270.265625 521.566406 265.382812 518.695312 260.648438 C 514.175781 253.167969 510 247.335938 505.554688 242.289062 C 493.503906 228.597656 477.199219 220.472656 464.007812 221.578125 C 458.414062 222.035156 453.429688 223.957031 448.875 225.96875 C 432.214844 233.324219 417.910156 243.878906 406.359375 257.335938 C 405.191406 258.707031 404.011719 260.148438 402.753906 261.742188 C 399.496094 265.847656 396.472656 270.117188 393.273438 274.632812 C 388.15625 281.855469 382.867188 289.324219 376.277344 296.542969 C 369.214844 304.28125 350.152344 322.292969 325.785156 322.414062 L 325.566406 322.414062 C 313.449219 322.414062 302.265625 317.476562 292.914062 312.640625 C 268.007812 299.757812 249.503906 269.460938 233.179688 242.730469 C 218.753906 219.105469 206.296875 198.703125 192.4375 194.398438 C 184.078125 191.800781 175 178.082031 164.484375 162.195312 C 159.640625 154.878906 154.628906 147.308594 149.074219 139.796875 C 136.277344 122.496094 120.753906 107.144531 105.359375 96.5625 C 97.332031 91.042969 88.683594 85.265625 79.828125 80.378906 C 52.472656 65.277344 25.140625 57.484375 -3.734375 56.558594 L -3.722656 56.203125 C 11.167969 56.640625 25.753906 58.957031 40.042969 63.160156 C 53.4375 67.085938 66.507812 72.617188 80 80.066406 C 88.863281 84.960938 97.523438 90.746094 105.558594 96.269531 C 120.984375 106.871094 136.539062 122.257812 149.355469 139.585938 C 154.917969 147.105469 159.929688 154.675781 164.777344 162 C 175.253906 177.828125 184.304688 191.5 192.539062 194.058594 C 206.527344 198.40625 219.019531 218.859375 233.480469 242.542969 C 249.78125 269.234375 268.257812 299.488281 293.074219 312.324219 C 302.386719 317.144531 313.527344 322.0625 325.5625 322.0625 L 325.78125 322.0625 C 350.007812 321.941406 368.980469 304.011719 376.011719 296.308594 C 382.585938 289.105469 387.871094 281.644531 392.980469 274.433594 C 396.183594 269.910156 399.210938 265.640625 402.46875 261.527344 C 403.730469 259.925781 404.914062 258.480469 406.085938 257.109375 C 417.671875 243.609375 432.019531 233.023438 448.730469 225.644531 C 453.3125 223.621094 458.328125 221.6875 463.976562 221.226562 C 477.273438 220.101562 493.699219 228.28125 505.820312 242.054688 C 510.277344 247.117188 514.464844 252.96875 518.996094 260.46875 C 521.871094 265.203125 524.585938 270.089844 527.21875 274.816406 C 528.808594 277.675781 530.453125 280.632812 532.097656 283.496094 C 539.9375 297.148438 549.136719 311.046875 563.25 320.21875 C 578.847656 330.355469 600.441406 333.78125 622.503906 329.625 C 643.351562 325.699219 662.34375 316.074219 678.511719 307.363281 L 678.679688 307.679688 C 662.488281 316.402344 643.46875 326.039062 622.570312 329.976562 C 616.535156 331.121094 610.449219 331.699219 604.304688 331.707031 Z M 604.304688 331.707031 " fill-opacity="1" fill-rule="nonzero"/></g><g clip-path="url(#ceb7920fc0)"><path fill="#b3b3b3" d="M 602.675781 329.226562 C 587.214844 329.226562 572.847656 325.328125 561.589844 317.84375 C 547.292969 308.339844 538.148438 293.828125 530.398438 279.566406 C 528.917969 276.835938 527.433594 274.023438 525.996094 271.304688 C 523.289062 266.175781 520.492188 260.871094 517.5 255.753906 C 513.023438 248.070312 508.824219 242.078125 504.289062 236.890625 C 491.953125 222.789062 475.175781 214.820312 461.546875 216.59375 C 455.753906 217.332031 450.664062 219.640625 446.027344 222.023438 C 437.65625 226.285156 429.871094 231.429688 422.667969 237.460938 C 415.464844 243.488281 409.027344 250.25 403.359375 257.738281 C 402.222656 259.246094 401.074219 260.839844 399.851562 262.605469 C 396.890625 266.851562 394.160156 271.203125 391.265625 275.816406 C 386.183594 283.914062 380.929688 292.289062 374.195312 300.304688 C 367.6875 308.046875 359.996094 314.625 351.945312 319.328125 C 342.480469 324.863281 332.871094 327.667969 323.382812 327.667969 L 323.210938 327.667969 C 310.496094 327.621094 299.207031 322.1875 289.839844 316.875 C 264.066406 302.261719 245.832031 270.058594 229.746094 241.644531 C 217.078125 219.269531 206.140625 199.945312 194.058594 193.425781 C 186.582031 189.386719 178.679688 177.285156 169.527344 163.269531 C 164.285156 155.238281 158.339844 146.136719 151.78125 137.507812 C 139.03125 120.734375 123.195312 105.871094 107.183594 95.648438 C 100.109375 91.132812 90.75 85.335938 81.066406 80.558594 C 53.722656 67.070312 26.125 60.511719 -3.289062 60.511719 L -3.449219 60.511719 L -3.449219 60.152344 L -3.289062 60.152344 C 26.183594 60.152344 53.828125 66.722656 81.222656 80.238281 C 90.925781 85.023438 100.296875 90.828125 107.375 95.347656 C 123.421875 105.59375 139.292969 120.488281 152.0625 137.292969 C 158.632812 145.933594 164.578125 155.039062 169.824219 163.074219 C 178.949219 177.046875 186.828125 189.117188 194.226562 193.113281 C 206.398438 199.683594 217.359375 219.046875 230.054688 241.46875 C 246.117188 269.839844 264.324219 302 290.015625 316.566406 C 299.339844 321.855469 310.578125 327.265625 323.210938 327.3125 L 323.386719 327.3125 C 348.332031 327.3125 367.03125 308.273438 373.921875 300.074219 C 380.640625 292.078125 385.890625 283.714844 390.964844 275.625 C 393.859375 271.011719 396.59375 266.65625 399.558594 262.402344 C 400.785156 260.632812 401.933594 259.039062 403.074219 257.527344 C 408.761719 250.015625 415.214844 243.234375 422.4375 237.1875 C 429.664062 231.140625 437.472656 225.980469 445.863281 221.707031 C 450.527344 219.308594 455.652344 216.988281 461.5 216.238281 C 475.242188 214.457031 492.144531 222.46875 504.554688 236.660156 C 509.105469 241.863281 513.316406 247.875 517.808594 255.578125 C 520.800781 260.699219 523.601562 266.007812 526.3125 271.136719 C 527.746094 273.859375 529.230469 276.667969 530.710938 279.394531 C 538.4375 293.621094 547.550781 308.085938 561.785156 317.546875 C 577.613281 328.070312 599.617188 331.46875 622.160156 326.867188 C 643.070312 322.601562 662.445312 312.359375 678.964844 303.097656 L 679.140625 303.40625 C 662.597656 312.683594 643.195312 322.9375 622.234375 327.214844 C 615.78125 328.542969 609.261719 329.214844 602.675781 329.226562 Z M 602.675781 329.226562 " fill-opacity="1" fill-rule="nonzero"/></g><g clip-path="url(#6d7c5aaf45)"><path fill="#b3b3b3" d="M 321.160156 332.917969 C 320.984375 332.917969 320.8125 332.917969 320.636719 332.914062 C 307.320312 332.757812 295.542969 326.523438 286.769531 321.109375 C 260.0625 304.628906 242.292969 270.382812 226.617188 240.164062 C 215.660156 219.050781 206.203125 200.816406 195.6875 192.449219 C 189.242188 187.316406 182.542969 176.851562 174.785156 164.734375 C 168.886719 155.523438 162.207031 145.089844 154.488281 135.214844 C 141.765625 118.941406 125.613281 104.5625 109.011719 94.734375 C 98.789062 88.679688 90.300781 84.234375 82.304688 80.738281 C 54.910156 68.761719 26.949219 63.4375 -3.164062 64.460938 L -3.175781 64.105469 C 26.996094 63.078125 55 68.414062 82.445312 80.410156 C 90.457031 83.914062 98.957031 88.367188 109.191406 94.425781 C 125.832031 104.277344 142.015625 118.6875 154.769531 134.996094 C 162.496094 144.882812 169.183594 155.328125 175.082031 164.542969 C 182.824219 176.632812 189.507812 187.074219 195.910156 192.167969 C 206.484375 200.585938 215.960938 218.851562 226.933594 240 C 242.585938 270.175781 260.328125 304.378906 286.953125 320.804688 C 295.6875 326.195312 307.410156 332.402344 320.640625 332.558594 C 320.8125 332.558594 320.988281 332.5625 321.160156 332.5625 C 338.925781 332.5625 357.828125 321.859375 371.832031 303.839844 C 378.632812 295.089844 383.785156 285.847656 388.777344 276.90625 C 391.417969 272.167969 393.917969 267.691406 396.644531 263.277344 C 397.835938 261.339844 398.953125 259.59375 400.058594 257.945312 C 405.597656 249.703125 411.992188 242.191406 419.242188 235.40625 C 426.492188 228.625 434.410156 222.742188 443 217.765625 C 447.742188 214.996094 452.96875 212.289062 459.019531 211.253906 C 466.285156 209.996094 474.460938 211.414062 482.667969 215.347656 C 490.167969 218.941406 497.492188 224.59375 503.285156 231.261719 C 507.929688 236.597656 512.164062 242.769531 516.613281 250.683594 C 519.707031 256.175781 522.566406 261.878906 525.332031 267.394531 C 526.632812 269.996094 527.980469 272.683594 529.324219 275.292969 C 536.933594 290.085938 545.957031 305.117188 560.320312 314.875 C 576.378906 325.785156 598.792969 329.148438 621.816406 324.105469 C 642.800781 319.507812 661.777344 309.09375 679.417969 298.824219 L 679.59375 299.132812 C 661.933594 309.417969 642.929688 319.84375 621.894531 324.449219 C 598.773438 329.515625 576.257812 326.132812 560.121094 315.167969 C 545.691406 305.367188 536.640625 290.289062 529.007812 275.457031 C 527.664062 272.84375 526.316406 270.15625 525.011719 267.554688 C 522.253906 262.042969 519.394531 256.339844 516.304688 250.859375 C 511.863281 242.964844 507.644531 236.8125 503.019531 231.492188 C 490.402344 216.976562 473.15625 209.167969 459.082031 211.601562 C 453.085938 212.628906 447.894531 215.320312 443.175781 218.074219 C 434.613281 223.039062 426.714844 228.902344 419.484375 235.667969 C 412.257812 242.433594 405.878906 249.921875 400.355469 258.140625 C 399.25 259.789062 398.136719 261.53125 396.945312 263.464844 C 394.222656 267.871094 391.730469 272.34375 389.085938 277.078125 C 384.09375 286.03125 378.929688 295.289062 372.113281 304.058594 C 358.042969 322.164062 339.035156 332.917969 321.160156 332.917969 Z M 321.160156 332.917969 " fill-opacity="1" fill-rule="nonzero"/></g><g clip-path="url(#281afbe813)"><path fill="#b3b3b3" d="M 318.976562 338.171875 C 318.671875 338.171875 318.367188 338.171875 318.0625 338.164062 C 304.058594 337.886719 291.738281 330.714844 283.695312 325.34375 C 256.023438 306.871094 238.945312 270.515625 223.878906 238.445312 C 214.539062 218.554688 206.46875 201.382812 197.320312 191.46875 C 192.109375 185.820312 186.742188 177.167969 180.53125 167.15625 C 173.894531 156.457031 166.375 144.332031 157.195312 132.925781 C 144.289062 116.886719 128.257812 103.363281 110.835938 93.816406 C 100.859375 88.351562 91.933594 84.132812 83.539062 80.914062 C 56.175781 70.425781 27.90625 66.335938 -2.882812 68.410156 L -2.90625 68.054688 C 27.933594 65.976562 56.253906 70.074219 83.667969 80.582031 C 92.074219 83.804688 101.015625 88.03125 111.007812 93.507812 C 128.46875 103.074219 144.535156 116.628906 157.472656 132.703125 C 166.664062 144.125 174.191406 156.261719 180.832031 166.96875 C 187.035156 176.96875 192.390625 185.601562 197.582031 191.226562 C 206.769531 201.179688 214.847656 218.378906 224.203125 238.292969 C 239.246094 270.324219 256.304688 306.628906 283.890625 325.046875 C 291.902344 330.394531 304.15625 337.535156 318.070312 337.808594 C 336.574219 338.1875 355.890625 326.886719 369.738281 307.613281 C 376.585938 298.148438 381.605469 288.046875 386.460938 278.277344 C 388.789062 273.59375 391.195312 268.75 393.730469 264.15625 C 394.878906 262.054688 395.964844 260.160156 397.046875 258.363281 C 402.4375 249.394531 408.769531 241.152344 416.046875 233.632812 C 423.320312 226.113281 431.347656 219.511719 440.132812 213.828125 C 444.957031 210.6875 450.289062 207.597656 456.539062 206.269531 C 464.007812 204.675781 472.429688 205.890625 480.894531 209.78125 C 488.621094 213.332031 496.125 219.042969 502.015625 225.867188 C 506.746094 231.339844 511.003906 237.671875 515.417969 245.796875 C 518.597656 251.636719 521.496094 257.726562 524.296875 263.613281 C 525.484375 266.109375 526.710938 268.6875 527.933594 271.195312 C 535.425781 286.554688 544.351562 302.148438 558.851562 312.207031 C 575.144531 323.507812 597.96875 326.839844 621.46875 321.347656 C 642.535156 316.425781 661.871094 305.414062 679.867188 294.5625 L 680.050781 294.867188 C 662.027344 305.734375 642.667969 316.757812 621.550781 321.691406 C 597.949219 327.210938 575.023438 323.859375 558.648438 312.5 C 544.082031 302.394531 535.125 286.753906 527.613281 271.351562 C 526.390625 268.84375 525.164062 266.261719 523.976562 263.769531 C 521.175781 257.882812 518.28125 251.796875 515.105469 245.964844 C 510.703125 237.863281 506.460938 231.550781 501.746094 226.097656 C 491.175781 213.863281 473.117188 203.09375 456.613281 206.617188 C 450.417969 207.933594 445.125 211.003906 440.324219 214.125 C 431.5625 219.792969 423.554688 226.378906 416.300781 233.878906 C 409.042969 241.378906 402.726562 249.601562 397.347656 258.546875 C 396.269531 260.339844 395.1875 262.230469 394.039062 264.324219 C 391.507812 268.914062 389.105469 273.753906 386.777344 278.4375 C 381.917969 288.21875 376.890625 298.332031 370.027344 307.820312 C 363.796875 316.488281 356.085938 323.871094 347.722656 329.175781 C 338.308594 335.148438 328.640625 338.171875 318.976562 338.171875 Z M 318.976562 338.171875 " fill-opacity="1" fill-rule="nonzero"/></g><g clip-path="url(#359c32a894)"><path fill="#b3b3b3" d="M 316.734375 343.429688 C 316.316406 343.429688 315.902344 343.425781 315.488281 343.414062 C 304.566406 343.113281 293.160156 338.585938 280.621094 329.574219 C 251.988281 309 235.828125 270.53125 221.574219 236.597656 C 214.027344 218.636719 206.902344 201.671875 198.960938 190.492188 C 195.210938 185.210938 191.222656 178.421875 187 171.234375 C 179.515625 158.5 171.035156 144.0625 159.902344 130.632812 C 153.394531 122.800781 146.164062 115.710938 138.207031 109.355469 C 130.25 103 121.734375 97.515625 112.660156 92.902344 C 102.660156 87.847656 93.539062 83.984375 84.777344 81.09375 C 57.597656 72.019531 29.015625 69.164062 -2.597656 72.359375 L -2.632812 72.007812 C 29.03125 68.804688 57.664062 71.664062 84.890625 80.753906 C 93.667969 83.648438 102.804688 87.519531 112.820312 92.582031 C 121.917969 97.210938 130.453125 102.707031 138.429688 109.078125 C 146.40625 115.445312 153.652344 122.554688 160.175781 130.40625 C 171.328125 143.859375 179.816406 158.304688 187.308594 171.054688 C 191.527344 178.234375 195.511719 185.015625 199.253906 190.285156 C 207.214844 201.496094 214.347656 218.480469 221.902344 236.457031 C 236.140625 270.347656 252.277344 308.765625 280.832031 329.285156 C 293.308594 338.253906 304.648438 342.757812 315.496094 343.058594 C 337.917969 343.679688 357.132812 327.097656 367.648438 311.378906 C 374.488281 301.222656 379.347656 290.292969 384.046875 279.726562 C 386.210938 274.863281 388.445312 269.832031 390.816406 265.03125 C 391.929688 262.765625 392.984375 260.722656 394.035156 258.78125 C 399.300781 249.101562 405.582031 240.136719 412.882812 231.886719 C 420.179688 223.632812 428.308594 216.300781 437.265625 209.890625 C 441.914062 206.554688 447.546875 202.921875 454.0625 201.289062 C 471.210938 196.964844 489.867188 207.804688 500.75 220.472656 C 505.566406 226.078125 509.847656 232.570312 514.222656 240.90625 C 517.472656 247.085938 520.398438 253.550781 523.226562 259.804688 C 524.308594 262.203125 525.429688 264.679688 526.546875 267.09375 C 533.910156 283.015625 542.742188 299.175781 557.386719 309.539062 C 573.910156 321.230469 597.144531 324.53125 621.125 318.585938 C 642.300781 313.339844 661.207031 302.210938 680.320312 290.292969 L 680.507812 290.597656 C 661.371094 302.527344 642.433594 313.675781 621.210938 318.933594 C 610.082031 321.691406 598.582031 322.46875 587.957031 321.1875 C 576.179688 319.765625 565.820312 315.941406 557.179688 309.828125 C 542.46875 299.417969 533.609375 283.210938 526.222656 267.246094 C 525.105469 264.828125 523.984375 262.351562 522.902344 259.953125 C 520.074219 253.703125 517.15625 247.242188 513.910156 241.070312 C 509.542969 232.757812 505.277344 226.289062 500.476562 220.703125 C 489.671875 208.121094 471.152344 197.34375 454.148438 201.632812 C 447.691406 203.253906 442.097656 206.863281 437.472656 210.179688 C 428.535156 216.574219 420.425781 223.886719 413.148438 232.121094 C 405.867188 240.351562 399.601562 249.296875 394.34375 258.949219 C 393.296875 260.886719 392.246094 262.925781 391.132812 265.1875 C 388.765625 269.984375 386.53125 275.007812 384.371094 279.871094 C 379.664062 290.453125 374.796875 301.394531 367.945312 311.578125 C 361.832031 320.714844 354.109375 328.5 345.609375 334.097656 C 336.199219 340.292969 326.488281 343.429688 316.734375 343.429688 Z M 316.734375 343.429688 " fill-opacity="1" fill-rule="nonzero"/></g><g clip-path="url(#08f492e99a)"><path fill="#b3b3b3" d="M 314.457031 348.6875 C 313.941406 348.6875 313.429688 348.679688 312.914062 348.660156 C 301.582031 348.265625 290.015625 343.410156 277.550781 333.808594 C 248.003906 311.050781 232.984375 270.527344 219.730469 234.777344 C 213.429688 217.773438 207.476562 201.71875 200.605469 189.515625 C 198.597656 185.945312 196.523438 182.070312 194.328125 177.972656 C 186.355469 163.066406 176.429688 144.515625 162.609375 128.347656 C 149.652344 113.183594 133.011719 100.613281 114.484375 91.988281 C 105.28125 87.652344 95.792969 84.078125 86.011719 81.273438 C 58.875 73.570312 29.984375 71.949219 -2.316406 76.316406 L -2.363281 75.960938 C 29.984375 71.589844 58.925781 73.214844 86.109375 80.929688 C 95.90625 83.742188 105.417969 87.320312 114.636719 91.667969 C 133.210938 100.3125 149.894531 112.917969 162.882812 128.117188 C 176.722656 144.316406 186.660156 162.886719 194.644531 177.808594 C 196.835938 181.90625 198.910156 185.777344 200.917969 189.34375 C 207.800781 201.570312 213.757812 217.640625 220.066406 234.65625 C 233.300781 270.359375 248.300781 310.832031 277.769531 333.527344 C 290.171875 343.082031 301.671875 347.914062 312.925781 348.304688 C 335.949219 349.125 355.210938 331.703125 365.558594 315.148438 C 372.359375 304.316406 377.039062 292.585938 381.5625 281.238281 C 383.582031 276.171875 385.671875 270.933594 387.902344 265.90625 C 388.980469 263.472656 390 261.277344 391.019531 259.199219 C 396.148438 248.796875 402.371094 239.105469 409.695312 230.113281 C 417.019531 221.125 425.253906 213.070312 434.402344 205.953125 C 439.136719 202.261719 444.878906 198.230469 451.582031 196.304688 C 469.238281 191.210938 488.363281 202.0625 499.480469 215.074219 C 504.382812 220.8125 508.6875 227.464844 513.027344 236.015625 C 516.339844 242.523438 519.273438 249.351562 522.113281 255.957031 C 523.105469 258.273438 524.132812 260.664062 525.160156 262.996094 C 532.394531 279.480469 541.128906 296.203125 555.921875 306.867188 C 572.4375 318.777344 596.683594 322.125 620.785156 315.828125 C 642.085938 310.261719 660.554688 299.039062 680.773438 286.027344 L 680.964844 286.328125 C 660.71875 299.355469 642.226562 310.59375 620.875 316.171875 C 609.550781 319.132812 597.839844 320.03125 587.007812 318.769531 C 574.988281 317.375 564.460938 313.464844 555.710938 307.160156 C 540.851562 296.445312 532.089844 279.671875 524.835938 263.140625 C 523.808594 260.808594 522.78125 258.414062 521.789062 256.101562 C 518.949219 249.5 516.019531 242.675781 512.714844 236.179688 C 508.382812 227.65625 504.09375 221.023438 499.210938 215.308594 C 488.167969 202.382812 469.1875 191.597656 451.679688 196.648438 C 445.039062 198.558594 439.328125 202.566406 434.621094 206.234375 C 425.496094 213.339844 417.28125 221.375 409.972656 230.34375 C 402.667969 239.308594 396.457031 248.980469 391.34375 259.359375 C 390.324219 261.433594 389.304688 263.625 388.230469 266.050781 C 386.003906 271.074219 383.914062 276.308594 381.898438 281.371094 C 377.367188 292.734375 372.679688 304.480469 365.863281 315.339844 C 355.691406 331.605469 336.945312 348.6875 314.457031 348.6875 Z M 314.457031 348.6875 " fill-opacity="1" fill-rule="nonzero"/></g><g clip-path="url(#349d81b874)"><path fill="#b3b3b3" d="M 312.105469 353.949219 C 311.515625 353.949219 310.925781 353.933594 310.339844 353.910156 C 298.757812 353.425781 286.691406 348.085938 274.480469 338.042969 C 244.144531 313.097656 230.464844 270.65625 218.390625 233.214844 C 213.148438 216.949219 208.195312 201.589844 202.253906 188.542969 C 193.609375 169.5625 182.851562 145.9375 165.316406 126.054688 C 152.3125 111.304688 135.367188 99.207031 116.3125 91.074219 C 106.902344 87.023438 97.214844 83.816406 87.25 81.449219 C 60.160156 75.058594 30.953125 74.671875 -2.03125 80.265625 L -2.09375 79.914062 C 30.941406 74.3125 60.191406 74.703125 87.332031 81.105469 C 97.316406 83.472656 107.023438 86.6875 116.449219 90.746094 C 135.554688 98.902344 152.542969 111.03125 165.582031 125.820312 C 183.152344 145.742188 193.921875 169.394531 202.574219 188.394531 C 208.527344 201.460938 213.484375 216.832031 218.730469 233.105469 C 230.785156 270.503906 244.449219 312.890625 274.703125 337.769531 C 286.855469 347.761719 298.851562 353.074219 310.351562 353.554688 C 333.984375 354.554688 353.289062 336.3125 363.46875 318.917969 C 370.207031 307.4375 374.6875 294.917969 379.023438 282.8125 C 380.917969 277.523438 382.875 272.054688 384.988281 266.78125 C 386.023438 264.183594 387.011719 261.839844 388.007812 259.617188 C 392.992188 248.492188 399.160156 238.070312 406.507812 228.347656 C 413.855469 218.621094 422.199219 209.84375 431.535156 202.011719 C 436.351562 197.972656 442.207031 193.542969 449.101562 191.320312 C 457.175781 188.710938 466.332031 189.320312 475.570312 193.078125 C 483.976562 196.5 492.015625 202.394531 498.207031 209.679688 C 503.191406 215.546875 507.523438 222.359375 511.832031 231.125 C 515.191406 237.953125 518.128906 245.140625 520.96875 252.09375 C 521.882812 254.328125 522.824219 256.640625 523.765625 258.894531 C 530.871094 275.941406 539.503906 293.226562 554.445312 304.199219 C 571.199219 316.496094 595.863281 319.816406 620.433594 313.066406 C 641.839844 307.191406 660.625 295.414062 681.21875 281.761719 L 681.414062 282.058594 C 660.796875 295.726562 641.984375 307.519531 620.527344 313.410156 C 609.015625 316.570312 597.089844 317.589844 586.046875 316.351562 C 573.796875 314.980469 563.09375 310.988281 554.234375 304.484375 C 539.222656 293.460938 530.558594 276.125 523.433594 259.03125 C 522.492188 256.777344 521.550781 254.464844 520.636719 252.226562 C 517.796875 245.28125 514.863281 238.097656 511.507812 231.28125 C 507.214844 222.542969 502.898438 215.753906 497.933594 209.910156 C 486.652344 196.636719 467.210938 185.847656 449.203125 191.660156 C 442.371094 193.863281 436.550781 198.269531 431.757812 202.289062 C 422.441406 210.101562 414.121094 218.859375 406.789062 228.5625 C 399.457031 238.265625 393.304688 248.664062 388.328125 259.761719 C 387.335938 261.984375 386.347656 264.324219 385.3125 266.914062 C 383.203125 272.183594 381.246094 277.648438 379.355469 282.933594 C 375.011719 295.054688 370.523438 307.589844 363.769531 319.097656 C 357.960938 329.019531 350.007812 337.839844 341.371094 343.933594 C 332.0625 350.503906 321.980469 353.949219 312.105469 353.949219 Z M 312.105469 353.949219 " fill-opacity="1" fill-rule="nonzero"/></g><g clip-path="url(#947d01572a)"><path fill="#b3b3b3" d="M 309.800781 359.207031 C 309.121094 359.207031 308.441406 359.191406 307.765625 359.160156 C 295.777344 358.574219 283.542969 352.894531 271.40625 342.277344 C 240.488281 315.21875 228.835938 273.019531 217.570312 232.207031 C 213.203125 216.371094 209.074219 201.417969 203.902344 187.570312 C 196.714844 168.308594 186.136719 143.648438 168.027344 123.761719 C 154.957031 109.410156 137.703125 97.789062 118.136719 90.15625 C 108.515625 86.394531 98.632812 83.550781 88.488281 81.625 C 61.433594 76.492188 31.917969 77.339844 -1.75 84.214844 L -1.820312 83.863281 C 31.894531 76.980469 61.453125 76.132812 88.554688 81.277344 C 98.722656 83.207031 108.625 86.054688 118.265625 89.824219 C 137.886719 97.480469 155.183594 109.128906 168.289062 123.523438 C 186.441406 143.453125 197.035156 168.152344 204.238281 187.445312 C 209.410156 201.308594 213.542969 216.269531 217.914062 232.109375 C 229.167969 272.871094 240.800781 315.019531 271.644531 342.007812 C 283.714844 352.570312 295.875 358.222656 307.785156 358.804688 C 332.046875 359.992188 351.820312 340.085938 361.378906 322.679688 C 368.042969 310.570312 372.316406 297.289062 376.453125 284.441406 C 378.234375 278.910156 380.074219 273.1875 382.082031 267.652344 C 383.074219 264.902344 384.03125 262.40625 385 260.03125 C 389.847656 248.1875 395.960938 237.035156 403.332031 226.578125 C 410.703125 216.117188 419.152344 206.617188 428.675781 198.070312 C 433.578125 193.683594 439.542969 188.855469 446.625 186.335938 C 454.90625 183.390625 464.304688 183.796875 473.800781 187.511719 C 482.433594 190.886719 490.652344 196.84375 496.941406 204.28125 C 502.011719 210.277344 506.363281 217.25 510.640625 226.234375 C 514.039062 233.371094 516.96875 240.90625 519.800781 248.199219 C 520.65625 250.402344 521.515625 252.601562 522.378906 254.796875 C 529.351562 272.398438 537.882812 290.246094 552.984375 301.527344 C 569.96875 314.21875 595.058594 317.5 620.09375 310.308594 C 643.363281 303.621094 664.605469 289.136719 681.675781 277.492188 L 681.875 277.789062 C 664.785156 289.441406 643.519531 303.949219 620.191406 310.652344 C 611.695312 313.121094 603.019531 314.375 594.171875 314.410156 C 578.433594 314.410156 563.882812 310.113281 552.769531 301.8125 C 537.601562 290.476562 529.039062 272.578125 522.050781 254.925781 C 521.183594 252.738281 520.320312 250.535156 519.46875 248.328125 C 516.640625 241.042969 513.714844 233.511719 510.316406 226.386719 C 506.054688 217.433594 501.71875 210.484375 496.667969 204.511719 C 485.527344 191.332031 465.148438 180.125 446.742188 186.671875 C 439.71875 189.167969 433.789062 193.96875 428.910156 198.339844 C 419.40625 206.863281 410.976562 216.347656 403.621094 226.78125 C 396.261719 237.21875 390.164062 248.347656 385.328125 260.164062 C 384.359375 262.539062 383.40625 265.027344 382.414062 267.773438 C 380.410156 273.304688 378.566406 279.023438 376.789062 284.554688 C 372.648438 297.414062 368.371094 310.710938 361.691406 322.855469 C 355.988281 333.234375 348.023438 342.464844 339.257812 348.851562 C 329.925781 355.648438 319.785156 359.207031 309.800781 359.207031 Z M 309.800781 359.207031 " fill-opacity="1" fill-rule="nonzero"/></g><g clip-path="url(#bb4d26ac1c)"><path fill="#b3b3b3" d="M 307.480469 364.472656 C 306.71875 364.472656 305.953125 364.449219 305.191406 364.40625 C 289.746094 363.550781 276.625 354.203125 268.335938 346.507812 C 254.3125 333.492188 243.339844 316.457031 234.792969 294.4375 C 227.167969 274.800781 222.121094 253.0625 217.238281 232.042969 C 207.960938 192.113281 198.371094 150.824219 170.734375 121.472656 C 151.109375 100.628906 122.339844 86.542969 89.722656 81.800781 C 62.6875 77.871094 32.859375 79.953125 -1.464844 88.164062 L -1.546875 87.816406 C 32.824219 79.597656 62.695312 77.515625 89.773438 81.449219 C 122.46875 86.203125 151.3125 100.328125 170.992188 121.230469 C 198.695312 150.648438 208.296875 191.988281 217.582031 231.960938 C 227.332031 273.925781 237.410156 317.316406 268.578125 346.25 C 276.824219 353.902344 289.871094 363.203125 305.210938 364.050781 C 330.085938 365.417969 349.886719 344.65625 359.289062 326.449219 C 365.859375 313.722656 369.921875 299.691406 373.847656 286.125 C 376.304688 277.632812 378.847656 268.847656 381.984375 260.445312 C 386.699219 247.882812 392.75 236 400.148438 224.808594 C 407.546875 213.613281 416.101562 203.386719 425.8125 194.132812 C 430.796875 189.390625 436.875 184.164062 444.148438 181.351562 C 463.210938 173.972656 484.21875 185.269531 495.671875 198.882812 C 506.65625 211.941406 512.734375 228.386719 518.609375 244.289062 C 519.402344 246.429688 520.195312 248.5625 520.988281 250.691406 C 527.824219 268.851562 536.253906 287.257812 551.515625 298.851562 C 568.738281 311.9375 594.246094 315.1875 619.746094 307.546875 C 643.148438 300.535156 663.855469 286.023438 682.125 273.222656 L 682.328125 273.511719 C 664.039062 286.332031 643.304688 300.859375 619.851562 307.890625 C 594.238281 315.5625 568.613281 312.292969 551.300781 299.140625 C 535.96875 287.492188 527.511719 269.03125 520.65625 250.820312 C 519.855469 248.695312 519.0625 246.558594 518.277344 244.417969 C 512.410156 228.542969 506.34375 212.125 495.398438 199.117188 C 484.023438 185.59375 463.171875 174.371094 444.273438 181.683594 C 437.058594 184.476562 431.015625 189.675781 426.054688 194.390625 C 416.363281 203.628906 407.828125 213.835938 400.445312 225.007812 C 393.0625 236.175781 387.019531 248.03125 382.320312 260.570312 C 379.1875 268.960938 376.644531 277.738281 374.1875 286.226562 C 370.257812 299.808594 366.191406 313.855469 359.605469 326.613281 C 354.007812 337.453125 346.03125 347.097656 337.140625 353.769531 C 327.785156 360.796875 317.578125 364.472656 307.480469 364.472656 Z M 307.480469 364.472656 " fill-opacity="1" fill-rule="nonzero"/></g></g></g></g></svg>