<?xml version="1.0" encoding="UTF-8"?><svg id="Layer_1" xmlns="http://www.w3.org/2000/svg" width="700" height="512" xmlns:xlink="http://www.w3.org/1999/xlink" viewBox="0 0 700 512"><defs><style>.cls-1{fill:url(#linear-gradient);}.cls-1,.cls-2,.cls-3,.cls-4,.cls-5,.cls-6,.cls-7,.cls-8,.cls-9,.cls-10,.cls-11{stroke-width:0px;}.cls-2{fill:url(#linear-gradient-6);}.cls-12{stroke-width:1.3px;}.cls-12,.cls-13,.cls-14{fill:none;stroke-linecap:round;stroke-linejoin:round;}.cls-12,.cls-14{stroke:#000;}.cls-3{opacity:.25;}.cls-5{opacity:.5;}.cls-5,.cls-7{fill:#fff;}.cls-6{fill:url(#linear-gradient-5);}.cls-8{fill:url(#linear-gradient-2);}.cls-9{fill:url(#linear-gradient-3);}.cls-10{fill:url(#radial-gradient);}.cls-13{stroke:#fff;stroke-width:.75px;}.cls-14{stroke-width:2px;}.cls-11{fill:url(#linear-gradient-4);}</style><radialGradient id="radial-gradient" cx="350" cy="256" fx="350" fy="256" r="246.3" gradientTransform="translate(283.53 -172.51) rotate(45)" gradientUnits="userSpaceOnUse"><stop offset="0" stop-color="#fff" stop-opacity="0"/><stop offset=".36" stop-color="#fff" stop-opacity="0"/><stop offset=".56" stop-color="#fff" stop-opacity=".04"/><stop offset=".71" stop-color="#fff" stop-opacity=".09"/><stop offset=".85" stop-color="#fff" stop-opacity=".17"/><stop offset=".97" stop-color="#fff" stop-opacity=".27"/><stop offset="1" stop-color="#fff" stop-opacity=".3"/></radialGradient><linearGradient id="linear-gradient" x1="221.91" y1="351.81" x2="504.07" y2="351.81" gradientUnits="userSpaceOnUse"><stop offset="0" stop-color="#1e1e1f"/><stop offset="1" stop-color="#000"/></linearGradient><linearGradient id="linear-gradient-2" x1="221.91" y1="344.43" x2="504.07" y2="344.43" gradientUnits="userSpaceOnUse"><stop offset="0" stop-color="#5a5b5b"/><stop offset="1" stop-color="#3a3a3a"/></linearGradient><linearGradient id="linear-gradient-3" x1="584.95" y1="366.8" x2="723.81" y2="366.8" gradientTransform="translate(-383.84)" gradientUnits="userSpaceOnUse"><stop offset=".61" stop-color="#9e9e9e"/><stop offset=".75" stop-color="#6d7678"/></linearGradient><linearGradient id="linear-gradient-4" x1="584.95" y1="311.34" x2="723.83" y2="311.34" gradientTransform="translate(-383.84)" gradientUnits="userSpaceOnUse"><stop offset="0" stop-color="#ebebeb"/><stop offset="1" stop-color="#838484"/></linearGradient><linearGradient id="linear-gradient-5" x1="647.77" y1="231.93" x2="663.48" y2="337.16" gradientTransform="translate(-383.84)" gradientUnits="userSpaceOnUse"><stop offset="0" stop-color="#242425"/><stop offset=".8" stop-color="#000"/></linearGradient><linearGradient id="linear-gradient-6" x1="629.38" y1="355.87" x2="635.5" y2="388.53" xlink:href="#linear-gradient-5"/></defs><circle class="cls-10" cx="350" cy="256" r="246.3" transform="translate(-78.51 322.47) rotate(-45)"/><path class="cls-3" d="m482.38,434.49l-262.28-153.02c-4.25-2.45-3.71-6.73,1.19-9.56l3.3-2.1c4.9-2.83,12.32-3.14,16.57-.69l262.28,153.02c4.25,2.45,3.71,6.73-1.19,9.56l-3.3,2.1c-4.9,2.83-12.32,3.14-16.57.69Z"/><path class="cls-1" d="m498.9,417.7l-272.43-146.37-4.55.04v5.66h0c.07,1.39.96,2.72,2.69,3.72l256.99,149.99c3.99,2.3,10.95,2.01,15.56-.65l3.1-1.97c2.54-1.47,3.83-3.34,3.81-5.12h0v-5.33l-5.17.04Z"/><path class="cls-8" d="m481.6,425.22l-256.99-149.99c-3.99-2.3-3.49-6.32,1.12-8.98l3.1-1.97c4.6-2.66,11.57-2.95,15.56-.65l256.99,149.99c3.99,2.3,3.49,6.32-1.12,8.98l-3.1,1.97c-4.6,2.66-11.57,2.95-15.56.65Z"/><path class="cls-5" d="m488.98,417.19l-250.46-148.7c-6.03-3.48-10.92-11.19-10.92-17.22V55.57c0-6.03,4.89-8.1,10.92-4.62l250.46,144.86c6.03,3.48,10.92,11.19,10.92,17.22v199.55c0,6.03-4.89,8.1-10.92,4.62Z"/><path class="cls-7" d="m237.14,58.24c-1.34-.77-2.42-.15-2.43,1.38,0,1.54,1.08,3.41,2.41,4.18s2.42.15,2.43-1.38c0-1.54-1.08-3.41-2.41-4.18h0Z"/><path class="cls-7" d="m243.87,62.13c-1.34-.77-2.42-.15-2.43,1.38,0,1.54,1.08,3.41,2.41,4.18,1.34.77,2.42.15,2.43-1.38,0-1.54-1.08-3.41-2.41-4.18h0Z"/><path class="cls-7" d="m250.61,66.01c-1.34-.77-2.42-.15-2.43,1.38,0,1.54,1.08,3.41,2.41,4.18s2.42.15,2.43-1.38c0-1.54-1.08-3.41-2.41-4.18h0Z"/><ellipse class="cls-4" cx="469.85" cy="287.09" rx="10.56" ry="18.67" transform="translate(-74.9 206.89) rotate(-23.05)"/><path class="cls-4" d="m325.56,166.46l-10.48-6.05c-4.09-2.36-7.41-7.59-7.41-11.68v-17.62c0-4.09,3.32-5.49,7.41-3.13l10.48,6.05c4.09,2.36,7.41,7.59,7.41,11.68v17.62c0,4.09-3.32,5.49-7.41,3.13Z"/><path class="cls-4" d="m366.56,190.13l-10.48-6.05c-4.09-2.36-7.41-7.59-7.41-11.68v-17.62c0-4.09,3.32-5.49,7.41-3.13l10.48,6.05c4.09,2.36,7.41,7.59,7.41,11.68v17.62c0,4.09-3.32,5.49-7.41,3.13Z"/><path class="cls-4" d="m396.2,261.05l-10.48-6.05c-4.09-2.36-7.41-7.59-7.41-11.68v-17.62c0-4.09,3.32-5.49,7.41-3.13l10.48,6.05c4.09,2.36,7.41,7.59,7.41,11.68v17.62c0,4.09-3.32,5.49-7.41,3.13Z"/><path class="cls-4" d="m435.46,283.71l-10.48-6.05c-4.09-2.36-7.41-7.59-7.41-11.68v-17.62c0-4.09,3.32-5.49,7.41-3.13l10.48,6.05c4.09,2.36,7.41,7.59,7.41,11.68v17.62c0,4.09-3.32,5.49-7.41,3.13Z"/><path class="cls-4" d="m396.2,336.5l-10.48-6.05c-4.09-2.36-7.41-7.59-7.41-11.68v-17.62c0-4.09,3.32-5.49,7.41-3.13l10.48,6.05c4.09,2.36,7.41,7.59,7.41,11.68v17.62c0,4.09-3.32,5.49-7.41,3.13Z"/><path class="cls-4" d="m325.56,257.33l-10.48-6.05c-4.09-2.36-7.41-7.59-7.41-11.68v-17.62c0-4.09,3.32-5.49,7.41-3.13l10.48,6.05c4.09,2.36,7.41,7.59,7.41,11.68v17.62c0,4.09-3.32,5.49-7.41,3.13Z"/><line class="cls-12" x1="268.91" y1="171.63" x2="284.58" y2="180.68"/><path class="cls-4" d="m267.33,170.72c0-8.96-5.45-19.36-12.16-23.24-6.72-3.88-12.16.24-12.16,9.19s5.45,19.36,12.16,23.24c6.72,3.88,12.16-.24,12.16-9.19Z"/><path class="cls-4" d="m283,177.98v3.78c0,.1.1.17.19.13l2.04-.71c.09-.03.12-.14.07-.21l-2.04-3.07c-.08-.12-.26-.06-.26.08Z"/><path class="cls-12" d="m305.94,230.56l-10.23-5.91c-3.2-1.85-5.79-6.8-5.79-11.07v-76.11c0-4.26,2.59-6.23,5.79-4.38l10.23,5.91"/><path class="cls-4" d="m304.75,228.14v3.78c0,.1.1.17.19.13l2.04-.71c.09-.03.12-.14.07-.21l-2.04-3.07c-.08-.12-.26-.06-.26.08Z"/><path class="cls-4" d="m304.75,136.57v3.78c0,.1.1.17.19.13l2.04-.71c.09-.03.12-.14.07-.21l-2.04-3.07c-.08-.12-.26-.06-.26.08Z"/><path class="cls-12" d="m376.29,308.67l-13.78-7.96c-3.2-1.85-5.79-6.8-5.79-11.07v-59.8c0-4.26,2.59-6.23,5.79-4.38l13.78,7.96"/><path class="cls-4" d="m375.1,306.25v3.78c0,.1.1.17.19.13l2.04-.71c.09-.03.12-.14.07-.21l-2.04-3.07c-.08-.12-.26-.06-.26.08Z"/><path class="cls-4" d="m375.1,230.99v3.78c0,.1.1.17.19.13l2.04-.71c.09-.03.12-.14.07-.21l-2.04-3.07c-.08-.12-.26-.06-.26.08Z"/><path class="cls-12" d="m375.41,178.94l9.85,5.69c3.2,1.85,5.79,6.8,5.79,11.07v27.2"/><path class="cls-4" d="m392.57,222.18l-2.84-1.64c-.12-.07-.25.05-.2.18l1.42,3.55c.04.1.18.12.25.03l1.42-1.91c.05-.07.03-.16-.04-.21Z"/><path class="cls-12" d="m405.2,325.15l19.14,11.05c3.2,1.85,5.79-.11,5.79-4.38v-48.07"/><path class="cls-4" d="m431.45,286.09l-2.84-1.64c-.07-.04-.09-.14-.04-.21l1.42-1.91c.07-.09.2-.07.25.03l1.42,3.55c.05.12-.09.24-.2.18Z"/><line class="cls-12" x1="350.54" y1="256.3" x2="334.5" y2="247.04"/><path class="cls-4" d="m349.35,253.88v3.78c0,.1.1.17.19.13l2.04-.71c.09-.03.12-.14.07-.21l-2.04-3.07c-.08-.12-.26-.06-.26.08Z"/><line class="cls-12" x1="334.26" y1="155.35" x2="346.61" y2="162.49"/><path class="cls-4" d="m345.58,160.15v3.78c0,.1.1.17.19.13l2.04-.71c.09-.03.12-.14.07-.21l-2.04-3.07c-.08-.12-.26-.06-.26.08Z"/><line class="cls-12" x1="405.24" y1="250.22" x2="415.61" y2="256.21"/><path class="cls-4" d="m414.58,253.87v3.78c0,.1.1.17.19.13l2.04-.71c.09-.03.12-.14.07-.21l-2.04-3.07c-.08-.12-.26-.06-.26.08Z"/><line class="cls-12" x1="444.49" y1="272.88" x2="455.38" y2="279.17"/><path class="cls-4" d="m454.35,276.83v3.78c0,.1.1.17.19.13l2.04-.71c.09-.03.12-.14.07-.21l-2.04-3.07c-.08-.12-.26-.06-.26.08Z"/><path class="cls-4" d="m294.2,185.59l-3.58-6.84c-.35-.67-1.22-.87-1.82-.41l-2.75,2.08c-.48.36-.62,1.01-.35,1.54l3.58,6.84c.35.67,1.22.87,1.82.41l2.75-2.08c.48-.36.62-1.01.35-1.54Z"/><path class="cls-4" d="m361,261.56l-3.58-6.84c-.35-.67-1.22-.87-1.82-.41l-2.75,2.08c-.48.36-.62,1.01-.35,1.54l3.58,6.84c.35.67,1.22.87,1.82.41l2.75-2.08c.48-.36.62-1.01.35-1.54Z"/><path class="cls-7" d="m466.74,292.97c-.2,0-.39-.03-.58-.1-.42-.16-.76-.47-.95-.88l-3.03-6.72c-.38-.84,0-1.84.84-2.22.84-.38,1.84,0,2.22.84l2.33,5.17,7.89-3.7c.84-.39,1.84-.03,2.23.81.39.84.03,1.84-.8,2.23l-9.43,4.43c-.23.11-.47.16-.71.16Z"/><path class="cls-7" d="m256.43,174.91v.59c0,.69-.42,1.01-.94.71l-2.13-1.23c-.52-.3-.94-1.1-.94-1.78v-.6l4,2.31Z"/><path class="cls-7" d="m254.59,162.04l.91-.41-.17,7.32-1.74-1.01-.16-7.24.76,1.22c.08.13.25.18.39.12Z"/><path class="cls-7" d="m259.52,163.55c0,2.04-.68,3.48-1.75,4.11-.55.32-.9,1.02-.98,1.94,0,.09-.1.14-.18.1l-.65-.38.18-8.16c0-.11-.05-.21-.13-.28-.09-.06-.21-.07-.3-.03l-1.12.5-1.22-1.96c-.08-.12-.23-.18-.36-.13-.13.04-.23.17-.22.31l.18,8.01-.66-.39c-.13-.08-.2-.2-.22-.34-.08-1.02-.45-2.13-1.01-3.1-1.1-1.93-1.78-4.23-1.72-6.33.1-3.44,2.22-5.09,4.84-3.73,2.92,1.51,5.33,6,5.33,9.85Z"/><path class="cls-7" d="m256.99,172.43l-5.13-2.96c-.3-.17-.55-.56-.55-.87v-1.09c0-.3.25-.41.55-.23l5.13,2.96c.3.18.55.56.55.87v1.09c0,.3-.25.41-.55.23Z"/><path class="cls-7" d="m256.99,174.95l-5.13-2.96c-.3-.18-.55-.56-.55-.87v-1.09c0-.3.25-.41.55-.23l5.13,2.96c.3.18.55.56.55.87v1.09c0,.3-.25.41-.55.23Z"/><line class="cls-13" x1="254.42" y1="152.47" x2="254.42" y2="150.69"/><line class="cls-13" x1="258.88" y1="157.55" x2="259.83" y2="156.84"/><line class="cls-13" x1="260.7" y1="164.58" x2="262.04" y2="165.35"/><line class="cls-13" x1="258.82" y1="169.43" x2="259.76" y2="171.24"/><line class="cls-13" x1="249.88" y1="164.19" x2="248.93" y2="164.9"/><line class="cls-13" x1="248.06" y1="157.16" x2="246.72" y2="156.39"/><line class="cls-13" x1="249.94" y1="152.31" x2="249" y2="150.5"/><polygon class="cls-7" points="315.76 153.22 312.01 151.06 312.01 145.59 315.76 147.75 315.76 153.22"/><polygon class="cls-7" points="321.7 156.65 317.95 154.48 317.95 143.28 321.7 145.45 321.7 156.65"/><polygon class="cls-7" points="327.64 160.08 323.89 157.91 323.89 140.76 327.64 142.93 327.64 160.08"/><path class="cls-7" d="m325.26,245.88c2.33-1.76,2.33-6.82,0-11.27-2.33-4.45-6.12-6.64-8.46-4.88-2.09,1.58-2.3,5.8-.65,9.86l-3.11,2.35c-.39.3-.39,1.15,0,1.91.39.75,1.03,1.12,1.43.83l3.11-2.35c2.33,3.55,5.59,5.14,7.68,3.56Zm-7.03-5.96c-1.54-2.95-1.54-6.29,0-7.46,1.54-1.17,4.05.28,5.6,3.23,1.54,2.95,1.54,6.29,0,7.46-1.54,1.17-4.05-.28-5.6-3.23Z"/><path class="cls-7" d="m429.33,259.18l.1.07-.13,3.55-.1-.07c-.72-.45-1.27-1.62-1.24-2.6.04-.97.65-1.4,1.37-.96Z"/><path class="cls-7" d="m431.72,267.73c-.04.97-.65,1.41-1.37.96l-.1-.07.13-3.55.11.07c.71.45,1.27,1.62,1.23,2.6Z"/><path class="cls-7" d="m430,252.77c-4.8-2.77-8.7.17-8.7,6.58s3.9,13.85,8.7,16.62c4.81,2.77,8.71-.18,8.71-6.58s-3.9-13.85-8.71-16.62Zm.28,17.46l-.1-.07-.04.98c-.02.44-.28.62-.6.42-.31-.19-.55-.7-.54-1.13l.03-.98-1.62-1.02c-.32-.2-.56-.71-.54-1.14.02-.43.28-.62.6-.42l1.63,1.02.13-3.54-.11-.07c-1.34-.85-2.38-3.03-2.31-4.87.08-1.83,1.22-2.64,2.57-1.79l.11.07.03-.73c.02-.43.28-.62.6-.42.31.2.55.7.54,1.14l-.03.72,1.62,1.02c.32.2.56.71.54,1.14-.02.43-.28.62-.6.42l-1.62-1.02-.14,3.55.11.06c1.34.85,2.38,3.03,2.31,4.87-.08,1.84-1.22,2.65-2.57,1.79Z"/><path class="cls-7" d="m390.07,252.72c-7.22-7.83-7.01-19.59-7-20.09l.05-1.88,1.43.72c2.86,1.45,5.1.5,5.12.49l.95-.44.96,1.54s2.25,3.56,5.12,5.42l1.43.93.05,1.93c.01.51.23,12.52-7,12.01l-.55-.04-.55-.6Z"/><path class="cls-7" d="m369.76,176.19c0,6.4-3.9,9.35-8.71,6.58-4.8-2.77-8.7-10.22-8.7-16.62s3.9-9.35,8.7-6.58c4.81,2.77,8.71,10.21,8.71,16.62Z"/><polyline class="cls-14" points="357.75 164.75 360.62 171.88 366.19 174.42"/><path class="cls-7" d="m396.6,319.27v-3.38l-1.62-1.71c-.08-.35-.18-.71-.28-1.06l.74-1.65-1.79-3.42-1.56.08c-.22-.27-.44-.52-.67-.76l-.58-2.5-2.53-1.46-.58,1.82c-.23-.03-.46-.03-.67-.02l-1.56-1.88-1.79,1.35.74,2.5c-.11.23-.2.47-.28.74l-1.62-.16v3.38l1.62,1.71c.08.36.18.71.28,1.06l-.74,1.65,1.79,3.42,1.56-.08c.22.27.44.52.67.76l.58,2.5,2.53,1.46.58-1.83c.23.03.46.03.67.02l1.56,1.88,1.79-1.36-.74-2.5c.11-.23.2-.47.28-.74l1.62.16Zm-7.03-1.53c-1.75-1.01-3.17-3.72-3.17-6.05s1.42-3.4,3.17-2.39c1.75,1.01,3.17,3.72,3.17,6.05s-1.42,3.4-3.17,2.39Z"/><path class="cls-7" d="m397.93,330.96v-1.5l-.72-.76c-.03-.16-.08-.32-.12-.47l.33-.74-.8-1.52-.69.04c-.1-.12-.2-.23-.3-.34l-.26-1.11-1.13-.65-.26.81c-.1-.01-.2-.01-.3,0l-.69-.84-.8.6.33,1.11c-.05.1-.09.21-.12.33l-.72-.07v1.5l.72.76c.04.16.08.32.12.47l-.33.73.8,1.52.69-.04c.1.12.2.23.3.34l.26,1.11,1.13.65.26-.81c.1.01.2.01.3,0l.69.84.8-.6-.33-1.11c.05-.1.09-.21.12-.33l.72.07Zm-3.13-.68c-.78-.45-1.41-1.65-1.41-2.69s.63-1.51,1.41-1.06c.78.45,1.41,1.65,1.41,2.69s-.63,1.51-1.41,1.06Z"/><path class="cls-9" d="m339.97,329.66v89c-.02,2.49-.96,5.05-2.79,7.47-1.8,2.44-4.5,4.8-8.06,6.85l-2.44,1.42c-6.05,3.5-13.52,5.55-20.92,6.1-2.86.21-5.67.21-8.41-.02-5.64-.46-10.9-1.85-15.03-4.25l-73.53-42.47c-5.07-2.92-7.58-6.83-7.65-10.92l-.02-89.89,96.24,25.42,8.04,2.12,34.58,9.16Z"/><path class="cls-11" d="m282.33,347l-73.55-42.46c-11.37-6.56-9.94-18.03,3.18-25.6l2.45-1.41c13.13-7.58,32.98-8.4,44.35-1.84l73.55,42.46c11.37,6.56,9.94,18.03-3.18,25.6l-2.45,1.41c-13.13,7.58-32.98,8.4-44.35,1.84Z"/><path class="cls-6" d="m226.56,245.27v44.51c0,1.43.93,2.85,2.81,3.94,3.76,2.19,9.89,2.19,13.67,0,1.9-1.1,2.85-2.54,2.85-3.97v-44.47c0-4.39,2.94-6.56,4.21-7.29,1.27-.73,4.62-2.2,8.41,0l21.18,12.23c10.86,6.27,17.61,17.96,17.61,30.5v49.96c0,1.43.93,2.85,2.81,3.94,3.76,2.19,9.89,2.19,13.67,0,1.9-1.09,2.85-2.54,2.85-3.97v-49.93c0-19.43-10.45-37.53-27.28-47.25l-21.18-12.23c-8.68-5.02-19.06-5.02-27.75,0-8.69,5.02-13.87,14-13.87,24.03Z"/><path class="cls-2" d="m254.75,377.56c2.26-.77,3.75-3.39,3.75-7.34,0-6.36-3.87-13.76-8.65-16.52-4.78-2.76-8.65.17-8.65,6.53,0,3.94,1.49,8.28,3.75,11.67l-3.78,17.06,17.37,10.03-3.78-21.44Z"/></svg>