<?xml version="1.0" encoding="UTF-8"?><svg id="Layer_1" xmlns="http://www.w3.org/2000/svg" width="700" height="512" xmlns:xlink="http://www.w3.org/1999/xlink" viewBox="0 0 700 512"><defs><style>.cls-1{fill:url(#linear-gradient);}.cls-1,.cls-2,.cls-3,.cls-4,.cls-5,.cls-6,.cls-7,.cls-8,.cls-9,.cls-10,.cls-11,.cls-12,.cls-13,.cls-14,.cls-15,.cls-16,.cls-17,.cls-18{stroke-width:0px;}.cls-2{fill:url(#linear-gradient-6);}.cls-19{stroke-width:1.3px;}.cls-19,.cls-20,.cls-21{fill:none;stroke-linecap:round;stroke-linejoin:round;}.cls-19,.cls-21{stroke:#000;}.cls-3{fill:#f7fafc;}.cls-4{opacity:.25;}.cls-6{opacity:.3;}.cls-7{opacity:.5;}.cls-7,.cls-11{fill:#fff;}.cls-8{fill:url(#linear-gradient-5);}.cls-9{opacity:.2;}.cls-10{fill:#ffa87e;}.cls-12{fill:url(#linear-gradient-2);}.cls-13{fill:url(#linear-gradient-7);}.cls-14{fill:url(#linear-gradient-3);}.cls-15{fill:url(#linear-gradient-9);}.cls-16{fill:url(#linear-gradient-8);}.cls-20{stroke:#fff;stroke-width:.75px;}.cls-17{fill:url(#linear-gradient-10);}.cls-21{stroke-width:2px;}.cls-18{fill:url(#linear-gradient-4);}</style><linearGradient id="linear-gradient" x1="204.48" y1="379.84" x2="541.24" y2="379.84" gradientUnits="userSpaceOnUse"><stop offset="0" stop-color="#1e1e1f"/><stop offset="1" stop-color="#000"/></linearGradient><linearGradient id="linear-gradient-2" x1="204.48" y1="371.03" x2="541.24" y2="371.03" gradientUnits="userSpaceOnUse"><stop offset="0" stop-color="#5a5b5b"/><stop offset="1" stop-color="#3a3a3a"/></linearGradient><linearGradient id="linear-gradient-3" x1="516.25" y1="439.92" x2="524.45" y2="453.7" gradientTransform="translate(-337.99)" gradientUnits="userSpaceOnUse"><stop offset=".04" stop-color="#242425"/><stop offset="1" stop-color="#000"/></linearGradient><linearGradient id="linear-gradient-4" x1="557.89" y1="458.94" x2="562.25" y2="478.65" xlink:href="#linear-gradient-3"/><linearGradient id="linear-gradient-5" x1="516.89" y1="286.32" x2="517.89" y2="457.37" xlink:href="#linear-gradient-3"/><linearGradient id="linear-gradient-6" x1="542.2" y1="286.17" x2="543.2" y2="457.22" xlink:href="#linear-gradient-3"/><linearGradient id="linear-gradient-7" x1="494.44" y1="189.84" x2="497.17" y2="296.7" xlink:href="#linear-gradient-3"/><linearGradient id="linear-gradient-8" x1="526.17" y1="189.03" x2="528.9" y2="295.89" xlink:href="#linear-gradient-3"/><linearGradient id="linear-gradient-9" x1="502.67" y1="130.14" x2="550.68" y2="130.14" gradientTransform="translate(-337.99)" gradientUnits="userSpaceOnUse"><stop offset="0" stop-color="#232323"/><stop offset="1" stop-color="#000"/></linearGradient><linearGradient id="linear-gradient-10" x1="585.97" y1="187.51" x2="588.69" y2="294.37" xlink:href="#linear-gradient-3"/></defs><path class="cls-4" d="m515.35,478.53l-313.04-182.64c-5.07-2.93-4.43-8.04,1.42-11.42l3.94-2.5c5.85-3.38,14.7-3.75,19.77-.82l313.04,182.64c5.07,2.93,4.43,8.04-1.42,11.42l-3.94,2.5c-5.85,3.38-14.7,3.75-19.77.82Z"/><path class="cls-1" d="m535.07,458.49l-325.16-174.7-5.43.04v6.75h0c.08,1.66,1.14,3.24,3.21,4.44l306.73,179.02c4.76,2.75,13.07,2.4,18.57-.77l3.7-2.35c3.03-1.75,4.57-3.99,4.55-6.11h0v-6.36l-6.17.05Z"/><path class="cls-12" d="m514.42,467.46l-306.73-179.02c-4.76-2.75-4.16-7.55,1.33-10.72l3.7-2.35c5.5-3.17,13.81-3.52,18.57-.77l306.73,179.02c4.76,2.75,4.16,7.55-1.33,10.72l-3.7,2.35c-5.5,3.17-13.81,3.52-18.57.77Z"/><path class="cls-7" d="m523.23,457.88l-298.94-177.48c-7.2-4.16-13.03-13.36-13.03-20.56V26.27c0-7.2,5.83-9.66,13.03-5.51l298.94,172.89c7.2,4.16,13.03,13.36,13.03,20.56v238.17c0,7.2-5.83,9.66-13.03,5.51Z"/><path class="cls-11" d="m222.65,29.45c-1.59-.92-2.89-.18-2.9,1.65s1.28,4.06,2.88,4.99c1.59.92,2.89.18,2.9-1.65s-1.28-4.06-2.88-4.99h0Z"/><path class="cls-11" d="m230.69,34.09c-1.59-.92-2.89-.18-2.9,1.65s1.28,4.06,2.88,4.99c1.59.92,2.89.18,2.9-1.65s-1.28-4.06-2.88-4.98h0Z"/><path class="cls-11" d="m238.73,38.74c-1.59-.92-2.89-.18-2.9,1.65s1.28,4.06,2.88,4.99c1.59.92,2.89.18,2.9-1.65s-1.28-4.06-2.88-4.99h0Z"/><ellipse class="cls-5" cx="500.4" cy="302.6" rx="12.61" ry="22.29" transform="translate(-78.53 220.09) rotate(-23.05)"/><path class="cls-5" d="m328.19,158.63l-12.51-7.22c-4.88-2.82-8.84-9.06-8.84-13.94v-21.03c0-4.88,3.96-6.55,8.84-3.74l12.51,7.22c4.88,2.82,8.84,9.06,8.84,13.94v21.03c0,4.88-3.96,6.55-8.84,3.74Z"/><path class="cls-5" d="m377.11,186.87l-12.51-7.22c-4.88-2.82-8.84-9.06-8.84-13.94v-21.03c0-4.88,3.96-6.55,8.84-3.74l12.51,7.22c4.88,2.82,8.84,9.06,8.84,13.94v21.03c0,4.88-3.96,6.55-8.84,3.74Z"/><path class="cls-5" d="m412.5,271.51l-12.51-7.22c-4.88-2.82-8.84-9.06-8.84-13.94v-21.03c0-4.88,3.96-6.55,8.84-3.74l12.51,7.22c4.88,2.82,8.84,9.06,8.84,13.94v21.03c0,4.88-3.96,6.55-8.84,3.74Z"/><path class="cls-5" d="m459.35,298.56l-12.51-7.22c-4.88-2.82-8.84-9.06-8.84-13.94v-21.03c0-4.88,3.96-6.55,8.84-3.74l12.51,7.22c4.88,2.82,8.84,9.06,8.84,13.94v21.03c0,4.88-3.96,6.55-8.84,3.74Z"/><path class="cls-5" d="m412.5,361.57l-12.51-7.22c-4.88-2.82-8.84-9.06-8.84-13.94v-21.03c0-4.88,3.96-6.55,8.84-3.74l12.51,7.22c4.88,2.82,8.84,9.06,8.84,13.94v21.03c0,4.88-3.96,6.55-8.84,3.74Z"/><path class="cls-5" d="m328.19,267.08l-12.51-7.22c-4.88-2.82-8.84-9.06-8.84-13.94v-21.03c0-4.88,3.96-6.55,8.84-3.74l12.51,7.22c4.88,2.82,8.84,9.06,8.84,13.94v21.03c0,4.88-3.96,6.55-8.84,3.74Z"/><line class="cls-19" x1="260.57" y1="164.79" x2="279.27" y2="175.59"/><ellipse class="cls-5" cx="244.17" cy="155.32" rx="12.61" ry="22.29" transform="translate(-41.32 108.01) rotate(-23.05)"/><path class="cls-5" d="m277.39,172.36v4.51c0,.12.11.2.22.16l2.44-.85c.1-.04.15-.16.09-.25l-2.44-3.66c-.09-.14-.31-.07-.31.09Z"/><path class="cls-19" d="m304.77,235.12l-12.21-7.05c-3.82-2.2-6.91-8.12-6.91-13.21v-90.84c0-5.09,3.09-7.43,6.91-5.23l12.21,7.05"/><path class="cls-5" d="m303.35,232.23v4.51c0,.12.11.2.22.16l2.44-.85c.1-.04.15-.16.09-.25l-2.44-3.66c-.09-.14-.31-.07-.31.09Z"/><path class="cls-5" d="m303.35,122.95v4.51c0,.12.11.2.22.16l2.44-.85c.1-.04.15-.16.09-.25l-2.44-3.66c-.09-.14-.31-.07-.31.09Z"/><path class="cls-19" d="m388.73,328.35l-16.45-9.5c-3.82-2.2-6.91-8.12-6.91-13.21v-71.38c0-5.09,3.09-7.43,6.91-5.23l16.45,9.5"/><path class="cls-5" d="m387.31,325.46v4.51c0,.12.11.2.22.16l2.44-.85c.1-.04.15-.16.09-.25l-2.44-3.66c-.09-.14-.31-.07-.31.09Z"/><path class="cls-5" d="m387.31,235.63v4.51c0,.12.11.2.22.16l2.44-.85c.1-.04.15-.16.09-.25l-2.44-3.66c-.09-.14-.31-.07-.31.09Z"/><path class="cls-19" d="m387.68,173.52l11.75,6.79c3.82,2.2,6.91,8.12,6.91,13.21v32.46"/><path class="cls-5" d="m408.16,225.13l-3.39-1.96c-.14-.08-.3.06-.24.21l1.7,4.24c.05.12.21.14.29.04l1.7-2.28c.06-.08.04-.2-.05-.25Z"/><path class="cls-19" d="m423.24,348.02l22.85,13.19c3.82,2.2,6.91-.14,6.91-5.23v-57.38"/><path class="cls-5" d="m454.56,301.41l-3.39-1.96c-.09-.05-.11-.17-.05-.25l1.7-2.28c.08-.11.24-.08.29.04l1.7,4.24c.06.15-.1.29-.24.21Z"/><line class="cls-19" x1="358" y1="265.85" x2="338.85" y2="254.8"/><path class="cls-5" d="m356.58,262.96v4.51c0,.12.11.2.22.16l2.44-.85c.1-.04.15-.16.09-.25l-2.44-3.66c-.09-.14-.31-.07-.31.09Z"/><line class="cls-19" x1="338.56" y1="145.36" x2="353.31" y2="153.88"/><path class="cls-5" d="m352.08,151.09v4.51c0,.12.11.2.22.16l2.44-.85c.1-.04.15-.16.09-.25l-2.44-3.66c-.09-.14-.31-.07-.31.09Z"/><line class="cls-19" x1="423.28" y1="258.59" x2="435.67" y2="265.74"/><path class="cls-5" d="m434.44,262.95v4.51c0,.12.11.2.22.16l2.44-.85c.1-.04.15-.16.09-.25l-2.44-3.66c-.09-.14-.31-.07-.31.09Z"/><line class="cls-19" x1="470.13" y1="285.64" x2="483.13" y2="293.14"/><path class="cls-5" d="m481.91,290.35v4.51c0,.12.11.2.22.16l2.44-.85c.1-.04.15-.16.09-.25l-2.44-3.66c-.09-.14-.31-.07-.31.09Z"/><path class="cls-5" d="m290.75,181.45l-4.27-8.16c-.42-.8-1.46-1.03-2.18-.49l-3.28,2.48c-.57.43-.74,1.21-.41,1.84l4.27,8.16c.42.8,1.46,1.03,2.18.49l3.28-2.48c.57-.43.74-1.21.41-1.84Z"/><path class="cls-5" d="m370.48,272.13l-4.27-8.16c-.42-.8-1.46-1.03-2.18-.49l-3.28,2.48c-.57.43-.74,1.21-.41,1.84l4.27,8.16c.42.8,1.46,1.03,2.18.49l3.28-2.48c.57-.43.74-1.21.41-1.84Z"/><path class="cls-11" d="m496.68,309.62c-.23,0-.47-.04-.69-.12-.5-.19-.91-.57-1.13-1.05l-3.62-8.02c-.45-1.01,0-2.19,1-2.65,1.01-.45,2.19,0,2.65,1l2.78,6.17,9.41-4.42c1-.47,2.19-.04,2.66.96.47,1,.04,2.19-.96,2.66l-11.25,5.28c-.27.13-.56.19-.85.19Z"/><path class="cls-9" d="m213.84,492.21c-5.06-.1-10.16-.89-14.78-2.94-4.62-2.05-8.75-5.43-11.13-9.9-1.36-2.55-2.17-5.46-4.12-7.59-4.23-4.63-12.04-3.92-16.81-7.99-2.84-2.42-4.19-6.29-4.1-10.02.08-3.73,1.45-7.33,3.3-10.57,4.89-8.56,13.6-15.12,23.39-16.35,9.79-1.23,20.34,3.42,25.16,12.02,3.28,5.86,4.13,13.39,9.36,17.6,2.82,2.27,6.49,3.17,10.08,3.63,3.59.46,7.25.55,10.74,1.49,4.18,1.13,8.5,3.84,9.39,8.38.59,3.01.58,6.27-1.56,8.68-2.14,2.41-5.4,3.79-8.17,5.33-4.42,2.45-8.9,4.56-13.77,5.97-4.91,1.42-10,2.19-15.11,2.27-.62,0-1.24,0-1.86,0Z"/><path class="cls-14" d="m170.44,445.25s-2.41,11.94-1.21,13.95c1.21,2.01,12.48,3.62,14.22,1.48,1.74-2.15,13.19-16.27,13.97-18.67.78-2.39-.73-9.05-6.68-10.42-5.95-1.37-20.31,13.66-20.31,13.66Z"/><path class="cls-18" d="m203.14,462.33s-3.64,11.54-2.05,14.76c1.59,3.22,2.93,5.27,7.09,4.94,4.16-.32,14.02.52,16.63,0,2.62-.52,14.89,2.29,18.51-1.73,3.62-4.02,3.64-10.26-1.1-12.07-4.74-1.81-24.06-5.9-24.06-5.9h-15.04Z"/><path class="cls-8" d="m159.67,295.67c.05,3.09.21,6.66.52,10.78,1.26,17.32,6.71,60.95,6.71,60.95,0,0-1.62,20.46-1.62,32.43s4.59,46.4,4.59,46.4c0,0,6.88,5.12,12.75,2.31,1.36-.64,2.47-1.45,3.43-2.28,3.16-2.81,4.21-6.14,4.21-6.14l1.02-77.5,1.9-22.78,2.09-22.56.88-9.49,1.59-17.32.43-4.52-35.86-4.71-2.14-.29s-.12.79-.26,2.38c-.17,2.33-.38,6.42-.26,12.35Z"/><path class="cls-6" d="m183.23,366.23l2.83,80.02c3.16-2.81,4.21-6.14,4.21-6.14l1.02-77.5,1.9-22.78,2.09-22.56-5.95-4.38-6.12,53.33Z"/><path class="cls-2" d="m178.11,289.43s2.12,6.78,5.09,16.56c2.93,9.59,6.66,22.08,9.99,33.84,4.78,16.82,10.78,34.33,10.4,37.61-1.55,13.11-3.56,31.5-3.23,52.58.19,12.11.46,36.78.46,36.78,7.28,3.19,10.81,2.93,15.28,1.71,4.33-1.14,6.92-3,6.92-3,0,0,7.88-86.4,7.8-90.99-.07-4.59-.55-82.36-.55-82.36l-32.53-1.71-19.65-1.02Z"/><path class="cls-6" d="m159.67,295.67c2.4,2.36,6.42,4.9,13.02,7.38,3.38,1.26,6.92,2.24,10.52,2.95,4.33.9,8.73,1.45,12.97,1.78,14.87,1.12,27.55-.67,27.55-.67,0,0-1.31,59.33,0,73.39,1.14,12.25-5.81,72.69-7.61,88.01,4.33-1.14,6.92-3,6.92-3,0,0,7.88-86.4,7.8-90.99-.07-4.59-.55-82.36-.55-82.36l-32.53-1.71.43-4.52-35.86-4.71-2.4,2.09c-.17,2.33-.38,6.42-.26,12.35Z"/><path class="cls-13" d="m150.51,249.16c.55,1.81,2.57,4.95,5.09,8.4,5.4,7.38,12.99,16.16,12.99,16.16l2.55-42.23-16.2-52.92-3.12-10.14s-8.71,7.28-8.97,20.56c-.26,13.28,5.9,54.51,7.66,60.18Z"/><path class="cls-6" d="m153.03,226.55c1.64,6.54,2.33,18.56,2.57,31,5.4,7.38,12.99,16.16,12.99,16.16l2.55-42.23-16.2-52.92c-.29.24-.57.5-.86.76-7.14,6.83-5.38,29.91-1.05,47.23Z"/><path class="cls-10" d="m307.51,214.16c4.97-1.96,12.98-5.58,9.69-7.34-2.57-1.38-12.51,2.33-16.44,4.57-.64.36-2.16,1.31-2.95,1.8-.31.19-.5.31-.5.31,0,0,.71-3.6.7-4.4-.02-.85-1.04-4.05-4.07-1.26-3.03,2.79-7.09,12.06-7.09,12.06l-4.85,4.24,4.05,8.58s7.5-1.94,11.27-2.62c5.08-.92,11.39-2.83,12.28-4.52,1.49-2.82.32-8.09-2.09-11.42Z"/><path class="cls-16" d="m226.2,243.36c.02.08,4.84,52.23,4.94,53.21v.02s-3.49,2.47-9.39,4.73c-6.47,2.47-15.82,4.68-26.62,3.1-20.66-3.08-38-18.61-38-18.61,0,0,2.31-53.96-2.05-71.32-4.33-17.32-11.48-38.32-4.33-45.15,7.13-6.86,22.16-6.86,29.83-4.05,7.64,2.81,37.48,10.99,42.23,19.29,5.52,9.65,2.66,51.22,3.39,58.78Z"/><path class="cls-10" d="m209.9,121.84s3.06,20,1.27,25.73c-1.78,5.74-11.52,10.4-25.01,4.5-13.49-5.9-15.4-30.5-8.77-34.33,6.63-3.82,29.83-5.58,32.5,4.09Z"/><path class="cls-10" d="m201.95,150.7l-.26,18.78s-18.97,1.08-25.18-5.38l1.61-21.58,23.83,8.19Z"/><path class="cls-15" d="m203.44,133.85s9.63-2.04,9.24-15.64c-.4-13.6-16.88-17-29.97-13.94-13.09,3.06-13.77,14.27-13.77,14.27,0,0-3.74,1.71-4.25,8.17-.51,6.46,9.01,24.91,13.6,28.09,4.59,3.18,13.56,2.95,14.43-.59s-2.7-15.61,1.38-15.95c4.08-.34,7.14,5.1,7.14,5.1l3.23-2.06-1.02-7.45Z"/><path class="cls-3" d="m171.99,165l4.34-4.76s14.29,6.25,26.26,8.05l1.69,5.72s-21.7,3.39-32.29-9Z"/><path class="cls-17" d="m284.45,221.37s7.84,1.33,6.77,11.56c0,0-41.18,18.6-51.14,18.6s-28.33-30.58-32.91-46.12c-4.58-15.54,5.28-23.31,12.45-23.11,7.17.2,28.69,49.45,28.69,49.45l36.13-10.36Z"/><path class="cls-11" d="m245.68,168.71v.71c0,.82-.5,1.2-1.12.85l-2.54-1.47c-.62-.36-1.12-1.31-1.12-2.13v-.72l4.78,2.76Z"/><path class="cls-11" d="m243.48,153.35l1.09-.49-.2,8.74-2.08-1.21-.19-8.64.91,1.46c.1.16.3.21.47.14Z"/><path class="cls-11" d="m249.36,155.15c0,2.44-.81,4.15-2.09,4.9-.66.38-1.07,1.22-1.17,2.31-.01.11-.12.17-.21.12l-.78-.45.22-9.74c.01-.13-.06-.25-.16-.33-.11-.07-.25-.08-.36-.03l-1.34.6-1.46-2.34c-.09-.14-.27-.21-.43-.16s-.27.2-.26.37l.21,9.56-.79-.46c-.15-.09-.24-.24-.26-.41-.1-1.22-.54-2.54-1.21-3.7-1.31-2.3-2.12-5.05-2.05-7.55.12-4.11,2.65-6.07,5.78-4.45,3.49,1.8,6.36,7.16,6.36,11.76Z"/><path class="cls-11" d="m246.35,165.75l-6.12-3.53c-.36-.21-.66-.67-.66-1.03v-1.31c0-.36.29-.49.66-.28l6.12,3.53c.36.21.66.67.66,1.03v1.31c0,.36-.29.49-.66.28Z"/><path class="cls-11" d="m246.35,168.75l-6.12-3.53c-.36-.21-.66-.67-.66-1.03v-1.31c0-.36.29-.49.66-.28l6.12,3.53c.36.21.66.67.66,1.03v1.31c0,.36-.29.49-.66.28Z"/><line class="cls-20" x1="243.28" y1="141.92" x2="243.28" y2="139.79"/><line class="cls-20" x1="248.6" y1="147.99" x2="249.73" y2="147.14"/><line class="cls-20" x1="250.77" y1="156.38" x2="252.37" y2="157.3"/><line class="cls-20" x1="248.52" y1="162.17" x2="249.65" y2="164.33"/><line class="cls-20" x1="237.85" y1="155.91" x2="236.73" y2="156.76"/><line class="cls-20" x1="235.68" y1="147.52" x2="234.09" y2="146.6"/><line class="cls-20" x1="237.93" y1="141.73" x2="236.8" y2="139.57"/><polygon class="cls-11" points="316.49 142.82 312.02 140.24 312.02 133.71 316.49 136.29 316.49 142.82"/><polygon class="cls-11" points="323.58 146.91 319.1 144.33 319.1 130.96 323.58 133.54 323.58 146.91"/><polygon class="cls-11" points="330.66 151 326.19 148.42 326.19 127.95 330.66 130.53 330.66 151"/><path class="cls-11" d="m327.82,253.41c2.78-2.1,2.78-8.14,0-13.46-2.78-5.32-7.31-7.93-10.09-5.83-2.49,1.88-2.75,6.92-.78,11.77l-3.72,2.81c-.47.36-.47,1.38,0,2.28.47.9,1.24,1.34,1.71.99l3.72-2.81c2.78,4.23,6.67,6.14,9.16,4.25Zm-8.38-7.12c-1.84-3.52-1.84-7.51,0-8.9,1.84-1.39,4.84.34,6.68,3.86,1.84,3.52,1.84,7.51,0,8.9-1.84,1.39-4.84-.34-6.68-3.86Z"/><path class="cls-11" d="m452.04,269.28l.12.08-.16,4.24-.12-.08c-.86-.54-1.52-1.93-1.48-3.1.05-1.16.78-1.67,1.64-1.14Z"/><path class="cls-11" d="m454.89,279.49c-.05,1.16-.78,1.68-1.64,1.14l-.12-.08.16-4.24.13.08c.85.54,1.51,1.93,1.47,3.1Z"/><path class="cls-11" d="m452.84,261.64c-5.73-3.31-10.38.2-10.38,7.85s4.65,16.53,10.38,19.84c5.74,3.31,10.39-.21,10.39-7.85s-4.65-16.53-10.39-19.84Zm.34,20.84l-.12-.08-.05,1.17c-.02.52-.34.74-.72.5-.37-.23-.66-.84-.64-1.35l.04-1.17-1.93-1.22c-.38-.24-.67-.85-.65-1.36s.34-.74.72-.5l1.94,1.22.16-4.23-.13-.08c-1.6-1.02-2.84-3.62-2.76-5.81.09-2.19,1.46-3.15,3.07-2.14l.13.08.03-.87c.02-.51.34-.74.72-.5.37.24.66.84.64,1.36l-.03.86,1.93,1.22c.38.24.67.85.65,1.36s-.34.74-.72.5l-1.93-1.22-.17,4.24.13.07c1.6,1.02,2.84,3.62,2.76,5.81-.09,2.2-1.46,3.16-3.07,2.14Z"/><path class="cls-11" d="m405.18,261.58c-8.62-9.35-8.36-23.39-8.35-23.98l.06-2.24,1.7.86c3.42,1.73,6.09.6,6.11.59l1.14-.52,1.14,1.84s2.68,4.24,6.11,6.47l1.7,1.11.06,2.3c.02.61.27,14.94-8.35,14.34l-.66-.05-.66-.72Z"/><path class="cls-11" d="m380.94,170.24c0,7.64-4.65,11.16-10.39,7.85-5.73-3.31-10.38-12.2-10.38-19.84s4.65-11.16,10.38-7.85c5.74,3.31,10.39,12.19,10.39,19.84Z"/><polyline class="cls-21" points="366.61 156.58 370.03 165.09 376.68 168.12"/><path class="cls-11" d="m412.98,341.01v-4.03l-1.93-2.04c-.09-.42-.21-.85-.33-1.27l.88-1.97-2.14-4.08-1.86.1c-.26-.32-.53-.63-.8-.91l-.69-2.98-3.02-1.74-.7,2.18c-.28-.04-.54-.04-.8-.02l-1.86-2.25-2.14,1.62.88,2.99c-.13.28-.24.57-.33.88l-1.93-.19v4.03l1.93,2.04c.1.42.21.85.33,1.27l-.88,1.97,2.14,4.09,1.86-.1c.26.32.53.62.8.91l.7,2.98,3.02,1.74.69-2.18c.28.03.54.04.8.02l1.86,2.25,2.14-1.62-.88-2.98c.13-.28.24-.56.33-.88l1.93.19Zm-8.4-1.82c-2.09-1.2-3.78-4.44-3.78-7.22s1.69-4.06,3.78-2.86c2.09,1.2,3.78,4.44,3.78,7.22s-1.69,4.06-3.78,2.86Z"/><path class="cls-11" d="m414.56,354.96v-1.79l-.86-.91c-.04-.19-.09-.38-.15-.56l.39-.88-.95-1.82-.83.04c-.12-.14-.23-.28-.36-.41l-.31-1.33-1.34-.78-.31.97c-.12-.02-.24-.02-.36,0l-.83-1-.95.72.39,1.33c-.06.12-.11.25-.15.39l-.86-.09v1.79l.86.91c.04.19.09.38.15.56l-.39.88.95,1.82.83-.04c.12.14.23.28.36.41l.31,1.33,1.34.78.31-.97c.12.01.24.02.36,0l.83,1,.95-.72-.39-1.33c.06-.12.11-.25.15-.39l.86.08Zm-3.74-.81c-.93-.54-1.68-1.98-1.68-3.21s.75-1.81,1.68-1.27c.93.54,1.68,1.97,1.68,3.21s-.75,1.81-1.68,1.27Z"/></svg>