<?xml version="1.0" encoding="UTF-8"?><svg id="Layer_1" xmlns="http://www.w3.org/2000/svg" width="700" height="512" xmlns:xlink="http://www.w3.org/1999/xlink" viewBox="0 0 700 512"><defs><style>.cls-1{fill:url(#linear-gradient-12);}.cls-1,.cls-2,.cls-3,.cls-4,.cls-5,.cls-6,.cls-7,.cls-8,.cls-9,.cls-10,.cls-11,.cls-12,.cls-13,.cls-14,.cls-15,.cls-16,.cls-17,.cls-18,.cls-19,.cls-20,.cls-21,.cls-22,.cls-23,.cls-24,.cls-25,.cls-26,.cls-27,.cls-28,.cls-29,.cls-30,.cls-31,.cls-32,.cls-33,.cls-34{stroke-width:0px;}.cls-2{fill:url(#linear-gradient-17);}.cls-3{fill:url(#linear-gradient-19);}.cls-4{fill:url(#linear-gradient);}.cls-5{fill:#111;}.cls-5,.cls-17{opacity:.2;}.cls-6{fill:url(#linear-gradient-21);}.cls-7{fill:url(#linear-gradient-6);}.cls-35{stroke-width:1.3px;}.cls-35,.cls-36,.cls-37{fill:none;stroke-linecap:round;stroke-linejoin:round;}.cls-35,.cls-37{stroke:#000;}.cls-8{fill:#f7fafc;}.cls-9{opacity:.25;}.cls-11{opacity:.3;}.cls-12{opacity:.5;}.cls-12,.cls-23{fill:#fff;}.cls-13{opacity:.7;}.cls-14{fill:url(#linear-gradient-15);}.cls-15{fill:url(#linear-gradient-11);}.cls-16{fill:url(#linear-gradient-5);}.cls-18{fill:url(#linear-gradient-13);}.cls-19{fill:url(#linear-gradient-23);}.cls-20{fill:#ffa87e;}.cls-21{fill:url(#linear-gradient-16);}.cls-22{fill:url(#linear-gradient-22);}.cls-24{fill:url(#linear-gradient-20);}.cls-25{fill:url(#linear-gradient-14);}.cls-26{fill:url(#linear-gradient-2);}.cls-27{fill:url(#linear-gradient-7);}.cls-28{fill:url(#linear-gradient-3);}.cls-29{fill:url(#linear-gradient-9);}.cls-30{fill:url(#linear-gradient-8);}.cls-31{fill:url(#linear-gradient-18);}.cls-36{stroke:#fff;stroke-width:.75px;}.cls-32{fill:url(#linear-gradient-10);}.cls-37{stroke-width:2px;}.cls-33{fill:url(#linear-gradient-4);}.cls-34{opacity:.1;}</style><linearGradient id="linear-gradient" x1="283.59" y1="326.86" x2="578.24" y2="326.86" gradientUnits="userSpaceOnUse"><stop offset="0" stop-color="#1e1e1f"/><stop offset="1" stop-color="#000"/></linearGradient><linearGradient id="linear-gradient-2" x1="283.59" y1="319.16" x2="578.24" y2="319.16" gradientUnits="userSpaceOnUse"><stop offset="0" stop-color="#5a5b5b"/><stop offset="1" stop-color="#3a3a3a"/></linearGradient><linearGradient id="linear-gradient-3" x1="197.79" y1="157.68" x2="207.35" y2="250.14" xlink:href="#linear-gradient-2"/><linearGradient id="linear-gradient-4" x1="272.26" y1="384.16" x2="302.94" y2="384.16" gradientTransform="translate(465.67) rotate(-180) scale(1 -1)" gradientUnits="userSpaceOnUse"><stop offset=".04" stop-color="#242425"/><stop offset="1" stop-color="#000"/></linearGradient><linearGradient id="linear-gradient-5" x1="167.8" y1="244.73" x2="165.05" y2="370.16" gradientUnits="userSpaceOnUse"><stop offset="0" stop-color="#242425"/><stop offset="1" stop-color="#000"/></linearGradient><linearGradient id="linear-gradient-6" x1="298.41" y1="399.92" x2="329.09" y2="399.92" xlink:href="#linear-gradient-4"/><linearGradient id="linear-gradient-7" x1="-5704.48" y1="243.74" x2="-5696.77" y2="309.75" gradientTransform="translate(-5540.14) rotate(-180) scale(1 -1)" gradientUnits="userSpaceOnUse"><stop offset="0" stop-color="#000" stop-opacity="0"/><stop offset="1" stop-color="#000" stop-opacity=".2"/></linearGradient><linearGradient id="linear-gradient-8" x1="152.21" y1="244.39" x2="149.46" y2="369.82" gradientUnits="userSpaceOnUse"><stop offset="0" stop-color="#242425"/><stop offset="1" stop-color="#000"/></linearGradient><linearGradient id="linear-gradient-9" x1="305.18" y1="167.7" x2="307.61" y2="254.94" gradientTransform="translate(465.67) rotate(-180) scale(1 -1)" gradientUnits="userSpaceOnUse"><stop offset="0" stop-color="#ebebeb"/><stop offset="1" stop-color="#fff"/></linearGradient><linearGradient id="linear-gradient-10" x1="133.46" y1="164.47" x2="145.25" y2="278.5" xlink:href="#linear-gradient-2"/><linearGradient id="linear-gradient-11" x1="173.16" y1="160.37" x2="184.96" y2="274.39" xlink:href="#linear-gradient-2"/><linearGradient id="linear-gradient-12" x1="290.74" y1="150.19" x2="313.6" y2="150.19" gradientTransform="translate(465.67) rotate(-180) scale(1 -1)" gradientUnits="userSpaceOnUse"><stop offset="0" stop-color="#242424"/><stop offset=".99" stop-color="#000"/></linearGradient><linearGradient id="linear-gradient-13" x1="290.22" y1="147.65" x2="331.92" y2="147.65" xlink:href="#linear-gradient-12"/><linearGradient id="linear-gradient-14" x1="129.8" y1="164.85" x2="141.59" y2="278.88" xlink:href="#linear-gradient-2"/><linearGradient id="linear-gradient-15" x1="145.84" y1="166.01" x2="157.08" y2="274.62" xlink:href="#linear-gradient-2"/><linearGradient id="linear-gradient-16" x1="613.97" y1="462.69" x2="620.62" y2="473.87" gradientTransform="translate(-337.99)" xlink:href="#linear-gradient-4"/><linearGradient id="linear-gradient-17" x1="647.77" y1="478.13" x2="651.3" y2="494.12" gradientTransform="translate(-337.99)" xlink:href="#linear-gradient-4"/><linearGradient id="linear-gradient-18" x1="614.49" y1="338.02" x2="615.3" y2="476.85" gradientTransform="translate(-337.99)" xlink:href="#linear-gradient-4"/><linearGradient id="linear-gradient-19" x1="635.04" y1="337.9" x2="635.84" y2="476.73" gradientTransform="translate(-337.99)" xlink:href="#linear-gradient-4"/><linearGradient id="linear-gradient-20" x1="257.51" y1="248.65" x2="268.21" y2="361.61" gradientTransform="matrix(1,0,0,1,0,0)" xlink:href="#linear-gradient-4"/><linearGradient id="linear-gradient-21" x1="281.28" y1="245.26" x2="291.92" y2="357.61" gradientTransform="matrix(1,0,0,1,0,0)" xlink:href="#linear-gradient-4"/><linearGradient id="linear-gradient-22" x1="602.95" y1="211.27" x2="641.92" y2="211.27" gradientTransform="translate(-337.99)" gradientUnits="userSpaceOnUse"><stop offset="0" stop-color="#232323"/><stop offset="1" stop-color="#000"/></linearGradient><linearGradient id="linear-gradient-23" x1="307.8" y1="242.49" x2="318.46" y2="355.09" gradientTransform="matrix(1,0,0,1,0,0)" xlink:href="#linear-gradient-4"/></defs><path class="cls-9" d="m555.59,413.21l-273.9-159.8c-4.43-2.56-3.88-7.03,1.24-9.99l3.45-2.19c5.12-2.96,12.87-3.28,17.3-.72l273.9,159.8c4.43,2.56,3.88,7.03-1.24,9.99l-3.45,2.19c-5.12,2.96-12.87,3.28-17.3.72Z"/><path class="cls-4" d="m572.84,395.68l-284.5-152.86-4.75.04v5.91h0c.07,1.46,1,2.84,2.81,3.88l268.38,156.64c4.16,2.4,11.44,2.1,16.25-.67l3.24-2.06c2.65-1.53,4-3.49,3.98-5.35h0v-5.57l-5.4.04Z"/><path class="cls-26" d="m554.78,403.53l-268.38-156.64c-4.16-2.4-3.64-6.6,1.17-9.38l3.24-2.06c4.81-2.78,12.08-3.08,16.25-.67l268.38,156.64c4.16,2.4,3.64,6.6-1.17,9.38l-3.24,2.06c-4.81,2.78-12.08,3.08-16.25.67Z"/><path class="cls-12" d="m562.49,395.15l-261.56-155.29c-6.3-3.64-11.4-11.69-11.4-17.99V17.5c0-6.3,5.1-8.46,11.4-4.82l261.56,151.28c6.3,3.64,11.4,11.69,11.4,17.99v208.39c0,6.3-5.11,8.46-11.4,4.82Z"/><path class="cls-23" d="m299.49,20.29c-1.4-.81-2.53-.16-2.53,1.44s1.12,3.56,2.52,4.36c1.4.81,2.53.16,2.54-1.44s-1.12-3.56-2.52-4.36h0Z"/><path class="cls-23" d="m306.52,24.35c-1.4-.81-2.53-.16-2.53,1.44s1.12,3.56,2.52,4.36c1.4.81,2.53.16,2.54-1.44s-1.12-3.56-2.52-4.36h0Z"/><path class="cls-23" d="m313.55,28.41c-1.4-.81-2.53-.16-2.53,1.44s1.12,3.56,2.52,4.36c1.4.81,2.53.16,2.54-1.44s-1.12-3.56-2.52-4.36h0Z"/><ellipse class="cls-10" cx="542.51" cy="259.28" rx="11.03" ry="19.5" transform="translate(-58.21 233.12) rotate(-23.05)"/><path class="cls-10" d="m391.83,133.31l-10.94-6.32c-4.27-2.47-7.73-7.93-7.73-12.2v-18.4c0-4.27,3.46-5.74,7.73-3.27l10.94,6.32c4.27,2.47,7.73,7.93,7.73,12.2v18.4c0,4.27-3.46,5.74-7.73,3.27Z"/><path class="cls-10" d="m434.64,158.03l-10.94-6.32c-4.27-2.47-7.73-7.93-7.73-12.2v-18.4c0-4.27,3.46-5.73,7.73-3.27l10.94,6.32c4.27,2.47,7.73,7.93,7.73,12.2v18.4c0,4.27-3.46,5.74-7.73,3.27Z"/><path class="cls-10" d="m465.6,232.08l-10.94-6.32c-4.27-2.47-7.73-7.93-7.73-12.2v-18.4c0-4.27,3.46-5.73,7.73-3.27l10.94,6.32c4.27,2.47,7.73,7.93,7.73,12.2v18.4c0,4.27-3.46,5.74-7.73,3.27Z"/><path class="cls-10" d="m506.59,255.75l-10.94-6.32c-4.27-2.47-7.73-7.93-7.73-12.2v-18.4c0-4.27,3.46-5.74,7.73-3.27l10.94,6.32c4.27,2.47,7.73,7.93,7.73,12.2v18.4c0,4.27-3.46,5.74-7.73,3.27Z"/><path class="cls-10" d="m465.6,310.88l-10.94-6.32c-4.27-2.47-7.73-7.93-7.73-12.2v-18.4c0-4.27,3.46-5.74,7.73-3.27l10.94,6.32c4.27,2.47,7.73,7.93,7.73,12.2v18.4c0,4.27-3.46,5.74-7.73,3.27Z"/><path class="cls-10" d="m391.83,228.2l-10.94-6.32c-4.27-2.47-7.73-7.93-7.73-12.2v-18.4c0-4.27,3.46-5.74,7.73-3.27l10.94,6.32c4.27,2.47,7.73,7.93,7.73,12.2v18.4c0,4.27-3.46,5.73-7.73,3.27Z"/><line class="cls-35" x1="332.66" y1="138.7" x2="349.03" y2="148.15"/><ellipse class="cls-10" cx="318.31" cy="130.42" rx="11.03" ry="19.5" transform="translate(-25.65 135.05) rotate(-23.05)"/><path class="cls-10" d="m347.38,145.33v3.95c0,.1.1.17.2.14l2.13-.74c.09-.03.13-.14.07-.22l-2.13-3.21c-.08-.12-.27-.06-.27.08Z"/><path class="cls-35" d="m371.34,200.24l-10.69-6.17c-3.34-1.93-6.05-7.1-6.05-11.56v-79.48c0-4.45,2.71-6.5,6.05-4.57l10.69,6.17"/><path class="cls-10" d="m370.09,197.72v3.95c0,.1.1.17.2.14l2.13-.74c.09-.03.13-.14.07-.22l-2.13-3.21c-.08-.12-.27-.06-.27.08Z"/><path class="cls-10" d="m370.09,102.09v3.95c0,.1.1.17.2.14l2.13-.74c.09-.03.13-.14.07-.22l-2.13-3.21c-.08-.12-.27-.06-.27.08Z"/><path class="cls-35" d="m444.8,281.81l-14.39-8.31c-3.34-1.93-6.05-7.1-6.05-11.56v-62.45c0-4.45,2.71-6.5,6.05-4.57l14.39,8.31"/><path class="cls-10" d="m443.56,279.29v3.95c0,.1.1.17.2.14l2.13-.74c.09-.03.13-.14.07-.22l-2.13-3.21c-.08-.12-.27-.06-.27.08Z"/><path class="cls-10" d="m443.56,200.69v3.95c0,.1.1.17.2.14l2.13-.74c.09-.03.13-.14.07-.22l-2.13-3.21c-.08-.12-.27-.06-.27.08Z"/><path class="cls-35" d="m443.88,146.34l10.28,5.94c3.34,1.93,6.05,7.1,6.05,11.56v28.4"/><path class="cls-10" d="m461.8,191.5l-2.97-1.71c-.12-.07-.26.05-.21.18l1.48,3.71c.04.11.19.13.26.03l1.48-2c.05-.07.03-.17-.04-.22Z"/><path class="cls-35" d="m475,299.03l19.99,11.54c3.34,1.93,6.05-.12,6.05-4.57v-50.2"/><path class="cls-10" d="m502.4,258.24l-2.97-1.71c-.08-.04-.1-.15-.04-.22l1.48-2c.07-.09.21-.07.26.03l1.48,3.71c.05.13-.09.25-.21.18Z"/><line class="cls-35" x1="417.91" y1="227.13" x2="401.16" y2="217.46"/><path class="cls-10" d="m416.67,224.6v3.95c0,.1.1.17.2.14l2.13-.74c.09-.03.13-.14.07-.22l-2.13-3.21c-.08-.12-.27-.06-.27.08Z"/><line class="cls-35" x1="400.91" y1="121.71" x2="413.81" y2="129.16"/><path class="cls-10" d="m412.74,126.71v3.95c0,.1.1.17.2.14l2.13-.74c.09-.03.13-.14.07-.22l-2.13-3.21c-.08-.12-.27-.06-.27.08Z"/><line class="cls-35" x1="475.03" y1="220.77" x2="485.87" y2="227.03"/><path class="cls-10" d="m484.8,224.59v3.95c0,.1.1.17.2.14l2.13-.74c.09-.03.13-.14.07-.22l-2.13-3.21c-.08-.12-.27-.06-.27.08Z"/><line class="cls-35" x1="516.03" y1="244.44" x2="527.4" y2="251.01"/><path class="cls-10" d="m526.33,248.57v3.95c0,.1.1.17.2.14l2.13-.74c.09-.03.13-.14.07-.22l-2.13-3.21c-.08-.12-.27-.06-.27.08Z"/><path class="cls-10" d="m359.07,153.28l-3.74-7.14c-.37-.7-1.27-.9-1.9-.43l-2.87,2.17c-.5.38-.65,1.06-.36,1.61l3.74,7.14c.37.7,1.27.9,1.9.43l2.87-2.17c.5-.38.65-1.06.36-1.61Z"/><path class="cls-10" d="m428.83,232.62l-3.74-7.14c-.37-.7-1.27-.9-1.9-.43l-2.87,2.17c-.5.38-.65,1.06-.36,1.61l3.74,7.14c.37.7,1.27.9,1.9.43l2.87-2.17c.5-.38.65-1.06.36-1.61Z"/><path class="cls-23" d="m539.26,265.42c-.21,0-.41-.04-.61-.11-.44-.16-.8-.49-.99-.92l-3.17-7.02c-.4-.88,0-1.92.88-2.31.88-.4,1.92,0,2.32.88l2.44,5.4,8.24-3.87c.88-.41,1.92-.04,2.33.84.41.87.03,1.92-.84,2.33l-9.84,4.62c-.24.11-.49.17-.74.17Z"/><path class="cls-23" d="m319.64,142.13v.62c0,.72-.44,1.05-.98.74l-2.22-1.29c-.54-.31-.98-1.15-.98-1.86v-.63l4.18,2.41Z"/><path class="cls-23" d="m317.71,128.69l.95-.43-.17,7.65-1.82-1.06-.17-7.56.8,1.28c.09.14.26.18.41.12Z"/><path class="cls-23" d="m322.86,130.27c0,2.13-.71,3.63-1.83,4.29-.58.33-.94,1.07-1.02,2.02,0,.1-.1.15-.18.1l-.68-.39.19-8.52c0-.11-.05-.22-.14-.29-.1-.06-.22-.07-.31-.03l-1.17.52-1.28-2.05c-.08-.12-.24-.18-.38-.14s-.24.17-.23.32l.18,8.36-.69-.4c-.13-.08-.21-.21-.23-.36-.09-1.07-.47-2.22-1.06-3.24-1.15-2.01-1.85-4.42-1.79-6.61.1-3.6,2.32-5.31,5.06-3.89,3.05,1.57,5.56,6.26,5.56,10.29Z"/><path class="cls-23" d="m320.22,139.54l-5.35-3.09c-.32-.18-.57-.59-.57-.9v-1.14c0-.32.26-.43.57-.24l5.35,3.09c.32.18.57.59.57.9v1.14c0,.32-.26.43-.57.24Z"/><path class="cls-23" d="m320.22,142.17l-5.35-3.09c-.32-.18-.57-.59-.57-.9v-1.14c0-.32.26-.43.57-.24l5.35,3.09c.32.18.57.59.57.9v1.14c0,.32-.26.43-.57.24Z"/><line class="cls-36" x1="317.54" y1="118.7" x2="317.54" y2="116.83"/><line class="cls-36" x1="322.19" y1="124.01" x2="323.18" y2="123.26"/><line class="cls-36" x1="324.09" y1="131.34" x2="325.49" y2="132.15"/><line class="cls-36" x1="322.12" y1="136.41" x2="323.11" y2="138.3"/><line class="cls-36" x1="312.79" y1="130.93" x2="311.8" y2="131.68"/><line class="cls-36" x1="310.89" y1="123.59" x2="309.49" y2="122.79"/><line class="cls-36" x1="312.86" y1="118.52" x2="311.87" y2="116.64"/><polygon class="cls-23" points="381.6 119.48 377.68 117.22 377.68 111.51 381.6 113.77 381.6 119.48"/><polygon class="cls-23" points="387.8 123.06 383.88 120.8 383.88 109.1 387.8 111.36 387.8 123.06"/><polygon class="cls-23" points="393.99 126.64 390.08 124.38 390.08 106.47 393.99 108.73 393.99 126.64"/><path class="cls-23" d="m391.51,216.25c2.43-1.84,2.43-7.12,0-11.77-2.43-4.65-6.4-6.94-8.83-5.1-2.18,1.65-2.41,6.05-.68,10.3l-3.25,2.46c-.41.31-.41,1.2,0,1.99.41.79,1.08,1.17,1.49.86l3.25-2.46c2.44,3.7,5.84,5.37,8.02,3.72Zm-7.34-6.23c-1.61-3.08-1.61-6.57,0-7.79,1.61-1.22,4.23.3,5.84,3.37,1.61,3.08,1.61,6.57,0,7.79-1.61,1.22-4.23-.3-5.84-3.37Z"/><path class="cls-23" d="m500.2,230.13l.1.07-.14,3.71-.1-.07c-.75-.47-1.33-1.69-1.29-2.71.04-1.01.68-1.46,1.43-1Z"/><path class="cls-23" d="m502.69,239.06c-.04,1.01-.68,1.47-1.43,1l-.1-.07.14-3.71.11.07c.74.47,1.32,1.69,1.29,2.71Z"/><path class="cls-23" d="m500.9,223.44c-5.01-2.9-9.08.17-9.08,6.87s4.07,14.46,9.08,17.36c5.02,2.9,9.09-.18,9.09-6.87s-4.07-14.46-9.09-17.36Zm.3,18.23l-.1-.07-.04,1.02c-.02.45-.3.65-.63.44-.32-.2-.58-.73-.56-1.18l.03-1.02-1.69-1.07c-.33-.21-.59-.74-.57-1.19s.3-.65.63-.44l1.7,1.07.14-3.7-.11-.07c-1.4-.89-2.48-3.17-2.41-5.08.08-1.92,1.28-2.76,2.69-1.87l.11.07.03-.76c.02-.45.3-.65.63-.44.32.21.58.73.56,1.19l-.03.75,1.69,1.07c.33.21.59.74.57,1.19s-.3.65-.63.44l-1.69-1.07-.15,3.71.11.06c1.4.89,2.48,3.17,2.41,5.08-.08,1.92-1.28,2.76-2.69,1.87Z"/><path class="cls-23" d="m459.19,223.39c-7.54-8.18-7.32-20.46-7.31-20.98l.05-1.96,1.49.75c2.99,1.51,5.33.53,5.35.52l1-.45,1,1.61s2.35,3.71,5.35,5.66l1.49.97.05,2.02c.01.53.24,13.07-7.31,12.54l-.58-.04-.58-.63Z"/><path class="cls-23" d="m437.98,143.47c0,6.68-4.07,9.76-9.09,6.87-5.01-2.9-9.08-10.67-9.08-17.36s4.07-9.76,9.08-6.87c5.02,2.9,9.09,10.67,9.09,17.36Z"/><polyline class="cls-37" points="425.45 131.52 428.44 138.96 434.26 141.62"/><path class="cls-23" d="m466.02,292.89v-3.53l-1.69-1.78c-.08-.37-.18-.74-.29-1.11l.77-1.73-1.87-3.57-1.63.09c-.23-.28-.46-.55-.7-.8l-.61-2.61-2.64-1.53-.61,1.91c-.24-.03-.48-.03-.7-.02l-1.63-1.96-1.87,1.41.77,2.61c-.11.24-.21.5-.29.77l-1.69-.17v3.53l1.69,1.79c.08.37.18.74.29,1.11l-.77,1.72,1.87,3.58,1.63-.09c.23.28.46.54.7.8l.61,2.61,2.64,1.53.61-1.91c.24.03.48.03.7.02l1.63,1.96,1.87-1.42-.77-2.61c.11-.24.21-.49.29-.77l1.69.17Zm-7.35-1.59c-1.82-1.05-3.31-3.88-3.31-6.32s1.48-3.55,3.31-2.5c1.82,1.05,3.31,3.88,3.31,6.32s-1.48,3.55-3.31,2.5Z"/><path class="cls-23" d="m467.4,305.1v-1.57l-.75-.79c-.04-.16-.08-.33-.13-.49l.34-.77-.83-1.59-.72.04c-.1-.13-.21-.24-.31-.35l-.27-1.16-1.18-.68-.27.85c-.11-.01-.21-.02-.31,0l-.72-.87-.83.63.34,1.16c-.05.11-.09.22-.13.34l-.75-.08v1.57l.75.8c.04.17.08.33.13.49l-.34.77.83,1.59.72-.04c.1.12.21.24.31.35l.27,1.16,1.18.68.27-.85c.11.01.21.01.31,0l.72.87.83-.63-.34-1.16c.05-.11.09-.22.13-.34l.75.07Zm-3.27-.71c-.81-.47-1.47-1.73-1.47-2.81s.66-1.58,1.47-1.11c.81.47,1.47,1.73,1.47,2.81s-.66,1.58-1.47,1.11Z"/><path class="cls-20" d="m258.26,188.48c-2.75-2.13-11.85.32-11.85.32,0,0,1.33-2.45,1.49-3.04.18-.62.16-3.17-2.67-1.82-2.82,1.35-7.85,7.17-7.85,7.17l-4.47,1.99,1.01,7.13s5.88.27,8.76.62c3.89.47,14.66-.43,15.68-1.45,1.71-1.71,2.13-9.18-.12-10.92Z"/><path class="cls-28" d="m236.2,200.83s-29.6,7.69-33.35,6.88c-.13-.03-.28-.08-.43-.16-2.38-.74-8.2-4.2-14.62-8.99-3.01-2.26-6.16-4.8-9.14-7.52-9.7-8.78-17.72-19.21-14.06-26.51,1.67-2.48,4.82-4.33,8.42-2.66,7.88,3.68,27.66,22.86,32.87,29.93.13-.01.26-.03.39-.04l28.55-.27c.21.09,1.72,1.32,2.16,4.32.41,2.73-.56,4.79-.78,5.01Z"/><path class="cls-9" d="m177.56,374.23c2.28.39,20.78,12.72,23.31,24.73,2.53,12.01-17.91,4.64-24.02,10.33-6.11,5.69-11.38,18.12-27.81,11.59-16.44-6.53-22.97-26.97-12.22-30.55,10.75-3.58,16.86,9.06,21.91-.42,5.06-9.48,5.01-18.06,18.84-15.67Z"/><path class="cls-33" d="m166.11,367.81s-1.82.1-2.71,1.48c-.89,1.38-.74,7.58-.49,9.55s2.48,7.61,2.76,11.03c0,0,.79.59,1.38.59s.94-.44.94-.44l.44-4.68s2.17,7.92,4.53,10.88c2.36,2.95,8.42,4.53,12.55,4.63,4.13.1,7.24-.89,7.58-1.53.34-.64,1.08-1.72-2.26-5.61-3.35-3.89-9.84-11.72-12.16-14.62-2.31-2.9-9.89-11.62-9.89-11.62l-2.66.34Z"/><path class="cls-20" d="m177.04,367.47s.98,8.37,2.85,12.21c1.87,3.84,5.41,8.66,5.12,9.55-.3.89-4.63,3.25-8.86.89-4.23-2.36-8.37-8.76-9.35-12.5-.98-3.74-2.07-7.58-2.07-7.58,0,0,1.18-2.76,1.58-5.51.39-2.76,10.73,2.95,10.73,2.95Z"/><path class="cls-16" d="m150.4,261.57c.87,7.58,4.31,17.85,7.29,27.49,2.1,6.78,3.97,13.25,4.54,18.25.22,1.86.25,3.52.06,4.91-1.49,10.44-2.35,14.49-1.28,23.44,1.07,8.95,3.71,27.23,3.94,30.79,0,0-.1,3.3,6.28,3.94,6.39.64,7.03-1.91,7.03-1.91,0,0,.43-38.99,2.77-47.51,2.34-8.52,1.7-17.77,2.55-27.14.85-9.37,1.26-44.88,1.26-44.88l-22.99-13.4s-13.17,11.13-11.47,26.05Z"/><path class="cls-7" d="m139.96,383.57s-1.82.1-2.71,1.48c-.89,1.38-.74,7.58-.49,9.55s2.48,7.61,2.76,11.03c0,0,.79.59,1.38.59s.94-.44.94-.44l.44-4.68s2.17,7.92,4.53,10.88c2.36,2.95,8.42,4.53,12.55,4.63,4.13.1,7.24-.89,7.58-1.53.34-.64,1.08-1.72-2.26-5.61-3.35-3.89-9.84-11.71-12.16-14.62-2.31-2.9-9.89-11.62-9.89-11.62l-2.66.34Z"/><path class="cls-20" d="m150.89,383.23s.98,8.37,2.85,12.21c1.87,3.84,5.41,8.66,5.12,9.55-.3.89-4.63,3.25-8.86.89-4.23-2.36-8.37-8.76-9.35-12.5-.98-3.74-2.07-7.58-2.07-7.58,0,0,1.18-2.76,1.58-5.51.39-2.76,10.73,2.95,10.73,2.95Z"/><path class="cls-27" d="m154.96,272.64l2.73,16.42c2.1,6.78,3.97,13.25,4.54,18.25,2.08-14.97,6.06-38.55,6.06-38.55,0,0-.59-17.69.79-25.05-2.5.14-5.05.78-7.31,2.31-7.88,5.33-6.82,26.63-6.82,26.63Z"/><path class="cls-30" d="m135.79,250.7s-8.1,10.65-6.39,25.57c1.7,14.91,8.31,40.69,6.82,51.13-1.49,10.44-2.34,14.49-1.28,23.44,1.07,8.95,3.71,27.23,3.94,30.79,0,0-.11,3.3,6.29,3.94,6.39.64,7.03-1.92,7.03-1.92,0,0,.43-38.99,2.77-47.51,2.34-8.52,3.2-11.72,4.05-21.09.85-9.37,2.74-39.17,2.74-39.17,0,0,7.7-5.47,10.26-8.66,2.56-3.2,2.56-19.17,2.56-19.17l-38.78,2.66Z"/><path class="cls-20" d="m148.95,167.74c-.23,5.2,14.96,30.66,19.51,30.89,2.76.14-5.1-29.79-5.1-29.79-1.18-3.34-.71-5.6-.71-5.6,0,0-10.69-9.6-10.95-5.98-.05.66-.18,1.4-.35,2.17-.79,3.45-2.36,7.53-2.4,8.3Z"/><path class="cls-34" d="m150.74,161.56c1.03,2.31,3.02,4.72,6.61,7.58,2.61,2.09,5.36,3.42,7.98,4.16.19-1.01.09-1.83.09-1.83-1.64-3.77-1.28-6.42-1.28-6.42,0,0-13.17-10.25-13.17-6.03,0,.77-.09,1.64-.23,2.55Z"/><path class="cls-29" d="m167.04,196.26s-15.26-20.04-22.07-34.8c0,0-8.1,10.35-11.45,15.86-3.34,5.5,10.49,25.14,12.6,37.92,2.11,12.77-4.46,38.35-4.46,38.35,0,0,14.97,6.01,27.79,3.04,12.82-2.98,16-11.11,16-11.11,0,0-7.68-11.9-6.43-19.26,1.25-7.36,6-11.92,5.64-18.92-.37-7.01-6.4-19.84-8.22-24.01-1.82-4.17-7.18-18.86-7.18-18.86l-7.44-2.57s4.64,26.87,5.2,34.36Z"/><path class="cls-32" d="m124.91,267.25c.68,1.65,4.06,5.33,8.4,8.32,3.87,2.67,8.5,4.8,12.67,4.47,3.69-.29,8.53,1.13,11.2-13.87,2.67-15,1.7-58.29-2.36-72.62-4.06-14.33-14.2-26.61-14.2-26.61-1.01-.16-5.73,3.74-11.13,9.73-5.19,5.74-4.93,10.02-2.05,20.04.12.41.24.84.37,1.27,3.22,10.94,10.65,24.1,8.61,35.21-2.03,11.1-12.8,30.94-11.51,34.06Z"/><path class="cls-5" d="m161.11,228.91l-12.91-1.88c1.66-27.9-9.69-33.75-9.69-33.75l-5.34-2.11-5.73,5.54c.12.41.24.84.37,1.28,2.48,8.43,7.46,18.18,8.68,27.3.36,2.71.39,5.37-.07,7.91-.38,2.05-1.05,4.41-1.89,6.9-3.71,10.97-10.67,24.61-9.62,27.16.69,1.65,4.07,5.33,8.4,8.32-2.1-7.8,3.76-23.06,7.28-35.44,8.62,1.3,17.46.39,18.32-.01l1.55-2.51c.26-.18,2.37-1.66,2.55-4.41.2-3.04-1.73-4.14-1.91-4.28Z"/><path class="cls-5" d="m187.8,198.56c-3.01-2.26-6.16-4.8-9.14-7.52-4-12.8-2.97-17.87-.17-13.99,2.97,4.12,6.88,11.8,9.31,21.5Z"/><path class="cls-15" d="m165.24,161.56s6.04,16.5,10.3,29.82c2.56,7.99,5.15,18.7,3.3,24.94-1.85,6.24-4.11,37.52,1.74,51.14,0,0,4.27-1.93,6.16-4.67,1.89-2.74-2.98-22.94-3.34-30.92-.35-7.99,4.31-17.1,2.08-29.01-2.22-11.91-6.85-22.26-8.07-26.98-1.21-4.72-1.48-11.66-3.28-13.43-1.8-1.77-7.69-1.15-8.9-.89Z"/><path class="cls-1" d="m174.93,141.43s-7.54,12.01-1.92,25.17c0,0-25.08-7.58-20.36-23.52,4.72-15.94,17.7-7.86,22.27-1.65Z"/><path class="cls-20" d="m171.85,141.88s.15,14.12-1.54,19.03c-1.52,4.4-11.49,6.22-19.98-.56-8.49-6.77-7.28-10.78-6.18-17.62,1.1-6.84,6.68-13.09,16.43-12.16,9.74.94,11.08,6.83,11.28,11.3Z"/><path class="cls-18" d="m175.35,135.21c.03,2.84,1.43,10.99-7.56,12.29-7.9,1.14-19.87.17-14.83,27.08,0,0-11.37-.86-17.1-13.66-5.74-12.8.93-33.36,10.94-34.86,0,0,3.37-5.2,11.13-5.35,7.76-.15,17.36,7.92,17.42,14.49Z"/><path class="cls-25" d="m140.48,180.37c3.2,13.6,6.67,48.84,1.58,55.03-5.69,6.92-11.34,1.69-13.3-1.45-2.48-3.97-11.78-56.73,4.76-59,2.98-.04,6.05,1.57,6.96,5.42Z"/><path class="cls-14" d="m171.23,237.4c-1.82.84-33.73,2.58-37.22,1-2.53-1.14-7.21-12.49,2.25-14.71,1.47-.34,3-.37,4.49-.15l30.97,4.76c.18.14,3.12,1.19,2.92,4.23-.18,2.75-3.41,4.86-3.41,4.86Z"/><path class="cls-20" d="m171.31,229.53c.14-.18,1.81-.2,1.81-.2,0,0,4.85-1.88,6.05-2.35.48-.19.9-.3,1.29-.37h0s.07-.02.19-.04c.02,0,.04,0,.05,0,.89-.14,4.01-.58,4.68-.09.75.55-2.57,2.5-5.11,3.28.32.16,7.48-1.51,9.02-.36.94.7,1.5,3.77,1.1,7.46-.22,2.02-4.29,4.94-8.61,4.03-4.15-.88-9.88-4.51-9.88-4.51,0,0-1.19-.05-1.27-.25-1.07-2.76.13-5.93.67-6.6Z"/><path class="cls-17" d="m304.85,505.12c-4.1-.08-8.25-.72-12-2.38-3.75-1.66-7.1-4.41-9.04-8.03-1.11-2.07-1.76-4.43-3.35-6.16-3.43-3.76-9.77-3.18-13.65-6.48-2.3-1.96-3.4-5.1-3.33-8.13.07-3.03,1.18-5.95,2.68-8.58,3.97-6.95,11.04-12.27,18.98-13.27,7.94-1,16.51,2.77,20.42,9.75,2.67,4.76,3.35,10.87,7.6,14.29,2.29,1.84,5.27,2.57,8.18,2.94,2.91.37,5.88.45,8.72,1.21,3.39.91,6.9,3.11,7.62,6.8.48,2.44.47,5.09-1.26,7.04-1.74,1.96-4.38,3.08-6.63,4.32-3.58,1.99-7.23,3.7-11.17,4.85-3.98,1.15-8.12,1.78-12.26,1.84-.5,0-1.01,0-1.51,0Z"/><path class="cls-21" d="m269.64,467.02s-1.96,9.69-.98,11.32c.98,1.63,10.12,2.94,11.54,1.2,1.42-1.74,10.71-13.21,11.34-15.15.64-1.94-.59-7.34-5.42-8.45-4.83-1.11-16.48,11.08-16.48,11.08Z"/><path class="cls-2" d="m296.17,480.87s-2.96,9.37-1.66,11.98c1.29,2.61,2.38,4.27,5.76,4.01,3.38-.26,11.38.42,13.5,0,2.12-.42,12.08,1.86,15.02-1.4,2.94-3.27,2.96-8.33-.89-9.8-3.85-1.47-19.52-4.79-19.52-4.79h-12.2Z"/><path class="cls-31" d="m260.89,345.61c.04,2.51.17,5.41.42,8.75,1.02,14.06,5.45,49.46,5.45,49.46,0,0-1.31,16.61-1.31,26.32s3.73,37.66,3.73,37.66c0,0,5.58,4.15,10.35,1.87,1.1-.52,2.01-1.18,2.78-1.85,2.57-2.28,3.42-4.98,3.42-4.98l.83-62.9,1.54-18.49,1.7-18.31.71-7.71,1.29-14.06.35-3.67-29.1-3.82-1.74-.23s-.1.64-.21,1.93c-.14,1.89-.31,5.21-.21,10.02Z"/><path class="cls-11" d="m280.01,402.88l2.3,64.94c2.57-2.28,3.42-4.98,3.42-4.98l.83-62.9,1.54-18.49,1.7-18.31-4.83-3.55-4.96,43.28Z"/><path class="cls-3" d="m275.86,340.55s1.72,5.5,4.13,13.44c2.38,7.78,5.41,17.92,8.11,27.46,3.88,13.65,8.75,27.86,8.44,30.53-1.26,10.64-2.89,25.56-2.62,42.67.15,9.83.37,29.85.37,29.85,5.91,2.59,8.77,2.38,12.4,1.39,3.51-.93,5.62-2.43,5.62-2.43,0,0,6.39-70.12,6.33-73.85-.06-3.73-.44-66.84-.44-66.84l-26.4-1.39-15.95-.83Z"/><path class="cls-11" d="m260.89,345.61c1.95,1.91,5.21,3.98,10.56,5.99,2.74,1.02,5.62,1.82,8.54,2.39,3.51.73,7.09,1.18,10.52,1.45,12.07.91,22.36-.54,22.36-.54,0,0-1.06,48.15,0,59.56.93,9.95-4.71,59-6.18,71.43,3.51-.93,5.62-2.43,5.62-2.43,0,0,6.39-70.12,6.33-73.85-.06-3.73-.44-66.84-.44-66.84l-26.4-1.39.35-3.67-29.1-3.82-1.95,1.7c-.14,1.89-.31,5.21-.21,10.02Z"/><path class="cls-24" d="m271.96,295.08l-2.06,34.28s-.41-.48-1.1-1.29c-1.97-2.33-6.2-7.39-9.45-11.82-.43-.58-.83-1.16-1.21-1.71-1.47-2.11-2.57-3.95-2.92-5.11-1.43-4.6-6.43-38.06-6.22-48.84.21-10.77,7.28-16.68,7.28-16.68l2.53,8.22,13.15,42.95Z"/><path class="cls-13" d="m270.79,295.08l-1.99,32.99c-1.97-2.33-6.2-7.39-9.45-11.82-.43-.58-.83-1.16-1.21-1.71-.22-9.48-.79-18.45-2.05-23.46-3.51-14.05-4.94-32.79.85-38.33.23-.21.47-.42.7-.62l13.15,42.95Z"/><path class="cls-6" d="m318.9,346.34v.02s-1.14.81-3.21,1.87c-1.18.61-2.66,1.3-4.41,1.97-5.26,2-12.84,3.79-21.61,2.51-16.77-2.5-30.84-15.1-30.84-15.1,0,0,1.87-43.8-1.66-57.88-3.51-14.06-7.1-29.86-1.3-35.4,5.79-5.57,15.77-6.82,22-4.54,6.19,2.28,30.41,8.92,34.27,15.66,1.78,3.11,2.49,10.29,2.73,18.22v.02c.37,12.03-.34,25.77.02,29.47.01.06,3.93,42.38,4.01,43.18Z"/><path class="cls-20" d="m301.66,204.53s2.48,16.23,1.03,20.89c-1.45,4.66-9.35,8.44-20.29,3.65-10.95-4.79-12.5-24.76-7.12-27.86,5.38-3.1,24.21-4.53,26.38,3.32Z"/><path class="cls-20" d="m295.21,227.96l-.21,15.24s-15.4.88-20.44-4.36l1.31-17.52,19.34,6.64Z"/><path class="cls-22" d="m296.42,214.28s7.82-1.66,7.5-12.69c-.32-11.04-13.7-13.79-24.32-11.31-10.62,2.48-11.17,11.58-11.17,11.58,0,0-3.03,1.39-3.45,6.63-.41,5.24,7.31,20.22,11.03,22.8,3.72,2.58,11.01,2.4,11.71-.48s-2.19-12.67,1.12-12.94c3.31-.28,5.79,4.14,5.79,4.14l2.62-1.68-.83-6.05Z"/><path class="cls-8" d="m270.9,239.56l3.52-3.87s11.6,5.07,21.31,6.53l1.37,4.64s-17.62,2.75-26.21-7.3Z"/><path class="cls-20" d="m340.65,364.32c1.39-3.6-4.08-12.49-4.08-12.49,0,0,3.02.63,3.7.63.71,0,3.42-.84,1.1-3.41-2.32-2.57-10.09-6.08-10.09-6.08l-3.52-4.12-7.26,3.33s1.57,6.33,2.1,9.51c.72,4.28,5.08,15.44,6.49,16.2,2.36,1.28,10.42-.64,11.56-3.57Z"/><path class="cls-13" d="m318.9,346.34v.02s-1.14.81-3.21,1.87c-3.75-9.18-8.85-22.02-10.12-26.82-2.52-9.45-13.76-46.13-3.53-54.39,7.02-5.67,10.86-.38,12.83,6.65v.02c.37,12.03-.34,25.77.02,29.47.01.06,3.93,42.38,4.01,43.18Z"/><path class="cls-19" d="m329.59,340.6s-1.27,6.33-9.54,5.21c0,0-12.21-29.1-14.29-36.92-2.51-9.46-13.75-46.13-3.52-54.39,10.17-8.22,13.67,6.6,14.48,16.35.48,5.8,3.5,30.56,3.5,30.56l9.37,39.19Z"/></svg>