<?xml version="1.0" encoding="UTF-8"?>
<svg xmlns="http://www.w3.org/2000/svg" xmlns:xlink="http://www.w3.org/1999/xlink" viewBox="0 0 1920 1080">
  <defs>
    <style>
      .cls-1 {
        fill: #bf2026;
        filter: url(#drop-shadow-3);
      }

      .cls-2 {
        fill: #fff;
        filter: url(#drop-shadow-11);
      }
    </style>
    <filter id="drop-shadow-3" x="481" y="10" width="880" height="1078" filterUnits="userSpaceOnUse">
      <feOffset dx="-5" dy="5"/>
      <feGaussianBlur result="blur" stdDeviation="5"/>
      <feFlood flood-color="#000" flood-opacity=".75"/>
      <feComposite in2="blur" operator="in"/>
      <feComposite in="SourceGraphic"/>
    </filter>
    <filter id="drop-shadow-11" x="642" y="335" width="117" height="113" filterUnits="userSpaceOnUse">
      <feOffset dx="-5" dy="5"/>
      <feGaussianBlur result="blur-2" stdDeviation="5"/>
      <feFlood flood-color="#000" flood-opacity=".75"/>
      <feComposite in2="blur-2" operator="in"/>
      <feComposite in="SourceGraphic"/>
    </filter>
  </defs>
  <g id="Layer_3" data-name="Layer 3">
    <path class="cls-1" d="M538.04,20.57l326.35,26.61-10.96,310.7,460.96,436.7v20.35l13.89,11.99c2.15,1.86,3.59,4.41,4.08,7.21l2.14,12.44c.64,3.74,2.98,6.97,6.33,8.75l3.34,1.78c7.34,3.91,8.75,13.84,2.79,19.64l-15,14.62c-2.23,2.18-3.56,5.12-3.7,8.24l-1.89,41.54c-.15,3.36-1.67,6.51-4.21,8.71l-6.69,5.81c-4.3,3.74-5.47,9.95-2.81,14.99l1.02,1.93c1.46,2.78,1.81,6.01.96,9.03l-2.94,10.5c-.79,2.81-.55,5.81.68,8.46l.11.25c1.68,3.65,5.04,6.24,9,6.95h0c7.9,1.41,12.35,9.9,9.01,17.2l-5.93,12.98-236.35,29.74-3.76-18.79c-.1-.51-.33-.98-.66-1.37l-7.51-8.88c-.38-.45-.63-1.01-.7-1.6l-2.96-24.45c-.04-.31-.12-.62-.26-.91l-12.78-27.82c-.21-.46-.54-.87-.95-1.17l-45.3-33.79c-.16-.12-.34-.23-.52-.31l-38.11-17.93c-.95-.45-1.6-1.35-1.73-2.4l-2.05-17.08c-.06-.53-.27-1.04-.59-1.47l-9.63-12.85c-.92-1.23-2.62-1.58-3.95-.82l-12.76,7.29c-.84.48-1.86.53-2.75.14l-17.64-7.85c-.2-.09-.41-.16-.62-.2l-17.52-3.61c-.75-.15-1.41-.58-1.85-1.2l-15.33-21.17c-.27-.37-.62-.68-1.02-.89l-17.56-9.51c-.4-.22-.85-.34-1.31-.36l-33.19-1.51c-.36-.02-.71-.1-1.04-.24l-13.68-5.76c-.45-.19-.94-.27-1.43-.23l-26.54,2.15c-1.04.08-2.06-.37-2.69-1.21l-13.69-18.25c-.97-1.3-.76-3.13.49-4.17l4.17-3.48c1.52-1.27,1.45-3.63-.15-4.8l-5.28-3.87c-1.65-1.21-1.66-3.67-.03-4.9l3.4-2.55c1.45-1.08,1.64-3.18.41-4.51l-4.72-5.12c-1.26-1.36-1.02-3.52.5-4.57l4.91-3.4c1.33-.92,1.71-2.72.86-4.1l-4.02-6.54c-.46-.75-.58-1.66-.32-2.49l1.79-5.82c.51-1.66-.46-3.4-2.14-3.84l-10.77-2.83c-.66-.17-1.25-.57-1.66-1.12l-6.93-9.23c-1.01-1.35-.74-3.26.61-4.27l4.78-3.58c1.24-.93,1.58-2.64.8-3.97l-3.63-6.23c-.31-.53-.78-.96-1.34-1.22l-11.84-5.57c-.4-.19-.76-.46-1.04-.81l-6.83-8.2c-.37-.44-.6-.98-.68-1.55l-1.1-8.22c-.2-1.51-1.49-2.65-3.02-2.65h-5.86c-1.03,0-1.98-.52-2.55-1.37l-16.92-25.71c-.95-1.45-.51-3.4.98-4.29l1.72-1.03c1.71-1.03,1.99-3.4.56-4.79l-33.15-32.45c-.52-.51-.84-1.19-.9-1.91l-2.74-31.56c-.15-1.78,1.25-3.31,3.04-3.31h1.79c.74,0,1.45-.27,2.01-.75l10.03-8.78c.97-.85,1.3-2.23.82-3.43l-3.75-9.38c-.1-.24-.22-.46-.37-.67l-7.52-10.26c-.54-.74-1.39-1.2-2.31-1.24l-12.8-.64c-.89-.04-1.72-.48-2.26-1.18l-15.26-19.78c-.21-.27-.47-.51-.76-.7l-8.83-5.71c-1.02-.66-1.55-1.87-1.35-3.07l1.96-11.57c.04-.21.09-.42.18-.62l4.01-10.02c.36-.89.27-1.9-.23-2.72l-9.67-15.89c-.32-.52-.47-1.13-.44-1.75l.58-11.04c.09-1.62,1.42-2.89,3.04-2.89h3.42c.95,0,1.85.44,2.42,1.2l10.91,14.32c.45.59,1.1,1,1.83,1.14h0c2.59.52,4.56-2.27,3.22-4.54l-6.24-10.55c-.3-.51-.45-1.1-.42-1.7l.7-14.71c.03-.53.19-1.05.48-1.5l5.12-7.96c.84-1.31.56-3.05-.66-4.03l-2.68-2.14c-1.53-1.23-3.81-.7-4.66,1.07l-6.05,12.71c-.08.17-.18.33-.29.48l-4.35,5.99c-.97,1.33-2.83,1.65-4.19.72l-12.23-8.37c-.13-.09-.25-.19-.36-.29l-11.47-10.75c-.57-.53-1.31-.82-2.09-.82h-10.22c-2.08,0-3.55-2.04-2.89-4.01l2.43-7.28c.1-.3.24-.58.43-.83l4.52-6.22c.85-1.17.76-2.78-.21-3.85l-13.96-15.29c-.51-.56-.8-1.29-.8-2.06v-11.42c0-1.35-.88-2.53-2.17-2.92l-12.02-3.61c-.92-.28-1.65-.97-1.98-1.87l-4.85-13.15c-.07-.19-.16-.38-.27-.55l-9.69-15.66c-.21-.34-.48-.63-.81-.87l-12.01-8.67c-.97-.7-1.44-1.9-1.2-3.07l1.92-9.58c.03-.16.05-.31.06-.47l.74-17.72c.02-.54-.1-1.07-.35-1.55l-6.87-13.05c-.37-.7-.45-1.52-.23-2.28l3.42-11.64c.09-.32.24-.62.43-.89l4.26-6.09c.58-.83.71-1.9.35-2.84l-14.87-38.65c-.13-.35-.2-.72-.2-1.09v-15.81c0-1.01-.5-1.96-1.34-2.53l-28-18.9c-1.15-.78-1.63-2.24-1.17-3.55l2.8-7.83c.21-.59.59-1.09,1.1-1.46l1.77-1.27c1.53-1.09,1.72-3.3.38-4.64l-5.34-5.34c-.9-.9-1.15-2.27-.61-3.43l12.48-27.04c.44-.96,1.36-1.63,2.41-1.75l9.46-1.11c1.29-.15,2.34-1.1,2.62-2.37l5.53-24.87c.17-.76.04-1.56-.36-2.23l-3.46-5.77c-.39-.65-.52-1.42-.38-2.17l2.01-10.05c.07-.35.2-.69.39-1l5.7-9.26c.18-.3.31-.62.38-.96l4.44-20.71c.1-.46.09-.93-.02-1.38l-4.37-17.5c-.1-.39-.27-.76-.52-1.09l-7.87-10.49c-.7-.94-.81-2.2-.26-3.24l8.5-16.3Z"/>
  </g>
  <g id="Layer_7" data-name="Layer 7">
    <polygon class="cls-2" points="705.2 345.83 715.4 377.19 748.37 377.19 721.69 396.58 731.89 427.94 705.2 408.56 678.52 427.94 688.72 396.58 662.03 377.19 695.01 377.19 705.2 345.83"/>
  </g>
</svg>