<?xml version="1.0" encoding="UTF-8"?>
<svg xmlns="http://www.w3.org/2000/svg" xmlns:xlink="http://www.w3.org/1999/xlink" viewBox="0 0 1920 1080">
  <defs>
    <style>
      .cls-1 {
        fill: #fff;
        filter: url(#drop-shadow-12);
      }

      .cls-2 {
        fill: #bf2026;
        filter: url(#drop-shadow-5);
      }
    </style>
    <filter id="drop-shadow-5" x="231" y="193" width="1408" height="740" filterUnits="userSpaceOnUse">
      <feOffset dx="-5" dy="5"/>
      <feGaussianBlur result="blur" stdDeviation="5"/>
      <feFlood flood-color="#000" flood-opacity=".75"/>
      <feComposite in2="blur" operator="in"/>
      <feComposite in="SourceGraphic"/>
    </filter>
    <filter id="drop-shadow-12" x="1484" y="416" width="117" height="113" filterUnits="userSpaceOnUse">
      <feOffset dx="-5" dy="5"/>
      <feGaussianBlur result="blur-2" stdDeviation="5"/>
      <feFlood flood-color="#000" flood-opacity=".75"/>
      <feComposite in2="blur-2" operator="in"/>
      <feComposite in="SourceGraphic"/>
    </filter>
  </defs>
  <g id="Layer_4" data-name="Layer 4">
    <path class="cls-2" d="M1493.52,203.65H251.52v709.04h1372.3v-484.83l4.22-14.01c.05-.18.08-.37.08-.56v-8.47c0-1.16-1.03-2.06-2.18-1.91h0c-.48.06-.93.31-1.24.69l-2.42,2.96c-.39.47-.98.73-1.59.7l-1.95-.1c-.62-.03-1.19-.36-1.52-.88l-3.71-5.77c-.57-.89-1.76-1.15-2.65-.58l-4.37,2.78c-.31.2-.67.3-1.03.3h-4.67c-.84,0-1.59-.55-1.84-1.36l-1.75-5.66c-.23-.73-.87-1.26-1.63-1.34l-9.45-1.05c-.94-.1-1.66-.87-1.71-1.81l-.66-12.47c-.02-.38-.15-.74-.37-1.04l-1.77-2.4c-.39-.53-1.02-.82-1.68-.78l-4.01.27c-.51.03-1.02-.14-1.41-.48l-5.77-5.13c-.42-.38-.66-.92-.65-1.49l.15-5.69c.01-.54.25-1.05.66-1.4l4.5-3.92c.57-.49.79-1.27.58-1.99l-1.01-3.49c-.24-.82-.99-1.39-1.85-1.39h-5.92c-.54,0-1.06-.23-1.43-.63l-5.11-5.62c-.12-.14-.23-.29-.31-.46l-2.71-5.58c-.2-.4-.53-.73-.93-.91l-7.66-3.5c-.46-.21-.81-.59-1-1.06l-4.11-10.62c-.19-.5-.58-.89-1.07-1.09l-7.27-2.94c-.7-.28-1.17-.95-1.2-1.71l-.3-7.48c-.03-.66.29-1.29.84-1.67l2.39-1.63c.29-.2.64-.32.99-.33l5.59-.28c.97-.05,1.75-.81,1.82-1.77l1-12.54c.02-.29.11-.58.26-.83l3.67-6.18c.26-.43.67-.75,1.16-.88l6.62-1.76c.84-.22,1.43-.99,1.43-1.86v-9.02c0-.42.14-.83.39-1.17l1.71-2.24c.59-.77,1.66-.99,2.5-.5l4.53,2.63s.09.05.14.07l3.69,1.77c.47.23,1.02.25,1.51.07l5.7-2.14c.8-.3,1.31-1.1,1.24-1.95l-.3-3.91c-.09-1.19-1.23-2.01-2.39-1.72l-4.14,1.03c-.45.11-.92.06-1.33-.15l-3.44-1.72c-1.11-.56-1.41-2.01-.61-2.96l1.08-1.29c.3-.36.73-.6,1.2-.67l2.47-.35c.58-.08,1.09-.42,1.38-.92l2.52-4.25c.43-.73.34-1.65-.23-2.28l-2.26-2.5c-.32-.36-.77-.58-1.24-.62l-4.61-.45c-.46-.04-.89-.25-1.21-.59l-2.45-2.58c-.58-.6-.7-1.51-.3-2.24l2.71-5.02c.33-.61.31-1.36-.07-1.94l-1.18-1.87c-.35-.56-.97-.9-1.63-.9h-12.63c-.72,0-1.38.4-1.71,1.05l-2.75,5.36c-.27.53-.77.9-1.35,1.01l-5.59,1.09c-.35.07-.72.04-1.05-.09l-9.88-3.75c-.6-.23-1.05-.74-1.19-1.36l-.78-3.32c-.21-.9-1.03-1.52-1.95-1.49l-6.7.25c-1.12.04-2.04-.88-2-2l.23-5.72c.04-1.01-.7-1.88-1.71-1.99l-6.18-.7c-.42-.05-.81-.23-1.11-.52l-13.42-12.85Z"/>
  </g>
  <g id="Layer_7" data-name="Layer 7">
    <polygon class="cls-1" points="1547.58 426.42 1557.77 457.79 1590.75 457.79 1564.07 477.17 1574.26 508.54 1547.58 489.15 1520.9 508.54 1531.09 477.17 1504.41 457.79 1537.39 457.79 1547.58 426.42"/>
  </g>
</svg>