<?xml version="1.0" encoding="UTF-8"?>
<svg xmlns="http://www.w3.org/2000/svg" xmlns:xlink="http://www.w3.org/1999/xlink" viewBox="0 0 1920 1080">
  <defs>
    <style>
      .cls-1 {
        fill: #fff;
        filter: url(#drop-shadow-8);
      }

      .cls-2 {
        fill: #bf2026;
        filter: url(#drop-shadow-1);
      }
    </style>
    <filter id="drop-shadow-1" x="166" y="239" width="1491" height="739" filterUnits="userSpaceOnUse">
      <feOffset dx="-5" dy="5"/>
      <feGaussianBlur result="blur" stdDeviation="5"/>
      <feFlood flood-color="#000" flood-opacity=".75"/>
      <feComposite in2="blur" operator="in"/>
      <feComposite in="SourceGraphic"/>
    </filter>
    <filter id="drop-shadow-8" x="1046" y="488" width="117" height="114" filterUnits="userSpaceOnUse">
      <feOffset dx="-5" dy="5"/>
      <feGaussianBlur result="blur-2" stdDeviation="5"/>
      <feFlood flood-color="#000" flood-opacity=".75"/>
      <feComposite in2="blur-2" operator="in"/>
      <feComposite in="SourceGraphic"/>
    </filter>
  </defs>
  <g id="Layer_2" data-name="Layer 2">
    <path class="cls-2" d="M700.65,756.61v-399.13H186.92v-108h1425.86v120.91l33.9,219.52v367.43l-28.03-9.39-27.94-10.06c-.92-.33-1.75-.89-2.41-1.61l-4.85-5.36c-1.02-1.13-2.43-1.82-3.94-1.95l-4.85-.4c-1.41-.12-2.73-.73-3.73-1.73l-11.48-11.48c-.18-.18-.35-.38-.51-.58l-6.32-8.22c-.82-1.07-1.98-1.83-3.29-2.16l-5.6-1.4c-1.16-.29-2.2-.92-3-1.8l-4.47-4.96c-.88-.98-2.05-1.64-3.34-1.88l-8.71-1.63c-1.18-.22-2.27-.8-3.13-1.65l-3.28-3.28c-1.52-1.52-3.73-2.11-5.8-1.54l-1.47.4c-2.3.63-4.01,2.56-4.35,4.92l-.6,4.17c-.26,1.83-1.35,3.43-2.95,4.35l-6.66,3.81c-1.14.65-2.46.91-3.76.74l-20.75-2.77c-.48-.06-.95-.19-1.4-.36l-18.76-7.37c-1.58-.62-3.35-.54-4.86.22l-10.03,5.02c-1.09.54-2.32.74-3.52.57l-6.28-.9c-1.79-.26-3.59.31-4.92,1.54l-6.34,5.88c-1.57,1.45-3.79,1.96-5.83,1.33l-14.89-4.58c-1.39-.43-2.89-.33-4.22.27l-20.26,9.15c-1.26.57-2.67.68-4,.33l-3.62-.97c-3.3-.88-6.66,1.17-7.39,4.51l-1.86,8.55c-.45,2.06-1.95,3.74-3.95,4.4l-4.47,1.49c-1.1.37-2.29.41-3.41.11l-8.03-2.11c-2.92-.77-5.95.76-7.08,3.56l-1.23,3.07c-.91,2.27-3.11,3.76-5.55,3.76h0c-2.31,0-4.41-1.33-5.4-3.41l-3.82-8.03c-1.34-2.82-4.63-4.13-7.55-3.01l-.97.37c-2.41.93-5.14.2-6.78-1.8l-2.51-3.07c-1.14-1.39-2.84-2.19-4.63-2.19h-4.59c-1.75,0-3.4-.76-4.54-2.09l-5.81-6.78c-1.14-1.33-2.8-2.09-4.54-2.09h-5.43c-1.29,0-2.55.42-3.59,1.2l-4.74,3.55c-1.86,1.4-4.37,1.59-6.42.48l-5.67-3.05c-.75-.41-1.58-.64-2.44-.7l-6.32-.42c-2.48-.17-4.6-1.85-5.32-4.23l-1.97-6.48c-1.16-3.8-5.62-5.44-8.96-3.29l-4.3,2.77-14.95,9.51c-1.44.92-3.21,1.17-4.85.7l-23.58-6.74c-.81-.23-1.66-.29-2.49-.17l-7.64,1.09c-1.33.19-2.56.82-3.49,1.8l-10.47,10.99c-2.13,2.23-5.6,2.48-8.03.58l-4.25-3.34c-1.53-1.2-2.38-3.06-2.28-5l.39-7.82c.14-2.78-1.66-5.29-4.33-6.05l-4.15-1.19c-1.44-.41-2.98-.27-4.32.4l-2.05,1.03c-2.92,1.46-6.47.31-7.98-2.58l-5.5-10.55c-.75-1.43-2.04-2.5-3.58-2.96l-.59-.18c-2.79-.84-5.77.45-7.07,3.05l-1.81,3.63c-.42.83-1.02,1.55-1.76,2.11l-6.47,4.85c-1.15.87-1.96,2.12-2.26,3.53l-.71,3.31c-.66,3.07-3.58,5.11-6.69,4.67l-8.01-1.14c-1.83-.26-3.43-1.35-4.35-2.95l-7.08-12.4c-.56-.98-1.38-1.78-2.38-2.31l-9.03-4.82c-.78-.42-1.65-.65-2.53-.7l-10.55-.5c-2.68-.13-4.95-2.03-5.55-4.65l-2.49-10.97c-.27-1.18-.17-2.42.28-3.55l1.08-2.69c.84-2.09.43-4.47-1.05-6.16l-1.37-1.56c-1.08-1.24-2.63-1.97-4.27-2.04l-34.83-1.34c-2.05-.08-4,.9-5.16,2.59l-5.34,7.77c-.9,1.3-2.27,2.2-3.83,2.49l-7.34,1.38c-1.74.33-3.54-.14-4.91-1.27l-14.75-12.19c-.72-.59-1.56-1.01-2.46-1.22l-4.77-1.1c-2.42-.56-4.94.44-6.32,2.51l-.36.54c-1.25,1.88-3.46,2.89-5.7,2.62l-32.24-3.95c-1.57-.19-3-1-3.98-2.24l-5.47-6.97c-1.03-1.31-2.55-2.13-4.21-2.27l-6.03-.5c-.51-.04-1.02-.02-1.52.07l-15.05,2.62c-1.41.25-2.87-.03-4.1-.76l-7.64-4.59c-1.4-.84-2.39-2.21-2.75-3.8l-5.09-22.27c-.38-1.68-1.47-3.11-2.98-3.93l-15.07-8.16c-.87-.47-1.85-.72-2.85-.72h-24.41c-.45,0-.9-.05-1.34-.15l-7.04-1.63c-1.58-.36-3.24-.07-4.59.81l-9.52,6.16c-1.07.7-2.34,1.03-3.62.95l-8.23-.51c-1.5-.09-2.9-.75-3.94-1.83l-33.64-35.07c-.99-1.03-2.3-1.67-3.72-1.81l-9.54-.95Z"/>
  </g>
  <g id="Layer_7" data-name="Layer 7">
    <polygon class="cls-1" points="1109.17 498.94 1119.36 530.31 1152.34 530.31 1125.66 549.69 1135.85 581.06 1109.17 561.67 1082.49 581.06 1092.68 549.69 1066 530.31 1098.98 530.31 1109.17 498.94"/>
  </g>
</svg>