<?xml version="1.0" encoding="UTF-8"?>
<svg xmlns="http://www.w3.org/2000/svg" xmlns:xlink="http://www.w3.org/1999/xlink" viewBox="0 0 1920 1080">
  <defs>
    <style>
      .cls-1 {
        fill: #fff;
        filter: url(#drop-shadow-14);
      }

      .cls-2 {
        fill: #bf2026;
        filter: url(#drop-shadow-6);
      }
    </style>
    <filter id="drop-shadow-6" x="259" y="193" width="1350" height="808" filterUnits="userSpaceOnUse">
      <feOffset dx="-5" dy="5"/>
      <feGaussianBlur result="blur" stdDeviation="5"/>
      <feFlood flood-color="#000" flood-opacity=".75"/>
      <feComposite in2="blur" operator="in"/>
      <feComposite in="SourceGraphic"/>
    </filter>
    <filter id="drop-shadow-14" x="832" y="629" width="118" height="113" filterUnits="userSpaceOnUse">
      <feOffset dx="-5" dy="5"/>
      <feGaussianBlur result="blur-2" stdDeviation="5"/>
      <feFlood flood-color="#000" flood-opacity=".75"/>
      <feComposite in2="blur-2" operator="in"/>
      <feComposite in="SourceGraphic"/>
    </filter>
  </defs>
  <g id="Layer_5" data-name="Layer 5">
    <path class="cls-2" d="M288.61,203.65l1092.55,13.47,5.46,19.98c.15.55.23,1.11.23,1.68v12.09c0,2.35,1.29,4.51,3.37,5.63l18.53,9.94c1.68.9,2.87,2.51,3.24,4.37l1.31,6.53c.32,1.6.02,3.26-.85,4.64l-22.66,36.15c-.74,1.18-1.07,2.56-.95,3.94l.85,9.79c.11,1.21.55,2.36,1.29,3.33l5.34,6.99c.85,1.11,1.31,2.48,1.31,3.88v15.24c0,1.87.82,3.65,2.25,4.87l7.64,6.49c1.33,1.13,2.14,2.76,2.24,4.51l.96,17.22c.06,1.05.37,2.06.92,2.96l8.26,13.61c.71,1.16,1.77,2.07,3.03,2.59l17.72,7.29c.47.19.95.33,1.45.41l39.33,6.09c1.56.24,2.98,1.06,3.98,2.28l5.24,6.45c.65.8,1.1,1.76,1.31,2.77l2.28,11.39c.26,1.32.94,2.53,1.93,3.44l2.31,2.13c2.28,2.11,2.72,5.55,1.03,8.16l-.98,1.52c-1.58,2.44-1.31,5.64.65,7.78l1.35,1.48c1.21,1.32,2.92,2.07,4.71,2.07h6.68c2.28,0,4.38,1.21,5.53,3.19l4.08,7.05c.44.75,1.02,1.41,1.72,1.93l17.32,12.87c1.62,1.2,2.58,3.11,2.58,5.13v12.24c0,.86.18,1.72.52,2.52l3.87,9.03c.64,1.5,1.84,2.7,3.33,3.35l18.61,8.05c.8.35,1.66.52,2.53.52h6.56c2.79,0,5.26,1.81,6.09,4.48l.92,2.94c.44,1.39,1.34,2.6,2.55,3.41l4.26,2.84c1.78,1.18,2.84,3.18,2.84,5.31v15.9c0,.69.11,1.37.33,2.02l2.4,7.2c.55,1.66.4,3.46-.41,5.01l-2.42,4.58c-1.05,1.98-.98,4.36.17,6.27l1.68,2.79c1.15,1.92,1.21,4.31.16,6.29l-7.23,13.55c-.43.81-.68,1.69-.74,2.61l-.28,4.45c-.14,2.31-1.53,4.37-3.63,5.37l-18.6,8.86c-1.97.94-3.32,2.81-3.59,4.97l-1.27,10.15c-.06.5-.18.98-.36,1.45l-4.72,12.58c-.27.72-.41,1.48-.41,2.24v5.72c0,2.07-1.01,4.02-2.7,5.21l-20.19,14.28c-1.08.76-2.37,1.17-3.69,1.17h-14.48c-.95,0-1.89.21-2.75.62l-11.25,5.38c-.8.38-1.51.93-2.09,1.6l-4.53,5.28c-1.14,1.33-2.77,2.13-4.51,2.22l-41.44,2.18c-.88.05-1.73.27-2.52.67l-6.81,3.4c-1.75.88-3.82.9-5.59.06l-6.5-3.08c-1.34-.63-2.85-.78-4.28-.42l-4.12,1.03c-2.03.51-3.68,1.98-4.42,3.93l-7.11,18.79c-.06.16-.13.31-.2.47l-8.53,18.06c-.96,2.03-.78,4.4.46,6.27l9.78,14.67c.89,1.34,2.26,2.3,3.83,2.67l7.47,1.78c1.7.4,3.16,1.49,4.04,2.99l6.21,10.65c.52.89.82,1.89.86,2.92l1.59,34.5c.08,1.82-.61,3.58-1.91,4.85l-26.48,25.96c-1.28,1.26-1.98,2.99-1.91,4.79l.47,13.28c.02.45-.02.9-.09,1.34l-2.84,16.1c-.39,2.22-1.93,4.08-4.05,4.87l-15.32,5.75c-.28.11-.57.19-.87.26l-32.92,7.25c-1.27.28-2.43.95-3.32,1.9l-4.64,5.03c-.78.84-1.31,1.87-1.55,2.99l-.44,2.05c-.59,2.75.69,5.56,3.14,6.92l2.73,1.52c2.35,1.3,3.63,3.94,3.2,6.59l-1.59,9.94c-.06.41-.09.82-.08,1.23l.35,10.14c.12,3.61-2.77,6.61-6.38,6.61h-11.36c-1.17,0-2.32-.32-3.32-.93l-9.37-5.71c-1.8-1.09-2.94-3-3.06-5.1l-.08-1.39c-.19-3.38-2.99-6.03-6.38-6.03h0c-2.52,0-4.8-1.48-5.83-3.78l-6.51-14.55c-1.17-2.62-3.94-4.13-6.78-3.71l-.91.14c-3.47.52-6.71-1.85-7.25-5.32l-.36-2.29c-.28-1.8-1.32-3.39-2.85-4.38l-5.97-3.84-818.48-4.79v-11.57c0-1.02-.46-1.98-1.25-2.61l-17.99-14.5c-1.32-1.06-1.64-2.94-.75-4.38l5.75-9.28c.31-.5.48-1.08.5-1.67l.55-19.26c.01-.52.15-1.03.4-1.5l3.18-5.91c.41-.75.51-1.64.29-2.46l-3.34-12.4c-.31-1.16.02-2.4.87-3.25l1.69-1.69c1.51-1.51,1.25-4.02-.54-5.19l-7.16-4.65c-.85-.55-1.4-1.46-1.51-2.46l-3.24-30.75c-.12-1.11.33-2.21,1.19-2.93l2.72-2.26c2.36-1.97,1.06-5.8-2.01-5.93l-2.77-.12c-1.67-.07-3.03-1.36-3.2-3.02l-1.37-13.73c-.09-.86.16-1.71.69-2.39l4.54-5.84c1.45-1.87.57-4.61-1.7-5.28l-7.61-2.26c-2-.59-2.98-2.85-2.05-4.72l1.99-3.99c.27-.53.39-1.12.35-1.72l-1.07-16.65c-.04-.66.11-1.31.44-1.88l1.89-3.3c1.16-2.04-.07-4.61-2.38-4.98l-9.58-1.54c-2.14-.35-3.4-2.6-2.56-4.6l3.43-8.23c.55-1.32.2-2.85-.87-3.8l-1.73-1.54c-1.11-.99-2.73-1.13-4-.35l-6.57,4.07c-1.92,1.19-4.45.18-5.02-2.02l-3.23-12.5c-.27-1.03-1.01-1.88-2-2.28l-3.95-1.58c-1.85-.74-2.65-2.91-1.73-4.67l4.02-7.68c.52-1,.51-2.2-.04-3.19l-3.11-5.59c-1.03-1.86-.1-4.2,1.93-4.83l2.49-.78c1.75-.55,2.74-2.39,2.22-4.15l-1.64-5.58c-.27-.91-.14-1.89.36-2.7l4.47-7.32c.79-1.29.62-2.95-.42-4.05l-16.5-17.5c-.91-.97-1.17-2.38-.65-3.6l5.56-13.26c.75-1.78-.16-3.83-1.99-4.47l-6.51-2.28c-1.27-.45-2.15-1.61-2.24-2.95l-.25-3.97c-.11-1.77-1.58-3.14-3.35-3.14h-8.18c-1.73,0-3.17-1.31-3.34-3.03l-1.4-14.15c-.07-.68-.34-1.32-.77-1.84l-14.92-17.69c-.37-.44-.63-.98-.73-1.55l-1.4-7.47c-.15-.8,0-1.62.41-2.32l4.77-8.11c.38-.64.53-1.38.44-2.12l-.87-6.99c-.12-.93-.61-1.76-1.37-2.31l-12.54-9.03c-.79-.57-1.29-1.44-1.38-2.41l-.93-9.8c-.08-.81.14-1.62.62-2.28l6.14-8.51c.57-.79.77-1.79.54-2.74l-2.07-8.69c-.34-1.42-1.56-2.46-3.02-2.57l-10.76-.8c-1.69-.12-3.02-1.49-3.1-3.18l-1-19.57c-.03-.54-.19-1.07-.47-1.54l-10.69-18c-.17-.29-.39-.56-.65-.79l-15.86-14.22c-.71-.64-1.12-1.55-1.12-2.5v-14.33c0-.98.43-1.9,1.16-2.54l15.22-13.12c.63-.54,1.04-1.3,1.14-2.13l2.04-16.35c.12-.97.66-1.84,1.47-2.38l2.2-1.46c1.15-.77,1.72-2.17,1.41-3.52l-1.6-7.2c-.19-.85-.04-1.74.42-2.49l2.6-4.23c.85-1.39.59-3.19-.63-4.27h0c-1.65-1.47-1.46-4.11.4-5.32l9.33-6.08c.5-.33.9-.78,1.17-1.31l2.6-5.21c.69-1.38.35-3.06-.83-4.06l-4.4-3.72c-.86-.73-1.3-1.83-1.17-2.95l1.27-11.03c.18-1.6-.79-3.1-2.32-3.59l-8.24-2.6c-.33-.1-.67-.16-1.01-.16h-6.37c-2.41,0-4.03-2.46-3.09-4.68l.54-1.25c.62-1.44.16-3.11-1.1-4.03l-.61-.45c-2.37-1.73-1.52-5.46,1.36-6l3.18-.6c1.13-.22,2.08-1,2.5-2.07l4.27-10.91c.29-.73.31-1.54.06-2.28l-2.88-8.64c-.21-.64-.62-1.2-1.15-1.61l-11.33-8.61c-1.53-1.16-1.77-3.37-.53-4.84l3.15-3.73c.72-.85.97-2,.67-3.07l-2.07-7.42Z"/>
  </g>
  <g id="Layer_7" data-name="Layer 7">
    <polygon class="cls-1" points="895.86 639.84 906.05 671.2 939.03 671.2 912.35 690.58 922.54 721.95 895.86 702.57 869.18 721.95 879.37 690.58 852.69 671.2 885.67 671.2 895.86 639.84"/>
  </g>
</svg>