<?xml version="1.0" encoding="UTF-8"?>
<svg xmlns="http://www.w3.org/2000/svg" xmlns:xlink="http://www.w3.org/1999/xlink" viewBox="0 0 1920 1080">
  <defs>
    <style>
      .cls-1 {
        fill: #fff;
        filter: url(#drop-shadow-13);
      }

      .cls-2 {
        fill: #bf2026;
        filter: url(#drop-shadow-7);
      }
    </style>
    <filter id="drop-shadow-7" x="365" y="59" width="1096" height="993" filterUnits="userSpaceOnUse">
      <feOffset dx="-5" dy="5"/>
      <feGaussianBlur result="blur" stdDeviation="5"/>
      <feFlood flood-color="#000" flood-opacity=".75"/>
      <feComposite in2="blur" operator="in"/>
      <feComposite in="SourceGraphic"/>
    </filter>
    <filter id="drop-shadow-13" x="722" y="711" width="118" height="113" filterUnits="userSpaceOnUse">
      <feOffset dx="-5" dy="5"/>
      <feGaussianBlur result="blur-2" stdDeviation="5"/>
      <feFlood flood-color="#000" flood-opacity=".75"/>
      <feComposite in2="blur-2" operator="in"/>
      <feComposite in="SourceGraphic"/>
    </filter>
  </defs>
  <g id="Layer_6" data-name="Layer 6">
    <path class="cls-2" d="M385.26,69.78l629.22,4.7,17.05,15.01c.29.25.52.56.68.9l5.24,10.91c.47.98,1.47,1.61,2.56,1.61h3c1.2,0,2.27.75,2.67,1.88l4.29,12.02c.16.46.44.87.81,1.19l6.28,5.45c.62.54.98,1.32.98,2.14v8.1c0,.34-.06.68-.18,1l-8.45,22.38c-.15.41-.21.84-.17,1.28l3.01,31.11c.04.39.15.76.34,1.1l10.32,18.67c.23.42.35.89.35,1.37v5.56c0,.32-.05.64-.16.94l-2.6,7.37c-.24.67-.21,1.41.07,2.06l2.41,5.63c.18.43.47.81.84,1.1l8.81,7.05c.67.54,1.06,1.35,1.06,2.22v16.38c0,.97.5,1.88,1.32,2.4l22.31,14.07c.24.15.46.34.64.55l5.69,6.64c.19.22.35.47.46.75l3.57,8.47c.28.67.8,1.2,1.46,1.49l7.52,3.34c.55.24,1.01.66,1.31,1.18l9.18,15.94c.18.31.42.59.7.81l22.01,17.4,18.33,14.26c.3.23.55.52.73.86l9.42,16.85c.14.25.24.53.3.81l3.44,16.7c.08.4.08.81-.01,1.21l-2.79,12.1c-.13.56-.09,1.14.12,1.68l5.34,13.58c.05.14.1.28.13.42l2.84,12.78c.16.7.57,1.32,1.16,1.72l6.7,4.61c.47.33,1.03.5,1.61.5h8.9c.75,0,1.47-.3,2.01-.83l6.78-6.78c.14-.14.27-.3.38-.47l3.85-5.99c.43-.67,1.13-1.13,1.92-1.26l7.27-1.21c.57-.1,1.16-.01,1.68.23l8.82,4.18c.19.09.39.16.6.21l13.25,2.94c.35.08.68.22.98.42l12.26,8.34c.22.15.42.33.58.53l6.91,8.3c.42.51.66,1.15.66,1.82v8.09c0,.83-.37,1.63-1,2.17l-5.65,4.78c-.09.07-.17.15-.25.24l-5.82,6.27c-.54.58-.81,1.36-.75,2.15l.37,4.85c.04.46.18.9.42,1.29l4.37,6.99c.31.5.46,1.08.43,1.67l-.42,7.15c-.03.53-.21,1.04-.52,1.48l-10.75,15.15c-.17.24-.3.5-.39.78l-6.51,20.52c-.09.3-.24.58-.42.83l-10.72,14.5c-.31.42-.5.92-.55,1.45l-1.44,16.88c-.04.46.04.93.22,1.36l4.24,9.88c.12.28.28.54.48.76l15.61,17.62c.17.2.37.37.6.51l18.19,11.62c.17.11.33.24.48.38l19.3,19.3c.53.53,1.25.83,2.01.83h6.42c1.57,0,2.84,1.27,2.84,2.84v11.99c0,.85.38,1.66,1.04,2.2l3.02,2.47c.99.81,2.4.86,3.45.11l7.97-5.69c.76-.55,1.75-.68,2.63-.35l8.02,2.95c.32.12.62.29.88.52l18.29,15.82c.4.35.7.81.86,1.32l3.1,10.17c.2.67.65,1.25,1.25,1.61l6.55,3.93c.23.14.47.24.72.31l11.69,3.15c.93.25,1.67.96,1.97,1.88l3.06,9.62c.08.25.2.49.34.71l5.56,8.34c.31.47.48,1.01.48,1.57v1.52c0,1.57-1.27,2.84-2.84,2.84h-1.74c-2.16,0-3.53,2.32-2.48,4.21l16.09,29.06c.23.42.36.89.36,1.37v8.67c0,.97-.49,1.87-1.31,2.39l-10.77,6.89c-.62.4-1.06,1.02-1.23,1.74l-1.54,6.55c-.18.76-.03,1.57.4,2.22l2.08,3.12c.24.36.56.66.93.88l4.1,2.39c.97.57,1.51,1.65,1.39,2.76l-.7,6.29c-.09.81.17,1.62.72,2.22l13.73,15.15c.35.39.59.87.69,1.39l2.24,12.12c.14.75.58,1.42,1.22,1.84l8.25,5.5c.1.07.2.12.3.18l2,1c1.89.94,4.11-.43,4.11-2.54h0c0-1.03-.56-1.98-1.46-2.48l-5.99-3.33c-1.14-.63-1.7-1.97-1.36-3.23l.37-1.35c.36-1.3,1.58-2.17,2.93-2.08l5.02.33c.33.02.65.1.95.23l6.88,3.01c.65.29,1.17.81,1.46,1.46l4.84,11.01c.29.66.82,1.18,1.48,1.47l6.19,2.65c.05.02.11.04.16.06l5.34,1.91c1.13.4,1.88,1.47,1.88,2.67v12.85c0,.52-.14,1.03-.42,1.48l-5.16,8.45c-.11.18-.23.34-.37.49l-5.04,5.43c-.91.98-1.09,2.44-.44,3.61l1.11,2.01c.26.47.65.87,1.11,1.15h0c2.02,1.21,2,4.15-.04,5.34l-3.18,1.84c-1.27.74-1.85,2.27-1.39,3.66l1.75,5.26c.04.11.08.22.13.33l2.7,5.79c.53,1.14.32,2.48-.52,3.4l-4.34,4.73-1.04,9.91-7.83,5.74-7.83-4.7-5.74-7.3h-5.22l-4.7,7.83-1.57,13.57-3.13,8.35-5.22,5.22h-5.22l-2.61-8.35-4.7,4.7-1.04,8.35,4.88,8.3c.22.37.31.8.25,1.23l-.83,6.65c-.08.65-.48,1.21-1.06,1.5l-4.91,2.46c-.27.14-.57.21-.87.21h-4.54c-1.01,0-1.85.77-1.94,1.78l-.27,2.93c-.06.65.21,1.28.71,1.69l7,5.68c.35.29.59.69.68,1.13l.7,3.5c.13.64-.07,1.3-.53,1.76l-2.86,2.86c-.37.37-.86.57-1.38.57h-9.06c-.37,0-.73-.11-1.05-.31l-3.05-1.94c-1.1-.7-2.57-.14-2.93,1.11h0c-.2.7,0,1.45.53,1.95l9.38,8.92c.13.12.24.26.33.41l4.2,6.99c.23.39.32.85.26,1.3l-.74,4.8c-.12.78-.69,1.41-1.46,1.6l-6.33,1.58c-.49.12-.91.42-1.17.85l-2.9,4.56c-.22.34-.32.75-.3,1.15l.44,8.38c.03.58-.2,1.14-.62,1.53l-6.62,6.18c-.35.32-.8.51-1.28.52l-105.25,3.05c-1.1.03-2.01-.85-2.01-1.95v-4.83c0-.3.07-.6.21-.87l3.85-7.7c.08-.15.18-.3.29-.43l43-48.12c.41-.46.58-1.08.46-1.68l-.85-4.26-1.42-5.91c-.1-.4-.06-.82.09-1.2l1.09-2.65c.3-.73.13-1.57-.42-2.12l-2.17-2.17c-.2-.2-.43-.35-.69-.45l-3.66-1.37c-.08-.03-.15-.05-.23-.07l-3.72-.89c-.94-.22-1.58-1.11-1.49-2.07l.63-7.19-2.09-6.52-733.04-3.91,13.04-553.04-6.16-.4c-1.15-.07-2.12-.87-2.41-1.99l-.4-1.5c-.26-.97-1.04-1.72-2.03-1.93l-.94-.2c-.71-.15-1.44-.01-2.04.39l-3.49,2.33c-.66.44-1.49.57-2.25.34l-3.15-.94c-.56-.17-1.05-.52-1.4-.99l-19.41-26.79c-.43-.59-.59-1.32-.47-2.03l1.34-7.58c.02-.12.03-.24.04-.36l.2-5.06c.03-.81-.3-1.59-.91-2.12l-2.68-2.34c-.35-.31-.78-.52-1.24-.61l-2.42-.48c-.52-.1-.99-.36-1.37-.73l-16.49-16.49c-.11-.11-.2-.22-.29-.34l-7.78-10.94c-.29-.4-.46-.88-.49-1.37l-.34-5.1c-.08-1.17.62-2.26,1.72-2.68l7.39-2.81c1.04-.39,1.72-1.39,1.72-2.5v-11.26c0-.94.49-1.8,1.29-2.29l8.83-5.34c.69-.42,1.16-1.13,1.27-1.93l.47-3.47c.09-.65.41-1.24.91-1.67l5.63-4.83c.57-.49.91-1.2.93-1.95l.15-5.11c.04-1.54,1.37-2.72,2.9-2.59l1.47.13c1.04.09,2.04-.43,2.55-1.34h0c.7-1.22.33-2.77-.84-3.55l-4.73-3.15c-.65-.43-1.07-1.12-1.17-1.89l-1.13-9.03c-.16-1.31-1.26-2.31-2.58-2.34l-6.28-.17c-.84-.02-1.64.35-2.17,1.01l-3.38,4.28c-.47.6-1.18.96-1.93,1.01l-6.87.42c-.36.02-.72-.03-1.06-.15l-7.08-2.51c-.33-.12-.63-.29-.89-.53l-40.49-36.19c-.55-.49-.87-1.18-.89-1.91l-.45-14.51c-.02-.67-.29-1.3-.75-1.78l-7.11-7.33c-.5-.51-.77-1.2-.75-1.91l.19-10.6c.03-1.46-1.12-2.67-2.58-2.72l-3.72-.12c-.92-.03-1.75-.53-2.22-1.32l-5.66-9.65c-.4-.69-1.09-1.16-1.88-1.29l-7.81-1.27c-1.26-.2-2.2-1.27-2.24-2.54l-.68-19.03c-.02-.45-.15-.89-.38-1.28l-3.18-5.3c-.25-.42-.38-.89-.38-1.38v-12.07c0-1.44-1.14-2.62-2.58-2.67l-3.71-.13c-.65-.02-1.28-.29-1.75-.74l-4.18-3.99c-.53-.5-.83-1.2-.83-1.93v-7.2Z"/>
  </g>
  <g id="Layer_7" data-name="Layer 7">
    <polygon class="cls-1" points="786.01 721.03 796.2 752.4 829.18 752.4 802.5 771.78 812.69 803.15 786.01 783.76 759.33 803.15 769.52 771.78 742.84 752.4 775.82 752.4 786.01 721.03"/>
  </g>
</svg>