<?xml version="1.0" encoding="UTF-8"?><svg id="Layer_1" xmlns="http://www.w3.org/2000/svg" width="700" height="512" xmlns:xlink="http://www.w3.org/1999/xlink" viewBox="0 0 700 512"><defs><style>.cls-1{fill:url(#linear-gradient-38);}.cls-1,.cls-2,.cls-3,.cls-4,.cls-5,.cls-6,.cls-7,.cls-8,.cls-9,.cls-10,.cls-11,.cls-12,.cls-13,.cls-14,.cls-15,.cls-16,.cls-17,.cls-18,.cls-19,.cls-20,.cls-21,.cls-22,.cls-23,.cls-24,.cls-25,.cls-26,.cls-27,.cls-28,.cls-29,.cls-30,.cls-31,.cls-32,.cls-33,.cls-34,.cls-35,.cls-36,.cls-37,.cls-38,.cls-39,.cls-40,.cls-41,.cls-42,.cls-43,.cls-44,.cls-45,.cls-46,.cls-47,.cls-48,.cls-49,.cls-50,.cls-51,.cls-52,.cls-53,.cls-54,.cls-55,.cls-56,.cls-57,.cls-58,.cls-59,.cls-60,.cls-61,.cls-62,.cls-63,.cls-64,.cls-65,.cls-66,.cls-67,.cls-68,.cls-69,.cls-70,.cls-71,.cls-72,.cls-73,.cls-74,.cls-75,.cls-76,.cls-77,.cls-78,.cls-79,.cls-80,.cls-81,.cls-82,.cls-83,.cls-84,.cls-85,.cls-86,.cls-87,.cls-88,.cls-89,.cls-90,.cls-91,.cls-92,.cls-93,.cls-94,.cls-95,.cls-96,.cls-97,.cls-98,.cls-99,.cls-100,.cls-101,.cls-102,.cls-103,.cls-104,.cls-105,.cls-106,.cls-107,.cls-108,.cls-109,.cls-110,.cls-111,.cls-112,.cls-113,.cls-114,.cls-115,.cls-116,.cls-117,.cls-118,.cls-119,.cls-120,.cls-121,.cls-122,.cls-123,.cls-124,.cls-125,.cls-126,.cls-127,.cls-128,.cls-129,.cls-130,.cls-131,.cls-132,.cls-133,.cls-134,.cls-135,.cls-136,.cls-137,.cls-138,.cls-139,.cls-140,.cls-141,.cls-142,.cls-143,.cls-144,.cls-145,.cls-146,.cls-147,.cls-148,.cls-149,.cls-150,.cls-151,.cls-152,.cls-153,.cls-154,.cls-155,.cls-156,.cls-157,.cls-158,.cls-159,.cls-160,.cls-161,.cls-162,.cls-163,.cls-164,.cls-165,.cls-166,.cls-167,.cls-168,.cls-169,.cls-170,.cls-171,.cls-172,.cls-173,.cls-174,.cls-175,.cls-176,.cls-177,.cls-178,.cls-179,.cls-180,.cls-181,.cls-182,.cls-183,.cls-184,.cls-185,.cls-186,.cls-187,.cls-188{stroke-width:0px;}.cls-2{fill:url(#linear-gradient-12);}.cls-3{fill:url(#linear-gradient-127);}.cls-4{fill:url(#linear-gradient-159);}.cls-5{fill:url(#linear-gradient-17);}.cls-6{fill:url(#linear-gradient-132);}.cls-7{fill:url(#linear-gradient-88);}.cls-8{fill:url(#linear-gradient-19);}.cls-9{fill:url(#linear-gradient-33);}.cls-10{fill:url(#linear-gradient);}.cls-11{fill:url(#linear-gradient-175);}.cls-12{fill:url(#linear-gradient-62);}.cls-13{fill:url(#linear-gradient-137);}.cls-14{fill:url(#linear-gradient-92);}.cls-15{fill:url(#linear-gradient-98);}.cls-16{fill:url(#linear-gradient-139);}.cls-17{fill:url(#linear-gradient-67);}.cls-18{fill:url(#linear-gradient-167);}.cls-19{fill:url(#linear-gradient-153);}.cls-20{fill:url(#linear-gradient-57);}.cls-21{fill:url(#linear-gradient-138);}.cls-22{fill:url(#linear-gradient-149);}.cls-23{fill:url(#linear-gradient-21);}.cls-24{fill:url(#linear-gradient-6);}.cls-25{fill:url(#linear-gradient-157);}.cls-26{fill:url(#linear-gradient-76);}.cls-27{fill:url(#linear-gradient-181);}.cls-28{fill:url(#linear-gradient-124);}.cls-29{fill:url(#linear-gradient-160);}.cls-30{fill:url(#linear-gradient-136);}.cls-31{fill:url(#linear-gradient-42);}.cls-33{fill:url(#linear-gradient-104);}.cls-34{fill:url(#linear-gradient-95);}.cls-35{fill:url(#linear-gradient-15);}.cls-36{fill:url(#linear-gradient-11);}.cls-37{fill:url(#linear-gradient-106);}.cls-38{fill:url(#linear-gradient-101);}.cls-39{fill:url(#linear-gradient-81);}.cls-40{fill:url(#linear-gradient-73);}.cls-41{fill:url(#linear-gradient-91);}.cls-42{fill:url(#linear-gradient-151);}.cls-43{fill:url(#linear-gradient-5);}.cls-44{fill:#7f7f7f;opacity:.4;}.cls-45{fill:url(#linear-gradient-164);}.cls-46{fill:url(#linear-gradient-133);}.cls-47{fill:url(#linear-gradient-179);}.cls-48{fill:url(#linear-gradient-31);}.cls-49{fill:url(#linear-gradient-103);}.cls-50{fill:url(#linear-gradient-71);}.cls-51{fill:url(#linear-gradient-58);}.cls-52{fill:url(#linear-gradient-63);}.cls-53{fill:url(#linear-gradient-154);}.cls-54{fill:url(#linear-gradient-34);}.cls-55{opacity:.2;}.cls-56{fill:url(#linear-gradient-122);}.cls-57{fill:url(#linear-gradient-96);}.cls-58{fill:url(#linear-gradient-170);}.cls-59{fill:url(#linear-gradient-165);}.cls-60{fill:url(#linear-gradient-130);}.cls-61{fill:url(#linear-gradient-120);}.cls-62{fill:url(#linear-gradient-41);}.cls-63{fill:url(#linear-gradient-89);}.cls-64{fill:url(#linear-gradient-40);}.cls-65{fill:url(#linear-gradient-147);}.cls-66{fill:url(#linear-gradient-66);}.cls-67{fill:url(#linear-gradient-126);}.cls-68{fill:url(#linear-gradient-13);}.cls-69{fill:url(#linear-gradient-23);}.cls-70{fill:url(#linear-gradient-25);}.cls-71{fill:url(#linear-gradient-43);}.cls-72{fill:url(#linear-gradient-16);}.cls-73{fill:url(#linear-gradient-22);}.cls-74{fill:url(#linear-gradient-54);}.cls-75{fill:url(#linear-gradient-55);}.cls-76{fill:#fff;}.cls-77{fill:url(#linear-gradient-110);}.cls-78{fill:url(#linear-gradient-141);}.cls-79{fill:url(#linear-gradient-35);}.cls-80{fill:url(#linear-gradient-50);}.cls-81{fill:url(#linear-gradient-32);}.cls-82{fill:url(#linear-gradient-60);}.cls-83{fill:url(#linear-gradient-59);}.cls-84{fill:url(#linear-gradient-20);}.cls-85{fill:url(#linear-gradient-14);}.cls-86{fill:url(#linear-gradient-2);}.cls-87{fill:url(#linear-gradient-156);}.cls-88{fill:url(#linear-gradient-146);}.cls-89{fill:url(#linear-gradient-52);}.cls-90{fill:url(#linear-gradient-45);}.cls-91{fill:url(#linear-gradient-93);}.cls-92{fill:url(#linear-gradient-172);}.cls-93{fill:url(#linear-gradient-163);}.cls-94{fill:url(#linear-gradient-7);}.cls-95{fill:url(#linear-gradient-39);}.cls-96{fill:url(#linear-gradient-3);}.cls-97{fill:url(#linear-gradient-148);}.cls-98{fill:url(#linear-gradient-77);}.cls-99{fill:url(#linear-gradient-119);}.cls-100{fill:url(#linear-gradient-69);}.cls-189{opacity:.1;}.cls-101{fill:url(#linear-gradient-143);}.cls-102{fill:url(#linear-gradient-125);}.cls-103{fill:url(#linear-gradient-94);}.cls-104{fill:url(#linear-gradient-9);}.cls-105{fill:url(#linear-gradient-27);}.cls-106{fill:url(#radial-gradient);}.cls-107{fill:url(#linear-gradient-134);}.cls-108{fill:url(#linear-gradient-152);}.cls-109{fill:url(#linear-gradient-100);}.cls-110{fill:url(#linear-gradient-162);}.cls-111{fill:url(#linear-gradient-131);}.cls-112{fill:url(#linear-gradient-183);}.cls-113{fill:url(#linear-gradient-82);}.cls-114{fill:url(#linear-gradient-105);}.cls-115{fill:url(#linear-gradient-83);}.cls-116{fill:url(#linear-gradient-142);}.cls-117{fill:url(#linear-gradient-155);}.cls-118{fill:url(#linear-gradient-53);}.cls-119{fill:url(#linear-gradient-90);}.cls-120{fill:url(#linear-gradient-178);}.cls-121{fill:url(#linear-gradient-117);}.cls-122{fill:url(#linear-gradient-85);}.cls-123{fill:url(#linear-gradient-65);}.cls-124{fill:url(#linear-gradient-36);}.cls-125{fill:url(#linear-gradient-180);}.cls-126{fill:url(#linear-gradient-48);}.cls-127{fill:url(#linear-gradient-49);}.cls-128{fill:url(#linear-gradient-161);}.cls-129{fill:url(#linear-gradient-8);}.cls-130{fill:url(#linear-gradient-47);}.cls-131{fill:url(#linear-gradient-173);}.cls-132{fill:url(#linear-gradient-24);}.cls-133{fill:url(#linear-gradient-26);}.cls-134{fill:url(#linear-gradient-61);}.cls-135{fill:url(#linear-gradient-114);}.cls-136{fill:url(#linear-gradient-18);}.cls-137{fill:url(#linear-gradient-51);}.cls-138{fill:url(#linear-gradient-30);}.cls-139{fill:url(#linear-gradient-121);}.cls-140{fill:url(#linear-gradient-44);}.cls-141{fill:url(#linear-gradient-84);}.cls-142{fill:url(#linear-gradient-97);}.cls-143{fill:url(#linear-gradient-68);}.cls-144{fill:url(#linear-gradient-129);}.cls-145{fill:url(#linear-gradient-72);}.cls-146{fill:url(#linear-gradient-29);}.cls-147{fill:url(#linear-gradient-46);}.cls-148{fill:url(#linear-gradient-140);}.cls-149{fill:url(#linear-gradient-168);}.cls-150{fill:url(#linear-gradient-171);}.cls-151{fill:url(#linear-gradient-64);}.cls-152{fill:url(#linear-gradient-107);}.cls-153{fill:url(#linear-gradient-109);}.cls-154{fill:url(#linear-gradient-145);}.cls-155{fill:url(#linear-gradient-113);}.cls-156{fill:url(#linear-gradient-182);}.cls-157{fill:url(#linear-gradient-28);}.cls-158{fill:url(#linear-gradient-56);}.cls-159{fill:url(#linear-gradient-99);}.cls-160{fill:url(#linear-gradient-10);}.cls-161{fill:url(#linear-gradient-150);}.cls-162{fill:url(#linear-gradient-174);}.cls-163{fill:url(#linear-gradient-87);}.cls-164{fill:url(#linear-gradient-70);}.cls-165{fill:url(#linear-gradient-78);}.cls-166{fill:url(#linear-gradient-86);}.cls-167{fill:url(#linear-gradient-74);}.cls-168{fill:url(#linear-gradient-177);}.cls-169{fill:url(#linear-gradient-169);}.cls-170{fill:url(#linear-gradient-102);}.cls-171{fill:url(#linear-gradient-4);}.cls-172{fill:url(#linear-gradient-118);}.cls-173{fill:url(#linear-gradient-112);}.cls-174{fill:url(#linear-gradient-123);}.cls-175{fill:url(#linear-gradient-176);}.cls-176{fill:url(#linear-gradient-128);}.cls-177{fill:url(#linear-gradient-37);}.cls-178{fill:url(#linear-gradient-166);}.cls-179{fill:url(#linear-gradient-80);}.cls-180{fill:url(#linear-gradient-115);}.cls-181{fill:url(#linear-gradient-135);}.cls-182{fill:url(#linear-gradient-158);}.cls-183{fill:url(#linear-gradient-116);}.cls-184{fill:url(#linear-gradient-79);}.cls-185{fill:url(#linear-gradient-111);}.cls-186{fill:url(#linear-gradient-108);}.cls-187{fill:url(#linear-gradient-144);}.cls-188{fill:url(#linear-gradient-75);}</style><linearGradient id="linear-gradient" x1="481.13" y1="1193.02" x2="521.48" y2="1193.02" gradientTransform="translate(0 -690.07) rotate(-30) scale(1.15 .87) skewX(-23.41)" gradientUnits="userSpaceOnUse"><stop offset="0" stop-color="#1e1e1f"/><stop offset="1" stop-color="#000"/></linearGradient><linearGradient id="linear-gradient-2" x1="448.27" y1="202.08" x2="521.48" y2="202.08" gradientUnits="userSpaceOnUse"><stop offset=".07" stop-color="#242425"/><stop offset="1" stop-color="#383839"/></linearGradient><linearGradient id="linear-gradient-3" x1="464.36" y1="195.12" x2="518.39" y2="195.12" xlink:href="#linear-gradient-2"/><linearGradient id="linear-gradient-4" x1="481.01" y1="1181.29" x2="518.39" y2="1181.29" xlink:href="#linear-gradient"/><linearGradient id="linear-gradient-5" x1="392.21" y1="245.04" x2="515.29" y2="245.04" xlink:href="#linear-gradient-2"/><linearGradient id="linear-gradient-6" x1="485.17" y1="265.19" x2="547.8" y2="332.29" gradientTransform="matrix(1,0,0,1,0,0)" xlink:href="#linear-gradient"/><linearGradient id="linear-gradient-7" x1="392.21" y1="260.03" x2="472.26" y2="260.03" gradientUnits="userSpaceOnUse"><stop offset="0" stop-color="#d5d5d5"/><stop offset="1" stop-color="#838484"/></linearGradient><linearGradient id="linear-gradient-8" x1="521.44" y1="265.33" x2="471.91" y2="293.92" gradientUnits="userSpaceOnUse"><stop offset="0" stop-color="#383839"/><stop offset=".93" stop-color="#242425"/></linearGradient><linearGradient id="linear-gradient-9" x1="522.36" y1="1288.22" x2="480.72" y2="1288.22" gradientTransform="translate(0 -719.22) rotate(-30) scale(1.15 .87) skewX(-23.41)" xlink:href="#linear-gradient"/><linearGradient id="linear-gradient-10" x1="192.75" y1="417.02" x2="238.88" y2="390.38" gradientTransform="matrix(1,0,0,1,0,0)" xlink:href="#linear-gradient"/><linearGradient id="linear-gradient-11" x1="192.74" y1="416.1" x2="238.88" y2="389.45" gradientUnits="userSpaceOnUse"><stop offset="0" stop-color="#5a5b5b"/><stop offset="1" stop-color="#3a3a3a"/></linearGradient><linearGradient id="linear-gradient-12" x1="218.31" y1="430.9" x2="264.44" y2="404.26" gradientTransform="matrix(1,0,0,1,0,0)" xlink:href="#linear-gradient"/><linearGradient id="linear-gradient-13" x1="218.3" y1="429.97" x2="264.44" y2="403.33" xlink:href="#linear-gradient-11"/><linearGradient id="linear-gradient-14" x1="364.11" y1="284.85" x2="449.82" y2="284.85" xlink:href="#linear-gradient-11"/><linearGradient id="linear-gradient-15" x1="511.58" y1="193.76" x2="530.84" y2="193.76" gradientTransform="matrix(1,0,0,1,0,0)" xlink:href="#linear-gradient"/><linearGradient id="linear-gradient-16" x1="490" y1="196.13" x2="525.17" y2="175.82" xlink:href="#linear-gradient-2"/><linearGradient id="linear-gradient-17" x1="468.97" y1="186.27" x2="526.63" y2="186.27" gradientUnits="userSpaceOnUse"><stop offset="0" stop-color="#fff"/><stop offset="1" stop-color="#ebebeb"/></linearGradient><linearGradient id="linear-gradient-18" x1="484.9" y1="1158.02" x2="518.29" y2="1158.02" xlink:href="#linear-gradient"/><linearGradient id="linear-gradient-19" x1="459.54" y1="180.7" x2="512.4" y2="150.17" xlink:href="#linear-gradient-2"/><linearGradient id="linear-gradient-20" x1="447.28" y1="161.27" x2="517.81" y2="161.27" xlink:href="#linear-gradient-17"/><linearGradient id="linear-gradient-21" x1="446.53" y1="160.12" x2="517.06" y2="160.12" xlink:href="#linear-gradient-17"/><linearGradient id="linear-gradient-22" x1="445.96" y1="159.08" x2="516.49" y2="159.08" xlink:href="#linear-gradient-17"/><linearGradient id="linear-gradient-23" x1="445.4" y1="158.05" x2="515.92" y2="158.05" xlink:href="#linear-gradient-17"/><linearGradient id="linear-gradient-24" x1="444.83" y1="157.01" x2="515.36" y2="157.01" xlink:href="#linear-gradient-17"/><linearGradient id="linear-gradient-25" x1="444.26" y1="155.97" x2="514.79" y2="155.97" xlink:href="#linear-gradient-17"/><linearGradient id="linear-gradient-26" x1="443.69" y1="154.94" x2="514.22" y2="154.94" xlink:href="#linear-gradient-17"/><linearGradient id="linear-gradient-27" x1="443.13" y1="153.9" x2="513.65" y2="153.9" xlink:href="#linear-gradient-17"/><linearGradient id="linear-gradient-28" x1="442.56" y1="152.86" x2="513.09" y2="152.86" xlink:href="#linear-gradient-17"/><linearGradient id="linear-gradient-29" x1="441.99" y1="151.83" x2="512.52" y2="151.83" xlink:href="#linear-gradient-17"/><linearGradient id="linear-gradient-30" x1="484.9" y1="1125.91" x2="518.29" y2="1125.91" xlink:href="#linear-gradient"/><linearGradient id="linear-gradient-31" x1="459.54" y1="148.59" x2="512.4" y2="118.07" xlink:href="#linear-gradient-2"/><linearGradient id="linear-gradient-32" x1="447.28" y1="129.16" x2="517.81" y2="129.16" xlink:href="#linear-gradient-17"/><linearGradient id="linear-gradient-33" x1="446.53" y1="128.01" x2="517.06" y2="128.01" xlink:href="#linear-gradient-17"/><linearGradient id="linear-gradient-34" x1="445.96" y1="126.98" x2="516.49" y2="126.98" xlink:href="#linear-gradient-17"/><linearGradient id="linear-gradient-35" x1="445.4" y1="125.94" x2="515.92" y2="125.94" xlink:href="#linear-gradient-17"/><linearGradient id="linear-gradient-36" x1="444.83" y1="124.9" x2="515.36" y2="124.9" xlink:href="#linear-gradient-17"/><linearGradient id="linear-gradient-37" x1="444.26" y1="123.87" x2="514.79" y2="123.87" xlink:href="#linear-gradient-17"/><linearGradient id="linear-gradient-38" x1="443.69" y1="122.83" x2="514.22" y2="122.83" xlink:href="#linear-gradient-17"/><linearGradient id="linear-gradient-39" x1="443.13" y1="121.79" x2="513.65" y2="121.79" xlink:href="#linear-gradient-17"/><linearGradient id="linear-gradient-40" x1="442.56" y1="120.76" x2="513.09" y2="120.76" xlink:href="#linear-gradient-17"/><linearGradient id="linear-gradient-41" x1="441.99" y1="119.72" x2="512.52" y2="119.72" xlink:href="#linear-gradient-17"/><linearGradient id="linear-gradient-42" x1="484.9" y1="1093.81" x2="518.29" y2="1093.81" xlink:href="#linear-gradient"/><linearGradient id="linear-gradient-43" x1="459.54" y1="116.48" x2="512.4" y2="85.96" xlink:href="#linear-gradient-2"/><linearGradient id="linear-gradient-44" x1="447.28" y1="97.05" x2="517.81" y2="97.05" xlink:href="#linear-gradient-17"/><linearGradient id="linear-gradient-45" x1="446.53" y1="95.91" x2="517.06" y2="95.91" xlink:href="#linear-gradient-17"/><linearGradient id="linear-gradient-46" x1="445.96" y1="94.87" x2="516.49" y2="94.87" xlink:href="#linear-gradient-17"/><linearGradient id="linear-gradient-47" x1="445.4" y1="93.83" x2="515.92" y2="93.83" xlink:href="#linear-gradient-17"/><linearGradient id="linear-gradient-48" x1="444.83" y1="92.8" x2="515.36" y2="92.8" xlink:href="#linear-gradient-17"/><linearGradient id="linear-gradient-49" x1="444.26" y1="91.76" x2="514.79" y2="91.76" xlink:href="#linear-gradient-17"/><linearGradient id="linear-gradient-50" x1="443.69" y1="90.72" x2="514.22" y2="90.72" xlink:href="#linear-gradient-17"/><linearGradient id="linear-gradient-51" x1="443.13" y1="89.69" x2="513.65" y2="89.69" xlink:href="#linear-gradient-17"/><linearGradient id="linear-gradient-52" x1="442.56" y1="88.65" x2="513.09" y2="88.65" xlink:href="#linear-gradient-17"/><linearGradient id="linear-gradient-53" x1="441.99" y1="87.62" x2="512.52" y2="87.62" xlink:href="#linear-gradient-17"/><linearGradient id="linear-gradient-54" x1="422.84" y1="181.71" x2="495.84" y2="312.91" xlink:href="#linear-gradient-7"/><linearGradient id="linear-gradient-55" x1="319.33" y1="310.17" x2="399.39" y2="310.17" xlink:href="#linear-gradient-8"/><linearGradient id="linear-gradient-56" x1="319.33" y1="273.61" x2="416.16" y2="273.61" xlink:href="#linear-gradient-11"/><linearGradient id="linear-gradient-57" x1="393.8" y1="306.96" x2="396.2" y2="363.88" xlink:href="#linear-gradient-7"/><linearGradient id="linear-gradient-58" x1="392.18" y1="335.6" x2="397.91" y2="335.6" xlink:href="#linear-gradient-8"/><linearGradient id="linear-gradient-59" x1="314.22" y1="284.93" x2="397.91" y2="284.93" xlink:href="#linear-gradient-11"/><linearGradient id="linear-gradient-60" x1="271.07" y1="301.41" x2="392.86" y2="301.41" xlink:href="#linear-gradient-11"/><linearGradient id="linear-gradient-61" x1="312.8" y1="285.79" x2="392.86" y2="285.79" xlink:href="#linear-gradient-8"/><linearGradient id="linear-gradient-62" x1="312.8" y1="281.94" x2="393.82" y2="281.94" xlink:href="#linear-gradient-11"/><linearGradient id="linear-gradient-63" x1="332.03" y1="308.87" x2="389.06" y2="308.87" xlink:href="#linear-gradient-8"/><linearGradient id="linear-gradient-64" x1="333.08" y1="308.35" x2="390.11" y2="308.35" gradientTransform="matrix(1,0,0,1,0,0)" xlink:href="#linear-gradient"/><linearGradient id="linear-gradient-65" x1="205.16" y1="313.01" x2="363.51" y2="313.01" xlink:href="#linear-gradient-11"/><linearGradient id="linear-gradient-66" x1="305.43" y1="331.32" x2="363.91" y2="393.97" xlink:href="#linear-gradient-7"/><linearGradient id="linear-gradient-67" x1="369.76" y1="188.81" x2="449.82" y2="188.81" xlink:href="#linear-gradient-8"/><linearGradient id="linear-gradient-68" x1="369.76" y1="75.36" x2="491.38" y2="75.36" xlink:href="#linear-gradient-11"/><linearGradient id="linear-gradient-69" x1="466.03" y1="88.84" x2="473.05" y2="101.46" gradientTransform="matrix(1,0,0,1,0,0)" xlink:href="#linear-gradient"/><linearGradient id="linear-gradient-70" x1="372.08" y1="88.84" x2="448.39" y2="88.84" xlink:href="#linear-gradient-8"/><linearGradient id="linear-gradient-71" x1="372.08" y1="66.56" x2="488" y2="66.56" xlink:href="#linear-gradient-11"/><linearGradient id="linear-gradient-72" x1="425.25" y1="174.38" x2="486.24" y2="283.98" gradientTransform="matrix(1,0,0,1,0,0)" xlink:href="#linear-gradient"/><linearGradient id="linear-gradient-73" x1="360.37" y1="187.3" x2="436.68" y2="187.3" xlink:href="#linear-gradient-8"/><linearGradient id="linear-gradient-74" x1="360.37" y1="91.9" x2="446.95" y2="91.9" xlink:href="#linear-gradient-11"/><linearGradient id="linear-gradient-75" x1="285.22" y1="369.25" x2="393.83" y2="369.25" xlink:href="#linear-gradient-8"/><linearGradient id="linear-gradient-76" x1="449.82" y1="122.15" x2="491.38" y2="122.15" xlink:href="#linear-gradient-8"/><linearGradient id="linear-gradient-77" x1="449.82" y1="164.26" x2="491.38" y2="164.26" xlink:href="#linear-gradient-8"/><linearGradient id="linear-gradient-78" x1="449.82" y1="206.37" x2="491.38" y2="206.37" xlink:href="#linear-gradient-8"/><linearGradient id="linear-gradient-79" x1="399.39" y1="320.8" x2="444.16" y2="320.8" xlink:href="#linear-gradient-8"/><linearGradient id="linear-gradient-80" x1="205.16" y1="331.94" x2="328.24" y2="331.94" xlink:href="#linear-gradient-8"/><linearGradient id="linear-gradient-81" x1="205.16" y1="325.43" x2="328.24" y2="325.43" xlink:href="#linear-gradient-8"/><linearGradient id="linear-gradient-82" x1="285.22" y1="351.8" x2="328.24" y2="351.8" gradientTransform="matrix(1,0,0,1,0,0)" xlink:href="#linear-gradient"/><linearGradient id="linear-gradient-83" x1="205.16" y1="372.83" x2="285.22" y2="372.83" gradientUnits="userSpaceOnUse"><stop offset="0" stop-color="#383839"/><stop offset="1" stop-color="#272728"/></linearGradient><linearGradient id="linear-gradient-84" x1="205.16" y1="313.09" x2="328.24" y2="313.09" gradientUnits="userSpaceOnUse"><stop offset="0" stop-color="#ebebeb"/><stop offset="1" stop-color="#838484"/></linearGradient><linearGradient id="linear-gradient-85" x1="299.96" y1="335.2" x2="362.59" y2="402.31" xlink:href="#linear-gradient-7"/><linearGradient id="linear-gradient-86" x1="205.16" y1="331.76" x2="285.22" y2="331.76" xlink:href="#linear-gradient-7"/><linearGradient id="linear-gradient-87" x1="330.69" y1="319.34" x2="342.34" y2="319.34" gradientTransform="matrix(1,0,0,1,0,0)" xlink:href="#linear-gradient"/><linearGradient id="linear-gradient-88" x1="203.57" y1="363.67" x2="211.55" y2="395.05" xlink:href="#linear-gradient-83"/><linearGradient id="linear-gradient-89" x1="202.27" y1="343.05" x2="211.72" y2="380.18" xlink:href="#linear-gradient-83"/><linearGradient id="linear-gradient-90" x1="197.16" y1="389.45" x2="201.84" y2="386.74" xlink:href="#linear-gradient-83"/><linearGradient id="linear-gradient-91" x1="212.63" y1="335.74" x2="215.41" y2="334.13" xlink:href="#linear-gradient-11"/><linearGradient id="linear-gradient-92" x1="212.18" y1="336.21" x2="213.34" y2="335.54" xlink:href="#linear-gradient-83"/><linearGradient id="linear-gradient-93" x1="213.39" y1="336.89" x2="214.31" y2="340.5" xlink:href="#linear-gradient-83"/><linearGradient id="linear-gradient-94" x1="199.8" y1="1362.06" x2="215.9" y2="1362.06" gradientTransform="translate(0 -874) rotate(-30) scale(1.15 .87) skewX(-23.41)" xlink:href="#linear-gradient"/><linearGradient id="linear-gradient-95" x1="188.16" y1="409.27" x2="266.97" y2="409.27" gradientUnits="userSpaceOnUse"><stop offset="0" stop-color="#ebebeb"/><stop offset="1" stop-color="#fff"/></linearGradient><linearGradient id="linear-gradient-96" x1="188.44" y1="407.79" x2="267.24" y2="407.79" xlink:href="#linear-gradient-95"/><linearGradient id="linear-gradient-97" x1="188.71" y1="406.31" x2="267.52" y2="406.31" xlink:href="#linear-gradient-95"/><linearGradient id="linear-gradient-98" x1="188.99" y1="404.83" x2="267.79" y2="404.83" xlink:href="#linear-gradient-95"/><linearGradient id="linear-gradient-99" x1="189.26" y1="403.35" x2="268.06" y2="403.35" xlink:href="#linear-gradient-95"/><linearGradient id="linear-gradient-100" x1="189.53" y1="401.88" x2="268.34" y2="401.88" xlink:href="#linear-gradient-95"/><linearGradient id="linear-gradient-101" x1="189.8" y1="400.4" x2="268.6" y2="400.4" xlink:href="#linear-gradient-95"/><linearGradient id="linear-gradient-102" x1="190.07" y1="398.92" x2="268.88" y2="398.92" xlink:href="#linear-gradient-95"/><linearGradient id="linear-gradient-103" x1="190.35" y1="397.45" x2="269.15" y2="397.45" xlink:href="#linear-gradient-95"/><linearGradient id="linear-gradient-104" x1="190.62" y1="395.97" x2="269.43" y2="395.97" xlink:href="#linear-gradient-95"/><linearGradient id="linear-gradient-105" x1="190.9" y1="394.49" x2="269.7" y2="394.49" xlink:href="#linear-gradient-95"/><linearGradient id="linear-gradient-106" x1="191.17" y1="393.01" x2="269.97" y2="393.01" xlink:href="#linear-gradient-95"/><linearGradient id="linear-gradient-107" x1="191.44" y1="391.53" x2="270.25" y2="391.53" xlink:href="#linear-gradient-95"/><linearGradient id="linear-gradient-108" x1="191.72" y1="390.05" x2="270.52" y2="390.05" xlink:href="#linear-gradient-95"/><linearGradient id="linear-gradient-109" x1="191.99" y1="388.57" x2="270.8" y2="388.57" xlink:href="#linear-gradient-95"/><linearGradient id="linear-gradient-110" x1="192.27" y1="387.09" x2="271.07" y2="387.09" xlink:href="#linear-gradient-95"/><linearGradient id="linear-gradient-111" x1="192.54" y1="385.61" x2="271.34" y2="385.61" xlink:href="#linear-gradient-95"/><linearGradient id="linear-gradient-112" x1="192.81" y1="384.13" x2="271.62" y2="384.13" xlink:href="#linear-gradient-95"/><linearGradient id="linear-gradient-113" x1="209.14" y1="378.95" x2="271.62" y2="378.95" xlink:href="#linear-gradient-95"/><linearGradient id="linear-gradient-114" x1="261.31" y1="397.71" x2="269.29" y2="429.09" xlink:href="#linear-gradient-83"/><linearGradient id="linear-gradient-115" x1="260.01" y1="377.09" x2="269.46" y2="414.21" xlink:href="#linear-gradient-83"/><linearGradient id="linear-gradient-116" x1="254.9" y1="423.48" x2="259.58" y2="420.78" xlink:href="#linear-gradient-83"/><linearGradient id="linear-gradient-117" x1="270.37" y1="369.78" x2="273.15" y2="368.17" xlink:href="#linear-gradient-11"/><linearGradient id="linear-gradient-118" x1="269.92" y1="370.25" x2="271.08" y2="369.58" xlink:href="#linear-gradient-83"/><linearGradient id="linear-gradient-119" x1="271.13" y1="370.92" x2="272.05" y2="374.54" xlink:href="#linear-gradient-83"/><linearGradient id="linear-gradient-120" x1="257.54" y1="1429.43" x2="273.64" y2="1429.43" gradientTransform="translate(0 -874) rotate(-30) scale(1.15 .87) skewX(-23.41)" xlink:href="#linear-gradient"/><linearGradient id="linear-gradient-121" x1="267.51" y1="352.32" x2="279.41" y2="345.46" xlink:href="#linear-gradient-11"/><linearGradient id="linear-gradient-122" x1="261.82" y1="1429.27" x2="281.47" y2="1429.27" gradientTransform="translate(0 -911.45) rotate(-30) scale(1.15 .87) skewX(-23.41)" xlink:href="#linear-gradient"/><linearGradient id="linear-gradient-123" x1="223.57" y1="1432.99" x2="269.51" y2="1432.99" gradientTransform="translate(0 -911.45) rotate(-30) scale(1.15 .87) skewX(-23.41)" xlink:href="#linear-gradient"/><linearGradient id="linear-gradient-124" x1="267.94" y1="269.17" x2="266.32" y2="346.59" gradientTransform="matrix(1,0,0,1,0,0)" xlink:href="#linear-gradient"/><linearGradient id="linear-gradient-125" x1="269.37" y1="274.13" x2="267.93" y2="343.32" xlink:href="#linear-gradient-7"/><linearGradient id="linear-gradient-126" x1="264.32" y1="324.39" x2="264.02" y2="338.5" gradientUnits="userSpaceOnUse"><stop offset="0" stop-color="#a4a4a4"/><stop offset="1" stop-color="#838484"/></linearGradient><linearGradient id="linear-gradient-127" x1="210.06" y1="296.19" x2="208.7" y2="360.89" xlink:href="#linear-gradient-7"/><linearGradient id="linear-gradient-128" x1="212.32" y1="316.59" x2="210.81" y2="388.5" gradientUnits="userSpaceOnUse"><stop offset="0" stop-color="#d5d5d5"/><stop offset="1" stop-color="#838484"/></linearGradient><linearGradient id="linear-gradient-129" x1="178.13" y1="275.49" x2="177.16" y2="321.92" gradientTransform="matrix(1,0,0,1,0,0)" xlink:href="#linear-gradient"/><linearGradient id="linear-gradient-130" x1="180.1" y1="272.3" x2="179.55" y2="298.65" xlink:href="#linear-gradient-11"/><linearGradient id="linear-gradient-131" x1="232.11" y1="242.5" x2="229.92" y2="348.83" xlink:href="#linear-gradient-83"/><linearGradient id="linear-gradient-132" x1="231.45" y1="255.6" x2="229.81" y2="334.55" gradientTransform="matrix(1,0,0,1,0,0)" xlink:href="#linear-gradient"/><linearGradient id="linear-gradient-133" x1="169.81" y1="324.25" x2="248.61" y2="324.25" xlink:href="#linear-gradient-95"/><linearGradient id="linear-gradient-134" x1="170.09" y1="322.79" x2="248.89" y2="322.79" xlink:href="#linear-gradient-95"/><linearGradient id="linear-gradient-135" x1="170.36" y1="321.31" x2="249.17" y2="321.31" xlink:href="#linear-gradient-95"/><linearGradient id="linear-gradient-136" x1="170.64" y1="319.84" x2="249.44" y2="319.84" xlink:href="#linear-gradient-95"/><linearGradient id="linear-gradient-137" x1="170.91" y1="318.36" x2="249.71" y2="318.36" xlink:href="#linear-gradient-95"/><linearGradient id="linear-gradient-138" x1="171.18" y1="316.88" x2="249.99" y2="316.88" xlink:href="#linear-gradient-95"/><linearGradient id="linear-gradient-139" x1="171.46" y1="315.4" x2="250.26" y2="315.4" xlink:href="#linear-gradient-95"/><linearGradient id="linear-gradient-140" x1="171.73" y1="313.92" x2="250.54" y2="313.92" xlink:href="#linear-gradient-95"/><linearGradient id="linear-gradient-141" x1="172.01" y1="312.44" x2="250.81" y2="312.44" xlink:href="#linear-gradient-95"/><linearGradient id="linear-gradient-142" x1="172.28" y1="310.96" x2="251.08" y2="310.96" xlink:href="#linear-gradient-95"/><linearGradient id="linear-gradient-143" x1="172.55" y1="309.48" x2="251.36" y2="309.48" xlink:href="#linear-gradient-95"/><linearGradient id="linear-gradient-144" x1="172.83" y1="308" x2="251.63" y2="308" xlink:href="#linear-gradient-95"/><linearGradient id="linear-gradient-145" x1="173.1" y1="306.52" x2="251.91" y2="306.52" xlink:href="#linear-gradient-95"/><linearGradient id="linear-gradient-146" x1="173.38" y1="305.04" x2="252.18" y2="305.04" xlink:href="#linear-gradient-95"/><linearGradient id="linear-gradient-147" x1="173.65" y1="303.56" x2="252.45" y2="303.56" xlink:href="#linear-gradient-95"/><linearGradient id="linear-gradient-148" x1="173.92" y1="302.08" x2="252.73" y2="302.08" xlink:href="#linear-gradient-95"/><linearGradient id="linear-gradient-149" x1="174.2" y1="300.61" x2="253" y2="300.61" xlink:href="#linear-gradient-95"/><linearGradient id="linear-gradient-150" x1="174.47" y1="299.13" x2="253.28" y2="299.13" xlink:href="#linear-gradient-95"/><linearGradient id="linear-gradient-151" x1="174.75" y1="297.65" x2="253.55" y2="297.65" xlink:href="#linear-gradient-95"/><linearGradient id="linear-gradient-152" x1="175.02" y1="296.17" x2="253.82" y2="296.17" xlink:href="#linear-gradient-95"/><linearGradient id="linear-gradient-153" x1="175.29" y1="294.69" x2="254.1" y2="294.69" xlink:href="#linear-gradient-95"/><linearGradient id="linear-gradient-154" x1="175.57" y1="293.21" x2="254.37" y2="293.21" xlink:href="#linear-gradient-95"/><linearGradient id="linear-gradient-155" x1="175.84" y1="291.73" x2="254.65" y2="291.73" xlink:href="#linear-gradient-95"/><linearGradient id="linear-gradient-156" x1="176.12" y1="290.25" x2="254.92" y2="290.25" xlink:href="#linear-gradient-95"/><linearGradient id="linear-gradient-157" x1="176.39" y1="288.77" x2="255.19" y2="288.77" xlink:href="#linear-gradient-95"/><linearGradient id="linear-gradient-158" x1="176.66" y1="287.29" x2="255.47" y2="287.29" xlink:href="#linear-gradient-95"/><linearGradient id="linear-gradient-159" x1="176.93" y1="285.82" x2="255.73" y2="285.82" xlink:href="#linear-gradient-95"/><linearGradient id="linear-gradient-160" x1="177.2" y1="284.34" x2="256.01" y2="284.34" xlink:href="#linear-gradient-95"/><linearGradient id="linear-gradient-161" x1="177.48" y1="282.86" x2="256.28" y2="282.86" xlink:href="#linear-gradient-95"/><linearGradient id="linear-gradient-162" x1="177.75" y1="281.38" x2="256.56" y2="281.38" xlink:href="#linear-gradient-95"/><linearGradient id="linear-gradient-163" x1="178.03" y1="279.9" x2="256.83" y2="279.9" xlink:href="#linear-gradient-95"/><linearGradient id="linear-gradient-164" x1="178.3" y1="278.42" x2="257.1" y2="278.42" xlink:href="#linear-gradient-95"/><linearGradient id="linear-gradient-165" x1="178.57" y1="276.95" x2="257.38" y2="276.95" xlink:href="#linear-gradient-95"/><linearGradient id="linear-gradient-166" x1="178.85" y1="275.47" x2="257.65" y2="275.47" xlink:href="#linear-gradient-95"/><linearGradient id="linear-gradient-167" x1="179.12" y1="273.99" x2="257.92" y2="273.99" xlink:href="#linear-gradient-95"/><linearGradient id="linear-gradient-168" x1="179.4" y1="272.51" x2="258.2" y2="272.51" xlink:href="#linear-gradient-95"/><linearGradient id="linear-gradient-169" x1="179.67" y1="271.03" x2="258.47" y2="271.03" xlink:href="#linear-gradient-95"/><linearGradient id="linear-gradient-170" x1="179.94" y1="269.55" x2="258.75" y2="269.55" xlink:href="#linear-gradient-95"/><linearGradient id="linear-gradient-171" x1="196.27" y1="264.36" x2="258.75" y2="264.36" xlink:href="#linear-gradient-95"/><linearGradient id="linear-gradient-172" x1="238.44" y1="307.85" x2="259.59" y2="307.85" xlink:href="#linear-gradient-11"/><linearGradient id="linear-gradient-173" x1="245.47" y1="314.43" x2="244.5" y2="360.87" gradientTransform="matrix(1,0,0,1,0,0)" xlink:href="#linear-gradient"/><linearGradient id="linear-gradient-174" x1="247.43" y1="311.25" x2="246.88" y2="337.59" xlink:href="#linear-gradient-11"/><linearGradient id="linear-gradient-175" x1="244.97" y1="210.3" x2="244.18" y2="247.92" xlink:href="#linear-gradient-8"/><linearGradient id="linear-gradient-176" x1="-3545.89" y1="263.12" x2="-3537.69" y2="263.12" gradientTransform="translate(-3319.54) rotate(-180) scale(1 -1)" xlink:href="#linear-gradient-83"/><linearGradient id="linear-gradient-177" x1="-3546.8" y1="264.04" x2="-3540.43" y2="264.04" gradientTransform="translate(-3319.54) rotate(-180) scale(1 -1)" xlink:href="#linear-gradient"/><linearGradient id="linear-gradient-178" x1="238.51" y1="252.77" x2="222.91" y2="252.77" gradientTransform="matrix(1,0,0,1,0,0)" xlink:href="#linear-gradient"/><linearGradient id="linear-gradient-179" x1="238.51" y1="252.29" x2="221.26" y2="252.29" xlink:href="#linear-gradient-8"/><radialGradient id="radial-gradient" cx="350" cy="256" fx="350" fy="256" r="246.3" gradientTransform="translate(283.53 -172.51) rotate(45)" gradientUnits="userSpaceOnUse"><stop offset="0" stop-color="#fff" stop-opacity="0"/><stop offset=".36" stop-color="#fff" stop-opacity="0"/><stop offset=".56" stop-color="#fff" stop-opacity=".04"/><stop offset=".71" stop-color="#fff" stop-opacity=".09"/><stop offset=".85" stop-color="#fff" stop-opacity=".17"/><stop offset=".97" stop-color="#fff" stop-opacity=".27"/><stop offset="1" stop-color="#fff" stop-opacity=".3"/></radialGradient><linearGradient id="linear-gradient-180" x1="428.25" y1="373.75" x2="567.11" y2="373.75" gradientTransform="translate(943.71) rotate(-180) scale(1 -1)" gradientUnits="userSpaceOnUse"><stop offset=".61" stop-color="#9e9e9e"/><stop offset=".75" stop-color="#6d7678"/></linearGradient><linearGradient id="linear-gradient-181" x1="428.24" y1="318.29" x2="567.12" y2="318.29" gradientTransform="translate(943.71) rotate(-180) scale(1 -1)" xlink:href="#linear-gradient-84"/><linearGradient id="linear-gradient-182" x1="491.07" y1="238.89" x2="506.78" y2="344.11" gradientTransform="translate(943.71) rotate(-180) scale(1 -1)" gradientUnits="userSpaceOnUse"><stop offset="0" stop-color="#242425"/><stop offset=".8" stop-color="#000"/></linearGradient><linearGradient id="linear-gradient-183" x1="472.68" y1="362.82" x2="478.8" y2="395.48" xlink:href="#linear-gradient-182"/></defs><polygon class="cls-55" points="158.78 400.48 415.06 252.51 512.01 308.49 255.73 456.45 158.78 400.48"/><path class="cls-10" d="m481.13,213.89v16.39s6.9-5.4,17.86-10.19c10.96-4.8,21.31-6.29,21.31-6.29l1.17-4.57-40.34,4.66Z"/><polygon class="cls-86" points="521.48 209.23 488.61 190.28 448.27 194.94 481.13 213.89 521.48 209.23"/><polygon class="cls-96" points="518.39 203.11 485.53 184.16 464.36 186.08 492.58 206.09 518.39 203.11"/><path class="cls-171" d="m518.39,203.11l-.24,5.41-37.14,4.85v-13.23c1.54-1.36,4.52-4.09,5.42-5.7,1.24-2.21,1.94-.81,2.18,1.73.24,2.53.29,9.89,8.61,8.86,8.31-1.03,21.17-1.92,21.17-1.92Z"/><polygon class="cls-43" points="515.29 259.42 472.26 276.9 392.21 230.67 435.22 213.19 515.29 259.42"/><polygon class="cls-24" points="472.26 289.39 472.26 276.9 515.29 259.42 515.29 264.56 472.26 289.39"/><polygon class="cls-94" points="392.21 230.67 392.21 243.16 472.26 289.39 472.26 276.9 392.21 230.67"/><path class="cls-129" d="m519.39,264.33h0c-.26-.18-.59-.25-.96-.16l-22.71,5.07c-.27.06-.53.04-.77-.01.16-.33.3-.62.3-.62l-2.2-1.24h0c-.45-.22-1.02-.17-1.62.2l-12.98,7.92v29.77l40.97-35.15c.39-.33.67-.95.67-1.48v-2.08l1.47-1-2.16-1.21Z"/><path class="cls-104" d="m522.36,267.36v2.55c0,.53-.28,1.15-.67,1.48l-40.97,35.15v-29.77l12.98-7.92c.9-.55,1.74-.41,2.2.36l.33.55c.39.66,1.03.93,1.77.77l22.71-5.07c.97-.22,1.65.57,1.65,1.91Z"/><path class="cls-160" d="m232.22,389.1l-39.89,23.02c-.17.1-.31.2-.45.31-.02-.02-.03-.03-.04-.03-.02,0-.78.51-.78.51l.02.96c.02.46.3.9.87,1.23l4.11,2.37c1.32.77,3.63.67,5.15-.21l39.89-23.02-8.89-5.13Z"/><path class="cls-36" d="m241.11,393.31l-39.89,23.02c-1.52.88-3.83.98-5.15.21l-4.11-2.37c-1.32-.76-1.15-2.09.37-2.98l39.89-23.02,8.89,5.13Z"/><path class="cls-2" d="m257.78,402.98l-39.89,23.02c-.17.1-.31.2-.45.31-.02-.02-.03-.03-.04-.03-.02,0-.78.51-.78.51l.02.96c.02.46.3.9.87,1.23l4.11,2.37c1.32.77,3.63.67,5.15-.21l39.89-23.02-8.89-5.13Z"/><path class="cls-68" d="m266.67,407.18l-39.89,23.02c-1.52.88-3.83.98-5.16.21l-4.11-2.37c-1.32-.76-1.15-2.09.37-2.98l39.89-23.02,8.89,5.13Z"/><polygon class="cls-85" points="369.76 260.11 449.82 306.34 444.17 309.6 364.11 263.37 369.76 260.11"/><path class="cls-35" d="m530.84,186.48l-17.14,15.78c-.69.05-1.39.12-2.12.18l18.94-17.36.32,1.4Z"/><polygon class="cls-72" points="530.51 185.07 511.57 202.44 484.65 186.87 503.6 169.5 530.51 185.07"/><path class="cls-5" d="m526.63,184.83s-11.94,12.83-21.32,15-16.08,2.28-16.08,2.28l-20.26-11.7s8.02-2.03,14.33-5.29c6.32-3.26,17.66-14.7,17.66-14.7l25.66,14.41Z"/><path class="cls-136" d="m489.53,193.41l-.9-3.17c-.15-.53.12-1.35.59-1.78l29.08-26.63-.56-2.43-32.84,29.92v8.25l4.63-4.17Z"/><polygon class="cls-8" points="517.73 159.4 487.04 141.54 454.21 171.46 484.9 189.33 517.73 159.4"/><polygon class="cls-84" points="482.15 187.21 447.28 167.07 482.94 135.32 517.81 155.46 482.15 187.21"/><polygon class="cls-55" points="481.33 186.73 446.46 166.59 482.11 134.84 516.98 154.97 481.33 186.73"/><polygon class="cls-23" points="481.4 186.06 446.53 165.93 482.19 134.18 517.06 154.31 481.4 186.06"/><polygon class="cls-55" points="480.76 185.69 445.89 165.56 481.55 133.81 516.42 153.94 480.76 185.69"/><polygon class="cls-73" points="480.83 185.02 445.96 164.89 481.62 133.14 516.49 153.27 480.83 185.02"/><polygon class="cls-55" points="480.19 184.65 445.32 164.52 480.98 132.77 515.85 152.9 480.19 184.65"/><polygon class="cls-69" points="480.27 183.99 445.4 163.85 481.05 132.1 515.92 152.24 480.27 183.99"/><polygon class="cls-55" points="479.62 183.62 444.75 163.48 480.41 131.73 515.28 151.87 479.62 183.62"/><polygon class="cls-132" points="479.7 182.95 444.83 162.82 480.49 131.07 515.36 151.2 479.7 182.95"/><polygon class="cls-55" points="479.06 182.58 444.19 162.45 479.84 130.7 514.71 150.83 479.06 182.58"/><polygon class="cls-70" points="479.13 181.91 444.26 161.78 479.92 130.03 514.79 150.16 479.13 181.91"/><polygon class="cls-55" points="478.49 181.54 443.62 161.41 479.28 129.66 514.15 149.79 478.49 181.54"/><polygon class="cls-133" points="478.56 180.88 443.69 160.75 479.35 129 514.22 149.13 478.56 180.88"/><polygon class="cls-55" points="477.92 180.51 443.05 160.38 478.71 128.63 513.58 148.76 477.92 180.51"/><polygon class="cls-105" points="478 179.84 443.13 159.71 478.78 127.96 513.65 148.09 478 179.84"/><polygon class="cls-55" points="477.35 179.47 442.48 159.34 478.14 127.59 513.01 147.72 477.35 179.47"/><polygon class="cls-157" points="477.43 178.81 442.56 158.67 478.22 126.92 513.09 147.06 477.43 178.81"/><polygon class="cls-55" points="476.79 178.44 441.92 158.3 477.58 126.55 512.44 146.69 476.79 178.44"/><polygon class="cls-146" points="476.86 177.77 441.99 157.64 477.65 125.89 512.52 146.02 476.86 177.77"/><path class="cls-44" d="m515.68,159.82l-2.71-3.81c-2.35-3.31-7.08-3.8-10.05-1.03l-25.24,23.47,8.49,8.42,29.51-27.05Z"/><path class="cls-138" d="m489.53,161.31l-.9-3.17c-.15-.53.12-1.34.59-1.78l29.08-26.63-.56-2.43-32.84,29.92v8.25l4.63-4.17Z"/><polygon class="cls-48" points="517.73 127.3 487.04 109.44 454.21 139.36 484.9 157.22 517.73 127.3"/><polygon class="cls-81" points="482.15 155.1 447.28 134.97 482.94 103.22 517.81 123.35 482.15 155.1"/><polygon class="cls-55" points="481.33 154.62 446.46 134.49 482.11 102.74 516.98 122.87 481.33 154.62"/><polygon class="cls-9" points="481.4 153.95 446.53 133.82 482.19 102.07 517.06 122.2 481.4 153.95"/><polygon class="cls-55" points="480.76 153.58 445.89 133.45 481.55 101.7 516.42 121.83 480.76 153.58"/><polygon class="cls-54" points="480.83 152.92 445.96 132.79 481.62 101.03 516.49 121.17 480.83 152.92"/><polygon class="cls-55" points="480.19 152.55 445.32 132.42 480.98 100.66 515.85 120.8 480.19 152.55"/><polygon class="cls-79" points="480.27 151.88 445.4 131.75 481.05 100 515.92 120.13 480.27 151.88"/><polygon class="cls-55" points="479.62 151.51 444.75 131.38 480.41 99.63 515.28 119.76 479.62 151.51"/><polygon class="cls-124" points="479.7 150.84 444.83 130.71 480.49 98.96 515.36 119.09 479.7 150.84"/><polygon class="cls-55" points="479.06 150.47 444.19 130.34 479.84 98.59 514.71 118.72 479.06 150.47"/><polygon class="cls-177" points="479.13 149.81 444.26 129.68 479.92 97.93 514.79 118.06 479.13 149.81"/><polygon class="cls-55" points="478.49 149.44 443.62 129.31 479.28 97.56 514.15 117.69 478.49 149.44"/><polygon class="cls-1" points="478.56 148.77 443.69 128.64 479.35 96.89 514.22 117.02 478.56 148.77"/><polygon class="cls-55" points="477.92 148.4 443.05 128.27 478.71 96.52 513.58 116.65 477.92 148.4"/><polygon class="cls-95" points="478 147.74 443.13 127.6 478.78 95.85 513.65 115.99 478 147.74"/><polygon class="cls-55" points="477.35 147.37 442.48 127.23 478.14 95.48 513.01 115.62 477.35 147.37"/><polygon class="cls-64" points="477.43 146.7 442.56 126.57 478.22 94.82 513.09 114.95 477.43 146.7"/><polygon class="cls-55" points="476.79 146.33 441.92 126.2 477.58 94.45 512.44 114.58 476.79 146.33"/><polygon class="cls-62" points="476.86 145.66 441.99 125.53 477.65 93.78 512.52 113.91 476.86 145.66"/><path class="cls-44" d="m515.68,127.72l-2.71-3.81c-2.35-3.31-7.08-3.8-10.05-1.03l-25.24,23.47,8.49,8.42,29.51-27.05Z"/><path class="cls-31" d="m489.53,129.2l-.9-3.17c-.15-.53.12-1.34.59-1.78l29.08-26.63-.56-2.43-32.84,29.92v8.25l4.63-4.17Z"/><polygon class="cls-71" points="517.73 95.19 487.04 77.33 454.21 107.25 484.9 125.12 517.73 95.19"/><polygon class="cls-140" points="482.15 122.99 447.28 102.86 482.94 71.11 517.81 91.24 482.15 122.99"/><polygon class="cls-55" points="481.33 122.51 446.46 102.38 482.11 70.63 516.98 90.76 481.33 122.51"/><polygon class="cls-90" points="481.4 121.85 446.53 101.72 482.19 69.96 517.06 90.1 481.4 121.85"/><polygon class="cls-55" points="480.76 121.48 445.89 101.35 481.55 69.59 516.42 89.73 480.76 121.48"/><polygon class="cls-147" points="480.83 120.81 445.96 100.68 481.62 68.93 516.49 89.06 480.83 120.81"/><polygon class="cls-55" points="480.19 120.44 445.32 100.31 480.98 68.56 515.85 88.69 480.19 120.44"/><polygon class="cls-130" points="480.27 119.77 445.4 99.64 481.05 67.89 515.92 88.02 480.27 119.77"/><polygon class="cls-55" points="479.62 119.4 444.75 99.27 480.41 67.52 515.28 87.65 479.62 119.4"/><polygon class="cls-126" points="479.7 118.74 444.83 98.61 480.49 66.86 515.36 86.99 479.7 118.74"/><polygon class="cls-55" points="479.06 118.37 444.19 98.24 479.84 66.49 514.71 86.62 479.06 118.37"/><polygon class="cls-127" points="479.13 117.7 444.26 97.57 479.92 65.82 514.79 85.95 479.13 117.7"/><polygon class="cls-55" points="478.49 117.33 443.62 97.2 479.28 65.45 514.15 85.58 478.49 117.33"/><polygon class="cls-80" points="478.56 116.67 443.69 96.53 479.35 64.78 514.22 84.92 478.56 116.67"/><polygon class="cls-55" points="477.92 116.3 443.05 96.16 478.71 64.41 513.58 84.55 477.92 116.3"/><polygon class="cls-137" points="478 115.63 443.13 95.5 478.78 63.75 513.65 83.88 478 115.63"/><polygon class="cls-55" points="477.35 115.26 442.48 95.13 478.14 63.38 513.01 83.51 477.35 115.26"/><polygon class="cls-89" points="477.43 114.59 442.56 94.46 478.22 62.71 513.09 82.84 477.43 114.59"/><polygon class="cls-55" points="476.79 114.22 441.92 94.09 477.58 62.34 512.44 82.47 476.79 114.22"/><polygon class="cls-118" points="476.86 113.56 441.99 93.43 477.65 61.67 512.52 81.81 476.86 113.56"/><path class="cls-44" d="m515.68,95.61l-2.71-3.81c-2.35-3.31-7.08-3.8-10.05-1.03l-25.24,23.47,8.49,8.42,29.51-27.05Z"/><polygon class="cls-74" points="491.38 79.44 491.38 311.91 399.39 365.01 399.39 301.56 416.16 291.88 438.78 306.19 443.15 308.96 444.16 309.6 445.44 308.87 449.82 306.34 449.82 117.51 491.38 79.44"/><polygon class="cls-75" points="399.39 365.02 399.39 301.56 319.33 255.33 319.33 318.79 399.39 365.02"/><polygon class="cls-158" points="336.1 245.65 416.16 291.88 399.39 301.56 319.33 255.33 336.1 245.65"/><polygon class="cls-20" points="397.91 305.53 397.91 364.16 392.18 367.47 392.18 308.84 397.91 305.53"/><polygon class="cls-51" points="397.91 333.33 397.91 334.57 393.83 336.92 392.18 337.87 392.18 336.63 393.83 335.68 397.91 333.33"/><polygon class="cls-83" points="319.96 261.02 397.91 305.53 392.17 308.84 314.22 264.33 319.96 261.02"/><polygon class="cls-82" points="351.13 336.57 392.86 312.48 312.8 266.25 271.07 290.34 351.13 336.57"/><polygon class="cls-134" points="392.86 312.48 312.8 266.25 312.8 259.1 392.86 305.33 392.86 312.48"/><polygon class="cls-12" points="313.76 258.55 393.82 304.78 392.86 305.33 312.8 259.1 313.76 258.55"/><path class="cls-52" d="m388.15,312.83l-37.66,21.74c-.86.5-1.96.21-2.47-.64l-15.74-26.51c-.52-.87-.22-1.99.65-2.5l37.66-21.74c.86-.5,1.96-.21,2.47.64l15.74,26.51c.52.87.22,1.99-.65,2.5Z"/><path class="cls-151" d="m389.2,312.3l-37.66,21.74c-.86.5-1.96.21-2.47-.64l-15.74-26.51c-.52-.87-.22-1.99.65-2.5l37.66-21.74c.86-.5,1.96-.21,2.47.64l15.74,26.51c.52.87.22,1.99-.65,2.5Z"/><polygon class="cls-76" points="349.91 330.97 382.08 312.3 367.82 288.4 335.65 307.07 349.91 330.97"/><path class="cls-123" d="m342.34,324.35l8.8,5.07-4.31,2.49-61.61,35.56-80.06-46.23,108.61-62.7,49.74,28.72-30.58,17.65c-.88.5-1.17,1.62-.65,2.5l4.1,6.9-5.69,3.31,11.64,6.72Z"/><polygon class="cls-66" points="393.83 304.77 393.83 368.23 285.22 430.93 285.22 367.47 351.13 329.42 351.13 336.57 392.86 312.47 392.86 305.33 393.83 304.77"/><polygon class="cls-17" points="369.76 71.27 369.76 260.11 449.82 306.34 449.82 117.5 369.76 71.27"/><polygon class="cls-143" points="411.32 33.22 491.38 79.45 449.82 117.5 369.76 71.27 411.32 33.22"/><polygon class="cls-100" points="488 70.45 488 78.75 448.39 115.02 448.39 106.73 488 70.45"/><polygon class="cls-164" points="372.08 62.66 372.08 70.96 448.39 115.02 448.39 106.73 372.08 62.66"/><polygon class="cls-50" points="411.69 26.39 488 70.45 448.39 106.73 372.08 62.66 411.69 26.39"/><polygon class="cls-145" points="446.94 108.74 446.94 304.54 436.68 299.54 436.68 119.12 446.94 108.74"/><polygon class="cls-40" points="360.37 75.06 360.37 255.47 436.68 299.54 436.68 119.13 360.37 75.06"/><polygon class="cls-167" points="370.64 64.68 446.95 108.75 436.68 119.13 360.37 75.06 370.64 64.68"/><polygon class="cls-188" points="285.22 399.92 393.83 337.36 393.83 338.6 285.22 401.15 285.22 399.92"/><polygon class="cls-26" points="491.38 109.57 491.38 110.81 449.82 134.74 449.82 133.51 491.38 109.57"/><polygon class="cls-98" points="491.38 151.67 491.38 152.92 449.82 176.84 449.82 175.61 491.38 151.67"/><polygon class="cls-165" points="491.38 193.78 491.38 195.02 449.82 218.95 449.82 217.72 491.38 193.78"/><path class="cls-184" d="m438.78,306.19v4.49c0,.49-.26.94-.69,1.19l-38.71,22.29v1.24l44.77-25.8-5.38-3.41Z"/><polygon class="cls-179" points="328.24 342.64 285.22 367.48 205.16 321.24 248.18 296.41 328.24 342.64"/><polygon class="cls-39" points="328.24 336.13 285.22 360.96 205.16 314.73 248.18 289.89 328.24 336.13"/><polygon class="cls-113" points="285.22 367.48 285.22 360.96 328.24 336.13 328.24 342.64 285.22 367.48"/><polygon class="cls-115" points="285.22 360.96 205.16 314.73 205.16 325.88 205.16 384.7 285.22 430.93 285.22 360.96"/><polygon class="cls-141" points="328.24 323.79 285.22 348.63 205.16 302.39 248.18 277.56 328.24 323.79"/><polygon class="cls-122" points="285.22 361.12 285.22 348.63 328.24 323.79 328.24 336.29 285.22 361.12"/><polygon class="cls-166" points="205.16 302.39 205.16 314.89 285.22 361.12 285.22 348.63 205.16 302.39"/><polygon class="cls-163" points="330.69 317.63 342.34 324.35 336.38 314.32 330.69 317.63"/><path class="cls-7" d="m210.76,374.68l-10.97,8.53-1.23-.71.64,10.47.47-.06.49,1.58c.21.66.64,1.17,1.18,1.5v.02s1.26.72,1.26.72l.05-.34c.49.02.98-.08,1.44-.34l2.6-1.5s.12.72.96.82l.69.51.16-.59c.4-.1.89-.3,1.49-.65,3.01-1.74,4.66-5,4.66-5v-28.78l-3.9,13.83Z"/><path class="cls-63" d="m214.67,340.29l-.47-.27-.31,6.18-2.83,19.14c-.31,2.15-1.24,4.18-2.66,5.82l-9.79,11.32s-.03.03-.03.03l1.23.71,10.97-8.53,3.9-13.83.76-2.68v-17.43l-.76-.44Z"/><polygon class="cls-119" points="200.43 393.69 199.2 392.98 198.57 382.5 199.8 383.21 200.43 393.69"/><polygon class="cls-41" points="215.9 334.98 214.67 334.27 212.14 334.89 213.38 335.6 215.9 334.98"/><polygon class="cls-14" points="212.14 336.15 213.38 336.86 213.38 335.6 212.14 334.89 212.14 336.15"/><polygon class="cls-91" points="215.43 340.73 213.38 336.86 212.14 336.15 214.19 340.02 215.43 340.73"/><path class="cls-103" d="m213.38,335.6v1.26l2.05,3.87-.32,6.18-2.83,19.13c-.32,2.16-1.24,4.18-2.67,5.82l-9.81,11.35.63,10.47.47-.06.49,1.59c.52,1.65,2.43,2.4,3.93,1.54l2.6-1.5s.32,1.82,3.31.09,4.66-5,4.66-5v-55.35l-2.53.62Z"/><polygon class="cls-34" points="266.97 416.29 239.81 432.08 188.16 402.26 215.31 386.46 266.97 416.29"/><g class="cls-189"><polygon class="cls-32" points="266.28 415.85 240.08 431.1 189.12 401.67 215.31 386.43 266.28 415.85"/></g><polygon class="cls-57" points="267.24 414.81 240.08 430.6 188.44 400.78 215.59 384.98 267.24 414.81"/><g class="cls-189"><polygon class="cls-32" points="266.55 414.37 240.36 429.62 189.4 400.19 215.58 384.95 266.55 414.37"/></g><polygon class="cls-142" points="267.52 413.33 240.36 429.12 188.71 399.3 215.86 383.5 267.52 413.33"/><g class="cls-189"><polygon class="cls-32" points="266.82 412.89 240.63 428.14 189.67 398.71 215.86 383.47 266.82 412.89"/></g><polygon class="cls-15" points="267.79 411.85 240.63 427.65 188.99 397.82 216.14 382.02 267.79 411.85"/><g class="cls-189"><polygon class="cls-32" points="267.1 411.41 240.9 426.66 189.95 397.23 216.13 381.99 267.1 411.41"/></g><polygon class="cls-159" points="268.06 410.37 240.91 426.17 189.26 396.34 216.41 380.54 268.06 410.37"/><g class="cls-189"><polygon class="cls-32" points="267.37 409.93 241.18 425.18 190.22 395.75 216.41 380.52 267.37 409.93"/></g><polygon class="cls-109" points="268.34 408.89 241.18 424.69 189.53 394.86 216.68 379.06 268.34 408.89"/><g class="cls-189"><polygon class="cls-32" points="267.64 408.46 241.44 423.71 190.49 394.28 216.67 379.04 267.64 408.46"/></g><polygon class="cls-38" points="268.6 407.42 241.45 423.21 189.8 393.39 216.95 377.59 268.6 407.42"/><g class="cls-189"><polygon class="cls-32" points="267.91 406.98 241.72 422.23 190.76 392.8 216.95 377.56 267.91 406.98"/></g><polygon class="cls-170" points="268.88 405.94 241.72 421.74 190.07 391.91 217.22 376.11 268.88 405.94"/><g class="cls-189"><polygon class="cls-32" points="268.19 405.5 241.99 420.75 191.03 391.32 217.22 376.09 268.19 405.5"/></g><polygon class="cls-49" points="269.15 404.46 241.99 420.26 190.35 390.43 217.5 374.63 269.15 404.46"/><g class="cls-189"><polygon class="cls-32" points="268.46 404.02 242.27 419.27 191.31 389.84 217.49 374.61 268.46 404.02"/></g><polygon class="cls-33" points="269.43 402.98 242.27 418.78 190.62 388.95 217.77 373.15 269.43 402.98"/><g class="cls-189"><polygon class="cls-32" points="268.73 402.55 242.54 417.79 191.58 388.37 217.77 373.13 268.73 402.55"/></g><polygon class="cls-114" points="269.7 401.5 242.54 417.3 190.9 387.47 218.05 371.68 269.7 401.5"/><g class="cls-189"><polygon class="cls-32" points="269.01 401.07 242.81 416.31 191.86 386.89 218.04 371.65 269.01 401.07"/></g><polygon class="cls-37" points="269.97 400.02 242.82 415.82 191.17 385.99 218.32 370.2 269.97 400.02"/><g class="cls-189"><polygon class="cls-32" points="269.28 399.59 243.09 414.83 192.13 385.41 218.32 370.17 269.28 399.59"/></g><polygon class="cls-152" points="270.25 398.54 243.09 414.34 191.44 384.51 218.59 368.72 270.25 398.54"/><g class="cls-189"><polygon class="cls-32" points="269.56 398.11 243.36 413.35 192.4 383.93 218.59 368.69 269.56 398.11"/></g><polygon class="cls-186" points="270.52 397.06 243.36 412.86 191.72 383.04 218.87 367.24 270.52 397.06"/><g class="cls-189"><polygon class="cls-32" points="269.83 396.63 243.64 411.88 192.68 382.45 218.86 367.21 269.83 396.63"/></g><polygon class="cls-153" points="270.8 395.58 243.64 411.38 191.99 381.56 219.14 365.76 270.8 395.58"/><g class="cls-189"><polygon class="cls-32" points="270.1 395.15 243.91 410.4 192.95 380.97 219.14 365.73 270.1 395.15"/></g><polygon class="cls-77" points="271.07 394.1 243.91 409.9 192.27 380.08 219.42 364.28 271.07 394.1"/><g class="cls-189"><polygon class="cls-32" points="270.38 393.67 244.18 408.92 193.23 379.49 219.41 364.25 270.38 393.67"/></g><polygon class="cls-185" points="271.34 392.63 244.19 408.42 192.54 378.6 219.69 362.8 271.34 392.63"/><g class="cls-189"><polygon class="cls-32" points="270.65 392.19 244.46 407.44 193.5 378.01 219.68 362.77 270.65 392.19"/></g><polygon class="cls-173" points="271.62 391.15 244.46 406.94 192.81 377.12 219.96 361.32 271.62 391.15"/><g class="cls-189"><polygon class="cls-32" points="271.62 391.15 260.74 397.46 209.09 367.64 219.96 361.32 271.62 391.15"/></g><polygon class="cls-155" points="271.62 391.15 260.79 396.57 209.14 366.75 219.96 361.32 271.62 391.15"/><path class="cls-135" d="m268.5,408.71l-10.97,8.53-1.23-.71.64,10.47.47-.06.49,1.58c.21.66.64,1.17,1.18,1.5v.02s1.26.72,1.26.72l.05-.34c.49.02.98-.08,1.44-.34l2.6-1.5s.12.72.96.82l.69.51.16-.59c.4-.1.89-.3,1.49-.65,3.01-1.74,4.66-5,4.66-5v-28.78l-3.9,13.83Z"/><path class="cls-180" d="m272.41,374.32l-.47-.27-.31,6.18-2.83,19.14c-.31,2.15-1.24,4.18-2.66,5.82l-9.79,11.32s-.03.03-.03.03l1.23.71,10.97-8.53,3.9-13.83.76-2.68v-17.43l-.76-.44Z"/><polygon class="cls-183" points="258.17 427.72 256.94 427.02 256.31 416.54 257.54 417.25 258.17 427.72"/><polygon class="cls-121" points="273.64 369.02 272.41 368.31 269.88 368.93 271.12 369.64 273.64 369.02"/><polygon class="cls-172" points="269.88 370.19 271.12 370.9 271.12 369.64 269.88 368.93 269.88 370.19"/><polygon class="cls-99" points="273.17 374.76 271.12 370.9 269.88 370.19 271.93 374.06 273.17 374.76"/><path class="cls-61" d="m271.12,369.64v1.26l2.05,3.87-.32,6.18-2.83,19.13c-.32,2.16-1.24,4.18-2.67,5.82l-9.81,11.35.63,10.47.47-.06.49,1.59c.52,1.65,2.43,2.4,3.93,1.54l2.6-1.5s.32,1.82,3.31.09c3-1.73,4.66-5,4.66-5v-55.35l-2.53.62Z"/><path class="cls-139" d="m281.47,349.03l-9.77-5.49-6.02,2.63,3.39,8.85s6.12.07,6.22.03,6.18-6.02,6.18-6.02Z"/><path class="cls-56" d="m265.96,375.79c.35-.28,4.08-1.97,4.72-2.34s10.79-3.71,10.79-3.71v-20.71l-8.3,3.46c-1.03.43-1.77-.37-1.67-1.8l.29-4.23-9.97,7.16,1.63,14.53,2.51,7.65Z"/><path class="cls-174" d="m223.57,387.36s29.39-5.46,31.02-6.25c1.29-.62,7.9-3.05,10.61-4.04.66-.24,1.29-1.17,1.44-2.12l2.87-17.69-45.95,30.1Z"/><polygon class="cls-28" points="280.54 248.68 279.43 255.08 266.3 331.4 258.42 335.95 254.32 338.32 270.69 245.58 280.54 248.68"/><polygon class="cls-102" points="279.43 255.08 266.3 331.4 258.42 335.95 273.06 253.07 279.43 255.08"/><path class="cls-67" d="m262.27,324.35l-2.21,13.5,5.78.69s2.56-4.69,2.31-8.29c-.25-3.6-2.02-5.77-2.62-5.77s-3.27-.12-3.27-.12Z"/><path class="cls-3" d="m265.84,338.53l-26.31,15.19-11.79,6.81c-1.6.93-3.58.93-5.19,0l-68.74-39.66c-.67-.38-.96-1.08-.9-1.75v-.07s.01,0,.01,0c.07-.53.36-1.02.88-1.33l37.97-21.92,74.06,42.72Z"/><path class="cls-176" d="m275.93,324.73l-6.47,36.28-8.66,4.99-38.1,22c-.76.43-1.58.67-2.42.69-.96.04-1.92-.19-2.77-.69l-68.74-39.65c-.7-.4-.98-1.16-.88-1.86h-.01l.03-.16v-.03l5-27.18c-.06.67.23,1.36.9,1.75l68.74,39.66c1.6.93,3.58.93,5.19,0l11.79-6.81,26.31-15.19h.01l1.5-8.72c.24-1.38-.4-2.76-1.61-3.47l-6.31-3.64,8.56-4.95,6.42,3.7c1.15.68,1.75,1.98,1.51,3.28Z"/><path class="cls-144" d="m201.77,275.99l-4.13,23.15-.1.05-37.61,21.75c-.64.36-1.34.56-2.05.57-.81.04-1.61-.16-2.34-.57l-1.21-.72c-.59-.33-.83-.98-.74-1.56h-.01l.02-.14v-.02l4.24-22.98c-.06.56.2,1.15.76,1.46l1.2.72c1.36.79,3.03.79,4.39,0l15.36-8.88h.01l15.03-8.68,7.18-4.15Z"/><path class="cls-60" d="m201.8,275.96l-37.61,21.74c-1.36.79-3.03.79-4.39,0l-1.2-.72c-.55-.31-.82-.9-.76-1.46v-.07s.01,0,.01,0c.05-.45.29-.87.74-1.13l37.5-21.68,5.7,3.32Z"/><polygon class="cls-111" points="208.61 209.54 270.69 245.58 254.31 338.32 192.23 302.28 208.61 209.54"/><polygon class="cls-6" points="240.78 233.5 238.63 245.65 238.05 249.01 224.42 326.26 221.15 324.36 234.25 250.18 234.85 246.82 237.53 231.61 240.78 233.5"/><polygon class="cls-46" points="248.61 331.26 221.46 347.06 169.81 317.23 170.35 316.92 170.78 316.67 196.96 301.43 247.93 330.85 248.29 331.06 248.61 331.26"/><g class="cls-189"><polygon class="cls-32" points="247.93 330.85 221.73 346.1 170.78 316.67 196.96 301.43 247.93 330.85"/></g><polygon class="cls-107" points="248.89 329.81 221.74 345.61 170.09 315.78 197.24 299.98 248.89 329.81"/><g class="cls-189"><polygon class="cls-32" points="248.2 329.37 222.01 344.62 171.05 315.19 197.23 299.95 248.2 329.37"/></g><polygon class="cls-181" points="249.17 328.33 222.01 344.13 170.36 314.3 197.51 298.5 249.17 328.33"/><g class="cls-189"><polygon class="cls-32" points="248.47 327.89 222.28 343.14 171.32 313.71 197.51 298.48 248.47 327.89"/></g><polygon class="cls-30" points="249.44 326.85 222.28 342.65 170.64 312.82 197.79 297.02 249.44 326.85"/><g class="cls-189"><polygon class="cls-32" points="248.75 326.41 222.56 341.66 171.6 312.23 197.78 297 248.75 326.41"/></g><polygon class="cls-13" points="249.71 325.37 222.56 341.17 170.91 311.34 198.06 295.54 249.71 325.37"/><g class="cls-189"><polygon class="cls-32" points="249.02 324.94 222.83 340.18 171.87 310.76 198.06 295.52 249.02 324.94"/></g><polygon class="cls-21" points="249.99 323.89 222.83 339.69 171.18 309.86 198.33 294.07 249.99 323.89"/><g class="cls-189"><polygon class="cls-32" points="249.3 323.46 223.1 338.7 172.15 309.28 198.33 294.04 249.3 323.46"/></g><polygon class="cls-16" points="250.26 322.41 223.1 338.21 171.46 308.38 198.61 292.59 250.26 322.41"/><g class="cls-189"><polygon class="cls-32" points="249.57 321.98 223.38 337.22 172.42 307.8 198.6 292.56 249.57 321.98"/></g><polygon class="cls-148" points="250.54 320.93 223.38 336.73 171.73 306.9 198.88 291.11 250.54 320.93"/><g class="cls-189"><polygon class="cls-32" points="249.84 320.5 223.65 335.74 172.69 306.32 198.88 291.08 249.84 320.5"/></g><polygon class="cls-78" points="250.81 319.45 223.65 335.25 172.01 305.43 199.16 289.63 250.81 319.45"/><g class="cls-189"><polygon class="cls-32" points="250.12 319.02 223.92 334.27 172.97 304.84 199.15 289.6 250.12 319.02"/></g><polygon class="cls-116" points="251.08 317.97 223.93 333.77 172.28 303.95 199.43 288.15 251.08 317.97"/><g class="cls-189"><polygon class="cls-32" points="250.39 317.54 224.2 332.79 173.24 303.36 199.43 288.12 250.39 317.54"/></g><polygon class="cls-101" points="251.36 316.49 224.2 332.29 172.55 302.47 199.7 286.67 251.36 316.49"/><g class="cls-189"><polygon class="cls-32" points="250.67 316.06 224.47 331.31 173.51 301.88 199.7 286.64 250.67 316.06"/></g><polygon class="cls-187" points="251.63 315.02 224.47 330.81 172.83 300.99 199.98 285.19 251.63 315.02"/><g class="cls-189"><polygon class="cls-32" points="250.94 314.58 224.75 329.83 173.79 300.4 199.97 285.16 250.94 314.58"/></g><polygon class="cls-154" points="251.91 313.54 224.75 329.33 173.1 299.51 200.25 283.71 251.91 313.54"/><g class="cls-189"><polygon class="cls-32" points="251.21 313.1 225.02 328.35 174.06 298.92 200.25 283.68 251.21 313.1"/></g><polygon class="cls-88" points="252.18 312.06 225.02 327.85 173.38 298.03 200.53 282.23 252.18 312.06"/><g class="cls-189"><polygon class="cls-32" points="251.49 311.62 225.29 326.87 174.34 297.44 200.52 282.2 251.49 311.62"/></g><polygon class="cls-65" points="252.45 310.58 225.3 326.38 173.65 296.55 200.8 280.75 252.45 310.58"/><g class="cls-189"><polygon class="cls-32" points="251.76 310.14 225.57 325.39 174.61 295.96 200.8 280.72 251.76 310.14"/></g><polygon class="cls-97" points="252.73 309.1 225.57 324.9 173.92 295.07 201.07 279.27 252.73 309.1"/><g class="cls-189"><polygon class="cls-32" points="252.04 308.66 225.84 323.91 174.88 294.48 201.07 279.25 252.04 308.66"/></g><polygon class="cls-22" points="253 307.62 225.84 323.42 174.2 293.59 201.35 277.79 253 307.62"/><g class="cls-189"><polygon class="cls-32" points="252.31 307.18 226.12 322.43 175.16 293 201.34 277.77 252.31 307.18"/></g><polygon class="cls-161" points="253.28 306.14 226.12 321.94 174.47 292.11 201.62 276.31 253.28 306.14"/><g class="cls-189"><polygon class="cls-32" points="252.58 305.71 226.39 320.95 175.43 291.53 201.62 276.29 252.58 305.71"/></g><polygon class="cls-42" points="253.55 304.66 226.39 320.46 174.75 290.63 201.89 274.84 253.55 304.66"/><g class="cls-189"><polygon class="cls-32" points="252.86 304.23 226.66 319.47 175.71 290.05 201.89 274.81 252.86 304.23"/></g><polygon class="cls-108" points="253.82 303.18 226.67 318.98 175.02 289.15 202.17 273.36 253.82 303.18"/><g class="cls-189"><polygon class="cls-32" points="253.13 302.75 226.94 317.99 175.98 288.57 202.16 273.33 253.13 302.75"/></g><polygon class="cls-19" points="254.1 301.7 226.94 317.5 175.29 287.67 202.44 271.88 254.1 301.7"/><g class="cls-189"><polygon class="cls-32" points="253.4 301.27 227.21 316.51 176.25 287.09 202.44 271.85 253.4 301.27"/></g><polygon class="cls-53" points="254.37 300.22 227.21 316.02 175.57 286.2 202.72 270.4 254.37 300.22"/><g class="cls-189"><polygon class="cls-32" points="253.68 299.79 227.49 315.04 176.53 285.61 202.71 270.37 253.68 299.79"/></g><polygon class="cls-117" points="254.65 298.74 227.49 314.54 175.84 284.72 202.99 268.92 254.65 298.74"/><g class="cls-189"><polygon class="cls-32" points="253.95 298.31 227.76 313.56 176.8 284.13 202.99 268.89 253.95 298.31"/></g><polygon class="cls-87" points="254.92 297.26 227.76 313.06 176.12 283.24 203.26 267.44 254.92 297.26"/><g class="cls-189"><polygon class="cls-32" points="254.23 296.83 228.03 312.08 177.08 282.65 203.26 267.41 254.23 296.83"/></g><polygon class="cls-25" points="255.19 295.79 228.04 311.58 176.39 281.76 203.54 265.96 255.19 295.79"/><g class="cls-189"><polygon class="cls-32" points="254.5 295.35 228.31 310.6 177.35 281.17 203.53 265.93 254.5 295.35"/></g><polygon class="cls-182" points="255.47 294.31 228.31 310.1 176.66 280.28 203.81 264.48 255.47 294.31"/><g class="cls-189"><polygon class="cls-32" points="254.77 293.88 228.57 309.13 177.62 279.7 203.8 264.46 254.77 293.88"/></g><polygon class="cls-4" points="255.73 292.83 228.58 308.63 176.93 278.81 204.08 263.01 255.73 292.83"/><g class="cls-189"><polygon class="cls-32" points="255.04 292.4 228.85 307.65 177.89 278.22 204.07 262.98 255.04 292.4"/></g><polygon class="cls-29" points="256.01 291.35 228.85 307.15 177.2 277.33 204.35 261.53 256.01 291.35"/><g class="cls-189"><polygon class="cls-32" points="255.31 290.92 229.12 306.17 178.16 276.74 204.35 261.5 255.31 290.92"/></g><polygon class="cls-128" points="256.28 289.88 229.12 305.67 177.48 275.85 204.63 260.05 256.28 289.88"/><g class="cls-189"><polygon class="cls-32" points="255.59 289.44 229.4 304.69 178.44 275.26 204.62 260.02 255.59 289.44"/></g><polygon class="cls-110" points="256.56 288.4 229.4 304.19 177.75 274.37 204.9 258.57 256.56 288.4"/><g class="cls-189"><polygon class="cls-32" points="255.86 287.96 229.67 303.21 178.71 273.78 204.9 258.54 255.86 287.96"/></g><polygon class="cls-93" points="256.83 286.92 229.67 302.71 178.03 272.89 205.17 257.09 256.83 286.92"/><g class="cls-189"><polygon class="cls-32" points="256.14 286.48 229.94 301.73 178.99 272.3 205.17 257.06 256.14 286.48"/></g><polygon class="cls-45" points="257.1 285.44 229.95 301.24 178.3 271.41 205.45 255.61 257.1 285.44"/><g class="cls-189"><polygon class="cls-32" points="256.41 285 230.22 300.25 179.26 270.82 205.44 255.58 256.41 285"/></g><polygon class="cls-59" points="257.38 283.96 230.22 299.76 178.57 269.93 205.72 254.13 257.38 283.96"/><g class="cls-189"><polygon class="cls-32" points="256.68 283.52 230.49 298.77 179.53 269.34 205.72 254.11 256.68 283.52"/></g><polygon class="cls-178" points="257.65 282.48 230.49 298.28 178.85 268.45 206 252.65 257.65 282.48"/><g class="cls-189"><polygon class="cls-32" points="256.96 282.05 230.77 297.29 179.81 267.86 205.99 252.63 256.96 282.05"/></g><polygon class="cls-18" points="257.92 281 230.77 296.8 179.12 266.97 206.27 251.18 257.92 281"/><g class="cls-189"><polygon class="cls-32" points="257.23 280.57 231.04 295.81 180.08 266.39 206.27 251.15 257.23 280.57"/></g><polygon class="cls-149" points="258.2 279.52 231.04 295.32 179.4 265.49 206.54 249.7 258.2 279.52"/><g class="cls-189"><polygon class="cls-32" points="257.51 279.09 231.31 294.33 180.36 264.91 206.54 249.67 257.51 279.09"/></g><polygon class="cls-169" points="258.47 278.04 231.32 293.84 179.67 264.01 206.82 248.22 258.47 278.04"/><g class="cls-189"><polygon class="cls-32" points="257.78 277.61 231.59 292.85 180.63 263.43 206.81 248.19 257.78 277.61"/></g><polygon class="cls-58" points="258.75 276.56 231.59 292.36 179.94 262.54 207.09 246.74 258.75 276.56"/><g class="cls-189"><polygon class="cls-32" points="258.75 276.56 247.87 282.88 196.22 253.05 207.09 246.74 258.75 276.56"/></g><polygon class="cls-150" points="258.75 276.56 247.92 281.99 196.27 252.16 207.09 246.74 258.75 276.56"/><path class="cls-92" d="m259.59,281.69l-.74-.39-6.56,3.79c-3.03,1.75-5.15,4.72-5.82,8.15l-8.03,41.18,12.63-7.5,6.97-40.89,1.55-4.34Z"/><path class="cls-32" d="m259.59,281.69l-6.56,3.79c-3.03,1.75-5.15,4.72-5.82,8.15l-8.03,41.18,12.63-7.5,7.78-45.62Z"/><path class="cls-131" d="m269.11,314.93l-4.13,23.15-.1.05-37.61,21.75c-.64.36-1.34.56-2.05.57-.81.04-1.61-.16-2.34-.57l-1.21-.72c-.59-.33-.83-.98-.74-1.56h-.01l.02-.14v-.02l4.24-22.98c-.06.56.2,1.15.76,1.46l1.2.72c1.36.79,3.03.79,4.39,0l15.36-8.88h.01l15.03-8.68,7.18-4.15Z"/><path class="cls-162" d="m269.14,314.9l-37.61,21.74c-1.36.79-3.03.79-4.39,0l-1.2-.72c-.55-.31-.82-.9-.76-1.46v-.07s.01,0,.01,0c.05-.45.29-.87.74-1.13l37.5-21.68,5.7,3.32Z"/><polygon class="cls-11" points="280.54 248.68 218.46 212.64 208.61 209.54 270.69 245.58 280.54 248.68"/><path class="cls-175" d="m218.15,264.29c0-2.03,1.42-4.49,3.18-5.51.87-.5,1.65-.56,2.23-.24l2.79,1.63-4.57,7.74-2.71-1.56c-.57-.33-.92-1.04-.92-2.04Z"/><path class="cls-168" d="m224.07,260.37c1.76-1.02,3.19-.2,3.2,1.82,0,2.02-1.42,4.49-3.18,5.5-1.76,1.02-3.19.2-3.2-1.82,0-2.02,1.42-4.49,3.18-5.5h0Z"/><path class="cls-120" d="m238.51,245.16l-.59,3.36-4.36,1.37-1.76.54-5.36,9.79-.64-.36c-.58-.4-1.42-.38-2.36.15-.18.11-.37.23-.54.37l6.83-12.48,4.42-1.37,4.35-1.37Z"/><polygon class="cls-47" points="236.91 244.21 238.51 245.16 229.74 247.9 222.91 260.38 221.26 259.41 228.09 246.93 236.91 244.21"/><circle class="cls-106" cx="350" cy="256" r="246.3" transform="translate(-78.51 322.47) rotate(-45)"/><path class="cls-125" d="m376.61,336.61v89c.02,2.49.96,5.05,2.79,7.47,1.8,2.44,4.5,4.8,8.06,6.85l2.44,1.42c6.05,3.5,13.52,5.55,20.92,6.1,2.86.21,5.67.21,8.41-.02,5.64-.46,10.9-1.85,15.03-4.25l73.53-42.47c5.07-2.92,7.58-6.83,7.65-10.92l.02-89.89-96.24,25.42-8.04,2.12-34.58,9.16Z"/><path class="cls-27" d="m434.25,353.95l73.55-42.46c11.37-6.56,9.94-18.03-3.18-25.6l-2.45-1.41c-13.13-7.58-32.98-8.4-44.35-1.84l-73.55,42.46c-11.37,6.56-9.94,18.03,3.18,25.6l2.45,1.41c13.13,7.58,32.98,8.4,44.35,1.84Z"/><path class="cls-156" d="m490.01,252.22v44.51c0,1.43-.93,2.85-2.81,3.94-3.76,2.19-9.89,2.19-13.67,0-1.9-1.1-2.85-2.54-2.85-3.97v-44.47c0-4.39-2.94-6.56-4.21-7.29-1.27-.73-4.62-2.2-8.41,0l-21.18,12.23c-10.86,6.27-17.61,17.96-17.61,30.5v49.96c0,1.43-.93,2.85-2.81,3.94-3.76,2.19-9.89,2.19-13.67,0-1.9-1.1-2.85-2.54-2.85-3.97v-49.93c0-19.43,10.45-37.53,27.28-47.25l21.18-12.23c8.68-5.02,19.06-5.02,27.75,0,8.69,5.02,13.87,14,13.87,24.03Z"/><path class="cls-112" d="m461.82,384.51c-2.26-.77-3.75-3.39-3.75-7.34,0-6.36,3.87-13.76,8.65-16.52,4.78-2.76,8.65.17,8.65,6.54,0,3.94-1.49,8.28-3.75,11.67l3.78,17.06-17.37,10.03,3.78-21.44Z"/></svg>