<?xml version="1.0" encoding="UTF-8"?><svg id="Layer_1" xmlns="http://www.w3.org/2000/svg" width="700" height="512" xmlns:xlink="http://www.w3.org/1999/xlink" viewBox="0 0 700 512"><defs><style>.cls-1{fill:url(#linear-gradient-38);}.cls-1,.cls-2,.cls-3,.cls-4,.cls-5,.cls-6,.cls-7,.cls-8,.cls-9,.cls-10,.cls-11,.cls-12,.cls-13,.cls-14,.cls-15,.cls-16,.cls-17,.cls-18,.cls-19,.cls-20,.cls-21,.cls-22,.cls-23,.cls-24,.cls-25,.cls-26,.cls-27,.cls-28,.cls-29,.cls-30,.cls-31,.cls-32,.cls-33,.cls-34,.cls-35,.cls-36,.cls-37,.cls-38,.cls-39,.cls-40,.cls-41,.cls-42,.cls-43,.cls-44,.cls-45,.cls-46,.cls-47,.cls-48,.cls-49,.cls-50,.cls-51,.cls-52,.cls-53,.cls-54,.cls-55,.cls-56,.cls-57,.cls-58,.cls-59,.cls-60,.cls-61,.cls-62,.cls-63,.cls-64,.cls-65,.cls-66,.cls-67,.cls-68,.cls-69,.cls-70,.cls-71,.cls-72,.cls-73,.cls-74,.cls-75,.cls-76,.cls-77,.cls-78,.cls-79,.cls-80,.cls-81,.cls-82,.cls-83,.cls-84,.cls-85,.cls-86,.cls-87,.cls-88,.cls-89,.cls-90,.cls-91,.cls-92,.cls-93,.cls-94,.cls-95,.cls-96,.cls-97,.cls-98,.cls-99,.cls-100,.cls-101,.cls-102,.cls-103,.cls-104,.cls-105,.cls-106,.cls-107,.cls-108,.cls-109,.cls-110,.cls-111,.cls-112,.cls-113,.cls-114,.cls-115,.cls-116,.cls-117,.cls-118,.cls-119,.cls-120,.cls-121,.cls-122,.cls-123,.cls-124,.cls-125,.cls-126,.cls-127,.cls-128,.cls-129,.cls-130,.cls-131,.cls-132,.cls-133,.cls-134,.cls-135,.cls-136,.cls-137,.cls-138,.cls-139,.cls-140,.cls-141,.cls-142,.cls-143,.cls-144,.cls-145,.cls-146,.cls-147,.cls-148,.cls-149,.cls-150,.cls-151,.cls-152,.cls-153,.cls-154,.cls-155,.cls-156,.cls-157,.cls-158,.cls-159,.cls-160,.cls-161,.cls-162,.cls-163,.cls-164,.cls-165,.cls-166,.cls-167,.cls-168,.cls-169,.cls-170,.cls-171,.cls-172,.cls-173,.cls-174,.cls-175,.cls-176,.cls-177,.cls-178,.cls-179,.cls-180,.cls-181,.cls-182,.cls-183,.cls-184,.cls-185,.cls-186,.cls-187,.cls-188,.cls-189,.cls-190,.cls-191,.cls-192,.cls-193,.cls-194,.cls-195,.cls-196,.cls-197,.cls-198,.cls-199,.cls-200,.cls-201,.cls-202,.cls-203{stroke-width:0px;}.cls-2{fill:url(#linear-gradient-12);}.cls-3{fill:url(#linear-gradient-127);}.cls-4{fill:url(#linear-gradient-159);}.cls-5{fill:url(#linear-gradient-17);}.cls-6{fill:url(#linear-gradient-132);}.cls-7{fill:url(#linear-gradient-88);}.cls-8{fill:url(#linear-gradient-19);}.cls-9{fill:url(#linear-gradient-33);}.cls-10{fill:url(#linear-gradient);}.cls-11{fill:url(#linear-gradient-175);}.cls-12{fill:url(#linear-gradient-62);}.cls-13{fill:url(#linear-gradient-137);}.cls-14{fill:url(#linear-gradient-92);}.cls-15{fill:url(#linear-gradient-98);}.cls-16{fill:url(#linear-gradient-139);}.cls-17{fill:url(#linear-gradient-67);}.cls-18{fill:url(#linear-gradient-167);}.cls-19{fill:url(#linear-gradient-153);}.cls-20{fill:url(#linear-gradient-57);}.cls-21{fill:url(#linear-gradient-138);}.cls-22{fill:url(#linear-gradient-191);}.cls-23{fill:url(#linear-gradient-149);}.cls-24{fill:url(#linear-gradient-21);}.cls-25{fill:url(#linear-gradient-6);}.cls-26{fill:url(#linear-gradient-157);}.cls-27{fill:url(#linear-gradient-190);}.cls-28{fill:url(#linear-gradient-196);}.cls-29{fill:url(#linear-gradient-76);}.cls-30{fill:url(#linear-gradient-181);}.cls-31{fill:url(#linear-gradient-124);}.cls-32{fill:url(#linear-gradient-160);}.cls-33{fill:url(#linear-gradient-184);}.cls-34{fill:url(#linear-gradient-136);}.cls-35{fill:url(#linear-gradient-42);}.cls-36{fill:#f7fafc;}.cls-38{opacity:.3;}.cls-39{fill:url(#linear-gradient-104);}.cls-40{fill:url(#linear-gradient-95);}.cls-41{fill:url(#linear-gradient-15);}.cls-42{fill:url(#linear-gradient-11);}.cls-43{fill:url(#linear-gradient-106);}.cls-44{fill:url(#linear-gradient-101);}.cls-45{fill:url(#linear-gradient-81);}.cls-46{fill:url(#linear-gradient-73);}.cls-47{fill:url(#linear-gradient-91);}.cls-48{fill:url(#linear-gradient-188);}.cls-49{fill:url(#linear-gradient-151);}.cls-50{fill:url(#linear-gradient-5);}.cls-51{fill:url(#linear-gradient-187);}.cls-52{fill:#7f7f7f;opacity:.4;}.cls-53{fill:url(#linear-gradient-164);}.cls-54{fill:url(#linear-gradient-133);}.cls-55{fill:url(#linear-gradient-179);}.cls-56{fill:url(#linear-gradient-31);}.cls-57{fill:url(#linear-gradient-103);}.cls-58{fill:url(#linear-gradient-71);}.cls-59{fill:url(#linear-gradient-58);}.cls-60{fill:url(#linear-gradient-63);}.cls-61{fill:url(#linear-gradient-154);}.cls-62{fill:url(#linear-gradient-34);}.cls-63{opacity:.2;}.cls-64{fill:url(#linear-gradient-122);}.cls-65{fill:url(#linear-gradient-96);}.cls-66{fill:url(#linear-gradient-170);}.cls-67{fill:url(#linear-gradient-165);}.cls-68{fill:url(#linear-gradient-130);}.cls-69{fill:url(#linear-gradient-120);}.cls-70{fill:url(#linear-gradient-41);}.cls-71{fill:url(#linear-gradient-89);}.cls-72{fill:url(#linear-gradient-40);}.cls-73{fill:url(#linear-gradient-147);}.cls-74{fill:url(#linear-gradient-66);}.cls-75{fill:url(#linear-gradient-126);}.cls-76{fill:url(#linear-gradient-13);}.cls-77{fill:url(#linear-gradient-23);}.cls-78{fill:url(#linear-gradient-25);}.cls-79{fill:url(#linear-gradient-43);}.cls-80{fill:#ffa87e;}.cls-81{fill:url(#linear-gradient-16);}.cls-82{fill:url(#linear-gradient-22);}.cls-83{fill:url(#linear-gradient-54);}.cls-84{fill:url(#linear-gradient-55);}.cls-85{fill:#fff;}.cls-86{fill:url(#linear-gradient-110);}.cls-87{fill:url(#linear-gradient-141);}.cls-88{fill:url(#linear-gradient-35);}.cls-89{fill:url(#linear-gradient-50);}.cls-90{fill:url(#linear-gradient-32);}.cls-91{fill:url(#linear-gradient-60);}.cls-92{fill:url(#linear-gradient-59);}.cls-93{fill:url(#linear-gradient-20);}.cls-94{fill:url(#linear-gradient-14);}.cls-95{fill:url(#linear-gradient-185);}.cls-96{fill:url(#linear-gradient-2);}.cls-97{fill:url(#linear-gradient-156);}.cls-98{fill:url(#linear-gradient-146);}.cls-99{fill:url(#linear-gradient-52);}.cls-100{fill:url(#linear-gradient-45);}.cls-101{fill:url(#linear-gradient-194);}.cls-102{fill:url(#linear-gradient-93);}.cls-103{fill:url(#linear-gradient-172);}.cls-104{fill:url(#linear-gradient-163);}.cls-105{fill:url(#linear-gradient-7);}.cls-106{fill:url(#linear-gradient-39);}.cls-107{fill:url(#linear-gradient-3);}.cls-108{fill:url(#linear-gradient-148);}.cls-109{fill:url(#linear-gradient-77);}.cls-110{fill:url(#linear-gradient-119);}.cls-111{fill:url(#linear-gradient-69);}.cls-204{opacity:.1;}.cls-112{fill:url(#linear-gradient-143);}.cls-113{fill:url(#linear-gradient-125);}.cls-114{fill:url(#linear-gradient-94);}.cls-115{fill:url(#linear-gradient-9);}.cls-116{fill:url(#linear-gradient-27);}.cls-117{fill:url(#linear-gradient-134);}.cls-118{fill:url(#linear-gradient-152);}.cls-119{fill:url(#linear-gradient-100);}.cls-120{fill:url(#linear-gradient-162);}.cls-121{fill:url(#linear-gradient-131);}.cls-122{fill:url(#linear-gradient-183);}.cls-123{fill:url(#linear-gradient-82);}.cls-124{fill:url(#linear-gradient-105);}.cls-125{fill:url(#linear-gradient-83);}.cls-126{fill:url(#linear-gradient-142);}.cls-127{fill:url(#linear-gradient-155);}.cls-128{fill:url(#linear-gradient-53);}.cls-129{fill:url(#linear-gradient-90);}.cls-130{fill:url(#linear-gradient-178);}.cls-131{fill:url(#linear-gradient-117);}.cls-132{fill:url(#linear-gradient-85);}.cls-133{fill:url(#linear-gradient-65);}.cls-134{fill:url(#linear-gradient-36);}.cls-135{fill:url(#linear-gradient-180);}.cls-136{fill:url(#linear-gradient-48);}.cls-137{fill:url(#linear-gradient-195);}.cls-138{fill:url(#linear-gradient-49);}.cls-139{fill:url(#linear-gradient-161);}.cls-140{fill:url(#linear-gradient-8);}.cls-141{fill:url(#linear-gradient-47);}.cls-142{fill:url(#linear-gradient-173);}.cls-143{fill:url(#linear-gradient-24);}.cls-144{fill:url(#linear-gradient-26);}.cls-145{fill:url(#linear-gradient-61);}.cls-146{fill:url(#linear-gradient-114);}.cls-147{fill:url(#linear-gradient-18);}.cls-148{fill:url(#linear-gradient-51);}.cls-149{fill:url(#linear-gradient-30);}.cls-150{fill:url(#linear-gradient-121);}.cls-151{fill:url(#linear-gradient-44);}.cls-152{fill:url(#linear-gradient-193);}.cls-153{fill:url(#linear-gradient-84);}.cls-154{fill:url(#linear-gradient-97);}.cls-155{fill:url(#linear-gradient-68);}.cls-156{fill:url(#linear-gradient-129);}.cls-157{fill:url(#linear-gradient-72);}.cls-158{fill:url(#linear-gradient-29);}.cls-159{fill:url(#linear-gradient-46);}.cls-160{fill:url(#linear-gradient-140);}.cls-161{fill:url(#linear-gradient-168);}.cls-162{fill:url(#linear-gradient-171);}.cls-163{fill:url(#linear-gradient-64);}.cls-164{fill:url(#linear-gradient-107);}.cls-165{fill:url(#linear-gradient-192);}.cls-166{fill:url(#linear-gradient-109);}.cls-167{fill:url(#linear-gradient-145);}.cls-168{fill:url(#linear-gradient-113);}.cls-169{fill:url(#linear-gradient-182);}.cls-170{fill:url(#linear-gradient-28);}.cls-171{fill:url(#linear-gradient-56);}.cls-172{fill:url(#linear-gradient-99);}.cls-173{fill:url(#linear-gradient-10);}.cls-174{fill:url(#linear-gradient-150);}.cls-175{fill:url(#linear-gradient-174);}.cls-176{fill:url(#linear-gradient-87);}.cls-177{fill:url(#linear-gradient-70);}.cls-178{fill:url(#linear-gradient-78);}.cls-179{fill:url(#linear-gradient-86);}.cls-180{fill:url(#linear-gradient-74);}.cls-181{fill:url(#linear-gradient-177);}.cls-182{fill:url(#linear-gradient-169);}.cls-183{fill:url(#linear-gradient-102);}.cls-184{fill:url(#linear-gradient-4);}.cls-185{fill:url(#linear-gradient-118);}.cls-186{fill:url(#linear-gradient-112);}.cls-187{fill:url(#linear-gradient-123);}.cls-188{fill:url(#linear-gradient-176);}.cls-189{fill:url(#linear-gradient-128);}.cls-190{fill:url(#linear-gradient-37);}.cls-191{fill:url(#linear-gradient-166);}.cls-192{fill:url(#linear-gradient-186);}.cls-193{fill:url(#linear-gradient-80);}.cls-194{fill:url(#linear-gradient-115);}.cls-195{fill:url(#linear-gradient-135);}.cls-196{fill:url(#linear-gradient-189);}.cls-197{fill:url(#linear-gradient-158);}.cls-198{fill:url(#linear-gradient-116);}.cls-199{fill:url(#linear-gradient-79);}.cls-200{fill:url(#linear-gradient-111);}.cls-201{fill:url(#linear-gradient-108);}.cls-202{fill:url(#linear-gradient-144);}.cls-203{fill:url(#linear-gradient-75);}</style><linearGradient id="linear-gradient" x1="-41" y1="209.69" x2="-26.34" y2="307.89" gradientTransform="translate(640.47 407.77) rotate(119.87)" gradientUnits="userSpaceOnUse"><stop offset="0" stop-color="#494a4a"/><stop offset="1" stop-color="#3a3a3a"/></linearGradient><linearGradient id="linear-gradient-2" x1="482.37" y1="237.61" x2="499.18" y2="350.2" gradientUnits="userSpaceOnUse"><stop offset="0" stop-color="#242425"/><stop offset=".8" stop-color="#000"/></linearGradient><linearGradient id="linear-gradient-3" x1="171.68" y1="295.5" x2="188.49" y2="408.1" xlink:href="#linear-gradient-2"/><linearGradient id="linear-gradient-4" x1="163.99" y1="330.32" x2="178.65" y2="428.52" gradientTransform="translate(640.47 407.77) rotate(119.87)" xlink:href="#linear-gradient-2"/><linearGradient id="linear-gradient-5" x1="143.15" y1="321.7" x2="172.43" y2="517.82" gradientTransform="translate(-45.59 407.77) rotate(60.13) scale(1 -1)" xlink:href="#linear-gradient-2"/><linearGradient id="linear-gradient-6" x1="276.93" y1="356.56" x2="293.74" y2="469.15" xlink:href="#linear-gradient-2"/><linearGradient id="linear-gradient-7" x1="377.11" y1="176.55" x2="393.92" y2="289.14" xlink:href="#linear-gradient-2"/><linearGradient id="linear-gradient-8" x1="170.13" y1="258.05" x2="499.26" y2="258.05" gradientUnits="userSpaceOnUse"><stop offset="0" stop-color="#1e1e1f"/><stop offset="1" stop-color="#000"/></linearGradient><linearGradient id="linear-gradient-9" x1="330.32" y1="411.28" x2="548.25" y2="411.28" gradientTransform="translate(-680.41 170.38) rotate(-10.89) scale(1.53 .65) skewX(26.33)" gradientUnits="userSpaceOnUse"><stop offset="0" stop-color="#5a5b5b"/><stop offset="1" stop-color="#3a3a3a"/></linearGradient><linearGradient id="linear-gradient-10" x1="444.5" y1="63.34" x2="474.47" y2="63.34" gradientTransform="translate(0 349.25) rotate(-30) scale(1.15 .87) skewX(-23.41)" xlink:href="#linear-gradient-8"/><linearGradient id="linear-gradient-11" x1="420.09" y1="138.81" x2="474.47" y2="138.81" gradientUnits="userSpaceOnUse"><stop offset=".07" stop-color="#242425"/><stop offset="1" stop-color="#383839"/></linearGradient><linearGradient id="linear-gradient-12" x1="432.05" y1="133.64" x2="472.18" y2="133.64" xlink:href="#linear-gradient-11"/><linearGradient id="linear-gradient-13" x1="444.42" y1="54.63" x2="472.18" y2="54.63" gradientTransform="translate(0 349.25) rotate(-30) scale(1.15 .87) skewX(-23.41)" xlink:href="#linear-gradient-8"/><linearGradient id="linear-gradient-14" x1="378.45" y1="170.72" x2="469.88" y2="170.72" xlink:href="#linear-gradient-11"/><linearGradient id="linear-gradient-15" x1="447.5" y1="185.68" x2="494.03" y2="235.53" xlink:href="#linear-gradient-8"/><linearGradient id="linear-gradient-16" x1="378.45" y1="181.85" x2="437.92" y2="181.85" gradientUnits="userSpaceOnUse"><stop offset="0" stop-color="#d5d5d5"/><stop offset="1" stop-color="#838484"/></linearGradient><linearGradient id="linear-gradient-17" x1="474.44" y1="185.78" x2="437.65" y2="207.02" gradientUnits="userSpaceOnUse"><stop offset="0" stop-color="#383839"/><stop offset=".93" stop-color="#242425"/></linearGradient><linearGradient id="linear-gradient-18" x1="475.13" y1="141.56" x2="444.2" y2="141.56" gradientTransform="translate(0 320.1) rotate(-30) scale(1.15 .87) skewX(-23.41)" xlink:href="#linear-gradient-8"/><linearGradient id="linear-gradient-19" x1="230.29" y1="298.46" x2="264.56" y2="278.68" xlink:href="#linear-gradient-8"/><linearGradient id="linear-gradient-20" x1="230.29" y1="297.77" x2="264.57" y2="277.98" gradientTransform="matrix(1,0,0,1,0,0)" xlink:href="#linear-gradient-9"/><linearGradient id="linear-gradient-21" x1="249.28" y1="308.77" x2="283.55" y2="288.98" xlink:href="#linear-gradient-8"/><linearGradient id="linear-gradient-22" x1="249.28" y1="308.08" x2="283.55" y2="288.29" gradientTransform="matrix(1,0,0,1,0,0)" xlink:href="#linear-gradient-9"/><linearGradient id="linear-gradient-23" x1="357.58" y1="200.29" x2="421.25" y2="200.29" gradientTransform="matrix(1,0,0,1,0,0)" xlink:href="#linear-gradient-9"/><linearGradient id="linear-gradient-24" x1="467.12" y1="132.62" x2="481.43" y2="132.62" xlink:href="#linear-gradient-8"/><linearGradient id="linear-gradient-25" x1="451.09" y1="134.38" x2="477.22" y2="119.3" xlink:href="#linear-gradient-11"/><linearGradient id="linear-gradient-26" x1="435.47" y1="127.06" x2="478.3" y2="127.06" gradientUnits="userSpaceOnUse"><stop offset="0" stop-color="#fff"/><stop offset="1" stop-color="#ebebeb"/></linearGradient><linearGradient id="linear-gradient-27" x1="447.3" y1="37.34" x2="472.11" y2="37.34" gradientTransform="translate(0 349.25) rotate(-30) scale(1.15 .87) skewX(-23.41)" xlink:href="#linear-gradient-8"/><linearGradient id="linear-gradient-28" x1="428.47" y1="122.92" x2="467.73" y2="100.25" xlink:href="#linear-gradient-11"/><linearGradient id="linear-gradient-29" x1="419.36" y1="108.49" x2="471.75" y2="108.49" xlink:href="#linear-gradient-26"/><linearGradient id="linear-gradient-30" x1="418.8" y1="107.64" x2="471.19" y2="107.64" xlink:href="#linear-gradient-26"/><linearGradient id="linear-gradient-31" x1="418.38" y1="106.87" x2="470.77" y2="106.87" xlink:href="#linear-gradient-26"/><linearGradient id="linear-gradient-32" x1="417.96" y1="106.1" x2="470.35" y2="106.1" xlink:href="#linear-gradient-26"/><linearGradient id="linear-gradient-33" x1="417.54" y1="105.33" x2="469.93" y2="105.33" xlink:href="#linear-gradient-26"/><linearGradient id="linear-gradient-34" x1="417.12" y1="104.56" x2="469.51" y2="104.56" xlink:href="#linear-gradient-26"/><linearGradient id="linear-gradient-35" x1="416.7" y1="103.79" x2="469.08" y2="103.79" xlink:href="#linear-gradient-26"/><linearGradient id="linear-gradient-36" x1="416.28" y1="103.02" x2="468.66" y2="103.02" xlink:href="#linear-gradient-26"/><linearGradient id="linear-gradient-37" x1="415.85" y1="102.25" x2="468.24" y2="102.25" xlink:href="#linear-gradient-26"/><linearGradient id="linear-gradient-38" x1="415.43" y1="101.48" x2="467.82" y2="101.48" xlink:href="#linear-gradient-26"/><linearGradient id="linear-gradient-39" x1="447.3" y1="13.5" x2="472.11" y2="13.5" gradientTransform="translate(0 349.25) rotate(-30) scale(1.15 .87) skewX(-23.41)" xlink:href="#linear-gradient-8"/><linearGradient id="linear-gradient-40" x1="428.47" y1="99.07" x2="467.73" y2="76.4" xlink:href="#linear-gradient-11"/><linearGradient id="linear-gradient-41" x1="419.36" y1="84.64" x2="471.75" y2="84.64" xlink:href="#linear-gradient-26"/><linearGradient id="linear-gradient-42" x1="418.8" y1="83.79" x2="471.19" y2="83.79" xlink:href="#linear-gradient-26"/><linearGradient id="linear-gradient-43" x1="418.38" y1="83.02" x2="470.77" y2="83.02" xlink:href="#linear-gradient-26"/><linearGradient id="linear-gradient-44" x1="417.96" y1="82.25" x2="470.35" y2="82.25" xlink:href="#linear-gradient-26"/><linearGradient id="linear-gradient-45" x1="417.54" y1="81.48" x2="469.93" y2="81.48" xlink:href="#linear-gradient-26"/><linearGradient id="linear-gradient-46" x1="417.12" y1="80.71" x2="469.51" y2="80.71" xlink:href="#linear-gradient-26"/><linearGradient id="linear-gradient-47" x1="416.7" y1="79.94" x2="469.08" y2="79.94" xlink:href="#linear-gradient-26"/><linearGradient id="linear-gradient-48" x1="416.28" y1="79.17" x2="468.66" y2="79.17" xlink:href="#linear-gradient-26"/><linearGradient id="linear-gradient-49" x1="415.85" y1="78.4" x2="468.24" y2="78.4" xlink:href="#linear-gradient-26"/><linearGradient id="linear-gradient-50" x1="415.43" y1="77.63" x2="467.82" y2="77.63" xlink:href="#linear-gradient-26"/><linearGradient id="linear-gradient-51" x1="447.3" y1="-10.35" x2="472.11" y2="-10.35" gradientTransform="translate(0 349.25) rotate(-30) scale(1.15 .87) skewX(-23.41)" xlink:href="#linear-gradient-8"/><linearGradient id="linear-gradient-52" x1="428.47" y1="75.22" x2="467.73" y2="52.55" xlink:href="#linear-gradient-11"/><linearGradient id="linear-gradient-53" x1="419.36" y1="60.79" x2="471.75" y2="60.79" xlink:href="#linear-gradient-26"/><linearGradient id="linear-gradient-54" x1="418.8" y1="59.94" x2="471.19" y2="59.94" xlink:href="#linear-gradient-26"/><linearGradient id="linear-gradient-55" x1="418.38" y1="59.17" x2="470.77" y2="59.17" xlink:href="#linear-gradient-26"/><linearGradient id="linear-gradient-56" x1="417.96" y1="58.4" x2="470.35" y2="58.4" xlink:href="#linear-gradient-26"/><linearGradient id="linear-gradient-57" x1="417.54" y1="57.63" x2="469.93" y2="57.63" xlink:href="#linear-gradient-26"/><linearGradient id="linear-gradient-58" x1="417.12" y1="56.86" x2="469.51" y2="56.86" xlink:href="#linear-gradient-26"/><linearGradient id="linear-gradient-59" x1="416.7" y1="56.09" x2="469.08" y2="56.09" xlink:href="#linear-gradient-26"/><linearGradient id="linear-gradient-60" x1="416.28" y1="55.32" x2="468.66" y2="55.32" xlink:href="#linear-gradient-26"/><linearGradient id="linear-gradient-61" x1="415.85" y1="54.55" x2="468.24" y2="54.55" xlink:href="#linear-gradient-26"/><linearGradient id="linear-gradient-62" x1="415.43" y1="53.78" x2="467.82" y2="53.78" xlink:href="#linear-gradient-26"/><linearGradient id="linear-gradient-63" x1="401.21" y1="123.67" x2="455.43" y2="221.13" xlink:href="#linear-gradient-16"/><linearGradient id="linear-gradient-64" x1="324.32" y1="219.1" x2="383.79" y2="219.1" xlink:href="#linear-gradient-17"/><linearGradient id="linear-gradient-65" x1="324.32" y1="191.93" x2="396.25" y2="191.93" gradientTransform="matrix(1,0,0,1,0,0)" xlink:href="#linear-gradient-9"/><linearGradient id="linear-gradient-66" x1="379.64" y1="216.71" x2="381.42" y2="258.99" xlink:href="#linear-gradient-16"/><linearGradient id="linear-gradient-67" x1="378.43" y1="237.98" x2="382.69" y2="237.98" xlink:href="#linear-gradient-17"/><linearGradient id="linear-gradient-68" x1="320.53" y1="200.35" x2="382.69" y2="200.35" gradientTransform="matrix(1,0,0,1,0,0)" xlink:href="#linear-gradient-9"/><linearGradient id="linear-gradient-69" x1="288.47" y1="212.58" x2="378.94" y2="212.58" gradientTransform="matrix(1,0,0,1,0,0)" xlink:href="#linear-gradient-9"/><linearGradient id="linear-gradient-70" x1="319.47" y1="200.98" x2="378.94" y2="200.98" xlink:href="#linear-gradient-17"/><linearGradient id="linear-gradient-71" x1="319.47" y1="198.12" x2="379.65" y2="198.12" gradientTransform="matrix(1,0,0,1,0,0)" xlink:href="#linear-gradient-9"/><linearGradient id="linear-gradient-72" x1="333.75" y1="218.13" x2="376.11" y2="218.13" xlink:href="#linear-gradient-17"/><linearGradient id="linear-gradient-73" x1="334.54" y1="217.74" x2="376.9" y2="217.74" xlink:href="#linear-gradient-8"/><linearGradient id="linear-gradient-74" x1="239.52" y1="221.2" x2="357.14" y2="221.2" gradientTransform="matrix(1,0,0,1,0,0)" xlink:href="#linear-gradient-9"/><linearGradient id="linear-gradient-75" x1="314" y1="234.8" x2="357.43" y2="281.34" xlink:href="#linear-gradient-16"/><linearGradient id="linear-gradient-76" x1="361.78" y1="128.94" x2="421.25" y2="128.94" xlink:href="#linear-gradient-17"/><linearGradient id="linear-gradient-77" x1="361.78" y1="44.68" x2="452.12" y2="44.68" gradientTransform="matrix(1,0,0,1,0,0)" xlink:href="#linear-gradient-9"/><linearGradient id="linear-gradient-78" x1="433.28" y1="54.69" x2="438.5" y2="64.06" xlink:href="#linear-gradient-8"/><linearGradient id="linear-gradient-79" x1="363.5" y1="54.69" x2="420.19" y2="54.69" xlink:href="#linear-gradient-17"/><linearGradient id="linear-gradient-80" x1="363.51" y1="38.14" x2="449.61" y2="38.14" gradientTransform="matrix(1,0,0,1,0,0)" xlink:href="#linear-gradient-9"/><linearGradient id="linear-gradient-81" x1="403" y1="118.23" x2="448.3" y2="199.64" xlink:href="#linear-gradient-8"/><linearGradient id="linear-gradient-82" x1="354.81" y1="127.83" x2="411.49" y2="127.83" xlink:href="#linear-gradient-17"/><linearGradient id="linear-gradient-83" x1="354.81" y1="56.97" x2="419.11" y2="56.97" gradientTransform="matrix(1,0,0,1,0,0)" xlink:href="#linear-gradient-9"/><linearGradient id="linear-gradient-84" x1="298.99" y1="262.98" x2="379.66" y2="262.98" xlink:href="#linear-gradient-17"/><linearGradient id="linear-gradient-85" x1="421.25" y1="79.43" x2="452.11" y2="79.43" xlink:href="#linear-gradient-17"/><linearGradient id="linear-gradient-86" x1="421.25" y1="110.71" x2="452.11" y2="110.71" xlink:href="#linear-gradient-17"/><linearGradient id="linear-gradient-87" x1="421.25" y1="141.99" x2="452.11" y2="141.99" xlink:href="#linear-gradient-17"/><linearGradient id="linear-gradient-88" x1="383.79" y1="226.99" x2="417.05" y2="226.99" xlink:href="#linear-gradient-17"/><linearGradient id="linear-gradient-89" x1="239.52" y1="235.26" x2="330.94" y2="235.26" xlink:href="#linear-gradient-17"/><linearGradient id="linear-gradient-90" x1="239.52" y1="230.43" x2="330.94" y2="230.43" xlink:href="#linear-gradient-17"/><linearGradient id="linear-gradient-91" x1="298.98" y1="250.02" x2="330.94" y2="250.02" xlink:href="#linear-gradient-8"/><linearGradient id="linear-gradient-92" x1="239.52" y1="265.64" x2="298.98" y2="265.64" gradientUnits="userSpaceOnUse"><stop offset="0" stop-color="#383839"/><stop offset="1" stop-color="#272728"/></linearGradient><linearGradient id="linear-gradient-93" x1="239.52" y1="221.26" x2="330.94" y2="221.26" gradientUnits="userSpaceOnUse"><stop offset="0" stop-color="#ebebeb"/><stop offset="1" stop-color="#838484"/></linearGradient><linearGradient id="linear-gradient-94" x1="309.93" y1="237.69" x2="356.46" y2="287.53" xlink:href="#linear-gradient-16"/><linearGradient id="linear-gradient-95" x1="239.52" y1="235.13" x2="298.98" y2="235.13" xlink:href="#linear-gradient-16"/><linearGradient id="linear-gradient-96" x1="332.76" y1="225.9" x2="341.41" y2="225.9" xlink:href="#linear-gradient-8"/><linearGradient id="linear-gradient-97" x1="238.33" y1="258.83" x2="244.27" y2="282.14" xlink:href="#linear-gradient-92"/><linearGradient id="linear-gradient-98" x1="237.37" y1="243.52" x2="244.39" y2="271.09" xlink:href="#linear-gradient-92"/><linearGradient id="linear-gradient-99" x1="233.57" y1="277.98" x2="237.05" y2="275.97" xlink:href="#linear-gradient-92"/><linearGradient id="linear-gradient-100" x1="245.07" y1="238.09" x2="247.13" y2="236.89" gradientTransform="matrix(1,0,0,1,0,0)" xlink:href="#linear-gradient-9"/><linearGradient id="linear-gradient-101" x1="244.73" y1="238.44" x2="245.59" y2="237.94" xlink:href="#linear-gradient-92"/><linearGradient id="linear-gradient-102" x1="245.63" y1="238.94" x2="246.31" y2="241.63" xlink:href="#linear-gradient-92"/><linearGradient id="linear-gradient-103" x1="235.54" y1="236.21" x2="247.49" y2="236.21" gradientTransform="translate(0 165.32) rotate(-30) scale(1.15 .87) skewX(-23.41)" xlink:href="#linear-gradient-8"/><linearGradient id="linear-gradient-104" x1="226.89" y1="292.71" x2="285.43" y2="292.71" gradientUnits="userSpaceOnUse"><stop offset="0" stop-color="#ebebeb"/><stop offset="1" stop-color="#fff"/></linearGradient><linearGradient id="linear-gradient-105" x1="227.1" y1="291.61" x2="285.63" y2="291.61" xlink:href="#linear-gradient-104"/><linearGradient id="linear-gradient-106" x1="227.3" y1="290.51" x2="285.83" y2="290.51" xlink:href="#linear-gradient-104"/><linearGradient id="linear-gradient-107" x1="227.5" y1="289.41" x2="286.04" y2="289.41" xlink:href="#linear-gradient-104"/><linearGradient id="linear-gradient-108" x1="227.71" y1="288.31" x2="286.24" y2="288.31" xlink:href="#linear-gradient-104"/><linearGradient id="linear-gradient-109" x1="227.91" y1="287.21" x2="286.44" y2="287.21" xlink:href="#linear-gradient-104"/><linearGradient id="linear-gradient-110" x1="228.11" y1="286.12" x2="286.64" y2="286.12" xlink:href="#linear-gradient-104"/><linearGradient id="linear-gradient-111" x1="228.31" y1="285.02" x2="286.84" y2="285.02" xlink:href="#linear-gradient-104"/><linearGradient id="linear-gradient-112" x1="228.51" y1="283.92" x2="287.05" y2="283.92" xlink:href="#linear-gradient-104"/><linearGradient id="linear-gradient-113" x1="228.72" y1="282.82" x2="287.25" y2="282.82" xlink:href="#linear-gradient-104"/><linearGradient id="linear-gradient-114" x1="228.92" y1="281.72" x2="287.46" y2="281.72" xlink:href="#linear-gradient-104"/><linearGradient id="linear-gradient-115" x1="229.12" y1="280.62" x2="287.66" y2="280.62" xlink:href="#linear-gradient-104"/><linearGradient id="linear-gradient-116" x1="229.33" y1="279.53" x2="287.86" y2="279.53" xlink:href="#linear-gradient-104"/><linearGradient id="linear-gradient-117" x1="229.53" y1="278.43" x2="288.07" y2="278.43" xlink:href="#linear-gradient-104"/><linearGradient id="linear-gradient-118" x1="229.73" y1="277.33" x2="288.27" y2="277.33" xlink:href="#linear-gradient-104"/><linearGradient id="linear-gradient-119" x1="229.94" y1="276.23" x2="288.47" y2="276.23" xlink:href="#linear-gradient-104"/><linearGradient id="linear-gradient-120" x1="230.14" y1="275.13" x2="288.68" y2="275.13" xlink:href="#linear-gradient-104"/><linearGradient id="linear-gradient-121" x1="230.35" y1="274.03" x2="288.88" y2="274.03" xlink:href="#linear-gradient-104"/><linearGradient id="linear-gradient-122" x1="242.47" y1="270.18" x2="288.88" y2="270.18" xlink:href="#linear-gradient-104"/><linearGradient id="linear-gradient-123" x1="281.22" y1="284.12" x2="287.15" y2="307.42" xlink:href="#linear-gradient-92"/><linearGradient id="linear-gradient-124" x1="280.26" y1="268.8" x2="287.28" y2="296.38" xlink:href="#linear-gradient-92"/><linearGradient id="linear-gradient-125" x1="276.46" y1="303.26" x2="279.94" y2="301.25" xlink:href="#linear-gradient-92"/><linearGradient id="linear-gradient-126" x1="287.96" y1="263.37" x2="290.02" y2="262.18" gradientTransform="matrix(1,0,0,1,0,0)" xlink:href="#linear-gradient-9"/><linearGradient id="linear-gradient-127" x1="287.62" y1="263.72" x2="288.48" y2="263.22" xlink:href="#linear-gradient-92"/><linearGradient id="linear-gradient-128" x1="288.52" y1="264.22" x2="289.2" y2="266.91" xlink:href="#linear-gradient-92"/><linearGradient id="linear-gradient-129" x1="278.42" y1="286.26" x2="290.38" y2="286.26" gradientTransform="translate(0 165.32) rotate(-30) scale(1.15 .87) skewX(-23.41)" xlink:href="#linear-gradient-8"/><linearGradient id="linear-gradient-130" x1="285.83" y1="250.4" x2="294.67" y2="245.3" gradientTransform="matrix(1,0,0,1,0,0)" xlink:href="#linear-gradient-9"/><linearGradient id="linear-gradient-131" x1="281.6" y1="295.77" x2="296.2" y2="295.77" gradientTransform="translate(0 127.87) rotate(-30) scale(1.15 .87) skewX(-23.41)" xlink:href="#linear-gradient-8"/><linearGradient id="linear-gradient-132" x1="253.19" y1="298.54" x2="287.32" y2="298.54" gradientTransform="translate(0 127.87) rotate(-30) scale(1.15 .87) skewX(-23.41)" xlink:href="#linear-gradient-8"/><linearGradient id="linear-gradient-133" x1="286.15" y1="188.64" x2="284.94" y2="246.15" xlink:href="#linear-gradient-8"/><linearGradient id="linear-gradient-134" x1="287.21" y1="192.32" x2="286.14" y2="243.71" xlink:href="#linear-gradient-16"/><linearGradient id="linear-gradient-135" x1="283.46" y1="229.66" x2="283.24" y2="240.13" gradientUnits="userSpaceOnUse"><stop offset="0" stop-color="#a4a4a4"/><stop offset="1" stop-color="#838484"/></linearGradient><linearGradient id="linear-gradient-136" x1="243.15" y1="208.71" x2="242.15" y2="256.77" xlink:href="#linear-gradient-16"/><linearGradient id="linear-gradient-137" x1="244.83" y1="223.86" x2="243.72" y2="277.28" gradientUnits="userSpaceOnUse"><stop offset="0" stop-color="#d5d5d5"/><stop offset="1" stop-color="#838484"/></linearGradient><linearGradient id="linear-gradient-138" x1="219.44" y1="193.33" x2="218.72" y2="227.82" xlink:href="#linear-gradient-8"/><linearGradient id="linear-gradient-139" x1="220.9" y1="190.97" x2="220.49" y2="210.54" gradientTransform="matrix(1,0,0,1,0,0)" xlink:href="#linear-gradient-9"/><linearGradient id="linear-gradient-140" x1="259.54" y1="168.83" x2="257.9" y2="247.81" xlink:href="#linear-gradient-92"/><linearGradient id="linear-gradient-141" x1="259.04" y1="178.56" x2="257.83" y2="237.2" xlink:href="#linear-gradient-8"/><linearGradient id="linear-gradient-142" x1="213.26" y1="229.55" x2="271.79" y2="229.55" xlink:href="#linear-gradient-104"/><linearGradient id="linear-gradient-143" x1="213.47" y1="228.47" x2="272" y2="228.47" xlink:href="#linear-gradient-104"/><linearGradient id="linear-gradient-144" x1="213.67" y1="227.37" x2="272.2" y2="227.37" xlink:href="#linear-gradient-104"/><linearGradient id="linear-gradient-145" x1="213.87" y1="226.27" x2="272.41" y2="226.27" xlink:href="#linear-gradient-104"/><linearGradient id="linear-gradient-146" x1="214.08" y1="225.17" x2="272.61" y2="225.17" xlink:href="#linear-gradient-104"/><linearGradient id="linear-gradient-147" x1="214.28" y1="224.07" x2="272.81" y2="224.07" xlink:href="#linear-gradient-104"/><linearGradient id="linear-gradient-148" x1="214.48" y1="222.98" x2="273.02" y2="222.98" xlink:href="#linear-gradient-104"/><linearGradient id="linear-gradient-149" x1="214.69" y1="221.88" x2="273.22" y2="221.88" xlink:href="#linear-gradient-104"/><linearGradient id="linear-gradient-150" x1="214.89" y1="220.78" x2="273.42" y2="220.78" xlink:href="#linear-gradient-104"/><linearGradient id="linear-gradient-151" x1="215.09" y1="219.68" x2="273.63" y2="219.68" xlink:href="#linear-gradient-104"/><linearGradient id="linear-gradient-152" x1="215.3" y1="218.58" x2="273.83" y2="218.58" xlink:href="#linear-gradient-104"/><linearGradient id="linear-gradient-153" x1="215.5" y1="217.48" x2="274.03" y2="217.48" xlink:href="#linear-gradient-104"/><linearGradient id="linear-gradient-154" x1="215.7" y1="216.38" x2="274.24" y2="216.38" xlink:href="#linear-gradient-104"/><linearGradient id="linear-gradient-155" x1="215.91" y1="215.28" x2="274.44" y2="215.28" xlink:href="#linear-gradient-104"/><linearGradient id="linear-gradient-156" x1="216.11" y1="214.19" x2="274.65" y2="214.19" xlink:href="#linear-gradient-104"/><linearGradient id="linear-gradient-157" x1="216.31" y1="213.09" x2="274.85" y2="213.09" xlink:href="#linear-gradient-104"/><linearGradient id="linear-gradient-158" x1="216.52" y1="211.99" x2="275.05" y2="211.99" xlink:href="#linear-gradient-104"/><linearGradient id="linear-gradient-159" x1="216.72" y1="210.89" x2="275.26" y2="210.89" xlink:href="#linear-gradient-104"/><linearGradient id="linear-gradient-160" x1="216.92" y1="209.79" x2="275.46" y2="209.79" xlink:href="#linear-gradient-104"/><linearGradient id="linear-gradient-161" x1="217.13" y1="208.69" x2="275.66" y2="208.69" xlink:href="#linear-gradient-104"/><linearGradient id="linear-gradient-162" x1="217.33" y1="207.59" x2="275.87" y2="207.59" xlink:href="#linear-gradient-104"/><linearGradient id="linear-gradient-163" x1="217.53" y1="206.49" x2="276.07" y2="206.49" xlink:href="#linear-gradient-104"/><linearGradient id="linear-gradient-164" x1="217.74" y1="205.4" x2="276.27" y2="205.4" xlink:href="#linear-gradient-104"/><linearGradient id="linear-gradient-165" x1="217.94" y1="204.3" x2="276.48" y2="204.3" xlink:href="#linear-gradient-104"/><linearGradient id="linear-gradient-166" x1="218.15" y1="203.2" x2="276.68" y2="203.2" xlink:href="#linear-gradient-104"/><linearGradient id="linear-gradient-167" x1="218.35" y1="202.1" x2="276.88" y2="202.1" xlink:href="#linear-gradient-104"/><linearGradient id="linear-gradient-168" x1="218.55" y1="201.01" x2="277.08" y2="201.01" xlink:href="#linear-gradient-104"/><linearGradient id="linear-gradient-169" x1="218.75" y1="199.91" x2="277.28" y2="199.91" xlink:href="#linear-gradient-104"/><linearGradient id="linear-gradient-170" x1="218.95" y1="198.81" x2="277.49" y2="198.81" xlink:href="#linear-gradient-104"/><linearGradient id="linear-gradient-171" x1="219.16" y1="197.71" x2="277.69" y2="197.71" xlink:href="#linear-gradient-104"/><linearGradient id="linear-gradient-172" x1="219.36" y1="196.61" x2="277.9" y2="196.61" xlink:href="#linear-gradient-104"/><linearGradient id="linear-gradient-173" x1="219.56" y1="195.51" x2="278.1" y2="195.51" xlink:href="#linear-gradient-104"/><linearGradient id="linear-gradient-174" x1="219.77" y1="194.41" x2="278.3" y2="194.41" xlink:href="#linear-gradient-104"/><linearGradient id="linear-gradient-175" x1="219.97" y1="193.32" x2="278.51" y2="193.32" xlink:href="#linear-gradient-104"/><linearGradient id="linear-gradient-176" x1="220.17" y1="192.22" x2="278.71" y2="192.22" xlink:href="#linear-gradient-104"/><linearGradient id="linear-gradient-177" x1="220.38" y1="191.12" x2="278.91" y2="191.12" xlink:href="#linear-gradient-104"/><linearGradient id="linear-gradient-178" x1="220.58" y1="190.02" x2="279.12" y2="190.02" xlink:href="#linear-gradient-104"/><linearGradient id="linear-gradient-179" x1="220.78" y1="188.92" x2="279.32" y2="188.92" xlink:href="#linear-gradient-104"/><linearGradient id="linear-gradient-180" x1="232.91" y1="185.07" x2="279.32" y2="185.07" xlink:href="#linear-gradient-104"/><linearGradient id="linear-gradient-181" x1="264.24" y1="217.37" x2="279.95" y2="217.37" gradientTransform="matrix(1,0,0,1,0,0)" xlink:href="#linear-gradient-9"/><linearGradient id="linear-gradient-182" x1="269.46" y1="222.26" x2="268.73" y2="256.75" xlink:href="#linear-gradient-8"/><linearGradient id="linear-gradient-183" x1="270.92" y1="219.89" x2="270.51" y2="239.46" gradientTransform="matrix(1,0,0,1,0,0)" xlink:href="#linear-gradient-9"/><linearGradient id="linear-gradient-184" x1="269.09" y1="144.91" x2="268.5" y2="172.85" xlink:href="#linear-gradient-17"/><linearGradient id="linear-gradient-185" x1="25.2" y1="184.15" x2="31.3" y2="184.15" gradientTransform="translate(280.46) rotate(-180) scale(1 -1)" xlink:href="#linear-gradient-92"/><linearGradient id="linear-gradient-186" x1="24.53" y1="184.82" x2="29.26" y2="184.82" gradientTransform="translate(280.46) rotate(-180) scale(1 -1)" xlink:href="#linear-gradient-8"/><linearGradient id="linear-gradient-187" x1="264.29" y1="176.46" x2="252.7" y2="176.46" xlink:href="#linear-gradient-8"/><linearGradient id="linear-gradient-188" x1="264.29" y1="176.1" x2="251.47" y2="176.1" xlink:href="#linear-gradient-17"/><linearGradient id="linear-gradient-189" x1="607.54" y1="450.93" x2="615.81" y2="464.83" gradientTransform="translate(1101.68) rotate(-180) scale(1 -1)" gradientUnits="userSpaceOnUse"><stop offset=".04" stop-color="#242425"/><stop offset="1" stop-color="#000"/></linearGradient><linearGradient id="linear-gradient-190" x1="649.56" y1="470.12" x2="653.96" y2="490.01" xlink:href="#linear-gradient-189"/><linearGradient id="linear-gradient-191" x1="608.19" y1="295.93" x2="609.19" y2="468.53" xlink:href="#linear-gradient-189"/><linearGradient id="linear-gradient-192" x1="633.73" y1="295.78" x2="634.73" y2="468.38" xlink:href="#linear-gradient-189"/><linearGradient id="linear-gradient-193" x1="585.54" y1="198.58" x2="588.29" y2="306.41" xlink:href="#linear-gradient-189"/><linearGradient id="linear-gradient-194" x1="617.55" y1="197.76" x2="620.31" y2="305.59" xlink:href="#linear-gradient-189"/><linearGradient id="linear-gradient-195" x1="593.83" y1="138.33" x2="642.29" y2="138.33" gradientTransform="translate(1101.68) rotate(-180) scale(1 -1)" gradientUnits="userSpaceOnUse"><stop offset="0" stop-color="#232323"/><stop offset="1" stop-color="#000"/></linearGradient><linearGradient id="linear-gradient-196" x1="677.89" y1="196.22" x2="680.64" y2="304.05" xlink:href="#linear-gradient-189"/></defs><path class="cls-63" d="m496.74,354.87l-206.99,119.38c-3.05,1.76-7.66,1.95-10.3.43l-107.53-62.1c-2.64-1.52-2.31-4.19.74-5.95l206.99-119.38c3.05-1.76,7.66-1.95,10.3-.43l107.53,62.1c2.64,1.52,2.31,4.19-.74,5.95Z"/><path class="cls-10" d="m487.57,284.26l-100.47-58.25c-.45-.26-.72-.8-.73-1.59,0-1.57,1.09-3.46,2.43-4.24.67-.38,1.28-.42,1.72-.16l100.47,58.26-3.44,5.99Z"/><path class="cls-96" d="m494.65,219.94v132.26c0,.75-.49,1.5-1.48,2.07-1.98,1.14-5.17,1.14-7.13,0-.97-.57-1.46-1.31-1.46-2.06v-132.27h10.07Z"/><path class="cls-107" d="m183.96,277.84v132.26c0,.75-.49,1.5-1.48,2.07-1.98,1.14-5.17,1.14-7.13,0-.97-.57-1.46-1.31-1.46-2.06v-132.27h10.07Z"/><path class="cls-184" d="m280.87,401.95l-100.47-58.25c-.45-.26-.72-.8-.73-1.59,0-1.57,1.09-3.46,2.43-4.24.67-.38,1.28-.42,1.72-.16l100.47,58.26-3.44,5.99Z"/><path class="cls-50" d="m285.64,402.22l202.7-118.1c.45-.26.72-.8.73-1.59,0-1.57-1.09-3.46-2.43-4.24-.67-.38-1.28-.42-1.72-.16l-202.7,118.11,3.44,5.99Z"/><path class="cls-25" d="m289.21,338.9v132.26c0,.75-.49,1.5-1.48,2.07-1.98,1.14-5.17,1.14-7.13,0-.97-.57-1.46-1.31-1.46-2.06v-132.27h10.07Z"/><path class="cls-105" d="m389.4,158.88v132.26c0,.75-.49,1.5-1.48,2.07-1.98,1.14-5.17,1.14-7.13,0-.97-.57-1.46-1.31-1.46-2.06v-132.27h10.07Z"/><path class="cls-140" d="m499.26,230.81s0-.03,0-.05v-10.62l-8.1-.12s-.04.16-.12.42l-101.1-58.38c-2.64-1.52-7.25-1.33-10.3.43l-203.03,117.1c-.16-.56-.37-1.06-.64-1.23-.75-.47-5.84.13-5.84.13v10.87h0c0,.97.57,1.9,1.78,2.6l107.53,62.1c2.64,1.52,7.25,1.33,10.3-.43l206.99-119.38c1.64-.95,2.49-2.16,2.51-3.31,0,0,0,0,0,0v-.12Z"/><path class="cls-115" d="m496.74,223.32l-206.99,119.38c-3.05,1.76-7.66,1.95-10.3.43l-107.53-62.1c-2.64-1.52-2.31-4.19.74-5.95l206.99-119.38c3.05-1.76,7.66-1.95,10.3-.43l107.53,62.1c2.64,1.52,2.31,4.19-.74,5.95Z"/><polygon class="cls-63" points="205.06 286.17 395.43 176.27 467.44 217.84 277.08 327.75 205.06 286.17"/><path class="cls-173" d="m444.5,147.58v12.17s5.12-4.01,13.27-7.57,15.83-4.67,15.83-4.67l.87-3.39-29.97,3.46Z"/><polygon class="cls-42" points="474.47 144.11 450.06 130.04 420.09 133.5 444.5 147.58 474.47 144.11"/><polygon class="cls-2" points="472.18 139.57 447.77 125.49 432.05 126.92 453.01 141.78 472.18 139.57"/><path class="cls-76" d="m472.18,139.57l-.18,4.01-27.59,3.6v-9.82c1.14-1.01,3.36-3.03,4.03-4.23.92-1.64,1.44-.6,1.62,1.29.17,1.88.22,7.34,6.4,6.58,6.17-.76,15.72-1.43,15.72-1.43Z"/><polygon class="cls-94" points="469.88 181.4 437.92 194.38 378.45 160.04 410.4 147.06 469.88 181.4"/><polygon class="cls-41" points="437.92 203.66 437.92 194.38 469.88 181.4 469.88 185.21 437.92 203.66"/><polygon class="cls-81" points="378.45 160.04 378.45 169.32 437.92 203.66 437.92 194.38 378.45 160.04"/><path class="cls-5" d="m472.93,185.04h0c-.2-.14-.44-.18-.71-.12l-16.87,3.76c-.2.05-.39.03-.57-.01.12-.25.22-.46.22-.46l-1.64-.92h0c-.34-.17-.76-.12-1.2.15l-9.64,5.89v22.11l30.44-26.11c.29-.25.49-.71.49-1.1v-1.55l1.09-.74-1.61-.9Z"/><path class="cls-147" d="m475.13,187.29v1.89c0,.39-.21.85-.49,1.1l-30.44,26.11v-22.11l9.64-5.89c.67-.41,1.29-.31,1.63.27l.24.41c.29.49.76.69,1.32.57l16.87-3.76c.72-.16,1.23.42,1.23,1.42Z"/><path class="cls-8" d="m259.62,277.72l-29.63,17.1c-.13.07-.23.15-.33.23-.01-.01-.02-.02-.03-.02-.01,0-.58.38-.58.38v.71c.03.34.24.67.66.91l3.05,1.76c.98.57,2.7.49,3.83-.16l29.63-17.1-6.6-3.81Z"/><path class="cls-93" d="m266.22,280.85l-29.63,17.1c-1.13.65-2.85.73-3.83.16l-3.05-1.76c-.98-.56-.85-1.55.28-2.21l29.63-17.1,6.6,3.81Z"/><path class="cls-24" d="m278.6,288.03l-29.63,17.1c-.13.07-.23.15-.33.23-.01-.01-.02-.02-.03-.02-.01,0-.58.38-.58.38v.71c.03.34.24.67.66.91l3.05,1.76c.98.57,2.7.49,3.83-.16l29.63-17.1-6.6-3.81Z"/><path class="cls-82" d="m285.2,291.15l-29.63,17.1c-1.13.65-2.85.73-3.83.16l-3.05-1.76c-.98-.56-.85-1.55.28-2.21l29.63-17.1,6.6,3.81Z"/><polygon class="cls-77" points="361.78 181.91 421.25 216.25 417.05 218.67 357.58 184.33 361.78 181.91"/><path class="cls-143" d="m481.43,127.21l-12.73,11.72c-.51.04-1.04.09-1.57.13l14.07-12.9.24,1.04Z"/><polygon class="cls-78" points="481.19 126.17 467.12 139.07 447.12 127.51 461.2 114.61 481.19 126.17"/><path class="cls-144" d="m478.3,125.99s-8.87,9.53-15.83,11.14c-6.96,1.61-11.94,1.69-11.94,1.69l-15.05-8.69s5.95-1.51,10.65-3.93c4.69-2.42,13.12-10.92,13.12-10.92l19.06,10.7Z"/><path class="cls-116" d="m450.74,132.37l-.67-2.36c-.11-.39.09-1,.44-1.32l21.6-19.78-.42-1.8-24.39,22.23v6.13l3.44-3.09Z"/><polygon class="cls-170" points="471.69 107.11 448.9 93.84 424.51 116.06 447.3 129.33 471.69 107.11"/><polygon class="cls-158" points="445.26 127.76 419.36 112.8 445.85 89.22 471.75 104.17 445.26 127.76"/><polygon class="cls-63" points="444.65 127.4 418.75 112.45 445.24 88.86 471.14 103.82 444.65 127.4"/><polygon class="cls-149" points="444.7 126.9 418.8 111.95 445.29 88.37 471.19 103.32 444.7 126.9"/><polygon class="cls-63" points="444.23 126.63 418.33 111.68 444.81 88.09 470.72 103.05 444.23 126.63"/><polygon class="cls-56" points="444.28 126.13 418.38 111.18 444.87 87.6 470.77 102.55 444.28 126.13"/><polygon class="cls-63" points="443.81 125.86 417.91 110.91 444.39 87.32 470.29 102.28 443.81 125.86"/><polygon class="cls-90" points="443.86 125.37 417.96 110.41 444.45 86.83 470.35 101.78 443.86 125.37"/><polygon class="cls-63" points="443.39 125.09 417.48 110.14 443.97 86.55 469.87 101.51 443.39 125.09"/><polygon class="cls-9" points="443.44 124.6 417.54 109.64 444.03 86.06 469.93 101.01 443.44 124.6"/><polygon class="cls-63" points="442.96 124.32 417.06 109.37 443.55 85.78 469.45 100.74 442.96 124.32"/><polygon class="cls-62" points="443.02 123.83 417.12 108.87 443.6 85.29 469.51 100.24 443.02 123.83"/><polygon class="cls-63" points="442.54 123.55 416.64 108.6 443.13 85.01 469.03 99.97 442.54 123.55"/><polygon class="cls-88" points="442.6 123.06 416.7 108.1 443.18 84.52 469.08 99.47 442.6 123.06"/><polygon class="cls-63" points="442.12 122.78 416.22 107.83 442.71 84.24 468.61 99.2 442.12 122.78"/><polygon class="cls-134" points="442.18 122.29 416.28 107.33 442.76 83.75 468.66 98.7 442.18 122.29"/><polygon class="cls-63" points="441.7 122.01 415.8 107.06 442.29 83.47 468.19 98.43 441.7 122.01"/><polygon class="cls-190" points="441.75 121.52 415.85 106.56 442.34 82.98 468.24 97.93 441.75 121.52"/><polygon class="cls-63" points="441.28 121.24 415.38 106.29 441.86 82.7 467.76 97.66 441.28 121.24"/><polygon class="cls-1" points="441.33 120.75 415.43 105.79 441.92 82.21 467.82 97.16 441.33 120.75"/><path class="cls-52" d="m470.17,107.42l-2.01-2.83c-1.75-2.46-5.26-2.82-7.47-.77l-18.75,17.43,6.3,6.26,21.92-20.09Z"/><path class="cls-106" d="m450.74,108.52l-.67-2.36c-.11-.39.09-1,.44-1.32l21.6-19.78-.42-1.8-24.39,22.23v6.13l3.44-3.09Z"/><polygon class="cls-72" points="471.69 83.26 448.9 69.99 424.51 92.22 447.3 105.48 471.69 83.26"/><polygon class="cls-70" points="445.26 103.91 419.36 88.95 445.85 65.37 471.75 80.32 445.26 103.91"/><polygon class="cls-63" points="444.65 103.55 418.75 88.6 445.24 65.01 471.14 79.97 444.65 103.55"/><polygon class="cls-35" points="444.7 103.06 418.8 88.1 445.29 64.52 471.19 79.47 444.7 103.06"/><polygon class="cls-63" points="444.23 102.78 418.33 87.83 444.81 64.24 470.72 79.2 444.23 102.78"/><polygon class="cls-79" points="444.28 102.29 418.38 87.33 444.87 63.75 470.77 78.7 444.28 102.29"/><polygon class="cls-63" points="443.81 102.01 417.91 87.06 444.39 63.47 470.29 78.43 443.81 102.01"/><polygon class="cls-151" points="443.86 101.52 417.96 86.56 444.45 62.98 470.35 77.93 443.86 101.52"/><polygon class="cls-63" points="443.39 101.24 417.48 86.29 443.97 62.7 469.87 77.66 443.39 101.24"/><polygon class="cls-100" points="443.44 100.75 417.54 85.79 444.03 62.21 469.93 77.16 443.44 100.75"/><polygon class="cls-63" points="442.96 100.47 417.06 85.52 443.55 61.93 469.45 76.89 442.96 100.47"/><polygon class="cls-159" points="443.02 99.98 417.12 85.02 443.6 61.44 469.51 76.39 443.02 99.98"/><polygon class="cls-63" points="442.54 99.7 416.64 84.75 443.13 61.16 469.03 76.12 442.54 99.7"/><polygon class="cls-141" points="442.6 99.21 416.7 84.25 443.18 60.67 469.08 75.62 442.6 99.21"/><polygon class="cls-63" points="442.12 98.93 416.22 83.98 442.71 60.39 468.61 75.35 442.12 98.93"/><polygon class="cls-136" points="442.18 98.44 416.28 83.48 442.76 59.9 468.66 74.85 442.18 98.44"/><polygon class="cls-63" points="441.7 98.16 415.8 83.21 442.29 59.63 468.19 74.58 441.7 98.16"/><polygon class="cls-138" points="441.75 97.67 415.85 82.71 442.34 59.13 468.24 74.08 441.75 97.67"/><polygon class="cls-63" points="441.28 97.39 415.38 82.44 441.86 58.86 467.76 73.81 441.28 97.39"/><polygon class="cls-89" points="441.33 96.9 415.43 81.95 441.92 58.36 467.82 73.31 441.33 96.9"/><path class="cls-52" d="m470.17,83.57l-2.01-2.83c-1.75-2.46-5.26-2.82-7.47-.77l-18.75,17.43,6.3,6.26,21.92-20.09Z"/><path class="cls-148" d="m450.74,84.67l-.67-2.36c-.11-.39.09-1,.44-1.32l21.6-19.78-.42-1.8-24.39,22.23v6.13l3.44-3.09Z"/><polygon class="cls-99" points="471.69 59.41 448.9 46.14 424.51 68.37 447.3 81.64 471.69 59.41"/><polygon class="cls-128" points="445.26 80.06 419.36 65.11 445.85 41.52 471.75 56.48 445.26 80.06"/><polygon class="cls-63" points="444.65 79.7 418.75 64.75 445.24 41.16 471.14 56.12 444.65 79.7"/><polygon class="cls-83" points="444.7 79.21 418.8 64.25 445.29 40.67 471.19 55.62 444.7 79.21"/><polygon class="cls-63" points="444.23 78.93 418.33 63.98 444.81 40.4 470.72 55.35 444.23 78.93"/><polygon class="cls-84" points="444.28 78.44 418.38 63.48 444.87 39.9 470.77 54.85 444.28 78.44"/><polygon class="cls-63" points="443.81 78.16 417.91 63.21 444.39 39.63 470.29 54.58 443.81 78.16"/><polygon class="cls-171" points="443.86 77.67 417.96 62.72 444.45 39.13 470.35 54.08 443.86 77.67"/><polygon class="cls-63" points="443.39 77.39 417.48 62.44 443.97 38.86 469.87 53.81 443.39 77.39"/><polygon class="cls-20" points="443.44 76.9 417.54 61.95 444.03 38.36 469.93 53.31 443.44 76.9"/><polygon class="cls-63" points="442.96 76.62 417.06 61.67 443.55 38.09 469.45 53.04 442.96 76.62"/><polygon class="cls-59" points="443.02 76.13 417.12 61.18 443.6 37.59 469.51 52.55 443.02 76.13"/><polygon class="cls-63" points="442.54 75.85 416.64 60.9 443.13 37.32 469.03 52.27 442.54 75.85"/><polygon class="cls-92" points="442.6 75.36 416.7 60.41 443.18 36.82 469.08 51.78 442.6 75.36"/><polygon class="cls-63" points="442.12 75.09 416.22 60.13 442.71 36.55 468.61 51.5 442.12 75.09"/><polygon class="cls-91" points="442.18 74.59 416.28 59.64 442.76 36.05 468.66 51.01 442.18 74.59"/><polygon class="cls-63" points="441.7 74.32 415.8 59.36 442.29 35.78 468.19 50.73 441.7 74.32"/><polygon class="cls-145" points="441.75 73.82 415.85 58.87 442.34 35.28 468.24 50.24 441.75 73.82"/><polygon class="cls-63" points="441.28 73.55 415.38 58.59 441.86 35.01 467.76 49.96 441.28 73.55"/><polygon class="cls-12" points="441.33 73.05 415.43 58.1 441.92 34.51 467.82 49.47 441.33 73.05"/><path class="cls-52" d="m470.17,59.72l-2.01-2.83c-1.75-2.46-5.26-2.82-7.47-.77l-18.75,17.43,6.3,6.26,21.92-20.09Z"/><polygon class="cls-60" points="452.11 47.71 452.11 220.39 383.79 259.83 383.79 212.7 396.25 205.51 413.05 216.14 416.29 218.19 417.05 218.67 417.99 218.12 421.25 216.25 421.25 75.98 452.11 47.71"/><polygon class="cls-163" points="383.79 259.83 383.79 212.7 324.32 178.36 324.32 225.49 383.79 259.83"/><polygon class="cls-133" points="336.78 171.17 396.25 205.51 383.79 212.7 324.32 178.36 336.78 171.17"/><polygon class="cls-74" points="382.69 215.64 382.69 259.2 378.43 261.66 378.43 218.1 382.69 215.64"/><polygon class="cls-17" points="382.69 236.3 382.69 237.22 379.66 238.96 378.43 239.67 378.43 238.75 379.66 238.04 382.69 236.3"/><polygon class="cls-155" points="324.79 182.59 382.69 215.65 378.43 218.11 320.53 185.04 324.79 182.59"/><polygon class="cls-111" points="347.94 238.7 378.94 220.81 319.47 186.47 288.47 204.36 347.94 238.7"/><polygon class="cls-177" points="378.94 220.81 319.47 186.47 319.47 181.16 378.94 215.5 378.94 220.81"/><polygon class="cls-58" points="320.19 180.75 379.65 215.09 378.94 215.5 319.47 181.16 320.19 180.75"/><path class="cls-157" d="m375.44,221.07l-27.97,16.15c-.64.37-1.45.16-1.83-.48l-11.69-19.69c-.38-.65-.17-1.48.48-1.86l27.97-16.15c.64-.37,1.45-.16,1.83.48l11.69,19.69c.38.65.17,1.48-.48,1.86Z"/><path class="cls-46" d="m376.22,220.68l-27.97,16.15c-.64.37-1.45.16-1.83-.48l-11.69-19.69c-.38-.65-.17-1.48.48-1.86l27.97-16.15c.64-.37,1.45-.16,1.83.48l11.69,19.69c.38.65.17,1.48-.48,1.86Z"/><polygon class="cls-85" points="347.03 234.54 370.93 220.68 360.34 202.92 336.44 216.79 347.03 234.54"/><path class="cls-180" d="m341.41,229.63l6.53,3.77-3.2,1.85-45.76,26.41-59.47-34.34,80.67-46.57,36.95,21.33-22.71,13.11c-.65.37-.87,1.21-.48,1.86l3.04,5.13-4.23,2.46,8.65,4.99Z"/><polygon class="cls-203" points="379.66 215.09 379.66 262.22 298.99 308.79 298.99 261.66 347.94 233.4 347.94 238.7 378.94 220.8 378.94 215.5 379.66 215.09"/><polygon class="cls-29" points="361.78 41.64 361.78 181.91 421.25 216.25 421.25 75.98 361.78 41.64"/><polygon class="cls-109" points="392.65 13.38 452.12 47.72 421.25 75.98 361.78 41.64 392.65 13.38"/><polygon class="cls-178" points="449.6 41.03 449.6 47.19 420.19 74.14 420.19 67.98 449.6 41.03"/><polygon class="cls-199" points="363.51 35.25 363.5 41.41 420.19 74.14 420.19 67.98 363.51 35.25"/><polygon class="cls-193" points="392.93 8.3 449.61 41.03 420.19 67.98 363.51 35.25 392.93 8.3"/><polygon class="cls-45" points="419.11 69.47 419.11 214.91 411.49 211.2 411.49 77.19 419.11 69.47"/><polygon class="cls-123" points="354.81 44.46 354.81 178.47 411.49 211.2 411.49 77.19 354.81 44.46"/><polygon class="cls-125" points="362.43 36.75 419.11 69.48 411.49 77.19 354.81 44.46 362.43 36.75"/><polygon class="cls-153" points="298.99 285.76 379.66 239.29 379.66 240.21 298.99 286.67 298.99 285.76"/><polygon class="cls-132" points="452.11 70.09 452.11 71.01 421.25 88.78 421.25 87.87 452.11 70.09"/><polygon class="cls-179" points="452.11 101.36 452.11 102.29 421.25 120.06 421.25 119.15 452.11 101.36"/><polygon class="cls-176" points="452.11 132.64 452.11 133.56 421.25 151.34 421.25 150.42 452.11 132.64"/><path class="cls-7" d="m413.05,216.14v3.33c0,.36-.19.7-.51.88l-28.75,16.55v.92l33.26-19.16-4-2.53Z"/><polygon class="cls-71" points="330.94 243.21 298.98 261.66 239.52 227.32 271.47 208.87 330.94 243.21"/><polygon class="cls-129" points="330.94 238.37 298.98 256.82 239.52 222.48 271.47 204.03 330.94 238.37"/><polygon class="cls-47" points="298.98 261.66 298.98 256.82 330.94 238.37 330.94 243.21 298.98 261.66"/><polygon class="cls-14" points="298.98 256.82 239.52 222.48 239.52 230.76 239.52 274.45 298.98 308.79 298.98 256.82"/><polygon class="cls-102" points="330.94 229.21 298.98 247.66 239.52 213.32 271.47 194.87 330.94 229.21"/><polygon class="cls-114" points="298.98 256.94 298.98 247.66 330.94 229.21 330.94 238.49 298.98 256.94"/><polygon class="cls-40" points="239.52 213.32 239.52 222.6 298.98 256.94 298.98 247.66 239.52 213.32"/><polygon class="cls-65" points="332.76 224.64 341.41 229.63 336.99 222.18 332.76 224.64"/><path class="cls-154" d="m243.68,267.01l-8.15,6.34-.91-.52.47,7.78.35-.04.37,1.18c.15.49.47.87.87,1.11h0s.93.54.93.54l.04-.25c.36.01.73-.06,1.07-.26l1.93-1.12s.09.53.71.61l.52.38.12-.44c.3-.08.66-.23,1.11-.48,2.23-1.29,3.46-3.72,3.46-3.72v-21.38l-2.9,10.27Z"/><path class="cls-15" d="m246.58,241.46l-.35-.2-.23,4.59-2.11,14.21c-.23,1.6-.92,3.1-1.98,4.32l-7.27,8.41-.02.02.91.52,8.15-6.34,2.9-10.27.56-1.99v-12.95l-.56-.33Z"/><polygon class="cls-172" points="236 281.13 235.09 280.6 234.62 272.82 235.54 273.35 236 281.13"/><polygon class="cls-119" points="247.49 237.52 246.58 237 244.7 237.46 245.62 237.98 247.49 237.52"/><polygon class="cls-44" points="244.7 238.39 245.62 238.92 245.62 237.98 244.7 237.46 244.7 238.39"/><polygon class="cls-183" points="247.14 241.79 245.62 238.92 244.7 238.39 246.23 241.27 247.14 241.79"/><path class="cls-57" d="m245.62,237.98v.94l1.52,2.87-.23,4.59-2.1,14.21c-.24,1.6-.92,3.1-1.98,4.33l-7.29,8.43.47,7.78.35-.05.37,1.18c.38,1.23,1.81,1.79,2.92,1.14l1.93-1.11s.23,1.35,2.46.06c2.23-1.29,3.46-3.72,3.46-3.72v-41.11l-1.88.46Z"/><polygon class="cls-39" points="285.43 297.91 265.25 309.65 226.89 287.5 247.06 275.76 285.43 297.91"/><g class="cls-204"><polygon class="cls-37" points="284.91 297.59 265.46 308.92 227.6 287.06 247.05 275.74 284.91 297.59"/></g><polygon class="cls-124" points="285.63 296.82 265.46 308.55 227.1 286.4 247.26 274.66 285.63 296.82"/><g class="cls-204"><polygon class="cls-37" points="285.12 296.49 265.66 307.82 227.81 285.96 247.26 274.64 285.12 296.49"/></g><polygon class="cls-43" points="285.83 295.72 265.66 307.45 227.3 285.3 247.46 273.56 285.83 295.72"/><g class="cls-204"><polygon class="cls-37" points="285.32 295.39 265.86 306.72 228.01 284.86 247.46 273.54 285.32 295.39"/></g><polygon class="cls-164" points="286.04 294.62 265.86 306.35 227.5 284.2 247.67 272.46 286.04 294.62"/><g class="cls-204"><polygon class="cls-37" points="285.52 294.3 266.07 305.62 228.22 283.76 247.67 272.44 285.52 294.3"/></g><polygon class="cls-201" points="286.24 293.52 266.07 305.25 227.71 283.1 247.87 271.37 286.24 293.52"/><g class="cls-204"><polygon class="cls-37" points="285.73 293.2 266.27 304.52 228.42 282.66 247.87 271.35 285.73 293.2"/></g><polygon class="cls-166" points="286.44 292.42 266.27 304.16 227.91 282 248.07 270.27 286.44 292.42"/><g class="cls-204"><polygon class="cls-37" points="285.92 292.1 266.47 303.43 228.62 281.57 248.07 270.25 285.92 292.1"/></g><polygon class="cls-86" points="286.64 291.33 266.47 303.06 228.11 280.91 248.27 269.17 286.64 291.33"/><g class="cls-204"><polygon class="cls-37" points="286.13 291 266.67 302.33 228.82 280.47 248.27 269.15 286.13 291"/></g><polygon class="cls-200" points="286.84 290.23 266.67 301.96 228.31 279.81 248.48 268.07 286.84 290.23"/><g class="cls-204"><polygon class="cls-37" points="286.33 289.91 266.87 301.23 229.02 279.37 248.47 268.05 286.33 289.91"/></g><polygon class="cls-186" points="287.05 289.13 266.88 300.86 228.51 278.71 248.68 266.98 287.05 289.13"/><g class="cls-204"><polygon class="cls-37" points="286.53 288.81 267.08 300.13 229.23 278.27 248.68 266.96 286.53 288.81"/></g><polygon class="cls-168" points="287.25 288.03 267.08 299.77 228.72 277.61 248.88 265.88 287.25 288.03"/><g class="cls-204"><polygon class="cls-37" points="286.74 287.71 267.28 299.03 229.43 277.18 248.88 265.86 286.74 287.71"/></g><polygon class="cls-146" points="287.46 286.93 267.28 298.67 228.92 276.51 249.09 264.78 287.46 286.93"/><g class="cls-204"><polygon class="cls-37" points="286.94 286.61 267.49 297.94 229.63 276.08 249.08 264.76 286.94 286.61"/></g><polygon class="cls-194" points="287.66 285.83 267.49 297.57 229.12 275.41 249.29 263.68 287.66 285.83"/><g class="cls-204"><polygon class="cls-37" points="287.14 285.51 267.69 296.84 229.84 274.98 249.29 263.66 287.14 285.51"/></g><polygon class="cls-198" points="287.86 284.74 267.69 296.47 229.33 274.32 249.49 262.58 287.86 284.74"/><g class="cls-204"><polygon class="cls-37" points="287.35 284.41 267.89 295.74 230.04 273.88 249.49 262.56 287.35 284.41"/></g><polygon class="cls-131" points="288.07 283.64 267.89 295.37 229.53 273.22 249.7 261.48 288.07 283.64"/><g class="cls-204"><polygon class="cls-37" points="287.55 283.31 268.1 294.64 230.24 272.78 249.69 261.46 287.55 283.31"/></g><polygon class="cls-185" points="288.27 282.54 268.1 294.27 229.73 272.12 249.9 260.38 288.27 282.54"/><g class="cls-204"><polygon class="cls-37" points="287.76 282.21 268.3 293.54 230.45 271.68 249.9 260.36 287.76 282.21"/></g><polygon class="cls-110" points="288.47 281.44 268.3 293.17 229.94 271.02 250.1 259.28 288.47 281.44"/><g class="cls-204"><polygon class="cls-37" points="287.96 281.12 268.5 292.44 230.65 270.58 250.1 259.26 287.96 281.12"/></g><polygon class="cls-69" points="288.68 280.34 268.5 292.07 230.14 269.92 250.31 258.19 288.68 280.34"/><g class="cls-204"><polygon class="cls-37" points="288.16 280.02 268.71 291.34 230.86 269.48 250.3 258.17 288.16 280.02"/></g><polygon class="cls-150" points="288.88 279.24 268.71 290.98 230.35 268.82 250.51 257.09 288.88 279.24"/><g class="cls-204"><polygon class="cls-37" points="288.88 279.24 280.8 283.93 242.44 261.78 250.51 257.09 288.88 279.24"/></g><polygon class="cls-64" points="288.88 279.24 280.84 283.27 242.47 261.12 250.51 257.09 288.88 279.24"/><path class="cls-187" d="m286.57,292.29l-8.15,6.34-.91-.52.47,7.78.35-.04.37,1.18c.15.49.47.87.87,1.11h0s.93.54.93.54l.04-.25c.36.01.73-.06,1.07-.26l1.93-1.12s.09.53.71.61l.52.38.12-.44c.3-.08.66-.23,1.11-.48,2.23-1.29,3.46-3.72,3.46-3.72v-21.38l-2.9,10.27Z"/><path class="cls-31" d="m289.47,266.75l-.35-.2-.23,4.59-2.11,14.21c-.23,1.6-.92,3.1-1.98,4.32l-7.27,8.41-.02.02.91.52,8.15-6.34,2.9-10.27.56-1.99v-12.95l-.56-.33Z"/><polygon class="cls-113" points="278.89 306.41 277.98 305.88 277.51 298.1 278.42 298.63 278.89 306.41"/><polygon class="cls-75" points="290.38 262.81 289.47 262.28 287.59 262.74 288.51 263.26 290.38 262.81"/><polygon class="cls-3" points="287.59 263.68 288.51 264.2 288.51 263.26 287.59 262.74 287.59 263.68"/><polygon class="cls-189" points="290.03 267.07 288.51 264.2 287.59 263.68 289.12 266.55 290.03 267.07"/><path class="cls-156" d="m288.51,263.26v.94l1.52,2.87-.23,4.59-2.1,14.21c-.24,1.6-.92,3.1-1.98,4.33l-7.29,8.43.47,7.78.35-.05.37,1.18c.38,1.23,1.81,1.79,2.92,1.14l1.93-1.11s.23,1.35,2.46.06c2.23-1.29,3.46-3.72,3.46-3.72v-41.11l-1.88.46Z"/><path class="cls-68" d="m296.2,247.96l-7.26-4.08-4.47,1.95,2.52,6.57s4.54.05,4.62.02c.07-.02,4.59-4.47,4.59-4.47Z"/><path class="cls-121" d="m284.68,267.83c.26-.21,3.03-1.46,3.51-1.74.48-.28,8.01-2.76,8.01-2.76v-15.38l-6.16,2.57c-.76.32-1.31-.28-1.24-1.34l.22-3.14-7.41,5.32,1.21,10.79,1.86,5.68Z"/><path class="cls-6" d="m253.19,276.43s21.83-4.06,23.04-4.64c.96-.46,5.86-2.27,7.88-3,.49-.18.96-.87,1.07-1.58l2.13-13.14-34.13,22.36Z"/><polygon class="cls-54" points="295.51 173.42 294.68 178.17 284.93 234.86 279.08 238.24 276.03 240 288.19 171.11 295.51 173.42"/><polygon class="cls-117" points="294.68 178.17 284.93 234.86 279.08 238.24 289.95 176.68 294.68 178.17"/><path class="cls-195" d="m281.93,229.63l-1.64,10.02,4.3.51s1.9-3.48,1.72-6.16c-.18-2.68-1.5-4.29-1.94-4.29s-2.43-.09-2.43-.09Z"/><path class="cls-34" d="m284.59,240.16l-19.54,11.28-8.76,5.06c-1.19.69-2.66.69-3.85,0l-51.06-29.46c-.49-.28-.71-.8-.67-1.3v-.05s.01,0,.01,0c.05-.39.27-.76.66-.99l28.2-16.28,55.01,31.73Z"/><path class="cls-13" d="m292.08,229.91l-4.8,26.95-6.43,3.71-28.3,16.34c-.56.32-1.18.49-1.8.51-.71.03-1.42-.14-2.06-.51l-51.06-29.45c-.52-.3-.73-.86-.65-1.38h0l.02-.12v-.02l3.72-20.19c-.05.49.17,1.01.67,1.3l51.06,29.46c1.19.69,2.66.69,3.85,0l8.76-5.06,19.54-11.28h0l1.12-6.47c.18-1.03-.3-2.05-1.2-2.58l-4.69-2.7,6.36-3.68,4.77,2.75c.85.5,1.3,1.47,1.12,2.44Z"/><path class="cls-21" d="m237,193.7l-3.06,17.2-.08.04-27.94,16.15c-.47.27-1,.42-1.52.43-.6.03-1.2-.12-1.74-.43l-.9-.53c-.43-.25-.61-.73-.55-1.16h0l.02-.1h0s3.15-17.08,3.15-17.08c-.05.42.15.85.56,1.09l.89.53c1.01.58,2.25.58,3.26,0l11.41-6.6h0l11.16-6.44,5.34-3.08Z"/><path class="cls-16" d="m237.02,193.68l-27.94,16.15c-1.01.58-2.25.58-3.26,0l-.89-.53c-.41-.23-.61-.67-.56-1.09v-.05s0,0,0,0c.04-.33.22-.65.55-.84l27.86-16.1,4.23,2.46Z"/><polygon class="cls-160" points="242.08 144.35 288.19 171.11 276.03 240 229.91 213.23 242.08 144.35"/><polygon class="cls-87" points="265.97 162.14 264.38 171.17 263.94 173.67 253.82 231.04 251.39 229.63 261.13 174.54 261.57 172.04 263.56 160.74 265.97 162.14"/><polygon class="cls-126" points="271.79 234.76 251.62 246.49 213.26 224.33 213.66 224.1 213.98 223.92 233.43 212.6 271.28 234.46 271.55 234.61 271.79 234.76"/><g class="cls-204"><polygon class="cls-37" points="271.28 234.46 251.83 245.78 213.98 223.92 233.43 212.6 271.28 234.46"/></g><polygon class="cls-112" points="272 233.68 251.83 245.41 213.47 223.26 233.63 211.53 272 233.68"/><g class="cls-204"><polygon class="cls-37" points="271.49 233.36 252.03 244.68 214.18 222.82 233.63 211.51 271.49 233.36"/></g><polygon class="cls-202" points="272.2 232.58 252.03 244.32 213.67 222.16 233.83 210.43 272.2 232.58"/><g class="cls-204"><polygon class="cls-37" points="271.69 232.26 252.23 243.58 214.38 221.73 233.83 210.41 271.69 232.26"/></g><polygon class="cls-167" points="272.41 231.48 252.23 243.22 213.87 221.06 234.04 209.33 272.41 231.48"/><g class="cls-204"><polygon class="cls-37" points="271.89 231.16 252.44 242.48 214.59 220.63 234.04 209.31 271.89 231.16"/></g><polygon class="cls-98" points="272.61 230.38 252.44 242.12 214.08 219.96 234.24 208.23 272.61 230.38"/><g class="cls-204"><polygon class="cls-37" points="272.1 230.06 252.64 241.39 214.79 219.53 234.24 208.21 272.1 230.06"/></g><polygon class="cls-73" points="272.81 229.28 252.64 241.02 214.28 218.86 234.45 207.13 272.81 229.28"/><g class="cls-204"><polygon class="cls-37" points="272.3 228.96 252.84 240.29 214.99 218.43 234.44 207.11 272.3 228.96"/></g><polygon class="cls-108" points="273.02 228.19 252.85 239.92 214.48 217.77 234.65 206.03 273.02 228.19"/><g class="cls-204"><polygon class="cls-37" points="272.5 227.86 253.05 239.19 215.2 217.33 234.65 206.01 272.5 227.86"/></g><polygon class="cls-23" points="273.22 227.09 253.05 238.82 214.69 216.67 234.85 204.93 273.22 227.09"/><g class="cls-204"><polygon class="cls-37" points="272.71 226.76 253.25 238.09 215.4 216.23 234.85 204.91 272.71 226.76"/></g><polygon class="cls-174" points="273.42 225.99 253.25 237.72 214.89 215.57 235.06 203.83 273.42 225.99"/><g class="cls-204"><polygon class="cls-37" points="272.91 225.67 253.45 236.99 215.6 215.13 235.05 203.81 272.91 225.67"/></g><polygon class="cls-49" points="273.63 224.89 253.46 236.62 215.09 214.47 235.26 202.74 273.63 224.89"/><g class="cls-204"><polygon class="cls-37" points="273.11 224.57 253.66 235.89 215.81 214.03 235.26 202.72 273.11 224.57"/></g><polygon class="cls-118" points="273.83 223.79 253.66 235.53 215.3 213.37 235.46 201.64 273.83 223.79"/><g class="cls-204"><polygon class="cls-37" points="273.32 223.47 253.86 234.79 216.01 212.94 235.46 201.62 273.32 223.47"/></g><polygon class="cls-19" points="274.03 222.69 253.86 234.43 215.5 212.27 235.67 200.54 274.03 222.69"/><g class="cls-204"><polygon class="cls-37" points="273.52 222.37 254.06 233.69 216.21 211.84 235.66 200.52 273.52 222.37"/></g><polygon class="cls-61" points="274.24 221.59 254.07 233.33 215.7 211.17 235.87 199.44 274.24 221.59"/><g class="cls-204"><polygon class="cls-37" points="273.72 221.27 254.27 232.6 216.42 210.74 235.87 199.42 273.72 221.27"/></g><polygon class="cls-127" points="274.44 220.49 254.27 232.23 215.91 210.07 236.07 198.34 274.44 220.49"/><g class="cls-204"><polygon class="cls-37" points="273.93 220.17 254.47 231.5 216.62 209.64 236.07 198.32 273.93 220.17"/></g><polygon class="cls-97" points="274.65 219.4 254.47 231.13 216.11 208.98 236.28 197.24 274.65 219.4"/><g class="cls-204"><polygon class="cls-37" points="274.13 219.07 254.67 230.4 216.82 208.54 236.27 197.22 274.13 219.07"/></g><polygon class="cls-26" points="274.85 218.3 254.68 230.03 216.31 207.88 236.48 196.14 274.85 218.3"/><g class="cls-204"><polygon class="cls-37" points="274.33 217.97 254.88 229.3 217.03 207.44 236.48 196.12 274.33 217.97"/></g><polygon class="cls-197" points="275.05 217.2 254.88 228.93 216.52 206.78 236.68 195.04 275.05 217.2"/><g class="cls-204"><polygon class="cls-37" points="274.54 216.88 255.08 228.2 217.23 206.34 236.68 195.02 274.54 216.88"/></g><polygon class="cls-4" points="275.26 216.1 255.08 227.83 216.72 205.68 236.89 193.95 275.26 216.1"/><g class="cls-204"><polygon class="cls-37" points="274.74 215.78 255.29 227.1 217.43 205.24 236.88 193.92 274.74 215.78"/></g><polygon class="cls-32" points="275.46 215 255.29 226.74 216.92 204.58 237.09 192.85 275.46 215"/><g class="cls-204"><polygon class="cls-37" points="274.94 214.68 255.49 226 217.64 204.15 237.09 192.83 274.94 214.68"/></g><polygon class="cls-139" points="275.66 213.9 255.49 225.64 217.13 203.48 237.29 191.75 275.66 213.9"/><g class="cls-204"><polygon class="cls-37" points="275.15 213.58 255.69 224.9 217.84 203.05 237.29 191.73 275.15 213.58"/></g><polygon class="cls-120" points="275.87 212.8 255.69 224.54 217.33 202.38 237.5 190.65 275.87 212.8"/><g class="cls-204"><polygon class="cls-37" points="275.35 212.48 255.9 223.81 218.04 201.95 237.49 190.63 275.35 212.48"/></g><polygon class="cls-104" points="276.07 211.7 255.9 223.44 217.53 201.28 237.7 189.55 276.07 211.7"/><g class="cls-204"><polygon class="cls-37" points="275.56 211.38 256.1 222.71 218.25 200.85 237.7 189.53 275.56 211.38"/></g><polygon class="cls-53" points="276.27 210.61 256.1 222.34 217.74 200.19 237.9 188.45 276.27 210.61"/><g class="cls-204"><polygon class="cls-37" points="275.76 210.28 256.3 221.61 218.45 199.75 237.9 188.43 275.76 210.28"/></g><polygon class="cls-67" points="276.48 209.51 256.3 221.24 217.94 199.09 238.11 187.35 276.48 209.51"/><g class="cls-204"><polygon class="cls-37" points="275.96 209.18 256.51 220.51 218.66 198.65 238.1 187.33 275.96 209.18"/></g><polygon class="cls-191" points="276.68 208.41 256.51 220.14 218.15 197.99 238.31 186.25 276.68 208.41"/><g class="cls-204"><polygon class="cls-37" points="276.17 208.09 256.71 219.41 218.86 197.55 238.31 186.23 276.17 208.09"/></g><polygon class="cls-18" points="276.88 207.31 256.71 219.04 218.35 196.89 238.51 185.16 276.88 207.31"/><g class="cls-204"><polygon class="cls-37" points="276.36 206.99 256.91 218.32 219.06 196.46 238.51 185.14 276.36 206.99"/></g><polygon class="cls-161" points="277.08 206.22 256.91 217.95 218.55 195.8 238.71 184.06 277.08 206.22"/><g class="cls-204"><polygon class="cls-37" points="276.57 205.89 257.11 217.22 219.26 195.36 238.71 184.04 276.57 205.89"/></g><polygon class="cls-182" points="277.28 205.12 257.11 216.85 218.75 194.7 238.92 182.96 277.28 205.12"/><g class="cls-204"><polygon class="cls-37" points="276.77 204.79 257.31 216.12 219.46 194.26 238.91 182.94 276.77 204.79"/></g><polygon class="cls-66" points="277.49 204.02 257.32 215.75 218.95 193.6 239.12 181.86 277.49 204.02"/><g class="cls-204"><polygon class="cls-37" points="276.97 203.7 257.52 215.02 219.67 193.16 239.12 181.84 276.97 203.7"/></g><polygon class="cls-162" points="277.69 202.92 257.52 214.65 219.16 192.5 239.32 180.77 277.69 202.92"/><g class="cls-204"><polygon class="cls-37" points="277.18 202.6 257.72 213.92 219.87 192.06 239.32 180.75 277.18 202.6"/></g><polygon class="cls-103" points="277.9 201.82 257.72 213.56 219.36 191.4 239.53 179.67 277.9 201.82"/><g class="cls-204"><polygon class="cls-37" points="277.38 201.5 257.93 212.82 220.07 190.97 239.52 179.65 277.38 201.5"/></g><polygon class="cls-142" points="278.1 200.72 257.93 212.46 219.56 190.3 239.73 178.57 278.1 200.72"/><g class="cls-204"><polygon class="cls-37" points="277.58 200.4 258.13 211.73 220.28 189.87 239.73 178.55 277.58 200.4"/></g><polygon class="cls-175" points="278.3 199.62 258.13 211.36 219.77 189.2 239.93 177.47 278.3 199.62"/><g class="cls-204"><polygon class="cls-37" points="277.79 199.3 258.33 210.63 220.48 188.77 239.93 177.45 277.79 199.3"/></g><polygon class="cls-11" points="278.51 198.52 258.33 210.26 219.97 188.11 240.14 176.37 278.51 198.52"/><g class="cls-204"><polygon class="cls-37" points="277.99 198.2 258.54 209.53 220.68 187.67 240.13 176.35 277.99 198.2"/></g><polygon class="cls-188" points="278.71 197.43 258.54 209.16 220.17 187.01 240.34 175.27 278.71 197.43"/><g class="cls-204"><polygon class="cls-37" points="278.19 197.1 258.74 208.43 220.89 186.57 240.34 175.25 278.19 197.1"/></g><polygon class="cls-181" points="278.91 196.33 258.74 208.06 220.38 185.91 240.54 174.17 278.91 196.33"/><g class="cls-204"><polygon class="cls-37" points="278.4 196 258.94 207.33 221.09 185.47 240.54 174.15 278.4 196"/></g><polygon class="cls-130" points="279.12 195.23 258.94 206.96 220.58 184.81 240.75 173.07 279.12 195.23"/><g class="cls-204"><polygon class="cls-37" points="278.6 194.91 259.15 206.23 221.29 184.37 240.74 173.05 278.6 194.91"/></g><polygon class="cls-55" points="279.32 194.13 259.15 205.86 220.78 183.71 240.95 171.98 279.32 194.13"/><g class="cls-204"><polygon class="cls-37" points="279.32 194.13 271.24 198.82 232.88 176.67 240.95 171.98 279.32 194.13"/></g><polygon class="cls-135" points="279.32 194.13 271.27 198.16 232.91 176.01 240.95 171.98 279.32 194.13"/><path class="cls-30" d="m279.95,197.93l-.55-.29-4.88,2.81c-2.25,1.3-3.82,3.51-4.32,6.05l-5.96,30.59,9.38-5.57,5.18-30.37,1.15-3.22Z"/><path class="cls-37" d="m279.95,197.93l-4.88,2.81c-2.25,1.3-3.82,3.51-4.32,6.05l-5.96,30.59,9.38-5.57,5.78-33.88Z"/><path class="cls-169" d="m287.01,222.63l-3.06,17.2-.07.04-27.94,16.15c-.47.27-1,.42-1.52.43-.6.03-1.2-.12-1.74-.43l-.9-.53c-.43-.25-.61-.73-.55-1.16h0v-.1s.01-.01.01-.01l3.15-17.07c-.05.42.15.85.56,1.09l.89.53c1.01.58,2.25.58,3.26,0l11.41-6.6h0l11.16-6.44,5.34-3.08Z"/><path class="cls-122" d="m287.04,222.61l-27.94,16.15c-1.01.58-2.25.58-3.26,0l-.89-.53c-.41-.23-.61-.67-.56-1.09v-.05s0,0,0,0c.04-.33.22-.65.55-.84l27.86-16.1,4.23,2.46Z"/><polygon class="cls-33" points="295.51 173.42 249.39 146.65 242.08 144.35 288.19 171.11 295.51 173.42"/><path class="cls-95" d="m249.17,185.02c0-1.51,1.05-3.34,2.36-4.09.64-.37,1.23-.41,1.66-.18l2.07,1.21-3.4,5.75-2.01-1.16c-.42-.25-.68-.77-.69-1.52Z"/><path class="cls-192" d="m253.56,182.1c1.31-.75,2.37-.15,2.38,1.35,0,1.5-1.05,3.33-2.36,4.09s-2.37.15-2.38-1.35c0-1.5,1.05-3.33,2.36-4.09h0Z"/><path class="cls-51" d="m264.29,170.81l-.43,2.5-3.24,1.01-1.3.4-3.98,7.27-.47-.27c-.43-.3-1.06-.28-1.75.11-.13.08-.28.17-.4.28l5.07-9.27,3.28-1.02,3.23-1.01Z"/><polygon class="cls-48" points="263.1 170.1 264.29 170.81 257.77 172.84 252.7 182.11 251.47 181.39 256.54 172.12 263.1 170.1"/><path class="cls-63" d="m458.23,503.69c5.1-.1,10.25-.9,14.92-2.97,4.67-2.07,8.83-5.48,11.23-9.99,1.37-2.57,2.19-5.51,4.16-7.66,4.27-4.68,12.15-3.95,16.97-8.06,2.87-2.44,4.22-6.35,4.14-10.11-.08-3.76-1.47-7.4-3.33-10.67-4.93-8.64-13.73-15.26-23.6-16.5-9.87-1.24-20.52,3.45-25.39,12.13-3.31,5.91-4.16,13.51-9.44,17.76-2.84,2.29-6.55,3.19-10.17,3.66-3.62.46-7.31.56-10.84,1.51-4.22,1.14-8.57,3.87-9.47,8.45-.6,3.03-.59,6.33,1.57,8.76,2.16,2.44,5.45,3.82,8.24,5.37,4.46,2.47,8.98,4.6,13.89,6.03,4.95,1.43,10.09,2.21,15.24,2.29.63,0,1.25,0,1.88,0Z"/><path class="cls-196" d="m502.02,456.31s2.44,12.05,1.22,14.08c-1.22,2.03-12.59,3.65-14.35,1.49-1.76-2.17-13.31-16.42-14.1-18.84-.79-2.41.73-9.13,6.74-10.51,6.01-1.38,20.49,13.78,20.49,13.78Z"/><path class="cls-27" d="m469.03,473.54s3.68,11.64,2.07,14.89c-1.61,3.25-2.96,5.31-7.16,4.99-4.2-.32-14.15.53-16.78,0-2.64-.53-15.02,2.32-18.68-1.75-3.65-4.06-3.68-10.35,1.11-12.18,4.78-1.83,24.27-5.95,24.27-5.95h15.17Z"/><path class="cls-22" d="m512.89,305.36c-.05,3.12-.22,6.72-.53,10.88-1.27,17.48-6.77,61.5-6.77,61.5,0,0,1.63,20.65,1.63,32.73s-4.63,46.82-4.63,46.82c0,0-6.94,5.16-12.87,2.33-1.37-.65-2.5-1.46-3.46-2.3-3.19-2.83-4.25-6.19-4.25-6.19l-1.03-78.2-1.92-22.99-2.11-22.76-.89-9.58-1.61-17.48-.43-4.56,36.18-4.75,2.16-.29s.12.79.26,2.4c.17,2.35.38,6.48.26,12.46Z"/><path class="cls-38" d="m489.12,376.56l-2.86,80.74c-3.19-2.83-4.25-6.19-4.25-6.19l-1.03-78.2-1.92-22.99-2.11-22.76,6-4.42,6.17,53.82Z"/><path class="cls-165" d="m494.28,299.07s-2.14,6.84-5.14,16.71c-2.95,9.68-6.72,22.28-10.08,34.14-4.83,16.97-10.88,34.64-10.49,37.96,1.56,13.23,3.59,31.78,3.26,53.05-.19,12.22-.47,37.11-.47,37.11-7.35,3.22-10.91,2.95-15.42,1.73-4.37-1.15-6.99-3.03-6.99-3.03,0,0-7.95-87.18-7.88-91.81.07-4.63.55-83.11.55-83.11l32.82-1.73,19.83-1.03Z"/><path class="cls-38" d="m512.89,305.36c-2.42,2.38-6.48,4.95-13.13,7.44-3.41,1.27-6.99,2.26-10.61,2.98-4.37.91-8.81,1.46-13.09,1.8-15.01,1.13-27.8-.67-27.8-.67,0,0,1.32,59.87,0,74.06-1.15,12.36,5.86,73.35,7.68,88.81-4.37-1.15-6.99-3.03-6.99-3.03,0,0-7.95-87.18-7.88-91.81.07-4.63.55-83.11.55-83.11l32.82-1.73-.43-4.56,36.18-4.75,2.43,2.11c.17,2.35.38,6.48.26,12.46Z"/><path class="cls-152" d="m522.13,258.43c-.55,1.82-2.59,4.99-5.14,8.48-5.45,7.44-13.11,16.3-13.11,16.3l-2.57-42.62,16.35-53.4,3.15-10.23s8.79,7.35,9.05,20.74c.26,13.4-5.95,55.01-7.73,60.72Z"/><path class="cls-38" d="m519.59,235.62c-1.66,6.6-2.35,18.73-2.59,31.28-5.45,7.44-13.11,16.3-13.11,16.3l-2.57-42.62,16.35-53.4c.29.24.58.5.86.77,7.2,6.89,5.43,30.18,1.06,47.66Z"/><path class="cls-80" d="m363.7,223.12c-5.01-1.98-13.1-5.63-9.77-7.41,2.59-1.39,12.62,2.35,16.59,4.62.64.37,2.18,1.32,2.98,1.81.31.19.5.31.5.31,0,0-.72-3.63-.7-4.44.02-.85,1.05-4.09,4.1-1.27,3.06,2.82,7.15,12.17,7.15,12.17l4.89,4.28-4.09,8.66s-7.56-1.96-11.37-2.65c-5.12-.93-11.5-2.85-12.4-4.56-1.5-2.84-.33-8.16,2.11-11.52Z"/><path class="cls-101" d="m445.75,252.58c-.02.08-4.89,52.7-4.98,53.7v.02s3.52,2.49,9.48,4.77c6.53,2.49,15.96,4.72,26.86,3.13,20.85-3.11,38.34-18.78,38.34-18.78,0,0-2.33-54.45,2.07-71.96,4.37-17.48,11.58-38.67,4.37-45.56-7.2-6.92-22.36-6.92-30.1-4.09-7.7,2.83-37.81,11.09-42.61,19.47-5.57,9.73-2.68,51.69-3.42,59.31Z"/><path class="cls-80" d="m462.2,129.96s-3.09,20.18-1.29,25.97c1.8,5.79,11.62,10.49,25.23,4.54,13.61-5.95,15.54-30.78,8.85-34.64-6.69-3.86-30.1-5.63-32.8,4.13Z"/><path class="cls-80" d="m470.23,159.09l.26,18.95s19.15,1.09,25.41-5.43l-1.62-21.78-24.05,8.26Z"/><path class="cls-137" d="m468.72,142.08s-9.72-2.06-9.32-15.78c.4-13.72,17.04-17.15,30.24-14.06,13.21,3.09,13.89,14.39,13.89,14.39,0,0,3.77,1.73,4.29,8.24.51,6.52-9.09,25.14-13.72,28.35-4.63,3.21-13.68,2.98-14.56-.59-.88-3.57,2.73-15.75-1.39-16.09-4.12-.34-7.2,5.14-7.2,5.14l-3.26-2.08,1.03-7.52Z"/><path class="cls-36" d="m500.45,173.51l-4.38-4.81s-14.42,6.3-26.5,8.12l-1.71,5.77s21.9,3.42,32.59-9.08Z"/><path class="cls-28" d="m386.98,230.4s-7.91,1.34-6.84,11.66c0,0,41.55,18.76,51.6,18.76s28.58-30.86,33.21-46.54c4.62-15.68-5.33-23.52-12.57-23.32-7.24.2-28.95,49.89-28.95,49.89l-36.46-10.45Z"/></svg>