<?xml version="1.0" encoding="UTF-8"?>
<svg id="Layer_1" data-name="Layer 1" xmlns="http://www.w3.org/2000/svg" viewBox="0 0 2018.57 1411.93">
  <defs>
    <style>
      .cls-1, .cls-2, .cls-3, .cls-4 {
        fill: none;
        opacity: .25;
        stroke: #bf2026;
        stroke-miterlimit: 10;
      }

      .cls-2 {
        stroke-width: 10px;
      }

      .cls-3 {
        stroke-width: 20px;
      }

      .cls-4 {
        stroke-width: 5px;
      }
    </style>
  </defs>
  <path class="cls-4" d="M2010.64,182.3c-67.64,88.25-119.34,160.58-154.18,210.53-39.82,57.08-75.98,111.22-143.62,166.46-46.41,37.9-71.61,57.91-109.34,60.38-73.54,4.82-138.1-60.71-184.42-107.71-43.05-43.69-48.64-64.9-97.92-102.82-37.8-29.09-62.47-48.07-97.92-52.22-61.62-7.22-114.07,35.27-163.2,75.07-60.14,48.72-61.91,73.37-122.4,110.98-37.5,23.31-61.84,38.45-94.66,39.17-72.13,1.58-127.46-67.79-169.73-120.77-64.41-80.74-55.7-112.98-124.03-194.21-49.42-58.74-75.35-89.56-117.5-97.92-80.84-16.02-158.13,63.09-243.17,150.14-50.22,51.4-117.58,130.3-179.84,241.54"/>
  <path class="cls-1" d="M2010.64,134.18c-67.64,88.25-119.34,160.58-154.18,210.53-39.82,57.08-75.98,111.22-143.62,166.46-46.41,37.9-71.61,57.91-109.34,60.38-73.54,4.82-138.1-60.71-184.42-107.71-43.05-43.69-48.64-64.9-97.92-102.82-37.8-29.09-62.47-48.07-97.92-52.22-61.62-7.22-114.07,35.27-163.2,75.07-60.14,48.72-61.91,73.37-122.4,110.98-37.5,23.31-61.84,38.45-94.66,39.17-72.13,1.58-127.46-67.79-169.73-120.77-64.41-80.74-55.7-112.98-124.03-194.21-49.42-58.74-75.35-89.56-117.5-97.92-80.84-16.02-158.13,63.09-243.17,150.14-50.22,51.4-117.58,130.3-179.84,241.54"/>
  <path class="cls-1" d="M2010.64,76.71c-67.64,88.25-119.34,160.58-154.18,210.53-39.82,57.08-75.98,111.22-143.62,166.46-46.41,37.9-71.61,57.91-109.34,60.38-73.54,4.82-138.1-60.71-184.42-107.71-43.05-43.69-48.64-64.9-97.92-102.82-37.8-29.09-62.47-48.07-97.92-52.22-61.62-7.22-114.07,35.27-163.2,75.07-60.14,48.72-61.91,73.37-122.4,110.98-37.5,23.31-61.84,38.45-94.66,39.17-72.13,1.58-127.46-67.79-169.73-120.77-64.41-80.74-55.7-112.98-124.03-194.21-49.42-58.74-75.35-89.56-117.5-97.92-80.84-16.02-158.13,63.09-243.17,150.14-50.22,51.4-117.58,130.3-179.84,241.54"/>
  <path class="cls-2" d="M2010.64,236.92c-67.64,88.25-119.34,160.58-154.18,210.53-39.82,57.08-75.98,111.22-143.62,166.46-46.41,37.9-71.61,57.91-109.34,60.38-73.54,4.82-138.1-60.71-184.42-107.71-43.05-43.69-48.64-64.9-97.92-102.82-37.8-29.09-62.47-48.07-97.92-52.22-61.62-7.22-114.07,35.27-163.2,75.07-60.14,48.72-61.91,73.37-122.4,110.98-37.5,23.31-61.84,38.45-94.66,39.17-72.13,1.58-127.46-67.79-169.73-120.77-64.41-80.74-55.7-112.98-124.03-194.21-49.42-58.74-75.35-89.56-117.5-97.92-80.84-16.02-158.13,63.09-243.17,150.14-50.22,51.4-117.58,130.3-179.84,241.54"/>
  <path class="cls-3" d="M2010.64,25.14c-67.64,88.25-119.34,160.58-154.18,210.53-39.82,57.08-75.98,111.22-143.62,166.46-46.41,37.9-71.61,57.91-109.34,60.38-73.54,4.82-138.1-60.71-184.42-107.71-43.05-43.69-48.64-64.9-97.92-102.82-37.8-29.09-62.47-48.07-97.92-52.22-61.62-7.22-114.07,35.27-163.2,75.07-60.14,48.72-61.91,73.37-122.4,110.98-37.5,23.31-61.84,38.45-94.66,39.17-72.13,1.58-127.46-67.79-169.73-120.77-64.41-80.74-55.7-112.98-124.03-194.21-49.42-58.74-75.35-89.56-117.5-97.92-80.84-16.02-158.13,63.09-243.17,150.14-50.2,51.41-117.56,130.31-179.82,241.54"/>
  <path class="cls-4" d="M2010.64,987.28c-10.59,6.31-26.47,15.92-45.47,28.04-97.25,62.04-146.65,107.15-197.5,146.3-66.11,50.89-162.12,124.79-297.47,159.71-50.96,13.15-102.03,26.32-168.24,17.07-79.31-11.09-134.82-50.21-242.61-128.01-130.96-94.52-135.14-122.35-218.23-159.71-94.79-42.62-177.18-45.89-199.94-46.33-80.53-1.56-151.75,17.98-276.74,76.81-100.26,47.19-193.88,120.29-346.33,231.64"/>
  <path class="cls-3" d="M2010.64,1047.71c-10.59,6.31-26.47,15.92-45.47,28.04-97.25,62.04-146.65,107.15-197.5,146.3-66.11,50.89-162.12,124.79-297.47,159.71-50.96,13.15-102.03,26.32-168.24,17.07-79.31-11.09-134.82-50.21-242.61-128.01-130.96-94.52-135.14-122.35-218.23-159.71-94.79-42.62-177.18-45.89-199.94-46.33-80.53-1.56-151.75,17.98-276.74,76.81-100.26,47.19-193.88,120.29-346.33,231.64"/>
  <path class="cls-2" d="M2010.64,923.8c-10.59,6.31-26.47,15.92-45.47,28.04-97.25,62.04-146.65,107.15-197.5,146.3-66.11,50.89-162.12,124.79-297.47,159.71-50.96,13.15-102.03,26.32-168.24,17.07-79.31-11.09-134.82-50.21-242.61-128.01-130.96-94.52-135.14-122.35-218.23-159.71-94.79-42.62-177.18-45.89-199.94-46.33-80.53-1.56-151.75,17.98-276.74,76.81-100.26,47.19-193.88,120.29-346.33,231.64"/>
  <path class="cls-1" d="M2010.64,876.92c-10.59,6.31-26.47,15.92-45.47,28.04-97.25,62.04-146.65,107.15-197.5,146.3-66.11,50.89-162.12,124.79-297.47,159.71-50.96,13.15-102.03,26.32-168.24,17.07-79.31-11.09-134.82-50.21-242.61-128.01-130.96-94.52-135.14-122.35-218.23-159.71-94.79-42.62-177.18-45.89-199.94-46.33-80.53-1.56-151.75,17.98-276.74,76.81-100.26,47.19-193.88,120.29-346.33,231.64"/>
  <path class="cls-1" d="M2010.64,829.44c-10.59,6.31-26.47,15.92-45.47,28.04-97.25,62.04-146.65,107.15-197.5,146.3-66.11,50.89-162.12,124.79-297.47,159.71-50.96,13.15-102.03,26.32-168.24,17.07-79.31-11.09-134.82-50.21-242.61-128.01-130.96-94.52-135.14-122.35-218.23-159.71-94.79-42.62-177.18-45.89-199.94-46.33-80.53-1.56-151.75,17.98-276.74,76.81-100.26,47.19-193.88,120.29-346.33,231.64"/>
</svg>