<?xml version="1.0" encoding="UTF-8"?>
<svg id="Layer_3" data-name="Layer 3" xmlns="http://www.w3.org/2000/svg" xmlns:xlink="http://www.w3.org/1999/xlink" viewBox="0 0 1920 1080">
  <defs>
    <style>
      .cls-1 {
        fill: #757575;
      }

      .cls-2 {
        filter: url(#drop-shadow-14);
      }

      .cls-2, .cls-3, .cls-4, .cls-5, .cls-6, .cls-7, .cls-8, .cls-9, .cls-10, .cls-11, .cls-12, .cls-13, .cls-14, .cls-15, .cls-16, .cls-17, .cls-18, .cls-19, .cls-20, .cls-21, .cls-22, .cls-23, .cls-24, .cls-25 {
        stroke-miterlimit: 10;
      }

      .cls-2, .cls-22 {
        fill: none;
        stroke: #bf2026;
        stroke-width: 3px;
      }

      .cls-26, .cls-25 {
        fill: #bf2026;
      }

      .cls-3 {
        filter: url(#drop-shadow-28);
      }

      .cls-3, .cls-4, .cls-5, .cls-6, .cls-7, .cls-8, .cls-9, .cls-10, .cls-11, .cls-12, .cls-13, .cls-14, .cls-15, .cls-16, .cls-17, .cls-18, .cls-19, .cls-20, .cls-21, .cls-23, .cls-24, .cls-25 {
        stroke-width: 2px;
      }

      .cls-3, .cls-4, .cls-5, .cls-6, .cls-7, .cls-8, .cls-9, .cls-10, .cls-11, .cls-12, .cls-13, .cls-14, .cls-16, .cls-17, .cls-18, .cls-19, .cls-20, .cls-21, .cls-23, .cls-24, .cls-25 {
        stroke: #4d4d4d;
      }

      .cls-3, .cls-7, .cls-9, .cls-10, .cls-14, .cls-18, .cls-24 {
        fill: #e5e5e5;
      }

      .cls-4 {
        filter: url(#drop-shadow-17);
      }

      .cls-4, .cls-5, .cls-6, .cls-8, .cls-11, .cls-12, .cls-13, .cls-16, .cls-17, .cls-19, .cls-20, .cls-21, .cls-23 {
        fill: #b7b7b7;
      }

      .cls-6 {
        filter: url(#drop-shadow-19);
      }

      .cls-27 {
        fill: #4d4d4d;
      }

      .cls-7 {
        filter: url(#drop-shadow-31);
      }

      .cls-8 {
        filter: url(#drop-shadow-24);
      }

      .cls-9 {
        filter: url(#drop-shadow-23);
      }

      .cls-10 {
        filter: url(#drop-shadow-27);
      }

      .cls-11 {
        filter: url(#drop-shadow-20);
      }

      .cls-12 {
        filter: url(#drop-shadow-29);
      }

      .cls-13 {
        filter: url(#drop-shadow-16);
      }

      .cls-14 {
        filter: url(#drop-shadow-26);
      }

      .cls-15 {
        fill: #f4f4f4;
        stroke: #333;
      }

      .cls-16 {
        filter: url(#drop-shadow-18);
      }

      .cls-17 {
        filter: url(#drop-shadow-21);
      }

      .cls-18 {
        filter: url(#drop-shadow-30);
      }

      .cls-19 {
        filter: url(#drop-shadow-22);
      }

      .cls-20 {
        filter: url(#drop-shadow-32);
      }

      .cls-21 {
        filter: url(#drop-shadow-34);
      }

      .cls-23 {
        filter: url(#drop-shadow-33);
      }

      .cls-24 {
        filter: url(#drop-shadow-25);
      }

      .cls-28 {
        filter: url(#drop-shadow-15);
      }
    </style>
    <filter id="drop-shadow-14" x="941" y="841" width="323" height="216" filterUnits="userSpaceOnUse">
      <feOffset dx="-5" dy="8"/>
      <feGaussianBlur result="blur" stdDeviation="6"/>
      <feFlood flood-color="#000" flood-opacity=".75"/>
      <feComposite in2="blur" operator="in"/>
      <feComposite in="SourceGraphic"/>
    </filter>
    <filter id="drop-shadow-15" x="1175" y="49" width="241" height="863" filterUnits="userSpaceOnUse">
      <feOffset dx="-5" dy="8"/>
      <feGaussianBlur result="blur-2" stdDeviation="6"/>
      <feFlood flood-color="#000" flood-opacity=".75"/>
      <feComposite in2="blur-2" operator="in"/>
      <feComposite in="SourceGraphic"/>
    </filter>
    <filter id="drop-shadow-16" x="204" y="504" width="100" height="99" filterUnits="userSpaceOnUse">
      <feOffset dx="-5" dy="8"/>
      <feGaussianBlur result="blur-3" stdDeviation="6"/>
      <feFlood flood-color="#000" flood-opacity=".75"/>
      <feComposite in2="blur-3" operator="in"/>
      <feComposite in="SourceGraphic"/>
    </filter>
    <filter id="drop-shadow-17" x="276" y="546" width="174" height="165" filterUnits="userSpaceOnUse">
      <feOffset dx="-5" dy="8"/>
      <feGaussianBlur result="blur-4" stdDeviation="6"/>
      <feFlood flood-color="#000" flood-opacity=".75"/>
      <feComposite in2="blur-4" operator="in"/>
      <feComposite in="SourceGraphic"/>
    </filter>
    <filter id="drop-shadow-18" x="265" y="308" width="126" height="143" filterUnits="userSpaceOnUse">
      <feOffset dx="-5" dy="8"/>
      <feGaussianBlur result="blur-5" stdDeviation="6"/>
      <feFlood flood-color="#000" flood-opacity=".75"/>
      <feComposite in2="blur-5" operator="in"/>
      <feComposite in="SourceGraphic"/>
    </filter>
    <filter id="drop-shadow-19" x="330" y="382" width="68" height="68" filterUnits="userSpaceOnUse">
      <feOffset dx="-5" dy="8"/>
      <feGaussianBlur result="blur-6" stdDeviation="6"/>
      <feFlood flood-color="#000" flood-opacity=".75"/>
      <feComposite in2="blur-6" operator="in"/>
      <feComposite in="SourceGraphic"/>
    </filter>
    <filter id="drop-shadow-20" x="320" y="419" width="58" height="58" filterUnits="userSpaceOnUse">
      <feOffset dx="-5" dy="8"/>
      <feGaussianBlur result="blur-7" stdDeviation="6"/>
      <feFlood flood-color="#000" flood-opacity=".75"/>
      <feComposite in2="blur-7" operator="in"/>
      <feComposite in="SourceGraphic"/>
    </filter>
    <filter id="drop-shadow-21" x="357" y="802" width="130" height="102" filterUnits="userSpaceOnUse">
      <feOffset dx="-5" dy="8"/>
      <feGaussianBlur result="blur-8" stdDeviation="6"/>
      <feFlood flood-color="#000" flood-opacity=".75"/>
      <feComposite in2="blur-8" operator="in"/>
      <feComposite in="SourceGraphic"/>
    </filter>
    <filter id="drop-shadow-22" x="273" y="749" width="110" height="124" filterUnits="userSpaceOnUse">
      <feOffset dx="-5" dy="8"/>
      <feGaussianBlur result="blur-9" stdDeviation="6"/>
      <feFlood flood-color="#000" flood-opacity=".75"/>
      <feComposite in2="blur-9" operator="in"/>
      <feComposite in="SourceGraphic"/>
    </filter>
    <filter id="drop-shadow-23" x="349" y="48" width="844" height="923" filterUnits="userSpaceOnUse">
      <feOffset dx="-5" dy="8"/>
      <feGaussianBlur result="blur-10" stdDeviation="6"/>
      <feFlood flood-color="#000" flood-opacity=".75"/>
      <feComposite in2="blur-10" operator="in"/>
      <feComposite in="SourceGraphic"/>
    </filter>
    <filter id="drop-shadow-24" x="825" y="68" width="246" height="212" filterUnits="userSpaceOnUse">
      <feOffset dx="-5" dy="8"/>
      <feGaussianBlur result="blur-11" stdDeviation="6"/>
      <feFlood flood-color="#000" flood-opacity=".75"/>
      <feComposite in2="blur-11" operator="in"/>
      <feComposite in="SourceGraphic"/>
    </filter>
    <filter id="drop-shadow-25" x="1326" y="349" width="83" height="90" filterUnits="userSpaceOnUse">
      <feOffset dx="-5" dy="8"/>
      <feGaussianBlur result="blur-12" stdDeviation="6"/>
      <feFlood flood-color="#000" flood-opacity=".75"/>
      <feComposite in2="blur-12" operator="in"/>
      <feComposite in="SourceGraphic"/>
    </filter>
    <filter id="drop-shadow-26" x="1321" y="424" width="72" height="71" filterUnits="userSpaceOnUse">
      <feOffset dx="-5" dy="8"/>
      <feGaussianBlur result="blur-13" stdDeviation="6"/>
      <feFlood flood-color="#000" flood-opacity=".75"/>
      <feComposite in2="blur-13" operator="in"/>
      <feComposite in="SourceGraphic"/>
    </filter>
    <filter id="drop-shadow-27" x="1289" y="548" width="81" height="90" filterUnits="userSpaceOnUse">
      <feOffset dx="-5" dy="8"/>
      <feGaussianBlur result="blur-14" stdDeviation="6"/>
      <feFlood flood-color="#000" flood-opacity=".75"/>
      <feComposite in2="blur-14" operator="in"/>
      <feComposite in="SourceGraphic"/>
    </filter>
    <filter id="drop-shadow-28" x="1271" y="641" width="77" height="82" filterUnits="userSpaceOnUse">
      <feOffset dx="-5" dy="8"/>
      <feGaussianBlur result="blur-15" stdDeviation="6"/>
      <feFlood flood-color="#000" flood-opacity=".75"/>
      <feComposite in2="blur-15" operator="in"/>
      <feComposite in="SourceGraphic"/>
    </filter>
    <filter id="drop-shadow-29" x="1209" y="280" width="72" height="72" filterUnits="userSpaceOnUse">
      <feOffset dx="-5" dy="8"/>
      <feGaussianBlur result="blur-16" stdDeviation="6"/>
      <feFlood flood-color="#000" flood-opacity=".75"/>
      <feComposite in2="blur-16" operator="in"/>
      <feComposite in="SourceGraphic"/>
    </filter>
    <filter id="drop-shadow-30" x="1122" y="346" width="64" height="64" filterUnits="userSpaceOnUse">
      <feOffset dx="-5" dy="8"/>
      <feGaussianBlur result="blur-17" stdDeviation="6"/>
      <feFlood flood-color="#000" flood-opacity=".75"/>
      <feComposite in2="blur-17" operator="in"/>
      <feComposite in="SourceGraphic"/>
    </filter>
    <filter id="drop-shadow-31" x="1187" y="505" width="59" height="59" filterUnits="userSpaceOnUse">
      <feOffset dx="-5" dy="8"/>
      <feGaussianBlur result="blur-18" stdDeviation="6"/>
      <feFlood flood-color="#000" flood-opacity=".75"/>
      <feComposite in2="blur-18" operator="in"/>
      <feComposite in="SourceGraphic"/>
    </filter>
    <filter id="drop-shadow-32" x="1144" y="571" width="75" height="75" filterUnits="userSpaceOnUse">
      <feOffset dx="-5" dy="8"/>
      <feGaussianBlur result="blur-19" stdDeviation="6"/>
      <feFlood flood-color="#000" flood-opacity=".75"/>
      <feComposite in2="blur-19" operator="in"/>
      <feComposite in="SourceGraphic"/>
    </filter>
    <filter id="drop-shadow-33" x="1142" y="383" width="77" height="77" filterUnits="userSpaceOnUse">
      <feOffset dx="-5" dy="8"/>
      <feGaussianBlur result="blur-20" stdDeviation="6"/>
      <feFlood flood-color="#000" flood-opacity=".75"/>
      <feComposite in2="blur-20" operator="in"/>
      <feComposite in="SourceGraphic"/>
    </filter>
    <filter id="drop-shadow-34" x="1107" y="158" width="105" height="105" filterUnits="userSpaceOnUse">
      <feOffset dx="-5" dy="8"/>
      <feGaussianBlur result="blur-21" stdDeviation="6"/>
      <feFlood flood-color="#000" flood-opacity=".75"/>
      <feComposite in2="blur-21" operator="in"/>
      <feComposite in="SourceGraphic"/>
    </filter>
  </defs>
  <path class="cls-2" d="M1217.29,882.17c5.4,2.99,28.2,16.38,31.7,39.91,4.63,31.13-28.27,54.71-38.74,62.22-5.33,3.82-25.65,17.64-61.27,20.88-52.02,4.73-119.18-14.68-121.86-42.01-1.95-19.88,30.06-45.7,63.39-46.96,31.19-1.18,64.66,19.11,65.74,39.91,1.84,35.61-90.07,95.51-146.74,63.39-35.28-20-53.32-73.62-37.57-95.09,13.28-18.09,45.22-6.07,64.57-29.35,11.02-13.25,12.01-30.8,11.08-43.7"/>
  <g class="cls-28">
    <path class="cls-5" d="M1271.55,697.17l-3.88,19.68-28.68-5.66,5.66-28.68,19.68,3.88,1.78-9,17.15,3.38,15.76-79.83-16.65-3.29,3.89-19.7-13.97-2.76,4.8-24.3,30.63,6.05,18.97-96.06-26.39-5.21,5.67-28.7,26.39,5.21,6.24-31.6-32.47-6.41,4.96-25.15,12.93,2.55,3.97-20.11,19.54,3.86,54.03-273.68c1.43-7.22-3.27-14.23-10.5-15.66l-25.34-5c-7.22-1.43-14.23,3.27-15.66,10.5l-150.21,760.85,16.64,51.19,34.85-41.03,28.37-143.72-8.15-1.61Z"/>
    <g>
      <path class="cls-1" d="M1388.88,136.79c-.29,0-.59-.03-.88-.09l-46.36-9.15c-1.19-.23-2.21-.92-2.88-1.92-.67-1-.92-2.21-.68-3.4l1.19-6.05c.42-2.12,2.28-3.65,4.44-3.65.29,0,.59.03.88.09l46.36,9.15c2.45.48,4.05,2.87,3.56,5.32l-1.19,6.05c-.42,2.12-2.28,3.65-4.44,3.65Z"/>
      <path class="cls-27" d="M1343.7,113.53h0c.23,0,.46.02.69.07l46.36,9.15c1.91.38,3.15,2.24,2.78,4.14l-1.19,6.05c-.33,1.65-1.78,2.84-3.45,2.84-.23,0-.46-.02-.69-.07l-46.36-9.15c-.92-.18-1.72-.71-2.25-1.5s-.71-1.72-.53-2.65l1.19-6.05c.33-1.65,1.78-2.84,3.45-2.85M1343.7,111.53c-2.59,0-4.9,1.82-5.42,4.46l-1.19,6.05c-.59,2.99,1.36,5.9,4.35,6.49l46.36,9.15c.36.07.72.11,1.08.11,2.59,0,4.9-1.82,5.42-4.46l1.19-6.05c.59-2.99-1.36-5.9-4.35-6.49l-46.36-9.15c-.36-.07-.72-.11-1.08-.11h0Z"/>
    </g>
    <g>
      <path class="cls-1" d="M1391.92,121.43c-.29,0-.59-.03-.88-.09l-46.36-9.15c-2.45-.48-4.05-2.87-3.56-5.32l1.19-6.05c.42-2.12,2.28-3.65,4.44-3.65.29,0,.59.03.88.09l46.36,9.15c1.19.23,2.21.92,2.88,1.92.67,1,.92,2.21.68,3.4l-1.19,6.05c-.42,2.12-2.28,3.65-4.44,3.65Z"/>
      <path class="cls-27" d="M1346.74,98.17h0c.23,0,.46.02.69.07l46.36,9.15c1.91.38,3.15,2.24,2.78,4.14l-1.19,6.05c-.33,1.65-1.78,2.85-3.45,2.85-.23,0-.46-.02-.69-.07l-46.36-9.15c-1.91-.38-3.15-2.24-2.78-4.14l1.19-6.05c.33-1.65,1.78-2.84,3.45-2.85M1346.73,96.17c-2.59,0-4.9,1.82-5.42,4.46l-1.19,6.05c-.59,2.99,1.36,5.9,4.35,6.49l46.36,9.15c.36.07.72.11,1.08.11,2.59,0,4.9-1.82,5.42-4.46l1.19-6.05c.59-2.99-1.36-5.9-4.35-6.49l-46.36-9.15c-.36-.07-.72-.11-1.08-.11h0Z"/>
    </g>
    <g>
      <path class="cls-1" d="M1385.85,152.14c-.29,0-.59-.03-.88-.09l-46.36-9.15c-1.19-.23-2.21-.92-2.88-1.92-.67-1-.92-2.21-.68-3.4l1.19-6.05c.42-2.12,2.28-3.65,4.44-3.65.29,0,.59.03.88.09l46.36,9.15c1.19.23,2.21.92,2.88,1.92.67,1,.92,2.21.68,3.4l-1.19,6.05c-.42,2.12-2.28,3.65-4.44,3.65Z"/>
      <path class="cls-27" d="M1340.67,128.89h0c.23,0,.46.02.69.07l46.36,9.15c.92.18,1.72.71,2.25,1.5s.71,1.72.53,2.65l-1.19,6.05c-.33,1.65-1.78,2.85-3.45,2.85-.23,0-.46-.02-.69-.07l-46.36-9.15c-.92-.18-1.72-.71-2.25-1.5s-.71-1.72-.53-2.65l1.19-6.05c.33-1.65,1.78-2.84,3.45-2.84M1340.67,126.89c-2.59,0-4.9,1.82-5.42,4.46l-1.19,6.05c-.59,2.99,1.36,5.9,4.35,6.49l46.36,9.15c.36.07.72.11,1.08.11,2.59,0,4.9-1.82,5.42-4.46l1.19-6.05c.59-2.99-1.36-5.9-4.35-6.49l-46.36-9.15c-.36-.07-.72-.11-1.08-.11h0Z"/>
    </g>
  </g>
  <polygon class="cls-15" points="1199.83 832.34 1251.32 842.51 1216.47 883.53 1199.83 832.34"/>
  <polygon class="cls-25" points="1216.47 883.53 1224.88 873.63 1212.46 871.18 1216.47 883.53"/>
  <rect class="cls-13" x="233.38" y="519.51" width="51.26" height="51.26" transform="translate(-97.26 57.97) rotate(-10.76)"/>
  <polygon class="cls-4" points="300.58 579.43 312.5 642.09 362.85 632.52 372.43 682.88 435.09 670.97 413.6 557.95 300.58 579.43"/>
  <polygon class="cls-16" points="376.47 366.85 367.41 319.18 289.76 333.94 297.68 375.59 297.68 375.59 306.74 423.25 341.49 416.65 333.57 375 376.47 366.85"/>
  <rect class="cls-6" x="357.04" y="395.93" width="24.26" height="24.26" transform="translate(-69.72 76.13) rotate(-10.76)"/>
  <rect class="cls-11" x="346.08" y="432.22" width="15.65" height="15.65" transform="translate(-75.96 73.84) rotate(-10.76)"/>
  <rect class="cls-17" x="385.8" y="820.5" width="82.53" height="48.13" transform="translate(-150.23 94.63) rotate(-10.76)"/>
  <polygon class="cls-19" points="368.07 794.54 361.71 761.1 328.26 767.45 332.98 792.25 297.8 798.94 306.57 845.07 352.7 836.3 345.58 798.81 368.07 794.54"/>
  <path class="cls-9" d="M1069.55,202.69l-211.46-143.9-456.24,86.74-28.94,42.52,19.37,101.89,77.65-14.76,9.06,47.67-45.23,8.6,9.06,47.67-32.42,6.16,31.79,167.22,105.18-20,21.49,113.02-55.11,10.48-9.28-48.8-50.36,9.57,9.57,50.36.3-.06,22.29,117.23,74.77-14.22,8.99,47.28-74.77,14.22,14.47,76.14,53.5,36.41,580.8-110.42,35.55-52.24-110.04-578.79ZM566,299.88l4.53,23.83-23.83,4.53-4.53-23.83,23.83-4.53ZM534.86,355.19l-2.92-15.38,15.38-2.92,2.92,15.38-15.38,2.92ZM559.8,514.04l-9.57-50.36,50.36-9.57,9.57,50.36-50.36,9.57ZM642.77,886.01l-46.13,8.77-8.77-46.13,35.17-6.69-4.71-24.8,33.44-6.36,6.36,33.44-22.49,4.28,7.13,37.48Z"/>
  <polygon class="cls-8" points="849.63 80.88 882.67 252.76 1054.54 219.72 849.63 80.88"/>
  <rect class="cls-26" x="1026.91" y="650.02" width="3.52" height="203.48" transform="translate(-122.31 205.36) rotate(-10.76)"/>
  <rect class="cls-26" x="926.28" y="672.08" width="3.52" height="203.48" transform="translate(341.17 1830.05) rotate(-100.76)"/>
  <rect class="cls-26" x="799.38" y="568.21" width="3.52" height="203.48" transform="translate(292.62 1582.12) rotate(-100.76)"/>
  <rect class="cls-26" x="1073" y="753.67" width="3.52" height="75.72" transform="translate(497.91 1995.21) rotate(-100.76)"/>
  <rect class="cls-26" x="905.64" y="572.94" width="3.52" height="203.48" transform="translate(1924.84 1168) rotate(169.24)"/>
  <rect class="cls-26" x="746.6" y="578.44" width="3.52" height="98.87" transform="translate(1600.81 1104.92) rotate(169.24)"/>
  <rect class="cls-26" x="690.2" y="537.05" width="3.52" height="98.87" transform="translate(1138.88 -202.84) rotate(79.24)"/>
  <circle class="cls-22" cx="886.59" cy="565.21" r="9.69"/>
  <rect class="cls-26" x="795.45" y="313.06" width="3.52" height="353.8" transform="translate(1671.9 822.4) rotate(169.24)"/>
  <circle class="cls-22" cx="762.21" cy="305.89" r="9.69"/>
  <circle class="cls-22" cx="691.68" cy="690.76" r="9.69"/>
  <rect class="cls-26" x="893.9" y="351.94" width="3.52" height="203.48" transform="translate(1174.07 -510.96) rotate(79.24)"/>
  <circle class="cls-22" cx="1005.13" cy="432.87" r="9.69"/>
  <circle class="cls-22" cx="633.88" cy="597.52" r="9.69"/>
  <rect class="cls-26" x="833.37" y="365.91" width="3.52" height="98.87" transform="translate(-62.88 163.29) rotate(-10.76)"/>
  <rect class="cls-26" x="870.65" y="306.71" width="3.52" height="98.87" transform="translate(1059.34 -567.43) rotate(79.24)"/>
  <circle class="cls-22" cx="930.49" cy="345.1" r="9.69"/>
  <rect class="cls-26" x="975.9" y="439.45" width="3.52" height="98.87" transform="translate(-74.11 191.2) rotate(-10.76)"/>
  <rect class="cls-26" x="1032.29" y="480.84" width="3.52" height="98.87" transform="translate(706.25 1645.17) rotate(-100.76)"/>
  <circle class="cls-22" cx="1092.13" cy="519.23" r="9.69"/>
  <circle class="cls-22" cx="1007.86" cy="642.3" r="9.69"/>
  <circle class="cls-22" cx="1121.47" cy="782.65" r="9.69"/>
  <rect class="cls-26" x="743.66" y="372.01" width="3.52" height="75.72" transform="translate(1008.85 -398.99) rotate(79.24)"/>
  <circle class="cls-22" cx="698.72" cy="418.75" r="9.69"/>
  <circle class="cls-22" cx="818.57" cy="794.63" r="9.69"/>
  <polygon class="cls-24" points="1373.73 382.92 1377.51 363.79 1357.98 359.93 1354.12 379.46 1354.12 379.46 1349.23 404.21 1390.1 412.27 1395.06 387.13 1373.73 382.92"/>
  <rect class="cls-14" x="1347.37" y="436.6" width="29.25" height="29.25" transform="translate(655.51 1700.04) rotate(-78.83)"/>
  <polygon class="cls-10" points="1317.7 558.93 1312.9 583.22 1333.31 587.25 1329.28 607.63 1348.25 611.37 1353.05 587.07 1352.69 587 1356.72 566.63 1317.7 558.93"/>
  <polygon class="cls-3" points="1316.27 654.69 1298.27 651.14 1294.72 669.14 1303.72 670.91 1299.83 690.59 1328.51 696.25 1334.17 667.57 1314.49 663.69 1316.27 654.69"/>
  <rect class="cls-12" x="1233.29" y="291.37" width="33.19" height="33.19"/>
  <rect class="cls-18" x="1145.09" y="356.15" width="27.08" height="27.08"/>
  <rect class="cls-7" x="1210.52" y="515.38" width="21.66" height="21.66"/>
  <rect class="cls-20" x="1168.76" y="582.77" width="35.52" height="35.52"/>
  <rect class="cls-23" x="1166.05" y="394.52" width="38.34" height="38.34"/>
  <polygon class="cls-21" points="1179.59 199.24 1179.59 169.89 1131.16 169.89 1131.16 218.32 1161.69 218.32 1161.69 235.04 1197.49 235.04 1197.49 199.24 1179.59 199.24"/>
</svg>