<?xml version="1.0" encoding="UTF-8"?>
<svg xmlns="http://www.w3.org/2000/svg" xmlns:xlink="http://www.w3.org/1999/xlink" viewBox="0 0 1920 1080">
  <defs>
    <style>
      .cls-1 {
        fill: #bf2026;
      }

      .cls-2 {
        filter: url(#drop-shadow-54);
      }

      .cls-2, .cls-3, .cls-4 {
        fill: #a01721;
      }

      .cls-5 {
        fill: #e5e5e5;
      }

      .cls-3 {
        filter: url(#drop-shadow-53);
      }

      .cls-6 {
        filter: url(#drop-shadow-51);
      }

      .cls-7 {
        fill: #7f7f7f;
      }

      .cls-8 {
        fill: none;
        stroke: #bf2026;
        stroke-miterlimit: 10;
        stroke-width: 3px;
      }

      .cls-9 {
        fill: #3d3d3d;
      }

      .cls-4 {
        filter: url(#drop-shadow-52);
      }

      .cls-10 {
        fill: #fff;
        opacity: .26;
      }
    </style>
    <filter id="drop-shadow-51" x="462" y="218" width="968" height="772" filterUnits="userSpaceOnUse">
      <feOffset dx="-5" dy="8"/>
      <feGaussianBlur result="blur" stdDeviation="6"/>
      <feFlood flood-color="#000" flood-opacity=".75"/>
      <feComposite in2="blur" operator="in"/>
      <feComposite in="SourceGraphic"/>
    </filter>
    <filter id="drop-shadow-52" x="555" y="292" width="325" height="330" filterUnits="userSpaceOnUse">
      <feOffset dx="-5" dy="8"/>
      <feGaussianBlur result="blur-2" stdDeviation="6"/>
      <feFlood flood-color="#000" flood-opacity=".75"/>
      <feComposite in2="blur-2" operator="in"/>
      <feComposite in="SourceGraphic"/>
    </filter>
    <filter id="drop-shadow-53" x="867" y="414" width="299" height="300" filterUnits="userSpaceOnUse">
      <feOffset dx="-5" dy="8"/>
      <feGaussianBlur result="blur-3" stdDeviation="6"/>
      <feFlood flood-color="#000" flood-opacity=".75"/>
      <feComposite in2="blur-3" operator="in"/>
      <feComposite in="SourceGraphic"/>
    </filter>
    <filter id="drop-shadow-54" x="1111" y="286" width="241" height="241" filterUnits="userSpaceOnUse">
      <feOffset dx="-5" dy="8"/>
      <feGaussianBlur result="blur-4" stdDeviation="6"/>
      <feFlood flood-color="#000" flood-opacity=".75"/>
      <feComposite in2="blur-4" operator="in"/>
      <feComposite in="SourceGraphic"/>
    </filter>
  </defs>
  <g id="Layer_2" data-name="Layer 2">
    <rect class="cls-1" x="1392.19" y="378.28" width="196.04" height="2.93"/>
    <rect class="cls-1" x="1371.84" y="672.93" width="276.65" height="2.93"/>
    <rect class="cls-1" x="1588.7" y="327.46" width="59.79" height="2.93"/>
    <rect class="cls-1" x="1537.41" y="328.93" width="101.64" height="2.93" transform="translate(1257.84 1918.63) rotate(-90)"/>
    <rect class="cls-1" x="1486.03" y="714.01" width="79.22" height="2.93" transform="translate(810.16 2241.11) rotate(-90)"/>
    <circle class="cls-8" cx="1588.23" cy="271.94" r="7.63"/>
    <circle class="cls-8" cx="1656.13" cy="328.93" r="7.63"/>
    <rect class="cls-1" x="1608.23" y="434.15" width="59.79" height="2.93" transform="translate(1202.51 2073.75) rotate(-90)"/>
    <circle class="cls-8" cx="1638.13" cy="398.09" r="7.63"/>
    <rect class="cls-1" x="1565.97" y="644.1" width="59.79" height="2.93" transform="translate(950.3 2241.43) rotate(-90)"/>
    <circle class="cls-8" cx="1595.86" cy="608.03" r="7.63"/>
    <rect class="cls-1" x="1524.17" y="752.15" width="59.79" height="2.93"/>
    <circle class="cls-8" cx="1591.59" cy="753.62" r="7.63"/>
    <rect class="cls-1" x="1289.87" y="790.29" width="79.22" height="2.93" transform="translate(537.72 2121.23) rotate(-90)"/>
    <rect class="cls-1" x="1328.01" y="828.43" width="59.79" height="2.93"/>
    <circle class="cls-8" cx="1395.43" cy="829.9" r="7.63"/>
    <rect class="cls-1" x="1654.93" y="505" width="79.22" height="2.93" transform="translate(1188.06 2201) rotate(-90)"/>
    <rect class="cls-1" x="1693.07" y="543.14" width="59.79" height="2.93"/>
    <circle class="cls-8" cx="1760.49" cy="544.61" r="7.63"/>
    <rect class="cls-1" x="1386.79" y="598.93" width="149.98" height="2.93" transform="translate(2062.18 -861.38) rotate(90)"/>
    <rect class="cls-1" x="1460.31" y="523.94" width="59.79" height="2.93"/>
    <circle class="cls-8" cx="1527.74" cy="525.41" r="7.63"/>
    <circle class="cls-8" cx="1656.13" cy="674.4" r="7.63"/>
    <rect class="cls-1" x="1388.91" y="278.45" width="202.6" height="2.93" transform="translate(1210.29 1770.13) rotate(-90)"/>
    <circle class="cls-8" cx="1490.21" cy="170.98" r="7.63"/>
    <rect class="cls-1" x="1413.71" y="463.93" width="357.15" height="2.93"/>
    <circle class="cls-8" cx="1778.49" cy="465.4" r="7.63"/>
    <rect class="cls-1" x="323.17" y="378.28" width="196.04" height="2.93" transform="translate(842.37 759.49) rotate(-180)"/>
    <rect class="cls-1" x="262.9" y="672.93" width="276.65" height="2.93" transform="translate(802.46 1348.8) rotate(-180)"/>
    <rect class="cls-1" x="262.9" y="327.46" width="59.79" height="2.93" transform="translate(585.6 657.85) rotate(-180)"/>
    <rect class="cls-1" x="272.34" y="328.93" width="101.64" height="2.93" transform="translate(-7.23 653.56) rotate(-90)"/>
    <rect class="cls-1" x="346.16" y="714.01" width="79.22" height="2.93" transform="translate(-329.71 1101.24) rotate(-90)"/>
    <circle class="cls-8" cx="323.17" cy="271.94" r="7.63"/>
    <circle class="cls-8" cx="255.27" cy="328.93" r="7.63"/>
    <rect class="cls-1" x="243.37" y="434.15" width="59.79" height="2.93" transform="translate(-162.35 708.89) rotate(-90)"/>
    <circle class="cls-8" cx="273.27" cy="398.09" r="7.63"/>
    <rect class="cls-1" x="285.64" y="644.1" width="59.79" height="2.93" transform="translate(-330.03 961.09) rotate(-90)"/>
    <circle class="cls-8" cx="315.53" cy="608.03" r="7.63"/>
    <rect class="cls-1" x="327.44" y="752.15" width="59.79" height="2.93" transform="translate(714.67 1507.23) rotate(180)"/>
    <circle class="cls-8" cx="319.8" cy="753.62" r="7.63"/>
    <rect class="cls-1" x="562.83" y="782.9" width="79.22" height="2.93" transform="translate(-181.92 1386.8) rotate(-90)"/>
    <rect class="cls-1" x="544.11" y="821.04" width="59.79" height="2.93" transform="translate(1148.02 1645.01) rotate(180)"/>
    <circle class="cls-8" cx="536.48" cy="822.5" r="7.63"/>
    <rect class="cls-1" x="1289.87" y="183.51" width="79.22" height="2.93" transform="translate(1514.46 -1144.49) rotate(90)"/>
    <rect class="cls-1" x="1328.01" y="145.37" width="59.79" height="2.93"/>
    <circle class="cls-8" cx="1395.43" cy="146.84" r="7.63"/>
    <rect class="cls-1" x="562.83" y="190.91" width="79.22" height="2.93" transform="translate(794.81 -410.06) rotate(90)"/>
    <rect class="cls-1" x="544.11" y="152.77" width="59.79" height="2.93" transform="translate(1148.02 308.47) rotate(-180)"/>
    <circle class="cls-8" cx="536.48" cy="154.23" r="7.63"/>
    <rect class="cls-1" x="177.26" y="505" width="79.22" height="2.93" transform="translate(-289.61 723.33) rotate(-90)"/>
    <rect class="cls-1" x="158.54" y="543.14" width="59.79" height="2.93" transform="translate(376.87 1089.22) rotate(180)"/>
    <circle class="cls-8" cx="150.9" cy="544.61" r="7.63"/>
    <rect class="cls-1" x="374.63" y="598.93" width="149.98" height="2.93" transform="translate(1050.02 150.78) rotate(90)"/>
    <rect class="cls-1" x="391.29" y="523.94" width="59.79" height="2.93" transform="translate(842.37 1050.82) rotate(-180)"/>
    <circle class="cls-8" cx="383.66" cy="525.41" r="7.63"/>
    <circle class="cls-8" cx="255.27" cy="674.4" r="7.63"/>
    <rect class="cls-1" x="319.89" y="278.45" width="202.6" height="2.93" transform="translate(141.27 701.1) rotate(-90)"/>
    <circle class="cls-8" cx="421.19" cy="170.98" r="7.63"/>
    <rect class="cls-1" x="140.54" y="463.93" width="357.15" height="2.93" transform="translate(638.22 930.79) rotate(-180)"/>
    <circle class="cls-8" cx="132.9" cy="465.4" r="7.63"/>
  </g>
  <g id="Layer_1" data-name="Layer 1">
    <g class="cls-6">
      <path class="cls-5" d="M1218.04,963.74h-520.25c-6.29,0-11.39-5.1-11.39-11.39v-27.85c0-28.66,23.24-51.9,51.9-51.9h439.24c28.66,0,51.9,23.24,51.9,51.9v27.85c0,6.29-5.1,11.39-11.39,11.39Z"/>
      <polygon class="cls-5" points="1017.91 895.39 902.97 895.39 919.97 744.75 1000.91 744.75 1017.91 895.39"/>
      <rect class="cls-5" x="485.13" y="228.3" width="931.65" height="525.32" rx="53.16" ry="53.16"/>
      <path class="cls-7" d="M960.17,898.03c-20.54,0-39.38-5.78-54.1-15.39-.51-.33-1.1.3-.72.78,11.45,14.46,31.72,24.07,54.82,24.07s43.36-9.61,54.82-24.07c.38-.48-.21-1.11-.72-.78-14.72,9.61-33.55,15.39-54.1,15.39Z"/>
      <path class="cls-7" d="M960.17,763.86c-13.6,0-26.07-3.83-35.81-10.19-.34-.22-.73.2-.48.52,7.58,9.57,20.99,15.93,36.28,15.93s28.7-6.36,36.28-15.93c.25-.32-.14-.74-.48-.52-9.74,6.36-22.21,10.19-35.81,10.19Z"/>
      <path class="cls-7" d="M686.39,942.84h543.04v8.79c0,6.69-5.43,12.12-12.12,12.12h-518.8c-6.69,0-12.12-5.43-12.12-12.12v-8.79h0Z"/>
    </g>
    <rect class="cls-9" x="539.56" y="277.67" width="836.71" height="427.85" rx="31.01" ry="31.01"/>
    <path class="cls-5" d="M849.96,412.46h-48.88c-2.27-5.48-5.04-10.7-8.22-15.63l32.71-32.71c1.81-1.81,1.81-4.74,0-6.54l-32.71-32.71c-1.81-1.81-4.74-1.81-6.54,0l-35.67,35.67c-4-1.8-8.13-3.34-12.4-4.59v-48.7c0-2.56-2.07-4.63-4.63-4.63h-46.26c-2.56,0-4.63,2.07-4.63,4.63v48.7c-4.26,1.26-8.4,2.8-12.4,4.59l-35.67-35.67c-1.81-1.81-4.74-1.81-6.54,0l-32.71,32.71c-1.81,1.81-1.81,4.74,0,6.54l32.71,32.71c-3.19,4.93-5.95,10.15-8.22,15.63h-48.88c-2.56,0-4.63,2.07-4.63,4.63v46.26c0,2.56,2.07,4.63,4.63,4.63h43.12c1.44,7.74,3.78,15.16,6.93,22.14l-35.14,35.14c-1.81,1.81-1.81,4.74,0,6.54l32.71,32.71c1.81,1.81,4.74,1.81,6.54,0l32.18-32.18c7.77,5.03,16.3,8.98,25.38,11.66v46.92c0,2.56,2.07,4.63,4.63,4.63h46.26c2.56,0,4.63-2.07,4.63-4.63v-46.92c9.08-2.68,17.61-6.63,25.38-11.66l32.18,32.18c1.81,1.81,4.74,1.81,6.55,0l32.71-32.71c1.81-1.81,1.81-4.74,0-6.54l-35.14-35.14c3.14-6.99,5.49-14.4,6.93-22.14h43.12c2.56,0,4.63-2.07,4.63-4.63v-46.26c0-2.56-2.07-4.63-4.63-4.63ZM710.48,489.5c-21.83,0-39.53-17.7-39.53-39.53,0-21.83,17.7-39.53,39.53-39.53,21.83,0,39.53,17.7,39.53,39.53,0,21.83-17.7,39.53-39.53,39.53Z"/>
    <path class="cls-5" d="M1094.19,649.72l-20.26-38.78c3.41-4.07,6.4-8.43,8.99-13l39.51,12.4c2.18.68,4.51-.53,5.19-2.71l12.4-39.5c.68-2.18-.53-4.51-2.71-5.19l-43.08-13.52c-.23-3.92-.72-7.84-1.49-11.74l38.63-20.18c2.03-1.06,2.81-3.56,1.75-5.59l-19.17-36.7c-1.06-2.03-3.56-2.81-5.59-1.75l-38.63,20.18c-2.76-2.86-5.7-5.5-8.78-7.93l13.52-43.08c.68-2.18-.53-4.51-2.71-5.19l-39.5-12.4c-2.18-.68-4.51.53-5.19,2.71l-12.4,39.51c-5.23-.49-10.52-.51-15.81-.05l-20.26-38.78c-1.06-2.03-3.56-2.81-5.59-1.75l-36.7,19.17c-2.03,1.06-2.81,3.56-1.75,5.59l17.87,34.21c-5.54,4.35-10.46,9.28-14.7,14.67l-42.44-13.32c-2.18-.68-4.51.53-5.19,2.71l-12.4,39.5c-.68,2.18.53,4.51,2.71,5.19l38.86,12.19c-.77,8.25-.37,16.65,1.27,24.96l-37.22,19.44c-2.03,1.06-2.81,3.56-1.75,5.59l19.17,36.7c1.06,2.03,3.56,2.81,5.59,1.75l37.22-19.44c5.89,6.09,12.56,11.22,19.76,15.3l-12.19,38.86c-.68,2.18.53,4.51,2.71,5.19l39.5,12.4c2.18.68,4.51-.53,5.19-2.71l13.32-42.44c6.84-.4,13.7-1.61,20.44-3.68l17.87,34.21c1.06,2.03,3.56,2.81,5.59,1.75l36.7-19.17c2.03-1.06,2.81-3.56,1.75-5.59ZM975.28,571c-9.05-17.32-2.34-38.7,14.98-47.74,17.32-9.05,38.7-2.34,47.74,14.98,9.05,17.32,2.34,38.7-14.98,47.74-17.32,9.05-38.7,2.34-47.74-14.98Z"/>
    <path class="cls-5" d="M1326.08,420.14l-30.6-15.16c.28-4.14.17-8.26-.3-12.33l30.62-10.33c1.69-.57,2.6-2.4,2.03-4.1l-10.33-30.62c-.57-1.69-2.4-2.6-4.1-2.03l-33.39,11.27c-1.94-2.37-4.06-4.61-6.33-6.72l15.1-30.48c.79-1.6.14-3.54-1.46-4.33l-28.95-14.35c-1.6-.79-3.54-.14-4.33,1.46l-15.1,30.48c-3.06-.54-6.12-.85-9.18-.97l-11.27-33.39c-.57-1.69-2.4-2.6-4.1-2.03l-30.62,10.33c-1.69.57-2.6,2.4-2.03,4.1l10.33,30.62c-3.52,2.1-6.87,4.51-9.99,7.23l-30.6-15.16c-1.6-.79-3.54-.14-4.33,1.46l-14.35,28.95c-.79,1.6-.14,3.54,1.46,4.33l26.99,13.37c-1.5,5.29-2.33,10.66-2.53,16.01l-32.89,11.1c-1.69.57-2.6,2.4-2.03,4.1l10.33,30.62c.57,1.69,2.4,2.6,4.1,2.03l30.12-10.16c3.31,5.56,7.42,10.68,12.27,15.17l-14.55,29.37c-.79,1.6-.14,3.54,1.46,4.33l28.95,14.35c1.6.79,3.54.14,4.33-1.46l14.55-29.37c6.51,1.14,13.08,1.31,19.5.57l10.16,30.12c.57,1.69,2.4,2.6,4.1,2.03l30.62-10.33c1.69-.57,2.6-2.4,2.03-4.1l-11.1-32.89c4.13-3.4,7.9-7.31,11.2-11.71l26.99,13.37c1.6.79,3.54.14,4.33-1.46l14.35-28.95c.79-1.6.14-3.54-1.46-4.33ZM1214.89,425.11c-13.67-6.77-19.26-23.34-12.48-37,6.77-13.67,23.34-19.26,37-12.48,13.67,6.77,19.26,23.34,12.48,37-6.77,13.67-23.34,19.26-37,12.48Z"/>
    <path class="cls-4" d="M861.83,412.46h-48.88c-2.27-5.48-5.04-10.7-8.22-15.63l32.71-32.71c1.81-1.81,1.81-4.74,0-6.54l-32.71-32.71c-1.81-1.81-4.74-1.81-6.54,0l-35.67,35.67c-4-1.8-8.13-3.34-12.4-4.59v-48.7c0-2.56-2.07-4.63-4.63-4.63h-46.26c-2.56,0-4.63,2.07-4.63,4.63v48.7c-4.26,1.26-8.4,2.8-12.4,4.59l-35.67-35.67c-1.81-1.81-4.74-1.81-6.54,0l-32.71,32.71c-1.81,1.81-1.81,4.74,0,6.54l32.71,32.71c-3.19,4.93-5.95,10.15-8.22,15.63h-48.88c-2.56,0-4.63,2.07-4.63,4.63v46.26c0,2.56,2.07,4.63,4.63,4.63h43.12c1.44,7.74,3.78,15.16,6.93,22.14l-35.14,35.14c-1.81,1.81-1.81,4.74,0,6.54l32.71,32.71c1.81,1.81,4.74,1.81,6.54,0l32.18-32.18c7.77,5.03,16.3,8.98,25.38,11.66v46.92c0,2.56,2.07,4.63,4.63,4.63h46.26c2.56,0,4.63-2.07,4.63-4.63v-46.92c9.08-2.68,17.61-6.63,25.38-11.66l32.18,32.18c1.81,1.81,4.74,1.81,6.55,0l32.71-32.71c1.81-1.81,1.81-4.74,0-6.54l-35.14-35.14c3.14-6.99,5.49-14.4,6.93-22.14h43.12c2.56,0,4.63-2.07,4.63-4.63v-46.26c0-2.56-2.07-4.63-4.63-4.63ZM722.36,489.5c-21.83,0-39.53-17.7-39.53-39.53,0-21.83,17.7-39.53,39.53-39.53,21.83,0,39.53,17.7,39.53,39.53,0,21.83-17.7,39.53-39.53,39.53Z"/>
    <path class="cls-3" d="M1106.67,649.72l-20.26-38.78c3.41-4.07,6.4-8.43,8.99-13l39.51,12.4c2.18.68,4.51-.53,5.19-2.71l12.4-39.5c.68-2.18-.53-4.51-2.71-5.19l-43.08-13.52c-.23-3.92-.72-7.84-1.49-11.74l38.63-20.18c2.03-1.06,2.81-3.56,1.75-5.59l-19.17-36.7c-1.06-2.03-3.56-2.81-5.59-1.75l-38.63,20.18c-2.76-2.86-5.7-5.5-8.78-7.93l13.52-43.08c.68-2.18-.53-4.51-2.71-5.19l-39.5-12.4c-2.18-.68-4.51.53-5.19,2.71l-12.4,39.51c-5.23-.49-10.52-.51-15.81-.05l-20.26-38.78c-1.06-2.03-3.56-2.81-5.59-1.75l-36.7,19.17c-2.03,1.06-2.81,3.56-1.75,5.59l17.87,34.21c-5.54,4.35-10.46,9.28-14.7,14.67l-42.44-13.32c-2.18-.68-4.51.53-5.19,2.71l-12.4,39.5c-.68,2.18.53,4.51,2.71,5.19l38.86,12.19c-.77,8.25-.37,16.65,1.27,24.96l-37.22,19.44c-2.03,1.06-2.81,3.56-1.75,5.59l19.17,36.7c1.06,2.03,3.56,2.81,5.59,1.75l37.22-19.44c5.89,6.09,12.56,11.22,19.76,15.3l-12.19,38.86c-.68,2.18.53,4.51,2.71,5.19l39.5,12.4c2.18.68,4.51-.53,5.19-2.71l13.32-42.44c6.84-.4,13.7-1.61,20.44-3.68l17.87,34.21c1.06,2.03,3.56,2.81,5.59,1.75l36.7-19.17c2.03-1.06,2.81-3.56,1.75-5.59ZM987.76,571c-9.05-17.32-2.34-38.7,14.98-47.74,17.32-9.05,38.7-2.34,47.74,14.98,9.05,17.32,2.34,38.7-14.98,47.74-17.32,9.05-38.7,2.34-47.74-14.98Z"/>
    <path class="cls-2" d="M1337.04,420.14l-30.6-15.16c.28-4.14.17-8.26-.3-12.33l30.62-10.33c1.69-.57,2.6-2.4,2.03-4.1l-10.33-30.62c-.57-1.69-2.4-2.6-4.1-2.03l-33.39,11.27c-1.94-2.37-4.06-4.61-6.33-6.72l15.1-30.48c.79-1.6.14-3.54-1.46-4.33l-28.95-14.35c-1.6-.79-3.54-.14-4.33,1.46l-15.1,30.48c-3.06-.54-6.12-.85-9.18-.97l-11.27-33.39c-.57-1.69-2.4-2.6-4.1-2.03l-30.62,10.33c-1.69.57-2.6,2.4-2.03,4.1l10.33,30.62c-3.52,2.1-6.87,4.51-9.99,7.23l-30.6-15.16c-1.6-.79-3.54-.14-4.33,1.46l-14.35,28.95c-.79,1.6-.14,3.54,1.46,4.33l26.99,13.37c-1.5,5.29-2.33,10.66-2.53,16.01l-32.89,11.1c-1.69.57-2.6,2.4-2.03,4.1l10.33,30.62c.57,1.69,2.4,2.6,4.1,2.03l30.12-10.16c3.31,5.56,7.42,10.68,12.27,15.17l-14.55,29.37c-.79,1.6-.14,3.54,1.46,4.33l28.95,14.35c1.6.79,3.54.14,4.33-1.46l14.55-29.37c6.51,1.14,13.08,1.31,19.5.57l10.16,30.12c.57,1.69,2.4,2.6,4.1,2.03l30.62-10.33c1.69-.57,2.6-2.4,2.03-4.1l-11.1-32.89c4.13-3.4,7.9-7.31,11.2-11.71l26.99,13.37c1.6.79,3.54.14,4.33-1.46l14.35-28.95c.79-1.6.14-3.54-1.46-4.33ZM1225.85,425.11c-13.67-6.77-19.26-23.34-12.48-37,6.77-13.67,23.34-19.26,37-12.48s19.26,23.34,12.48,37c-6.77,13.67-23.34,19.26-37,12.48Z"/>
    <rect class="cls-10" x="600.18" y="275.57" width="149.54" height="429.94"/>
    <rect class="cls-10" x="774.08" y="277.67" width="42.92" height="427.85"/>
    <rect class="cls-10" x="836.53" y="277.67" width="21.46" height="427.85"/>
  </g>
</svg>