<?xml version="1.0" encoding="UTF-8"?>
<svg id="Layer_2" data-name="Layer 2" xmlns="http://www.w3.org/2000/svg" viewBox="0 0 1920.13 1080">
  <defs>
    <style>
      .cls-1 {
        fill: #bf2026;
      }

      .cls-2 {
        fill: none;
        stroke: #930000;
        stroke-miterlimit: 10;
        stroke-width: .75px;
      }
    </style>
  </defs>
  <rect class="cls-1" x=".1" width="1920" height="1080"/>
  <path class="cls-2" d="M.1,577.88c39.86-5.84,99.11-11.88,170.65-8.86,99.28,4.2,164.88,23.44,208.86,32.91,136.33,29.38,254.46,18.3,400-26.58,135.44-41.77,148.31-59.73,436.71-159.49,132.2-45.73,209.25-58.78,313.92-81.01,143.04-30.38,298.59-27.69,389.86-21.52"/>
  <path class="cls-2" d="M.1,606.99c26.99-5.4,64.17-11.14,108.62-12.66,81.67-2.79,148.18,10.02,225.32,25.32,74.64,14.81,69.18,18.65,111.39,24.05,23.11,2.96,84.68,9.48,183.54-3.8,94.58-12.7,162.27-35.33,251.9-65.82,85.21-28.99,84.34-33.75,217.72-83.54,99.12-37.01,156.86-58.57,234.18-81.01,53.59-15.56,138.02-39.76,245.57-55.7,82.98-12.3,199.81-22.65,341.76-12.66"/>
  <path class="cls-2" d="M.1,632.31c52.44-10.87,95.87-12.91,126.34-12.66,63.05.52,114.2,11.32,213.92,32.91,69.45,15.03,59.21,15.35,87.34,20.25,131.27,22.88,243.73-3.3,324.05-22.78,44.82-10.88,83.04-24.13,159.49-50.63,113.66-39.41,170.05-65.25,246.84-94.94,14.86-5.75,167.18-64.25,302.53-97.47,104.57-25.66,259.6-51.11,459.48-39.24"/>
  <path class="cls-2" d="M.1,663.95c36.47-10.13,70.56-14.69,113.68-16.02,45.86-1.41,92.45,9.21,120.5,14.88,91.55,18.49,113.14,29.57,151.65,39.11,109.51,27.15,202.4,13.13,281.01,1.27,70.24-10.6,120.24-27.32,220.25-60.76,88.36-29.54,98.95-38.48,239.24-91.14,110.58-41.51,165.87-62.26,234.18-82.28,69.96-20.5,156.99-45.59,272.15-59.49,71.96-8.69,170.14-14.84,287.33-5.06"/>
</svg>