<?xml version="1.0" encoding="UTF-8"?>
<svg xmlns="http://www.w3.org/2000/svg" xmlns:xlink="http://www.w3.org/1999/xlink" viewBox="0 0 1920 1080">
  <defs>
    <style>
      .cls-1 {
        fill: #fff;
        opacity: .6;
      }

      .cls-2 {
        filter: url(#drop-shadow-13);
      }

      .cls-3 {
        filter: url(#drop-shadow-11);
      }

      .cls-4 {
        fill: #d8d8d8;
      }

      .cls-5 {
        fill: #faf1f1;
      }

      .cls-6 {
        fill: #ffe164;
      }

      .cls-7 {
        fill: #333;
      }

      .cls-8 {
        filter: url(#drop-shadow-12);
      }

      .cls-9 {
        fill: #b7b7b7;
      }
    </style>
    <filter id="drop-shadow-11" x="645" y="143" width="909" height="854" filterUnits="userSpaceOnUse">
      <feOffset dx="7" dy="7"/>
      <feGaussianBlur result="blur" stdDeviation="5"/>
      <feFlood flood-color="#000" flood-opacity=".5"/>
      <feComposite in2="blur" operator="in"/>
      <feComposite in="SourceGraphic"/>
    </filter>
    <filter id="drop-shadow-12" x="494" y="109" width="941" height="905" filterUnits="userSpaceOnUse">
      <feOffset dx="7" dy="7"/>
      <feGaussianBlur result="blur-2" stdDeviation="5"/>
      <feFlood flood-color="#000" flood-opacity=".5"/>
      <feComposite in2="blur-2" operator="in"/>
      <feComposite in="SourceGraphic"/>
    </filter>
    <filter id="drop-shadow-13" x="813.3" y="258.33" width="416" height="685" filterUnits="userSpaceOnUse">
      <feOffset dx="7" dy="7"/>
      <feGaussianBlur result="blur-3" stdDeviation="5"/>
      <feFlood flood-color="#000" flood-opacity=".5"/>
      <feComposite in2="blur-3" operator="in"/>
      <feComposite in="SourceGraphic"/>
    </filter>
  </defs>
  <g id="Layer_2" data-name="Layer 2">
    <path class="cls-5" d="M1489.07,366.69c-8.14-17.28-16.67-34.52-29.35-55.17-13.14-21.4-40.1-61.75-96.26-115.04-64.75-61.44-113.22-107.44-191.35-129.13-25.03-6.95-55.26-15.01-93.91-9.39-57.11,8.3-98.36,41.48-125.61,63.39-6.04,4.86-24.46,22.87-61.04,58.7-65.31,63.95-63.63,63.62-71.61,69.26-44.3,31.33-91.15,38.1-136.17,44.61-61.44,8.88-69.37-2.28-116.22,10.57-20.75,5.69-58.17,15.95-92.74,45.78-53.81,46.44-66.06,110.44-72.78,145.57-11.96,62.5-2.03,112.14,3.52,138.52,5.75,27.33,23.88,98.77,81,167.87,7.61,9.2,36.68,43.5,84.52,76.3,29.43,20.19,53.04,36.37,86.87,45.78,74.14,20.63,157.34-2.42,210.13-37.57,13.89-9.25,28.05-20.91,55.17-34.04,28.44-13.77,53.02-25.67,83.35-24.65,22.44.76,45.4,13.04,90.39,37.57,23.47,12.8,27.44,16.22,72.78,43.43,70.96,42.58,85.13,48.52,97.43,52.83,16.21,5.67,42.53,14.65,76.3,15.26,74.73,1.34,128.86-39.36,143.22-50.48,51.05-39.53,71.64-88.48,81-111.52,30.05-74,21.63-139.45,15.26-189-10.62-82.55-38.74-142.28-93.91-259.43v-.02h0Z"/>
  </g>
  <g id="Layer_1" data-name="Layer 1">
    <g class="cls-3">
      <path class="cls-7" d="M1302.8,418.42l-4.57.17c-.61.02-1.19-.07-1.78-.28-1.34-.47-2.36-1.48-2.83-2.78-.68-1.9-.04-4.05,1.61-5.29l3.65-2.76-4.72-13.17-4.57.17c-.61.02-1.19-.07-1.78-.28-1.34-.47-2.36-1.48-2.83-2.78-.68-1.9-.04-4.05,1.61-5.29l3.65-2.76-5.26-14.65-4.57.17c-.61.02-1.19-.07-1.78-.28-1.34-.47-2.36-1.48-2.83-2.78-.68-1.9-.04-4.05,1.61-5.29l3.65-2.76-3.1-8.65,40.9-14.67,3.07,8.59,3.82.46c.35.04.7.11,1.03.23,1.34.47,2.38,1.49,2.84,2.81.61,1.66.18,3.49-1.07,4.82l-2.66,2.79,5.21,14.5,3.82.46c.35.04.7.11,1.03.23,1.34.47,2.38,1.49,2.84,2.81.61,1.66.18,3.49-1.07,4.82l-2.66,2.79,4.67,13.02,3.82.46c.35.04.7.11,1.03.23,1.34.47,2.38,1.49,2.85,2.79.61,1.66.18,3.49-1.07,4.82l-2.66,2.79,4.23,11.84-40.9,14.67-4.29-11.91.05-.06Z"/>
      <path class="cls-9" d="M1531.32,329.28c.19-1.31-.71-2.24-1.62-2.55-.55-.19-1.1-.17-1.68.06l-102.02,41.1c-3.06,1.23-6.45,1.31-9.55.22-1.96-.68-3.77-1.83-5.22-3.31l-10.47-10.66c-1.4-1.41-2.48-3.16-3.13-5.02l-28.68-81.91c-.82-2.32-.99-4.85-.47-7.27l5.86-27.97c1-4.7,4.43-8.57,8.99-10.09l92.73-31.04c1.23-.4,1.55-1.45,1.62-1.87.11-.51.11-1.48-.8-2.25-14.01-11.54-29.79-20.41-46.9-26.37-33.63-11.72-70.52-11.43-103.92.83-.38.15-.73.41-1.01.74-23.73,10.2-39.69,31.38-50.55,59.8-.25.31-.42.66-.5,1.03-1.84,8.53-3.78,17.09-5.85,26.17-2.27,9.97-4.63,20.28-6.83,30.67-.02.13-3.8,15.38-6.82,31.26-.88,4.71-1.45,8.02-1.87,10.53-.87,5.15-1.26,7.5-2.93,12.01-1.55,4.17-3.93,8.75-8.24,17.05-2.98,5.69-4.69,8.84-6.24,11.64-1.11,2.03-2.14,3.9-3.49,6.48-4.68,8.93-6.41,13.28-7.65,16.45-1.26,3.14-2.24,5.61-5.02,9.91-2.74,4.26-8.33,9.89-20.67,22.19-.25.24-.5.49-.77.7l-519.59,446-.29.23c-2.28,1.72-4.41,3.53-6.34,5.42-11.67,11.47-18.2,26.8-18.36,43.16-.16,16.36,6.07,31.8,17.53,43.49,6.68,6.8,14.59,11.84,23.52,14.95v.04c22.16,7.73,46.36,2.33,63.21-14.21l502.96-471.82c.63-.59,1.25-1.06,1.89-1.47,7.66-4.98,20.29-9.61,43.2-17.99,12.44-4.55,18.66-6.83,22.3-7.77,3.8-.97,7.46-1.76,11.2-2.37,1.73-.27,3.49-.23,5.24.19,8.3,1.95,16.89,3.19,25.57,3.72l8.35.51-10.3,4.29,5.99,14.38,11.73-4.89,3.18,7.71-10.48,4.37,5.99,14.38,10.42-4.34,2.66,6.47c.8,1.91,2.39,3.41,4.35,4.1,1.69.59,3.51.54,5.17-.14,1.83-.76,2.78-1.78,4.5-6.11l.18-1.05c1.27-7.66,3.42-20.48,13.47-34.84,5.93-8.45,12.63-12.72,18-16.16,2.89-1.84,5.36-3.41,7.11-5.24l.63-.66.79-.43c13.03-6.93,25.02-15.7,35.64-26.12,23.88-23.44,39.21-53.3,44.29-86.3ZM1370.15,402.27c-2.13,4.42-5.88,7.76-10.52,9.39l-64.98,22.71c-3.91,1.36-8.22,1.37-12.13.01-5.34-1.86-9.48-5.98-11.33-11.32l-16.22-46.37c-3.36-9.6,1.71-20.13,11.31-23.49l64.98-22.71c3.91-1.36,8.22-1.37,12.13-.01v.02c5.34,1.86,9.47,5.98,11.33,11.32l16.22,46.37c1.63,4.64,1.35,9.64-.79,14.08Z"/>
      <path class="cls-4" d="M662.14,931.43c.16-16.36,6.69-31.69,18.36-43.16,1.94-1.88,4.06-3.7,6.34-5.42l.29-.23,519.59-446c.26-.22.52-.46.77-.7,12.34-12.3,17.93-17.94,20.67-22.19,2.78-4.29,3.76-6.77,5.02-9.91,1.25-3.17,2.97-7.51,7.65-16.45,1.35-2.59,2.38-4.45,3.49-6.48,1.55-2.8,3.26-5.95,6.24-11.64,4.31-8.3,6.69-12.88,8.24-17.05,1.67-4.51,2.06-6.86,2.93-12.01.42-2.51.99-5.82,1.87-10.53,3.02-15.88,6.8-31.13,6.82-31.26,2.2-10.39,4.56-20.7,6.83-30.67,2.08-9.08,4.02-17.65,5.85-26.17.08-.37.25-.72.5-1.03,10.86-28.41,26.82-49.6,50.55-59.8.28-.33.63-.59,1.01-.74,33.41-12.26,70.3-12.55,103.92-.83,10.42,3.63,20.34,8.35,29.67,14.09l7.3-2.45c1.23-.4,1.55-1.45,1.62-1.87.11-.51.11-1.48-.8-2.25-14.01-11.54-29.79-20.41-46.9-26.37-33.63-11.72-70.52-11.43-103.92.83-.38.15-.73.41-1.01.74-23.73,10.2-39.69,31.38-50.55,59.8-.25.31-.42.66-.5,1.03-1.84,8.53-3.78,17.09-5.85,26.17-2.27,9.97-4.63,20.28-6.83,30.67-.02.13-3.8,15.38-6.82,31.26-.88,4.71-1.45,8.02-1.87,10.53-.87,5.15-1.26,7.5-2.93,12.01-1.55,4.17-3.93,8.75-8.24,17.05-2.98,5.69-4.69,8.84-6.24,11.64-1.11,2.03-2.14,3.9-3.49,6.48-4.68,8.93-6.41,13.28-7.65,16.45-1.26,3.14-2.24,5.61-5.02,9.91-2.74,4.26-8.33,9.89-20.67,22.19-.25.24-.5.49-.77.7l-519.59,446-.29.23c-2.28,1.72-4.41,3.53-6.34,5.42-11.67,11.47-18.2,26.8-18.36,43.16-.13,13.17,3.89,25.73,11.43,36.23-1.58-5.58-2.38-11.42-2.33-17.38Z"/>
    </g>
    <g class="cls-8">
      <path class="cls-9" d="M1001.26,608.21l-272.41-272.41c-.53-.45-2.11-1.91-6.43-6.15l-3.46-3.41c-6.84-6.76-9.4-9.29-14.46-12.05-10.91-5.96-21.43-6.29-27.72-6.51-5.6-.19-17.27-.57-30.34,5.37l-.41.19c-9.18,4.25-14.74,9.67-20.62,15.41-3.6,3.5-11.06,10.78-17.29,22.06-3.68,6.68-5.09,11.39-6.11,14.84-1.11,3.74-1.66,5.63-4.3,8.08-1.65,1.55-3.71,2.89-5.96,3.91-5,2.27-10.5,2.8-15.14,1.44-6.69-1.96-10.11-7.83-17.84-22.06-11.78-21.66-15.91-34.59-12.23-38.39.19-.2.3-.27.41-.32.41-.19,1.31-.29,2.33-.43,2.38-.3,5.96-.73,11.11-2.9.41-.19.83-.36,1.22-.54,7.68-3.49,12.67-8.25,15.97-11.4,5.76-5.49,8.36-9.74,16.06-22.34l1.18-1.93c9.32-15.24,14.46-23.64,17.51-27.77,6.93-9.36,13.29-15.54,18.41-20.52,21.81-21.19,48.01-38.72,61.68-47.28l2.15-1.34c23.01-14.41,44.75-28.03,66.62-37.98,8.17-3.72,15.71-6.63,23.04-8.9,7.86-2.43,17.64-5.6,22.15-7.07,12.28-3.97,11.01-3.57,25.84-5.99l.58-.09c3.41-.58,22.37-3.71,36.11-4.08,3.87-.11,8.07,0,8.96.03,1.84.21,3.46.37,4.89.5-1.5.89-3.32,1.91-5.52,3.12-6.75,3.68-13.78,7.18-20.86,10.4-5.82,2.65-10.58,4.6-13.72,5.9l-.88.36c-8.06,3.32-15.02,6.21-22.12,9.43-6.32,2.88-11.94,5.66-17.69,8.79-7.69,4.18-18.24,9.9-30.62,19.64-7.41,5.83-17.56,13.81-27.33,27.12-6.84,9.31-11.64,18.63-14.27,27.69-2.03,6.96-4.56,15.62-1.18,24.97,2.34,6.49,9.83,16.34,16.1,24.22l.89,1.12c6.04,7.72,8.44,10.03,10.78,12.24l279.97,279.97-35.03,35.03Z"/>
      <path class="cls-4" d="M877.86,117.7c-.89-.03-5.09-.14-8.96-.03-1.87.05-3.83.16-5.84.29-6.39,3.45-13,6.73-19.66,9.77-5.82,2.65-10.58,4.6-13.72,5.9l-.88.36c-8.06,3.32-15.02,6.21-22.12,9.43-6.32,2.88-11.94,5.66-17.69,8.79-7.69,4.18-18.24,9.9-30.62,19.64-7.41,5.83-17.56,13.81-27.33,27.12-6.84,9.31-11.64,18.63-14.27,27.69-2.03,6.96-4.56,15.62-1.18,24.97,2.34,6.49,9.83,16.34,16.1,24.22l.89,1.12c6.04,7.72,8.44,10.03,10.78,12.24l279.97,279.97-30.54,30.54,8.48,8.48,35.03-35.03-279.97-279.97c-2.34-2.21-4.74-4.52-10.78-12.24l-.89-1.12c-6.27-7.88-13.76-17.74-16.1-24.22-3.38-9.35-.85-18.01,1.18-24.97,2.63-9.06,7.43-18.38,14.27-27.69,9.77-13.31,19.92-21.3,27.33-27.12,12.39-9.75,22.94-15.46,30.62-19.64,5.75-3.13,11.37-5.92,17.69-8.79,7.09-3.23,14.06-6.11,22.12-9.43l.88-.36c3.14-1.3,7.9-3.25,13.72-5.9,7.08-3.22,14.11-6.72,20.86-10.4,2.21-1.21,4.03-2.23,5.52-3.12-1.43-.13-3.04-.29-4.89-.5Z"/>
      <path class="cls-7" d="M570.45,419.35c-5.22,2.37-11.42,1.24-15.45-2.85l-48.75-49.18c-2.58-2.61-3.99-6.06-3.98-9.74.03-3.67,1.46-7.12,4.08-9.69l29.14-28.88c1.17-1.16,2.49-2.09,3.98-2.76,5.22-2.37,11.42-1.24,15.45,2.85l48.75,49.18c2.58,2.61,3.99,6.06,3.98,9.74-.03,3.67-1.46,7.12-4.08,9.69l-29.14,28.88c-1.17,1.16-2.49,2.09-3.98,2.76Z"/>
      <path class="cls-7" d="M1362.2,990.46c-3.33,1.51-7.29.79-9.86-1.81l-396.88-400.38c-1.65-1.67-2.56-3.86-2.54-6.21s.94-4.54,2.59-6.18l45.04-44.64c.75-.74,1.6-1.34,2.53-1.76,3.33-1.51,7.29-.79,9.86,1.81l396.88,400.38c1.65,1.67,2.56,3.86,2.54,6.21s-.93,4.55-2.59,6.18l-45.04,44.64c-.75.74-1.6,1.34-2.53,1.76Z"/>
    </g>
    <g class="cls-2">
      <g>
        <path class="cls-6" d="M1206.61,459.59c0-106.27-86.15-192.42-192.42-192.42-106.48,0-193.07,87.15-192.42,193.62.29,47.26,17.62,90.48,46.16,123.83,35.83,41.87,56.14,94.79,56.14,149.9v.73h180.23v-.69c0-54.51,19.16-107.52,54.98-148.6,29.47-33.8,47.32-78,47.32-126.37Z"/>
        <ellipse class="cls-1" cx="1115.82" cy="369.88" rx="39.48" ry="79.2" transform="translate(27.13 813.29) rotate(-40.5)"/>
        <ellipse class="cls-1" cx="1083.23" cy="453.74" rx="19.8" ry="33.47" transform="translate(80.44 1065.02) rotate(-54.09)"/>
      </g>
      <rect class="cls-7" x="924.14" y="739.74" width="179.14" height="142.01"/>
      <rect class="cls-9" x="912.56" y="727.08" width="203.26" height="35.29" rx="10.58" ry="10.58"/>
      <path class="cls-7" d="M924.14,886.2h179.14v13.85c0,11.44-9.29,20.72-20.72,20.72h-137.7c-11.44,0-20.72-9.29-20.72-20.72v-13.85h0Z"/>
      <rect class="cls-9" x="912.56" y="795.59" width="203.26" height="35.29" rx="10.58" ry="10.58"/>
      <rect class="cls-9" x="912.56" y="864.11" width="203.26" height="35.29" rx="10.58" ry="10.58"/>
    </g>
  </g>
</svg>