<?xml version="1.0" encoding="UTF-8"?>
<svg id="Layer_2" data-name="Layer 2" xmlns="http://www.w3.org/2000/svg" xmlns:xlink="http://www.w3.org/1999/xlink" viewBox="0 0 1920 1080">
  <defs>
    <style>
      .cls-1, .cls-2 {
        fill: #ff9f48;
      }

      .cls-3 {
        filter: url(#drop-shadow-10);
      }

      .cls-3, .cls-4 {
        fill: #ffe164;
      }

      .cls-5 {
        fill: #fffcee;
      }

      .cls-2 {
        filter: url(#drop-shadow-9);
      }

      .cls-6 {
        fill: #faf1f1;
      }

      .cls-7 {
        fill: #333;
      }
    </style>
    <filter id="drop-shadow-9" x="563" y="149" width="831" height="831" filterUnits="userSpaceOnUse">
      <feOffset dx="-10" dy="7"/>
      <feGaussianBlur result="blur" stdDeviation="5"/>
      <feFlood flood-color="#000" flood-opacity=".5"/>
      <feComposite in2="blur" operator="in"/>
      <feComposite in="SourceGraphic"/>
    </filter>
    <filter id="drop-shadow-10" x="628" y="177" width="774" height="775" filterUnits="userSpaceOnUse">
      <feOffset dx="-10" dy="7"/>
      <feGaussianBlur result="blur-2" stdDeviation="5"/>
      <feFlood flood-color="#000" flood-opacity=".5"/>
      <feComposite in2="blur-2" operator="in"/>
      <feComposite in="SourceGraphic"/>
    </filter>
  </defs>
  <path class="cls-6" d="M1489.07,406.49c-8.14-17.28-16.67-34.52-29.35-55.17-13.14-21.4-40.1-61.75-96.26-115.04-64.75-61.44-113.22-107.44-191.35-129.13-25.03-6.95-55.26-15.01-93.91-9.39-57.11,8.3-98.36,41.48-125.61,63.39-6.04,4.86-24.46,22.87-61.04,58.7-65.31,63.95-63.63,63.62-71.61,69.26-44.3,31.33-91.15,38.1-136.17,44.61-61.44,8.88-69.37-2.28-116.22,10.57-20.75,5.69-58.17,15.95-92.74,45.78-53.81,46.44-66.06,110.44-72.78,145.57-11.96,62.5-2.03,112.14,3.52,138.52,5.75,27.33,23.88,98.77,81,167.87,7.61,9.2,36.68,43.5,84.52,76.3,29.43,20.19,53.04,36.37,86.87,45.78,74.14,20.63,157.34-2.42,210.13-37.57,13.89-9.25,28.05-20.91,55.17-34.04,28.44-13.77,53.02-25.67,83.35-24.65,22.44.76,45.4,13.04,90.39,37.57,23.47,12.8,27.44,16.22,72.78,43.43,70.96,42.58,85.13,48.52,97.43,52.83,16.21,5.67,42.53,14.65,76.3,15.26,74.73,1.34,128.86-39.36,143.22-50.48,51.05-39.53,71.64-88.48,81-111.52,30.05-74,21.63-139.45,15.26-189-10.62-82.55-38.74-142.28-93.91-259.43v-.02h0Z"/>
  <polygon class="cls-1" points="364.72 600.34 430.3 566.76 418.63 494.02 470.83 546.01 536.4 512.44 503.08 578.14 555.28 630.14 482.49 618.75 449.18 684.46 437.51 611.72 364.72 600.34"/>
  <polygon class="cls-4" points="370.03 586.04 435.6 552.46 423.94 479.72 476.13 531.71 541.71 498.13 508.39 563.84 560.59 615.83 487.8 604.45 454.48 670.16 442.82 597.42 370.03 586.04"/>
  <polygon class="cls-1" points="359.13 835.8 419.01 763.88 369.11 684.71 456.01 719.44 515.89 647.52 509.72 740.9 596.62 775.62 505.91 798.61 499.74 891.98 449.84 812.81 359.13 835.8"/>
  <polygon class="cls-4" points="378.85 834.56 438.73 762.64 388.84 683.47 475.74 718.19 535.61 646.28 529.44 739.65 616.34 774.37 525.63 797.36 519.46 890.74 469.57 811.57 378.85 834.56"/>
  <polygon class="cls-1" points="454.61 446.79 491.55 427.87 484.97 386.9 514.38 416.18 551.32 397.27 532.55 434.28 561.95 463.57 520.95 457.16 502.18 494.17 495.61 453.2 454.61 446.79"/>
  <polygon class="cls-4" points="462.94 436.79 499.88 417.88 493.31 376.9 522.71 406.19 559.65 387.28 540.88 424.29 570.29 453.58 529.29 447.17 510.52 484.18 503.94 443.2 462.94 436.79"/>
  <polygon class="cls-1" points="1607.9 483.34 1542.33 516.92 1554 589.66 1501.8 537.67 1436.23 571.25 1469.54 505.54 1417.35 453.55 1490.13 464.93 1523.45 399.22 1535.12 471.96 1607.9 483.34"/>
  <polygon class="cls-4" points="1592.91 480.9 1527.33 514.47 1539 587.21 1486.8 535.22 1421.23 568.8 1454.54 503.09 1402.35 451.1 1475.14 462.48 1508.45 396.77 1520.12 469.52 1592.91 480.9"/>
  <polygon class="cls-1" points="1577.42 188 1513.79 256.62 1559.39 338.34 1474.47 299.03 1410.84 367.65 1421.98 274.74 1337.06 235.43 1428.87 217.31 1440.01 124.4 1485.61 206.12 1577.42 188"/>
  <polygon class="cls-4" points="1566.42 207.56 1502.79 276.18 1548.39 357.9 1463.46 318.59 1399.83 387.21 1410.98 294.29 1326.05 254.98 1417.86 236.87 1429.01 143.96 1474.61 225.68 1566.42 207.56"/>
  <polygon class="cls-1" points="1520.23 654.64 1483.29 673.55 1489.86 714.53 1460.46 685.24 1423.52 704.15 1442.29 667.14 1412.89 637.85 1453.89 644.26 1472.66 607.25 1479.23 648.22 1520.23 654.64"/>
  <polygon class="cls-4" points="1509.05 654.07 1472.11 672.99 1478.68 713.96 1449.28 684.67 1412.34 703.59 1431.1 666.57 1401.7 637.29 1442.7 643.7 1461.47 606.68 1468.04 647.66 1509.05 654.07"/>
  <polygon class="cls-1" points="1456.8 770.52 1429.09 784.71 1434.02 815.44 1411.97 793.48 1384.27 807.66 1398.34 779.9 1376.29 757.94 1407.04 762.74 1421.12 734.98 1426.05 765.72 1456.8 770.52"/>
  <polygon class="cls-4" points="1448.41 770.1 1420.71 784.29 1425.64 815.02 1403.58 793.05 1375.88 807.24 1389.96 779.48 1367.9 757.51 1398.66 762.32 1412.73 734.56 1417.66 765.29 1448.41 770.1"/>
  <polygon class="cls-1" points="620.64 329.41 591.04 339.03 591.04 370.16 572.74 344.98 543.14 354.59 561.44 329.41 543.14 304.23 572.74 313.85 591.04 288.67 591.04 319.8 620.64 329.41"/>
  <polygon class="cls-4" points="612.43 327.67 582.82 337.29 582.82 368.41 564.53 343.23 534.93 352.85 553.22 327.67 534.93 302.49 564.53 312.1 582.82 286.92 582.82 318.05 612.43 327.67"/>
  <circle class="cls-2" cx="988.48" cy="557.81" r="399.95"/>
  <circle class="cls-3" cx="1025.15" cy="557.81" r="371.84"/>
  <path class="cls-5" d="M1025.15,185.97c-13.92,0-27.65.79-41.17,2.28,185.98,20.49,330.67,178.12,330.67,369.56s-144.69,349.07-330.67,369.56c13.52,1.49,27.25,2.28,41.17,2.28,205.36,0,371.84-166.48,371.84-371.84s-166.48-371.84-371.84-371.84Z"/>
  <ellipse class="cls-7" cx="895.61" cy="477.01" rx="28.14" ry="65.04"/>
  <ellipse class="cls-7" cx="1154.69" cy="477.01" rx="28.14" ry="65.04"/>
  <path class="cls-7" d="M1208.3,673.42c-122.1,131.32-244.19,131.32-366.29,0-3.91-4.2-6.06-9.74-6.06-15.48h0c0-21.64,27.28-31.06,40.71-14.09,99,125.15,198,125.15,296.99,0,13.43-16.97,40.71-7.55,40.71,14.09h0c0,5.74-2.15,11.28-6.06,15.48Z"/>
</svg>