<?xml version="1.0" encoding="UTF-8"?>
<svg id="Layer_1" data-name="Layer 1" xmlns="http://www.w3.org/2000/svg" viewBox="0 0 500 500">
  <path d="M175.01,72.99c-50.53,22.72-88.9,67.68-102.62,122.42h74.82c3.91-40.81,13.18-81.62,27.8-122.42Z"/>
  <path d="M146.11,209.05h-76.59c-1.72,10.09-2.63,20.46-2.63,31.04,0,21.82,3.82,42.74,10.82,62.14h71.5c-4.14-31.06-5.17-62.12-3.1-93.18Z"/>
  <path d="M151.23,315.86h-67.97c18.43,40.48,51.17,73.08,91.75,91.32-10.91-30.44-18.84-60.88-23.78-91.32Z"/>
  <g>
    <path d="M309.5,66.87c-18.66-6.41-38.67-9.9-59.5-9.9s-40.36,3.4-58.82,9.66c-14.96,42.6-24.68,85.5-28.73,128.77h175.71c-4.04-43.19-13.74-86.02-28.65-128.54Z"/>
    <path d="M353.39,195.41h74.23c-13.66-54.48-51.73-99.28-101.91-122.1,14.56,40.7,23.78,81.4,27.68,122.1Z"/>
  </g>
  <g>
    <path d="M339.25,209.05h-177.9c-2.03,30.87-1.15,61.92,2.79,93.18h172.32c3.94-31.26,4.82-62.31,2.79-93.18Z"/>
    <path d="M430.48,209.05h-75.99c2.07,31.06,1.04,62.12-3.1,93.18h70.9c7-19.4,10.82-40.33,10.82-62.14,0-10.58-.91-20.95-2.63-31.04Z"/>
  </g>
  <g>
    <path d="M349.37,315.86c-4.93,30.33-12.82,60.66-23.66,90.99,40.25-18.3,72.72-50.75,91.04-90.99h-67.37Z"/>
    <path d="M334.54,315.86h-168.49c4.99,32.32,13.28,64.86,25.04,97.65,18.49,6.28,38.3,9.69,58.91,9.69s40.91-3.49,59.59-9.92c11.72-32.71,19.97-65.18,24.95-97.42Z"/>
  </g>
</svg>