<?xml version="1.0" encoding="UTF-8"?>
<svg xmlns="http://www.w3.org/2000/svg" viewBox="0 0 1920 1080">
  <defs>
    <style>
      .cls-1 {
        fill: #ebebeb;
      }

      .cls-2 {
        opacity: .1;
      }

      .cls-3 {
        fill: gray;
      }
    </style>
  </defs>
  <g id="Layer_3" data-name="Layer 3">
    <rect class="cls-1" width="1920" height="1080"/>
  </g>
  <g id="Layer_5" data-name="Layer 5">
    <g class="cls-2">
      <polygon class="cls-3" points="100.02 977.74 58.11 961.26 46.88 966.15 14.49 1048.5 19.1 1059.09 69.08 1078.75 80.31 1073.86 109.52 999.57 100.02 977.74"/>
      <polygon class="cls-1" points="88.63 995.53 106.74 1001.47 96.62 978.23 88.63 995.53"/>
      <path class="cls-1" d="M53.33,1044.92c2.16.85,3.69,2.32,4.59,4.42.9,2.1.93,4.23.08,6.39-.85,2.16-2.33,3.69-4.43,4.61-2.11.92-4.22.96-6.35.12-2.13-.84-3.65-2.31-4.57-4.42-.92-2.11-.95-4.24-.1-6.39.85-2.16,2.32-3.69,4.43-4.61,2.11-.92,4.22-.96,6.35-.12ZM56.89,1040.36l-3.28-1.29,1.19-3.16c1.28-3.26,2.61-5.87,3.99-7.83s3.36-4.04,5.95-6.24c3.6-3,5.94-5.23,7.03-6.67,1.5-1.97,2.7-4.09,3.59-6.36,1.41-3.59,1.73-6.62.96-9.1-.77-2.48-2.37-4.2-4.79-5.15-1.89-.74-3.66-.88-5.3-.43-1.65.46-2.66,1.17-3.04,2.12-.31.78-.11,1.67.61,2.68,1.25,1.74,1.98,2.96,2.19,3.66.32,1.3.21,2.64-.33,4.02-.72,1.83-2,3.15-3.85,3.98-1.85.83-3.67.89-5.47.18-1.98-.78-3.37-2.22-4.19-4.32-.82-2.1-.73-4.41.26-6.93,1.6-4.07,4.62-6.93,9.05-8.58s9.3-1.43,14.6.66c5.21,2.05,8.87,5.32,10.98,9.81,2.11,4.49,2.28,8.98.51,13.47-.72,1.83-1.73,3.52-3.04,5.1-1.31,1.57-2.74,2.83-4.29,3.78-1.55.95-4.17,2.04-7.88,3.28-3.62,1.2-6.23,2.31-7.82,3.33-1.59,1.01-3.02,2.3-4.27,3.87-1.25,1.56-2.38,3.6-3.36,6.11Z"/>
    </g>
    <g class="cls-2">
      <polygon class="cls-3" points="159.52 879.13 117.62 895.62 112.73 906.85 145.14 989.2 155.73 993.81 205.7 974.14 210.59 962.91 181.36 888.63 159.52 879.13"/>
      <polygon class="cls-1" points="163.31 899.91 180.61 891.91 157.37 881.8 163.31 899.91"/>
      <path class="cls-1" d="M170.62,954.34l-3.28,1.29-1.28-3.12c-1.28-3.26-2.09-6.08-2.42-8.45-.33-2.37-.29-5.25.11-8.62.59-4.65.79-7.88.61-9.67-.24-2.46-.81-4.83-1.71-7.1-1.41-3.59-3.25-6.03-5.5-7.32-2.26-1.29-4.59-1.46-7.02-.5-1.89.74-3.28,1.84-4.17,3.3-.9,1.46-1.15,2.67-.78,3.62.31.78,1.06,1.29,2.27,1.55,2.1.42,3.47.81,4.1,1.19,1.12.74,1.95,1.79,2.49,3.17.72,1.83.68,3.67-.1,5.54-.79,1.87-2.08,3.15-3.88,3.86-1.98.78-3.98.68-6.01-.31-2.03-.98-3.54-2.73-4.53-5.25-1.6-4.07-1.34-8.22.78-12.45,2.12-4.22,5.83-7.38,11.14-9.47,5.21-2.05,10.12-2.15,14.72-.3,4.6,1.85,7.79,5.02,9.55,9.51.72,1.82,1.13,3.76,1.25,5.81.11,2.04-.07,3.94-.56,5.69-.49,1.75-1.67,4.34-3.53,7.76-1.83,3.35-2.98,5.93-3.46,7.76-.47,1.83-.64,3.74-.49,5.74.15,2,.71,4.25,1.7,6.77ZM171.13,960.11c2.16-.85,4.28-.81,6.37.11,2.09.92,3.56,2.46,4.41,4.62.85,2.16.81,4.29-.1,6.39-.92,2.11-2.44,3.58-4.56,4.42-2.13.84-4.24.8-6.35-.12-2.11-.92-3.58-2.45-4.43-4.61s-.81-4.29.1-6.39,2.44-3.58,4.56-4.42Z"/>
    </g>
    <g class="cls-2">
      <polygon class="cls-3" points="46.79 772.6 4.89 789.09 0 800.32 32.41 882.67 43 887.28 92.97 867.61 97.86 856.38 68.62 782.1 46.79 772.6"/>
      <polygon class="cls-1" points="50.58 793.38 67.88 785.39 44.63 775.27 50.58 793.38"/>
      <path class="cls-1" d="M57.89,847.81l-3.28,1.29-1.28-3.12c-1.28-3.26-2.09-6.08-2.42-8.45-.33-2.37-.29-5.25.11-8.62.59-4.65.79-7.88.61-9.67-.24-2.46-.81-4.83-1.71-7.1-1.41-3.59-3.25-6.03-5.5-7.32-2.26-1.29-4.6-1.46-7.02-.5-1.88.74-3.28,1.84-4.17,3.3-.9,1.46-1.15,2.67-.78,3.62.31.78,1.06,1.29,2.27,1.55,2.1.42,3.47.81,4.1,1.19,1.12.74,1.95,1.79,2.49,3.17.72,1.83.68,3.67-.1,5.54-.79,1.87-2.08,3.15-3.88,3.86-1.98.78-3.98.68-6.01-.31-2.03-.98-3.54-2.73-4.53-5.25-1.6-4.07-1.34-8.22.78-12.45,2.12-4.22,5.84-7.38,11.14-9.47,5.21-2.05,10.12-2.15,14.72-.3s7.79,5.02,9.55,9.51c.72,1.82,1.13,3.76,1.25,5.81.12,2.04-.07,3.94-.56,5.69-.49,1.75-1.66,4.34-3.53,7.76-1.83,3.35-2.98,5.93-3.46,7.76-.47,1.83-.64,3.74-.49,5.74.15,2,.71,4.25,1.7,6.77ZM58.4,853.58c2.16-.85,4.28-.81,6.37.11,2.09.92,3.56,2.46,4.41,4.62.85,2.16.81,4.29-.1,6.39-.92,2.11-2.44,3.58-4.56,4.42-2.13.84-4.24.8-6.35-.12s-3.58-2.45-4.43-4.61c-.85-2.16-.81-4.29.1-6.39.92-2.11,2.44-3.58,4.56-4.42Z"/>
    </g>
    <g class="cls-2">
      <polygon class="cls-3" points="179.27 705.31 137.98 687.34 126.58 691.83 91.27 772.97 95.5 783.72 144.74 805.15 156.14 800.66 187.99 727.47 179.27 705.31"/>
      <polygon class="cls-1" points="167.25 722.68 185.13 729.26 175.85 705.68 167.25 722.68"/>
      <path class="cls-1" d="M130.21,770.78c2.12.93,3.6,2.45,4.43,4.59s.78,4.26-.15,6.38c-.92,2.12-2.46,3.61-4.59,4.45-2.14.84-4.26.81-6.35-.11-2.1-.91-3.56-2.44-4.41-4.57-.84-2.14-.8-4.27.12-6.39.92-2.12,2.46-3.61,4.59-4.45,2.14-.84,4.25-.81,6.35.1ZM133.93,766.35l-3.23-1.41,1.3-3.12c1.4-3.21,2.82-5.78,4.27-7.69,1.45-1.91,3.5-3.92,6.17-6.02,3.71-2.88,6.13-5.01,7.26-6.41,1.57-1.91,2.84-3.99,3.82-6.23,1.54-3.54,1.97-6.56,1.29-9.06-.68-2.51-2.22-4.28-4.61-5.32-1.86-.81-3.62-1.01-5.29-.61-1.67.4-2.7,1.07-3.11,2.01-.33.77-.16,1.66.51,2.7,1.19,1.78,1.88,3.03,2.06,3.74.27,1.31.11,2.65-.48,4-.78,1.8-2.11,3.08-3.99,3.84-1.88.76-3.7.76-5.47-.01-1.95-.85-3.29-2.34-4.03-4.46s-.57-4.43.51-6.91c1.75-4.01,4.86-6.76,9.35-8.25,4.49-1.49,9.34-1.09,14.57,1.18,5.13,2.23,8.67,5.63,10.62,10.2,1.94,4.56,1.96,9.05.03,13.48-.78,1.8-1.86,3.46-3.22,4.99-1.37,1.53-2.84,2.73-4.42,3.62-1.58.89-4.24,1.89-7.99,2.99-3.66,1.07-6.3,2.09-7.93,3.04-1.63.96-3.1,2.19-4.41,3.71-1.31,1.52-2.5,3.51-3.58,5.99Z"/>
    </g>
    <g class="cls-2">
      <polygon class="cls-3" points="53.25 616.52 9 624.88 2.1 635 18.54 721.95 28.08 728.46 80.85 718.49 87.75 708.37 72.92 629.93 53.25 616.52"/>
      <polygon class="cls-1" points="53.08 637.64 71.57 633.02 50.63 618.74 53.08 637.64"/>
      <path class="cls-1" d="M50.09,692.48l-3.46.65-.67-3.31c-.65-3.44-.92-6.36-.8-8.76s.69-5.21,1.72-8.45c1.45-4.46,2.25-7.59,2.4-9.38.22-2.46.11-4.9-.35-7.3-.72-3.79-2.06-6.53-4.04-8.22-1.97-1.69-4.24-2.29-6.8-1.81-1.99.38-3.57,1.2-4.72,2.46-1.15,1.27-1.63,2.4-1.44,3.42.16.82.8,1.47,1.94,1.94,1.99.8,3.25,1.45,3.8,1.93.96.93,1.58,2.12,1.86,3.58.36,1.93-.01,3.74-1.14,5.42-1.12,1.69-2.63,2.71-4.53,3.07-2.09.39-4.04-.08-5.84-1.43-1.81-1.34-2.97-3.34-3.47-6-.81-4.3.22-8.33,3.1-12.08,2.88-3.75,7.11-6.16,12.71-7.22,5.5-1.04,10.34-.22,14.51,2.46s6.71,6.39,7.61,11.13c.36,1.93.41,3.91.14,5.94-.27,2.03-.81,3.86-1.62,5.48-.81,1.62-2.45,3.95-4.92,6.97-2.42,2.95-4.04,5.27-4.85,6.98-.81,1.71-1.33,3.56-1.56,5.55-.23,1.99-.09,4.31.41,6.96ZM49.51,698.24c2.28-.43,4.36,0,6.24,1.3,1.88,1.3,3.04,3.08,3.47,5.36.43,2.28,0,4.36-1.3,6.26-1.29,1.9-3.06,3.06-5.31,3.49-2.25.42-4.32-.01-6.21-1.31-1.9-1.29-3.06-3.08-3.49-5.36-.43-2.28,0-4.36,1.3-6.26,1.29-1.9,3.06-3.06,5.31-3.48Z"/>
    </g>
    <g class="cls-2">
      <polygon class="cls-3" points="163.51 540.32 118.86 534.48 109.15 541.95 97.68 629.7 104.72 638.85 157.97 645.81 167.68 638.35 178.02 559.2 163.51 540.32"/>
      <polygon class="cls-1" points="156.77 560.34 175.78 561.71 160.33 541.62 156.77 560.34"/>
      <path class="cls-1" d="M136.84,611.52l-3.49-.46.39-3.35c.45-3.48,1.11-6.33,1.97-8.57.86-2.24,2.28-4.74,4.27-7.49,2.77-3.79,4.5-6.51,5.21-8.17.98-2.27,1.63-4.62,1.94-7.04.5-3.82.07-6.85-1.27-9.07-1.35-2.22-3.31-3.5-5.9-3.83-2.01-.26-3.76.03-5.25.87-1.49.84-2.3,1.78-2.43,2.8-.11.83.3,1.65,1.24,2.45,1.64,1.38,2.64,2.39,3.01,3.02.62,1.19.84,2.51.65,3.98-.25,1.95-1.18,3.55-2.77,4.8-1.59,1.25-3.35,1.75-5.26,1.5-2.11-.28-3.81-1.33-5.11-3.18-1.3-1.84-1.78-4.1-1.43-6.78.57-4.34,2.8-7.84,6.71-10.51,3.9-2.67,8.68-3.64,14.33-2.9,5.55.73,9.89,3.01,13.03,6.86,3.13,3.85,4.38,8.16,3.76,12.94-.25,1.94-.83,3.84-1.72,5.68s-1.97,3.42-3.24,4.71c-1.27,1.29-3.55,2.99-6.85,5.09-3.22,2.04-5.48,3.75-6.78,5.12-1.3,1.37-2.37,2.97-3.21,4.79s-1.43,4.07-1.78,6.75ZM134.49,616.81c2.3.3,4.14,1.36,5.52,3.18,1.38,1.82,1.93,3.88,1.63,6.18-.3,2.3-1.36,4.15-3.18,5.55-1.82,1.4-3.87,1.95-6.13,1.66-2.27-.3-4.1-1.36-5.5-3.18-1.4-1.82-1.95-3.88-1.65-6.18s1.36-4.15,3.18-5.55c1.82-1.4,3.86-1.95,6.13-1.66Z"/>
    </g>
    <g class="cls-2">
      <polygon class="cls-3" points="203.68 1030.17 159.03 1024.34 149.32 1031.8 137.85 1119.55 144.89 1128.7 198.14 1135.66 207.85 1128.2 218.2 1049.05 203.68 1030.17"/>
      <polygon class="cls-1" points="196.94 1050.19 215.95 1051.56 200.5 1031.47 196.94 1050.19"/>
      <path class="cls-1" d="M177.01,1101.37l-3.5-.46.39-3.35c.45-3.47,1.11-6.33,1.97-8.57.86-2.24,2.28-4.74,4.26-7.49,2.77-3.79,4.5-6.51,5.21-8.17.98-2.27,1.63-4.62,1.94-7.04.5-3.82.08-6.85-1.27-9.07-1.35-2.22-3.32-3.5-5.9-3.83-2.01-.26-3.76.03-5.25.87-1.49.84-2.3,1.78-2.43,2.8-.11.83.3,1.65,1.24,2.45,1.64,1.38,2.64,2.39,3.01,3.02.62,1.18.84,2.51.65,3.98-.25,1.95-1.18,3.55-2.77,4.8-1.59,1.25-3.35,1.75-5.26,1.5-2.11-.28-3.81-1.33-5.11-3.18-1.3-1.84-1.78-4.1-1.43-6.78.57-4.34,2.8-7.84,6.71-10.51,3.9-2.67,8.68-3.64,14.33-2.9,5.55.73,9.89,3.01,13.03,6.86,3.13,3.85,4.39,8.16,3.76,12.94-.25,1.94-.83,3.84-1.72,5.68-.89,1.85-1.97,3.42-3.24,4.71-1.27,1.29-3.55,2.99-6.85,5.09-3.22,2.04-5.48,3.75-6.78,5.12-1.3,1.37-2.37,2.97-3.21,4.79s-1.43,4.07-1.78,6.75ZM174.67,1106.66c2.3.3,4.14,1.36,5.52,3.18,1.38,1.82,1.93,3.88,1.63,6.18-.3,2.3-1.36,4.15-3.18,5.55-1.82,1.4-3.87,1.95-6.13,1.66-2.27-.3-4.1-1.36-5.5-3.18-1.4-1.82-1.95-3.88-1.65-6.18.3-2.3,1.36-4.15,3.18-5.55,1.82-1.4,3.86-1.95,6.13-1.66Z"/>
    </g>
    <g class="cls-2">
      <polygon class="cls-3" points="52.16 462.62 7.51 456.78 -2.2 464.25 -13.67 551.99 -6.63 561.15 46.62 568.11 56.33 560.64 66.68 481.49 52.16 462.62"/>
      <polygon class="cls-1" points="45.42 482.64 64.43 484.01 48.98 463.91 45.42 482.64"/>
      <path class="cls-1" d="M25.5,533.81l-3.5-.46.39-3.35c.45-3.48,1.11-6.33,1.97-8.57.86-2.24,2.28-4.74,4.26-7.49,2.77-3.79,4.5-6.51,5.21-8.17.98-2.27,1.63-4.62,1.94-7.04.5-3.82.08-6.85-1.27-9.07-1.35-2.22-3.32-3.5-5.9-3.83-2.01-.26-3.76.03-5.25.87-1.49.84-2.3,1.78-2.43,2.8-.11.83.3,1.65,1.24,2.45,1.64,1.38,2.64,2.39,3.01,3.02.62,1.18.84,2.51.65,3.98-.25,1.95-1.18,3.55-2.77,4.8-1.59,1.25-3.35,1.75-5.26,1.5-2.11-.28-3.81-1.33-5.11-3.18-1.3-1.84-1.78-4.1-1.43-6.78.57-4.34,2.8-7.84,6.71-10.51,3.9-2.67,8.68-3.64,14.33-2.9,5.55.73,9.89,3.01,13.03,6.86,3.13,3.85,4.39,8.16,3.76,12.94-.25,1.94-.83,3.84-1.72,5.68-.89,1.85-1.97,3.42-3.24,4.71-1.27,1.29-3.55,2.99-6.85,5.09-3.22,2.04-5.48,3.75-6.78,5.12-1.3,1.37-2.37,2.97-3.21,4.79s-1.43,4.07-1.78,6.75ZM23.15,539.1c2.3.3,4.14,1.36,5.52,3.18,1.38,1.82,1.93,3.88,1.63,6.18-.3,2.3-1.36,4.15-3.18,5.55-1.82,1.4-3.87,1.95-6.13,1.66-2.27-.3-4.1-1.36-5.5-3.18-1.4-1.82-1.95-3.88-1.65-6.18.3-2.3,1.36-4.15,3.18-5.55,1.82-1.4,3.86-1.95,6.13-1.66Z"/>
    </g>
    <g class="cls-2">
      <polygon class="cls-3" points="114.63 376.75 70.94 387.67 64.64 398.17 86.1 484.02 96.01 489.96 148.11 476.94 154.41 466.44 135.05 389 114.63 376.75"/>
      <polygon class="cls-1" points="115.69 397.84 133.88 392.16 112.14 379.12 115.69 397.84"/>
      <path class="cls-1" d="M115.89,452.76l-3.42.85-.87-3.26c-.85-3.4-1.29-6.3-1.3-8.7-.02-2.4.39-5.24,1.22-8.53,1.19-4.54,1.8-7.71,1.85-9.51.08-2.47-.18-4.89-.77-7.26-.94-3.74-2.44-6.4-4.51-7.97-2.07-1.57-4.37-2.04-6.89-1.41-1.97.49-3.49,1.4-4.57,2.73-1.08,1.33-1.49,2.5-1.24,3.49.2.81.88,1.42,2.05,1.83,2.03.69,3.33,1.26,3.91,1.71,1.01.88,1.7,2.03,2.06,3.47.48,1.91.2,3.73-.82,5.48-1.02,1.75-2.47,2.86-4.34,3.33-2.06.52-4.03.15-5.92-1.08-1.88-1.24-3.15-3.17-3.81-5.79-1.06-4.25-.26-8.33,2.39-12.24,2.65-3.91,6.74-6.56,12.27-7.94,5.43-1.36,10.31-.82,14.63,1.61,4.32,2.43,7.07,5.99,8.24,10.67.47,1.9.64,3.88.48,5.92s-.58,3.9-1.29,5.57c-.71,1.67-2.21,4.08-4.51,7.24-2.25,3.08-3.73,5.5-4.43,7.25-.71,1.75-1.12,3.63-1.23,5.63s.16,4.31.81,6.93ZM115.64,458.55c2.25-.56,4.35-.25,6.3.94,1.96,1.19,3.21,2.9,3.78,5.15.56,2.25.25,4.36-.93,6.33-1.18,1.97-2.88,3.23-5.1,3.79-2.22.55-4.31.24-6.28-.94-1.97-1.18-3.24-2.9-3.8-5.14-.56-2.25-.25-4.36.93-6.33,1.18-1.97,2.88-3.23,5.1-3.79Z"/>
    </g>
    <g class="cls-2">
      <polygon class="cls-3" points="31.61 239 -12.08 249.93 -18.38 260.43 3.08 346.28 12.99 352.22 65.09 339.2 71.39 328.69 52.03 251.25 31.61 239"/>
      <polygon class="cls-1" points="32.67 260.1 50.86 254.42 29.12 241.38 32.67 260.1"/>
      <path class="cls-1" d="M32.87,315.02l-3.42.86-.87-3.26c-.85-3.4-1.29-6.3-1.3-8.69-.02-2.4.39-5.24,1.22-8.53,1.19-4.54,1.8-7.71,1.85-9.51.08-2.47-.18-4.89-.77-7.26-.94-3.74-2.44-6.4-4.51-7.97-2.07-1.57-4.37-2.04-6.89-1.41-1.97.49-3.49,1.4-4.57,2.73-1.08,1.33-1.49,2.5-1.24,3.49.2.81.88,1.42,2.05,1.83,2.03.69,3.33,1.26,3.91,1.71,1.01.87,1.7,2.03,2.06,3.46.48,1.9.2,3.73-.82,5.48-1.02,1.75-2.47,2.86-4.34,3.33-2.06.52-4.03.15-5.92-1.08-1.88-1.24-3.15-3.17-3.81-5.79-1.06-4.25-.26-8.33,2.39-12.24,2.65-3.91,6.74-6.56,12.27-7.94,5.43-1.36,10.31-.82,14.63,1.61,4.32,2.43,7.07,5.99,8.24,10.67.47,1.9.64,3.88.48,5.92s-.58,3.9-1.29,5.57-2.21,4.08-4.51,7.24c-2.25,3.08-3.73,5.5-4.43,7.25-.71,1.75-1.12,3.63-1.23,5.63s.16,4.31.81,6.93ZM32.62,320.8c2.25-.56,4.35-.25,6.3.94,1.96,1.19,3.21,2.9,3.78,5.15.56,2.25.25,4.36-.93,6.33-1.18,1.97-2.88,3.23-5.1,3.79-2.22.55-4.31.24-6.28-.94-1.97-1.18-3.24-2.9-3.8-5.14-.56-2.25-.25-4.36.93-6.33,1.18-1.97,2.88-3.23,5.1-3.79Z"/>
    </g>
    <g class="cls-2">
      <polygon class="cls-3" points="175.36 245.02 134.94 225.16 123.35 229.12 84.33 308.54 88.06 319.47 136.26 343.15 147.86 339.2 183.05 267.55 175.36 245.02"/>
      <polygon class="cls-1" points="162.56 261.81 180.12 269.21 171.93 245.22 162.56 261.81"/>
      <path class="cls-1" d="M123.34,308.15c2.08,1.02,3.48,2.62,4.21,4.78s.58,4.29-.44,6.37c-1.02,2.08-2.62,3.49-4.79,4.23-2.18.74-4.29.61-6.34-.4-2.05-1.01-3.45-2.6-4.19-4.77-.74-2.17-.6-4.3.42-6.38s2.62-3.49,4.79-4.23c2.17-.74,4.29-.61,6.34.4ZM127.26,303.89l-3.16-1.55,1.45-3.05c1.54-3.15,3.08-5.64,4.62-7.48,1.53-1.84,3.68-3.75,6.44-5.73,3.83-2.7,6.35-4.72,7.55-6.07,1.66-1.84,3.02-3.85,4.1-6.04,1.7-3.46,2.27-6.46,1.7-9-.57-2.53-2.02-4.38-4.36-5.53-1.82-.89-3.57-1.18-5.25-.86-1.68.32-2.75.95-3.2,1.87-.37.75-.24,1.66.39,2.72,1.11,1.83,1.73,3.11,1.88,3.83.21,1.32,0,2.65-.66,3.98-.87,1.76-2.25,2.98-4.16,3.66-1.91.67-3.73.59-5.46-.26-1.91-.94-3.18-2.49-3.82-4.65-.64-2.16-.37-4.46.83-6.88,1.93-3.93,5.17-6.53,9.73-7.81,4.55-1.28,9.38-.66,14.5,1.85,5.02,2.47,8.4,6.03,10.14,10.68,1.73,4.65,1.53,9.13-.59,13.46-.87,1.76-2.02,3.37-3.45,4.83-1.44,1.46-2.96,2.6-4.58,3.42-1.62.82-4.33,1.69-8.12,2.62-3.71.9-6.39,1.79-8.06,2.67-1.67.88-3.19,2.05-4.57,3.5-1.38,1.45-2.66,3.39-3.85,5.82Z"/>
    </g>
    <g class="cls-2">
      <polygon class="cls-3" points="76.81 96.12 32.32 103.02 25.08 112.91 38.65 200.35 47.97 207.17 101.04 198.94 108.27 189.05 96.03 110.17 76.81 96.12"/>
      <polygon class="cls-1" points="75.95 117.22 94.58 113.22 74.12 98.25 75.95 117.22"/>
      <path class="cls-1" d="M71.15,171.93l-3.48.54-.56-3.33c-.54-3.46-.71-6.39-.51-8.78.2-2.39.86-5.18,1.99-8.39,1.6-4.41,2.5-7.51,2.71-9.3.3-2.46.27-4.89-.11-7.3-.59-3.81-1.85-6.59-3.76-8.35-1.92-1.75-4.16-2.43-6.74-2.03-2,.31-3.6,1.08-4.8,2.31-1.19,1.23-1.71,2.35-1.55,3.37.13.83.75,1.5,1.87,2,1.96.87,3.21,1.55,3.74,2.06.93.96,1.51,2.18,1.74,3.64.3,1.94-.14,3.73-1.31,5.38-1.18,1.65-2.72,2.62-4.63,2.92-2.1.33-4.03-.21-5.79-1.62-1.77-1.4-2.86-3.44-3.27-6.11-.67-4.32.49-8.31,3.49-11.97s7.31-5.92,12.94-6.79c5.53-.86,10.34.12,14.43,2.94,4.08,2.81,6.49,6.6,7.23,11.37.3,1.94.28,3.92-.06,5.94-.34,2.02-.94,3.83-1.8,5.43-.86,1.6-2.57,3.86-5.15,6.8-2.52,2.86-4.21,5.14-5.07,6.81-.86,1.68-1.44,3.51-1.74,5.49-.3,1.98-.23,4.31.18,6.97ZM70.38,177.67c2.29-.35,4.35.15,6.19,1.51,1.84,1.36,2.94,3.18,3.29,5.47.35,2.29-.15,4.36-1.5,6.22s-3.16,2.96-5.42,3.31c-2.26.35-4.31-.15-6.17-1.51-1.86-1.36-2.96-3.18-3.31-5.47-.36-2.29.14-4.36,1.5-6.22,1.36-1.85,3.16-2.96,5.42-3.31Z"/>
    </g>
    <g class="cls-2">
      <polygon class="cls-3" points="214.75 57.01 171.93 43.08 161.01 48.64 133.64 132.79 138.88 143.08 189.95 159.69 200.87 154.14 225.56 78.23 214.75 57.01"/>
      <polygon class="cls-1" points="204.46 75.45 222.89 80.29 211.39 57.7 204.46 75.45"/>
      <path class="cls-1" d="M172.2,126.87c2.2.72,3.82,2.1,4.85,4.14,1.03,2.04,1.18,4.17.47,6.37s-2.1,3.83-4.15,4.87c-2.05,1.04-4.16,1.21-6.33.5-2.17-.71-3.78-2.08-4.82-4.13s-1.21-4.17-.49-6.38,2.1-3.83,4.15-4.87c2.05-1.04,4.16-1.21,6.33-.5ZM175.48,122.1l-3.35-1.09,1-3.22c1.08-3.33,2.25-6.02,3.51-8.06,1.26-2.04,3.11-4.24,5.57-6.58,3.41-3.22,5.62-5.57,6.62-7.08,1.38-2.05,2.45-4.24,3.2-6.56,1.19-3.67,1.33-6.72.41-9.15-.92-2.43-2.62-4.05-5.1-4.85-1.93-.63-3.7-.66-5.32-.11-1.62.56-2.59,1.32-2.9,2.3-.26.8,0,1.67.77,2.63,1.36,1.66,2.16,2.83,2.41,3.52.4,1.28.37,2.62-.09,4.03-.61,1.87-1.81,3.27-3.6,4.21-1.8.94-3.61,1.11-5.45.51-2.02-.66-3.5-2.01-4.44-4.06-.94-2.05-.99-4.36-.16-6.93,1.35-4.16,4.19-7.2,8.52-9.11s9.2-1.98,14.62-.22c5.32,1.73,9.17,4.78,11.55,9.13,2.37,4.36,2.81,8.83,1.32,13.41-.61,1.86-1.52,3.62-2.73,5.27-1.21,1.65-2.56,3-4.05,4.03-1.49,1.04-4.04,2.29-7.66,3.74-3.54,1.42-6.08,2.68-7.6,3.79-1.53,1.11-2.87,2.48-4.03,4.12-1.16,1.63-2.16,3.74-2.99,6.3Z"/>
    </g>
    <g class="cls-2">
      <polygon class="cls-3" points="68.5 -56.18 26.06 -41.12 20.8 -30.06 50.39 53.34 60.82 58.3 111.43 40.35 116.69 29.29 90 -45.94 68.5 -56.18"/>
      <path class="cls-1" d="M77.04,19.37l-3.32,1.18-1.17-3.16c-1.17-3.3-1.88-6.15-2.13-8.53-.25-2.38-.12-5.26.4-8.61.75-4.63,1.06-7.84.93-9.64-.16-2.47-.65-4.85-1.46-7.16-1.29-3.63-3.04-6.13-5.25-7.5-2.21-1.37-4.54-1.61-7-.74-1.91.68-3.34,1.73-4.28,3.16-.95,1.43-1.25,2.63-.9,3.6.28.79,1.02,1.33,2.21,1.62,2.09.49,3.44.93,4.06,1.33,1.09.77,1.89,1.86,2.38,3.25.66,1.85.56,3.69-.29,5.53-.85,1.84-2.19,3.08-4.01,3.73-2,.71-4,.54-5.99-.51-1.99-1.05-3.45-2.85-4.35-5.4-1.46-4.12-1.06-8.26,1.21-12.41,2.27-4.15,6.08-7.18,11.45-9.08,5.28-1.87,10.18-1.81,14.72.2,4.54,2.01,7.61,5.28,9.22,9.83.66,1.85,1.01,3.8,1.05,5.84.04,2.05-.21,3.94-.76,5.67-.55,1.73-1.81,4.28-3.79,7.64-1.94,3.28-3.18,5.83-3.72,7.64-.54,1.81-.76,3.72-.69,5.72.08,2,.57,4.28,1.47,6.82ZM77.35,25.15c2.19-.78,4.31-.67,6.37.33,2.06.99,3.48,2.58,4.25,4.77.77,2.18.67,4.31-.32,6.39-.99,2.08-2.56,3.5-4.71,4.26-2.15.76-4.27.65-6.34-.34-2.08-.99-3.5-2.57-4.27-4.76-.78-2.18-.67-4.31.32-6.39.99-2.07,2.56-3.49,4.71-4.26Z"/>
    </g>
    <g class="cls-2">
      <polygon class="cls-3" points="1816.62 977.74 1774.72 961.26 1763.49 966.15 1731.1 1048.5 1735.71 1059.09 1785.68 1078.75 1796.91 1073.86 1826.13 999.57 1816.62 977.74"/>
      <polygon class="cls-1" points="1805.23 995.53 1823.34 1001.47 1813.22 978.23 1805.23 995.53"/>
      <path class="cls-1" d="M1769.94,1044.92c2.16.85,3.69,2.32,4.59,4.42.9,2.1.93,4.23.08,6.39-.85,2.16-2.33,3.69-4.43,4.61-2.11.92-4.22.96-6.35.12-2.13-.84-3.65-2.31-4.57-4.42-.92-2.11-.95-4.24-.1-6.39.85-2.16,2.32-3.69,4.43-4.61,2.11-.92,4.22-.96,6.35-.12ZM1773.5,1040.36l-3.28-1.29,1.19-3.16c1.28-3.26,2.61-5.87,3.99-7.83s3.36-4.04,5.95-6.24c3.6-3,5.94-5.23,7.03-6.67,1.5-1.97,2.7-4.09,3.59-6.36,1.41-3.59,1.73-6.62.96-9.1-.77-2.48-2.37-4.2-4.79-5.15-1.89-.74-3.66-.88-5.3-.43-1.65.46-2.66,1.17-3.04,2.12-.31.78-.11,1.67.61,2.68,1.25,1.74,1.98,2.96,2.19,3.66.32,1.3.21,2.64-.33,4.02-.72,1.83-2,3.15-3.85,3.98-1.85.83-3.67.89-5.47.18-1.98-.78-3.37-2.22-4.19-4.32-.82-2.1-.73-4.41.26-6.93,1.6-4.07,4.62-6.93,9.05-8.58s9.3-1.43,14.6.66c5.21,2.05,8.87,5.32,10.98,9.81,2.11,4.49,2.28,8.98.51,13.47-.72,1.83-1.73,3.52-3.04,5.1-1.31,1.57-2.74,2.83-4.29,3.78-1.55.95-4.17,2.04-7.88,3.28-3.62,1.2-6.23,2.31-7.82,3.33-1.59,1.01-3.02,2.3-4.27,3.87-1.25,1.56-2.38,3.6-3.36,6.11Z"/>
    </g>
    <g class="cls-2">
      <polygon class="cls-3" points="1876.13 879.13 1834.23 895.62 1829.34 906.85 1861.75 989.2 1872.34 993.81 1922.31 974.14 1927.2 962.91 1897.96 888.63 1876.13 879.13"/>
      <polygon class="cls-1" points="1879.91 899.91 1897.21 891.91 1873.97 881.8 1879.91 899.91"/>
      <path class="cls-1" d="M1887.23,954.34l-3.28,1.29-1.28-3.12c-1.28-3.26-2.09-6.08-2.42-8.45-.33-2.37-.29-5.25.11-8.62.59-4.65.79-7.88.61-9.67-.24-2.46-.81-4.83-1.71-7.1-1.41-3.59-3.25-6.03-5.5-7.32-2.26-1.29-4.59-1.46-7.02-.5-1.89.74-3.28,1.84-4.17,3.3-.9,1.46-1.15,2.67-.78,3.62.31.78,1.06,1.29,2.27,1.55,2.1.42,3.47.81,4.1,1.19,1.12.74,1.95,1.79,2.49,3.17.72,1.83.68,3.67-.1,5.54-.79,1.87-2.08,3.15-3.88,3.86-1.98.78-3.98.68-6.01-.31-2.03-.98-3.54-2.73-4.53-5.25-1.6-4.07-1.34-8.22.78-12.45,2.12-4.22,5.83-7.38,11.14-9.47,5.21-2.05,10.12-2.15,14.72-.3,4.6,1.85,7.79,5.02,9.55,9.51.72,1.82,1.13,3.76,1.25,5.81.11,2.04-.07,3.94-.56,5.69-.49,1.75-1.67,4.34-3.53,7.76-1.83,3.35-2.98,5.93-3.46,7.76-.47,1.83-.64,3.74-.49,5.74.15,2,.71,4.25,1.7,6.77ZM1887.74,960.11c2.16-.85,4.28-.81,6.37.11,2.09.92,3.56,2.46,4.41,4.62.85,2.16.81,4.29-.1,6.39-.92,2.11-2.44,3.58-4.56,4.42-2.13.84-4.24.8-6.35-.12-2.11-.92-3.58-2.45-4.43-4.61s-.81-4.29.1-6.39,2.44-3.58,4.56-4.42Z"/>
    </g>
    <g class="cls-2">
      <polygon class="cls-3" points="1795.71 810.68 1753.07 796.21 1742.09 801.63 1713.65 885.43 1718.76 895.78 1769.61 913.04 1780.6 907.62 1806.25 832.03 1795.71 810.68"/>
      <polygon class="cls-1" points="1785.18 828.99 1803.55 834.06 1792.34 811.33 1785.18 828.99"/>
      <path class="cls-1" d="M1752.28,880c2.2.75,3.79,2.15,4.79,4.2,1,2.06,1.13,4.18.38,6.38-.74,2.19-2.15,3.8-4.21,4.82-2.06,1.02-4.17,1.16-6.34.42-2.16-.73-3.75-2.13-4.77-4.19-1.02-2.06-1.15-4.19-.41-6.38.75-2.19,2.15-3.8,4.21-4.82,2.06-1.02,4.17-1.16,6.34-.42ZM1755.62,875.27l-3.34-1.13,1.04-3.21c1.13-3.32,2.33-5.99,3.61-8.02s3.17-4.2,5.65-6.51c3.46-3.17,5.69-5.5,6.71-6.99,1.4-2.04,2.5-4.21,3.28-6.52,1.24-3.65,1.41-6.7.53-9.14-.89-2.44-2.57-4.08-5.03-4.92-1.92-.65-3.69-.71-5.32-.17-1.63.54-2.6,1.29-2.93,2.27-.27.79-.03,1.67.73,2.64,1.33,1.68,2.12,2.86,2.36,3.55.38,1.29.33,2.63-.14,4.03-.63,1.86-1.85,3.25-3.65,4.16-1.81.92-3.62,1.06-5.45.44-2.01-.68-3.47-2.05-4.39-4.11-.92-2.06-.94-4.37-.07-6.93,1.41-4.14,4.29-7.14,8.64-9,4.35-1.85,9.22-1.87,14.62-.04,5.3,1.8,9.11,4.89,11.43,9.28,2.32,4.38,2.7,8.86,1.15,13.43-.63,1.86-1.56,3.6-2.8,5.24-1.23,1.63-2.6,2.96-4.1,3.98-1.5,1.02-4.07,2.23-7.71,3.65-3.56,1.37-6.11,2.6-7.65,3.69-1.54,1.09-2.9,2.44-4.08,4.06-1.18,1.62-2.2,3.71-3.07,6.27Z"/>
    </g>
    <g class="cls-2">
      <polygon class="cls-3" points="1838.74 693.74 1799.86 716.46 1796.75 728.31 1841.4 804.72 1852.57 807.65 1898.94 780.55 1902.05 768.7 1861.77 699.78 1838.74 693.74"/>
      <polygon class="cls-1" points="1845.67 713.7 1861.54 703.15 1837.02 696.71 1845.67 713.7"/>
      <path class="cls-1" d="M1861.24,766.36l-3.04,1.78-1.74-2.89c-1.77-3.03-3-5.69-3.69-7.98-.69-2.3-1.09-5.14-1.21-8.53-.13-4.69-.43-7.9-.88-9.65-.62-2.39-1.54-4.65-2.77-6.76-1.95-3.33-4.13-5.46-6.56-6.39-2.43-.93-4.76-.74-7.01.58-1.75,1.02-2.96,2.32-3.62,3.9-.66,1.58-.73,2.81-.21,3.7.42.72,1.25,1.12,2.48,1.18,2.14.09,3.55.27,4.23.54,1.22.55,2.2,1.47,2.95,2.75.99,1.7,1.24,3.52.75,5.49-.49,1.96-1.57,3.43-3.24,4.41-1.83,1.07-3.83,1.28-5.98.62s-3.92-2.16-5.28-4.49c-2.21-3.78-2.58-7.92-1.13-12.42,1.45-4.5,4.64-8.19,9.55-11.06,4.83-2.83,9.67-3.68,14.5-2.55,4.83,1.12,8.46,3.77,10.9,7.93.99,1.69,1.7,3.54,2.12,5.55.43,2,.53,3.91.32,5.71s-.98,4.54-2.3,8.21c-1.3,3.59-2.04,6.32-2.23,8.2-.19,1.88-.06,3.79.39,5.75.45,1.95,1.36,4.09,2.72,6.43ZM1862.62,771.98c2-1.17,4.11-1.46,6.31-.87,2.21.59,3.9,1.89,5.07,3.89,1.17,2,1.46,4.11.88,6.34-.58,2.22-1.86,3.91-3.83,5.06-1.97,1.15-4.07,1.44-6.29.85-2.22-.58-3.92-1.87-5.09-3.88-1.17-2-1.46-4.11-.88-6.33.58-2.22,1.86-3.91,3.83-5.06Z"/>
    </g>
    <g class="cls-2">
      <polygon class="cls-3" points="1751.44 589.84 1707.19 598.21 1700.29 608.32 1716.72 695.28 1726.26 701.79 1779.03 691.81 1785.93 681.69 1771.11 603.26 1751.44 589.84"/>
      <polygon class="cls-1" points="1751.27 610.96 1769.76 606.35 1748.82 592.06 1751.27 610.96"/>
      <path class="cls-1" d="M1748.28,665.8l-3.46.65-.67-3.31c-.65-3.44-.92-6.36-.8-8.76s.69-5.21,1.72-8.45c1.45-4.46,2.25-7.59,2.4-9.39.22-2.46.11-4.9-.35-7.3-.72-3.79-2.06-6.53-4.04-8.22-1.97-1.69-4.24-2.29-6.8-1.81-1.99.38-3.57,1.2-4.72,2.46-1.15,1.27-1.63,2.4-1.44,3.42.16.82.8,1.47,1.94,1.94,1.99.8,3.25,1.45,3.8,1.93.96.93,1.58,2.12,1.86,3.58.36,1.93-.01,3.74-1.14,5.42-1.12,1.69-2.63,2.71-4.53,3.07-2.09.39-4.04-.08-5.84-1.42-1.81-1.34-2.97-3.35-3.47-6-.81-4.3.22-8.33,3.1-12.08,2.88-3.75,7.11-6.16,12.71-7.21,5.5-1.04,10.34-.22,14.51,2.46,4.17,2.68,6.71,6.39,7.61,11.13.36,1.93.41,3.91.14,5.94-.27,2.03-.81,3.86-1.62,5.48-.81,1.62-2.45,3.95-4.92,6.97-2.42,2.95-4.04,5.27-4.85,6.98-.81,1.71-1.33,3.55-1.56,5.54s-.09,4.31.41,6.96ZM1747.69,671.56c2.28-.43,4.36,0,6.24,1.3,1.88,1.3,3.04,3.09,3.47,5.36.43,2.28,0,4.36-1.3,6.26s-3.06,3.06-5.31,3.48-4.32-.01-6.21-1.31c-1.9-1.29-3.06-3.08-3.49-5.36-.43-2.28,0-4.36,1.3-6.26,1.29-1.9,3.06-3.06,5.31-3.48Z"/>
    </g>
    <g class="cls-2">
      <polygon class="cls-3" points="1880.12 540.32 1835.46 534.48 1825.75 541.95 1814.28 629.7 1821.32 638.85 1874.57 645.81 1884.28 638.35 1894.63 559.2 1880.12 540.32"/>
      <polygon class="cls-1" points="1873.37 560.34 1892.38 561.71 1876.93 541.62 1873.37 560.34"/>
      <path class="cls-1" d="M1853.45,611.52l-3.5-.46.39-3.35c.45-3.48,1.11-6.33,1.97-8.57.86-2.24,2.28-4.74,4.26-7.49,2.77-3.79,4.5-6.51,5.21-8.17.98-2.27,1.63-4.62,1.94-7.04.5-3.82.08-6.85-1.27-9.07-1.35-2.22-3.32-3.5-5.9-3.83-2.01-.26-3.76.03-5.25.87-1.49.84-2.3,1.78-2.43,2.8-.11.83.3,1.65,1.24,2.45,1.64,1.38,2.64,2.39,3.01,3.02.62,1.19.84,2.51.65,3.98-.25,1.95-1.18,3.55-2.77,4.8-1.59,1.25-3.35,1.75-5.26,1.5-2.11-.28-3.81-1.33-5.11-3.18-1.3-1.84-1.78-4.1-1.43-6.78.57-4.34,2.8-7.84,6.71-10.51,3.9-2.67,8.68-3.64,14.33-2.9,5.55.73,9.89,3.01,13.03,6.86,3.13,3.85,4.39,8.16,3.76,12.94-.25,1.94-.83,3.84-1.72,5.68-.89,1.85-1.97,3.42-3.24,4.71-1.27,1.29-3.55,2.99-6.85,5.09-3.22,2.04-5.48,3.75-6.78,5.12-1.3,1.37-2.37,2.97-3.21,4.79s-1.43,4.07-1.78,6.75ZM1851.1,616.81c2.3.3,4.14,1.36,5.52,3.18,1.38,1.82,1.93,3.88,1.63,6.18-.3,2.3-1.36,4.15-3.18,5.55-1.82,1.4-3.87,1.95-6.13,1.66-2.27-.3-4.1-1.36-5.5-3.18-1.4-1.82-1.95-3.88-1.65-6.18.3-2.3,1.36-4.15,3.18-5.55,1.82-1.4,3.86-1.95,6.13-1.66Z"/>
    </g>
    <g class="cls-2">
      <polygon class="cls-3" points="1920.29 1030.17 1875.64 1024.34 1865.92 1031.8 1854.46 1119.55 1861.5 1128.7 1914.74 1135.66 1924.46 1128.2 1934.8 1049.05 1920.29 1030.17"/>
      <polygon class="cls-1" points="1913.55 1050.19 1932.56 1051.56 1917.11 1031.47 1913.55 1050.19"/>
      <path class="cls-1" d="M1893.62,1101.37l-3.5-.46.39-3.35c.46-3.47,1.11-6.33,1.97-8.57.86-2.24,2.28-4.74,4.26-7.49,2.77-3.79,4.5-6.51,5.21-8.17.98-2.27,1.62-4.62,1.94-7.04.5-3.82.08-6.85-1.27-9.07-1.35-2.22-3.32-3.5-5.9-3.83-2.01-.26-3.76.03-5.25.87-1.49.84-2.3,1.78-2.43,2.8-.11.83.3,1.65,1.24,2.45,1.64,1.38,2.64,2.39,3.01,3.02.62,1.18.84,2.51.65,3.98-.25,1.95-1.18,3.55-2.77,4.8-1.59,1.25-3.35,1.75-5.26,1.5-2.11-.28-3.81-1.33-5.11-3.18-1.3-1.84-1.78-4.1-1.43-6.78.57-4.34,2.8-7.84,6.71-10.51,3.9-2.67,8.68-3.64,14.33-2.9,5.55.73,9.89,3.01,13.03,6.86,3.13,3.85,4.39,8.16,3.76,12.94-.25,1.94-.83,3.84-1.72,5.68-.89,1.85-1.97,3.42-3.24,4.71-1.27,1.29-3.55,2.99-6.85,5.09-3.22,2.04-5.48,3.75-6.78,5.12-1.3,1.37-2.37,2.97-3.21,4.79s-1.43,4.07-1.78,6.75ZM1891.27,1106.66c2.3.3,4.14,1.36,5.52,3.18,1.38,1.82,1.93,3.88,1.63,6.18s-1.36,4.15-3.18,5.55c-1.82,1.4-3.87,1.95-6.13,1.66-2.27-.3-4.1-1.36-5.5-3.18-1.4-1.82-1.95-3.88-1.65-6.18.3-2.3,1.36-4.15,3.18-5.55,1.82-1.4,3.87-1.95,6.13-1.66Z"/>
    </g>
    <g class="cls-2">
      <polygon class="cls-3" points="1747.36 409.62 1706.94 429.48 1702.99 441.07 1742.03 520.49 1752.96 524.22 1801.15 500.53 1805.11 488.94 1769.9 417.3 1747.36 409.62"/>
      <polygon class="cls-1" points="1752.83 430.02 1769.42 420.64 1745.43 412.46 1752.83 430.02"/>
      <path class="cls-1" d="M1764.57,483.67l-3.16,1.55-1.53-3.01c-1.55-3.15-2.58-5.89-3.1-8.23-.52-2.34-.72-5.21-.6-8.6.21-4.69.14-7.91-.19-9.69-.44-2.43-1.2-4.75-2.28-6.94-1.7-3.46-3.73-5.74-6.08-6.84-2.35-1.1-4.7-1.08-7.04.07-1.82.89-3.12,2.11-3.89,3.63-.77,1.53-.93,2.75-.48,3.68.37.75,1.16,1.2,2.39,1.36,2.13.25,3.52.53,4.18.85,1.18.64,2.09,1.63,2.74,2.95.87,1.76.98,3.6.35,5.53-.63,1.92-1.81,3.31-3.55,4.16-1.91.94-3.91,1-6.01.19-2.1-.81-3.75-2.43-4.94-4.86-1.93-3.93-2.01-8.08-.24-12.47,1.77-4.38,5.21-7.83,10.33-10.34,5.02-2.47,9.91-2.97,14.64-1.5,4.74,1.47,8.17,4.37,10.3,8.7.86,1.76,1.44,3.65,1.72,5.69.28,2.03.25,3.93-.1,5.71s-1.3,4.46-2.88,8.03c-1.55,3.48-2.49,6.16-2.81,8.02-.32,1.86-.33,3.78-.02,5.76.31,1.98,1.06,4.18,2.25,6.6ZM1765.55,489.37c2.08-1.02,4.2-1.16,6.36-.41,2.16.75,3.75,2.16,4.78,4.24,1.02,2.08,1.16,4.21.42,6.38-.74,2.17-2.14,3.77-4.19,4.77-2.05,1.01-4.16,1.14-6.34.4-2.18-.74-3.77-2.15-4.79-4.23-1.02-2.08-1.16-4.21-.42-6.38.74-2.17,2.14-3.77,4.19-4.77Z"/>
    </g>
    <g class="cls-2">
      <polygon class="cls-3" points="1919.46 399.91 1882.15 374.69 1870.13 377.01 1820.56 450.32 1822.75 461.66 1867.24 491.74 1879.27 489.42 1923.98 423.29 1919.46 399.91"/>
      <polygon class="cls-1" points="1904.46 414.79 1920.84 424.53 1916.03 399.65 1904.46 414.79"/>
      <path class="cls-1" d="M1859.25,455.3c1.92,1.3,3.09,3.07,3.51,5.32s-.01,4.33-1.31,6.25c-1.3,1.92-3.08,3.1-5.33,3.53s-4.33.01-6.22-1.27c-1.89-1.28-3.06-3.05-3.49-5.3-.44-2.26,0-4.34,1.29-6.26,1.3-1.92,3.07-3.1,5.33-3.53,2.25-.44,4.33-.01,6.22,1.27ZM1863.72,451.62l-2.92-1.97,1.85-2.82c1.96-2.9,3.83-5.16,5.6-6.78s4.16-3.21,7.17-4.79c4.17-2.15,6.94-3.8,8.31-4.97,1.89-1.59,3.52-3.4,4.89-5.42,2.16-3.2,3.13-6.09,2.92-8.68-.21-2.59-1.4-4.61-3.56-6.07-1.68-1.13-3.38-1.66-5.08-1.57-1.71.09-2.85.56-3.43,1.41-.47.69-.47,1.61,0,2.74.85,1.97,1.29,3.32,1.34,4.05.03,1.34-.38,2.62-1.2,3.85-1.1,1.62-2.64,2.64-4.62,3.05-1.98.41-3.78.07-5.38-1.01-1.76-1.19-2.81-2.9-3.15-5.13s.25-4.46,1.76-6.7c2.45-3.62,6.02-5.76,10.71-6.4,4.68-.64,9.39.64,14.1,3.83,4.64,3.13,7.5,7.12,8.57,11.97,1.08,4.84.27,9.26-2.44,13.26-1.1,1.62-2.46,3.06-4.08,4.31-1.62,1.25-3.29,2.17-5.01,2.75-1.72.59-4.52,1.08-8.4,1.48-3.8.38-6.58.9-8.35,1.54-1.78.64-3.45,1.59-5.01,2.84-1.56,1.25-3.1,3-4.62,5.23Z"/>
    </g>
    <g class="cls-2">
      <polygon class="cls-3" points="1778.88 279.7 1735.2 268.75 1724.69 275.04 1703.17 360.88 1709.11 370.79 1761.2 383.84 1771.71 377.55 1791.12 300.12 1778.88 279.7"/>
      <polygon class="cls-1" points="1769.87 298.8 1788.6 302.36 1775.57 280.62 1769.87 298.8"/>
      <path class="cls-1" d="M1741.23,352.32c2.25.56,3.95,1.83,5.12,3.8,1.17,1.97,1.47,4.08.9,6.32-.56,2.25-1.83,3.96-3.8,5.14-1.97,1.18-4.07,1.49-6.28.94-2.22-.56-3.92-1.82-5.1-3.79-1.18-1.97-1.49-4.08-.93-6.33.56-2.25,1.83-3.96,3.8-5.14,1.97-1.18,4.06-1.5,6.28-.94ZM1744.17,347.34l-3.42-.86.77-3.29c.85-3.4,1.83-6.16,2.95-8.28s2.81-4.44,5.1-6.95c3.18-3.44,5.22-5.95,6.11-7.52,1.23-2.14,2.15-4.4,2.74-6.77.94-3.74.86-6.79-.22-9.15-1.09-2.36-2.89-3.86-5.42-4.49-1.97-.49-3.74-.41-5.32.26-1.58.67-2.49,1.5-2.74,2.5-.2.81.11,1.67.95,2.58,1.46,1.56,2.35,2.68,2.64,3.35.48,1.25.54,2.59.18,4.03-.48,1.9-1.58,3.39-3.3,4.45-1.73,1.06-3.53,1.36-5.4.89-2.06-.52-3.63-1.76-4.71-3.74-1.08-1.98-1.29-4.28-.63-6.9,1.06-4.24,3.69-7.47,7.87-9.67,4.19-2.2,9.04-2.61,14.56-1.23,5.43,1.36,9.48,4.13,12.15,8.32,2.67,4.18,3.42,8.61,2.24,13.29-.48,1.9-1.26,3.72-2.36,5.45-1.1,1.73-2.35,3.16-3.77,4.3-1.41,1.14-3.88,2.56-7.39,4.26-3.44,1.66-5.88,3.09-7.32,4.3-1.45,1.21-2.7,2.67-3.74,4.38-1.04,1.71-1.89,3.88-2.55,6.5Z"/>
    </g>
    <g class="cls-2">
      <polygon class="cls-3" points="1859.44 212.29 1816.35 225.37 1810.58 236.18 1836.29 320.85 1846.48 326.29 1897.86 310.69 1903.63 299.89 1880.44 223.51 1859.44 212.29"/>
      <polygon class="cls-1" points="1861.55 233.31 1879.43 226.72 1857.08 214.78 1861.55 233.31"/>
      <path class="cls-1" d="M1864.48,288.15l-3.37,1.02-1.03-3.21c-1.02-3.35-1.6-6.23-1.74-8.62s.13-5.25.8-8.58c.96-4.59,1.42-7.79,1.38-9.59-.04-2.47-.42-4.88-1.13-7.22-1.12-3.69-2.75-6.27-4.9-7.74-2.14-1.47-4.46-1.82-6.96-1.06-1.94.59-3.42,1.57-4.42,2.96-1.01,1.38-1.36,2.57-1.06,3.55.24.8.96,1.38,2.14,1.72,2.06.58,3.39,1.09,3.99,1.51,1.06.82,1.8,1.94,2.23,3.36.57,1.88.39,3.72-.54,5.51-.93,1.8-2.33,2.98-4.17,3.54-2.03.62-4.02.36-5.96-.79-1.94-1.14-3.31-3.01-4.09-5.59-1.27-4.19-.68-8.3,1.78-12.34,2.46-4.04,6.41-6.89,11.86-8.54,5.36-1.63,10.25-1.33,14.69.88,4.44,2.21,7.36,5.63,8.76,10.24.57,1.88.83,3.84.78,5.89s-.39,3.92-1.02,5.62c-.63,1.7-2.01,4.19-4.14,7.46-2.09,3.19-3.45,5.68-4.07,7.46-.62,1.78-.94,3.68-.95,5.68s.37,4.3,1.16,6.88ZM1864.52,293.94c2.22-.67,4.33-.47,6.34.62,2.01,1.09,3.36,2.74,4.03,4.96s.47,4.34-.62,6.37c-1.08,2.03-2.72,3.37-4.9,4.04-2.19.66-4.29.45-6.32-.63-2.03-1.08-3.38-2.73-4.05-4.95-.67-2.22-.47-4.34.61-6.37,1.08-2.03,2.72-3.37,4.9-4.04Z"/>
    </g>
    <g class="cls-2">
      <polygon class="cls-3" points="1751.31 103.54 1720.24 136.13 1720.54 148.38 1784.59 209.44 1796.14 209.16 1833.19 170.29 1832.9 158.05 1775.12 102.97 1751.31 103.54"/>
      <polygon class="cls-1" points="1763.49 120.8 1775.82 106.26 1750.48 106.87 1763.49 120.8"/>
      <path class="cls-1" d="M1793.04,167.09l-2.43,2.55-2.48-2.29c-2.54-2.42-4.45-4.63-5.75-6.65s-2.47-4.64-3.53-7.87c-1.42-4.47-2.6-7.48-3.52-9.02-1.26-2.13-2.77-4.04-4.54-5.73-2.79-2.66-5.48-4.1-8.07-4.32s-4.78.61-6.58,2.5c-1.4,1.47-2.2,3.05-2.4,4.75-.2,1.7.08,2.91.82,3.62.61.58,1.51.73,2.71.45,2.08-.5,3.49-.72,4.22-.65,1.33.2,2.52.8,3.59,1.83,1.42,1.35,2.17,3.04,2.24,5.07.07,2.02-.56,3.74-1.89,5.13-1.46,1.54-3.33,2.29-5.58,2.25-2.25-.04-4.36-.99-6.32-2.85-3.17-3.02-4.68-6.89-4.53-11.62.15-4.72,2.19-9.15,6.12-13.27,3.86-4.05,8.27-6.21,13.23-6.46,4.95-.26,9.17,1.28,12.67,4.61,1.42,1.35,2.61,2.93,3.57,4.74.96,1.81,1.59,3.61,1.88,5.4.29,1.79.31,4.63.06,8.53-.25,3.81-.21,6.64.13,8.49.34,1.86.99,3.66,1.97,5.41.97,1.75,2.44,3.56,4.39,5.42ZM1795.92,172.11c1.6-1.68,3.54-2.54,5.83-2.58,2.29-.04,4.27.73,5.95,2.33,1.68,1.6,2.54,3.55,2.6,5.84.05,2.3-.71,4.27-2.28,5.93-1.58,1.65-3.52,2.51-5.81,2.56-2.3.06-4.29-.72-5.96-2.32-1.68-1.6-2.54-3.55-2.6-5.84-.05-2.29.71-4.27,2.28-5.93Z"/>
    </g>
    <g class="cls-2">
      <polygon class="cls-3" points="1931.36 57.01 1888.54 43.08 1877.62 48.64 1850.25 132.79 1855.49 143.08 1906.56 159.69 1917.47 154.14 1942.16 78.23 1931.36 57.01"/>
      <path class="cls-1" d="M1888.81,126.87c2.2.72,3.82,2.1,4.85,4.14,1.03,2.04,1.18,4.17.47,6.37s-2.1,3.83-4.15,4.87c-2.05,1.04-4.16,1.21-6.33.5-2.17-.71-3.78-2.08-4.82-4.13s-1.21-4.17-.49-6.38,2.1-3.83,4.15-4.87c2.05-1.04,4.16-1.21,6.33-.5ZM1892.08,122.1l-3.35-1.09,1-3.22c1.08-3.33,2.25-6.02,3.51-8.06,1.26-2.04,3.11-4.24,5.57-6.58,3.41-3.22,5.62-5.57,6.62-7.08,1.38-2.05,2.45-4.24,3.2-6.56,1.19-3.67,1.33-6.72.41-9.15s-2.62-4.05-5.1-4.85c-1.93-.63-3.7-.66-5.32-.11-1.62.56-2.59,1.32-2.91,2.3-.26.8,0,1.67.77,2.63,1.36,1.66,2.16,2.83,2.41,3.52.4,1.28.36,2.62-.09,4.03-.61,1.87-1.81,3.27-3.6,4.21-1.8.94-3.61,1.11-5.45.51-2.02-.66-3.5-2.01-4.44-4.06-.94-2.05-.99-4.36-.16-6.93,1.35-4.16,4.19-7.2,8.52-9.11s9.2-1.98,14.61-.22c5.32,1.73,9.17,4.78,11.55,9.13,2.37,4.36,2.81,8.83,1.32,13.41-.61,1.86-1.52,3.62-2.73,5.27-1.21,1.65-2.56,3-4.05,4.03-1.49,1.04-4.04,2.29-7.66,3.74-3.54,1.42-6.08,2.68-7.6,3.79-1.53,1.11-2.87,2.48-4.03,4.12-1.16,1.63-2.16,3.74-2.99,6.3Z"/>
    </g>
    <g class="cls-2">
      <polygon class="cls-3" points="1785.11 -56.18 1742.67 -41.12 1737.4 -30.06 1766.99 53.34 1777.42 58.3 1828.03 40.35 1833.3 29.29 1806.61 -45.94 1785.11 -56.18"/>
      <path class="cls-1" d="M1793.65,19.37l-3.32,1.18-1.17-3.16c-1.17-3.3-1.88-6.15-2.13-8.53-.25-2.38-.12-5.26.4-8.61.75-4.63,1.06-7.84.93-9.64-.16-2.47-.65-4.85-1.46-7.16-1.29-3.63-3.04-6.13-5.25-7.5-2.21-1.37-4.54-1.61-7-.74-1.91.68-3.34,1.73-4.28,3.16-.95,1.43-1.25,2.63-.9,3.6.28.79,1.02,1.33,2.21,1.62,2.08.49,3.44.93,4.06,1.33,1.09.77,1.89,1.86,2.38,3.25.66,1.85.56,3.69-.29,5.53-.85,1.84-2.19,3.08-4.01,3.73-2,.71-4,.54-5.99-.51-1.99-1.05-3.44-2.85-4.35-5.4-1.46-4.12-1.06-8.26,1.21-12.41,2.27-4.15,6.08-7.18,11.45-9.08,5.28-1.87,10.18-1.81,14.72.2,4.54,2.01,7.61,5.28,9.22,9.83.66,1.85,1,3.8,1.05,5.84.04,2.05-.21,3.94-.76,5.67-.55,1.73-1.81,4.28-3.79,7.64-1.94,3.28-3.18,5.83-3.72,7.64-.54,1.81-.76,3.72-.69,5.72.08,2,.57,4.28,1.47,6.82ZM1793.96,25.15c2.18-.78,4.31-.67,6.37.33,2.06.99,3.48,2.58,4.25,4.77.77,2.18.67,4.31-.32,6.39-.99,2.08-2.56,3.5-4.71,4.26-2.15.76-4.27.65-6.34-.34-2.08-.99-3.5-2.57-4.27-4.76-.78-2.18-.67-4.31.32-6.39.99-2.07,2.56-3.49,4.71-4.26Z"/>
    </g>
  </g>
</svg>