<svg xmlns="http://www.w3.org/2000/svg" xmlns:xlink="http://www.w3.org/1999/xlink" width="1080" zoomAndPan="magnify" viewBox="0 0 810 249.749984" height="333" preserveAspectRatio="xMidYMid meet" version="1.0"><defs><clipPath id="afeaea6b12"><path d="M 0.40625 0 L 131 0 L 131 119 L 0.40625 119 Z M 0.40625 0 " clip-rule="nonzero"/></clipPath><clipPath id="99b5fd82a8"><path d="M 684 130 L 809.59375 130 L 809.59375 249.5 L 684 249.5 Z M 684 130 " clip-rule="nonzero"/></clipPath><clipPath id="3bb356cc05"><path d="M 897.628906 294.027344 L 696.164062 333.496094 L 661.164062 154.824219 L 862.628906 115.355469 Z M 897.628906 294.027344 " clip-rule="nonzero"/></clipPath><clipPath id="a517948559"><path d="M 897.628906 294.027344 L 696.164062 333.496094 L 661.164062 154.824219 L 862.628906 115.355469 Z M 897.628906 294.027344 " clip-rule="nonzero"/></clipPath></defs><g clip-path="url(#afeaea6b12)"><path fill="#bf2026" d="M 127.476562 -7.59375 C 125.71875 -12.78125 123.40625 -17.730469 120.53125 -22.359375 C 114.707031 -31.773438 106.886719 -39.835938 97.628906 -45.941406 C 94.039062 -48.335938 89.6875 -51.007812 84.980469 -53.042969 C 81.90625 -54.359375 78.675781 -55.277344 75.40625 -55.753906 C 73.050781 -56.15625 70.617188 -56.433594 68.300781 -56.714844 C 66.785156 -56.871094 65.230469 -57.074219 63.714844 -57.273438 C 61.878906 -57.511719 60.003906 -57.832031 58.167969 -58.109375 C 54.257812 -58.707031 50.226562 -59.347656 46.195312 -59.625 C 33.945312 -60.464844 21.65625 -59.308594 9.808594 -56.113281 C 3.902344 -54.519531 -1.882812 -52.445312 -7.429688 -49.851562 C -8.785156 -49.210938 -10.144531 -48.535156 -11.5 -47.855469 C -37.515625 -34.289062 -57.785156 -9.3125 -65.644531 19.019531 C -73.507812 47.347656 -69.078125 79.1875 -53.714844 104.246094 C -50.242188 109.914062 -46.691406 112.546875 -42.824219 112.386719 C -38.394531 112.1875 -35.71875 108.4375 -33.125 104.804688 C -31.691406 102.8125 -30.253906 100.777344 -28.496094 99.257812 C -23.628906 95.070312 -16.367188 95.429688 -11.222656 97.183594 C -6.832031 98.660156 -2.839844 101.175781 1.027344 103.570312 C 2.34375 104.367188 3.664062 105.203125 5.019531 106.003906 C 18.824219 114.144531 34.90625 118.253906 50.945312 118.253906 C 63.035156 118.292969 75.046875 115.898438 86.175781 111.148438 C 95.394531 107.199219 101.339844 102.410156 104.453125 96.425781 C 108.882812 87.847656 107.125 77.792969 105.410156 68.058594 C 103.652344 58.082031 101.859375 47.789062 106.964844 39.449219 C 109.359375 35.496094 113.109375 32.503906 116.742188 29.59375 C 120.371094 26.679688 124.203125 23.648438 126.675781 19.539062 C 131.984375 10.957031 130.027344 0.0273438 127.476562 -7.59375 Z M 125.957031 19.21875 C 123.523438 23.167969 119.8125 26.160156 116.183594 29.035156 C 112.511719 31.988281 108.722656 35.019531 106.207031 39.089844 C 100.941406 47.667969 102.777344 58.121094 104.570312 68.257812 C 106.246094 77.871094 108.003906 87.769531 103.695312 96.109375 C 100.703125 101.894531 94.835938 106.601562 85.820312 110.433594 C 60.203125 121.40625 29.398438 119.449219 5.378906 105.324219 C 4.0625 104.527344 2.703125 103.6875 1.386719 102.890625 C -2.523438 100.457031 -6.550781 97.941406 -11.019531 96.425781 C -13.457031 95.589844 -16.046875 95.191406 -18.601562 95.191406 C -22.3125 95.191406 -26.0625 96.148438 -29.054688 98.699219 C -30.890625 100.257812 -32.367188 102.371094 -33.84375 104.40625 C -36.4375 108.039062 -38.871094 111.46875 -42.902344 111.628906 C -46.453125 111.789062 -49.765625 109.234375 -53.078125 103.886719 C -68.277344 78.988281 -72.707031 47.347656 -64.886719 19.21875 C -57.066406 -8.910156 -36.957031 -33.691406 -11.0625 -47.136719 C -9.746094 -47.816406 -8.386719 -48.492188 -7.03125 -49.132812 C -1.523438 -51.6875 4.179688 -53.761719 10.046875 -55.355469 C 21.816406 -58.507812 34.027344 -59.667969 46.15625 -58.828125 C 50.148438 -58.546875 54.175781 -57.910156 58.085938 -57.3125 C 59.921875 -57.03125 61.796875 -56.753906 63.632812 -56.472656 C 65.148438 -56.273438 66.707031 -56.074219 68.222656 -55.914062 C 70.535156 -55.636719 72.96875 -55.355469 75.324219 -54.996094 C 78.554688 -54.480469 81.707031 -53.601562 84.703125 -52.324219 C 89.371094 -50.328125 93.640625 -47.65625 97.191406 -45.300781 C 106.367188 -39.277344 114.066406 -31.296875 119.855469 -21.960938 C 122.6875 -17.371094 125 -12.464844 126.71875 -7.355469 C 129.230469 0.144531 131.144531 10.800781 125.957031 19.21875 Z M 112.832031 -20.921875 C 110.15625 -25.269531 107.007812 -29.339844 103.453125 -32.972656 C 102.335938 -34.128906 101.140625 -35.246094 99.945312 -36.324219 C 97.269531 -38.679688 94.4375 -40.832031 91.445312 -42.746094 C 88.292969 -44.78125 84.101562 -47.335938 79.554688 -49.210938 C 76.679688 -50.410156 73.648438 -51.207031 70.578125 -51.644531 C 68.742188 -51.925781 66.984375 -52.125 65.46875 -52.285156 L 63.59375 -52.484375 C 62.316406 -52.605469 60.960938 -52.761719 59.644531 -52.921875 C 58.046875 -53.121094 56.453125 -53.320312 54.855469 -53.5625 C 51.066406 -54.078125 47.195312 -54.597656 43.285156 -54.796875 C 37.578125 -55.078125 31.914062 -54.878906 26.246094 -54.238281 C 20.660156 -53.640625 15.152344 -52.605469 9.765625 -51.085938 C 4.378906 -49.609375 -0.886719 -47.65625 -5.953125 -45.222656 C -7.191406 -44.625 -8.425781 -44.023438 -9.664062 -43.347656 C -20.039062 -37.761719 -29.375 -30.457031 -37.234375 -21.71875 C -47.808594 -10.109375 -55.429688 3.894531 -59.5 19.058594 C -62.851562 31.945312 -63.609375 45.394531 -61.695312 58.601562 C -59.820312 71.808594 -55.269531 84.457031 -48.289062 95.828125 C -45.136719 100.894531 -41.945312 103.289062 -38.433594 103.167969 C -34.402344 103.011719 -32.007812 99.699219 -29.65625 96.464844 C -28.378906 94.710938 -27.0625 92.875 -25.464844 91.597656 C -21.753906 88.488281 -15.929688 87.847656 -9.945312 89.804688 C -5.554688 91.238281 -1.523438 93.59375 2.425781 95.867188 C 3.460938 96.464844 4.5 97.066406 5.578125 97.664062 C 19.621094 105.523438 35.265625 109.632812 50.347656 109.632812 C 55.894531 109.632812 61.398438 109.074219 66.824219 107.917969 C 71.734375 106.839844 76.5625 105.246094 81.148438 103.167969 C 89.527344 99.378906 94.957031 94.789062 97.707031 89.085938 C 101.460938 81.304688 99.863281 72.285156 98.308594 63.589844 C 97.707031 60.277344 97.109375 56.84375 96.792969 53.53125 C 96.113281 46.230469 97.070312 41.003906 99.863281 36.535156 C 102.097656 32.945312 105.570312 30.191406 108.882812 27.476562 C 112.273438 24.722656 115.824219 21.929688 118.136719 18.140625 C 123.125 10.082031 121.449219 -0.0546875 119.136719 -7.117188 C 117.578125 -11.984375 115.464844 -16.574219 112.832031 -20.921875 Z M 117.5 17.621094 C 115.265625 21.253906 111.792969 24.046875 108.441406 26.757812 C 105.089844 29.472656 101.578125 32.304688 99.226562 36.015625 C 96.3125 40.644531 95.355469 46.03125 96.03125 53.492188 C 96.351562 56.84375 96.949219 60.238281 97.550781 63.589844 C 99.105469 72.167969 100.660156 81.066406 97.03125 88.605469 C 94.355469 94.113281 89.089844 98.621094 80.871094 102.332031 C 76.320312 104.367188 71.574219 105.964844 66.707031 107 C 61.359375 108.15625 55.851562 108.714844 50.386719 108.714844 C 35.464844 108.714844 19.941406 104.644531 6.015625 96.867188 C 4.980469 96.265625 3.941406 95.667969 2.863281 95.070312 C -1.125 92.796875 -5.195312 90.441406 -9.625 88.964844 C -11.859375 88.207031 -14.171875 87.808594 -16.527344 87.808594 C -20.160156 87.808594 -23.46875 88.84375 -25.90625 90.921875 C -27.539062 92.316406 -28.898438 94.152344 -30.214844 95.949219 C -32.566406 99.140625 -34.761719 102.171875 -38.394531 102.292969 C -41.585938 102.410156 -44.539062 100.136719 -47.53125 95.308594 C -61.214844 73.203125 -65.40625 44.714844 -58.664062 19.179688 C -54.632812 4.136719 -47.089844 -9.75 -36.597656 -21.28125 C -28.777344 -29.941406 -19.519531 -37.160156 -9.265625 -42.707031 C -8.070312 -43.347656 -6.832031 -43.945312 -5.59375 -44.542969 C -0.566406 -46.9375 4.621094 -48.851562 9.964844 -50.367188 C 15.3125 -51.84375 20.820312 -52.882812 26.324219 -53.480469 C 31.953125 -54.121094 37.617188 -54.28125 43.285156 -54 C 47.15625 -53.800781 51.023438 -53.28125 54.777344 -52.761719 C 56.332031 -52.5625 57.96875 -52.324219 59.5625 -52.125 C 60.878906 -51.964844 62.238281 -51.84375 63.554688 -51.6875 L 65.429688 -51.488281 C 66.945312 -51.328125 68.699219 -51.128906 70.496094 -50.847656 C 73.527344 -50.410156 76.441406 -49.609375 79.273438 -48.453125 C 83.742188 -46.617188 87.894531 -44.066406 91.003906 -42.070312 C 93.957031 -40.15625 96.75 -38.039062 99.386719 -35.726562 C 100.582031 -34.6875 101.738281 -33.570312 102.855469 -32.414062 C 106.367188 -28.78125 109.480469 -24.792969 112.113281 -20.445312 C 114.707031 -16.175781 116.820312 -11.625 118.378906 -6.878906 C 120.691406 -0.015625 122.367188 9.839844 117.5 17.621094 Z M 105.128906 -19.484375 C 102.695312 -23.515625 99.785156 -27.265625 96.472656 -30.617188 C 95.433594 -31.695312 94.316406 -32.734375 93.199219 -33.691406 C 90.726562 -35.886719 88.054688 -37.839844 85.261719 -39.597656 C 80.949219 -42.308594 77.519531 -44.105469 74.128906 -45.421875 C 71.453125 -46.457031 68.621094 -47.175781 65.789062 -47.574219 C 64.03125 -47.816406 62.355469 -47.976562 61.039062 -48.132812 L 58.886719 -48.335938 C 57.808594 -48.414062 56.691406 -48.535156 55.613281 -48.652344 C 54.296875 -48.773438 52.980469 -48.933594 51.664062 -49.09375 C 47.992188 -49.492188 44.203125 -49.929688 40.449219 -50.050781 C 35.183594 -50.167969 29.878906 -49.890625 24.648438 -49.210938 C 19.621094 -48.613281 14.636719 -47.574219 9.726562 -46.179688 C 4.859375 -44.78125 0.109375 -42.949219 -4.476562 -40.714844 C -5.714844 -40.113281 -6.792969 -39.554688 -7.828125 -38.996094 C -17.324219 -33.730469 -25.863281 -26.90625 -33.085938 -18.847656 C -42.824219 -8.113281 -49.726562 4.894531 -53.195312 18.9375 C -56.03125 30.46875 -56.546875 42.402344 -54.832031 54.132812 C -53.117188 65.863281 -49.007812 77.074219 -42.742188 87.167969 C -39.949219 91.597656 -37.15625 93.753906 -34.125 93.753906 L -33.925781 93.753906 C -30.332031 93.632812 -28.140625 90.761719 -26.023438 87.96875 C -24.867188 86.453125 -23.667969 84.894531 -22.273438 83.738281 C -19 81.066406 -13.8125 80.507812 -8.46875 82.261719 C -3.839844 83.738281 0.269531 85.933594 4.578125 88.207031 L 6.296875 89.125 C 17.1875 94.871094 32.589844 100.894531 49.347656 100.894531 C 53.9375 100.894531 58.527344 100.417969 62.996094 99.5 C 67.582031 98.5 72.050781 96.984375 76.28125 94.949219 C 83.785156 91.359375 88.769531 86.808594 91.125 81.464844 C 94.199219 74.480469 92.722656 66.539062 91.324219 58.800781 C 90.726562 55.527344 90.085938 52.136719 89.808594 48.863281 C 89.289062 42.359375 90.246094 37.453125 92.882812 33.382812 C 94.957031 30.109375 98.109375 27.597656 101.140625 25.125 C 104.292969 22.609375 107.523438 19.976562 109.71875 16.503906 C 114.386719 9.042969 112.910156 -0.253906 110.875 -6.757812 C 109.480469 -11.1875 107.566406 -15.457031 105.128906 -19.484375 Z M 109.039062 16.066406 C 106.964844 19.417969 103.734375 21.972656 100.660156 24.484375 C 97.550781 26.960938 94.355469 29.550781 92.203125 32.902344 C 89.488281 37.132812 88.453125 42.242188 89.011719 48.90625 C 89.289062 52.214844 89.929688 55.609375 90.527344 58.917969 C 92.003906 66.859375 93.359375 74.363281 90.40625 81.105469 C 88.132812 86.25 83.265625 90.679688 75.964844 94.191406 C 71.8125 96.1875 67.382812 97.703125 62.875 98.699219 C 41.25 103.289062 20.378906 95.628906 6.695312 88.40625 L 5.019531 87.488281 C 0.828125 85.253906 -3.480469 82.980469 -8.1875 81.464844 C -10.183594 80.785156 -12.296875 80.464844 -14.414062 80.425781 C -17.644531 80.425781 -20.558594 81.34375 -22.710938 83.101562 C -24.1875 84.296875 -25.425781 85.894531 -26.582031 87.488281 C -28.699219 90.28125 -30.652344 92.875 -33.882812 92.957031 C -36.71875 93.035156 -39.351562 91 -42.023438 86.769531 C -54.394531 67.058594 -58.144531 42.441406 -52.398438 19.136719 C -48.96875 5.214844 -42.105469 -7.675781 -32.488281 -18.289062 C -25.304688 -26.308594 -16.847656 -33.050781 -7.429688 -38.277344 C -6.433594 -38.835938 -5.355469 -39.394531 -4.117188 -39.996094 C 0.429688 -42.1875 5.136719 -44.023438 9.964844 -45.421875 C 14.792969 -46.816406 19.742188 -47.816406 24.769531 -48.414062 C 29.957031 -49.09375 35.222656 -49.371094 40.449219 -49.25 C 44.203125 -49.132812 47.953125 -48.734375 51.625 -48.292969 C 52.941406 -48.132812 54.257812 -48.015625 55.574219 -47.855469 C 56.652344 -47.734375 57.769531 -47.65625 58.84375 -47.535156 L 60.960938 -47.335938 C 62.238281 -47.21875 63.953125 -47.058594 65.667969 -46.777344 C 68.460938 -46.378906 71.214844 -45.699219 73.847656 -44.664062 C 77.160156 -43.347656 80.550781 -41.589844 84.820312 -38.917969 C 87.574219 -37.160156 90.207031 -35.246094 92.640625 -33.09375 C 93.757812 -32.132812 94.835938 -31.097656 95.875 -30.019531 C 99.144531 -26.707031 102.019531 -22.996094 104.414062 -19.046875 C 106.804688 -15.097656 108.722656 -10.90625 110.117188 -6.519531 C 112.152344 -0.171875 113.550781 8.882812 109.039062 16.066406 Z M 97.429688 -18.007812 C 95.195312 -21.71875 92.5625 -25.152344 89.527344 -28.222656 C 88.570312 -29.222656 87.535156 -30.179688 86.496094 -31.058594 C 84.183594 -33.050781 81.707031 -34.847656 79.113281 -36.445312 C 75.84375 -38.519531 72.371094 -40.234375 68.78125 -41.628906 C 66.265625 -42.546875 63.632812 -43.1875 61 -43.507812 C 59.722656 -43.664062 58.367188 -43.824219 56.609375 -43.945312 L 54.136719 -44.144531 C 53.300781 -44.222656 52.460938 -44.265625 51.625 -44.34375 L 48.589844 -44.582031 C 45 -44.902344 41.289062 -45.222656 37.578125 -45.222656 L 37.539062 -45.222656 C 32.710938 -45.183594 27.84375 -44.824219 23.054688 -44.105469 C 18.546875 -43.464844 14.078125 -42.507812 9.6875 -41.191406 C 5.296875 -39.875 1.070312 -38.160156 -3 -36.125 C -4.160156 -35.527344 -5.117188 -35.046875 -5.992188 -34.527344 C -14.253906 -29.820312 -21.992188 -23.554688 -28.976562 -15.855469 C -37.875 -6 -44.097656 5.972656 -47.011719 18.9375 C -51.761719 39.808594 -48.207031 61.59375 -37.277344 78.671875 C -34.761719 82.621094 -32.207031 84.457031 -29.496094 84.457031 C -26.304688 84.417969 -24.386719 81.941406 -22.472656 79.546875 C -21.476562 78.273438 -20.398438 76.953125 -19.160156 75.957031 C -16.289062 73.722656 -11.78125 73.285156 -7.070312 74.761719 C -1.964844 76.355469 2.664062 78.550781 6.972656 80.664062 C 17.628906 85.894531 32.589844 92.195312 48.3125 92.195312 C 51.941406 92.195312 55.574219 91.839844 59.164062 91.121094 C 63.433594 90.242188 67.542969 88.804688 71.414062 86.808594 C 78.117188 83.378906 82.546875 79.03125 84.542969 73.921875 C 86.976562 67.738281 85.617188 60.796875 84.34375 54.089844 C 83.703125 50.859375 83.066406 47.507812 82.867188 44.277344 C 82.464844 38.449219 83.425781 33.980469 85.9375 30.230469 C 87.851562 27.316406 90.726562 25.003906 93.480469 22.808594 C 96.351562 20.496094 99.34375 18.0625 101.378906 14.910156 C 105.730469 8.085938 104.492188 -0.453125 102.695312 -6.359375 C 101.339844 -10.429688 99.625 -14.339844 97.429688 -18.007812 Z M 100.621094 14.511719 C 98.667969 17.582031 95.753906 19.9375 92.921875 22.210938 C 90.085938 24.484375 87.214844 26.800781 85.21875 29.832031 C 82.625 33.742188 81.628906 38.371094 82.027344 44.355469 C 82.265625 47.628906 82.90625 51.019531 83.542969 54.25 C 84.859375 61.152344 86.136719 67.699219 83.785156 73.644531 C 81.867188 78.550781 77.558594 82.742188 71.015625 86.09375 C 67.222656 88.046875 63.195312 89.484375 59.003906 90.363281 C 39.734375 94.351562 20.261719 86.332031 7.292969 79.949219 C 2.984375 77.832031 -1.683594 75.636719 -6.832031 74.003906 C -8.628906 73.445312 -10.503906 73.125 -12.378906 73.125 C -15.210938 73.125 -17.765625 73.882812 -19.640625 75.320312 C -20.957031 76.355469 -22.035156 77.714844 -23.070312 79.03125 C -24.945312 81.382812 -26.664062 83.578125 -29.457031 83.617188 L -29.574219 83.617188 C -31.96875 83.617188 -34.285156 81.863281 -36.597656 78.191406 C -47.410156 61.273438 -50.921875 39.726562 -46.214844 19.058594 C -43.339844 6.25 -37.195312 -5.601562 -28.417969 -15.375 C -21.515625 -22.996094 -13.8125 -29.261719 -5.632812 -33.890625 C -4.757812 -34.367188 -3.839844 -34.886719 -2.683594 -35.484375 C 1.347656 -37.519531 5.578125 -39.195312 9.886719 -40.511719 C 14.234375 -41.832031 18.664062 -42.789062 23.132812 -43.386719 C 27.882812 -44.105469 32.671875 -44.464844 37.5 -44.503906 L 37.539062 -44.503906 C 41.210938 -44.503906 44.878906 -44.183594 48.472656 -43.867188 L 51.464844 -43.625 L 53.976562 -43.425781 C 54.816406 -43.386719 55.613281 -43.308594 56.453125 -43.226562 C 58.207031 -43.066406 59.523438 -42.949219 60.839844 -42.789062 C 63.433594 -42.46875 65.949219 -41.832031 68.382812 -40.953125 C 71.933594 -39.554688 75.363281 -37.839844 78.597656 -35.804688 C 81.191406 -34.25 83.625 -32.453125 85.898438 -30.5 C 86.9375 -29.621094 87.933594 -28.664062 88.890625 -27.707031 C 91.882812 -24.671875 94.515625 -21.320312 96.710938 -17.648438 C 98.867188 -14.058594 100.582031 -10.1875 101.820312 -6.160156 C 103.574219 -0.332031 104.769531 7.925781 100.621094 14.511719 Z M 89.730469 -16.53125 C 87.734375 -19.925781 85.339844 -23.035156 82.546875 -25.789062 C 81.628906 -26.707031 80.710938 -27.546875 79.714844 -28.382812 C 77.558594 -30.179688 75.285156 -31.816406 72.851562 -33.25 C 69.816406 -35.085938 66.585938 -36.601562 63.234375 -37.800781 C 60.921875 -38.597656 58.527344 -39.117188 56.09375 -39.394531 C 54.894531 -39.515625 53.617188 -39.636719 52.0625 -39.753906 C 51.105469 -39.796875 50.105469 -39.875 49.148438 -39.914062 L 47.472656 -39.996094 L 45.597656 -40.113281 C 42.007812 -40.3125 38.296875 -40.554688 34.625 -40.433594 C 30.195312 -40.273438 25.765625 -39.796875 21.378906 -39.039062 C 17.386719 -38.398438 13.4375 -37.480469 9.566406 -36.246094 C 5.695312 -35.007812 1.988281 -33.449219 -1.605469 -31.574219 C -2.640625 -31.015625 -3.480469 -30.578125 -4.238281 -30.140625 C -11.539062 -25.828125 -18.523438 -20.003906 -24.90625 -12.902344 C -32.96875 -3.925781 -38.433594 7.046875 -40.746094 18.898438 C -44.417969 37.09375 -41.148438 55.765625 -31.769531 70.132812 C -29.574219 73.484375 -27.378906 75.121094 -25.027344 75.121094 C -22.273438 75.121094 -20.558594 73.085938 -18.921875 71.128906 C -18.082031 70.050781 -17.125 69.09375 -16.089844 68.214844 C -12.578125 65.625 -7.667969 66.742188 -5.714844 67.300781 C -1.164062 68.617188 3.261719 70.25 7.613281 72.167969 C 19.621094 77.59375 32.949219 83.578125 46.714844 83.578125 C 49.589844 83.578125 52.460938 83.300781 55.292969 82.742188 C 59.203125 81.941406 62.957031 80.546875 66.464844 78.628906 C 70.535156 76.355469 75.84375 72.40625 77.878906 66.339844 C 79.671875 60.953125 78.476562 55.007812 77.320312 49.304688 C 76.679688 46.113281 76.003906 42.839844 75.84375 39.648438 C 75.5625 34.5 76.523438 30.550781 78.875 27.117188 C 80.632812 24.566406 83.183594 22.488281 85.660156 20.496094 C 88.292969 18.378906 91.003906 16.1875 92.839844 13.3125 C 96.871094 7.089844 95.875 -0.613281 94.355469 -6 C 93.238281 -9.628906 91.683594 -13.222656 89.730469 -16.53125 Z M 92.121094 12.953125 C 90.328125 15.707031 87.695312 17.863281 85.101562 19.976562 C 82.585938 22.011719 79.992188 24.085938 78.15625 26.757812 C 75.683594 30.351562 74.6875 34.5 74.964844 39.808594 C 75.125 43.039062 75.804688 46.351562 76.480469 49.582031 C 77.679688 55.488281 78.835938 61.035156 77.082031 66.222656 C 75.125 72.007812 69.976562 75.835938 66.027344 78.03125 C 62.597656 79.949219 58.925781 81.304688 55.09375 82.101562 C 38.617188 85.375 22.296875 78.03125 7.933594 71.527344 C 3.582031 69.574219 -0.886719 67.9375 -5.433594 66.582031 C -7.03125 66.0625 -8.707031 65.824219 -10.382812 65.78125 C -12.777344 65.78125 -14.890625 66.382812 -16.527344 67.578125 C -17.644531 68.457031 -18.640625 69.492188 -19.519531 70.609375 C -21.117188 72.527344 -22.632812 74.320312 -25.027344 74.320312 C -27.101562 74.320312 -29.097656 72.804688 -31.132812 69.691406 C -40.429688 55.488281 -43.660156 37.054688 -40.027344 19.058594 C -37.714844 7.367188 -32.289062 -3.484375 -24.347656 -12.34375 C -18.003906 -19.367188 -11.101562 -25.113281 -3.839844 -29.421875 C -3.121094 -29.859375 -2.28125 -30.300781 -1.246094 -30.859375 C 2.304688 -32.734375 6.015625 -34.25 9.808594 -35.484375 C 13.636719 -36.683594 17.507812 -37.601562 21.5 -38.238281 C 25.847656 -38.996094 30.238281 -39.476562 34.664062 -39.636719 C 38.296875 -39.753906 41.96875 -39.515625 45.558594 -39.316406 L 47.433594 -39.195312 L 49.109375 -39.117188 C 50.066406 -39.078125 51.066406 -39.039062 52.023438 -38.957031 C 53.578125 -38.878906 54.855469 -38.757812 56.011719 -38.597656 C 58.40625 -38.359375 60.722656 -37.800781 62.996094 -37.042969 C 66.265625 -35.84375 69.460938 -34.328125 72.453125 -32.535156 C 74.84375 -31.136719 77.082031 -29.539062 79.195312 -27.746094 C 80.152344 -26.945312 81.070312 -26.070312 81.988281 -25.191406 C 84.703125 -22.476562 87.09375 -19.40625 89.050781 -16.09375 C 91.003906 -12.824219 92.523438 -9.3125 93.558594 -5.640625 C 95.035156 -0.492188 95.992188 6.96875 92.121094 12.953125 Z M 82.027344 -15.097656 C 80.273438 -18.167969 78.078125 -20.960938 75.5625 -23.4375 C 74.726562 -24.234375 73.847656 -25.03125 72.96875 -25.75 C 71.015625 -27.386719 68.859375 -28.824219 66.664062 -30.058594 C 63.871094 -31.65625 60.921875 -32.972656 57.847656 -33.96875 C 55.734375 -34.648438 53.539062 -35.085938 51.304688 -35.285156 C 50.1875 -35.40625 49.03125 -35.484375 47.632812 -35.527344 C 46.515625 -35.566406 45.359375 -35.605469 44.242188 -35.644531 L 43.042969 -35.6875 C 39.375 -35.804688 35.542969 -35.886719 31.792969 -35.644531 C 27.761719 -35.328125 23.773438 -34.769531 19.820312 -33.929688 C 16.351562 -33.292969 12.917969 -32.414062 9.566406 -31.257812 C 6.214844 -30.097656 2.984375 -28.664062 -0.128906 -26.945312 C -0.804688 -26.589844 -1.605469 -26.109375 -2.402344 -25.628906 C -8.746094 -21.640625 -14.929688 -16.375 -20.796875 -9.871094 C -27.820312 -2.089844 -32.6875 8.125 -34.523438 18.898438 C -37.15625 34.339844 -34.164062 49.902344 -26.261719 61.59375 C -25.066406 63.347656 -23.191406 65.742188 -20.558594 65.78125 L -20.4375 65.78125 C -18.203125 65.78125 -16.726562 64.226562 -15.332031 62.710938 C -14.613281 61.871094 -13.8125 61.113281 -12.9375 60.476562 C -10.902344 59.078125 -7.75 58.878906 -4.277344 59.878906 L -1.804688 60.554688 C 1.628906 61.433594 4.980469 62.550781 8.289062 63.828125 C 10.566406 64.746094 12.917969 65.78125 15.195312 66.742188 C 24.808594 70.890625 34.707031 75.160156 44.960938 75.160156 C 47.15625 75.160156 49.308594 74.960938 51.464844 74.5625 C 55.054688 73.84375 58.445312 72.527344 61.558594 70.609375 C 65.148438 68.457031 69.738281 64.664062 71.253906 58.917969 C 72.492188 54.332031 71.414062 49.621094 70.335938 44.59375 C 69.660156 41.523438 68.941406 38.332031 68.820312 35.179688 C 68.660156 30.789062 69.660156 27.160156 71.851562 24.125 C 73.449219 21.890625 75.683594 20.054688 77.878906 18.300781 C 80.273438 16.386719 82.707031 14.390625 84.421875 11.796875 C 88.132812 6.171875 87.375 -0.691406 86.097656 -5.519531 C 85.140625 -8.832031 83.785156 -12.0625 82.027344 -15.097656 Z M 83.664062 11.359375 C 82.027344 13.832031 79.632812 15.785156 77.320312 17.660156 C 75.125 19.457031 72.8125 21.292969 71.175781 23.605469 C 68.859375 26.800781 67.824219 30.589844 67.984375 35.140625 C 68.101562 38.332031 68.820312 41.5625 69.5 44.714844 C 70.578125 49.621094 71.613281 54.25 70.457031 58.640625 C 68.980469 64.105469 64.550781 67.738281 61.121094 69.851562 C 58.085938 71.726562 54.734375 73.003906 51.265625 73.683594 C 38.933594 76.039062 27.003906 70.890625 15.472656 65.941406 C 13.199219 64.984375 10.84375 63.945312 8.570312 63.03125 C 5.257812 61.753906 1.867188 60.636719 -1.605469 59.757812 L -4.039062 59.039062 C -7.710938 58.003906 -11.101562 58.242188 -13.335938 59.757812 C -14.253906 60.4375 -15.132812 61.234375 -15.890625 62.113281 C -17.246094 63.589844 -18.5625 64.984375 -20.519531 64.945312 C -22.234375 64.90625 -23.828125 63.667969 -25.585938 61.113281 C -33.40625 49.621094 -36.359375 34.261719 -33.765625 19.019531 C -31.929688 8.363281 -27.140625 -1.691406 -20.238281 -9.390625 C -14.414062 -15.855469 -8.308594 -21.082031 -2.003906 -24.992188 C -1.207031 -25.472656 -0.40625 -25.910156 0.230469 -26.269531 C 3.304688 -27.945312 6.496094 -29.382812 9.765625 -30.5 C 13.078125 -31.617188 16.46875 -32.492188 19.941406 -33.132812 C 23.851562 -33.929688 27.84375 -34.488281 31.832031 -34.808594 C 35.542969 -35.046875 39.175781 -34.96875 43.042969 -34.847656 L 44.242188 -34.808594 C 45.359375 -34.769531 46.476562 -34.769531 47.632812 -34.6875 C 49.03125 -34.648438 50.1875 -34.566406 51.265625 -34.449219 C 53.417969 -34.25 55.574219 -33.808594 57.609375 -33.171875 C 60.640625 -32.175781 63.554688 -30.898438 66.308594 -29.300781 C 68.5 -28.066406 70.578125 -26.667969 72.492188 -25.070312 C 73.371094 -24.355469 74.246094 -23.554688 75.046875 -22.796875 C 77.519531 -20.363281 79.632812 -17.609375 81.347656 -14.617188 C 83.066406 -11.664062 84.382812 -8.511719 85.261719 -5.203125 C 86.496094 -0.652344 87.214844 6.011719 83.664062 11.359375 Z M 74.328125 -13.621094 C 72.769531 -16.332031 70.855469 -18.847656 68.621094 -21.003906 C 67.863281 -21.71875 67.066406 -22.4375 66.226562 -23.078125 C 64.429688 -24.511719 62.515625 -25.789062 60.480469 -26.867188 C 57.925781 -28.265625 55.214844 -29.339844 52.421875 -30.179688 C 50.464844 -30.699219 48.472656 -31.058594 46.476562 -31.175781 C 45.4375 -31.257812 44.363281 -31.296875 43.164062 -31.335938 C 41.96875 -31.375 40.652344 -31.335938 39.375 -31.335938 C 35.863281 -31.335938 32.351562 -31.175781 28.878906 -30.816406 C 25.289062 -30.339844 21.699219 -29.699219 18.144531 -28.824219 C 15.195312 -28.183594 12.28125 -27.347656 9.449219 -26.269531 C 6.613281 -25.191406 3.902344 -23.875 1.269531 -22.359375 C 0.667969 -22 -0.0078125 -21.601562 -0.648438 -21.160156 C -6.113281 -17.53125 -11.378906 -12.863281 -16.765625 -6.835938 C -22.992188 0.105469 -27.101562 9.242188 -28.378906 18.9375 C -30.054688 31.785156 -27.378906 43.917969 -20.835938 53.132812 C -19.839844 54.53125 -18.285156 56.40625 -16.167969 56.527344 C -14.292969 56.644531 -13.054688 55.488281 -11.859375 54.332031 C -11.261719 53.734375 -10.621094 53.214844 -9.902344 52.734375 C -7.667969 51.417969 -4.597656 51.976562 -2.960938 52.414062 C -1.363281 52.855469 0.230469 53.214844 1.746094 53.53125 C 4.140625 54.011719 6.496094 54.609375 8.847656 55.410156 C 12.359375 56.644531 15.910156 58.242188 19.34375 59.796875 C 26.84375 63.1875 34.585938 66.660156 42.683594 66.660156 C 44.28125 66.660156 45.878906 66.5 47.472656 66.222656 C 50.707031 65.625 53.816406 64.347656 56.53125 62.472656 C 60.921875 59.519531 63.714844 55.609375 64.511719 51.378906 C 65.230469 47.585938 64.273438 43.757812 63.234375 39.726562 C 62.476562 36.734375 61.71875 33.664062 61.679688 30.628906 C 61.636719 26.917969 62.636719 23.765625 64.710938 21.054688 C 66.148438 19.179688 68.0625 17.582031 69.9375 16.066406 C 72.050781 14.351562 74.285156 12.554688 75.804688 10.28125 C 79.195312 5.253906 78.675781 -0.8125 77.679688 -5.042969 C 76.960938 -8.074219 75.84375 -10.945312 74.328125 -13.621094 Z M 75.203125 9.800781 C 73.726562 11.996094 71.574219 13.75 69.5 15.425781 C 67.582031 16.984375 65.628906 18.621094 64.113281 20.535156 C 61.917969 23.40625 60.878906 26.71875 60.921875 30.589844 C 60.960938 33.742188 61.757812 36.855469 62.515625 39.886719 C 63.515625 43.878906 64.429688 47.585938 63.753906 51.21875 C 62.996094 55.207031 60.320312 58.960938 56.132812 61.792969 C 53.5 63.589844 50.507812 64.824219 47.394531 65.421875 C 37.777344 67.179688 28.601562 63.03125 19.742188 59.039062 C 16.3125 57.484375 12.71875 55.847656 9.207031 54.648438 C 6.855469 53.890625 4.460938 53.253906 2.027344 52.773438 C 0.511719 52.457031 -1.085938 52.097656 -2.640625 51.65625 C -4.398438 51.179688 -7.710938 50.621094 -10.183594 52.058594 C -10.941406 52.535156 -11.660156 53.09375 -12.257812 53.734375 C -13.375 54.808594 -14.453125 55.808594 -16.007812 55.6875 C -17.765625 55.566406 -19.199219 53.890625 -20.078125 52.617188 C -26.503906 43.558594 -29.097656 31.628906 -27.460938 18.980469 C -26.222656 9.441406 -22.152344 0.425781 -16.046875 -6.398438 C -10.703125 -12.34375 -5.515625 -16.972656 -0.0898438 -20.5625 C 0.550781 -21.003906 1.1875 -21.359375 1.785156 -21.71875 C 4.339844 -23.238281 7.054688 -24.511719 9.847656 -25.589844 C 12.640625 -26.628906 15.511719 -27.464844 18.425781 -28.105469 C 21.9375 -28.980469 25.488281 -29.621094 29.039062 -30.097656 C 32.511719 -30.457031 35.980469 -30.617188 39.453125 -30.617188 C 40.730469 -30.617188 41.96875 -30.617188 43.203125 -30.617188 C 44.441406 -30.617188 45.480469 -30.539062 46.476562 -30.457031 C 48.429688 -30.339844 50.347656 -29.980469 52.261719 -29.460938 C 54.976562 -28.664062 57.609375 -27.585938 60.121094 -26.230469 C 62.117188 -25.191406 64.03125 -23.953125 65.789062 -22.519531 C 66.585938 -21.878906 67.382812 -21.203125 68.101562 -20.484375 C 72.453125 -16.214844 75.5625 -10.828125 77 -4.921875 C 77.957031 -0.8125 78.4375 5.054688 75.203125 9.800781 Z M 66.625 -12.183594 C 65.308594 -14.578125 63.632812 -16.773438 61.679688 -18.648438 C 61 -19.285156 60.28125 -19.882812 59.523438 -20.484375 C 57.886719 -21.761719 56.132812 -22.835938 54.296875 -23.714844 C 51.984375 -24.871094 49.507812 -25.75 46.996094 -26.386719 C 45.238281 -26.789062 43.484375 -27.027344 41.6875 -27.105469 C 40.769531 -27.148438 39.773438 -27.148438 38.734375 -27.148438 C 37.738281 -27.148438 36.660156 -27.105469 35.34375 -27.027344 C 32.191406 -26.867188 29.078125 -26.546875 26.007812 -26.03125 C 22.816406 -25.472656 19.703125 -24.632812 16.550781 -23.714844 C 14.117188 -23.078125 11.761719 -22.238281 9.40625 -21.28125 C 7.09375 -20.285156 4.859375 -19.125 2.746094 -17.769531 C 2.226562 -17.449219 1.707031 -17.089844 1.1875 -16.734375 C -3.28125 -13.5 -7.789062 -9.3125 -12.617188 -3.925781 C -18.082031 2.179688 -21.476562 10.320312 -22.074219 18.898438 C -22.792969 28.792969 -20.359375 37.890625 -15.289062 44.59375 C -14.492188 45.632812 -13.253906 47.027344 -11.660156 47.1875 C -10.183594 47.347656 -9.1875 46.628906 -8.226562 45.953125 C -7.75 45.59375 -7.269531 45.273438 -6.75 45.035156 C -5.15625 44.316406 -3 44.59375 -1.484375 44.996094 C 0.230469 45.394531 1.988281 45.710938 3.742188 45.910156 C 5.699219 46.113281 7.652344 46.511719 9.566406 46.988281 C 13.636719 48.1875 17.628906 50.179688 21.457031 52.097656 C 27.484375 55.128906 33.667969 58.242188 40.25 58.242188 C 41.410156 58.242188 42.527344 58.160156 43.644531 57.960938 C 46.554688 57.445312 49.308594 56.207031 51.664062 54.410156 C 55.335938 51.617188 57.609375 47.789062 57.925781 43.917969 C 58.167969 40.882812 57.25 37.773438 56.371094 34.78125 C 55.535156 31.945312 54.65625 29.035156 54.734375 26.121094 C 54.777344 23.167969 55.8125 20.296875 57.726562 18.019531 C 58.964844 16.503906 60.601562 15.148438 62.15625 13.871094 C 64.03125 12.316406 65.988281 10.757812 67.382812 8.722656 C 69.777344 5.292969 70.535156 0.542969 69.417969 -4.601562 C 68.902344 -7.277344 67.941406 -9.828125 66.625 -12.183594 Z M 66.746094 8.246094 C 65.429688 10.160156 63.515625 11.71875 61.679688 13.234375 C 60.082031 14.550781 58.40625 15.90625 57.128906 17.460938 C 55.09375 19.855469 53.976562 22.890625 53.9375 26.042969 C 53.898438 29.074219 54.777344 32.066406 55.613281 34.9375 C 56.53125 38.011719 57.367188 40.882812 57.128906 43.796875 C 56.808594 47.46875 54.65625 51.058594 51.183594 53.691406 C 48.949219 55.449219 46.316406 56.605469 43.523438 57.085938 C 35.863281 58.359375 29.039062 54.929688 21.816406 51.296875 C 17.945312 49.34375 13.917969 47.308594 9.765625 46.152344 C 7.8125 45.632812 5.816406 45.273438 3.820312 45.035156 C 2.066406 44.835938 0.351562 44.515625 -1.324219 44.117188 C -2.960938 43.71875 -5.316406 43.398438 -7.109375 44.195312 C -7.667969 44.476562 -8.226562 44.792969 -8.746094 45.195312 C -9.664062 45.871094 -10.460938 46.429688 -11.621094 46.3125 C -12.898438 46.152344 -14.015625 44.914062 -14.691406 43.996094 C -19.679688 37.492188 -22.035156 28.554688 -21.316406 18.859375 C -20.71875 10.480469 -17.40625 2.539062 -12.058594 -3.484375 C -7.269531 -8.832031 -2.800781 -13.023438 1.628906 -16.214844 C 2.144531 -16.574219 2.664062 -16.933594 3.144531 -17.25 C 5.21875 -18.566406 7.414062 -19.726562 9.6875 -20.683594 C 11.960938 -21.640625 14.316406 -22.4375 16.710938 -23.078125 C 19.863281 -23.953125 22.933594 -24.792969 26.085938 -25.351562 C 29.160156 -25.871094 32.230469 -26.1875 35.34375 -26.347656 C 36.660156 -26.429688 37.738281 -26.46875 38.695312 -26.46875 C 39.734375 -26.46875 40.691406 -26.46875 41.609375 -26.429688 C 43.363281 -26.347656 45.078125 -26.109375 46.753906 -25.710938 C 49.230469 -25.113281 51.625 -24.234375 53.898438 -23.117188 C 55.691406 -22.238281 57.410156 -21.160156 59.003906 -19.925781 C 59.722656 -19.367188 60.441406 -18.765625 61.078125 -18.128906 C 62.996094 -16.292969 64.632812 -14.179688 65.90625 -11.863281 C 67.183594 -9.589844 68.101562 -7.117188 68.660156 -4.5625 C 69.738281 0.464844 69.058594 4.972656 66.746094 8.246094 Z M 58.925781 -10.707031 C 57.847656 -12.78125 56.410156 -14.65625 54.695312 -16.253906 C 54.097656 -16.8125 53.457031 -17.332031 52.78125 -17.851562 C 51.304688 -18.925781 49.746094 -19.84375 48.070312 -20.5625 C 45.957031 -21.480469 43.761719 -22.160156 41.527344 -22.597656 C 39.972656 -22.878906 38.417969 -23.035156 36.820312 -23.035156 C 35.980469 -23.035156 35.105469 -23.035156 34.226562 -22.996094 C 33.347656 -22.957031 32.3125 -22.878906 31.273438 -22.757812 C 28.519531 -22.476562 25.808594 -21.960938 23.09375 -21.28125 C 20.378906 -20.601562 17.667969 -19.644531 14.914062 -18.6875 C 13 -18.050781 11.164062 -17.292969 9.367188 -16.375 C 7.574219 -15.457031 5.855469 -14.417969 4.222656 -13.261719 C 3.863281 -12.980469 3.421875 -12.703125 3.023438 -12.34375 C -1.484375 -8.671875 -5.476562 -4.363281 -8.46875 -0.972656 C -13.296875 4.496094 -15.890625 11.597656 -15.808594 18.898438 C -15.691406 25.640625 -13.535156 31.746094 -9.746094 36.054688 C -9.105469 36.773438 -8.269531 37.613281 -7.230469 37.851562 C -6.351562 38.011719 -5.476562 37.933594 -4.675781 37.574219 C -4.359375 37.453125 -4 37.332031 -3.679688 37.253906 C -2.800781 37.054688 -1.605469 37.132812 -0.046875 37.492188 C 1.707031 37.8125 3.460938 37.972656 5.21875 37.972656 C 6.933594 38.011719 8.609375 38.171875 10.285156 38.449219 C 14.476562 39.367188 18.464844 41.683594 22.257812 43.957031 C 27.085938 46.789062 32.070312 49.703125 37.539062 49.703125 C 38.296875 49.703125 39.054688 49.664062 39.8125 49.542969 C 42.40625 49.105469 44.839844 47.945312 46.796875 46.191406 C 49.789062 43.519531 51.503906 39.847656 51.304688 36.296875 C 51.183594 33.980469 50.347656 31.707031 49.507812 29.472656 C 48.550781 26.878906 47.554688 24.207031 47.714844 21.492188 C 47.871094 19.097656 48.832031 16.945312 50.707031 14.867188 C 51.824219 13.710938 53.019531 12.632812 54.296875 11.636719 C 55.972656 10.28125 57.6875 8.84375 58.964844 7.128906 C 61.160156 4.175781 61.917969 0.144531 61.199219 -4.203125 C 60.761719 -6.519531 60.003906 -8.710938 58.925781 -10.707031 Z M 58.285156 6.648438 C 57.089844 8.285156 55.414062 9.683594 53.777344 11.039062 C 52.460938 12.074219 51.222656 13.152344 50.105469 14.351562 C 48.113281 16.542969 47.074219 18.859375 46.914062 21.453125 C 46.714844 24.367188 47.753906 27.117188 48.75 29.753906 C 49.589844 32.027344 50.386719 34.140625 50.507812 36.335938 C 50.664062 39.648438 49.070312 43.078125 46.277344 45.59375 C 44.441406 47.269531 42.167969 48.386719 39.691406 48.785156 C 33.589844 49.742188 28.28125 46.589844 22.65625 43.277344 C 18.785156 41.003906 14.753906 38.648438 10.445312 37.730469 C 8.730469 37.414062 6.972656 37.253906 5.257812 37.214844 C 3.542969 37.171875 1.828125 37.015625 0.109375 36.65625 C -0.765625 36.457031 -1.683594 36.335938 -2.601562 36.296875 C -3 36.296875 -3.441406 36.335938 -3.839844 36.414062 C -4.199219 36.496094 -4.597656 36.613281 -4.917969 36.734375 C -5.632812 36.972656 -6.234375 37.171875 -7.03125 37.015625 C -7.828125 36.855469 -8.585938 36.097656 -9.144531 35.457031 C -12.816406 31.308594 -14.890625 25.402344 -15.011719 18.820312 C -15.089844 11.71875 -12.539062 4.855469 -7.867188 -0.492188 C -4.917969 -3.84375 -0.925781 -8.113281 3.542969 -11.746094 C 3.941406 -12.0625 4.339844 -12.382812 4.699219 -12.621094 C 6.296875 -13.78125 7.972656 -14.816406 9.726562 -15.695312 C 11.484375 -16.574219 13.316406 -17.332031 15.195312 -17.96875 C 17.945312 -18.925781 20.621094 -19.84375 23.292969 -20.523438 C 25.925781 -21.203125 28.640625 -21.679688 31.355469 -21.960938 C 32.390625 -22.078125 33.347656 -22.160156 34.265625 -22.199219 C 35.183594 -22.238281 36.023438 -22.277344 36.820312 -22.238281 C 38.335938 -22.238281 39.890625 -22.078125 41.410156 -21.800781 C 43.601562 -21.402344 45.757812 -20.722656 47.792969 -19.804688 C 49.390625 -19.085938 50.945312 -18.207031 52.339844 -17.171875 C 52.980469 -16.691406 53.617188 -16.175781 54.175781 -15.65625 C 55.8125 -14.140625 57.210938 -12.304688 58.246094 -10.347656 C 59.285156 -8.394531 60.042969 -6.277344 60.402344 -4.082031 C 61.078125 0.0664062 60.363281 3.855469 58.285156 6.648438 Z M 47.714844 -13.859375 C 47.195312 -14.339844 46.597656 -14.777344 46.039062 -15.175781 C 41.726562 -18.167969 35.941406 -19.445312 29.71875 -18.765625 C 23.652344 -18.128906 17.707031 -15.65625 13.238281 -13.539062 C 10.125 -12.144531 7.253906 -10.230469 4.78125 -7.835938 C 1.46875 -4.644531 -1.644531 -1.089844 -4.398438 2.0625 C -8.785156 7.046875 -10.742188 13.351562 -9.585938 18.980469 C -8.425781 24.683594 -3.917969 29.234375 1.347656 30.070312 C 3.023438 30.269531 4.699219 30.269531 6.375 30.109375 C 7.890625 29.953125 9.449219 29.953125 10.964844 30.109375 C 15.074219 30.628906 18.664062 33.261719 22.175781 35.777344 C 26.007812 38.570312 29.957031 41.402344 34.546875 41.402344 C 35.023438 41.402344 35.503906 41.363281 35.980469 41.324219 C 41.847656 40.285156 45.757812 34.738281 44.71875 28.875 C 44.71875 28.835938 44.71875 28.835938 44.71875 28.792969 C 44.363281 27.117188 43.523438 25.523438 42.765625 23.964844 C 41.609375 21.613281 40.492188 19.417969 40.769531 17.023438 C 41.167969 13.910156 43.683594 11.875 46.316406 9.683594 C 47.832031 8.445312 49.390625 7.167969 50.585938 5.652344 C 55.132812 -0.414062 52.820312 -9.351562 47.714844 -13.859375 Z M 49.867188 5.09375 C 48.75 6.53125 47.234375 7.765625 45.757812 9.003906 C 43.085938 11.160156 40.371094 13.433594 39.933594 16.863281 C 39.613281 19.496094 40.808594 21.929688 42.007812 24.285156 C 42.765625 25.800781 43.5625 27.359375 43.921875 28.953125 C 44.878906 34.378906 41.289062 39.527344 35.863281 40.523438 C 30.996094 41.164062 26.925781 38.25 22.65625 35.140625 C 19.0625 32.546875 15.394531 29.871094 11.082031 29.351562 C 10.40625 29.273438 9.726562 29.234375 9.050781 29.234375 C 8.132812 29.234375 7.214844 29.273438 6.335938 29.351562 C 4.738281 29.511719 3.105469 29.511719 1.46875 29.3125 C -3.398438 28.554688 -7.710938 24.164062 -8.828125 18.859375 C -9.945312 13.550781 -8.027344 7.449219 -3.800781 2.660156 C -1.046875 -0.453125 2.066406 -4.003906 5.339844 -7.15625 C 7.773438 -9.46875 10.566406 -11.347656 13.597656 -12.703125 C 18.027344 -14.777344 23.890625 -17.210938 29.835938 -17.851562 C 35.902344 -18.488281 41.488281 -17.292969 45.636719 -14.417969 C 46.195312 -14.019531 46.753906 -13.621094 47.234375 -13.140625 C 52.023438 -8.992188 54.257812 -0.574219 49.867188 5.09375 Z M 49.867188 5.09375 " fill-opacity="1" fill-rule="nonzero"/></g><g clip-path="url(#99b5fd82a8)"><g clip-path="url(#3bb356cc05)"><g clip-path="url(#a517948559)"><path fill="#bf2026" d="M 690.226562 280.785156 C 692.945312 285.539062 696.167969 289.949219 699.875 293.9375 C 707.402344 302.058594 716.628906 308.464844 726.886719 312.675781 C 730.871094 314.335938 735.652344 316.125 740.664062 317.214844 C 743.933594 317.917969 747.28125 318.195312 750.582031 318.035156 C 752.96875 317.976562 755.414062 317.78125 757.738281 317.613281 C 759.253906 317.476562 760.820312 317.375 762.347656 317.277344 C 764.195312 317.160156 766.097656 317.113281 767.953125 317.035156 C 771.902344 316.871094 775.980469 316.722656 779.988281 316.21875 C 792.171875 314.6875 804.011719 311.191406 815.027344 305.777344 C 820.515625 303.078125 825.792969 299.929688 830.738281 296.316406 C 831.945312 295.429688 833.148438 294.503906 834.347656 293.578125 C 857.269531 275.261719 872.359375 246.855469 874.628906 217.542969 C 876.894531 188.230469 866.425781 157.832031 846.535156 136.195312 C 842.039062 131.304688 838.046875 129.402344 834.28125 130.300781 C 829.972656 131.347656 828.070312 135.542969 826.222656 139.605469 C 825.195312 141.839844 824.179688 144.113281 822.746094 145.9375 C 818.773438 150.984375 811.578125 152.03125 806.191406 151.296875 C 801.597656 150.691406 797.199219 148.992188 792.941406 147.386719 C 791.496094 146.855469 790.042969 146.285156 788.558594 145.765625 C 773.445312 140.429688 756.875 139.488281 741.132812 142.574219 C 729.261719 144.859375 717.9375 149.515625 707.925781 156.316406 C 699.636719 161.964844 694.726562 167.804688 692.820312 174.277344 C 690.125 183.546875 693.78125 193.078125 697.335938 202.300781 C 700.976562 211.753906 704.71875 221.511719 701.308594 230.675781 C 699.71875 235.011719 696.613281 238.671875 693.609375 242.226562 C 690.605469 245.785156 687.429688 249.496094 685.792969 254.003906 C 682.234375 263.445312 686.253906 273.796875 690.226562 280.785156 Z M 686.558594 254.179688 C 688.1875 249.835938 691.253906 246.1875 694.265625 242.667969 C 697.300781 239.066406 700.4375 235.359375 702.121094 230.882812 C 705.640625 221.453125 701.828125 211.546875 698.117188 201.945312 C 694.625 192.832031 691 183.457031 693.625 174.445312 C 695.449219 168.191406 700.300781 162.445312 708.414062 156.953125 C 731.445312 141.257812 762.050781 137.253906 788.335938 146.5 C 789.78125 147.027344 791.273438 147.589844 792.71875 148.121094 C 797.027344 149.757812 801.464844 151.449219 806.140625 152.078125 C 808.691406 152.433594 811.3125 152.324219 813.816406 151.835938 C 817.460938 151.121094 820.957031 149.460938 823.402344 146.378906 C 824.902344 144.5 825.945312 142.140625 827.003906 139.859375 C 828.851562 135.796875 830.582031 131.960938 834.503906 131.03125 C 837.957031 130.191406 841.699219 132.0625 845.976562 136.671875 C 865.683594 158.183594 876.113281 188.382812 873.84375 217.492188 C 871.578125 246.601562 856.605469 274.78125 833.777344 292.957031 C 832.617188 293.875 831.417969 294.800781 830.207031 295.6875 C 825.296875 299.253906 820.09375 302.386719 814.644531 305.082031 C 803.699219 310.4375 791.941406 313.921875 779.875 315.429688 C 775.90625 315.921875 771.828125 316.070312 767.875 316.234375 C 766.023438 316.3125 764.128906 316.398438 762.273438 316.480469 C 760.746094 316.574219 759.179688 316.679688 757.664062 316.8125 C 755.335938 316.984375 752.894531 317.175781 750.515625 317.277344 C 747.246094 317.390625 743.980469 317.132812 740.800781 316.457031 C 735.835938 315.398438 731.132812 313.59375 727.195312 311.964844 C 717.03125 307.816406 707.9375 301.46875 700.464844 293.417969 C 696.804688 289.457031 693.589844 285.085938 690.921875 280.40625 C 687.015625 273.527344 683.085938 263.441406 686.558594 254.179688 Z M 707.15625 291.046875 C 710.617188 294.800781 714.492188 298.191406 718.675781 301.070312 C 719.996094 301.992188 721.382812 302.859375 722.765625 303.683594 C 725.84375 305.480469 729.035156 307.050781 732.339844 308.355469 C 735.824219 309.746094 740.429688 311.445312 745.253906 312.414062 C 748.300781 313.035156 751.429688 313.234375 754.53125 313.074219 C 756.386719 312.996094 758.148438 312.855469 759.664062 312.71875 L 761.542969 312.554688 C 762.820312 312.425781 764.183594 312.324219 765.503906 312.226562 C 767.109375 312.117188 768.714844 312.003906 770.328125 311.933594 C 774.148438 311.714844 778.042969 311.476562 781.921875 310.921875 C 787.574219 310.101562 793.09375 308.816406 798.53125 307.097656 C 803.898438 305.4375 809.105469 303.359375 814.097656 300.835938 C 819.101562 298.351562 823.894531 295.421875 828.398438 292.058594 C 829.496094 291.234375 830.597656 290.410156 831.679688 289.503906 C 840.785156 282.027344 848.546875 273.070312 854.578125 262.980469 C 862.722656 249.554688 867.511719 234.34375 868.589844 218.683594 C 869.402344 205.390625 867.558594 192.050781 863.140625 179.457031 C 858.761719 166.855469 851.867188 155.320312 842.828125 145.5 C 838.761719 141.132812 835.167969 139.398438 831.746094 140.191406 C 827.820312 141.121094 826.109375 144.832031 824.417969 148.457031 C 823.503906 150.425781 822.5625 152.480469 821.242188 154.039062 C 818.199219 157.808594 812.605469 159.554688 806.355469 158.785156 C 801.773438 158.21875 797.367188 156.683594 793.050781 155.210938 C 791.917969 154.824219 790.785156 154.4375 789.613281 154.054688 C 774.320312 149.042969 758.179688 148.015625 743.378906 150.914062 C 737.9375 151.980469 732.640625 153.589844 727.535156 155.765625 C 722.925781 157.769531 718.496094 160.261719 714.390625 163.179688 C 706.898438 168.511719 702.453125 174.058594 700.851562 180.1875 C 698.664062 188.542969 701.964844 197.085938 705.164062 205.324219 C 706.386719 208.457031 707.636719 211.710938 708.585938 214.898438 C 710.65625 221.933594 710.71875 227.246094 708.835938 232.167969 C 707.335938 236.125 704.457031 239.492188 701.730469 242.792969 C 698.929688 246.144531 695.984375 249.570312 694.441406 253.734375 C 691.09375 262.601562 694.6875 272.226562 698.316406 278.710938 C 700.78125 283.191406 703.738281 287.285156 707.15625 291.046875 Z M 695.167969 254.121094 C 696.660156 250.128906 699.53125 246.71875 702.296875 243.414062 C 705.066406 240.105469 707.96875 236.648438 709.5625 232.554688 C 711.53125 227.453125 711.4375 221.984375 709.335938 214.792969 C 708.378906 211.5625 707.140625 208.351562 705.90625 205.175781 C 702.730469 197.058594 699.496094 188.625 701.609375 180.527344 C 703.171875 174.609375 707.472656 169.171875 714.828125 163.949219 C 718.898438 161.078125 723.253906 158.597656 727.832031 156.644531 C 732.855469 154.480469 738.152344 152.875 743.515625 151.824219 C 758.160156 148.953125 774.175781 149.964844 789.335938 154.921875 C 790.46875 155.3125 791.601562 155.699219 792.773438 156.078125 C 797.128906 157.542969 801.574219 159.070312 806.203125 159.667969 C 808.542969 159.984375 810.890625 159.929688 813.199219 159.476562 C 816.765625 158.78125 819.816406 157.125 821.804688 154.621094 C 823.140625 152.9375 824.121094 150.875 825.066406 148.859375 C 826.761719 145.273438 828.335938 141.875 831.875 141.058594 C 834.984375 140.328125 838.320312 141.992188 842.183594 146.15625 C 859.863281 165.21875 869.453125 192.371094 867.746094 218.726562 C 866.679688 234.265625 861.949219 249.339844 853.867188 262.675781 C 847.859375 272.675781 840.164062 281.542969 831.164062 288.957031 C 830.113281 289.8125 829.015625 290.636719 827.914062 291.460938 C 823.441406 294.777344 818.71875 297.65625 813.765625 300.171875 C 808.800781 302.648438 803.597656 304.722656 798.308594 306.371094 C 792.910156 308.078125 787.378906 309.324219 781.765625 310.140625 C 777.929688 310.6875 774.03125 310.921875 770.253906 311.132812 C 768.6875 311.238281 767.035156 311.316406 765.429688 311.429688 C 764.109375 311.523438 762.753906 311.667969 761.429688 311.765625 L 759.550781 311.929688 C 758.03125 312.066406 756.273438 312.207031 754.457031 312.277344 C 751.394531 312.429688 748.382812 312.207031 745.382812 311.617188 C 740.644531 310.671875 736.078125 308.964844 732.640625 307.605469 C 729.375 306.292969 726.230469 304.753906 723.199219 302.992188 C 721.824219 302.203125 720.476562 301.328125 719.15625 300.40625 C 715.011719 297.519531 711.191406 294.203125 707.769531 290.441406 C 704.40625 286.75 701.453125 282.691406 699.015625 278.332031 C 695.425781 272.042969 691.886719 262.691406 695.167969 254.121094 Z M 714.4375 288.160156 C 717.601562 291.644531 721.179688 294.765625 725.074219 297.417969 C 726.300781 298.277344 727.597656 299.078125 728.878906 299.804688 C 731.726562 301.484375 734.726562 302.886719 737.804688 304.074219 C 742.554688 305.90625 746.269531 307.011719 749.847656 307.648438 C 752.671875 308.152344 755.589844 308.3125 758.449219 308.160156 C 760.214844 308.058594 761.890625 307.894531 763.214844 307.796875 L 765.367188 307.578125 C 766.441406 307.449219 767.558594 307.351562 768.640625 307.261719 C 769.953125 307.125 771.277344 307.03125 772.601562 306.933594 C 776.28125 306.621094 780.082031 306.320312 783.789062 305.71875 C 788.980469 304.824219 794.132812 303.527344 799.132812 301.859375 C 803.953125 300.304688 808.644531 298.328125 813.195312 296.011719 C 817.703125 293.707031 822.007812 290.992188 826.082031 287.917969 C 827.183594 287.09375 828.132812 286.335938 829.042969 285.589844 C 837.347656 278.597656 844.417969 270.257812 849.953125 260.960938 C 857.445312 248.554688 861.71875 234.464844 862.425781 220.011719 C 862.988281 208.152344 861.203125 196.34375 857.265625 185.164062 C 853.328125 173.980469 847.136719 163.765625 839.050781 155.066406 C 835.457031 151.253906 832.300781 149.679688 829.328125 150.261719 L 829.128906 150.300781 C 825.628906 151.105469 824.027344 154.347656 822.488281 157.496094 C 821.644531 159.207031 820.769531 160.964844 819.621094 162.367188 C 816.925781 165.621094 811.941406 167.164062 806.359375 166.46875 C 801.53125 165.910156 797.078125 164.546875 792.410156 163.144531 L 790.550781 162.574219 C 778.757812 159.027344 762.484375 156.078125 746.039062 159.296875 C 741.535156 160.179688 737.125 161.53125 732.914062 163.292969 C 728.601562 165.152344 724.507812 167.5 720.75 170.3125 C 714.078125 175.277344 710.058594 180.699219 708.777344 186.398438 C 707.101562 193.84375 710.078125 201.351562 712.9375 208.679688 C 714.152344 211.773438 715.433594 214.980469 716.335938 218.136719 C 718.09375 224.421875 718.097656 229.421875 716.296875 233.921875 C 714.890625 237.53125 712.277344 240.601562 709.777344 243.613281 C 707.167969 246.6875 704.503906 249.890625 703.015625 253.722656 C 699.871094 261.941406 703.105469 270.78125 706.351562 276.773438 C 708.574219 280.851562 711.277344 284.671875 714.4375 288.160156 Z M 703.765625 254.019531 C 705.160156 250.332031 707.839844 247.207031 710.371094 244.148438 C 712.949219 241.121094 715.582031 237.964844 717.054688 234.261719 C 718.902344 229.589844 718.941406 224.375 717.109375 217.945312 C 716.199219 214.75 714.921875 211.542969 713.695312 208.40625 C 710.722656 200.898438 707.949219 193.796875 709.550781 186.613281 C 710.792969 181.125 714.71875 175.84375 721.207031 170.992188 C 724.898438 168.238281 728.953125 165.898438 733.183594 164.054688 C 753.527344 155.390625 775.476562 158.898438 790.296875 163.355469 L 792.117188 163.933594 C 796.660156 165.320312 801.324219 166.722656 806.238281 167.308594 C 808.324219 167.589844 810.460938 167.496094 812.542969 167.128906 C 815.714844 166.507812 818.398438 165.046875 820.175781 162.910156 C 821.394531 161.449219 822.300781 159.648438 823.128906 157.859375 C 824.667969 154.710938 826.089844 151.789062 829.246094 151.089844 C 832.007812 150.46875 834.984375 151.957031 838.421875 155.59375 C 854.351562 172.558594 862.761719 196 861.605469 219.96875 C 860.914062 234.296875 856.65625 248.261719 849.261719 260.527344 C 843.753906 269.777344 836.75 278.023438 828.511719 284.960938 C 827.640625 285.703125 826.691406 286.457031 825.59375 287.28125 C 821.550781 290.308594 817.28125 293.015625 812.8125 295.316406 C 808.34375 297.613281 803.679688 299.542969 798.863281 301.097656 C 793.902344 302.761719 788.785156 304.046875 783.632812 304.933594 C 779.929688 305.539062 776.171875 305.867188 772.484375 306.144531 C 771.164062 306.238281 769.847656 306.375 768.523438 306.472656 C 767.445312 306.5625 766.332031 306.699219 765.253906 306.789062 L 763.140625 307 C 761.863281 307.125 760.148438 307.300781 758.410156 307.355469 C 755.59375 307.5 752.761719 307.363281 749.976562 306.851562 C 746.476562 306.195312 742.808594 305.125 738.105469 303.324219 C 735.066406 302.128906 732.113281 300.757812 729.3125 299.109375 C 728.03125 298.386719 726.773438 297.574219 725.546875 296.714844 C 721.699219 294.09375 718.167969 291.003906 715.058594 287.589844 C 711.949219 284.171875 709.265625 280.429688 707.050781 276.390625 C 703.835938 270.554688 700.722656 261.9375 703.765625 254.019531 Z M 721.710938 285.230469 C 724.617188 288.441406 727.863281 291.300781 731.429688 293.734375 C 732.558594 294.527344 733.761719 295.269531 734.949219 295.929688 C 737.605469 297.445312 740.378906 298.730469 743.230469 299.796875 C 746.839844 301.207031 750.574219 302.222656 754.367188 302.902344 C 757.011719 303.320312 759.71875 303.441406 762.363281 303.246094 C 763.648438 303.15625 765.007812 303.054688 766.753906 302.832031 L 769.222656 302.554688 C 770.058594 302.472656 770.890625 302.347656 771.726562 302.265625 L 774.75 301.917969 C 778.335938 301.542969 782.039062 301.140625 785.679688 300.429688 L 785.71875 300.421875 C 790.449219 299.453125 795.15625 298.164062 799.71875 296.539062 C 804.019531 295.046875 808.21875 293.246094 812.273438 291.109375 C 816.328125 288.976562 820.148438 286.476562 823.753906 283.699219 C 824.773438 282.890625 825.621094 282.234375 826.382812 281.558594 C 833.582031 275.347656 839.972656 267.714844 845.347656 258.8125 C 852.183594 247.429688 855.992188 234.488281 856.355469 221.203125 C 857.003906 199.808594 849.332031 179.113281 835.320312 164.457031 C 832.09375 161.0625 829.234375 159.753906 826.570312 160.273438 C 823.445312 160.925781 822.042969 163.722656 820.625 166.441406 C 819.890625 167.886719 819.085938 169.382812 818.0625 170.601562 C 815.675781 173.347656 811.332031 174.644531 806.429688 174.101562 C 801.109375 173.515625 796.144531 172.25 791.511719 171.003906 C 780.050781 167.921875 764.15625 164.613281 748.726562 167.636719 C 745.164062 168.332031 741.671875 169.382812 738.285156 170.777344 C 734.261719 172.460938 730.507812 174.660156 727.089844 177.363281 C 721.171875 182.019531 717.664062 187.140625 716.6875 192.535156 C 715.488281 199.070312 718.152344 205.625 720.695312 211.957031 C 721.941406 215.003906 723.214844 218.171875 724.03125 221.304688 C 725.542969 226.945312 725.460938 231.515625 723.714844 235.679688 C 722.394531 238.90625 720.023438 241.730469 717.742188 244.414062 C 715.367188 247.234375 712.898438 250.199219 711.507812 253.683594 C 708.550781 261.214844 711.40625 269.359375 714.304688 274.808594 C 716.417969 278.539062 718.851562 282.046875 721.710938 285.230469 Z M 712.328125 253.929688 C 713.65625 250.539062 716.0625 247.667969 718.40625 244.890625 C 720.746094 242.117188 723.121094 239.292969 724.496094 235.933594 C 726.289062 231.597656 726.378906 226.863281 724.835938 221.066406 C 723.972656 217.902344 722.695312 214.695312 721.445312 211.648438 C 718.828125 205.125 716.316406 198.949219 717.484375 192.664062 C 718.421875 187.476562 721.84375 182.539062 727.621094 177.992188 C 730.964844 175.34375 734.644531 173.160156 738.585938 171.492188 C 756.730469 163.871094 777.382812 168 791.335938 171.769531 C 795.972656 173.019531 800.972656 174.273438 806.339844 174.890625 C 808.210938 175.09375 810.109375 175.046875 811.953125 174.683594 C 814.730469 174.140625 817.09375 172.90625 818.65625 171.136719 C 819.75 169.863281 820.546875 168.324219 821.308594 166.835938 C 822.699219 164.164062 823.960938 161.679688 826.691406 161.105469 L 826.8125 161.082031 C 829.160156 160.621094 831.769531 161.898438 834.746094 165.054688 C 848.609375 179.578125 856.199219 200.050781 855.550781 221.238281 C 855.195312 234.359375 851.441406 247.171875 844.707031 258.453125 C 839.398438 267.257812 833.042969 274.886719 825.90625 281 C 825.136719 281.636719 824.335938 282.324219 823.316406 283.132812 C 819.753906 285.90625 815.925781 288.363281 811.949219 290.484375 C 807.933594 292.613281 803.769531 294.402344 799.5 295.851562 C 794.980469 297.46875 790.347656 298.742188 785.617188 299.707031 L 785.578125 299.714844 C 781.976562 300.421875 778.3125 300.8125 774.726562 301.191406 L 771.746094 301.53125 L 769.238281 301.820312 C 768.410156 301.941406 767.613281 302.015625 766.773438 302.097656 C 765.019531 302.277344 763.707031 302.414062 762.382812 302.511719 C 759.777344 302.695312 757.1875 302.554688 754.628906 302.160156 C 750.875 301.472656 747.179688 300.449219 743.617188 299.074219 C 740.769531 298.042969 738.039062 296.75 735.429688 295.269531 C 734.242188 294.605469 733.078125 293.859375 731.957031 293.101562 C 728.4375 290.703125 725.207031 287.917969 722.347656 284.738281 C 719.542969 281.628906 717.117188 278.160156 715.125 274.441406 C 712.285156 269.0625 709.519531 261.1875 712.328125 253.929688 Z M 728.984375 282.300781 C 731.59375 285.246094 734.542969 287.839844 737.8125 290.003906 C 738.890625 290.726562 739.953125 291.375 741.09375 292.003906 C 743.550781 293.351562 746.097656 294.519531 748.761719 295.460938 C 752.089844 296.679688 755.554688 297.546875 759.074219 298.078125 C 761.5 298.414062 763.949219 298.464844 766.390625 298.269531 C 767.585938 298.15625 768.863281 298.03125 770.414062 297.847656 C 771.363281 297.703125 772.355469 297.589844 773.304688 297.445312 L 774.964844 297.199219 L 776.828125 296.957031 C 780.390625 296.464844 784.078125 295.984375 787.65625 295.160156 C 791.972656 294.152344 796.226562 292.832031 800.386719 291.246094 C 804.179688 289.851562 807.878906 288.191406 811.441406 286.234375 C 815 284.273438 818.34375 282.035156 821.507812 279.503906 C 822.417969 278.757812 823.15625 278.164062 823.816406 277.585938 C 830.152344 271.957031 835.886719 264.894531 840.785156 256.699219 C 846.96875 246.339844 850.222656 234.519531 850.214844 222.445312 C 850.320312 203.882812 843.519531 186.1875 831.558594 173.894531 C 828.757812 171.027344 826.292969 169.84375 823.980469 170.296875 C 821.277344 170.824219 819.988281 173.152344 818.757812 175.386719 C 818.140625 176.601562 817.386719 177.726562 816.535156 178.789062 C 813.589844 182.007812 808.558594 181.855469 806.53125 181.683594 C 801.816406 181.265625 797.15625 180.511719 792.519531 179.46875 C 779.6875 176.453125 765.460938 173.140625 751.949219 175.785156 C 749.132812 176.339844 746.367188 177.164062 743.691406 178.257812 C 740.007812 179.792969 736.597656 181.882812 733.519531 184.4375 C 729.960938 187.453125 725.515625 192.351562 724.683594 198.691406 C 723.957031 204.324219 726.273438 209.929688 728.507812 215.304688 C 729.746094 218.316406 731.042969 221.394531 731.8125 224.496094 C 733.074219 229.496094 732.894531 233.554688 731.246094 237.375 C 730.011719 240.21875 727.90625 242.746094 725.859375 245.179688 C 723.683594 247.761719 721.441406 250.4375 720.195312 253.609375 C 717.433594 260.492188 719.894531 267.859375 722.417969 272.851562 C 724.210938 276.199219 726.429688 279.425781 728.984375 282.300781 Z M 720.96875 253.824219 C 722.199219 250.777344 724.371094 248.15625 726.507812 245.582031 C 728.585938 243.101562 730.730469 240.566406 732.019531 237.589844 C 733.753906 233.589844 733.9375 229.328125 732.644531 224.171875 C 731.863281 221.03125 730.5625 217.910156 729.273438 214.871094 C 726.964844 209.304688 724.761719 204.085938 725.488281 198.65625 C 726.296875 192.605469 730.609375 187.855469 734.066406 184.941406 C 737.066406 182.402344 740.40625 180.367188 744.011719 178.847656 C 759.554688 172.46875 776.980469 176.535156 792.328125 180.15625 C 796.972656 181.238281 801.671875 181.984375 806.394531 182.441406 C 808.0625 182.644531 809.753906 182.558594 811.40625 182.273438 C 813.753906 181.8125 815.714844 180.820312 817.089844 179.332031 C 818.019531 178.253906 818.796875 177.042969 819.445312 175.777344 C 820.640625 173.59375 821.785156 171.539062 824.132812 171.078125 C 826.171875 170.679688 828.417969 171.785156 831.015625 174.449219 C 842.871094 186.601562 849.585938 204.070312 849.480469 222.425781 C 849.457031 234.34375 846.21875 246.039062 840.128906 256.257812 C 835.253906 264.367188 829.582031 271.335938 823.285156 276.960938 C 822.664062 277.527344 821.925781 278.121094 821.015625 278.867188 C 817.890625 281.390625 814.542969 283.59375 811.058594 285.535156 C 807.53125 287.445312 803.910156 289.089844 800.117188 290.484375 C 795.996094 292.0625 791.777344 293.378906 787.464844 294.386719 C 783.921875 295.203125 780.273438 295.671875 776.710938 296.167969 L 774.847656 296.410156 L 773.1875 296.652344 C 772.242188 296.796875 771.253906 296.953125 770.300781 297.058594 C 768.757812 297.277344 767.480469 297.40625 766.316406 297.472656 C 763.917969 297.695312 761.542969 297.59375 759.164062 297.285156 C 755.722656 296.742188 752.296875 295.867188 749.015625 294.679688 C 746.398438 293.769531 743.898438 292.632812 741.476562 291.277344 C 740.386719 290.679688 739.316406 289.992188 738.246094 289.308594 C 735.0625 287.167969 732.121094 284.613281 729.566406 281.738281 C 727.019531 278.902344 724.855469 275.75 723.132812 272.347656 C 720.695312 267.578125 718.320312 260.441406 720.96875 253.824219 Z M 736.265625 279.410156 C 738.582031 282.085938 741.269531 284.40625 744.214844 286.351562 C 745.1875 286.972656 746.203125 287.585938 747.203125 288.125 C 749.4375 289.351562 751.828125 290.347656 754.21875 291.140625 C 757.265625 292.167969 760.417969 292.894531 763.625 293.28125 C 765.828125 293.542969 768.066406 293.550781 770.296875 293.316406 C 771.417969 293.21875 772.570312 293.074219 773.945312 292.847656 C 775.050781 292.671875 776.195312 292.488281 777.296875 292.3125 L 778.480469 292.121094 C 782.105469 291.53125 785.878906 290.875 789.515625 289.917969 C 793.410156 288.828125 797.21875 287.515625 800.933594 285.933594 C 804.214844 284.640625 807.414062 283.117188 810.480469 281.339844 C 813.546875 279.558594 816.445312 277.527344 819.167969 275.246094 C 819.765625 274.761719 820.457031 274.140625 821.148438 273.515625 C 826.605469 268.378906 831.664062 262.023438 836.167969 254.511719 C 841.566406 245.527344 844.378906 234.566406 844.109375 223.640625 C 843.722656 207.980469 837.796875 193.285156 827.796875 183.332031 C 826.28125 181.839844 823.980469 179.851562 821.390625 180.316406 L 821.273438 180.339844 C 819.078125 180.769531 817.929688 182.582031 816.851562 184.335938 C 816.308594 185.296875 815.671875 186.195312 814.929688 186.992188 C 813.203125 188.753906 810.148438 189.554688 806.550781 189.242188 L 803.992188 189.050781 C 800.457031 188.851562 796.953125 188.398438 793.457031 187.78125 C 791.046875 187.320312 788.539062 186.753906 786.121094 186.25 C 775.886719 184.027344 765.355469 181.738281 755.292969 183.710938 C 753.136719 184.132812 751.0625 184.742188 749.023438 185.546875 C 745.640625 186.945312 742.5625 188.886719 739.878906 191.367188 C 736.769531 194.171875 732.992188 198.773438 732.609375 204.703125 C 732.277344 209.445312 734.242188 213.855469 736.265625 218.582031 C 737.519531 221.46875 738.839844 224.460938 739.5625 227.535156 C 740.5625 231.808594 740.28125 235.566406 738.710938 238.960938 C 737.574219 241.460938 735.734375 243.691406 733.917969 245.835938 C 731.9375 248.175781 729.933594 250.601562 728.746094 253.476562 C 726.1875 259.710938 728.25 266.300781 730.433594 270.792969 C 732.007812 273.859375 733.960938 276.769531 736.265625 279.410156 Z M 729.574219 253.761719 C 730.707031 251.019531 732.679688 248.640625 734.589844 246.355469 C 736.398438 244.171875 738.316406 241.925781 739.476562 239.339844 C 741.132812 235.765625 741.421875 231.84375 740.390625 227.410156 C 739.660156 224.300781 738.335938 221.269531 737.0625 218.304688 C 735.0625 213.695312 733.15625 209.351562 733.445312 204.824219 C 733.84375 199.175781 737.492188 194.761719 740.453125 192.027344 C 743.070312 189.601562 746.113281 187.703125 749.390625 186.371094 C 761.035156 181.691406 773.734375 184.449219 786 187.085938 C 788.417969 187.589844 790.925781 188.15625 793.335938 188.617188 C 796.832031 189.234375 800.375 189.679688 803.949219 189.875 L 806.476562 190.109375 C 810.277344 190.421875 813.558594 189.535156 815.460938 187.617188 C 816.230469 186.777344 816.9375 185.824219 817.515625 184.816406 C 818.5625 183.109375 819.585938 181.484375 821.511719 181.148438 C 823.203125 180.855469 825.007812 181.765625 827.222656 183.933594 C 837.105469 193.707031 842.957031 208.214844 843.339844 223.671875 C 843.589844 234.476562 840.820312 245.265625 835.527344 254.148438 C 831.054688 261.613281 826.066406 267.917969 820.632812 272.964844 C 819.941406 273.589844 819.242188 274.171875 818.6875 274.648438 C 815.992188 276.882812 813.136719 278.90625 810.140625 280.632812 C 807.105469 282.367188 803.945312 283.878906 800.660156 285.171875 C 796.976562 286.707031 793.167969 288.023438 789.316406 289.101562 C 785.71875 290.050781 782.140625 290.671875 778.320312 291.296875 L 777.136719 291.488281 C 776.035156 291.664062 774.9375 291.878906 773.785156 292.023438 C 772.40625 292.253906 771.257812 292.398438 770.175781 292.488281 C 768.023438 292.703125 765.824219 292.6875 763.707031 292.453125 C 760.539062 292.058594 757.433594 291.363281 754.425781 290.328125 C 752.035156 289.535156 749.730469 288.5625 747.542969 287.367188 C 746.542969 286.828125 745.527344 286.214844 744.601562 285.625 C 741.703125 283.710938 739.097656 281.417969 736.839844 278.808594 C 734.589844 276.242188 732.691406 273.402344 731.191406 270.320312 C 729.105469 266.09375 727.117188 259.691406 729.574219 253.761719 Z M 743.539062 276.480469 C 745.589844 278.84375 747.953125 280.941406 750.558594 282.628906 C 751.441406 283.1875 752.363281 283.738281 753.308594 284.203125 C 755.34375 285.269531 757.46875 286.152344 759.675781 286.820312 C 762.449219 287.699219 765.320312 288.234375 768.21875 288.519531 C 770.238281 288.652344 772.265625 288.621094 774.246094 288.355469 C 775.28125 288.234375 776.34375 288.066406 777.527344 287.875 C 778.710938 287.683594 779.996094 287.390625 781.246094 287.148438 C 784.691406 286.472656 788.109375 285.640625 791.445312 284.621094 C 794.878906 283.460938 798.277344 282.144531 801.59375 280.597656 C 804.371094 279.40625 807.066406 278.023438 809.640625 276.421875 C 812.214844 274.820312 814.625 273.003906 816.917969 271.011719 C 817.433594 270.542969 818.023438 270.019531 818.566406 269.46875 C 823.230469 264.855469 827.503906 259.261719 831.632812 252.3125 C 836.40625 244.300781 838.679688 234.542969 838.070312 224.785156 C 837.246094 211.855469 832.289062 200.464844 824.097656 192.675781 C 822.847656 191.496094 820.960938 189.957031 818.863281 190.246094 C 817 190.488281 816.007812 191.863281 815.054688 193.226562 C 814.582031 193.929688 814.054688 194.5625 813.445312 195.171875 C 811.503906 196.890625 808.382812 196.933594 806.691406 196.816406 C 805.042969 196.695312 803.40625 196.648438 801.855469 196.625 C 799.414062 196.617188 796.988281 196.480469 794.527344 196.152344 C 790.84375 195.613281 787.050781 194.730469 783.382812 193.863281 C 775.371094 191.976562 767.105469 190.058594 759.15625 191.613281 C 757.589844 191.921875 756.054688 192.382812 754.542969 192.964844 C 751.488281 194.175781 748.679688 196.027344 746.375 198.386719 C 742.636719 202.128906 740.648438 206.503906 740.675781 210.808594 C 740.699219 214.664062 742.378906 218.238281 744.171875 221.996094 C 745.488281 224.785156 746.824219 227.65625 747.445312 230.625 C 748.199219 234.257812 747.824219 237.542969 746.3125 240.605469 C 745.261719 242.722656 743.6875 244.65625 742.140625 246.503906 C 740.394531 248.59375 738.546875 250.785156 737.496094 253.308594 C 735.136719 258.894531 736.808594 264.746094 738.601562 268.707031 C 739.890625 271.542969 741.539062 274.148438 743.539062 276.480469 Z M 738.175781 253.664062 C 739.203125 251.226562 740.980469 249.089844 742.695312 247.046875 C 744.273438 245.152344 745.878906 243.167969 747 241 C 748.597656 237.757812 748.980469 234.308594 748.199219 230.515625 C 747.550781 227.433594 746.171875 224.53125 744.84375 221.699219 C 743.097656 217.976562 741.484375 214.511719 741.453125 210.816406 C 741.429688 206.757812 743.332031 202.5625 746.898438 198.976562 C 749.136719 196.707031 751.835938 194.917969 754.773438 193.734375 C 763.875 190.160156 773.679688 192.46875 783.136719 194.683594 C 786.804688 195.550781 790.644531 196.464844 794.320312 196.964844 C 796.773438 197.257812 799.246094 197.421875 801.726562 197.425781 C 803.277344 197.445312 804.914062 197.492188 806.523438 197.625 C 808.339844 197.753906 811.695312 197.667969 813.847656 195.78125 C 814.5 195.167969 815.097656 194.480469 815.5625 193.738281 C 816.453125 192.464844 817.316406 191.28125 818.867188 191.097656 C 820.613281 190.878906 822.34375 192.246094 823.453125 193.332031 C 831.496094 200.984375 836.335938 212.195312 837.160156 224.921875 C 837.78125 234.519531 835.519531 244.148438 830.839844 252.019531 C 826.738281 258.882812 822.539062 264.421875 817.902344 268.988281 C 817.359375 269.542969 816.800781 270.015625 816.285156 270.484375 C 814.070312 272.460938 811.652344 274.238281 809.117188 275.832031 C 806.578125 277.386719 803.917969 278.761719 801.183594 279.949219 C 797.90625 281.484375 794.542969 282.792969 791.152344 283.945312 C 787.8125 284.964844 784.4375 285.789062 781.03125 286.457031 C 779.777344 286.703125 778.5625 286.941406 777.351562 287.179688 C 776.136719 287.414062 775.101562 287.535156 774.109375 287.652344 C 772.167969 287.910156 770.21875 287.925781 768.238281 287.785156 C 765.421875 287.523438 762.632812 286.972656 759.902344 286.125 C 757.746094 285.488281 755.628906 284.644531 753.628906 283.570312 C 752.722656 283.097656 751.8125 282.585938 750.96875 282.019531 C 745.878906 278.664062 741.789062 273.976562 739.246094 268.457031 C 737.515625 264.609375 735.917969 258.945312 738.175781 253.664062 Z M 750.820312 273.589844 C 752.574219 275.6875 754.640625 277.519531 756.917969 278.984375 C 757.707031 279.480469 758.527344 279.929688 759.386719 280.371094 C 761.238281 281.308594 763.167969 282.027344 765.136719 282.535156 C 767.632812 283.226562 770.226562 283.613281 772.816406 283.757812 C 774.617188 283.808594 776.386719 283.707031 778.164062 283.441406 C 779.070312 283.304688 780.050781 283.113281 781.066406 282.914062 C 782.046875 282.71875 783.097656 282.472656 784.375 282.144531 C 787.4375 281.378906 790.429688 280.46875 793.34375 279.367188 C 796.371094 278.207031 799.261719 276.785156 802.179688 275.28125 C 804.445312 274.183594 806.59375 272.910156 808.722656 271.519531 C 810.800781 270.09375 812.769531 268.53125 814.585938 266.792969 C 815.03125 266.378906 815.472656 265.925781 815.914062 265.472656 C 819.675781 261.445312 823.296875 256.464844 827 250.25 C 831.191406 243.210938 832.953125 234.570312 831.890625 226.035156 C 830.695312 216.1875 826.554688 207.726562 820.292969 202.121094 C 819.3125 201.257812 817.828125 200.125 816.234375 200.273438 C 814.753906 200.402344 813.914062 201.300781 813.101562 202.148438 C 812.703125 202.59375 812.292969 203 811.832031 203.332031 C 810.402344 204.34375 808.234375 204.484375 806.667969 204.386719 C 804.910156 204.324219 803.125 204.347656 801.363281 204.488281 C 799.40625 204.667969 797.410156 204.652344 795.441406 204.550781 C 791.214844 204.160156 786.917969 202.96875 782.789062 201.824219 C 776.292969 200.007812 769.625 198.144531 763.164062 199.410156 C 762.03125 199.632812 760.949219 199.925781 759.890625 200.335938 C 757.132812 201.402344 754.667969 203.148438 752.703125 205.359375 C 749.636719 208.808594 748.140625 213.003906 748.574219 216.863281 C 748.921875 219.886719 750.417969 222.761719 751.855469 225.53125 C 753.222656 228.152344 754.644531 230.839844 755.125 233.714844 C 755.65625 236.621094 755.1875 239.636719 753.746094 242.238281 C 752.824219 243.964844 751.480469 245.609375 750.199219 247.160156 C 748.65625 249.050781 747.035156 250.953125 746.058594 253.21875 C 744.367188 257.046875 744.535156 261.851562 746.621094 266.6875 C 747.644531 269.210938 749.078125 271.535156 750.820312 273.589844 Z M 746.777344 253.566406 C 747.699219 251.433594 749.28125 249.539062 750.789062 247.695312 C 752.105469 246.097656 753.488281 244.445312 754.441406 242.671875 C 755.976562 239.929688 756.492188 236.738281 755.925781 233.640625 C 755.378906 230.65625 753.945312 227.886719 752.570312 225.230469 C 751.078125 222.390625 749.703125 219.730469 749.378906 216.828125 C 748.984375 213.164062 750.410156 209.226562 753.3125 205.972656 C 755.164062 203.820312 757.527344 202.179688 760.175781 201.171875 C 767.449219 198.445312 774.804688 200.503906 782.589844 202.679688 C 786.765625 203.851562 791.109375 205.074219 795.40625 205.414062 C 797.421875 205.546875 799.449219 205.515625 801.453125 205.367188 C 803.214844 205.222656 804.960938 205.207031 806.683594 205.277344 C 808.363281 205.355469 810.734375 205.214844 812.34375 204.085938 C 812.839844 203.703125 813.324219 203.285156 813.757812 202.792969 C 814.527344 201.949219 815.203125 201.25 816.363281 201.144531 C 817.644531 201.054688 818.980469 202.054688 819.824219 202.824219 C 825.96875 208.25 829.996094 216.566406 831.15625 226.21875 C 832.179688 234.558594 830.453125 242.988281 826.367188 249.925781 C 822.695312 256.09375 819.113281 261.066406 815.382812 265.050781 C 814.941406 265.5 814.503906 265.953125 814.09375 266.359375 C 812.3125 268.050781 810.378906 269.609375 808.332031 270.984375 C 806.285156 272.363281 804.128906 273.597656 801.902344 274.683594 C 798.976562 276.152344 796.121094 277.566406 793.136719 278.71875 C 790.21875 279.816406 787.265625 280.722656 784.242188 281.476562 C 782.964844 281.808594 781.917969 282.054688 780.976562 282.238281 C 779.960938 282.4375 779.019531 282.621094 778.109375 282.761719 C 776.371094 283.019531 774.644531 283.113281 772.921875 283.042969 C 770.378906 282.933594 767.859375 282.53125 765.414062 281.871094 C 763.484375 281.355469 761.59375 280.628906 759.789062 279.722656 C 758.976562 279.3125 758.15625 278.863281 757.40625 278.359375 C 755.175781 276.925781 753.164062 275.164062 751.464844 273.140625 C 749.773438 271.152344 748.398438 268.902344 747.359375 266.503906 C 745.335938 261.777344 745.132812 257.222656 746.777344 253.566406 Z M 758.09375 270.660156 C 759.550781 272.488281 761.320312 274.054688 763.3125 275.289062 C 764.007812 275.722656 764.734375 276.109375 765.496094 276.488281 C 767.152344 277.261719 768.855469 277.863281 770.640625 278.246094 C 772.890625 278.742188 775.175781 278.984375 777.453125 278.984375 C 779.035156 278.960938 780.589844 278.816406 782.15625 278.511719 C 782.980469 278.351562 783.839844 278.179688 784.695312 277.972656 C 785.550781 277.765625 786.550781 277.488281 787.546875 277.171875 C 790.195312 276.367188 792.757812 275.335938 795.289062 274.148438 C 797.824219 272.960938 800.300781 271.5 802.820312 270.03125 C 804.574219 269.035156 806.230469 267.941406 807.816406 266.695312 C 809.402344 265.449219 810.886719 264.101562 812.269531 262.652344 C 812.566406 262.308594 812.945312 261.949219 813.269531 261.519531 C 816.988281 257.050781 820.074219 252.054688 822.359375 248.152344 C 826.046875 241.859375 827.226562 234.390625 825.742188 227.238281 C 824.328125 220.644531 821.042969 215.070312 816.492188 211.566406 C 815.730469 210.984375 814.746094 210.324219 813.679688 210.289062 C 812.789062 210.300781 811.941406 210.546875 811.230469 211.054688 C 810.9375 211.234375 810.609375 211.417969 810.3125 211.558594 C 809.488281 211.925781 808.296875 212.074219 806.703125 212.023438 C 804.917969 212.046875 803.164062 212.226562 801.441406 212.566406 C 799.75 212.855469 798.074219 213.019531 796.375 213.070312 C 792.089844 212.972656 787.726562 211.46875 783.570312 209.96875 C 778.289062 208.113281 772.832031 206.214844 767.46875 207.265625 C 766.726562 207.410156 765.988281 207.597656 765.269531 207.859375 C 762.808594 208.789062 760.640625 210.394531 759.058594 212.492188 C 756.636719 215.691406 755.660156 219.621094 756.539062 223.070312 C 757.101562 225.316406 758.359375 227.386719 759.609375 229.421875 C 761.050781 231.78125 762.542969 234.210938 762.90625 236.90625 C 763.210938 239.285156 762.6875 241.585938 761.242188 243.980469 C 760.371094 245.332031 759.402344 246.621094 758.339844 247.84375 C 756.957031 249.496094 755.550781 251.238281 754.625 253.164062 C 753.039062 256.484375 753.070312 260.585938 754.613281 264.714844 C 755.488281 266.902344 756.652344 268.910156 758.09375 270.660156 Z M 755.382812 253.503906 C 756.246094 251.667969 757.621094 249.976562 758.964844 248.332031 C 760.058594 247.058594 761.066406 245.765625 761.929688 244.375 C 763.46875 241.839844 764.039062 239.367188 763.699219 236.792969 C 763.335938 233.894531 761.785156 231.394531 760.300781 229 C 759.042969 226.929688 757.851562 225.007812 757.3125 222.875 C 756.519531 219.65625 757.425781 215.984375 759.683594 212.980469 C 761.164062 210.980469 763.179688 209.449219 765.53125 208.582031 C 771.339844 206.46875 777.152344 208.539062 783.308594 210.710938 C 787.546875 212.199219 791.953125 213.734375 796.359375 213.804688 C 798.101562 213.789062 799.855469 213.609375 801.546875 213.316406 C 803.238281 213.027344 804.953125 212.851562 806.707031 212.875 C 807.605469 212.902344 808.53125 212.84375 809.4375 212.707031 C 809.828125 212.628906 810.253906 212.507812 810.628906 212.351562 C 810.964844 212.203125 811.335938 212.007812 811.625 211.832031 C 812.285156 211.457031 812.832031 211.148438 813.648438 211.148438 C 814.460938 211.152344 815.351562 211.75 816.019531 212.269531 C 820.421875 215.636719 823.59375 221.035156 824.976562 227.472656 C 826.417969 234.425781 825.234375 241.652344 821.679688 247.796875 C 819.425781 251.652344 816.332031 256.609375 812.644531 261.03125 C 812.3125 261.421875 811.984375 261.8125 811.675781 262.117188 C 810.332031 263.558594 808.886719 264.898438 807.332031 266.097656 C 805.78125 267.296875 804.125 268.394531 802.40625 269.378906 C 799.890625 270.847656 797.441406 272.265625 794.949219 273.445312 C 792.496094 274.617188 789.925781 275.605469 787.316406 276.402344 C 786.320312 276.71875 785.394531 276.980469 784.503906 277.199219 C 783.609375 277.414062 782.796875 277.613281 782.003906 277.726562 C 780.515625 278.019531 778.957031 278.160156 777.417969 278.179688 C 775.1875 278.210938 772.941406 277.957031 770.769531 277.449219 C 769.0625 277.050781 767.367188 276.488281 765.796875 275.738281 C 765.078125 275.390625 764.351562 275.003906 763.707031 274.605469 C 761.808594 273.429688 760.085938 271.898438 758.691406 270.179688 C 757.296875 268.460938 756.148438 266.53125 755.371094 264.445312 C 753.910156 260.503906 753.886719 256.644531 755.382812 253.503906 Z M 769.703125 271.597656 C 770.304688 271.96875 770.976562 272.285156 771.601562 272.570312 C 776.40625 274.675781 782.328125 274.816406 788.308594 272.957031 C 794.136719 271.164062 799.496094 267.59375 803.472656 264.660156 C 806.257812 262.691406 808.710938 260.257812 810.679688 257.433594 C 813.316406 253.664062 815.6875 249.582031 817.78125 245.957031 C 821.128906 240.21875 821.835938 233.65625 819.621094 228.359375 C 817.386719 222.980469 812.089844 219.382812 806.757812 219.574219 C 805.074219 219.699219 803.429688 220.023438 801.816406 220.5 C 800.359375 220.949219 798.832031 221.25 797.3125 221.382812 C 793.179688 221.664062 789.152344 219.769531 785.222656 217.980469 C 780.925781 215.972656 776.503906 213.953125 772 214.835938 C 771.53125 214.925781 771.070312 215.058594 770.605469 215.191406 C 765.050781 217.335938 762.28125 223.53125 764.425781 229.085938 C 764.433594 229.125 764.433594 229.125 764.441406 229.164062 C 765.113281 230.742188 766.246094 232.144531 767.289062 233.527344 C 768.875 235.613281 770.394531 237.554688 770.578125 239.957031 C 770.785156 243.089844 768.710938 245.566406 766.546875 248.226562 C 765.296875 249.734375 764.015625 251.285156 763.132812 253.003906 C 759.835938 259.828125 763.824219 268.15625 769.703125 271.597656 Z M 763.945312 253.414062 C 764.765625 251.789062 766.015625 250.285156 767.226562 248.785156 C 769.4375 246.15625 771.660156 243.40625 771.433594 239.953125 C 771.238281 237.308594 769.597656 235.148438 767.96875 233.066406 C 766.933594 231.726562 765.851562 230.351562 765.191406 228.855469 C 763.210938 223.714844 765.746094 217.972656 770.878906 215.949219 C 775.53125 214.386719 780.085938 216.464844 784.875 218.699219 C 788.898438 220.550781 793.011719 222.46875 797.34375 222.152344 C 798.023438 222.097656 798.695312 222.007812 799.363281 221.875 C 800.261719 221.699219 801.15625 221.484375 802 221.238281 C 803.539062 220.773438 805.144531 220.460938 806.785156 220.339844 C 811.710938 220.148438 816.78125 223.628906 818.898438 228.621094 C 821.015625 233.613281 820.308594 239.972656 817.078125 245.484375 C 814.976562 249.070312 812.605469 253.152344 810 256.875 C 808.054688 259.613281 805.675781 261.992188 802.960938 263.90625 C 799.011719 266.792969 793.726562 270.308594 788.011719 272.078125 C 782.183594 273.871094 776.472656 273.769531 771.847656 271.75 C 771.222656 271.464844 770.597656 271.179688 770.035156 270.800781 C 764.539062 267.648438 760.726562 259.816406 763.945312 253.414062 Z M 763.945312 253.414062 " fill-opacity="1" fill-rule="nonzero"/></g></g></g></svg>