<svg version="1.2" xmlns="http://www.w3.org/2000/svg" viewBox="0 0 1440 1151" width="1440" height="1151">
	<title>light-gray-lines-svg</title>
	<style>
		.s0 { opacity: .2;fill: none;stroke: #000000;stroke-miterlimit:10 } 
	</style>
	<g id="Layer" style="opacity: .1">
		<path id="Layer" fill-rule="evenodd" class="s0" d="m1440.1 902.6c-39.2-3.9-98.3-10.5-169.6-22.4-143.7-23.8-179.9-42.3-267.2-57.6-68.3-11.9-220.3-37-395.2 9.6-69 18.4-171.9 47-268.8 136-56.8 52.5-102.1 116.3-132.8 187.2"/>
		<path id="Layer" fill-rule="evenodd" class="s0" d="m1444.9 854.6c-56-0.3-111.8-6.7-166.4-19.2-31.3-7.1-53.3-14.2-64-17.6-9-2.8-164.7-50.8-313.6-60.8-54.2-3.6-173.1-10.5-315.2 33.6-65.4 20.3-152.1 48.2-238.4 123.2-98.4 85.4-142.5 185.2-161.7 238.4"/>
		<path id="Layer" fill-rule="evenodd" class="s0" d="m1448.1 805c-43.5-1.3-86.8-5.6-129.6-12.8-74.6-12.5-116.9-28.8-168-43.2-9.2-2.6-124.8-34.6-257.6-40-58.7-2.4-161.5-5.9-286.4 30.4-62.8 18.2-164 47.5-262.3 132.8-112.6 97.5-160.6 215.2-180.9 279.9"/>
		<path id="Layer" fill-rule="evenodd" class="s0" d="m1444.9 761.8c-29.9-3.9-75.1-10.8-129.6-22.4-82.4-17.5-121.4-31.9-177.6-46.4-47.5-12.2-142-33.3-249.6-36.8-61.5-1.9-162-4.6-283.2 32-54.7 16.5-158.6 49-259.2 136-134.7 116.4-183.6 261.3-201.6 329.6"/>
		<path id="Layer" fill-rule="evenodd" class="s0" d="m1446.5 710.6c-42.5-4-84.7-10.5-126.4-19.2-80.4-16.8-125.9-35.2-172.8-49.6-122-37.2-227.2-38.2-273.6-38.4-161.4-0.4-281.2 42.3-305.6 51.2-63.1 23.2-165.2 61.9-260.8 155.2-127.9 125-168.4 274-182.4 345.6"/>
		<path id="Layer" fill-rule="evenodd" class="s0" d="m1448.1 667.4c-34.3-6.7-85.6-17.5-147.2-33.6-100-26.1-138.4-43.1-193.6-57.6-120-31.6-221.1-26.1-280-22.4-77.3 4.9-209.5 14.6-355.2 92.8-46.2 24.9-143.2 78.3-228.8 188.8-97.3 125.6-125.1 254.4-134.4 318.4"/>
		<path id="Layer" fill-rule="evenodd" class="s0" d="m1444.9 619.4c-35.2-9.2-89.4-23.8-155.2-43.2-116.7-34.4-134.5-44-184-56-116.8-28.2-213.4-21.9-272-17.6-154.2 11.2-265.3 55.6-289.7 65.6-70 28.8-164.8 68.9-254.4 161.6-74 76.7-109.9 153.8-129.5 196.8-32.8 72-54.4 148.7-64 227.2"/>
		<path id="Layer" fill-rule="evenodd" class="s0" d="m1446.5 572.9c-44.6-9.6-88.4-22.4-131.2-38.4-39.6-14.7-56.4-23.9-89.6-36.8-52.4-19.2-106.5-33.6-161.6-43.2-114.1-19.3-208.9-5.8-279.9 4.8-74.7 11.2-175.1 26.2-292.8 84.8-57.5 28.7-148.8 75.3-232 172.8-70.8 83.1-102.7 164.5-124.8 222.4-26.4 69.1-44.2 141.1-52.9 214.5"/>
		<path id="Layer" fill-rule="evenodd" class="s0" d="m1444.9 526.6c-35.8-12.4-89.7-31.6-155.2-57.6-58.7-23.2-72.9-30.6-99.2-40-88.3-31.7-163.4-33.6-227.2-35.2-101.1-2.4-202 10.5-299.2 38.4-84.6 24.3-216.2 62-342.4 176-22.8 20.5-101.6 94.4-164.8 217.6-51.8 101.1-81.4 212-87 325.4"/>
		<path id="Layer" fill-rule="evenodd" class="s0" d="m1444.9 480.2c-56.5-32.2-115.3-60-176-83.2-20.8-7.9-88.4-33.5-154.7-48-173.2-37.8-324.9 3.1-424.5 29.9-84.4 22.7-180.3 49.4-288 121.6-44.5 29.8-131.7 89.4-205.9 199.4-70.6 104.8-94.4 203.2-110.9 272.1-14.4 59.5-23.3 120.2-26.7 181.3"/>
	</g>
</svg>