<svg viewBox="0 0 1440 1151" fill="none" xmlns="http://www.w3.org/2000/svg" preserveAspectRatio="none" class="hero_inset_contour__vxy0p" style="pointer-events: none;"><g opacity="0.1"><path d="M8.18359 261.525C47.3369 265.44 106.439 272.096 177.796 283.921C321.43 307.745 357.686 326.245 444.997 341.535C513.281 353.476 665.254 378.515 840.211 331.922C909.18 313.56 1012.05 284.939 1109 195.923C1165.82 143.452 1211.06 79.6853 1241.81 8.71191" stroke="rgba(0,0,0,0.2)" stroke-miterlimit="10"></path><path d="M3.38672 309.526C59.3905 309.804 115.194 316.244 169.788 328.731C201.111 335.857 223.076 342.963 233.784 346.35C242.77 349.149 398.463 397.132 547.402 407.155C601.591 410.796 720.519 417.687 862.586 373.542C927.953 353.241 1014.64 325.324 1100.99 250.346C1199.34 164.933 1243.51 65.1508 1262.69 11.9219" stroke="rgba(0,0,0,0.2)" stroke-miterlimit="10"></path><path d="M0.195312 359.133C43.6357 360.456 86.9353 364.741 129.793 371.956C204.341 384.485 246.646 400.734 297.8 415.162C307.02 417.765 422.581 449.714 555.389 455.157C614.119 457.565 716.916 461.03 841.796 424.774C904.539 406.587 1005.73 377.281 1104.12 291.966C1216.69 194.454 1264.65 76.7399 1284.93 12.0195" stroke="rgba(0,0,0,0.2)" stroke-miterlimit="10"></path><path d="M3.38672 402.32C33.2411 406.236 78.4632 413.166 132.984 424.736C215.421 442.198 254.359 456.685 310.584 471.132C358.057 483.309 452.534 504.413 560.205 507.936C621.657 509.894 722.144 512.498 843.401 475.928C898.059 459.445 1001.97 426.987 1102.62 339.929C1237.24 223.546 1286.19 78.6203 1304.22 10.3174" stroke="rgba(0,0,0,0.2)" stroke-miterlimit="10"></path><path d="M1.78125 453.533C44.2394 457.592 86.4397 464.004 128.188 472.737C208.609 489.534 254.066 507.975 300.991 522.325C422.953 559.521 528.217 560.597 574.594 560.734C735.965 561.185 855.793 518.488 880.205 509.522C943.301 486.363 1045.39 447.66 1141.01 354.338C1268.92 229.38 1309.36 80.382 1323.4 8.73145" stroke="rgba(0,0,0,0.2)" stroke-miterlimit="10"></path><path d="M0.195312 496.718C34.5132 503.433 85.7844 514.219 147.392 530.331C247.351 556.466 285.799 573.4 340.986 587.926C460.991 619.542 562.026 614.021 620.932 610.321C698.318 605.486 830.519 595.795 976.15 517.528C1022.35 492.685 1119.41 439.221 1204.94 328.731C1302.24 203.146 1330.04 74.3908 1339.41 10.3164" stroke="rgba(0,0,0,0.2)" stroke-miterlimit="10"></path><path d="M3.38672 544.721C38.6247 553.981 92.8129 568.526 158.59 587.927C275.306 622.342 293.062 631.974 342.611 643.935C459.327 672.106 555.997 665.802 614.609 661.554C768.795 650.298 879.873 605.957 904.226 595.953C974.232 567.195 1069.12 527.082 1158.72 434.348C1232.64 357.627 1268.57 280.593 1288.14 237.524C1320.98 165.506 1342.59 88.8814 1352.22 10.3174" stroke="rgba(0,0,0,0.2)" stroke-miterlimit="10"></path><path d="M1.78125 591.215C46.366 600.852 90.2003 613.681 132.945 629.605C172.607 644.366 189.326 653.547 222.547 666.409C275.01 685.632 329.096 700.092 384.152 709.615C498.304 728.898 593.035 715.488 664.099 704.819C738.823 693.621 839.153 678.605 956.907 620.013C1014.4 591.391 1105.69 544.779 1188.91 447.209C1259.68 364.146 1291.53 282.766 1313.71 224.799C1340.08 155.778 1357.84 83.7657 1366.57 10.3955" stroke="rgba(0,0,0,0.2)" stroke-miterlimit="10"></path><path d="M3.38672 637.533C39.1533 649.945 93.0869 669.189 158.571 695.128C217.301 718.385 231.513 725.707 257.766 735.123C346.056 766.818 421.133 768.717 484.972 770.361C586.078 772.764 686.962 759.814 784.182 731.952C868.812 707.677 1000.37 669.952 1126.6 555.977C1149.35 535.402 1228.16 461.559 1291.41 338.363C1343.13 237.289 1372.76 126.377 1378.35 12.9795" stroke="rgba(0,0,0,0.2)" stroke-miterlimit="10"></path><path d="M3.38672 683.93C59.8302 716.138 118.669 743.953 179.381 767.131C200.152 775.059 267.75 800.666 334.036 815.133C507.29 852.955 659.009 812.079 758.576 785.259C842.932 762.55 938.838 735.828 1046.59 663.668C1091.09 633.873 1178.3 574.203 1252.46 464.202C1323.05 359.486 1346.87 261.074 1363.42 192.184C1377.77 132.669 1386.69 71.9737 1390.08 10.8457" stroke="rgba(0,0,0,0.2)" stroke-miterlimit="10"></path></g></svg>