<?xml version="1.0" encoding="UTF-8"?>
<svg id="Layer_1" data-name="Layer 1" xmlns="http://www.w3.org/2000/svg" viewBox="0 0 500 500">
  <path d="M230.66,279.53c11.71,6.02,25.59,6.03,37.31.05l181.2-92.5c.8-.41,1.31-1.24,1.31-2.14v-26.67c0-5.19-4.2-9.39-9.39-9.39H58.91c-5.19,0-9.39,4.2-9.39,9.39v26.71c0,.9.5,1.73,1.3,2.14l179.84,92.41Z"/>
  <path d="M267.97,290.76c-11.72,5.98-25.61,5.97-37.31-.05L53.02,199.42c-1.6-.82-3.5.34-3.5,2.14v189.14c0,5.19,4.2,9.39,9.39,9.39h382.17c5.19,0,9.39-4.2,9.39-9.39v-189.19c0-1.79-1.9-2.96-3.49-2.14l-179.01,91.39Z"/>
</svg>