<?xml version="1.0" encoding="UTF-8"?>
<svg id="Layer_1" data-name="Layer 1" xmlns="http://www.w3.org/2000/svg" viewBox="0 0 500 500">
  <path d="M242.29,55.15c-110.75,0-200.54,89.78-200.54,200.54s89.78,200.54,200.54,200.54,200.54-89.78,200.54-200.54S353.05,55.15,242.29,55.15ZM316.02,335.59h0c-3.16,3.16-8.28,3.16-11.44,0l-54.51-54.51c-2.43.9-5.05,1.4-7.79,1.4-12.32,0-22.3-9.99-22.3-22.3,0-9.46,5.9-17.55,14.22-20.79v-119.3c0-4.47,3.62-8.09,8.09-8.09s8.09,3.62,8.09,8.09v119.3c8.32,3.24,14.22,11.32,14.22,20.79,0,3.64-.88,7.08-2.43,10.12l53.86,53.86c3.16,3.16,3.16,8.28,0,11.44Z"/>
</svg>