<svg xmlns="http://www.w3.org/2000/svg" version="1.1" xmlns:xlink="http://www.w3.org/1999/xlink" xmlns:svgjs="http://svgjs.com/svgjs" width="2000" height="2800" preserveAspectRatio="none" viewBox="0 0 2000 2800"><g mask="url(&quot;#SvgjsMask1013&quot;)" fill="none"><path d="M71.78 640.12L136.73 677.62L136.73 752.62L71.78 790.12L6.83 752.62L6.83 677.62zM71.78 865.12L136.73 902.62L136.73 977.62L71.78 1015.12L6.83 977.62L6.83 902.62zM71.78 1090.12L136.73 1127.62L136.73 1202.62L71.78 1240.12L6.83 1202.62L6.83 1127.62zM136.73 1202.62L201.69 1240.12L201.69 1315.12L136.73 1352.62L71.78 1315.12L71.78 1240.12zM136.73 1877.62L201.69 1915.12L201.69 1990.12L136.73 2027.62L71.78 1990.12L71.78 1915.12zM136.73 2102.62L201.69 2140.12L201.69 2215.12L136.73 2252.62L71.78 2215.12L71.78 2140.12zM71.78 2215.12L136.73 2252.62L136.73 2327.62L71.78 2365.12L6.83 2327.62L6.83 2252.62zM266.64 752.62L331.6 790.12L331.6 865.12L266.64 902.62L201.69 865.12L201.69 790.12zM201.69 1540.12L266.64 1577.62L266.64 1652.62L201.69 1690.12L136.73 1652.62L136.73 1577.62zM201.69 1765.12L266.64 1802.62L266.64 1877.62L201.69 1915.12L136.73 1877.62L136.73 1802.62zM266.64 2102.62L331.6 2140.12L331.6 2215.12L266.64 2252.62L201.69 2215.12L201.69 2140.12zM201.69 2215.12L266.64 2252.62L266.64 2327.62L201.69 2365.12L136.73 2327.62L136.73 2252.62zM266.64 2552.62L331.6 2590.12L331.6 2665.12L266.64 2702.62L201.69 2665.12L201.69 2590.12zM396.55 2102.62L461.5 2140.12L461.5 2215.12L396.55 2252.62L331.6 2215.12L331.6 2140.12zM461.5 190.12L526.46 227.62L526.46 302.62L461.5 340.12L396.55 302.62L396.55 227.62zM526.46 527.62L591.41 565.12L591.41 640.12L526.46 677.62L461.5 640.12L461.5 565.12zM526.46 752.62L591.41 790.12L591.41 865.12L526.46 902.62L461.5 865.12L461.5 790.12zM461.5 865.12L526.46 902.62L526.46 977.62L461.5 1015.12L396.55 977.62L396.55 902.62zM526.46 1202.62L591.41 1240.12L591.41 1315.12L526.46 1352.62L461.5 1315.12L461.5 1240.12zM461.5 1765.12L526.46 1802.62L526.46 1877.62L461.5 1915.12L396.55 1877.62L396.55 1802.62zM526.46 1877.62L591.41 1915.12L591.41 1990.12L526.46 2027.62L461.5 1990.12L461.5 1915.12zM526.46 2327.62L591.41 2365.12L591.41 2440.12L526.46 2477.62L461.5 2440.12L461.5 2365.12zM461.5 2440.12L526.46 2477.62L526.46 2552.62L461.5 2590.12L396.55 2552.62L396.55 2477.62zM526.46 2552.62L591.41 2590.12L591.41 2665.12L526.46 2702.62L461.5 2665.12L461.5 2590.12zM591.41 640.12L656.36 677.62L656.36 752.62L591.41 790.12L526.46 752.62L526.46 677.62zM591.41 865.12L656.36 902.62L656.36 977.62L591.41 1015.12L526.46 977.62L526.46 902.62zM656.36 977.62L721.32 1015.12L721.32 1090.12L656.36 1127.62L591.41 1090.12L591.41 1015.12zM591.41 1315.12L656.36 1352.62L656.36 1427.62L591.41 1465.12L526.46 1427.62L526.46 1352.62zM591.41 1540.12L656.36 1577.62L656.36 1652.62L591.41 1690.12L526.46 1652.62L526.46 1577.62zM591.41 1765.12L656.36 1802.62L656.36 1877.62L591.41 1915.12L526.46 1877.62L526.46 1802.62zM786.27 527.62L851.23 565.12L851.23 640.12L786.27 677.62L721.32 640.12L721.32 565.12zM721.32 640.12L786.27 677.62L786.27 752.62L721.32 790.12L656.36 752.62L656.36 677.62zM786.27 752.62L851.23 790.12L851.23 865.12L786.27 902.62L721.32 865.12L721.32 790.12zM786.27 977.62L851.23 1015.12L851.23 1090.12L786.27 1127.62L721.32 1090.12L721.32 1015.12zM721.32 1540.12L786.27 1577.62L786.27 1652.62L721.32 1690.12L656.36 1652.62L656.36 1577.62zM786.27 2327.62L851.23 2365.12L851.23 2440.12L786.27 2477.62L721.32 2440.12L721.32 2365.12zM721.32 2665.12L786.27 2702.62L786.27 2777.62L721.32 2815.12L656.36 2777.62L656.36 2702.62zM851.22 415.12L916.18 452.62L916.18 527.62L851.22 565.12L786.27 527.62L786.27 452.62zM916.18 752.62L981.13 790.12L981.13 865.12L916.18 902.62L851.22 865.12L851.22 790.12zM851.22 865.12L916.18 902.62L916.18 977.62L851.22 1015.12L786.27 977.62L786.27 902.62zM851.22 1315.12L916.18 1352.62L916.18 1427.62L851.22 1465.12L786.27 1427.62L786.27 1352.62zM851.22 1990.12L916.18 2027.62L916.18 2102.62L851.22 2140.12L786.27 2102.62L786.27 2027.62zM851.22 2665.12L916.18 2702.62L916.18 2777.62L851.22 2815.12L786.27 2777.62L786.27 2702.62zM1046.09 302.62L1111.04 340.12L1111.04 415.12L1046.09 452.62L981.13 415.12L981.13 340.12zM1046.09 527.62L1111.04 565.12L1111.04 640.12L1046.09 677.62L981.13 640.12L981.13 565.12zM981.13 640.12L1046.09 677.62L1046.09 752.62L981.13 790.12L916.18 752.62L916.18 677.62zM1046.09 752.62L1111.04 790.12L1111.04 865.12L1046.09 902.62L981.13 865.12L981.13 790.12zM981.13 865.12L1046.09 902.62L1046.09 977.62L981.13 1015.12L916.18 977.62L916.18 902.62zM981.13 1315.12L1046.09 1352.62L1046.09 1427.62L981.13 1465.12L916.18 1427.62L916.18 1352.62zM981.13 1765.12L1046.09 1802.62L1046.09 1877.62L981.13 1915.12L916.18 1877.62L916.18 1802.62zM1046.09 1877.62L1111.04 1915.12L1111.04 1990.12L1046.09 2027.62L981.13 1990.12L981.13 1915.12zM1046.09 2552.62L1111.04 2590.12L1111.04 2665.12L1046.09 2702.62L981.13 2665.12L981.13 2590.12zM981.13 2665.12L1046.09 2702.62L1046.09 2777.62L981.13 2815.12L916.18 2777.62L916.18 2702.62zM1175.99 527.62L1240.95 565.12L1240.95 640.12L1175.99 677.62L1111.04 640.12L1111.04 565.12zM1175.99 977.62L1240.95 1015.12L1240.95 1090.12L1175.99 1127.62L1111.04 1090.12L1111.04 1015.12zM1175.99 2102.62L1240.95 2140.12L1240.95 2215.12L1175.99 2252.62L1111.04 2215.12L1111.04 2140.12zM1111.04 2215.12L1175.99 2252.62L1175.99 2327.62L1111.04 2365.12L1046.09 2327.62L1046.09 2252.62zM1175.99 2552.62L1240.95 2590.12L1240.95 2665.12L1175.99 2702.62L1111.04 2665.12L1111.04 2590.12zM1111.04 2665.12L1175.99 2702.62L1175.99 2777.62L1111.04 2815.12L1046.09 2777.62L1046.09 2702.62zM1175.99 2777.62L1240.95 2815.12L1240.95 2890.12L1175.99 2927.62L1111.04 2890.12L1111.04 2815.12zM1240.95 190.12L1305.9 227.62L1305.9 302.62L1240.95 340.12L1175.99 302.62L1175.99 227.62zM1305.9 977.62L1370.85 1015.12L1370.85 1090.12L1305.9 1127.62L1240.95 1090.12L1240.95 1015.12zM1305.9 1427.62L1370.85 1465.12L1370.85 1540.12L1305.9 1577.62L1240.95 1540.12L1240.95 1465.12zM1305.9 1652.62L1370.85 1690.12L1370.85 1765.12L1305.9 1802.62L1240.95 1765.12L1240.95 1690.12zM1240.95 1765.12L1305.9 1802.62L1305.9 1877.62L1240.95 1915.12L1175.99 1877.62L1175.99 1802.62zM1240.95 2215.12L1305.9 2252.62L1305.9 2327.62L1240.95 2365.12L1175.99 2327.62L1175.99 2252.62zM1305.9 2327.62L1370.85 2365.12L1370.85 2440.12L1305.9 2477.62L1240.95 2440.12L1240.95 2365.12zM1370.86 415.12L1435.81 452.62L1435.81 527.62L1370.86 565.12L1305.9 527.62L1305.9 452.62zM1435.81 752.62L1500.76 790.12L1500.76 865.12L1435.81 902.62L1370.86 865.12L1370.86 790.12zM1370.86 1090.12L1435.81 1127.62L1435.81 1202.62L1370.86 1240.12L1305.9 1202.62L1305.9 1127.62zM1435.81 1427.62L1500.76 1465.12L1500.76 1540.12L1435.81 1577.62L1370.86 1540.12L1370.86 1465.12zM1435.81 1652.62L1500.76 1690.12L1500.76 1765.12L1435.81 1802.62L1370.86 1765.12L1370.86 1690.12zM1435.81 1877.62L1500.76 1915.12L1500.76 1990.12L1435.81 2027.62L1370.86 1990.12L1370.86 1915.12zM1370.86 1990.12L1435.81 2027.62L1435.81 2102.62L1370.86 2140.12L1305.9 2102.62L1305.9 2027.62zM1370.86 2215.12L1435.81 2252.62L1435.81 2327.62L1370.86 2365.12L1305.9 2327.62L1305.9 2252.62zM1435.81 2327.62L1500.76 2365.12L1500.76 2440.12L1435.81 2477.62L1370.86 2440.12L1370.86 2365.12zM1370.86 2440.12L1435.81 2477.62L1435.81 2552.62L1370.86 2590.12L1305.9 2552.62L1305.9 2477.62zM1435.81 2552.62L1500.76 2590.12L1500.76 2665.12L1435.81 2702.62L1370.86 2665.12L1370.86 2590.12zM1565.72 302.62L1630.67 340.12L1630.67 415.12L1565.72 452.62L1500.76 415.12L1500.76 340.12zM1500.76 415.12L1565.72 452.62L1565.72 527.62L1500.76 565.12L1435.81 527.62L1435.81 452.62zM1500.76 640.12L1565.72 677.62L1565.72 752.62L1500.76 790.12L1435.81 752.62L1435.81 677.62zM1500.76 865.12L1565.72 902.62L1565.72 977.62L1500.76 1015.12L1435.81 977.62L1435.81 902.62zM1500.76 1540.12L1565.72 1577.62L1565.72 1652.62L1500.76 1690.12L1435.81 1652.62L1435.81 1577.62zM1565.72 1877.62L1630.67 1915.12L1630.67 1990.12L1565.72 2027.62L1500.76 1990.12L1500.76 1915.12zM1565.72 2102.62L1630.67 2140.12L1630.67 2215.12L1565.72 2252.62L1500.76 2215.12L1500.76 2140.12zM1565.72 2552.62L1630.67 2590.12L1630.67 2665.12L1565.72 2702.62L1500.76 2665.12L1500.76 2590.12zM1695.62 302.62L1760.58 340.12L1760.58 415.12L1695.62 452.62L1630.67 415.12L1630.67 340.12zM1695.62 527.62L1760.58 565.12L1760.58 640.12L1695.62 677.62L1630.67 640.12L1630.67 565.12zM1695.62 1427.62L1760.58 1465.12L1760.58 1540.12L1695.62 1577.62L1630.67 1540.12L1630.67 1465.12zM1630.67 2215.12L1695.62 2252.62L1695.62 2327.62L1630.67 2365.12L1565.72 2327.62L1565.72 2252.62zM1630.67 2440.12L1695.62 2477.62L1695.62 2552.62L1630.67 2590.12L1565.72 2552.62L1565.72 2477.62zM1695.62 2552.62L1760.58 2590.12L1760.58 2665.12L1695.62 2702.62L1630.67 2665.12L1630.67 2590.12zM1760.58 640.12L1825.53 677.62L1825.53 752.62L1760.58 790.12L1695.62 752.62L1695.62 677.62zM1760.58 865.12L1825.53 902.62L1825.53 977.62L1760.58 1015.12L1695.62 977.62L1695.62 902.62zM1825.53 977.62L1890.48 1015.12L1890.48 1090.12L1825.53 1127.62L1760.58 1090.12L1760.58 1015.12zM1825.53 1427.62L1890.48 1465.12L1890.48 1540.12L1825.53 1577.62L1760.58 1540.12L1760.58 1465.12zM1825.53 1652.62L1890.48 1690.12L1890.48 1765.12L1825.53 1802.62L1760.58 1765.12L1760.58 1690.12zM1825.53 1877.62L1890.48 1915.12L1890.48 1990.12L1825.53 2027.62L1760.58 1990.12L1760.58 1915.12zM1760.58 1990.12L1825.53 2027.62L1825.53 2102.62L1760.58 2140.12L1695.62 2102.62L1695.62 2027.62zM1825.53 2552.62L1890.48 2590.12L1890.48 2665.12L1825.53 2702.62L1760.58 2665.12L1760.58 2590.12zM1825.53 2777.62L1890.48 2815.12L1890.48 2890.12L1825.53 2927.62L1760.58 2890.12L1760.58 2815.12zM1890.48 -34.88L1955.44 2.62L1955.44 77.62L1890.48 115.12L1825.53 77.62L1825.53 2.62zM1955.44 77.62L2020.39 115.12L2020.39 190.12L1955.44 227.62L1890.48 190.12L1890.48 115.12zM1955.44 302.62L2020.39 340.12L2020.39 415.12L1955.44 452.62L1890.48 415.12L1890.48 340.12zM1955.44 752.62L2020.39 790.12L2020.39 865.12L1955.44 902.62L1890.48 865.12L1890.48 790.12zM1890.48 865.12L1955.44 902.62L1955.44 977.62L1890.48 1015.12L1825.53 977.62L1825.53 902.62zM1955.44 1202.62L2020.39 1240.12L2020.39 1315.12L1955.44 1352.62L1890.48 1315.12L1890.48 1240.12zM1890.48 1765.12L1955.44 1802.62L1955.44 1877.62L1890.48 1915.12L1825.53 1877.62L1825.53 1802.62zM1955.44 1877.62L2020.39 1915.12L2020.39 1990.12L1955.44 2027.62L1890.48 1990.12L1890.48 1915.12zM1955.44 2102.62L2020.39 2140.12L2020.39 2215.12L1955.44 2252.62L1890.48 2215.12L1890.48 2140.12zM2020.39 415.12L2085.35 452.62L2085.35 527.62L2020.39 565.12L1955.44 527.62L1955.44 452.62zM2085.35 752.62L2150.3 790.12L2150.3 865.12L2085.35 902.62L2020.39 865.12L2020.39 790.12zM2085.35 977.62L2150.3 1015.12L2150.3 1090.12L2085.35 1127.62L2020.39 1090.12L2020.39 1015.12zM2020.39 1540.12L2085.35 1577.62L2085.35 1652.62L2020.39 1690.12L1955.44 1652.62L1955.44 1577.62zM2085.35 1652.62L2150.3 1690.12L2150.3 1765.12L2085.35 1802.62L2020.39 1765.12L2020.39 1690.12zM2020.39 2440.12L2085.35 2477.62L2085.35 2552.62L2020.39 2590.12L1955.44 2552.62L1955.44 2477.62z" stroke="rgba(220, 220, 220, 0.2)" stroke-width="2"></path><path d="M64.28 640.12 a7.5 7.5 0 1 0 15 0 a7.5 7.5 0 1 0 -15 0zM129.23 677.62 a7.5 7.5 0 1 0 15 0 a7.5 7.5 0 1 0 -15 0zM129.23 752.62 a7.5 7.5 0 1 0 15 0 a7.5 7.5 0 1 0 -15 0zM64.28 790.12 a7.5 7.5 0 1 0 15 0 a7.5 7.5 0 1 0 -15 0zM-0.67 752.62 a7.5 7.5 0 1 0 15 0 a7.5 7.5 0 1 0 -15 0zM-0.67 677.62 a7.5 7.5 0 1 0 15 0 a7.5 7.5 0 1 0 -15 0zM64.28 865.12 a7.5 7.5 0 1 0 15 0 a7.5 7.5 0 1 0 -15 0zM129.23 902.62 a7.5 7.5 0 1 0 15 0 a7.5 7.5 0 1 0 -15 0zM129.23 977.62 a7.5 7.5 0 1 0 15 0 a7.5 7.5 0 1 0 -15 0zM64.28 1015.12 a7.5 7.5 0 1 0 15 0 a7.5 7.5 0 1 0 -15 0zM-0.67 977.62 a7.5 7.5 0 1 0 15 0 a7.5 7.5 0 1 0 -15 0zM-0.67 902.62 a7.5 7.5 0 1 0 15 0 a7.5 7.5 0 1 0 -15 0zM64.28 1090.12 a7.5 7.5 0 1 0 15 0 a7.5 7.5 0 1 0 -15 0zM129.23 1127.62 a7.5 7.5 0 1 0 15 0 a7.5 7.5 0 1 0 -15 0zM129.23 1202.62 a7.5 7.5 0 1 0 15 0 a7.5 7.5 0 1 0 -15 0zM64.28 1240.12 a7.5 7.5 0 1 0 15 0 a7.5 7.5 0 1 0 -15 0zM-0.67 1202.62 a7.5 7.5 0 1 0 15 0 a7.5 7.5 0 1 0 -15 0zM-0.67 1127.62 a7.5 7.5 0 1 0 15 0 a7.5 7.5 0 1 0 -15 0zM194.19 1240.12 a7.5 7.5 0 1 0 15 0 a7.5 7.5 0 1 0 -15 0zM194.19 1315.12 a7.5 7.5 0 1 0 15 0 a7.5 7.5 0 1 0 -15 0zM129.23 1352.62 a7.5 7.5 0 1 0 15 0 a7.5 7.5 0 1 0 -15 0zM64.28 1315.12 a7.5 7.5 0 1 0 15 0 a7.5 7.5 0 1 0 -15 0zM129.23 1877.62 a7.5 7.5 0 1 0 15 0 a7.5 7.5 0 1 0 -15 0zM194.19 1915.12 a7.5 7.5 0 1 0 15 0 a7.5 7.5 0 1 0 -15 0zM194.19 1990.12 a7.5 7.5 0 1 0 15 0 a7.5 7.5 0 1 0 -15 0zM129.23 2027.62 a7.5 7.5 0 1 0 15 0 a7.5 7.5 0 1 0 -15 0zM64.28 1990.12 a7.5 7.5 0 1 0 15 0 a7.5 7.5 0 1 0 -15 0zM64.28 1915.12 a7.5 7.5 0 1 0 15 0 a7.5 7.5 0 1 0 -15 0zM129.23 2102.62 a7.5 7.5 0 1 0 15 0 a7.5 7.5 0 1 0 -15 0zM194.19 2140.12 a7.5 7.5 0 1 0 15 0 a7.5 7.5 0 1 0 -15 0zM194.19 2215.12 a7.5 7.5 0 1 0 15 0 a7.5 7.5 0 1 0 -15 0zM129.23 2252.62 a7.5 7.5 0 1 0 15 0 a7.5 7.5 0 1 0 -15 0zM64.28 2215.12 a7.5 7.5 0 1 0 15 0 a7.5 7.5 0 1 0 -15 0zM64.28 2140.12 a7.5 7.5 0 1 0 15 0 a7.5 7.5 0 1 0 -15 0zM129.23 2327.62 a7.5 7.5 0 1 0 15 0 a7.5 7.5 0 1 0 -15 0zM64.28 2365.12 a7.5 7.5 0 1 0 15 0 a7.5 7.5 0 1 0 -15 0zM-0.67 2327.62 a7.5 7.5 0 1 0 15 0 a7.5 7.5 0 1 0 -15 0zM-0.67 2252.62 a7.5 7.5 0 1 0 15 0 a7.5 7.5 0 1 0 -15 0zM259.14 752.62 a7.5 7.5 0 1 0 15 0 a7.5 7.5 0 1 0 -15 0zM324.1 790.12 a7.5 7.5 0 1 0 15 0 a7.5 7.5 0 1 0 -15 0zM324.1 865.12 a7.5 7.5 0 1 0 15 0 a7.5 7.5 0 1 0 -15 0zM259.14 902.62 a7.5 7.5 0 1 0 15 0 a7.5 7.5 0 1 0 -15 0zM194.19 865.12 a7.5 7.5 0 1 0 15 0 a7.5 7.5 0 1 0 -15 0zM194.19 790.12 a7.5 7.5 0 1 0 15 0 a7.5 7.5 0 1 0 -15 0zM194.19 1540.12 a7.5 7.5 0 1 0 15 0 a7.5 7.5 0 1 0 -15 0zM259.14 1577.62 a7.5 7.5 0 1 0 15 0 a7.5 7.5 0 1 0 -15 0zM259.14 1652.62 a7.5 7.5 0 1 0 15 0 a7.5 7.5 0 1 0 -15 0zM194.19 1690.12 a7.5 7.5 0 1 0 15 0 a7.5 7.5 0 1 0 -15 0zM129.23 1652.62 a7.5 7.5 0 1 0 15 0 a7.5 7.5 0 1 0 -15 0zM129.23 1577.62 a7.5 7.5 0 1 0 15 0 a7.5 7.5 0 1 0 -15 0zM194.19 1765.12 a7.5 7.5 0 1 0 15 0 a7.5 7.5 0 1 0 -15 0zM259.14 1802.62 a7.5 7.5 0 1 0 15 0 a7.5 7.5 0 1 0 -15 0zM259.14 1877.62 a7.5 7.5 0 1 0 15 0 a7.5 7.5 0 1 0 -15 0zM129.23 1802.62 a7.5 7.5 0 1 0 15 0 a7.5 7.5 0 1 0 -15 0zM259.14 2102.62 a7.5 7.5 0 1 0 15 0 a7.5 7.5 0 1 0 -15 0zM324.1 2140.12 a7.5 7.5 0 1 0 15 0 a7.5 7.5 0 1 0 -15 0zM324.1 2215.12 a7.5 7.5 0 1 0 15 0 a7.5 7.5 0 1 0 -15 0zM259.14 2252.62 a7.5 7.5 0 1 0 15 0 a7.5 7.5 0 1 0 -15 0zM259.14 2327.62 a7.5 7.5 0 1 0 15 0 a7.5 7.5 0 1 0 -15 0zM194.19 2365.12 a7.5 7.5 0 1 0 15 0 a7.5 7.5 0 1 0 -15 0zM259.14 2552.62 a7.5 7.5 0 1 0 15 0 a7.5 7.5 0 1 0 -15 0zM324.1 2590.12 a7.5 7.5 0 1 0 15 0 a7.5 7.5 0 1 0 -15 0zM324.1 2665.12 a7.5 7.5 0 1 0 15 0 a7.5 7.5 0 1 0 -15 0zM259.14 2702.62 a7.5 7.5 0 1 0 15 0 a7.5 7.5 0 1 0 -15 0zM194.19 2665.12 a7.5 7.5 0 1 0 15 0 a7.5 7.5 0 1 0 -15 0zM194.19 2590.12 a7.5 7.5 0 1 0 15 0 a7.5 7.5 0 1 0 -15 0zM389.05 2102.62 a7.5 7.5 0 1 0 15 0 a7.5 7.5 0 1 0 -15 0zM454 2140.12 a7.5 7.5 0 1 0 15 0 a7.5 7.5 0 1 0 -15 0zM454 2215.12 a7.5 7.5 0 1 0 15 0 a7.5 7.5 0 1 0 -15 0zM389.05 2252.62 a7.5 7.5 0 1 0 15 0 a7.5 7.5 0 1 0 -15 0zM454 190.12 a7.5 7.5 0 1 0 15 0 a7.5 7.5 0 1 0 -15 0zM518.96 227.62 a7.5 7.5 0 1 0 15 0 a7.5 7.5 0 1 0 -15 0zM518.96 302.62 a7.5 7.5 0 1 0 15 0 a7.5 7.5 0 1 0 -15 0zM454 340.12 a7.5 7.5 0 1 0 15 0 a7.5 7.5 0 1 0 -15 0zM389.05 302.62 a7.5 7.5 0 1 0 15 0 a7.5 7.5 0 1 0 -15 0zM389.05 227.62 a7.5 7.5 0 1 0 15 0 a7.5 7.5 0 1 0 -15 0zM518.96 527.62 a7.5 7.5 0 1 0 15 0 a7.5 7.5 0 1 0 -15 0zM583.91 565.12 a7.5 7.5 0 1 0 15 0 a7.5 7.5 0 1 0 -15 0zM583.91 640.12 a7.5 7.5 0 1 0 15 0 a7.5 7.5 0 1 0 -15 0zM518.96 677.62 a7.5 7.5 0 1 0 15 0 a7.5 7.5 0 1 0 -15 0zM454 640.12 a7.5 7.5 0 1 0 15 0 a7.5 7.5 0 1 0 -15 0zM454 565.12 a7.5 7.5 0 1 0 15 0 a7.5 7.5 0 1 0 -15 0zM518.96 752.62 a7.5 7.5 0 1 0 15 0 a7.5 7.5 0 1 0 -15 0zM583.91 790.12 a7.5 7.5 0 1 0 15 0 a7.5 7.5 0 1 0 -15 0zM583.91 865.12 a7.5 7.5 0 1 0 15 0 a7.5 7.5 0 1 0 -15 0zM518.96 902.62 a7.5 7.5 0 1 0 15 0 a7.5 7.5 0 1 0 -15 0zM454 865.12 a7.5 7.5 0 1 0 15 0 a7.5 7.5 0 1 0 -15 0zM454 790.12 a7.5 7.5 0 1 0 15 0 a7.5 7.5 0 1 0 -15 0zM518.96 977.62 a7.5 7.5 0 1 0 15 0 a7.5 7.5 0 1 0 -15 0zM454 1015.12 a7.5 7.5 0 1 0 15 0 a7.5 7.5 0 1 0 -15 0zM389.05 977.62 a7.5 7.5 0 1 0 15 0 a7.5 7.5 0 1 0 -15 0zM389.05 902.62 a7.5 7.5 0 1 0 15 0 a7.5 7.5 0 1 0 -15 0zM518.96 1202.62 a7.5 7.5 0 1 0 15 0 a7.5 7.5 0 1 0 -15 0zM583.91 1240.12 a7.5 7.5 0 1 0 15 0 a7.5 7.5 0 1 0 -15 0zM583.91 1315.12 a7.5 7.5 0 1 0 15 0 a7.5 7.5 0 1 0 -15 0zM518.96 1352.62 a7.5 7.5 0 1 0 15 0 a7.5 7.5 0 1 0 -15 0zM454 1315.12 a7.5 7.5 0 1 0 15 0 a7.5 7.5 0 1 0 -15 0zM454 1240.12 a7.5 7.5 0 1 0 15 0 a7.5 7.5 0 1 0 -15 0zM454 1765.12 a7.5 7.5 0 1 0 15 0 a7.5 7.5 0 1 0 -15 0zM518.96 1802.62 a7.5 7.5 0 1 0 15 0 a7.5 7.5 0 1 0 -15 0zM518.96 1877.62 a7.5 7.5 0 1 0 15 0 a7.5 7.5 0 1 0 -15 0zM454 1915.12 a7.5 7.5 0 1 0 15 0 a7.5 7.5 0 1 0 -15 0zM389.05 1877.62 a7.5 7.5 0 1 0 15 0 a7.5 7.5 0 1 0 -15 0zM389.05 1802.62 a7.5 7.5 0 1 0 15 0 a7.5 7.5 0 1 0 -15 0zM583.91 1915.12 a7.5 7.5 0 1 0 15 0 a7.5 7.5 0 1 0 -15 0zM583.91 1990.12 a7.5 7.5 0 1 0 15 0 a7.5 7.5 0 1 0 -15 0zM518.96 2027.62 a7.5 7.5 0 1 0 15 0 a7.5 7.5 0 1 0 -15 0zM454 1990.12 a7.5 7.5 0 1 0 15 0 a7.5 7.5 0 1 0 -15 0zM518.96 2327.62 a7.5 7.5 0 1 0 15 0 a7.5 7.5 0 1 0 -15 0zM583.91 2365.12 a7.5 7.5 0 1 0 15 0 a7.5 7.5 0 1 0 -15 0zM583.91 2440.12 a7.5 7.5 0 1 0 15 0 a7.5 7.5 0 1 0 -15 0zM518.96 2477.62 a7.5 7.5 0 1 0 15 0 a7.5 7.5 0 1 0 -15 0zM454 2440.12 a7.5 7.5 0 1 0 15 0 a7.5 7.5 0 1 0 -15 0zM454 2365.12 a7.5 7.5 0 1 0 15 0 a7.5 7.5 0 1 0 -15 0zM518.96 2552.62 a7.5 7.5 0 1 0 15 0 a7.5 7.5 0 1 0 -15 0zM454 2590.12 a7.5 7.5 0 1 0 15 0 a7.5 7.5 0 1 0 -15 0zM389.05 2552.62 a7.5 7.5 0 1 0 15 0 a7.5 7.5 0 1 0 -15 0zM389.05 2477.62 a7.5 7.5 0 1 0 15 0 a7.5 7.5 0 1 0 -15 0zM583.91 2590.12 a7.5 7.5 0 1 0 15 0 a7.5 7.5 0 1 0 -15 0zM583.91 2665.12 a7.5 7.5 0 1 0 15 0 a7.5 7.5 0 1 0 -15 0zM518.96 2702.62 a7.5 7.5 0 1 0 15 0 a7.5 7.5 0 1 0 -15 0zM454 2665.12 a7.5 7.5 0 1 0 15 0 a7.5 7.5 0 1 0 -15 0zM648.86 677.62 a7.5 7.5 0 1 0 15 0 a7.5 7.5 0 1 0 -15 0zM648.86 752.62 a7.5 7.5 0 1 0 15 0 a7.5 7.5 0 1 0 -15 0zM648.86 902.62 a7.5 7.5 0 1 0 15 0 a7.5 7.5 0 1 0 -15 0zM648.86 977.62 a7.5 7.5 0 1 0 15 0 a7.5 7.5 0 1 0 -15 0zM583.91 1015.12 a7.5 7.5 0 1 0 15 0 a7.5 7.5 0 1 0 -15 0zM713.82 1015.12 a7.5 7.5 0 1 0 15 0 a7.5 7.5 0 1 0 -15 0zM713.82 1090.12 a7.5 7.5 0 1 0 15 0 a7.5 7.5 0 1 0 -15 0zM648.86 1127.62 a7.5 7.5 0 1 0 15 0 a7.5 7.5 0 1 0 -15 0zM583.91 1090.12 a7.5 7.5 0 1 0 15 0 a7.5 7.5 0 1 0 -15 0zM648.86 1352.62 a7.5 7.5 0 1 0 15 0 a7.5 7.5 0 1 0 -15 0zM648.86 1427.62 a7.5 7.5 0 1 0 15 0 a7.5 7.5 0 1 0 -15 0zM583.91 1465.12 a7.5 7.5 0 1 0 15 0 a7.5 7.5 0 1 0 -15 0zM518.96 1427.62 a7.5 7.5 0 1 0 15 0 a7.5 7.5 0 1 0 -15 0zM583.91 1540.12 a7.5 7.5 0 1 0 15 0 a7.5 7.5 0 1 0 -15 0zM648.86 1577.62 a7.5 7.5 0 1 0 15 0 a7.5 7.5 0 1 0 -15 0zM648.86 1652.62 a7.5 7.5 0 1 0 15 0 a7.5 7.5 0 1 0 -15 0zM583.91 1690.12 a7.5 7.5 0 1 0 15 0 a7.5 7.5 0 1 0 -15 0zM518.96 1652.62 a7.5 7.5 0 1 0 15 0 a7.5 7.5 0 1 0 -15 0zM518.96 1577.62 a7.5 7.5 0 1 0 15 0 a7.5 7.5 0 1 0 -15 0zM583.91 1765.12 a7.5 7.5 0 1 0 15 0 a7.5 7.5 0 1 0 -15 0zM648.86 1802.62 a7.5 7.5 0 1 0 15 0 a7.5 7.5 0 1 0 -15 0zM648.86 1877.62 a7.5 7.5 0 1 0 15 0 a7.5 7.5 0 1 0 -15 0zM778.77 527.62 a7.5 7.5 0 1 0 15 0 a7.5 7.5 0 1 0 -15 0zM843.73 565.12 a7.5 7.5 0 1 0 15 0 a7.5 7.5 0 1 0 -15 0zM843.73 640.12 a7.5 7.5 0 1 0 15 0 a7.5 7.5 0 1 0 -15 0zM778.77 677.62 a7.5 7.5 0 1 0 15 0 a7.5 7.5 0 1 0 -15 0zM713.82 640.12 a7.5 7.5 0 1 0 15 0 a7.5 7.5 0 1 0 -15 0zM713.82 565.12 a7.5 7.5 0 1 0 15 0 a7.5 7.5 0 1 0 -15 0zM778.77 752.62 a7.5 7.5 0 1 0 15 0 a7.5 7.5 0 1 0 -15 0zM713.82 790.12 a7.5 7.5 0 1 0 15 0 a7.5 7.5 0 1 0 -15 0zM843.73 790.12 a7.5 7.5 0 1 0 15 0 a7.5 7.5 0 1 0 -15 0zM843.73 865.12 a7.5 7.5 0 1 0 15 0 a7.5 7.5 0 1 0 -15 0zM778.77 902.62 a7.5 7.5 0 1 0 15 0 a7.5 7.5 0 1 0 -15 0zM713.82 865.12 a7.5 7.5 0 1 0 15 0 a7.5 7.5 0 1 0 -15 0zM778.77 977.62 a7.5 7.5 0 1 0 15 0 a7.5 7.5 0 1 0 -15 0zM843.73 1015.12 a7.5 7.5 0 1 0 15 0 a7.5 7.5 0 1 0 -15 0zM843.73 1090.12 a7.5 7.5 0 1 0 15 0 a7.5 7.5 0 1 0 -15 0zM778.77 1127.62 a7.5 7.5 0 1 0 15 0 a7.5 7.5 0 1 0 -15 0zM713.82 1540.12 a7.5 7.5 0 1 0 15 0 a7.5 7.5 0 1 0 -15 0zM778.77 1577.62 a7.5 7.5 0 1 0 15 0 a7.5 7.5 0 1 0 -15 0zM778.77 1652.62 a7.5 7.5 0 1 0 15 0 a7.5 7.5 0 1 0 -15 0zM713.82 1690.12 a7.5 7.5 0 1 0 15 0 a7.5 7.5 0 1 0 -15 0zM778.77 2327.62 a7.5 7.5 0 1 0 15 0 a7.5 7.5 0 1 0 -15 0zM843.73 2365.12 a7.5 7.5 0 1 0 15 0 a7.5 7.5 0 1 0 -15 0zM843.73 2440.12 a7.5 7.5 0 1 0 15 0 a7.5 7.5 0 1 0 -15 0zM778.77 2477.62 a7.5 7.5 0 1 0 15 0 a7.5 7.5 0 1 0 -15 0zM713.82 2440.12 a7.5 7.5 0 1 0 15 0 a7.5 7.5 0 1 0 -15 0zM713.82 2365.12 a7.5 7.5 0 1 0 15 0 a7.5 7.5 0 1 0 -15 0zM713.82 2665.12 a7.5 7.5 0 1 0 15 0 a7.5 7.5 0 1 0 -15 0zM778.77 2702.62 a7.5 7.5 0 1 0 15 0 a7.5 7.5 0 1 0 -15 0zM778.77 2777.62 a7.5 7.5 0 1 0 15 0 a7.5 7.5 0 1 0 -15 0zM713.82 2815.12 a7.5 7.5 0 1 0 15 0 a7.5 7.5 0 1 0 -15 0zM648.86 2777.62 a7.5 7.5 0 1 0 15 0 a7.5 7.5 0 1 0 -15 0zM648.86 2702.62 a7.5 7.5 0 1 0 15 0 a7.5 7.5 0 1 0 -15 0zM843.72 415.12 a7.5 7.5 0 1 0 15 0 a7.5 7.5 0 1 0 -15 0zM908.68 452.62 a7.5 7.5 0 1 0 15 0 a7.5 7.5 0 1 0 -15 0zM908.68 527.62 a7.5 7.5 0 1 0 15 0 a7.5 7.5 0 1 0 -15 0zM843.72 565.12 a7.5 7.5 0 1 0 15 0 a7.5 7.5 0 1 0 -15 0zM778.77 452.62 a7.5 7.5 0 1 0 15 0 a7.5 7.5 0 1 0 -15 0zM908.68 752.62 a7.5 7.5 0 1 0 15 0 a7.5 7.5 0 1 0 -15 0zM973.63 790.12 a7.5 7.5 0 1 0 15 0 a7.5 7.5 0 1 0 -15 0zM973.63 865.12 a7.5 7.5 0 1 0 15 0 a7.5 7.5 0 1 0 -15 0zM908.68 902.62 a7.5 7.5 0 1 0 15 0 a7.5 7.5 0 1 0 -15 0zM843.72 865.12 a7.5 7.5 0 1 0 15 0 a7.5 7.5 0 1 0 -15 0zM843.72 790.12 a7.5 7.5 0 1 0 15 0 a7.5 7.5 0 1 0 -15 0zM908.68 977.62 a7.5 7.5 0 1 0 15 0 a7.5 7.5 0 1 0 -15 0zM843.72 1015.12 a7.5 7.5 0 1 0 15 0 a7.5 7.5 0 1 0 -15 0zM843.72 1315.12 a7.5 7.5 0 1 0 15 0 a7.5 7.5 0 1 0 -15 0zM908.68 1352.62 a7.5 7.5 0 1 0 15 0 a7.5 7.5 0 1 0 -15 0zM908.68 1427.62 a7.5 7.5 0 1 0 15 0 a7.5 7.5 0 1 0 -15 0zM843.72 1465.12 a7.5 7.5 0 1 0 15 0 a7.5 7.5 0 1 0 -15 0zM778.77 1427.62 a7.5 7.5 0 1 0 15 0 a7.5 7.5 0 1 0 -15 0zM778.77 1352.62 a7.5 7.5 0 1 0 15 0 a7.5 7.5 0 1 0 -15 0zM843.72 1990.12 a7.5 7.5 0 1 0 15 0 a7.5 7.5 0 1 0 -15 0zM908.68 2027.62 a7.5 7.5 0 1 0 15 0 a7.5 7.5 0 1 0 -15 0zM908.68 2102.62 a7.5 7.5 0 1 0 15 0 a7.5 7.5 0 1 0 -15 0zM843.72 2140.12 a7.5 7.5 0 1 0 15 0 a7.5 7.5 0 1 0 -15 0zM778.77 2102.62 a7.5 7.5 0 1 0 15 0 a7.5 7.5 0 1 0 -15 0zM778.77 2027.62 a7.5 7.5 0 1 0 15 0 a7.5 7.5 0 1 0 -15 0zM843.72 2665.12 a7.5 7.5 0 1 0 15 0 a7.5 7.5 0 1 0 -15 0zM908.68 2702.62 a7.5 7.5 0 1 0 15 0 a7.5 7.5 0 1 0 -15 0zM908.68 2777.62 a7.5 7.5 0 1 0 15 0 a7.5 7.5 0 1 0 -15 0zM843.72 2815.12 a7.5 7.5 0 1 0 15 0 a7.5 7.5 0 1 0 -15 0zM1038.59 302.62 a7.5 7.5 0 1 0 15 0 a7.5 7.5 0 1 0 -15 0zM1103.54 340.12 a7.5 7.5 0 1 0 15 0 a7.5 7.5 0 1 0 -15 0zM1103.54 415.12 a7.5 7.5 0 1 0 15 0 a7.5 7.5 0 1 0 -15 0zM1038.59 452.62 a7.5 7.5 0 1 0 15 0 a7.5 7.5 0 1 0 -15 0zM973.63 415.12 a7.5 7.5 0 1 0 15 0 a7.5 7.5 0 1 0 -15 0zM973.63 340.12 a7.5 7.5 0 1 0 15 0 a7.5 7.5 0 1 0 -15 0zM1038.59 527.62 a7.5 7.5 0 1 0 15 0 a7.5 7.5 0 1 0 -15 0zM1103.54 565.12 a7.5 7.5 0 1 0 15 0 a7.5 7.5 0 1 0 -15 0zM1103.54 640.12 a7.5 7.5 0 1 0 15 0 a7.5 7.5 0 1 0 -15 0zM1038.59 677.62 a7.5 7.5 0 1 0 15 0 a7.5 7.5 0 1 0 -15 0zM973.63 640.12 a7.5 7.5 0 1 0 15 0 a7.5 7.5 0 1 0 -15 0zM973.63 565.12 a7.5 7.5 0 1 0 15 0 a7.5 7.5 0 1 0 -15 0zM1038.59 752.62 a7.5 7.5 0 1 0 15 0 a7.5 7.5 0 1 0 -15 0zM908.68 677.62 a7.5 7.5 0 1 0 15 0 a7.5 7.5 0 1 0 -15 0zM1103.54 790.12 a7.5 7.5 0 1 0 15 0 a7.5 7.5 0 1 0 -15 0zM1103.54 865.12 a7.5 7.5 0 1 0 15 0 a7.5 7.5 0 1 0 -15 0zM1038.59 902.62 a7.5 7.5 0 1 0 15 0 a7.5 7.5 0 1 0 -15 0zM1038.59 977.62 a7.5 7.5 0 1 0 15 0 a7.5 7.5 0 1 0 -15 0zM973.63 1015.12 a7.5 7.5 0 1 0 15 0 a7.5 7.5 0 1 0 -15 0zM973.63 1315.12 a7.5 7.5 0 1 0 15 0 a7.5 7.5 0 1 0 -15 0zM1038.59 1352.62 a7.5 7.5 0 1 0 15 0 a7.5 7.5 0 1 0 -15 0zM1038.59 1427.62 a7.5 7.5 0 1 0 15 0 a7.5 7.5 0 1 0 -15 0zM973.63 1465.12 a7.5 7.5 0 1 0 15 0 a7.5 7.5 0 1 0 -15 0zM973.63 1765.12 a7.5 7.5 0 1 0 15 0 a7.5 7.5 0 1 0 -15 0zM1038.59 1802.62 a7.5 7.5 0 1 0 15 0 a7.5 7.5 0 1 0 -15 0zM1038.59 1877.62 a7.5 7.5 0 1 0 15 0 a7.5 7.5 0 1 0 -15 0zM973.63 1915.12 a7.5 7.5 0 1 0 15 0 a7.5 7.5 0 1 0 -15 0zM908.68 1877.62 a7.5 7.5 0 1 0 15 0 a7.5 7.5 0 1 0 -15 0zM908.68 1802.62 a7.5 7.5 0 1 0 15 0 a7.5 7.5 0 1 0 -15 0zM1103.54 1915.12 a7.5 7.5 0 1 0 15 0 a7.5 7.5 0 1 0 -15 0zM1103.54 1990.12 a7.5 7.5 0 1 0 15 0 a7.5 7.5 0 1 0 -15 0zM1038.59 2027.62 a7.5 7.5 0 1 0 15 0 a7.5 7.5 0 1 0 -15 0zM973.63 1990.12 a7.5 7.5 0 1 0 15 0 a7.5 7.5 0 1 0 -15 0zM1038.59 2552.62 a7.5 7.5 0 1 0 15 0 a7.5 7.5 0 1 0 -15 0zM1103.54 2590.12 a7.5 7.5 0 1 0 15 0 a7.5 7.5 0 1 0 -15 0zM1103.54 2665.12 a7.5 7.5 0 1 0 15 0 a7.5 7.5 0 1 0 -15 0zM1038.59 2702.62 a7.5 7.5 0 1 0 15 0 a7.5 7.5 0 1 0 -15 0zM973.63 2665.12 a7.5 7.5 0 1 0 15 0 a7.5 7.5 0 1 0 -15 0zM973.63 2590.12 a7.5 7.5 0 1 0 15 0 a7.5 7.5 0 1 0 -15 0zM1038.59 2777.62 a7.5 7.5 0 1 0 15 0 a7.5 7.5 0 1 0 -15 0zM973.63 2815.12 a7.5 7.5 0 1 0 15 0 a7.5 7.5 0 1 0 -15 0zM1168.49 527.62 a7.5 7.5 0 1 0 15 0 a7.5 7.5 0 1 0 -15 0zM1233.45 565.12 a7.5 7.5 0 1 0 15 0 a7.5 7.5 0 1 0 -15 0zM1233.45 640.12 a7.5 7.5 0 1 0 15 0 a7.5 7.5 0 1 0 -15 0zM1168.49 677.62 a7.5 7.5 0 1 0 15 0 a7.5 7.5 0 1 0 -15 0zM1168.49 977.62 a7.5 7.5 0 1 0 15 0 a7.5 7.5 0 1 0 -15 0zM1233.45 1015.12 a7.5 7.5 0 1 0 15 0 a7.5 7.5 0 1 0 -15 0zM1233.45 1090.12 a7.5 7.5 0 1 0 15 0 a7.5 7.5 0 1 0 -15 0zM1168.49 1127.62 a7.5 7.5 0 1 0 15 0 a7.5 7.5 0 1 0 -15 0zM1103.54 1090.12 a7.5 7.5 0 1 0 15 0 a7.5 7.5 0 1 0 -15 0zM1103.54 1015.12 a7.5 7.5 0 1 0 15 0 a7.5 7.5 0 1 0 -15 0zM1168.49 2102.62 a7.5 7.5 0 1 0 15 0 a7.5 7.5 0 1 0 -15 0zM1233.45 2140.12 a7.5 7.5 0 1 0 15 0 a7.5 7.5 0 1 0 -15 0zM1233.45 2215.12 a7.5 7.5 0 1 0 15 0 a7.5 7.5 0 1 0 -15 0zM1168.49 2252.62 a7.5 7.5 0 1 0 15 0 a7.5 7.5 0 1 0 -15 0zM1103.54 2215.12 a7.5 7.5 0 1 0 15 0 a7.5 7.5 0 1 0 -15 0zM1103.54 2140.12 a7.5 7.5 0 1 0 15 0 a7.5 7.5 0 1 0 -15 0zM1168.49 2327.62 a7.5 7.5 0 1 0 15 0 a7.5 7.5 0 1 0 -15 0zM1103.54 2365.12 a7.5 7.5 0 1 0 15 0 a7.5 7.5 0 1 0 -15 0zM1038.59 2327.62 a7.5 7.5 0 1 0 15 0 a7.5 7.5 0 1 0 -15 0zM1038.59 2252.62 a7.5 7.5 0 1 0 15 0 a7.5 7.5 0 1 0 -15 0zM1168.49 2552.62 a7.5 7.5 0 1 0 15 0 a7.5 7.5 0 1 0 -15 0zM1233.45 2590.12 a7.5 7.5 0 1 0 15 0 a7.5 7.5 0 1 0 -15 0zM1233.45 2665.12 a7.5 7.5 0 1 0 15 0 a7.5 7.5 0 1 0 -15 0zM1168.49 2702.62 a7.5 7.5 0 1 0 15 0 a7.5 7.5 0 1 0 -15 0zM1168.49 2777.62 a7.5 7.5 0 1 0 15 0 a7.5 7.5 0 1 0 -15 0zM1103.54 2815.12 a7.5 7.5 0 1 0 15 0 a7.5 7.5 0 1 0 -15 0zM1233.45 2815.12 a7.5 7.5 0 1 0 15 0 a7.5 7.5 0 1 0 -15 0zM1233.45 2890.12 a7.5 7.5 0 1 0 15 0 a7.5 7.5 0 1 0 -15 0zM1168.49 2927.62 a7.5 7.5 0 1 0 15 0 a7.5 7.5 0 1 0 -15 0zM1103.54 2890.12 a7.5 7.5 0 1 0 15 0 a7.5 7.5 0 1 0 -15 0zM1233.45 190.12 a7.5 7.5 0 1 0 15 0 a7.5 7.5 0 1 0 -15 0zM1298.4 227.62 a7.5 7.5 0 1 0 15 0 a7.5 7.5 0 1 0 -15 0zM1298.4 302.62 a7.5 7.5 0 1 0 15 0 a7.5 7.5 0 1 0 -15 0zM1233.45 340.12 a7.5 7.5 0 1 0 15 0 a7.5 7.5 0 1 0 -15 0zM1168.49 302.62 a7.5 7.5 0 1 0 15 0 a7.5 7.5 0 1 0 -15 0zM1168.49 227.62 a7.5 7.5 0 1 0 15 0 a7.5 7.5 0 1 0 -15 0zM1298.4 977.62 a7.5 7.5 0 1 0 15 0 a7.5 7.5 0 1 0 -15 0zM1363.35 1015.12 a7.5 7.5 0 1 0 15 0 a7.5 7.5 0 1 0 -15 0zM1363.35 1090.12 a7.5 7.5 0 1 0 15 0 a7.5 7.5 0 1 0 -15 0zM1298.4 1127.62 a7.5 7.5 0 1 0 15 0 a7.5 7.5 0 1 0 -15 0zM1298.4 1427.62 a7.5 7.5 0 1 0 15 0 a7.5 7.5 0 1 0 -15 0zM1363.35 1465.12 a7.5 7.5 0 1 0 15 0 a7.5 7.5 0 1 0 -15 0zM1363.35 1540.12 a7.5 7.5 0 1 0 15 0 a7.5 7.5 0 1 0 -15 0zM1298.4 1577.62 a7.5 7.5 0 1 0 15 0 a7.5 7.5 0 1 0 -15 0zM1233.45 1540.12 a7.5 7.5 0 1 0 15 0 a7.5 7.5 0 1 0 -15 0zM1233.45 1465.12 a7.5 7.5 0 1 0 15 0 a7.5 7.5 0 1 0 -15 0zM1298.4 1652.62 a7.5 7.5 0 1 0 15 0 a7.5 7.5 0 1 0 -15 0zM1363.35 1690.12 a7.5 7.5 0 1 0 15 0 a7.5 7.5 0 1 0 -15 0zM1363.35 1765.12 a7.5 7.5 0 1 0 15 0 a7.5 7.5 0 1 0 -15 0zM1298.4 1802.62 a7.5 7.5 0 1 0 15 0 a7.5 7.5 0 1 0 -15 0zM1233.45 1765.12 a7.5 7.5 0 1 0 15 0 a7.5 7.5 0 1 0 -15 0zM1233.45 1690.12 a7.5 7.5 0 1 0 15 0 a7.5 7.5 0 1 0 -15 0zM1298.4 1877.62 a7.5 7.5 0 1 0 15 0 a7.5 7.5 0 1 0 -15 0zM1233.45 1915.12 a7.5 7.5 0 1 0 15 0 a7.5 7.5 0 1 0 -15 0zM1168.49 1877.62 a7.5 7.5 0 1 0 15 0 a7.5 7.5 0 1 0 -15 0zM1168.49 1802.62 a7.5 7.5 0 1 0 15 0 a7.5 7.5 0 1 0 -15 0zM1298.4 2252.62 a7.5 7.5 0 1 0 15 0 a7.5 7.5 0 1 0 -15 0zM1298.4 2327.62 a7.5 7.5 0 1 0 15 0 a7.5 7.5 0 1 0 -15 0zM1233.45 2365.12 a7.5 7.5 0 1 0 15 0 a7.5 7.5 0 1 0 -15 0zM1363.35 2365.12 a7.5 7.5 0 1 0 15 0 a7.5 7.5 0 1 0 -15 0zM1363.35 2440.12 a7.5 7.5 0 1 0 15 0 a7.5 7.5 0 1 0 -15 0zM1298.4 2477.62 a7.5 7.5 0 1 0 15 0 a7.5 7.5 0 1 0 -15 0zM1233.45 2440.12 a7.5 7.5 0 1 0 15 0 a7.5 7.5 0 1 0 -15 0zM1363.36 415.12 a7.5 7.5 0 1 0 15 0 a7.5 7.5 0 1 0 -15 0zM1428.31 452.62 a7.5 7.5 0 1 0 15 0 a7.5 7.5 0 1 0 -15 0zM1428.31 527.62 a7.5 7.5 0 1 0 15 0 a7.5 7.5 0 1 0 -15 0zM1363.36 565.12 a7.5 7.5 0 1 0 15 0 a7.5 7.5 0 1 0 -15 0zM1298.4 527.62 a7.5 7.5 0 1 0 15 0 a7.5 7.5 0 1 0 -15 0zM1298.4 452.62 a7.5 7.5 0 1 0 15 0 a7.5 7.5 0 1 0 -15 0zM1428.31 752.62 a7.5 7.5 0 1 0 15 0 a7.5 7.5 0 1 0 -15 0zM1493.26 790.12 a7.5 7.5 0 1 0 15 0 a7.5 7.5 0 1 0 -15 0zM1493.26 865.12 a7.5 7.5 0 1 0 15 0 a7.5 7.5 0 1 0 -15 0zM1428.31 902.62 a7.5 7.5 0 1 0 15 0 a7.5 7.5 0 1 0 -15 0zM1363.36 865.12 a7.5 7.5 0 1 0 15 0 a7.5 7.5 0 1 0 -15 0zM1363.36 790.12 a7.5 7.5 0 1 0 15 0 a7.5 7.5 0 1 0 -15 0zM1363.36 1090.12 a7.5 7.5 0 1 0 15 0 a7.5 7.5 0 1 0 -15 0zM1428.31 1127.62 a7.5 7.5 0 1 0 15 0 a7.5 7.5 0 1 0 -15 0zM1428.31 1202.62 a7.5 7.5 0 1 0 15 0 a7.5 7.5 0 1 0 -15 0zM1363.36 1240.12 a7.5 7.5 0 1 0 15 0 a7.5 7.5 0 1 0 -15 0zM1298.4 1202.62 a7.5 7.5 0 1 0 15 0 a7.5 7.5 0 1 0 -15 0zM1428.31 1427.62 a7.5 7.5 0 1 0 15 0 a7.5 7.5 0 1 0 -15 0zM1493.26 1465.12 a7.5 7.5 0 1 0 15 0 a7.5 7.5 0 1 0 -15 0zM1493.26 1540.12 a7.5 7.5 0 1 0 15 0 a7.5 7.5 0 1 0 -15 0zM1428.31 1577.62 a7.5 7.5 0 1 0 15 0 a7.5 7.5 0 1 0 -15 0zM1363.36 1540.12 a7.5 7.5 0 1 0 15 0 a7.5 7.5 0 1 0 -15 0zM1363.36 1465.12 a7.5 7.5 0 1 0 15 0 a7.5 7.5 0 1 0 -15 0zM1428.31 1652.62 a7.5 7.5 0 1 0 15 0 a7.5 7.5 0 1 0 -15 0zM1493.26 1690.12 a7.5 7.5 0 1 0 15 0 a7.5 7.5 0 1 0 -15 0zM1493.26 1765.12 a7.5 7.5 0 1 0 15 0 a7.5 7.5 0 1 0 -15 0zM1428.31 1802.62 a7.5 7.5 0 1 0 15 0 a7.5 7.5 0 1 0 -15 0zM1363.36 1765.12 a7.5 7.5 0 1 0 15 0 a7.5 7.5 0 1 0 -15 0zM1363.36 1690.12 a7.5 7.5 0 1 0 15 0 a7.5 7.5 0 1 0 -15 0zM1428.31 1877.62 a7.5 7.5 0 1 0 15 0 a7.5 7.5 0 1 0 -15 0zM1493.26 1915.12 a7.5 7.5 0 1 0 15 0 a7.5 7.5 0 1 0 -15 0zM1493.26 1990.12 a7.5 7.5 0 1 0 15 0 a7.5 7.5 0 1 0 -15 0zM1428.31 2027.62 a7.5 7.5 0 1 0 15 0 a7.5 7.5 0 1 0 -15 0zM1363.36 1990.12 a7.5 7.5 0 1 0 15 0 a7.5 7.5 0 1 0 -15 0zM1363.36 1915.12 a7.5 7.5 0 1 0 15 0 a7.5 7.5 0 1 0 -15 0zM1428.31 2102.62 a7.5 7.5 0 1 0 15 0 a7.5 7.5 0 1 0 -15 0zM1363.36 2140.12 a7.5 7.5 0 1 0 15 0 a7.5 7.5 0 1 0 -15 0zM1298.4 2102.62 a7.5 7.5 0 1 0 15 0 a7.5 7.5 0 1 0 -15 0zM1298.4 2027.62 a7.5 7.5 0 1 0 15 0 a7.5 7.5 0 1 0 -15 0zM1363.36 2215.12 a7.5 7.5 0 1 0 15 0 a7.5 7.5 0 1 0 -15 0zM1428.31 2252.62 a7.5 7.5 0 1 0 15 0 a7.5 7.5 0 1 0 -15 0zM1428.31 2327.62 a7.5 7.5 0 1 0 15 0 a7.5 7.5 0 1 0 -15 0zM1363.36 2365.12 a7.5 7.5 0 1 0 15 0 a7.5 7.5 0 1 0 -15 0zM1493.26 2365.12 a7.5 7.5 0 1 0 15 0 a7.5 7.5 0 1 0 -15 0zM1493.26 2440.12 a7.5 7.5 0 1 0 15 0 a7.5 7.5 0 1 0 -15 0zM1428.31 2477.62 a7.5 7.5 0 1 0 15 0 a7.5 7.5 0 1 0 -15 0zM1363.36 2440.12 a7.5 7.5 0 1 0 15 0 a7.5 7.5 0 1 0 -15 0zM1428.31 2552.62 a7.5 7.5 0 1 0 15 0 a7.5 7.5 0 1 0 -15 0zM1363.36 2590.12 a7.5 7.5 0 1 0 15 0 a7.5 7.5 0 1 0 -15 0zM1298.4 2552.62 a7.5 7.5 0 1 0 15 0 a7.5 7.5 0 1 0 -15 0zM1493.26 2590.12 a7.5 7.5 0 1 0 15 0 a7.5 7.5 0 1 0 -15 0zM1493.26 2665.12 a7.5 7.5 0 1 0 15 0 a7.5 7.5 0 1 0 -15 0zM1428.31 2702.62 a7.5 7.5 0 1 0 15 0 a7.5 7.5 0 1 0 -15 0zM1363.36 2665.12 a7.5 7.5 0 1 0 15 0 a7.5 7.5 0 1 0 -15 0zM1558.22 302.62 a7.5 7.5 0 1 0 15 0 a7.5 7.5 0 1 0 -15 0zM1623.17 340.12 a7.5 7.5 0 1 0 15 0 a7.5 7.5 0 1 0 -15 0zM1623.17 415.12 a7.5 7.5 0 1 0 15 0 a7.5 7.5 0 1 0 -15 0zM1558.22 452.62 a7.5 7.5 0 1 0 15 0 a7.5 7.5 0 1 0 -15 0zM1493.26 415.12 a7.5 7.5 0 1 0 15 0 a7.5 7.5 0 1 0 -15 0zM1493.26 340.12 a7.5 7.5 0 1 0 15 0 a7.5 7.5 0 1 0 -15 0zM1558.22 527.62 a7.5 7.5 0 1 0 15 0 a7.5 7.5 0 1 0 -15 0zM1493.26 565.12 a7.5 7.5 0 1 0 15 0 a7.5 7.5 0 1 0 -15 0zM1493.26 640.12 a7.5 7.5 0 1 0 15 0 a7.5 7.5 0 1 0 -15 0zM1558.22 677.62 a7.5 7.5 0 1 0 15 0 a7.5 7.5 0 1 0 -15 0zM1558.22 752.62 a7.5 7.5 0 1 0 15 0 a7.5 7.5 0 1 0 -15 0zM1428.31 677.62 a7.5 7.5 0 1 0 15 0 a7.5 7.5 0 1 0 -15 0zM1558.22 902.62 a7.5 7.5 0 1 0 15 0 a7.5 7.5 0 1 0 -15 0zM1558.22 977.62 a7.5 7.5 0 1 0 15 0 a7.5 7.5 0 1 0 -15 0zM1493.26 1015.12 a7.5 7.5 0 1 0 15 0 a7.5 7.5 0 1 0 -15 0zM1428.31 977.62 a7.5 7.5 0 1 0 15 0 a7.5 7.5 0 1 0 -15 0zM1558.22 1577.62 a7.5 7.5 0 1 0 15 0 a7.5 7.5 0 1 0 -15 0zM1558.22 1652.62 a7.5 7.5 0 1 0 15 0 a7.5 7.5 0 1 0 -15 0zM1558.22 1877.62 a7.5 7.5 0 1 0 15 0 a7.5 7.5 0 1 0 -15 0zM1623.17 1915.12 a7.5 7.5 0 1 0 15 0 a7.5 7.5 0 1 0 -15 0zM1623.17 1990.12 a7.5 7.5 0 1 0 15 0 a7.5 7.5 0 1 0 -15 0zM1558.22 2027.62 a7.5 7.5 0 1 0 15 0 a7.5 7.5 0 1 0 -15 0zM1558.22 2102.62 a7.5 7.5 0 1 0 15 0 a7.5 7.5 0 1 0 -15 0zM1623.17 2140.12 a7.5 7.5 0 1 0 15 0 a7.5 7.5 0 1 0 -15 0zM1623.17 2215.12 a7.5 7.5 0 1 0 15 0 a7.5 7.5 0 1 0 -15 0zM1558.22 2252.62 a7.5 7.5 0 1 0 15 0 a7.5 7.5 0 1 0 -15 0zM1493.26 2215.12 a7.5 7.5 0 1 0 15 0 a7.5 7.5 0 1 0 -15 0zM1493.26 2140.12 a7.5 7.5 0 1 0 15 0 a7.5 7.5 0 1 0 -15 0zM1558.22 2552.62 a7.5 7.5 0 1 0 15 0 a7.5 7.5 0 1 0 -15 0zM1623.17 2590.12 a7.5 7.5 0 1 0 15 0 a7.5 7.5 0 1 0 -15 0zM1623.17 2665.12 a7.5 7.5 0 1 0 15 0 a7.5 7.5 0 1 0 -15 0zM1558.22 2702.62 a7.5 7.5 0 1 0 15 0 a7.5 7.5 0 1 0 -15 0zM1688.12 302.62 a7.5 7.5 0 1 0 15 0 a7.5 7.5 0 1 0 -15 0zM1753.08 340.12 a7.5 7.5 0 1 0 15 0 a7.5 7.5 0 1 0 -15 0zM1753.08 415.12 a7.5 7.5 0 1 0 15 0 a7.5 7.5 0 1 0 -15 0zM1688.12 452.62 a7.5 7.5 0 1 0 15 0 a7.5 7.5 0 1 0 -15 0zM1688.12 527.62 a7.5 7.5 0 1 0 15 0 a7.5 7.5 0 1 0 -15 0zM1753.08 565.12 a7.5 7.5 0 1 0 15 0 a7.5 7.5 0 1 0 -15 0zM1753.08 640.12 a7.5 7.5 0 1 0 15 0 a7.5 7.5 0 1 0 -15 0zM1688.12 677.62 a7.5 7.5 0 1 0 15 0 a7.5 7.5 0 1 0 -15 0zM1623.17 640.12 a7.5 7.5 0 1 0 15 0 a7.5 7.5 0 1 0 -15 0zM1623.17 565.12 a7.5 7.5 0 1 0 15 0 a7.5 7.5 0 1 0 -15 0zM1688.12 1427.62 a7.5 7.5 0 1 0 15 0 a7.5 7.5 0 1 0 -15 0zM1753.08 1465.12 a7.5 7.5 0 1 0 15 0 a7.5 7.5 0 1 0 -15 0zM1753.08 1540.12 a7.5 7.5 0 1 0 15 0 a7.5 7.5 0 1 0 -15 0zM1688.12 1577.62 a7.5 7.5 0 1 0 15 0 a7.5 7.5 0 1 0 -15 0zM1623.17 1540.12 a7.5 7.5 0 1 0 15 0 a7.5 7.5 0 1 0 -15 0zM1623.17 1465.12 a7.5 7.5 0 1 0 15 0 a7.5 7.5 0 1 0 -15 0zM1688.12 2252.62 a7.5 7.5 0 1 0 15 0 a7.5 7.5 0 1 0 -15 0zM1688.12 2327.62 a7.5 7.5 0 1 0 15 0 a7.5 7.5 0 1 0 -15 0zM1623.17 2365.12 a7.5 7.5 0 1 0 15 0 a7.5 7.5 0 1 0 -15 0zM1558.22 2327.62 a7.5 7.5 0 1 0 15 0 a7.5 7.5 0 1 0 -15 0zM1623.17 2440.12 a7.5 7.5 0 1 0 15 0 a7.5 7.5 0 1 0 -15 0zM1688.12 2477.62 a7.5 7.5 0 1 0 15 0 a7.5 7.5 0 1 0 -15 0zM1688.12 2552.62 a7.5 7.5 0 1 0 15 0 a7.5 7.5 0 1 0 -15 0zM1558.22 2477.62 a7.5 7.5 0 1 0 15 0 a7.5 7.5 0 1 0 -15 0zM1753.08 2590.12 a7.5 7.5 0 1 0 15 0 a7.5 7.5 0 1 0 -15 0zM1753.08 2665.12 a7.5 7.5 0 1 0 15 0 a7.5 7.5 0 1 0 -15 0zM1688.12 2702.62 a7.5 7.5 0 1 0 15 0 a7.5 7.5 0 1 0 -15 0zM1818.03 677.62 a7.5 7.5 0 1 0 15 0 a7.5 7.5 0 1 0 -15 0zM1818.03 752.62 a7.5 7.5 0 1 0 15 0 a7.5 7.5 0 1 0 -15 0zM1753.08 790.12 a7.5 7.5 0 1 0 15 0 a7.5 7.5 0 1 0 -15 0zM1688.12 752.62 a7.5 7.5 0 1 0 15 0 a7.5 7.5 0 1 0 -15 0zM1753.08 865.12 a7.5 7.5 0 1 0 15 0 a7.5 7.5 0 1 0 -15 0zM1818.03 902.62 a7.5 7.5 0 1 0 15 0 a7.5 7.5 0 1 0 -15 0zM1818.03 977.62 a7.5 7.5 0 1 0 15 0 a7.5 7.5 0 1 0 -15 0zM1753.08 1015.12 a7.5 7.5 0 1 0 15 0 a7.5 7.5 0 1 0 -15 0zM1688.12 977.62 a7.5 7.5 0 1 0 15 0 a7.5 7.5 0 1 0 -15 0zM1688.12 902.62 a7.5 7.5 0 1 0 15 0 a7.5 7.5 0 1 0 -15 0zM1882.98 1015.12 a7.5 7.5 0 1 0 15 0 a7.5 7.5 0 1 0 -15 0zM1882.98 1090.12 a7.5 7.5 0 1 0 15 0 a7.5 7.5 0 1 0 -15 0zM1818.03 1127.62 a7.5 7.5 0 1 0 15 0 a7.5 7.5 0 1 0 -15 0zM1753.08 1090.12 a7.5 7.5 0 1 0 15 0 a7.5 7.5 0 1 0 -15 0zM1818.03 1427.62 a7.5 7.5 0 1 0 15 0 a7.5 7.5 0 1 0 -15 0zM1882.98 1465.12 a7.5 7.5 0 1 0 15 0 a7.5 7.5 0 1 0 -15 0zM1882.98 1540.12 a7.5 7.5 0 1 0 15 0 a7.5 7.5 0 1 0 -15 0zM1818.03 1577.62 a7.5 7.5 0 1 0 15 0 a7.5 7.5 0 1 0 -15 0zM1818.03 1652.62 a7.5 7.5 0 1 0 15 0 a7.5 7.5 0 1 0 -15 0zM1882.98 1690.12 a7.5 7.5 0 1 0 15 0 a7.5 7.5 0 1 0 -15 0zM1882.98 1765.12 a7.5 7.5 0 1 0 15 0 a7.5 7.5 0 1 0 -15 0zM1818.03 1802.62 a7.5 7.5 0 1 0 15 0 a7.5 7.5 0 1 0 -15 0zM1753.08 1765.12 a7.5 7.5 0 1 0 15 0 a7.5 7.5 0 1 0 -15 0zM1753.08 1690.12 a7.5 7.5 0 1 0 15 0 a7.5 7.5 0 1 0 -15 0zM1818.03 1877.62 a7.5 7.5 0 1 0 15 0 a7.5 7.5 0 1 0 -15 0zM1882.98 1915.12 a7.5 7.5 0 1 0 15 0 a7.5 7.5 0 1 0 -15 0zM1882.98 1990.12 a7.5 7.5 0 1 0 15 0 a7.5 7.5 0 1 0 -15 0zM1818.03 2027.62 a7.5 7.5 0 1 0 15 0 a7.5 7.5 0 1 0 -15 0zM1753.08 1990.12 a7.5 7.5 0 1 0 15 0 a7.5 7.5 0 1 0 -15 0zM1753.08 1915.12 a7.5 7.5 0 1 0 15 0 a7.5 7.5 0 1 0 -15 0zM1818.03 2102.62 a7.5 7.5 0 1 0 15 0 a7.5 7.5 0 1 0 -15 0zM1753.08 2140.12 a7.5 7.5 0 1 0 15 0 a7.5 7.5 0 1 0 -15 0zM1688.12 2102.62 a7.5 7.5 0 1 0 15 0 a7.5 7.5 0 1 0 -15 0zM1688.12 2027.62 a7.5 7.5 0 1 0 15 0 a7.5 7.5 0 1 0 -15 0zM1818.03 2552.62 a7.5 7.5 0 1 0 15 0 a7.5 7.5 0 1 0 -15 0zM1882.98 2590.12 a7.5 7.5 0 1 0 15 0 a7.5 7.5 0 1 0 -15 0zM1882.98 2665.12 a7.5 7.5 0 1 0 15 0 a7.5 7.5 0 1 0 -15 0zM1818.03 2702.62 a7.5 7.5 0 1 0 15 0 a7.5 7.5 0 1 0 -15 0zM1818.03 2777.62 a7.5 7.5 0 1 0 15 0 a7.5 7.5 0 1 0 -15 0zM1882.98 2815.12 a7.5 7.5 0 1 0 15 0 a7.5 7.5 0 1 0 -15 0zM1882.98 2890.12 a7.5 7.5 0 1 0 15 0 a7.5 7.5 0 1 0 -15 0zM1818.03 2927.62 a7.5 7.5 0 1 0 15 0 a7.5 7.5 0 1 0 -15 0zM1753.08 2890.12 a7.5 7.5 0 1 0 15 0 a7.5 7.5 0 1 0 -15 0zM1753.08 2815.12 a7.5 7.5 0 1 0 15 0 a7.5 7.5 0 1 0 -15 0zM1882.98 -34.88 a7.5 7.5 0 1 0 15 0 a7.5 7.5 0 1 0 -15 0zM1947.94 2.62 a7.5 7.5 0 1 0 15 0 a7.5 7.5 0 1 0 -15 0zM1947.94 77.62 a7.5 7.5 0 1 0 15 0 a7.5 7.5 0 1 0 -15 0zM1882.98 115.12 a7.5 7.5 0 1 0 15 0 a7.5 7.5 0 1 0 -15 0zM1818.03 77.62 a7.5 7.5 0 1 0 15 0 a7.5 7.5 0 1 0 -15 0zM1818.03 2.62 a7.5 7.5 0 1 0 15 0 a7.5 7.5 0 1 0 -15 0zM2012.89 115.12 a7.5 7.5 0 1 0 15 0 a7.5 7.5 0 1 0 -15 0zM2012.89 190.12 a7.5 7.5 0 1 0 15 0 a7.5 7.5 0 1 0 -15 0zM1947.94 227.62 a7.5 7.5 0 1 0 15 0 a7.5 7.5 0 1 0 -15 0zM1882.98 190.12 a7.5 7.5 0 1 0 15 0 a7.5 7.5 0 1 0 -15 0zM1947.94 302.62 a7.5 7.5 0 1 0 15 0 a7.5 7.5 0 1 0 -15 0zM2012.89 340.12 a7.5 7.5 0 1 0 15 0 a7.5 7.5 0 1 0 -15 0zM2012.89 415.12 a7.5 7.5 0 1 0 15 0 a7.5 7.5 0 1 0 -15 0zM1947.94 452.62 a7.5 7.5 0 1 0 15 0 a7.5 7.5 0 1 0 -15 0zM1882.98 415.12 a7.5 7.5 0 1 0 15 0 a7.5 7.5 0 1 0 -15 0zM1882.98 340.12 a7.5 7.5 0 1 0 15 0 a7.5 7.5 0 1 0 -15 0zM1947.94 752.62 a7.5 7.5 0 1 0 15 0 a7.5 7.5 0 1 0 -15 0zM2012.89 790.12 a7.5 7.5 0 1 0 15 0 a7.5 7.5 0 1 0 -15 0zM2012.89 865.12 a7.5 7.5 0 1 0 15 0 a7.5 7.5 0 1 0 -15 0zM1947.94 902.62 a7.5 7.5 0 1 0 15 0 a7.5 7.5 0 1 0 -15 0zM1882.98 865.12 a7.5 7.5 0 1 0 15 0 a7.5 7.5 0 1 0 -15 0zM1882.98 790.12 a7.5 7.5 0 1 0 15 0 a7.5 7.5 0 1 0 -15 0zM1947.94 977.62 a7.5 7.5 0 1 0 15 0 a7.5 7.5 0 1 0 -15 0zM1947.94 1202.62 a7.5 7.5 0 1 0 15 0 a7.5 7.5 0 1 0 -15 0zM2012.89 1240.12 a7.5 7.5 0 1 0 15 0 a7.5 7.5 0 1 0 -15 0zM2012.89 1315.12 a7.5 7.5 0 1 0 15 0 a7.5 7.5 0 1 0 -15 0zM1947.94 1352.62 a7.5 7.5 0 1 0 15 0 a7.5 7.5 0 1 0 -15 0zM1882.98 1315.12 a7.5 7.5 0 1 0 15 0 a7.5 7.5 0 1 0 -15 0zM1882.98 1240.12 a7.5 7.5 0 1 0 15 0 a7.5 7.5 0 1 0 -15 0zM1947.94 1802.62 a7.5 7.5 0 1 0 15 0 a7.5 7.5 0 1 0 -15 0zM1947.94 1877.62 a7.5 7.5 0 1 0 15 0 a7.5 7.5 0 1 0 -15 0zM2012.89 1915.12 a7.5 7.5 0 1 0 15 0 a7.5 7.5 0 1 0 -15 0zM2012.89 1990.12 a7.5 7.5 0 1 0 15 0 a7.5 7.5 0 1 0 -15 0zM1947.94 2027.62 a7.5 7.5 0 1 0 15 0 a7.5 7.5 0 1 0 -15 0zM1947.94 2102.62 a7.5 7.5 0 1 0 15 0 a7.5 7.5 0 1 0 -15 0zM2012.89 2140.12 a7.5 7.5 0 1 0 15 0 a7.5 7.5 0 1 0 -15 0zM2012.89 2215.12 a7.5 7.5 0 1 0 15 0 a7.5 7.5 0 1 0 -15 0zM1947.94 2252.62 a7.5 7.5 0 1 0 15 0 a7.5 7.5 0 1 0 -15 0zM1882.98 2215.12 a7.5 7.5 0 1 0 15 0 a7.5 7.5 0 1 0 -15 0zM1882.98 2140.12 a7.5 7.5 0 1 0 15 0 a7.5 7.5 0 1 0 -15 0zM2077.85 452.62 a7.5 7.5 0 1 0 15 0 a7.5 7.5 0 1 0 -15 0zM2077.85 527.62 a7.5 7.5 0 1 0 15 0 a7.5 7.5 0 1 0 -15 0zM2012.89 565.12 a7.5 7.5 0 1 0 15 0 a7.5 7.5 0 1 0 -15 0zM1947.94 527.62 a7.5 7.5 0 1 0 15 0 a7.5 7.5 0 1 0 -15 0zM2077.85 752.62 a7.5 7.5 0 1 0 15 0 a7.5 7.5 0 1 0 -15 0zM2142.8 790.12 a7.5 7.5 0 1 0 15 0 a7.5 7.5 0 1 0 -15 0zM2142.8 865.12 a7.5 7.5 0 1 0 15 0 a7.5 7.5 0 1 0 -15 0zM2077.85 902.62 a7.5 7.5 0 1 0 15 0 a7.5 7.5 0 1 0 -15 0zM2077.85 977.62 a7.5 7.5 0 1 0 15 0 a7.5 7.5 0 1 0 -15 0zM2142.8 1015.12 a7.5 7.5 0 1 0 15 0 a7.5 7.5 0 1 0 -15 0zM2142.8 1090.12 a7.5 7.5 0 1 0 15 0 a7.5 7.5 0 1 0 -15 0zM2077.85 1127.62 a7.5 7.5 0 1 0 15 0 a7.5 7.5 0 1 0 -15 0zM2012.89 1090.12 a7.5 7.5 0 1 0 15 0 a7.5 7.5 0 1 0 -15 0zM2012.89 1015.12 a7.5 7.5 0 1 0 15 0 a7.5 7.5 0 1 0 -15 0zM2012.89 1540.12 a7.5 7.5 0 1 0 15 0 a7.5 7.5 0 1 0 -15 0zM2077.85 1577.62 a7.5 7.5 0 1 0 15 0 a7.5 7.5 0 1 0 -15 0zM2077.85 1652.62 a7.5 7.5 0 1 0 15 0 a7.5 7.5 0 1 0 -15 0zM2012.89 1690.12 a7.5 7.5 0 1 0 15 0 a7.5 7.5 0 1 0 -15 0zM1947.94 1652.62 a7.5 7.5 0 1 0 15 0 a7.5 7.5 0 1 0 -15 0zM1947.94 1577.62 a7.5 7.5 0 1 0 15 0 a7.5 7.5 0 1 0 -15 0zM2142.8 1690.12 a7.5 7.5 0 1 0 15 0 a7.5 7.5 0 1 0 -15 0zM2142.8 1765.12 a7.5 7.5 0 1 0 15 0 a7.5 7.5 0 1 0 -15 0zM2077.85 1802.62 a7.5 7.5 0 1 0 15 0 a7.5 7.5 0 1 0 -15 0zM2012.89 1765.12 a7.5 7.5 0 1 0 15 0 a7.5 7.5 0 1 0 -15 0zM2012.89 2440.12 a7.5 7.5 0 1 0 15 0 a7.5 7.5 0 1 0 -15 0zM2077.85 2477.62 a7.5 7.5 0 1 0 15 0 a7.5 7.5 0 1 0 -15 0zM2077.85 2552.62 a7.5 7.5 0 1 0 15 0 a7.5 7.5 0 1 0 -15 0zM2012.89 2590.12 a7.5 7.5 0 1 0 15 0 a7.5 7.5 0 1 0 -15 0zM1947.94 2552.62 a7.5 7.5 0 1 0 15 0 a7.5 7.5 0 1 0 -15 0zM1947.94 2477.62 a7.5 7.5 0 1 0 15 0 a7.5 7.5 0 1 0 -15 0z" fill="rgba(220, 220, 220, 0.2)"></path><path d="M29.48 -14.83L72.78 10.17L72.78 60.17L29.48 85.17L-13.82 60.17L-13.82 10.17zM72.78 210.17L116.09 235.17L116.09 285.17L72.78 310.17L29.48 285.17L29.48 235.17zM29.48 285.17L72.78 310.17L72.78 360.17L29.48 385.17L-13.82 360.17L-13.82 310.17zM29.48 585.17L72.78 610.17L72.78 660.17L29.48 685.17L-13.82 660.17L-13.82 610.17zM72.78 1110.17L116.09 1135.17L116.09 1185.17L72.78 1210.17L29.48 1185.17L29.48 1135.17zM72.78 1260.17L116.09 1285.17L116.09 1335.17L72.78 1360.17L29.48 1335.17L29.48 1285.17zM29.48 1935.17L72.78 1960.17L72.78 2010.17L29.48 2035.17L-13.82 2010.17L-13.82 1960.17zM29.48 2085.17L72.78 2110.17L72.78 2160.17L29.48 2185.17L-13.82 2160.17L-13.82 2110.17zM72.78 2160.17L116.09 2185.17L116.09 2235.17L72.78 2260.17L29.48 2235.17L29.48 2185.17zM72.78 2460.17L116.09 2485.17L116.09 2535.17L72.78 2560.17L29.48 2535.17L29.48 2485.17zM29.48 2685.17L72.78 2710.17L72.78 2760.17L29.48 2785.17L-13.82 2760.17L-13.82 2710.17zM159.39 60.17L202.69 85.17L202.69 135.17L159.39 160.17L116.09 135.17L116.09 85.17zM159.39 210.17L202.69 235.17L202.69 285.17L159.39 310.17L116.09 285.17L116.09 235.17zM116.09 585.17L159.39 610.17L159.39 660.17L116.09 685.17L72.78 660.17L72.78 610.17zM116.09 1185.17L159.39 1210.17L159.39 1260.17L116.09 1285.17L72.78 1260.17L72.78 1210.17zM159.39 1410.17L202.69 1435.17L202.69 1485.17L159.39 1510.17L116.09 1485.17L116.09 1435.17zM116.09 1785.17L159.39 1810.17L159.39 1860.17L116.09 1885.17L72.78 1860.17L72.78 1810.17zM159.39 2010.17L202.69 2035.17L202.69 2085.17L159.39 2110.17L116.09 2085.17L116.09 2035.17zM159.39 2160.17L202.69 2185.17L202.69 2235.17L159.39 2260.17L116.09 2235.17L116.09 2185.17zM116.09 2235.17L159.39 2260.17L159.39 2310.17L116.09 2335.17L72.78 2310.17L72.78 2260.17zM159.39 2310.17L202.69 2335.17L202.69 2385.17L159.39 2410.17L116.09 2385.17L116.09 2335.17zM159.39 2760.17L202.69 2785.17L202.69 2835.17L159.39 2860.17L116.09 2835.17L116.09 2785.17zM202.69 135.17L245.99 160.17L245.99 210.17L202.69 235.17L159.39 210.17L159.39 160.17zM245.99 210.17L289.3 235.17L289.3 285.17L245.99 310.17L202.69 285.17L202.69 235.17zM245.99 660.17L289.3 685.17L289.3 735.17L245.99 760.17L202.69 735.17L202.69 685.17zM202.69 735.17L245.99 760.17L245.99 810.17L202.69 835.17L159.39 810.17L159.39 760.17zM245.99 810.17L289.3 835.17L289.3 885.17L245.99 910.17L202.69 885.17L202.69 835.17zM245.99 960.17L289.3 985.17L289.3 1035.17L245.99 1060.17L202.69 1035.17L202.69 985.17zM202.69 1035.17L245.99 1060.17L245.99 1110.17L202.69 1135.17L159.39 1110.17L159.39 1060.17zM245.99 1410.17L289.3 1435.17L289.3 1485.17L245.99 1510.17L202.69 1485.17L202.69 1435.17zM245.99 1710.17L289.3 1735.17L289.3 1785.17L245.99 1810.17L202.69 1785.17L202.69 1735.17zM202.69 1785.17L245.99 1810.17L245.99 1860.17L202.69 1885.17L159.39 1860.17L159.39 1810.17zM245.99 1860.17L289.3 1885.17L289.3 1935.17L245.99 1960.17L202.69 1935.17L202.69 1885.17zM202.69 1935.17L245.99 1960.17L245.99 2010.17L202.69 2035.17L159.39 2010.17L159.39 1960.17zM202.69 2535.17L245.99 2560.17L245.99 2610.17L202.69 2635.17L159.39 2610.17L159.39 2560.17zM202.69 2685.17L245.99 2710.17L245.99 2760.17L202.69 2785.17L159.39 2760.17L159.39 2710.17zM245.99 2760.17L289.3 2785.17L289.3 2835.17L245.99 2860.17L202.69 2835.17L202.69 2785.17zM289.3 -14.83L332.6 10.17L332.6 60.17L289.3 85.17L245.99 60.17L245.99 10.17zM332.6 660.17L375.9 685.17L375.9 735.17L332.6 760.17L289.3 735.17L289.3 685.17zM332.6 810.17L375.9 835.17L375.9 885.17L332.6 910.17L289.3 885.17L289.3 835.17zM332.6 1110.17L375.9 1135.17L375.9 1185.17L332.6 1210.17L289.3 1185.17L289.3 1135.17zM289.3 1335.17L332.6 1360.17L332.6 1410.17L289.3 1435.17L245.99 1410.17L245.99 1360.17zM289.3 1635.17L332.6 1660.17L332.6 1710.17L289.3 1735.17L245.99 1710.17L245.99 1660.17zM289.3 1935.17L332.6 1960.17L332.6 2010.17L289.3 2035.17L245.99 2010.17L245.99 1960.17zM332.6 2460.17L375.9 2485.17L375.9 2535.17L332.6 2560.17L289.3 2535.17L289.3 2485.17zM419.2 510.17L462.51 535.17L462.51 585.17L419.2 610.17L375.9 585.17L375.9 535.17zM419.2 1110.17L462.51 1135.17L462.51 1185.17L419.2 1210.17L375.9 1185.17L375.9 1135.17zM419.2 1260.17L462.51 1285.17L462.51 1335.17L419.2 1360.17L375.9 1335.17L375.9 1285.17zM375.9 1635.17L419.2 1660.17L419.2 1710.17L375.9 1735.17L332.6 1710.17L332.6 1660.17zM419.2 1710.17L462.51 1735.17L462.51 1785.17L419.2 1810.17L375.9 1785.17L375.9 1735.17zM375.9 1935.17L419.2 1960.17L419.2 2010.17L375.9 2035.17L332.6 2010.17L332.6 1960.17zM419.2 2010.17L462.51 2035.17L462.51 2085.17L419.2 2110.17L375.9 2085.17L375.9 2035.17zM375.9 2535.17L419.2 2560.17L419.2 2610.17L375.9 2635.17L332.6 2610.17L332.6 2560.17zM419.2 2760.17L462.51 2785.17L462.51 2835.17L419.2 2860.17L375.9 2835.17L375.9 2785.17zM462.51 -14.83L505.81 10.17L505.81 60.17L462.51 85.17L419.2 60.17L419.2 10.17zM505.81 60.17L549.11 85.17L549.11 135.17L505.81 160.17L462.51 135.17L462.51 85.17zM462.51 585.17L505.81 610.17L505.81 660.17L462.51 685.17L419.2 660.17L419.2 610.17zM505.81 660.17L549.11 685.17L549.11 735.17L505.81 760.17L462.51 735.17L462.51 685.17zM505.81 960.17L549.11 985.17L549.11 1035.17L505.81 1060.17L462.51 1035.17L462.51 985.17zM462.51 1035.17L505.81 1060.17L505.81 1110.17L462.51 1135.17L419.2 1110.17L419.2 1060.17zM505.81 1560.17L549.11 1585.17L549.11 1635.17L505.81 1660.17L462.51 1635.17L462.51 1585.17zM505.81 1710.17L549.11 1735.17L549.11 1785.17L505.81 1810.17L462.51 1785.17L462.51 1735.17zM505.81 2010.17L549.11 2035.17L549.11 2085.17L505.81 2110.17L462.51 2085.17L462.51 2035.17zM462.51 2235.17L505.81 2260.17L505.81 2310.17L462.51 2335.17L419.2 2310.17L419.2 2260.17zM505.81 2310.17L549.11 2335.17L549.11 2385.17L505.81 2410.17L462.51 2385.17L462.51 2335.17zM505.81 2460.17L549.11 2485.17L549.11 2535.17L505.81 2560.17L462.51 2535.17L462.51 2485.17zM505.81 2760.17L549.11 2785.17L549.11 2835.17L505.81 2860.17L462.51 2835.17L462.51 2785.17zM592.41 360.17L635.72 385.17L635.72 435.17L592.41 460.17L549.11 435.17L549.11 385.17zM592.41 660.17L635.72 685.17L635.72 735.17L592.41 760.17L549.11 735.17L549.11 685.17zM549.11 1035.17L592.41 1060.17L592.41 1110.17L549.11 1135.17L505.81 1110.17L505.81 1060.17zM592.41 1110.17L635.72 1135.17L635.72 1185.17L592.41 1210.17L549.11 1185.17L549.11 1135.17zM592.41 1410.17L635.72 1435.17L635.72 1485.17L592.41 1510.17L549.11 1485.17L549.11 1435.17zM592.41 1560.17L635.72 1585.17L635.72 1635.17L592.41 1660.17L549.11 1635.17L549.11 1585.17zM592.41 1710.17L635.72 1735.17L635.72 1785.17L592.41 1810.17L549.11 1785.17L549.11 1735.17zM592.41 1860.17L635.72 1885.17L635.72 1935.17L592.41 1960.17L549.11 1935.17L549.11 1885.17zM549.11 2385.17L592.41 2410.17L592.41 2460.17L549.11 2485.17L505.81 2460.17L505.81 2410.17zM592.41 2610.17L635.72 2635.17L635.72 2685.17L592.41 2710.17L549.11 2685.17L549.11 2635.17zM635.72 285.17L679.02 310.17L679.02 360.17L635.72 385.17L592.41 360.17L592.41 310.17zM679.02 960.17L722.32 985.17L722.32 1035.17L679.02 1060.17L635.72 1035.17L635.72 985.17zM635.72 1185.17L679.02 1210.17L679.02 1260.17L635.72 1285.17L592.41 1260.17L592.41 1210.17zM679.02 1260.17L722.32 1285.17L722.32 1335.17L679.02 1360.17L635.72 1335.17L635.72 1285.17zM635.72 1335.17L679.02 1360.17L679.02 1410.17L635.72 1435.17L592.41 1410.17L592.41 1360.17zM679.02 1410.17L722.32 1435.17L722.32 1485.17L679.02 1510.17L635.72 1485.17L635.72 1435.17zM679.02 1710.17L722.32 1735.17L722.32 1785.17L679.02 1810.17L635.72 1785.17L635.72 1735.17zM635.72 1785.17L679.02 1810.17L679.02 1860.17L635.72 1885.17L592.41 1860.17L592.41 1810.17zM635.72 1935.17L679.02 1960.17L679.02 2010.17L635.72 2035.17L592.41 2010.17L592.41 1960.17zM679.02 2310.17L722.32 2335.17L722.32 2385.17L679.02 2410.17L635.72 2385.17L635.72 2335.17zM635.72 2385.17L679.02 2410.17L679.02 2460.17L635.72 2485.17L592.41 2460.17L592.41 2410.17zM679.02 2460.17L722.32 2485.17L722.32 2535.17L679.02 2560.17L635.72 2535.17L635.72 2485.17zM635.72 2535.17L679.02 2560.17L679.02 2610.17L635.72 2635.17L592.41 2610.17L592.41 2560.17zM765.62 60.17L808.93 85.17L808.93 135.17L765.62 160.17L722.32 135.17L722.32 85.17zM722.32 135.17L765.62 160.17L765.62 210.17L722.32 235.17L679.02 210.17L679.02 160.17zM765.62 510.17L808.93 535.17L808.93 585.17L765.62 610.17L722.32 585.17L722.32 535.17zM722.32 585.17L765.62 610.17L765.62 660.17L722.32 685.17L679.02 660.17L679.02 610.17zM722.32 1185.17L765.62 1210.17L765.62 1260.17L722.32 1285.17L679.02 1260.17L679.02 1210.17zM722.32 1485.17L765.62 1510.17L765.62 1560.17L722.32 1585.17L679.02 1560.17L679.02 1510.17zM722.32 1785.17L765.62 1810.17L765.62 1860.17L722.32 1885.17L679.02 1860.17L679.02 1810.17zM765.62 1860.17L808.93 1885.17L808.93 1935.17L765.62 1960.17L722.32 1935.17L722.32 1885.17zM722.32 1935.17L765.62 1960.17L765.62 2010.17L722.32 2035.17L679.02 2010.17L679.02 1960.17zM765.62 2310.17L808.93 2335.17L808.93 2385.17L765.62 2410.17L722.32 2385.17L722.32 2335.17zM852.23 360.17L895.53 385.17L895.53 435.17L852.23 460.17L808.93 435.17L808.93 385.17zM808.93 435.17L852.23 460.17L852.23 510.17L808.93 535.17L765.62 510.17L765.62 460.17zM852.23 810.17L895.53 835.17L895.53 885.17L852.23 910.17L808.93 885.17L808.93 835.17zM808.93 885.17L852.23 910.17L852.23 960.17L808.93 985.17L765.62 960.17L765.62 910.17zM808.93 1335.17L852.23 1360.17L852.23 1410.17L808.93 1435.17L765.62 1410.17L765.62 1360.17zM808.93 1635.17L852.23 1660.17L852.23 1710.17L808.93 1735.17L765.62 1710.17L765.62 1660.17zM852.23 2310.17L895.53 2335.17L895.53 2385.17L852.23 2410.17L808.93 2385.17L808.93 2335.17zM852.23 2460.17L895.53 2485.17L895.53 2535.17L852.23 2560.17L808.93 2535.17L808.93 2485.17zM895.53 -14.83L938.83 10.17L938.83 60.17L895.53 85.17L852.23 60.17L852.23 10.17zM938.83 60.17L982.14 85.17L982.14 135.17L938.83 160.17L895.53 135.17L895.53 85.17zM895.53 435.17L938.83 460.17L938.83 510.17L895.53 535.17L852.23 510.17L852.23 460.17zM938.83 510.17L982.14 535.17L982.14 585.17L938.83 610.17L895.53 585.17L895.53 535.17zM895.53 1185.17L938.83 1210.17L938.83 1260.17L895.53 1285.17L852.23 1260.17L852.23 1210.17zM895.53 1485.17L938.83 1510.17L938.83 1560.17L895.53 1585.17L852.23 1560.17L852.23 1510.17zM895.53 1635.17L938.83 1660.17L938.83 1710.17L895.53 1735.17L852.23 1710.17L852.23 1660.17zM895.53 2235.17L938.83 2260.17L938.83 2310.17L895.53 2335.17L852.23 2310.17L852.23 2260.17zM938.83 2310.17L982.14 2335.17L982.14 2385.17L938.83 2410.17L895.53 2385.17L895.53 2335.17zM938.83 2460.17L982.14 2485.17L982.14 2535.17L938.83 2560.17L895.53 2535.17L895.53 2485.17zM895.53 2535.17L938.83 2560.17L938.83 2610.17L895.53 2635.17L852.23 2610.17L852.23 2560.17zM895.53 2685.17L938.83 2710.17L938.83 2760.17L895.53 2785.17L852.23 2760.17L852.23 2710.17zM938.83 2760.17L982.14 2785.17L982.14 2835.17L938.83 2860.17L895.53 2835.17L895.53 2785.17zM982.14 -14.83L1025.44 10.17L1025.44 60.17L982.14 85.17L938.83 60.17L938.83 10.17zM1025.44 360.17L1068.74 385.17L1068.74 435.17L1025.44 460.17L982.14 435.17L982.14 385.17zM1025.44 660.17L1068.74 685.17L1068.74 735.17L1025.44 760.17L982.14 735.17L982.14 685.17zM982.14 1785.17L1025.44 1810.17L1025.44 1860.17L982.14 1885.17L938.83 1860.17L938.83 1810.17zM1025.44 2310.17L1068.74 2335.17L1068.74 2385.17L1025.44 2410.17L982.14 2385.17L982.14 2335.17zM982.14 2385.17L1025.44 2410.17L1025.44 2460.17L982.14 2485.17L938.83 2460.17L938.83 2410.17zM1025.44 2760.17L1068.74 2785.17L1068.74 2835.17L1025.44 2860.17L982.14 2835.17L982.14 2785.17zM1068.74 -14.83L1112.04 10.17L1112.04 60.17L1068.74 85.17L1025.44 60.17L1025.44 10.17zM1068.74 285.17L1112.04 310.17L1112.04 360.17L1068.74 385.17L1025.44 360.17L1025.44 310.17zM1112.04 660.17L1155.35 685.17L1155.35 735.17L1112.04 760.17L1068.74 735.17L1068.74 685.17zM1112.04 810.17L1155.35 835.17L1155.35 885.17L1112.04 910.17L1068.74 885.17L1068.74 835.17zM1112.04 2010.17L1155.35 2035.17L1155.35 2085.17L1112.04 2110.17L1068.74 2085.17L1068.74 2035.17zM1068.74 2235.17L1112.04 2260.17L1112.04 2310.17L1068.74 2335.17L1025.44 2310.17L1025.44 2260.17zM1112.04 2310.17L1155.35 2335.17L1155.35 2385.17L1112.04 2410.17L1068.74 2385.17L1068.74 2335.17zM1068.74 2685.17L1112.04 2710.17L1112.04 2760.17L1068.74 2785.17L1025.44 2760.17L1025.44 2710.17zM1198.65 60.17L1241.95 85.17L1241.95 135.17L1198.65 160.17L1155.35 135.17L1155.35 85.17zM1155.35 135.17L1198.65 160.17L1198.65 210.17L1155.35 235.17L1112.04 210.17L1112.04 160.17zM1155.35 285.17L1198.65 310.17L1198.65 360.17L1155.35 385.17L1112.04 360.17L1112.04 310.17zM1155.35 435.17L1198.65 460.17L1198.65 510.17L1155.35 535.17L1112.04 510.17L1112.04 460.17zM1198.65 1410.17L1241.95 1435.17L1241.95 1485.17L1198.65 1510.17L1155.35 1485.17L1155.35 1435.17zM1155.35 1635.17L1198.65 1660.17L1198.65 1710.17L1155.35 1735.17L1112.04 1710.17L1112.04 1660.17zM1198.65 1860.17L1241.95 1885.17L1241.95 1935.17L1198.65 1960.17L1155.35 1935.17L1155.35 1885.17zM1198.65 2310.17L1241.95 2335.17L1241.95 2385.17L1198.65 2410.17L1155.35 2385.17L1155.35 2335.17zM1155.35 2385.17L1198.65 2410.17L1198.65 2460.17L1155.35 2485.17L1112.04 2460.17L1112.04 2410.17zM1198.65 2460.17L1241.95 2485.17L1241.95 2535.17L1198.65 2560.17L1155.35 2535.17L1155.35 2485.17zM1155.35 2535.17L1198.65 2560.17L1198.65 2610.17L1155.35 2635.17L1112.04 2610.17L1112.04 2560.17zM1155.35 2685.17L1198.65 2710.17L1198.65 2760.17L1155.35 2785.17L1112.04 2760.17L1112.04 2710.17zM1285.25 210.17L1328.56 235.17L1328.56 285.17L1285.25 310.17L1241.95 285.17L1241.95 235.17zM1285.25 660.17L1328.56 685.17L1328.56 735.17L1285.25 760.17L1241.95 735.17L1241.95 685.17zM1285.25 810.17L1328.56 835.17L1328.56 885.17L1285.25 910.17L1241.95 885.17L1241.95 835.17zM1241.95 885.17L1285.25 910.17L1285.25 960.17L1241.95 985.17L1198.65 960.17L1198.65 910.17zM1285.25 960.17L1328.56 985.17L1328.56 1035.17L1285.25 1060.17L1241.95 1035.17L1241.95 985.17zM1285.25 1860.17L1328.56 1885.17L1328.56 1935.17L1285.25 1960.17L1241.95 1935.17L1241.95 1885.17zM1241.95 2235.17L1285.25 2260.17L1285.25 2310.17L1241.95 2335.17L1198.65 2310.17L1198.65 2260.17zM1241.95 2385.17L1285.25 2410.17L1285.25 2460.17L1241.95 2485.17L1198.65 2460.17L1198.65 2410.17zM1241.95 2535.17L1285.25 2560.17L1285.25 2610.17L1241.95 2635.17L1198.65 2610.17L1198.65 2560.17zM1328.56 -14.83L1371.86 10.17L1371.86 60.17L1328.56 85.17L1285.25 60.17L1285.25 10.17zM1328.56 285.17L1371.86 310.17L1371.86 360.17L1328.56 385.17L1285.25 360.17L1285.25 310.17zM1371.86 510.17L1415.16 535.17L1415.16 585.17L1371.86 610.17L1328.56 585.17L1328.56 535.17zM1328.56 735.17L1371.86 760.17L1371.86 810.17L1328.56 835.17L1285.25 810.17L1285.25 760.17zM1328.56 885.17L1371.86 910.17L1371.86 960.17L1328.56 985.17L1285.25 960.17L1285.25 910.17zM1328.56 1035.17L1371.86 1060.17L1371.86 1110.17L1328.56 1135.17L1285.25 1110.17L1285.25 1060.17zM1371.86 1110.17L1415.16 1135.17L1415.16 1185.17L1371.86 1210.17L1328.56 1185.17L1328.56 1135.17zM1328.56 1485.17L1371.86 1510.17L1371.86 1560.17L1328.56 1585.17L1285.25 1560.17L1285.25 1510.17zM1328.56 1635.17L1371.86 1660.17L1371.86 1710.17L1328.56 1735.17L1285.25 1710.17L1285.25 1660.17zM1371.86 1860.17L1415.16 1885.17L1415.16 1935.17L1371.86 1960.17L1328.56 1935.17L1328.56 1885.17zM1371.86 2160.17L1415.16 2185.17L1415.16 2235.17L1371.86 2260.17L1328.56 2235.17L1328.56 2185.17zM1328.56 2535.17L1371.86 2560.17L1371.86 2610.17L1328.56 2635.17L1285.25 2610.17L1285.25 2560.17zM1371.86 2610.17L1415.16 2635.17L1415.16 2685.17L1371.86 2710.17L1328.56 2685.17L1328.56 2635.17zM1371.86 2760.17L1415.16 2785.17L1415.16 2835.17L1371.86 2860.17L1328.56 2835.17L1328.56 2785.17zM1458.46 60.17L1501.77 85.17L1501.77 135.17L1458.46 160.17L1415.16 135.17L1415.16 85.17zM1415.16 285.17L1458.46 310.17L1458.46 360.17L1415.16 385.17L1371.86 360.17L1371.86 310.17zM1415.16 585.17L1458.46 610.17L1458.46 660.17L1415.16 685.17L1371.86 660.17L1371.86 610.17zM1458.46 1260.17L1501.77 1285.17L1501.77 1335.17L1458.46 1360.17L1415.16 1335.17L1415.16 1285.17zM1458.46 2610.17L1501.77 2635.17L1501.77 2685.17L1458.46 2710.17L1415.16 2685.17L1415.16 2635.17zM1501.77 -14.83L1545.07 10.17L1545.07 60.17L1501.77 85.17L1458.46 60.17L1458.46 10.17zM1545.07 210.17L1588.37 235.17L1588.37 285.17L1545.07 310.17L1501.77 285.17L1501.77 235.17zM1501.77 585.17L1545.07 610.17L1545.07 660.17L1501.77 685.17L1458.46 660.17L1458.46 610.17zM1501.77 735.17L1545.07 760.17L1545.07 810.17L1501.77 835.17L1458.46 810.17L1458.46 760.17zM1545.07 810.17L1588.37 835.17L1588.37 885.17L1545.07 910.17L1501.77 885.17L1501.77 835.17zM1545.07 2010.17L1588.37 2035.17L1588.37 2085.17L1545.07 2110.17L1501.77 2085.17L1501.77 2035.17zM1545.07 2310.17L1588.37 2335.17L1588.37 2385.17L1545.07 2410.17L1501.77 2385.17L1501.77 2335.17zM1501.77 2385.17L1545.07 2410.17L1545.07 2460.17L1501.77 2485.17L1458.46 2460.17L1458.46 2410.17zM1545.07 2610.17L1588.37 2635.17L1588.37 2685.17L1545.07 2710.17L1501.77 2685.17L1501.77 2635.17zM1588.37 285.17L1631.67 310.17L1631.67 360.17L1588.37 385.17L1545.07 360.17L1545.07 310.17zM1631.67 360.17L1674.98 385.17L1674.98 435.17L1631.67 460.17L1588.37 435.17L1588.37 385.17zM1631.67 660.17L1674.98 685.17L1674.98 735.17L1631.67 760.17L1588.37 735.17L1588.37 685.17zM1588.37 885.17L1631.67 910.17L1631.67 960.17L1588.37 985.17L1545.07 960.17L1545.07 910.17zM1631.67 1110.17L1674.98 1135.17L1674.98 1185.17L1631.67 1210.17L1588.37 1185.17L1588.37 1135.17zM1588.37 1185.17L1631.67 1210.17L1631.67 1260.17L1588.37 1285.17L1545.07 1260.17L1545.07 1210.17zM1631.67 1260.17L1674.98 1285.17L1674.98 1335.17L1631.67 1360.17L1588.37 1335.17L1588.37 1285.17zM1631.67 1860.17L1674.98 1885.17L1674.98 1935.17L1631.67 1960.17L1588.37 1935.17L1588.37 1885.17zM1588.37 2085.17L1631.67 2110.17L1631.67 2160.17L1588.37 2185.17L1545.07 2160.17L1545.07 2110.17zM1631.67 2160.17L1674.98 2185.17L1674.98 2235.17L1631.67 2260.17L1588.37 2235.17L1588.37 2185.17zM1588.37 2235.17L1631.67 2260.17L1631.67 2310.17L1588.37 2335.17L1545.07 2310.17L1545.07 2260.17zM1588.37 2385.17L1631.67 2410.17L1631.67 2460.17L1588.37 2485.17L1545.07 2460.17L1545.07 2410.17zM1631.67 2610.17L1674.98 2635.17L1674.98 2685.17L1631.67 2710.17L1588.37 2685.17L1588.37 2635.17zM1631.67 2760.17L1674.98 2785.17L1674.98 2835.17L1631.67 2860.17L1588.37 2835.17L1588.37 2785.17zM1718.28 60.17L1761.58 85.17L1761.58 135.17L1718.28 160.17L1674.98 135.17L1674.98 85.17zM1674.98 135.17L1718.28 160.17L1718.28 210.17L1674.98 235.17L1631.67 210.17L1631.67 160.17zM1674.98 435.17L1718.28 460.17L1718.28 510.17L1674.98 535.17L1631.67 510.17L1631.67 460.17zM1718.28 810.17L1761.58 835.17L1761.58 885.17L1718.28 910.17L1674.98 885.17L1674.98 835.17zM1674.98 1035.17L1718.28 1060.17L1718.28 1110.17L1674.98 1135.17L1631.67 1110.17L1631.67 1060.17zM1674.98 2085.17L1718.28 2110.17L1718.28 2160.17L1674.98 2185.17L1631.67 2160.17L1631.67 2110.17zM1718.28 2160.17L1761.58 2185.17L1761.58 2235.17L1718.28 2260.17L1674.98 2235.17L1674.98 2185.17zM1718.28 2610.17L1761.58 2635.17L1761.58 2685.17L1718.28 2710.17L1674.98 2685.17L1674.98 2635.17zM1761.58 -14.83L1804.88 10.17L1804.88 60.17L1761.58 85.17L1718.28 60.17L1718.28 10.17zM1804.88 210.17L1848.19 235.17L1848.19 285.17L1804.88 310.17L1761.58 285.17L1761.58 235.17zM1804.88 960.17L1848.19 985.17L1848.19 1035.17L1804.88 1060.17L1761.58 1035.17L1761.58 985.17zM1804.88 1110.17L1848.19 1135.17L1848.19 1185.17L1804.88 1210.17L1761.58 1185.17L1761.58 1135.17zM1761.58 1185.17L1804.88 1210.17L1804.88 1260.17L1761.58 1285.17L1718.28 1260.17L1718.28 1210.17zM1761.58 1635.17L1804.88 1660.17L1804.88 1710.17L1761.58 1735.17L1718.28 1710.17L1718.28 1660.17zM1761.58 1935.17L1804.88 1960.17L1804.88 2010.17L1761.58 2035.17L1718.28 2010.17L1718.28 1960.17zM1761.58 2085.17L1804.88 2110.17L1804.88 2160.17L1761.58 2185.17L1718.28 2160.17L1718.28 2110.17zM1761.58 2235.17L1804.88 2260.17L1804.88 2310.17L1761.58 2335.17L1718.28 2310.17L1718.28 2260.17zM1804.88 2310.17L1848.19 2335.17L1848.19 2385.17L1804.88 2410.17L1761.58 2385.17L1761.58 2335.17zM1761.58 2535.17L1804.88 2560.17L1804.88 2610.17L1761.58 2635.17L1718.28 2610.17L1718.28 2560.17zM1891.49 60.17L1934.79 85.17L1934.79 135.17L1891.49 160.17L1848.19 135.17L1848.19 85.17zM1891.49 210.17L1934.79 235.17L1934.79 285.17L1891.49 310.17L1848.19 285.17L1848.19 235.17zM1848.19 285.17L1891.49 310.17L1891.49 360.17L1848.19 385.17L1804.88 360.17L1804.88 310.17zM1848.19 435.17L1891.49 460.17L1891.49 510.17L1848.19 535.17L1804.88 510.17L1804.88 460.17zM1891.49 510.17L1934.79 535.17L1934.79 585.17L1891.49 610.17L1848.19 585.17L1848.19 535.17zM1891.49 810.17L1934.79 835.17L1934.79 885.17L1891.49 910.17L1848.19 885.17L1848.19 835.17zM1848.19 1035.17L1891.49 1060.17L1891.49 1110.17L1848.19 1135.17L1804.88 1110.17L1804.88 1060.17zM1848.19 1335.17L1891.49 1360.17L1891.49 1410.17L1848.19 1435.17L1804.88 1410.17L1804.88 1360.17zM1891.49 2160.17L1934.79 2185.17L1934.79 2235.17L1891.49 2260.17L1848.19 2235.17L1848.19 2185.17zM1848.19 2235.17L1891.49 2260.17L1891.49 2310.17L1848.19 2335.17L1804.88 2310.17L1804.88 2260.17zM1891.49 2610.17L1934.79 2635.17L1934.79 2685.17L1891.49 2710.17L1848.19 2685.17L1848.19 2635.17zM1934.79 135.17L1978.09 160.17L1978.09 210.17L1934.79 235.17L1891.49 210.17L1891.49 160.17zM1978.09 210.17L2021.4 235.17L2021.4 285.17L1978.09 310.17L1934.79 285.17L1934.79 235.17zM1934.79 285.17L1978.09 310.17L1978.09 360.17L1934.79 385.17L1891.49 360.17L1891.49 310.17zM1978.09 360.17L2021.4 385.17L2021.4 435.17L1978.09 460.17L1934.79 435.17L1934.79 385.17zM1978.09 960.17L2021.4 985.17L2021.4 1035.17L1978.09 1060.17L1934.79 1035.17L1934.79 985.17zM1978.09 1110.17L2021.4 1135.17L2021.4 1185.17L1978.09 1210.17L1934.79 1185.17L1934.79 1135.17zM1978.09 1260.17L2021.4 1285.17L2021.4 1335.17L1978.09 1360.17L1934.79 1335.17L1934.79 1285.17zM1934.79 1485.17L1978.09 1510.17L1978.09 1560.17L1934.79 1585.17L1891.49 1560.17L1891.49 1510.17zM1978.09 1860.17L2021.4 1885.17L2021.4 1935.17L1978.09 1960.17L1934.79 1935.17L1934.79 1885.17zM1934.79 1935.17L1978.09 1960.17L1978.09 2010.17L1934.79 2035.17L1891.49 2010.17L1891.49 1960.17zM1934.79 2235.17L1978.09 2260.17L1978.09 2310.17L1934.79 2335.17L1891.49 2310.17L1891.49 2260.17zM1978.09 2310.17L2021.4 2335.17L2021.4 2385.17L1978.09 2410.17L1934.79 2385.17L1934.79 2335.17zM1934.79 2685.17L1978.09 2710.17L1978.09 2760.17L1934.79 2785.17L1891.49 2760.17L1891.49 2710.17zM2021.4 285.17L2064.7 310.17L2064.7 360.17L2021.4 385.17L1978.09 360.17L1978.09 310.17zM2064.7 360.17L2108 385.17L2108 435.17L2064.7 460.17L2021.4 435.17L2021.4 385.17zM2064.7 510.17L2108 535.17L2108 585.17L2064.7 610.17L2021.4 585.17L2021.4 535.17zM2021.4 735.17L2064.7 760.17L2064.7 810.17L2021.4 835.17L1978.09 810.17L1978.09 760.17zM2064.7 810.17L2108 835.17L2108 885.17L2064.7 910.17L2021.4 885.17L2021.4 835.17zM2064.7 1110.17L2108 1135.17L2108 1185.17L2064.7 1210.17L2021.4 1185.17L2021.4 1135.17zM2021.4 1485.17L2064.7 1510.17L2064.7 1560.17L2021.4 1585.17L1978.09 1560.17L1978.09 1510.17zM2064.7 1710.17L2108 1735.17L2108 1785.17L2064.7 1810.17L2021.4 1785.17L2021.4 1735.17zM2064.7 1860.17L2108 1885.17L2108 1935.17L2064.7 1960.17L2021.4 1935.17L2021.4 1885.17zM2064.7 2310.17L2108 2335.17L2108 2385.17L2064.7 2410.17L2021.4 2385.17L2021.4 2335.17zM2021.4 2385.17L2064.7 2410.17L2064.7 2460.17L2021.4 2485.17L1978.09 2460.17L1978.09 2410.17zM2021.4 2685.17L2064.7 2710.17L2064.7 2760.17L2021.4 2785.17L1978.09 2760.17L1978.09 2710.17zM2064.7 2760.17L2108 2785.17L2108 2835.17L2064.7 2860.17L2021.4 2835.17L2021.4 2785.17z" stroke="rgba(230, 230, 230, 0.15)" stroke-width="2"></path></g><defs><mask id="SvgjsMask1013"><rect width="2000" height="2800" fill="#ffffff"></rect></mask></defs></svg>