<?xml version="1.0" encoding="UTF-8"?>
<svg xmlns="http://www.w3.org/2000/svg" xmlns:xlink="http://www.w3.org/1999/xlink" viewBox="0 0 1920 1080">
  <defs>
    <style>
      .cls-1 {
        filter: url(#drop-shadow-11);
      }

      .cls-1, .cls-2, .cls-3, .cls-4, .cls-5, .cls-6, .cls-7, .cls-8 {
        fill: #0dd153;
      }

      .cls-2 {
        filter: url(#drop-shadow-17);
      }

      .cls-9 {
        filter: url(#drop-shadow-16);
      }

      .cls-10 {
        filter: url(#drop-shadow-14);
      }

      .cls-11 {
        fill: #fff;
        opacity: .45;
      }

      .cls-12 {
        fill: #a7e5bd;
      }

      .cls-13 {
        filter: url(#drop-shadow-10);
      }

      .cls-14 {
        fill: #faf1f1;
      }

      .cls-4 {
        filter: url(#drop-shadow-19);
      }

      .cls-5 {
        filter: url(#drop-shadow-15);
      }

      .cls-15 {
        filter: url(#drop-shadow-12);
      }

      .cls-6 {
        filter: url(#drop-shadow-13);
      }

      .cls-7 {
        filter: url(#drop-shadow-20);
      }

      .cls-8 {
        filter: url(#drop-shadow-18);
      }
    </style>
    <filter id="drop-shadow-10" x="530" y="147" width="264" height="810" filterUnits="userSpaceOnUse">
      <feOffset dx="-10" dy="10"/>
      <feGaussianBlur result="blur" stdDeviation="5"/>
      <feFlood flood-color="#000" flood-opacity=".55"/>
      <feComposite in2="blur" operator="in"/>
      <feComposite in="SourceGraphic"/>
    </filter>
    <filter id="drop-shadow-11" x="782" y="173" width="498" height="586" filterUnits="userSpaceOnUse">
      <feOffset dx="-5" dy="5"/>
      <feGaussianBlur result="blur-2" stdDeviation="5"/>
      <feFlood flood-color="#000" flood-opacity=".55"/>
      <feComposite in2="blur-2" operator="in"/>
      <feComposite in="SourceGraphic"/>
    </filter>
    <filter id="drop-shadow-12" x="916" y="307" width="235" height="330" filterUnits="userSpaceOnUse">
      <feOffset dx="-5" dy="5"/>
      <feGaussianBlur result="blur-3" stdDeviation="5"/>
      <feFlood flood-color="#000" flood-opacity=".55"/>
      <feComposite in2="blur-3" operator="in"/>
      <feComposite in="SourceGraphic"/>
    </filter>
    <filter id="drop-shadow-13" x="897" y="324" width="583" height="512" filterUnits="userSpaceOnUse">
      <feOffset dx="-5" dy="5"/>
      <feGaussianBlur result="blur-4" stdDeviation="5"/>
      <feFlood flood-color="#000" flood-opacity=".55"/>
      <feComposite in2="blur-4" operator="in"/>
      <feComposite in="SourceGraphic"/>
    </filter>
    <filter id="drop-shadow-14" x="1027" y="463" width="323" height="247" filterUnits="userSpaceOnUse">
      <feOffset dx="-5" dy="5"/>
      <feGaussianBlur result="blur-5" stdDeviation="5"/>
      <feFlood flood-color="#000" flood-opacity=".55"/>
      <feComposite in2="blur-5" operator="in"/>
      <feComposite in="SourceGraphic"/>
    </filter>
    <filter id="drop-shadow-15" x="970" y="596" width="568" height="343" filterUnits="userSpaceOnUse">
      <feOffset dx="-5" dy="5"/>
      <feGaussianBlur result="blur-6" stdDeviation="5"/>
      <feFlood flood-color="#000" flood-opacity=".55"/>
      <feComposite in2="blur-6" operator="in"/>
      <feComposite in="SourceGraphic"/>
    </filter>
    <filter id="drop-shadow-16" x="1067" y="665" width="369" height="208" filterUnits="userSpaceOnUse">
      <feOffset dx="-5" dy="5"/>
      <feGaussianBlur result="blur-7" stdDeviation="5"/>
      <feFlood flood-color="#000" flood-opacity=".55"/>
      <feComposite in2="blur-7" operator="in"/>
      <feComposite in="SourceGraphic"/>
    </filter>
    <filter id="drop-shadow-17" x="669" y="671" width="196" height="197" filterUnits="userSpaceOnUse">
      <feOffset dx="-5" dy="5"/>
      <feGaussianBlur result="blur-8" stdDeviation="5"/>
      <feFlood flood-color="#000" flood-opacity=".55"/>
      <feComposite in2="blur-8" operator="in"/>
      <feComposite in="SourceGraphic"/>
    </filter>
    <filter id="drop-shadow-18" x="837" y="647" width="197" height="197" filterUnits="userSpaceOnUse">
      <feOffset dx="-5" dy="5"/>
      <feGaussianBlur result="blur-9" stdDeviation="5"/>
      <feFlood flood-color="#000" flood-opacity=".55"/>
      <feComposite in2="blur-9" operator="in"/>
      <feComposite in="SourceGraphic"/>
    </filter>
    <filter id="drop-shadow-19" x="814" y="763" width="197" height="197" filterUnits="userSpaceOnUse">
      <feOffset dx="-5" dy="5"/>
      <feGaussianBlur result="blur-10" stdDeviation="5"/>
      <feFlood flood-color="#000" flood-opacity=".55"/>
      <feComposite in2="blur-10" operator="in"/>
      <feComposite in="SourceGraphic"/>
    </filter>
    <filter id="drop-shadow-20" x="897" y="719" width="197" height="197" filterUnits="userSpaceOnUse">
      <feOffset dx="-5" dy="5"/>
      <feGaussianBlur result="blur-11" stdDeviation="5"/>
      <feFlood flood-color="#000" flood-opacity=".55"/>
      <feComposite in2="blur-11" operator="in"/>
      <feComposite in="SourceGraphic"/>
    </filter>
  </defs>
  <g id="Layer_5" data-name="Layer 5">
    <path class="cls-14" d="M1472.32,414.91c-8.14-17.28-16.67-34.52-29.35-55.17-13.14-21.4-40.1-61.75-96.26-115.04-64.75-61.44-113.22-107.44-191.35-129.13-25.03-6.95-55.26-15.01-93.91-9.39-57.11,8.3-98.36,41.48-125.61,63.39-6.04,4.86-24.46,22.87-61.04,58.7-65.31,63.95-63.63,63.62-71.61,69.26-44.3,31.33-91.15,38.1-136.17,44.61-61.44,8.88-69.37-2.28-116.22,10.57-20.75,5.69-58.17,15.95-92.74,45.78-53.81,46.44-66.06,110.44-72.78,145.57-11.96,62.5-2.03,112.14,3.52,138.52,5.75,27.33,23.88,98.77,81,167.87,7.61,9.2,36.68,43.5,84.52,76.3,29.43,20.19,53.04,36.37,86.87,45.78,74.14,20.63,157.34-2.42,210.13-37.57,13.89-9.25,28.05-20.91,55.17-34.04,28.44-13.77,53.02-25.67,83.35-24.65,22.44.76,45.4,13.04,90.39,37.57,23.47,12.8,27.44,16.22,72.78,43.43,70.96,42.58,85.13,48.52,97.43,52.83,16.21,5.67,42.53,14.65,76.3,15.26,74.73,1.34,128.86-39.36,143.22-50.48,51.05-39.53,71.64-88.48,81-111.52,30.05-74,21.63-139.45,15.26-189-10.62-82.55-38.74-142.28-93.91-259.43v-.02h0Z"/>
  </g>
  <g id="Layer_2" data-name="Layer 2">
    <g class="cls-13">
      <path class="cls-3" d="M627.54,271.53h89.29v640.27c0,10.88-8.83,19.72-19.72,19.72h-49.86c-10.88,0-19.72-8.83-19.72-19.72V271.53h0Z"/>
      <path class="cls-3" d="M667.11,155.26l-110.56,191.5c-2.25,3.9.56,8.78,5.07,8.78h221.12c4.51,0,7.32-4.88,5.07-8.78l-110.56-191.5c-2.25-3.9-7.89-3.9-10.14,0Z"/>
    </g>
    <rect class="cls-1" x="783.05" y="342.69" width="506.18" height="236.84" transform="translate(99.48 1100.55) rotate(-58.31)"/>
    <rect class="cls-12" x="804.68" y="364.31" width="463.56" height="197.14" transform="translate(98.13 1101.66) rotate(-58.31)"/>
    <circle class="cls-3" cx="995.5" cy="702.93" r="25.98"/>
    <circle class="cls-3" cx="1234.11" cy="316.42" r="25.98"/>
    <circle class="cls-3" cx="838.17" cy="605.81" r="25.98"/>
    <circle class="cls-3" cx="1076.78" cy="219.3" r="25.98"/>
    <g class="cls-15">
      <circle class="cls-3" cx="1114.85" cy="343.77" r="25.98"/>
      <circle class="cls-3" cx="962.65" cy="590.3" r="25.98"/>
      <ellipse class="cls-3" cx="1036.46" cy="462.88" rx="59.28" ry="88.68" transform="translate(98.13 1101.66) rotate(-58.31)"/>
    </g>
    <rect class="cls-6" x="940.39" y="456.62" width="506.18" height="236.84" transform="translate(-116.63 771.73) rotate(-34.26)"/>
    <rect class="cls-12" x="961.27" y="478.21" width="463.56" height="197.14" transform="translate(-117.68 771.8) rotate(-34.26)"/>
    <circle class="cls-3" cx="1057.83" cy="779.31" r="25.98"/>
    <circle class="cls-3" cx="1433.23" cy="523.57" r="25.98"/>
    <circle class="cls-3" cx="953.73" cy="626.51" r="25.98"/>
    <circle class="cls-3" cx="1329.13" cy="370.77" r="25.98"/>
    <g class="cls-10">
      <circle class="cls-3" cx="1313.17" cy="499.95" r="25.98"/>
      <circle class="cls-3" cx="1073.73" cy="663.06" r="25.98"/>
      <ellipse class="cls-3" cx="1193.05" cy="576.78" rx="59.28" ry="88.68" transform="translate(-117.68 771.8) rotate(-34.26)"/>
    </g>
    <rect class="cls-5" x="1005.91" y="644.12" width="506.18" height="236.84" transform="translate(-102.41 202.97) rotate(-8.86)"/>
    <rect class="cls-12" x="1026.09" y="665.36" width="463.56" height="197.14" transform="translate(-102.63 202.81) rotate(-8.86)"/>
    <circle class="cls-3" cx="1048.83" cy="888.86" r="25.98"/>
    <circle class="cls-3" cx="1497.64" cy="818.91" r="25.98"/>
    <circle class="cls-3" cx="1020.35" cy="706.17" r="25.98"/>
    <circle class="cls-3" cx="1469.17" cy="636.22" r="25.98"/>
    <g class="cls-9">
      <circle class="cls-3" cx="1399.33" cy="746.06" r="25.98"/>
      <circle class="cls-3" cx="1113.06" cy="790.68" r="25.98"/>
      <ellipse class="cls-3" cx="1257.87" cy="763.93" rx="59.28" ry="88.68" transform="translate(-102.63 202.81) rotate(-8.86)"/>
    </g>
    <circle class="cls-12" cx="772.11" cy="764.74" r="73.37"/>
    <polygon class="cls-11" points="769.87 839.35 742.28 837.23 721.64 704.77 747.27 694.36 769.87 839.35"/>
    <polygon class="cls-11" points="798.62 834.39 782.47 839.66 759.31 691.09 776.02 689.4 798.62 834.39"/>
    <path class="cls-2" d="M759.27,682.36c-45.25,7.05-76.21,49.45-69.16,94.69,7.05,45.25,49.45,76.21,94.69,69.16,45.25-7.05,76.21-49.45,69.16-94.69-7.05-45.25-49.45-76.21-94.69-69.16ZM783.01,834.7c-38.64,6.02-74.84-20.42-80.86-59.06s20.42-74.84,59.06-80.86,74.84,20.42,80.86,59.06c6.02,38.64-20.42,74.84-59.06,80.86Z"/>
    <circle class="cls-12" cx="940.5" cy="741.36" r="73.37"/>
    <polygon class="cls-11" points="938.26 815.97 910.68 813.85 890.03 681.39 915.66 670.98 938.26 815.97"/>
    <polygon class="cls-11" points="967.01 811.01 950.86 816.28 927.7 667.71 944.42 666.02 967.01 811.01"/>
    <path class="cls-8" d="M927.66,658.98c-45.25,7.05-76.21,49.45-69.16,94.69,7.05,45.25,49.45,76.21,94.69,69.16,45.25-7.05,76.21-49.45,69.16-94.69-7.05-45.25-49.45-76.21-94.69-69.16ZM951.4,811.32c-38.64,6.02-74.84-20.42-80.86-59.06s20.42-74.84,59.06-80.86c38.64-6.02,74.84,20.42,80.86,59.06s-20.42,74.84-59.06,80.86Z"/>
    <circle class="cls-12" cx="917.38" cy="856.86" r="73.37"/>
    <polygon class="cls-11" points="915.14 931.46 887.55 929.35 866.91 796.88 892.54 786.47 915.14 931.46"/>
    <polygon class="cls-11" points="943.89 926.51 927.74 931.77 904.58 783.2 921.3 781.52 943.89 926.51"/>
    <path class="cls-4" d="M904.54,774.47c-45.25,7.05-76.21,49.45-69.16,94.69,7.05,45.25,49.45,76.21,94.69,69.16,45.25-7.05,76.21-49.45,69.16-94.69-7.05-45.25-49.45-76.21-94.69-69.16ZM928.28,926.82c-38.64,6.02-74.84-20.42-80.86-59.06-6.02-38.64,20.42-74.84,59.06-80.86s74.84,20.42,80.86,59.06-20.42,74.84-59.06,80.86Z"/>
    <circle class="cls-12" cx="1000.9" cy="813" r="73.37"/>
    <polygon class="cls-11" points="998.66 887.61 971.08 885.49 950.43 753.03 976.06 742.62 998.66 887.61"/>
    <polygon class="cls-11" points="1027.41 882.65 1011.26 887.92 988.11 739.35 1004.82 737.66 1027.41 882.65"/>
    <path class="cls-7" d="M988.06,730.61c-45.25,7.05-76.21,49.45-69.16,94.69,7.05,45.25,49.45,76.21,94.69,69.16,45.25-7.05,76.21-49.45,69.16-94.69-7.05-45.25-49.45-76.21-94.69-69.16ZM1011.8,882.96c-38.64,6.02-74.84-20.42-80.86-59.06-6.02-38.64,20.42-74.84,59.06-80.86,38.64-6.02,74.84,20.42,80.86,59.06,6.02,38.64-20.42,74.84-59.06,80.86Z"/>
  </g>
</svg>