<?xml version="1.0" encoding="UTF-8"?>
<svg xmlns="http://www.w3.org/2000/svg" xmlns:xlink="http://www.w3.org/1999/xlink" viewBox="0 0 1920 1080">
  <defs>
    <style>
      .cls-1 {
        filter: url(#drop-shadow-22);
      }

      .cls-2 {
        filter: url(#drop-shadow-21);
      }

      .cls-3 {
        fill: #0dc4d1;
      }

      .cls-4 {
        fill: #faf1f1;
      }

      .cls-5 {
        filter: url(#drop-shadow-24);
      }

      .cls-6 {
        filter: url(#drop-shadow-23);
      }

      .cls-7 {
        fill: #a3e0e5;
      }
    </style>
    <filter id="drop-shadow-21" x="638" y="52" width="586" height="970" filterUnits="userSpaceOnUse">
      <feOffset dx="-10" dy="10"/>
      <feGaussianBlur result="blur" stdDeviation="5"/>
      <feFlood flood-color="#000" flood-opacity=".55"/>
      <feComposite in2="blur" operator="in"/>
      <feComposite in="SourceGraphic"/>
    </filter>
    <filter id="drop-shadow-22" x="754" y="332" width="305" height="242" filterUnits="userSpaceOnUse">
      <feOffset dx="-10" dy="10"/>
      <feGaussianBlur result="blur-2" stdDeviation="5"/>
      <feFlood flood-color="#000" flood-opacity=".55"/>
      <feComposite in2="blur-2" operator="in"/>
      <feComposite in="SourceGraphic"/>
    </filter>
    <filter id="drop-shadow-23" x="810" y="143" width="301" height="244" filterUnits="userSpaceOnUse">
      <feOffset dx="-10" dy="10"/>
      <feGaussianBlur result="blur-3" stdDeviation="5"/>
      <feFlood flood-color="#000" flood-opacity=".55"/>
      <feComposite in2="blur-3" operator="in"/>
      <feComposite in="SourceGraphic"/>
    </filter>
    <filter id="drop-shadow-24" x="866" y="536" width="212" height="387" filterUnits="userSpaceOnUse">
      <feOffset dx="-5" dy="5"/>
      <feGaussianBlur result="blur-4" stdDeviation="5"/>
      <feFlood flood-color="#000" flood-opacity=".55"/>
      <feComposite in2="blur-4" operator="in"/>
      <feComposite in="SourceGraphic"/>
    </filter>
  </defs>
  <g id="Layer_5" data-name="Layer 5">
    <path class="cls-4" d="M1427.94,392.63c-8.14-17.28-16.67-34.52-29.35-55.17-13.14-21.4-40.1-61.75-96.26-115.04-64.75-61.44-113.22-107.44-191.35-129.13-25.03-6.95-55.26-15.01-93.91-9.39-57.11,8.3-98.36,41.48-125.61,63.39-6.04,4.86-24.46,22.87-61.04,58.7-65.31,63.95-63.63,63.62-71.61,69.26-44.3,31.33-91.15,38.1-136.17,44.61-61.44,8.88-69.37-2.28-116.22,10.57-20.75,5.69-58.17,15.95-92.74,45.78-53.81,46.44-66.06,110.44-72.78,145.57-11.96,62.5-2.03,112.14,3.52,138.52,5.75,27.33,23.88,98.77,81,167.87,7.61,9.2,36.68,43.5,84.52,76.3,29.43,20.19,53.04,36.37,86.87,45.78,74.14,20.63,157.34-2.42,210.13-37.57,13.89-9.25,28.05-20.91,55.17-34.04,28.44-13.77,53.02-25.67,83.35-24.65,22.44.76,45.4,13.04,90.39,37.57,23.47,12.8,27.44,16.22,72.78,43.43,70.96,42.58,85.13,48.52,97.43,52.83,16.21,5.67,42.53,14.65,76.3,15.26,74.73,1.34,128.86-39.36,143.22-50.48,51.05-39.53,71.64-88.48,81-111.52,30.05-74,21.63-139.45,15.26-189-10.62-82.55-38.74-142.28-93.91-259.43v-.02h0Z"/>
  </g>
  <g id="Layer_3" data-name="Layer 3">
    <g class="cls-2">
      <path class="cls-7" d="M934.12,352.62c-111.39,114.04-197.14,243.32-257.23,387.85-36.73,88.33,6.53,189.74,95.82,224.09,113.76,43.76,227.74,44.08,341.95-4.83,80.76-34.59,122.29-124.8,95.41-208.44-48.82-151.9-139.89-285.2-275.95-398.67Z"/>
      <path class="cls-7" d="M1007.46,66.35h-112.2c-4.17,0-7.35,3.71-6.75,7.83,18.35,125.37,17.59,248.22-1.17,368.69h128.22c-21.57-122.86-22.03-245.73-1.36-368.59.7-4.15-2.52-7.93-6.74-7.93Z"/>
      <path class="cls-7" d="M984.49,70.74h-66.42c-2.93,0-5.54-1.87-6.47-4.65h0c-1.49-4.42,1.8-9,6.47-9h66.42c4.49,0,7.76,4.26,6.59,8.6h0c-.8,2.98-3.5,5.05-6.59,5.05Z"/>
    </g>
    <g class="cls-1">
      <path class="cls-3" d="M829.91,399.47c2.52-5.36,4.17-9.18,7.21-16.22,8.28-19.15,7.09-18.08,9.35-22.02,3.66-6.38,10.82-18.87,24.49-22.77,2.36-.67,11.93-3.4,19.94,1.2,4.71,2.7,4.41,5.37,11.68,12.04,4.26,3.9,7.77,6.12,13.65,9.83,2.7,1.7,10.7,6.63,19.24,10.37,12.64,5.53,23.45,7.14,36.56,9,15.93,2.26,45.11,4.96,50.68,5.47,7.19.66,14.41,1.3,20.99,6.57,1.53,1.23,9.75,7.8,9.95,18.44.03,1.59,0,9.61-5.43,15-3.92,3.89-7.35,3.12-13.06,8.9-2.99,3.03-3.9,5.1-4.32,6.42-1.23,3.84.2,5.64-.11,8.77-.66,6.55-8.3,12.22-14.61,14.3-7.94,2.61-12.09-1.03-17.11,2.96-2.09,1.66-3.1,3.72-5.1,7.82-3.3,6.76-2.33,8.94-4.46,12.6-4.03,6.95-13.13,8.72-16.25,9.33-5.72,1.12-11.14-.1-21.75-2.57-8.85-2.07-9.14-2.88-18.19-5-10.61-2.48-16.04-3.7-21.75-2.57-6.03,1.19-10,4.03-15.47,7.93-12.96,9.25-13.84,16.18-20.17,16.35-4.72.12-8.63-4.05-16.27-12.39-7.64-8.36-8.19-10.98-14.13-18.19-10.49-12.73-15.69-12.96-27.78-28.02-5.99-7.46-8.18-11.72-7.74-16.46.39-4.27,2.59-5.4,7.64-13.03,3.5-5.29,6.44-11.54,12.32-24.04Z"/>
      <rect class="cls-7" x="808.41" y="410.35" width="56.77" height="140.12" rx="15.65" ry="15.65" transform="translate(-125.25 554.5) rotate(-34.26)"/>
      <circle class="cls-3" cx="863.9" cy="520.2" r="7.54"/>
    </g>
    <g class="cls-6">
      <path class="cls-3" d="M1059.63,294.27c-2.02,5.57-3.31,9.52-5.69,16.81-6.48,19.83-5.4,18.66-7.28,22.78-3.05,6.68-9.04,19.78-22.29,24.92-2.29.89-11.56,4.48-19.97.64-4.94-2.26-4.88-4.94-12.74-10.92-4.6-3.5-8.29-5.38-14.5-8.53-2.85-1.45-11.26-5.62-20.11-8.56-13.09-4.35-24.01-4.96-37.23-5.6-16.07-.78-45.37-.79-50.97-.79-7.22,0-14.46.03-21.51-4.61-1.64-1.08-10.42-6.87-11.6-17.44-.18-1.58-.89-9.57,4.03-15.44,3.55-4.23,7.03-3.78,12.19-10.06,2.7-3.29,3.41-5.44,3.71-6.79.87-3.93-.72-5.6-.69-8.74.06-6.59,7.14-12.93,13.23-15.58,7.67-3.33,12.14-.09,16.77-4.52,1.93-1.85,2.74-3.99,4.36-8.26,2.67-7.03,1.5-9.12,3.28-12.96,3.38-7.29,12.27-9.89,15.32-10.78,5.6-1.64,11.1-.93,21.89.56,9.01,1.24,9.37,2.03,18.57,3.31,10.8,1.5,16.31,2.21,21.89.56,5.89-1.74,9.59-4.93,14.67-9.32,12.06-10.41,12.29-17.38,18.58-18.13,4.69-.56,8.97,3.24,17.34,10.85,8.38,7.62,9.17,10.18,15.75,16.82,11.61,11.72,16.82,11.46,30.24,25.35,6.65,6.87,9.22,10.92,9.22,15.68,0,4.29-2.08,5.62-6.41,13.68-3,5.59-5.35,12.08-10.05,25.07Z"/>
      <rect class="cls-7" x="1016.95" y="144.24" width="56.77" height="140.12" rx="15.65" ry="15.65" transform="translate(1987.94 -285.84) rotate(140.46)"/>
      <circle class="cls-3" cx="1014.68" cy="177.17" r="7.54"/>
    </g>
    <g class="cls-5">
      <path class="cls-3" d="M951.69,583.84c12-3.72,22.97-5.11,32.92-4.17,9.95.94,19.63,3.91,29.05,8.91l-2.06,7.5c-.65,2.42-1.85,3.97-3.59,4.67-1.39.56-3.5.29-6.29-.82-2.8-1.1-6.38-2.2-10.72-3.29-4.35-1.09-9.54-1.68-15.57-1.76-6.03-.08-12.94,1.1-20.73,3.54l22.92,107.34c8.46-.42,16.85-.68,25.18-.77,8.32-.09,16.19.77,23.59,2.6,7.41,1.83,14.09,5.05,20.05,9.68,5.96,4.63,10.76,11.47,14.39,20.54,4.28,10.7,6.36,21.63,6.25,32.8-.12,11.17-2.36,21.91-6.73,32.22-4.37,10.31-10.85,19.82-19.44,28.51-8.59,8.7-19.22,15.92-31.89,21.66l8.41,39.72c.32,1.49.17,2.96-.45,4.43-.63,1.46-1.7,2.5-3.21,3.1l-6.1,2.44-9.63-45.3c-15.16,5.26-29.02,7.09-41.59,5.51-12.57-1.58-24.31-5.58-35.24-12l2.75-8.79c.98-2.28,2.39-3.79,4.25-4.53,1.05-.42,2.49-.25,4.34.49,1.85.75,4.14,1.68,6.89,2.81,2.74,1.13,5.95,2.31,9.61,3.54,3.66,1.23,7.79,2.11,12.38,2.63,4.59.53,9.65.52,15.17,0,5.52-.52,11.61-1.91,18.26-4.17l-25.36-119.51c-7.9.47-15.73.63-23.47.49-7.74-.14-15.04-1.27-21.88-3.38-6.85-2.12-13.04-5.54-18.57-10.27-5.53-4.73-10.07-11.51-13.6-20.35-3.63-9.07-5.36-18.52-5.18-28.37.17-9.84,2.27-19.35,6.29-28.51,4.02-9.16,10-17.65,17.92-25.48,7.93-7.82,17.81-14.3,29.64-19.44l-6.52-30.97c-.42-1.72-.3-3.28.35-4.69.65-1.41,1.73-2.41,3.24-3.02l6.1-2.44,7.88,36.9ZM943.88,602.75c-9.46,4.33-17.29,9.55-23.47,15.66-6.19,6.11-10.8,12.61-13.84,19.49-3.05,6.88-4.59,13.97-4.64,21.27-.05,7.3,1.28,14.32,3.98,21.06,2.51,6.28,5.8,11.2,9.85,14.77,4.06,3.57,8.72,6.22,14,7.95,5.28,1.73,10.96,2.79,17.05,3.19,6.09.39,12.46.48,19.11.24l-22.05-103.64ZM1005.83,838.49c10.11-4.72,18.55-10.52,25.3-17.4,6.75-6.88,11.83-14.34,15.22-22.37,3.39-8.03,5.1-16.4,5.12-25.11.02-8.71-1.64-17.25-4.99-25.62-2.7-6.74-6.28-11.91-10.76-15.52-4.48-3.6-9.57-6.22-15.28-7.85-5.71-1.63-11.92-2.48-18.62-2.56-6.71-.08-13.62.09-20.73.51l24.73,115.92Z"/>
    </g>
  </g>
</svg>