<?xml version="1.0" encoding="UTF-8"?>
<svg xmlns="http://www.w3.org/2000/svg" xmlns:xlink="http://www.w3.org/1999/xlink" viewBox="0 0 1920 1080">
  <defs>
    <style>
      .cls-1 {
        fill: #e6b0cf;
      }

      .cls-2 {
        fill: #d10d7f;
        filter: url(#drop-shadow-25);
      }

      .cls-3 {
        fill: #fff;
        opacity: .45;
      }

      .cls-4 {
        fill: #faf1f1;
      }

      .cls-5 {
        filter: url(#drop-shadow-26);
      }
    </style>
    <filter id="drop-shadow-25" x="470" y="169" width="892" height="798" filterUnits="userSpaceOnUse">
      <feOffset dx="-10" dy="10"/>
      <feGaussianBlur result="blur" stdDeviation="5"/>
      <feFlood flood-color="#000" flood-opacity=".55"/>
      <feComposite in2="blur" operator="in"/>
      <feComposite in="SourceGraphic"/>
    </filter>
    <filter id="drop-shadow-26" x="374" y="276" width="1061" height="486" filterUnits="userSpaceOnUse">
      <feOffset dx="-10" dy="6"/>
      <feGaussianBlur result="blur-2" stdDeviation="5"/>
      <feFlood flood-color="#000" flood-opacity=".55"/>
      <feComposite in2="blur-2" operator="in"/>
      <feComposite in="SourceGraphic"/>
    </filter>
  </defs>
  <g id="Layer_5" data-name="Layer 5">
    <path class="cls-4" d="M1412.74,392.63c-8.14-17.28-16.67-34.52-29.35-55.17-13.14-21.4-40.1-61.75-96.26-115.04-64.75-61.44-113.22-107.44-191.35-129.13-25.03-6.95-55.26-15.01-93.91-9.39-57.11,8.3-98.36,41.48-125.61,63.39-6.04,4.86-24.46,22.87-61.04,58.7-65.31,63.95-63.63,63.62-71.61,69.26-44.3,31.33-91.15,38.1-136.17,44.61-61.44,8.88-69.37-2.28-116.22,10.57-20.75,5.69-58.17,15.95-92.74,45.78-53.81,46.44-66.06,110.44-72.78,145.57-11.96,62.5-2.03,112.14,3.52,138.52,5.75,27.33,23.88,98.77,81,167.87,7.61,9.2,36.68,43.5,84.52,76.3,29.43,20.19,53.04,36.37,86.87,45.78,74.14,20.63,157.34-2.42,210.13-37.57,13.89-9.25,28.05-20.91,55.17-34.04,28.44-13.77,53.02-25.67,83.35-24.65,22.44.76,45.4,13.04,90.39,37.57,23.47,12.8,27.44,16.22,72.78,43.43,70.96,42.58,85.13,48.52,97.43,52.83,16.21,5.67,42.53,14.65,76.3,15.26,74.73,1.34,128.86-39.36,143.22-50.48,51.05-39.53,71.64-88.48,81-111.52,30.05-74,21.63-139.45,15.26-189-10.62-82.55-38.74-142.28-93.91-259.43v-.02h0Z"/>
  </g>
  <g id="Layer_4" data-name="Layer 4">
    <path class="cls-2" d="M887.88,941.43c-.71-.14-.71-2.05-1.08-4.6-.26-1.8-.88-5.06-5.67-15.26-6.11-13.01-12.89-24.49-12.89-24.49-7.5-12.7-13.84-22-15.43-24.33-13.31-19.44-25.2-33.66-32.45-42.28-18.04-21.47-33.72-37.23-42.3-45.58-5.1-4.96-16.77-16.16-32.72-29.66-11.66-9.87-20.81-16.91-48.37-37.39-38.61-28.69-38.24-27.93-53.61-39.61-28.51-21.66-42.77-32.49-57.77-46.44-20.88-19.41-40.01-37.21-56.97-65.88-4.07-6.88-23.51-40.59-30.53-89.82-6.18-43.34.39-76.86,4.84-98.6,7.57-36.94,19.73-63.35,24.53-73.22,5.73-11.79,14.97-30.52,32.23-51.66,7.63-9.35,21.44-26.02,44.48-42.03,26.41-18.35,50.62-25.89,60.04-28.53,13.55-3.79,35.86-8.46,63.4-6.94,5.2.29,25.14,1.59,49.84,9.32,9.7,3.03,23.28,7.37,39.14,16.8,12.98,7.71,21.34,15.18,34.05,26.51,8.59,7.67,17.35,15.49,27.47,27.44,11.26,13.3,17.91,24.3,27.23,39.71,5.57,9.2,11.66,17.57,15.76,29.41,4.41,12.76,4.61,14.24,5.67,18.69,1.34,5.64,3.86,11.54,5.67,11.82,2.32.37,5.15-6.45,6.53-9.6,5.36-12.19,14.42-22.4,21.43-33.72,11.16-18.03,26.12-30.59,41.72-43.69,11.68-9.81,29.62-24.66,56.35-36.76,46.7-21.15,88.55-19.58,99.74-18.91,38.99,2.32,66.81,15.17,74.39,18.84,6.04,2.93,24.21,12.13,43.93,29.46,6.01,5.28,23.52,21.3,39.65,47.18,22.45,36.04,28.7,69.52,34.16,98.77,2.83,15.18,6,32.61,6.09,56.11.06,16.17-.1,49.44-14.54,88.45-18.21,49.19-48.56,79-61.35,91.28-20.9,20.08-40.88,32.38-66.64,48.24-9.95,6.13-26.91,15.35-60.43,33.55-45.73,24.83-45.22,23.96-60.38,32.84-34.15,19.99-57.15,36.36-63.92,41.23-17.57,12.64-30.86,23.36-38.44,29.5-5.43,4.4-19.22,15.67-36.4,31.1-18.26,16.41-26.48,25.08-30.48,29.4-3.21,3.47-9.93,10.87-17.54,21.02-4.43,5.9-6.64,8.86-8.97,13.02-5.9,10.58-7.88,19.62-9.46,19.31Z"/>
    <ellipse class="cls-3" cx="1188.58" cy="322.4" rx="73.32" ry="101.7" transform="translate(391 1260.77) rotate(-64.81)"/>
    <ellipse class="cls-3" cx="1076.16" cy="393.79" rx="27.29" ry="37.85" transform="translate(261.82 1200.04) rotate(-64.81)"/>
    <g class="cls-5">
      <path class="cls-1" d="M1425.54,598.46l-357.33-54.16-53.05-131-77.43,111.22-125.98,176.06-38.78-201.03-38.06-214.46-98.67,193.73-231.81-35.13c-2.57-.39-4.97,1.38-5.36,3.95h0c-.39,2.57,1.38,4.97,3.95,5.36l241.73,36.64,85.07-170.98,38.06,214.46,34.47,207.14,130.29-182.17,77.43-111.22,44.59,104.9,369.46,55.99c2.57.39,4.97-1.38,5.36-3.95h0c.39-2.57-1.38-4.97-3.95-5.36Z"/>
    </g>
  </g>
</svg>