<svg xmlns="http://www.w3.org/2000/svg" xmlns:xlink="http://www.w3.org/1999/xlink" width="200" zoomAndPan="magnify" viewBox="0 0 150 225" height="300" preserveAspectRatio="xMidYMid meet" version="1.0"><defs><filter x="0%" y="0%" width="100%" height="100%" id="6c6dc71296"><feColorMatrix values="0 0 0 0 1 0 0 0 0 1 0 0 0 0 1 0 0 0 1 0" color-interpolation-filters="sRGB"/></filter><mask id="2d5e3d5b69"><g filter="url(#6c6dc71296)"><rect x="-15" width="180" fill="#000000" y="-22.5" height="270" fill-opacity="0.17"/></g></mask><clipPath id="a561c2195b"><path d="M 23 72 L 44 72 L 44 92.484375 L 23 92.484375 Z M 23 72 " clip-rule="nonzero"/></clipPath><clipPath id="038a20d9fe"><path d="M 30 0.0390625 L 57.488281 0.0390625 L 57.488281 29 L 30 29 Z M 30 0.0390625 " clip-rule="nonzero"/></clipPath><clipPath id="ae8b4afa72"><path d="M 0.359375 30 L 32 30 L 32 62 L 0.359375 62 Z M 0.359375 30 " clip-rule="nonzero"/></clipPath><clipPath id="e4d107071c"><rect x="0" width="58" y="0" height="93"/></clipPath><mask id="ae6595db82"><g filter="url(#6c6dc71296)"><rect x="-15" width="180" fill="#000000" y="-22.5" height="270" fill-opacity="0.1"/></g></mask><clipPath id="95e78506ef"><path d="M 0.132812 0.5 L 111.882812 0.5 L 111.882812 112.25 L 0.132812 112.25 Z M 0.132812 0.5 " clip-rule="nonzero"/></clipPath><clipPath id="f61db21c0a"><rect x="0" width="113" y="0" height="113"/></clipPath><mask id="bccee24087"><g filter="url(#6c6dc71296)"><rect x="-15" width="180" fill="#000000" y="-22.5" height="270" fill-opacity="0.1"/></g></mask><clipPath id="1d7d189a6d"><path d="M 0.417969 0.644531 L 112.167969 0.644531 L 112.167969 112.394531 L 0.417969 112.394531 Z M 0.417969 0.644531 " clip-rule="nonzero"/></clipPath><clipPath id="95896bf7d4"><rect x="0" width="113" y="0" height="113"/></clipPath><mask id="d7c51cf06a"><g filter="url(#6c6dc71296)"><rect x="-15" width="180" fill="#000000" y="-22.5" height="270" fill-opacity="0.1"/></g></mask><clipPath id="1af2c2f59a"><path d="M 0.796875 1.070312 L 22.546875 1.070312 L 22.546875 22.820312 L 0.796875 22.820312 Z M 0.796875 1.070312 " clip-rule="nonzero"/></clipPath><clipPath id="985f63c1da"><rect x="0" width="24" y="0" height="24"/></clipPath></defs><g mask="url(#2d5e3d5b69)"><g transform="matrix(1, 0, 0, 1, 9, 5)"><g clip-path="url(#e4d107071c)"><g clip-path="url(#a561c2195b)"><path fill="#ffffff" d="M 33.660156 72.023438 C 39.316406 72.023438 43.890625 76.601562 43.890625 82.253906 C 43.890625 87.902344 39.316406 92.484375 33.660156 92.484375 C 28.015625 92.484375 23.433594 87.902344 23.433594 82.253906 C 23.433594 76.601562 28.015625 72.023438 33.660156 72.023438 " fill-opacity="1" fill-rule="nonzero"/></g><g clip-path="url(#038a20d9fe)"><path fill="#ffffff" d="M 43.890625 0.726562 C 51.511719 0.726562 57.683594 6.898438 57.683594 14.511719 C 57.683594 22.132812 51.511719 28.304688 43.890625 28.304688 C 36.277344 28.304688 30.105469 22.132812 30.105469 14.511719 C 30.105469 6.898438 36.277344 0.726562 43.890625 0.726562 " fill-opacity="1" fill-rule="nonzero"/></g><g clip-path="url(#ae8b4afa72)"><path fill="#ffffff" d="M 16.3125 33.9375 C 23.078125 34.167969 28.191406 39.277344 28.417969 46.042969 C 28.640625 52.808594 22.734375 57.9375 16.3125 58.152344 C 9.546875 58.382812 4.421875 52.46875 4.207031 46.042969 C 3.976562 39.28125 9.882812 34.15625 16.3125 33.9375 C 18.472656 33.867188 18.488281 30.496094 16.3125 30.566406 C 7.679688 30.859375 1.125 37.410156 0.835938 46.042969 C 0.546875 54.675781 8.113281 61.246094 16.3125 61.519531 C 24.941406 61.8125 31.511719 54.242188 31.789062 46.042969 C 32.078125 37.417969 24.511719 30.847656 16.3125 30.566406 C 14.140625 30.496094 14.140625 33.867188 16.3125 33.9375 " fill-opacity="1" fill-rule="nonzero"/></g></g></g></g><g mask="url(#ae6595db82)"><g transform="matrix(1, 0, 0, 1, 5, 112)"><g clip-path="url(#f61db21c0a)"><g clip-path="url(#95e78506ef)"><path fill="#ffffff" d="M 111.882812 56.375 C 111.882812 58.203125 111.792969 60.03125 111.613281 61.851562 C 111.433594 63.671875 111.167969 65.480469 110.808594 67.277344 C 110.453125 69.070312 110.007812 70.84375 109.476562 72.59375 C 108.945312 74.347656 108.328125 76.066406 107.628906 77.757812 C 106.929688 79.449219 106.148438 81.101562 105.285156 82.714844 C 104.421875 84.328125 103.484375 85.894531 102.464844 87.417969 C 101.449219 88.9375 100.359375 90.40625 99.199219 91.820312 C 98.039062 93.234375 96.8125 94.589844 95.515625 95.882812 C 94.222656 97.179688 92.867188 98.40625 91.453125 99.566406 C 90.039062 100.726562 88.570312 101.816406 87.050781 102.832031 C 85.527344 103.851562 83.960938 104.789062 82.347656 105.652344 C 80.734375 106.515625 79.082031 107.296875 77.390625 107.996094 C 75.699219 108.695312 73.980469 109.3125 72.226562 109.84375 C 70.476562 110.375 68.703125 110.820312 66.910156 111.175781 C 65.113281 111.535156 63.304688 111.800781 61.484375 111.980469 C 59.664062 112.160156 57.835938 112.25 56.007812 112.25 C 54.179688 112.25 52.351562 112.160156 50.53125 111.980469 C 48.710938 111.800781 46.902344 111.535156 45.105469 111.175781 C 43.3125 110.820312 41.539062 110.375 39.789062 109.84375 C 38.035156 109.3125 36.316406 108.695312 34.625 107.996094 C 32.933594 107.296875 31.28125 106.515625 29.667969 105.652344 C 28.054688 104.789062 26.488281 103.851562 24.964844 102.832031 C 23.445312 101.816406 21.976562 100.726562 20.5625 99.566406 C 19.144531 98.40625 17.792969 97.179688 16.5 95.882812 C 15.203125 94.589844 13.976562 93.234375 12.816406 91.820312 C 11.65625 90.40625 10.566406 88.9375 9.550781 87.417969 C 8.53125 85.894531 7.59375 84.328125 6.730469 82.714844 C 5.867188 81.101562 5.085938 79.449219 4.386719 77.757812 C 3.6875 76.066406 3.070312 74.347656 2.539062 72.59375 C 2.007812 70.84375 1.5625 69.070312 1.207031 67.277344 C 0.847656 65.480469 0.582031 63.671875 0.402344 61.851562 C 0.222656 60.03125 0.132812 58.203125 0.132812 56.375 C 0.132812 54.546875 0.222656 52.71875 0.402344 50.898438 C 0.582031 49.078125 0.847656 47.269531 1.207031 45.472656 C 1.5625 43.679688 2.007812 41.90625 2.539062 40.15625 C 3.070312 38.402344 3.6875 36.683594 4.386719 34.992188 C 5.085938 33.300781 5.867188 31.648438 6.730469 30.035156 C 7.59375 28.421875 8.53125 26.855469 9.550781 25.332031 C 10.566406 23.8125 11.65625 22.34375 12.816406 20.929688 C 13.976562 19.515625 15.203125 18.160156 16.5 16.867188 C 17.792969 15.570312 19.144531 14.34375 20.5625 13.183594 C 21.976562 12.023438 23.445312 10.933594 24.964844 9.917969 C 26.488281 8.898438 28.054688 7.960938 29.667969 7.097656 C 31.28125 6.234375 32.933594 5.453125 34.625 4.753906 C 36.316406 4.054688 38.035156 3.4375 39.789062 2.90625 C 41.539062 2.375 43.3125 1.929688 45.105469 1.574219 C 46.902344 1.214844 48.710938 0.949219 50.53125 0.769531 C 52.351562 0.589844 54.179688 0.5 56.007812 0.5 C 57.835938 0.5 59.664062 0.589844 61.484375 0.769531 C 63.304688 0.949219 65.113281 1.214844 66.910156 1.574219 C 68.703125 1.929688 70.476562 2.375 72.226562 2.90625 C 73.980469 3.4375 75.699219 4.054688 77.390625 4.753906 C 79.082031 5.453125 80.734375 6.234375 82.347656 7.097656 C 83.960938 7.960938 85.527344 8.898438 87.050781 9.917969 C 88.570312 10.933594 90.039062 12.023438 91.453125 13.183594 C 92.867188 14.34375 94.222656 15.570312 95.515625 16.867188 C 96.8125 18.160156 98.039062 19.515625 99.199219 20.929688 C 100.359375 22.34375 101.449219 23.8125 102.464844 25.332031 C 103.484375 26.855469 104.421875 28.421875 105.285156 30.035156 C 106.148438 31.648438 106.929688 33.300781 107.628906 34.992188 C 108.328125 36.683594 108.945312 38.402344 109.476562 40.15625 C 110.007812 41.90625 110.453125 43.679688 110.808594 45.472656 C 111.167969 47.269531 111.433594 49.078125 111.613281 50.898438 C 111.792969 52.71875 111.882812 54.546875 111.882812 56.375 Z M 111.882812 56.375 " fill-opacity="1" fill-rule="nonzero"/></g></g></g></g><g mask="url(#bccee24087)"><g transform="matrix(1, 0, 0, 1, 30, 93)"><g clip-path="url(#95896bf7d4)"><g clip-path="url(#1d7d189a6d)"><path fill="#ffffff" d="M 112.167969 56.519531 C 112.167969 58.347656 112.078125 60.171875 111.898438 61.996094 C 111.71875 63.816406 111.453125 65.625 111.09375 67.417969 C 110.738281 69.214844 110.292969 70.988281 109.761719 72.738281 C 109.230469 74.488281 108.617188 76.210938 107.914062 77.898438 C 107.214844 79.589844 106.433594 81.242188 105.570312 82.855469 C 104.707031 84.472656 103.769531 86.039062 102.75 87.558594 C 101.734375 89.082031 100.644531 90.550781 99.484375 91.964844 C 98.324219 93.378906 97.097656 94.734375 95.804688 96.027344 C 94.507812 97.320312 93.15625 98.550781 91.738281 99.710938 C 90.324219 100.871094 88.859375 101.960938 87.335938 102.976562 C 85.8125 103.992188 84.246094 104.933594 82.632812 105.796875 C 81.019531 106.65625 79.367188 107.4375 77.675781 108.140625 C 75.984375 108.839844 74.265625 109.457031 72.511719 109.988281 C 70.761719 110.519531 68.988281 110.960938 67.195312 111.320312 C 65.398438 111.675781 63.589844 111.945312 61.769531 112.125 C 59.949219 112.304688 58.125 112.394531 56.292969 112.394531 C 54.464844 112.394531 52.636719 112.304688 50.816406 112.125 C 48.996094 111.945312 47.1875 111.675781 45.394531 111.320312 C 43.597656 110.960938 41.824219 110.519531 40.074219 109.988281 C 38.324219 109.457031 36.601562 108.839844 34.910156 108.140625 C 33.21875 107.4375 31.566406 106.65625 29.953125 105.796875 C 28.339844 104.933594 26.773438 103.992188 25.25 102.976562 C 23.730469 101.960938 22.261719 100.871094 20.847656 99.710938 C 19.433594 98.550781 18.078125 97.320312 16.785156 96.027344 C 15.488281 94.734375 14.261719 93.378906 13.101562 91.964844 C 11.941406 90.550781 10.851562 89.082031 9.835938 87.558594 C 8.820312 86.039062 7.878906 84.472656 7.015625 82.855469 C 6.152344 81.242188 5.371094 79.589844 4.671875 77.898438 C 3.972656 76.210938 3.355469 74.488281 2.824219 72.738281 C 2.292969 70.984375 1.847656 69.214844 1.492188 67.417969 C 1.136719 65.625 0.867188 63.816406 0.6875 61.996094 C 0.507812 60.171875 0.417969 58.347656 0.417969 56.519531 C 0.417969 54.6875 0.507812 52.863281 0.6875 51.042969 C 0.867188 49.21875 1.136719 47.410156 1.492188 45.617188 C 1.847656 43.824219 2.292969 42.050781 2.824219 40.296875 C 3.355469 38.546875 3.972656 36.824219 4.671875 35.136719 C 5.371094 33.445312 6.152344 31.792969 7.015625 30.179688 C 7.878906 28.566406 8.820312 26.996094 9.835938 25.476562 C 10.851562 23.953125 11.941406 22.484375 13.101562 21.070312 C 14.261719 19.65625 15.488281 18.300781 16.785156 17.007812 C 18.078125 15.714844 19.433594 14.488281 20.847656 13.324219 C 22.261719 12.164062 23.730469 11.078125 25.25 10.058594 C 26.773438 9.042969 28.339844 8.101562 29.953125 7.242188 C 31.566406 6.378906 33.21875 5.597656 34.910156 4.894531 C 36.601562 4.195312 38.324219 3.578125 40.074219 3.046875 C 41.824219 2.519531 43.597656 2.074219 45.394531 1.714844 C 47.1875 1.359375 48.996094 1.089844 50.816406 0.910156 C 52.636719 0.734375 54.464844 0.644531 56.292969 0.644531 C 58.125 0.644531 59.949219 0.734375 61.769531 0.910156 C 63.589844 1.089844 65.398438 1.359375 67.195312 1.714844 C 68.988281 2.074219 70.761719 2.519531 72.511719 3.046875 C 74.265625 3.578125 75.984375 4.195312 77.675781 4.894531 C 79.367188 5.597656 81.019531 6.378906 82.632812 7.242188 C 84.246094 8.101562 85.8125 9.042969 87.335938 10.058594 C 88.859375 11.078125 90.324219 12.164062 91.738281 13.324219 C 93.15625 14.488281 94.507812 15.714844 95.804688 17.007812 C 97.097656 18.300781 98.324219 19.65625 99.484375 21.070312 C 100.644531 22.484375 101.734375 23.953125 102.75 25.476562 C 103.769531 26.996094 104.707031 28.566406 105.570312 30.179688 C 106.433594 31.792969 107.214844 33.445312 107.914062 35.136719 C 108.617188 36.824219 109.230469 38.546875 109.761719 40.296875 C 110.292969 42.050781 110.738281 43.824219 111.09375 45.617188 C 111.453125 47.410156 111.71875 49.21875 111.898438 51.042969 C 112.078125 52.863281 112.167969 54.6875 112.167969 56.519531 Z M 112.167969 56.519531 " fill-opacity="1" fill-rule="nonzero"/></g></g></g></g><g mask="url(#d7c51cf06a)"><g transform="matrix(1, 0, 0, 1, 55, 3)"><g clip-path="url(#985f63c1da)"><g clip-path="url(#1af2c2f59a)"><path fill="#ffffff" d="M 22.546875 11.945312 C 22.546875 12.660156 22.480469 13.367188 22.339844 14.066406 C 22.199219 14.765625 21.992188 15.445312 21.722656 16.105469 C 21.449219 16.765625 21.113281 17.394531 20.714844 17.988281 C 20.320312 18.582031 19.867188 19.128906 19.363281 19.636719 C 18.859375 20.140625 18.308594 20.589844 17.714844 20.988281 C 17.121094 21.382812 16.496094 21.71875 15.835938 21.992188 C 15.175781 22.265625 14.496094 22.472656 13.796875 22.609375 C 13.09375 22.75 12.386719 22.820312 11.671875 22.820312 C 10.960938 22.820312 10.253906 22.75 9.550781 22.609375 C 8.851562 22.472656 8.171875 22.265625 7.511719 21.992188 C 6.851562 21.71875 6.226562 21.382812 5.632812 20.988281 C 5.039062 20.589844 4.488281 20.140625 3.984375 19.636719 C 3.480469 19.128906 3.027344 18.582031 2.632812 17.988281 C 2.234375 17.394531 1.898438 16.765625 1.625 16.105469 C 1.351562 15.445312 1.148438 14.765625 1.007812 14.066406 C 0.867188 13.367188 0.796875 12.660156 0.796875 11.945312 C 0.796875 11.230469 0.867188 10.523438 1.007812 9.824219 C 1.148438 9.125 1.351562 8.441406 1.625 7.785156 C 1.898438 7.125 2.234375 6.496094 2.632812 5.902344 C 3.027344 5.308594 3.480469 4.761719 3.984375 4.253906 C 4.488281 3.75 5.039062 3.300781 5.632812 2.902344 C 6.226562 2.507812 6.851562 2.171875 7.511719 1.898438 C 8.171875 1.625 8.851562 1.417969 9.550781 1.277344 C 10.253906 1.140625 10.960938 1.070312 11.671875 1.070312 C 12.386719 1.070312 13.09375 1.140625 13.796875 1.277344 C 14.496094 1.417969 15.175781 1.625 15.835938 1.898438 C 16.496094 2.171875 17.121094 2.507812 17.714844 2.902344 C 18.308594 3.300781 18.859375 3.75 19.363281 4.253906 C 19.867188 4.761719 20.320312 5.308594 20.714844 5.902344 C 21.113281 6.496094 21.449219 7.125 21.722656 7.785156 C 21.992188 8.441406 22.199219 9.125 22.339844 9.824219 C 22.480469 10.523438 22.546875 11.230469 22.546875 11.945312 Z M 22.546875 11.945312 " fill-opacity="1" fill-rule="nonzero"/></g></g></g></g></svg>