<svg xmlns="http://www.w3.org/2000/svg" xmlns:xlink="http://www.w3.org/1999/xlink" width="300" zoomAndPan="magnify" viewBox="0 0 224.87999 225" height="300" preserveAspectRatio="xMidYMid meet" version="1.0"><defs><filter x="0%" y="0%" width="100%" height="100%" id="607906b048"><feColorMatrix values="0 0 0 0 1 0 0 0 0 1 0 0 0 0 1 0 0 0 1 0" color-interpolation-filters="sRGB"/></filter><clipPath id="7806f1e295"><path d="M 0 0.0585938 L 224.761719 0.0585938 L 224.761719 224.9375 L 0 224.9375 Z M 0 0.0585938 " clip-rule="nonzero"/></clipPath><mask id="d2b8d91dfb"><g filter="url(#607906b048)"><rect x="-22.487999" width="269.855988" fill="#000000" y="-22.5" height="270" fill-opacity="0.1"/></g></mask><clipPath id="c92a1f7250"><path d="M 22 79 L 213 79 L 213 199 L 22 199 Z M 22 79 " clip-rule="nonzero"/></clipPath><clipPath id="fbf078b131"><path d="M 91.332031 -14.125 L 243.839844 99.863281 L 131.648438 249.96875 L -20.859375 135.980469 Z M 91.332031 -14.125 " clip-rule="nonzero"/></clipPath><clipPath id="4c9623b303"><path d="M 91.332031 -14.125 L 243.839844 99.863281 L 131.648438 249.96875 L -20.859375 135.980469 Z M 91.332031 -14.125 " clip-rule="nonzero"/></clipPath><clipPath id="050cc761ec"><path d="M 59 18 L 158 18 L 158 75 L 59 75 Z M 59 18 " clip-rule="nonzero"/></clipPath><clipPath id="45de87e115"><path d="M 91.332031 -14.125 L 243.839844 99.863281 L 131.648438 249.96875 L -20.859375 135.980469 Z M 91.332031 -14.125 " clip-rule="nonzero"/></clipPath><clipPath id="635a9854aa"><path d="M 91.332031 -14.125 L 243.839844 99.863281 L 131.648438 249.96875 L -20.859375 135.980469 Z M 91.332031 -14.125 " clip-rule="nonzero"/></clipPath><clipPath id="b6c91bdd4a"><rect x="0" width="225" y="0" height="225"/></clipPath></defs><g clip-path="url(#7806f1e295)"><g mask="url(#d2b8d91dfb)"><g transform="matrix(1, 0, 0, 1, 0, -0.000000000000003234)"><g clip-path="url(#b6c91bdd4a)"><g clip-path="url(#c92a1f7250)"><g clip-path="url(#fbf078b131)"><g clip-path="url(#4c9623b303)"><path fill="#ffffff" d="M 191.898438 163.402344 C 199.488281 153.246094 208.859375 146.011719 210.820312 140.339844 C 212.976562 133.652344 211.230469 129.179688 212.128906 121.921875 C 213.394531 114.171875 213.453125 111.046875 210.835938 103.933594 C 209.113281 98.679688 200.949219 91.390625 195.5 87.316406 C 177.332031 73.738281 164.632812 80.867188 148.039062 88.65625 C 118.21875 102.78125 94.027344 68.476562 53.109375 83.789062 C 23.726562 95.070312 2.773438 153.390625 52.027344 163.308594 C 87.851562 170.6875 78.429688 171.179688 100.773438 188.277344 C 132.195312 212.15625 171.558594 191.320312 191.875 163.386719 Z M 191.898438 163.402344 " fill-opacity="1" fill-rule="evenodd"/></g></g></g><g clip-path="url(#050cc761ec)"><g clip-path="url(#45de87e115)"><g clip-path="url(#635a9854aa)"><path fill="#ffffff" d="M 143.960938 28.375 C 137.75 25.320312 134.277344 23.914062 128.917969 23.476562 C 122.460938 23.011719 118.941406 24.710938 114.324219 24.035156 C 107.886719 22.792969 98.050781 17.027344 84.542969 19.1875 C 63.792969 22.679688 45.558594 56.933594 76.042969 63.890625 C 84.878906 65.734375 95.765625 64.785156 104.957031 66.898438 C 113.601562 68.996094 118.1875 77.976562 134.894531 73.839844 C 169.953125 64.820312 157.253906 35.566406 143.960938 28.375 Z M 143.960938 28.375 " fill-opacity="1" fill-rule="evenodd"/></g></g></g></g></g></g></g></svg>