<svg xmlns="http://www.w3.org/2000/svg" xmlns:xlink="http://www.w3.org/1999/xlink" width="200" zoomAndPan="magnify" viewBox="0 0 150 225" height="300" preserveAspectRatio="xMidYMid meet" version="1.0"><defs><filter x="0%" y="0%" width="100%" height="100%" id="67b9292f26"><feColorMatrix values="0 0 0 0 1 0 0 0 0 1 0 0 0 0 1 0 0 0 1 0" color-interpolation-filters="sRGB"/></filter><mask id="6b392a5cd7"><g filter="url(#67b9292f26)"><rect x="-15" width="180" fill="#000000" y="-22.5" height="270" fill-opacity="0.17"/></g></mask><clipPath id="b3bf2a6c78"><path d="M 72 100 L 91 100 L 91 118.199219 L 72 118.199219 Z M 72 100 " clip-rule="nonzero"/></clipPath><clipPath id="2cb2a1ec06"><path d="M 0.773438 47 L 19 47 L 19 66 L 0.773438 66 Z M 0.773438 47 " clip-rule="nonzero"/></clipPath><clipPath id="f97b85a38b"><path d="M 78 37 L 102.773438 37 L 102.773438 62 L 78 62 Z M 78 37 " clip-rule="nonzero"/></clipPath><clipPath id="0dafc3cf83"><rect x="0" width="104" y="0" height="119"/></clipPath><mask id="6277365ef4"><g filter="url(#67b9292f26)"><rect x="-15" width="180" fill="#000000" y="-22.5" height="270" fill-opacity="0.17"/></g></mask><clipPath id="5bb0ca8d33"><path d="M 19 80 L 34 80 L 34 95 L 19 95 Z M 19 80 " clip-rule="nonzero"/></clipPath><clipPath id="20403ae6bf"><path d="M -20.207031 46.566406 L 79.519531 -44.425781 L 132.09375 13.195312 L 32.363281 104.1875 Z M -20.207031 46.566406 " clip-rule="nonzero"/></clipPath><clipPath id="431169f266"><path d="M -20.207031 46.566406 L 79.519531 -44.425781 L 132.09375 13.195312 L 32.363281 104.1875 Z M -20.207031 46.566406 " clip-rule="nonzero"/></clipPath><clipPath id="609a065e16"><path d="M 12 13 L 27 13 L 27 27 L 12 27 Z M 12 13 " clip-rule="nonzero"/></clipPath><clipPath id="a3af856783"><path d="M -20.207031 46.566406 L 79.519531 -44.425781 L 132.09375 13.195312 L 32.363281 104.1875 Z M -20.207031 46.566406 " clip-rule="nonzero"/></clipPath><clipPath id="1fe1042f6d"><path d="M -20.207031 46.566406 L 79.519531 -44.425781 L 132.09375 13.195312 L 32.363281 104.1875 Z M -20.207031 46.566406 " clip-rule="nonzero"/></clipPath><clipPath id="c45ce795dd"><path d="M 63 28 L 78 28 L 78 42 L 63 42 Z M 63 28 " clip-rule="nonzero"/></clipPath><clipPath id="96a8278b52"><path d="M -20.207031 46.566406 L 79.519531 -44.425781 L 132.09375 13.195312 L 32.363281 104.1875 Z M -20.207031 46.566406 " clip-rule="nonzero"/></clipPath><clipPath id="fcadbe3415"><path d="M -20.207031 46.566406 L 79.519531 -44.425781 L 132.09375 13.195312 L 32.363281 104.1875 Z M -20.207031 46.566406 " clip-rule="nonzero"/></clipPath><clipPath id="79fe10c965"><path d="M 55 52 L 74 52 L 74 72 L 55 72 Z M 55 52 " clip-rule="nonzero"/></clipPath><clipPath id="5d198c8526"><path d="M -20.207031 46.566406 L 79.519531 -44.425781 L 132.09375 13.195312 L 32.363281 104.1875 Z M -20.207031 46.566406 " clip-rule="nonzero"/></clipPath><clipPath id="30b9765010"><path d="M -20.207031 46.566406 L 79.519531 -44.425781 L 132.09375 13.195312 L 32.363281 104.1875 Z M -20.207031 46.566406 " clip-rule="nonzero"/></clipPath><clipPath id="0bed68be4a"><path d="M 45 8 L 65 8 L 65 28 L 45 28 Z M 45 8 " clip-rule="nonzero"/></clipPath><clipPath id="6641a48712"><path d="M -20.207031 46.566406 L 79.519531 -44.425781 L 132.09375 13.195312 L 32.363281 104.1875 Z M -20.207031 46.566406 " clip-rule="nonzero"/></clipPath><clipPath id="d68ea35702"><path d="M -20.207031 46.566406 L 79.519531 -44.425781 L 132.09375 13.195312 L 32.363281 104.1875 Z M -20.207031 46.566406 " clip-rule="nonzero"/></clipPath><clipPath id="0c8bc2affa"><path d="M 84 12 L 105 12 L 105 33 L 84 33 Z M 84 12 " clip-rule="nonzero"/></clipPath><clipPath id="21dd08556f"><path d="M -20.207031 46.566406 L 79.519531 -44.425781 L 132.09375 13.195312 L 32.363281 104.1875 Z M -20.207031 46.566406 " clip-rule="nonzero"/></clipPath><clipPath id="26f3fece6a"><path d="M -20.207031 46.566406 L 79.519531 -44.425781 L 132.09375 13.195312 L 32.363281 104.1875 Z M -20.207031 46.566406 " clip-rule="nonzero"/></clipPath><clipPath id="3228412aad"><path d="M 26 52 L 47 52 L 47 74 L 26 74 Z M 26 52 " clip-rule="nonzero"/></clipPath><clipPath id="1480b79bd9"><path d="M -20.207031 46.566406 L 79.519531 -44.425781 L 132.09375 13.195312 L 32.363281 104.1875 Z M -20.207031 46.566406 " clip-rule="nonzero"/></clipPath><clipPath id="4489cd58a8"><path d="M -20.207031 46.566406 L 79.519531 -44.425781 L 132.09375 13.195312 L 32.363281 104.1875 Z M -20.207031 46.566406 " clip-rule="nonzero"/></clipPath><clipPath id="4af2b97b33"><path d="M 111 2 L 127 2 L 127 17 L 111 17 Z M 111 2 " clip-rule="nonzero"/></clipPath><clipPath id="cde22b62c9"><path d="M -20.207031 46.566406 L 79.519531 -44.425781 L 132.09375 13.195312 L 32.363281 104.1875 Z M -20.207031 46.566406 " clip-rule="nonzero"/></clipPath><clipPath id="cdbf6e3cad"><path d="M -20.207031 46.566406 L 79.519531 -44.425781 L 132.09375 13.195312 L 32.363281 104.1875 Z M -20.207031 46.566406 " clip-rule="nonzero"/></clipPath><clipPath id="8970a707fe"><rect x="0" width="133" y="0" height="105"/></clipPath><mask id="285258cc5f"><g filter="url(#67b9292f26)"><rect x="-15" width="180" fill="#000000" y="-22.5" height="270" fill-opacity="0.17"/></g></mask><clipPath id="825cde295d"><path d="M 52 97 L 76.710938 97 L 76.710938 121.679688 L 52 121.679688 Z M 52 97 " clip-rule="nonzero"/></clipPath><clipPath id="92818932c8"><path d="M 52 1.519531 L 72 1.519531 L 72 20 L 52 20 Z M 52 1.519531 " clip-rule="nonzero"/></clipPath><clipPath id="b91b4b3002"><rect x="0" width="77" y="0" height="122"/></clipPath></defs><g mask="url(#6b392a5cd7)"><g transform="matrix(1, 0, 0, 1, 4, -0.000000000000008531)"><g clip-path="url(#0dafc3cf83)"><g clip-path="url(#b3bf2a6c78)"><path fill="#ffffff" d="M 81.816406 100.257812 C 86.773438 100.257812 90.785156 104.273438 90.785156 109.230469 C 90.785156 114.183594 86.773438 118.199219 81.816406 118.199219 C 76.863281 118.199219 72.847656 114.183594 72.847656 109.230469 C 72.847656 104.273438 76.863281 100.257812 81.816406 100.257812 " fill-opacity="1" fill-rule="nonzero"/></g><g clip-path="url(#2cb2a1ec06)"><path fill="#ffffff" d="M 9.777344 47.648438 C 14.730469 47.648438 18.746094 51.667969 18.746094 56.617188 C 18.746094 61.574219 14.730469 65.589844 9.777344 65.589844 C 4.824219 65.589844 0.808594 61.574219 0.808594 56.617188 C 0.808594 51.667969 4.824219 47.648438 9.777344 47.648438 " fill-opacity="1" fill-rule="nonzero"/></g><path fill="#ffffff" d="M 69.722656 11.375 C 74.679688 11.375 78.695312 15.386719 78.695312 20.34375 C 78.695312 25.300781 74.679688 29.3125 69.722656 29.3125 C 64.769531 29.3125 60.753906 25.300781 60.753906 20.34375 C 60.753906 15.386719 64.769531 11.375 69.722656 11.375 " fill-opacity="1" fill-rule="nonzero"/><g clip-path="url(#f97b85a38b)"><path fill="#ffffff" d="M 90.785156 37.742188 C 97.46875 37.742188 102.878906 43.152344 102.878906 49.828125 C 102.878906 56.511719 97.46875 61.925781 90.785156 61.925781 C 84.109375 61.925781 78.695312 56.511719 78.695312 49.828125 C 78.695312 43.152344 84.109375 37.742188 90.785156 37.742188 " fill-opacity="1" fill-rule="nonzero"/></g><path fill="#ffffff" d="M 39.261719 8.246094 C 45.941406 8.246094 51.351562 13.664062 51.351562 20.34375 C 51.351562 27.023438 45.941406 32.4375 39.261719 32.4375 C 32.582031 32.4375 27.167969 27.023438 27.167969 20.34375 C 27.167969 13.664062 32.582031 8.246094 39.261719 8.246094 " fill-opacity="1" fill-rule="nonzero"/><path fill="#ffffff" d="M 66.601562 66.863281 C 72.535156 67.0625 77.019531 71.546875 77.21875 77.480469 C 77.414062 83.410156 72.234375 87.90625 66.601562 88.09375 C 60.671875 88.296875 56.175781 83.113281 55.988281 77.480469 C 55.789062 71.546875 60.964844 67.054688 66.601562 66.863281 C 68.5 66.800781 68.511719 63.847656 66.601562 63.910156 C 59.03125 64.164062 53.289062 69.910156 53.035156 77.480469 C 52.777344 85.046875 59.414062 90.808594 66.601562 91.050781 C 74.171875 91.304688 79.929688 84.667969 80.171875 77.480469 C 80.425781 69.914062 73.792969 64.152344 66.601562 63.910156 C 64.699219 63.847656 64.699219 66.800781 66.601562 66.863281 " fill-opacity="1" fill-rule="nonzero"/></g></g></g><g mask="url(#6277365ef4)"><g transform="matrix(1, 0, 0, 1, 0, -0.000000000000008531)"><g clip-path="url(#8970a707fe)"><g clip-path="url(#5bb0ca8d33)"><g clip-path="url(#20403ae6bf)"><g clip-path="url(#431169f266)"><path fill="#ffffff" d="M 31.617188 83.042969 C 34.167969 85.839844 33.96875 90.167969 31.175781 92.71875 C 28.378906 95.269531 24.050781 95.074219 21.5 92.277344 C 18.949219 89.484375 19.148438 85.152344 21.945312 82.601562 C 24.738281 80.050781 29.070312 80.25 31.617188 83.042969 " fill-opacity="1" fill-rule="nonzero"/></g></g></g><g clip-path="url(#609a065e16)"><g clip-path="url(#a3af856783)"><g clip-path="url(#1fe1042f6d)"><path fill="#ffffff" d="M 24.21875 15.335938 C 26.769531 18.132812 26.570312 22.464844 23.777344 25.011719 C 20.980469 27.5625 16.648438 27.363281 14.097656 24.570312 C 11.550781 21.777344 11.75 17.445312 14.542969 14.894531 C 17.335938 12.34375 21.667969 12.542969 24.21875 15.335938 " fill-opacity="1" fill-rule="nonzero"/></g></g></g><g clip-path="url(#c45ce795dd)"><g clip-path="url(#96a8278b52)"><g clip-path="url(#fcadbe3415)"><path fill="#ffffff" d="M 75.53125 30.480469 C 78.082031 33.273438 77.886719 37.605469 75.089844 40.15625 C 72.292969 42.707031 67.964844 42.507812 65.414062 39.710938 C 62.863281 36.917969 63.058594 32.585938 65.855469 30.035156 C 68.652344 27.484375 72.980469 27.6875 75.53125 30.480469 " fill-opacity="1" fill-rule="nonzero"/></g></g></g><g clip-path="url(#79fe10c965)"><g clip-path="url(#5d198c8526)"><g clip-path="url(#30b9765010)"><path fill="#ffffff" d="M 71.496094 55.929688 C 74.9375 59.699219 74.667969 65.535156 70.902344 68.972656 C 67.132812 72.410156 61.296875 72.144531 57.855469 68.375 C 54.421875 64.609375 54.6875 58.769531 58.457031 55.332031 C 62.222656 51.894531 68.0625 52.164062 71.496094 55.929688 " fill-opacity="1" fill-rule="nonzero"/></g></g></g><g clip-path="url(#0bed68be4a)"><g clip-path="url(#6641a48712)"><g clip-path="url(#d68ea35702)"><path fill="#ffffff" d="M 61.617188 11.6875 C 65.054688 15.457031 64.78125 21.296875 61.015625 24.734375 C 57.25 28.171875 51.410156 27.90625 47.972656 24.136719 C 44.535156 20.371094 44.800781 14.53125 48.570312 11.089844 C 52.335938 7.65625 58.179688 7.921875 61.617188 11.6875 " fill-opacity="1" fill-rule="nonzero"/></g></g></g><g clip-path="url(#0c8bc2affa)"><g clip-path="url(#21dd08556f)"><g clip-path="url(#26f3fece6a)"><path fill="#ffffff" d="M 100.394531 17.070312 C 103.332031 20.519531 103.109375 25.351562 99.867188 28.519531 C 96.625 31.683594 91.421875 31.074219 88.417969 27.996094 C 85.25 24.753906 85.859375 19.550781 88.941406 16.546875 C 92.179688 13.382812 97.382812 13.992188 100.394531 17.070312 C 101.402344 18.109375 103.074219 16.59375 102.058594 15.550781 C 98.015625 11.410156 91.820312 11.128906 87.421875 14.878906 C 83.023438 18.628906 83.1875 25.335938 86.75 29.519531 C 90.5 33.914062 97.207031 33.75 101.386719 30.183594 C 105.785156 26.441406 105.617188 19.730469 102.058594 15.550781 C 101.113281 14.441406 99.449219 15.964844 100.394531 17.070312 " fill-opacity="1" fill-rule="nonzero"/></g></g></g><g clip-path="url(#3228412aad)"><g clip-path="url(#1480b79bd9)"><g clip-path="url(#4489cd58a8)"><path fill="#ffffff" d="M 42.625 57.277344 C 45.566406 60.726562 45.34375 65.5625 42.101562 68.730469 C 38.855469 71.890625 33.652344 71.28125 30.648438 68.203125 C 27.484375 64.960938 28.09375 59.757812 31.175781 56.753906 C 34.417969 53.585938 39.617188 54.195312 42.625 57.277344 C 43.636719 58.3125 45.308594 56.800781 44.292969 55.757812 C 40.25 51.617188 34.054688 51.335938 29.65625 55.085938 C 25.253906 58.835938 25.421875 65.546875 28.984375 69.722656 C 32.734375 74.125 39.441406 73.957031 43.621094 70.394531 C 48.019531 66.644531 47.855469 59.9375 44.292969 55.757812 C 43.347656 54.652344 41.683594 56.171875 42.625 57.277344 " fill-opacity="1" fill-rule="nonzero"/></g></g></g><g clip-path="url(#4af2b97b33)"><g clip-path="url(#cde22b62c9)"><g clip-path="url(#cdbf6e3cad)"><path fill="#ffffff" d="M 124.242188 4.957031 C 126.898438 7.867188 126.691406 12.375 123.78125 15.027344 C 120.871094 17.683594 116.367188 17.476562 113.710938 14.566406 C 111.058594 11.65625 111.265625 7.152344 114.175781 4.496094 C 117.082031 1.84375 121.589844 2.050781 124.242188 4.957031 " fill-opacity="1" fill-rule="nonzero"/></g></g></g></g></g></g><g mask="url(#285258cc5f)"><g transform="matrix(1, 0, 0, 1, 2, 102)"><g clip-path="url(#b91b4b3002)"><path fill="#ffffff" d="M 13.199219 18.320312 C 18.152344 18.320312 22.167969 22.335938 22.167969 27.289062 C 22.167969 32.246094 18.152344 36.257812 13.199219 36.257812 C 8.242188 36.257812 4.226562 32.246094 4.226562 27.289062 C 4.226562 22.335938 8.242188 18.320312 13.199219 18.320312 " fill-opacity="1" fill-rule="nonzero"/><path fill="#ffffff" d="M 43.660156 70.945312 C 48.617188 70.945312 52.632812 74.957031 52.632812 79.914062 C 52.632812 84.871094 48.617188 88.882812 43.660156 88.882812 C 38.707031 88.882812 34.691406 84.871094 34.691406 79.914062 C 34.691406 74.957031 38.707031 70.945312 43.660156 70.945312 " fill-opacity="1" fill-rule="nonzero"/><g clip-path="url(#825cde295d)"><path fill="#ffffff" d="M 64.722656 97.3125 C 71.40625 97.3125 76.816406 102.726562 76.816406 109.402344 C 76.816406 116.082031 71.40625 121.496094 64.722656 121.496094 C 58.046875 121.496094 52.632812 116.082031 52.632812 109.402344 C 52.632812 102.726562 58.046875 97.3125 64.722656 97.3125 " fill-opacity="1" fill-rule="nonzero"/></g><path fill="#ffffff" d="M 13.199219 67.820312 C 19.878906 67.820312 25.289062 73.238281 25.289062 79.914062 C 25.289062 86.59375 19.878906 92.007812 13.199219 92.007812 C 6.519531 92.007812 1.105469 86.59375 1.105469 79.914062 C 1.105469 73.238281 6.519531 67.820312 13.199219 67.820312 " fill-opacity="1" fill-rule="nonzero"/><path fill="#ffffff" d="M 52.632812 35.050781 C 58.566406 35.253906 63.042969 39.738281 63.246094 45.667969 C 63.445312 51.601562 58.265625 56.097656 52.632812 56.285156 C 46.703125 56.488281 42.207031 51.304688 42.015625 45.667969 C 41.816406 39.742188 46.996094 35.246094 52.632812 35.050781 C 54.53125 34.992188 54.535156 32.039062 52.632812 32.097656 C 45.058594 32.359375 39.316406 38.101562 39.0625 45.667969 C 38.808594 53.238281 45.445312 59 52.632812 59.242188 C 60.195312 59.496094 65.957031 52.859375 66.199219 45.667969 C 66.460938 38.105469 59.820312 32.347656 52.632812 32.097656 C 50.726562 32.039062 50.730469 34.992188 52.632812 35.050781 " fill-opacity="1" fill-rule="nonzero"/><g clip-path="url(#92818932c8)"><path fill="#ffffff" d="M 61.96875 1.285156 C 67.128906 1.285156 71.304688 5.464844 71.304688 10.621094 C 71.304688 15.78125 67.128906 19.957031 61.96875 19.957031 C 56.8125 19.957031 52.632812 15.78125 52.632812 10.621094 C 52.632812 5.464844 56.8125 1.285156 61.96875 1.285156 " fill-opacity="1" fill-rule="nonzero"/></g></g></g></g></svg>