<svg xmlns="http://www.w3.org/2000/svg" width="576" height="319" viewBox="0 0 576 319" fill="none" class="text-midGrey max-w-full h-auto"><g opacity="0.48" clip-path="url(#clip0_1407_225220)"><path d="M29.5962 732.094C31.7298 679.676 37.165 627.445 45.8691 575.712C58.0614 503.057 67.4569 486.096 71.0797 429.923C74.1452 382.499 77.0515 328.549 54.0006 267.034C39.8315 229.621 18.5624 195.308 -8.63284 165.989" stroke="#bf2026" stroke-miterlimit="10"></path><path d="M53.1869 732.9C58.7306 663.075 66.9816 606.892 73.5306 568.387C83.7721 508.079 89.3855 493.649 93.0481 450.291C97.0293 402.957 101.279 352.883 86.5389 297.168C78.4771 266.685 56.8097 204.493 -7.82424 143.238" stroke="#bf2026" stroke-miterlimit="10"></path><path d="M77.5893 731.275C80.3761 697.394 85.6611 644.43 96.3007 579.806C110.653 492.642 119.501 476.748 121.521 424.242C123.263 378.981 125.682 315.902 93.8622 247.512C65.815 187.223 22.9878 148.24 -8.65237 125.34" stroke="#bf2026" stroke-miterlimit="10"></path><path d="M100.373 732.094C102.782 703.534 107.519 657.784 117.452 601.781C131.317 523.655 140.752 507.541 145.111 452.733C147.978 416.68 151.61 365.629 135.347 302.869C126.838 269.984 113.77 221.783 73.5301 174.997C51.7665 149.807 25.5715 128.829 -3.75393 113.104" stroke="#bf2026" stroke-miterlimit="10"></path><path d="M123.961 728.834C125.952 708.904 129.336 678.819 135.347 642.497C147.46 569.383 156.865 550.928 164.638 506.484C170.71 471.725 183.439 394.367 159.752 305.309C150.416 270.202 135.865 217.836 90.609 168.489C63.932 139.562 31.5129 116.536 -4.57034 100.886" stroke="#bf2026" stroke-miterlimit="10"></path><path d="M148.366 731.275C148.507 702.768 151.781 674.363 158.13 646.572C161.753 630.628 165.366 619.447 167.087 613.997C168.511 609.423 192.905 530.171 198.001 454.356C199.852 426.773 203.356 366.235 180.912 293.919C170.591 260.646 156.398 216.52 118.279 172.564C74.8541 122.5 24.1243 100.019 -2.93753 90.2529" stroke="#bf2026" stroke-miterlimit="10"></path><path d="M173.584 732.9C174.257 710.788 176.435 688.747 180.103 666.932C186.473 628.985 194.734 607.45 202.069 581.412C203.393 576.718 219.636 517.894 222.403 450.291C223.627 420.396 225.388 368.07 206.956 304.502C197.71 272.564 182.81 221.055 139.435 170.971C89.8602 113.671 30.0135 89.2571 -2.89065 78.9333" stroke="#bf2026" stroke-miterlimit="10"></path><path d="M195.542 731.275C197.533 716.079 201.056 693.059 206.938 665.307C215.816 623.344 223.182 603.523 230.527 574.904C236.717 550.738 247.447 502.647 249.238 447.839C250.233 416.559 251.557 365.408 232.965 303.685C224.585 275.862 208.083 222.968 163.823 171.737C104.653 103.207 30.9716 78.2948 -3.75394 69.1169" stroke="#bf2026" stroke-miterlimit="10"></path><path d="M221.577 732.094C223.641 710.481 226.9 689 231.34 667.749C239.88 626.813 249.256 603.674 256.551 579.788C275.462 517.705 276.009 464.123 276.079 440.516C276.308 358.374 254.6 297.378 250.042 284.952C238.268 252.834 218.591 200.866 171.145 152.197C107.616 87.0852 31.865 66.4974 -4.56253 59.3525" stroke="#bf2026" stroke-miterlimit="10"></path><path d="M243.535 732.9C246.949 715.432 252.433 689.333 260.624 657.973C273.911 607.091 282.521 587.52 289.906 559.429C305.98 498.343 303.173 446.913 301.292 416.928C298.833 377.536 293.907 310.242 254.115 236.112C241.485 212.595 214.304 163.188 158.13 119.651C94.2819 70.1242 28.8218 55.9738 -3.75394 51.2005" stroke="#bf2026" stroke-miterlimit="10"></path><path d="M267.94 731.275C272.647 713.338 280.042 685.755 289.906 652.272C307.403 592.861 312.3 583.822 318.381 558.601C332.703 499.189 329.498 449.982 327.338 420.146C321.615 341.661 299.072 285.12 293.986 272.723C279.366 237.088 258.972 188.787 211.825 143.177C172.82 105.549 133.655 87.2634 111.759 77.2983C75.1449 60.5822 36.1884 49.5827 -3.75394 44.6827" stroke="#bf2026" stroke-miterlimit="10"></path><path d="M291.577 732.094C296.476 709.399 302.999 687.086 311.095 665.328C318.599 645.139 323.267 636.628 329.806 619.718C339.579 593.013 346.931 565.481 351.772 537.456C361.576 479.35 354.758 431.129 349.333 394.956C343.64 356.919 336.007 305.848 306.218 245.908C291.667 216.641 267.969 170.174 218.364 127.812C176.134 91.7887 134.759 75.5756 105.289 64.2852C70.1983 50.8608 33.5869 41.824 -3.71487 37.3795" stroke="#bf2026" stroke-miterlimit="10"></path><path d="M315.124 731.275C321.434 713.069 331.218 685.615 344.406 652.282C356.23 622.387 359.952 615.153 364.739 601.789C380.853 556.847 381.818 518.631 382.654 486.135C383.876 434.67 377.292 383.317 363.127 333.829C350.785 290.75 331.606 223.785 273.66 159.53C263.2 147.951 225.658 107.831 163.024 75.6342C111.638 49.3107 55.2493 34.2257 -2.40237 31.3793" stroke="#bf2026" stroke-miterlimit="10"></path><path d="M338.715 731.275C355.09 702.544 369.231 672.594 381.015 641.689C385.046 631.117 398.064 596.707 405.419 562.965C424.648 474.775 403.867 397.546 390.231 346.863C378.686 303.924 365.1 255.105 328.414 200.257C313.266 177.607 282.929 133.212 227.004 95.4646C173.766 59.5306 123.733 47.4031 88.7091 38.9826C58.451 31.6769 27.5934 27.1341 -3.48441 25.4102" stroke="#bf2026" stroke-miterlimit="10"></path><path d="M362.304 730.459C367.28 721.56 374.914 707.968 384.27 691.366C405.24 654.147 407.778 649.951 411.142 643.315C426.38 613.031 430.949 586.414 434.731 564.312C445.301 502.658 436.671 450.431 429.854 411.198C415.691 329.644 388.41 271.319 377.79 249.934C359.945 213.98 342.239 178.325 305.393 140.796C264.676 99.3118 223.292 78.6642 202.082 68.3105C157.702 46.6365 119.951 38.4154 88.2015 31.6591C57.9948 25.2554 27.3436 21.1712 -3.48441 19.4419" stroke="#bf2026" stroke-miterlimit="10"></path><path d="M385.889 731.275C393.115 720.673 404.103 704.549 417.619 684.848C438.351 654.634 440.869 651.206 444.492 644.938C461.173 615.88 465.004 588.635 468.08 565.128C473.634 522.786 469.006 490.978 462.387 447.839C456.001 406.9 446.207 366.567 433.106 327.262C421.918 293.48 410.403 258.702 385.919 216.5C373.309 194.737 356.389 166.027 325.724 135.056C302.046 111.391 275.223 91.1071 246.011 74.7771C208.927 53.9402 178.083 45.0215 150.832 37.3185C100.914 23.3008 49.4298 15.6404 -2.40238 14.5184" stroke="#bf2026" stroke-miterlimit="10"></path><path d="M410.294 731.814C420.386 720.753 434.837 704.45 451.508 684.042C469.145 662.458 477.963 651.665 484.054 641.69C494.654 624.311 503.482 599.409 500.317 534.177C498.416 494.795 492.474 447.561 476.998 389.744C467.791 355.315 453.19 302.051 419.52 238.803C404.421 210.452 388.019 180.129 357.693 145.949C320.051 103.527 283.265 80.3187 275.263 75.3661C229.808 47.2447 190.106 37.4091 146.731 27.0455C97.8743 15.409 47.8181 9.57574 -2.40238 9.66642" stroke="#bf2026" stroke-miterlimit="10"></path><path d="M434.697 731.275C454.874 718.124 473.44 702.649 490.016 685.167C504.079 670.279 515.893 657.723 524.721 638.471C535.669 614.355 536.267 592.044 535.57 570.599C533.918 525.511 527.374 480.738 516.052 437.067C499.929 375.682 485.985 322.598 452.593 255.703C433.682 217.766 416.872 184.702 384.266 147.084C369.188 129.705 339.966 96.5608 292.073 68.3597C249.683 43.3972 213.714 34.6878 169.513 24.3739C113.333 11.3212 55.8157 4.92624 -1.8555 5.32074" stroke="#bf2026" stroke-miterlimit="10"></path><path d="M459.104 732.094C485.048 721.135 509.186 706.305 530.695 688.108C544.629 676.289 555.776 666.862 564.047 653.091C581.713 623.644 576.488 590.68 564.853 537.436C549.924 469.156 542.489 435.015 525.808 384.313C506.897 326.725 493.799 287.652 467.245 237.717C449.449 204.274 432.191 172.356 399.725 136.721C360.232 93.3732 321.405 69.9553 310.238 63.4182C266.834 38.1169 229.71 28.6003 197.174 20.2496C150.883 8.39113 113.57 5.30194 83.6512 2.97011C55.386 0.761104 27.0246 0.035991 -1.31644 0.797741" stroke="#bf2026" stroke-miterlimit="10"></path></g><defs><clipPath id="clip0_1407_225220"><rect width="319" height="576" fill="white" transform="translate(0 319) rotate(-90)"></rect></clipPath></defs></svg>