<svg xmlns="http://www.w3.org/2000/svg" xmlns:xlink="http://www.w3.org/1999/xlink" width="300" zoomAndPan="magnify" viewBox="0 0 224.87999 225" height="300" preserveAspectRatio="xMidYMid meet" version="1.0"><defs><clipPath id="91c538857f"><path d="M 0 0.0585938 L 224.761719 0.0585938 L 224.761719 224.9375 L 0 224.9375 Z M 0 0.0585938 " clip-rule="nonzero"/></clipPath><clipPath id="4fe47764e2"><path d="M 201 192.648438 L 205 192.648438 L 205 196 L 201 196 Z M 201 192.648438 " clip-rule="nonzero"/></clipPath><clipPath id="2ee128ec1f"><path d="M 210 192.648438 L 214 192.648438 L 214 196 L 210 196 Z M 210 192.648438 " clip-rule="nonzero"/></clipPath><clipPath id="a16710e54e"><path d="M 219.257812 192.691406 L 222.203125 192.691406 L 222.203125 195.957031 L 219.257812 195.957031 Z M 219.257812 192.691406 " clip-rule="nonzero"/></clipPath><clipPath id="859c452893"><path d="M 192 192.648438 L 196 192.648438 L 196 196 L 192 196 Z M 192 192.648438 " clip-rule="nonzero"/></clipPath><clipPath id="2fdd44bdf3"><path d="M 183 192.648438 L 187 192.648438 L 187 196 L 183 196 Z M 183 192.648438 " clip-rule="nonzero"/></clipPath><clipPath id="48cca93caf"><path d="M 219.257812 201.496094 L 222.203125 201.496094 L 222.203125 204.765625 L 219.257812 204.765625 Z M 219.257812 201.496094 " clip-rule="nonzero"/></clipPath><clipPath id="9ac45cf99c"><path d="M 219.257812 210.304688 L 222.203125 210.304688 L 222.203125 213.714844 L 219.257812 213.714844 Z M 219.257812 210.304688 " clip-rule="nonzero"/></clipPath><clipPath id="715f1fff6a"><path d="M 201.355469 219.253906 L 204.625 219.253906 L 204.625 222.457031 L 201.355469 222.457031 Z M 201.355469 219.253906 " clip-rule="nonzero"/></clipPath><clipPath id="d0a51a3af5"><path d="M 210.308594 219.253906 L 213.714844 219.253906 L 213.714844 222.457031 L 210.308594 222.457031 Z M 210.308594 219.253906 " clip-rule="nonzero"/></clipPath><clipPath id="d504b92f93"><path d="M 219.257812 219.253906 L 222.203125 219.253906 L 222.203125 222.457031 L 219.257812 222.457031 Z M 219.257812 219.253906 " clip-rule="nonzero"/></clipPath><clipPath id="267627a11d"><path d="M 192.550781 219.253906 L 195.816406 219.253906 L 195.816406 222.457031 L 192.550781 222.457031 Z M 192.550781 219.253906 " clip-rule="nonzero"/></clipPath><clipPath id="add2b89dbc"><path d="M 183.601562 219.253906 L 187 219.253906 L 187 222.457031 L 183.601562 222.457031 Z M 183.601562 219.253906 " clip-rule="nonzero"/></clipPath><clipPath id="a19d5e3b92"><path d="M 174 192.648438 L 179 192.648438 L 179 196 L 174 196 Z M 174 192.648438 " clip-rule="nonzero"/></clipPath><clipPath id="a729cd02c2"><path d="M 165.984375 192.648438 L 170 192.648438 L 170 196 L 165.984375 196 Z M 165.984375 192.648438 " clip-rule="nonzero"/></clipPath><clipPath id="a9bd892c71"><path d="M 165.984375 201 L 170 201 L 170 205 L 165.984375 205 Z M 165.984375 201 " clip-rule="nonzero"/></clipPath><clipPath id="00bce3a91b"><path d="M 165.984375 210 L 170 210 L 170 214 L 165.984375 214 Z M 165.984375 210 " clip-rule="nonzero"/></clipPath><clipPath id="92d847c990"><path d="M 174.792969 219.253906 L 178.058594 219.253906 L 178.058594 222.457031 L 174.792969 222.457031 Z M 174.792969 219.253906 " clip-rule="nonzero"/></clipPath><clipPath id="d1b72ff97f"><path d="M 165.984375 219.253906 L 169.253906 219.253906 L 169.253906 222.457031 L 165.984375 222.457031 Z M 165.984375 219.253906 " clip-rule="nonzero"/></clipPath><clipPath id="b1f98100eb"><path d="M 202 193.589844 L 206 193.589844 L 206 197 L 202 197 Z M 202 193.589844 " clip-rule="nonzero"/></clipPath><clipPath id="f8a350083a"><path d="M 211 193.589844 L 215 193.589844 L 215 197 L 211 197 Z M 211 193.589844 " clip-rule="nonzero"/></clipPath><clipPath id="e0a0ec6ae3"><path d="M 220.199219 193.632812 L 223.144531 193.632812 L 223.144531 196.898438 L 220.199219 196.898438 Z M 220.199219 193.632812 " clip-rule="nonzero"/></clipPath><clipPath id="c41d73847d"><path d="M 193 193.589844 L 197 193.589844 L 197 197 L 193 197 Z M 193 193.589844 " clip-rule="nonzero"/></clipPath><clipPath id="4265e28314"><path d="M 184 193.589844 L 188 193.589844 L 188 197 L 184 197 Z M 184 193.589844 " clip-rule="nonzero"/></clipPath><clipPath id="c3b9366e05"><path d="M 220.199219 202.4375 L 223.144531 202.4375 L 223.144531 205.707031 L 220.199219 205.707031 Z M 220.199219 202.4375 " clip-rule="nonzero"/></clipPath><clipPath id="0744138d6e"><path d="M 220.199219 211.246094 L 223.144531 211.246094 L 223.144531 214.65625 L 220.199219 214.65625 Z M 220.199219 211.246094 " clip-rule="nonzero"/></clipPath><clipPath id="6cccbe530f"><path d="M 202.296875 220.195312 L 205.566406 220.195312 L 205.566406 223.398438 L 202.296875 223.398438 Z M 202.296875 220.195312 " clip-rule="nonzero"/></clipPath><clipPath id="9a5625f819"><path d="M 211.246094 220.195312 L 214.65625 220.195312 L 214.65625 223.398438 L 211.246094 223.398438 Z M 211.246094 220.195312 " clip-rule="nonzero"/></clipPath><clipPath id="bbf53df3e5"><path d="M 220.199219 220.195312 L 223.144531 220.195312 L 223.144531 223.398438 L 220.199219 223.398438 Z M 220.199219 220.195312 " clip-rule="nonzero"/></clipPath><clipPath id="4dc5459a7a"><path d="M 193.492188 220.195312 L 196.757812 220.195312 L 196.757812 223.398438 L 193.492188 223.398438 Z M 193.492188 220.195312 " clip-rule="nonzero"/></clipPath><clipPath id="2990c6acd8"><path d="M 184.539062 220.195312 L 187.949219 220.195312 L 187.949219 223.398438 L 184.539062 223.398438 Z M 184.539062 220.195312 " clip-rule="nonzero"/></clipPath><clipPath id="731f89ddf6"><path d="M 175 193.589844 L 179 193.589844 L 179 197 L 175 197 Z M 175 193.589844 " clip-rule="nonzero"/></clipPath><clipPath id="de634ccbec"><path d="M 166.925781 193.589844 L 171 193.589844 L 171 197 L 166.925781 197 Z M 166.925781 193.589844 " clip-rule="nonzero"/></clipPath><clipPath id="095340ecfc"><path d="M 166.925781 202 L 171 202 L 171 206 L 166.925781 206 Z M 166.925781 202 " clip-rule="nonzero"/></clipPath><clipPath id="91b7402250"><path d="M 166.925781 211 L 171 211 L 171 215 L 166.925781 215 Z M 166.925781 211 " clip-rule="nonzero"/></clipPath><clipPath id="48acea80a0"><path d="M 175.734375 220.195312 L 179 220.195312 L 179 223.398438 L 175.734375 223.398438 Z M 175.734375 220.195312 " clip-rule="nonzero"/></clipPath><clipPath id="9d9185f6da"><path d="M 166.925781 220.195312 L 170.191406 220.195312 L 170.191406 223.398438 L 166.925781 223.398438 Z M 166.925781 220.195312 " clip-rule="nonzero"/></clipPath></defs><g clip-path="url(#91c538857f)"><path fill="#ffffff" d="M 0 0.0585938 L 224.878906 0.0585938 L 224.878906 224.941406 L 0 224.941406 Z M 0 0.0585938 " fill-opacity="1" fill-rule="nonzero"/><path fill="#ffffff" d="M 0 0.0585938 L 224.878906 0.0585938 L 224.878906 224.941406 L 0 224.941406 Z M 0 0.0585938 " fill-opacity="1" fill-rule="nonzero"/></g><g clip-path="url(#4fe47764e2)"><path fill="#e1e1e1" d="M 204.621094 194.273438 C 204.621094 193.398438 203.910156 192.691406 203.039062 192.691406 C 202.167969 192.691406 201.457031 193.398438 201.457031 194.273438 C 201.457031 195.144531 202.167969 195.851562 203.039062 195.851562 C 203.910156 195.851562 204.621094 195.144531 204.621094 194.273438 " fill-opacity="1" fill-rule="nonzero"/></g><g clip-path="url(#2ee128ec1f)"><path fill="#e1e1e1" d="M 213.574219 194.273438 C 213.574219 193.398438 212.867188 192.691406 211.992188 192.691406 C 211.121094 192.691406 210.414062 193.398438 210.414062 194.273438 C 210.414062 195.144531 211.121094 195.851562 211.992188 195.851562 C 212.867188 195.851562 213.574219 195.144531 213.574219 194.273438 " fill-opacity="1" fill-rule="nonzero"/></g><g clip-path="url(#a16710e54e)"><path fill="#e1e1e1" d="M 222.445312 194.273438 C 222.445312 193.398438 221.734375 192.691406 220.863281 192.691406 C 219.992188 192.691406 219.28125 193.398438 219.28125 194.273438 C 219.28125 195.144531 219.992188 195.851562 220.863281 195.851562 C 221.734375 195.851562 222.445312 195.144531 222.445312 194.273438 " fill-opacity="1" fill-rule="nonzero"/></g><g clip-path="url(#859c452893)"><path fill="#e1e1e1" d="M 194.171875 192.691406 C 193.296875 192.691406 192.589844 193.398438 192.589844 194.273438 C 192.589844 195.144531 193.296875 195.851562 194.171875 195.851562 C 195.042969 195.851562 195.75 195.144531 195.75 194.273438 C 195.75 193.398438 195.042969 192.691406 194.171875 192.691406 " fill-opacity="1" fill-rule="nonzero"/></g><g clip-path="url(#2fdd44bdf3)"><path fill="#e1e1e1" d="M 185.300781 192.691406 C 184.429688 192.691406 183.722656 193.398438 183.722656 194.273438 C 183.722656 195.144531 184.429688 195.851562 185.300781 195.851562 C 186.175781 195.851562 186.882812 195.144531 186.882812 194.273438 C 186.882812 193.398438 186.175781 192.691406 185.300781 192.691406 " fill-opacity="1" fill-rule="nonzero"/></g><path fill="#e1e1e1" d="M 204.621094 203.140625 C 204.621094 202.269531 203.910156 201.558594 203.039062 201.558594 C 202.167969 201.558594 201.457031 202.269531 201.457031 203.140625 C 201.457031 204.011719 202.167969 204.722656 203.039062 204.722656 C 203.910156 204.722656 204.621094 204.011719 204.621094 203.140625 " fill-opacity="1" fill-rule="nonzero"/><path fill="#e1e1e1" d="M 213.574219 203.140625 C 213.574219 202.269531 212.867188 201.558594 211.992188 201.558594 C 211.121094 201.558594 210.414062 202.269531 210.414062 203.140625 C 210.414062 204.011719 211.121094 204.722656 211.992188 204.722656 C 212.867188 204.722656 213.574219 204.011719 213.574219 203.140625 " fill-opacity="1" fill-rule="nonzero"/><g clip-path="url(#48cca93caf)"><path fill="#e1e1e1" d="M 222.445312 203.140625 C 222.445312 202.269531 221.734375 201.558594 220.863281 201.558594 C 219.992188 201.558594 219.28125 202.269531 219.28125 203.140625 C 219.28125 204.011719 219.992188 204.722656 220.863281 204.722656 C 221.734375 204.722656 222.445312 204.011719 222.445312 203.140625 " fill-opacity="1" fill-rule="nonzero"/></g><path fill="#e1e1e1" d="M 194.171875 201.558594 C 193.296875 201.558594 192.589844 202.269531 192.589844 203.140625 C 192.589844 204.011719 193.296875 204.722656 194.171875 204.722656 C 195.042969 204.722656 195.75 204.011719 195.75 203.140625 C 195.75 202.269531 195.042969 201.558594 194.171875 201.558594 " fill-opacity="1" fill-rule="nonzero"/><path fill="#e1e1e1" d="M 185.300781 201.558594 C 184.429688 201.558594 183.722656 202.269531 183.722656 203.140625 C 183.722656 204.011719 184.429688 204.722656 185.300781 204.722656 C 186.175781 204.722656 186.882812 204.011719 186.882812 203.140625 C 186.882812 202.269531 186.175781 201.558594 185.300781 201.558594 " fill-opacity="1" fill-rule="nonzero"/><path fill="#e1e1e1" d="M 204.621094 212.007812 C 204.621094 211.136719 203.910156 210.425781 203.039062 210.425781 C 202.167969 210.425781 201.457031 211.136719 201.457031 212.007812 C 201.457031 212.878906 202.167969 213.589844 203.039062 213.589844 C 203.910156 213.589844 204.621094 212.878906 204.621094 212.007812 " fill-opacity="1" fill-rule="nonzero"/><path fill="#e1e1e1" d="M 213.574219 212.007812 C 213.574219 211.136719 212.867188 210.425781 211.992188 210.425781 C 211.121094 210.425781 210.414062 211.136719 210.414062 212.007812 C 210.414062 212.878906 211.121094 213.589844 211.992188 213.589844 C 212.867188 213.589844 213.574219 212.878906 213.574219 212.007812 " fill-opacity="1" fill-rule="nonzero"/><g clip-path="url(#9ac45cf99c)"><path fill="#e1e1e1" d="M 222.445312 212.007812 C 222.445312 211.136719 221.734375 210.425781 220.863281 210.425781 C 219.992188 210.425781 219.28125 211.136719 219.28125 212.007812 C 219.28125 212.878906 219.992188 213.589844 220.863281 213.589844 C 221.734375 213.589844 222.445312 212.878906 222.445312 212.007812 " fill-opacity="1" fill-rule="nonzero"/></g><path fill="#e1e1e1" d="M 194.171875 210.425781 C 193.296875 210.425781 192.589844 211.136719 192.589844 212.007812 C 192.589844 212.878906 193.296875 213.589844 194.171875 213.589844 C 195.042969 213.589844 195.75 212.878906 195.75 212.007812 C 195.75 211.136719 195.042969 210.425781 194.171875 210.425781 " fill-opacity="1" fill-rule="nonzero"/><path fill="#e1e1e1" d="M 185.300781 210.425781 C 184.429688 210.425781 183.722656 211.136719 183.722656 212.007812 C 183.722656 212.878906 184.429688 213.589844 185.300781 213.589844 C 186.175781 213.589844 186.882812 212.878906 186.882812 212.007812 C 186.882812 211.136719 186.175781 210.425781 185.300781 210.425781 " fill-opacity="1" fill-rule="nonzero"/><g clip-path="url(#715f1fff6a)"><path fill="#e1e1e1" d="M 204.621094 220.875 C 204.621094 220.003906 203.910156 219.292969 203.039062 219.292969 C 202.167969 219.292969 201.457031 220.003906 201.457031 220.875 C 201.457031 221.746094 202.167969 222.457031 203.039062 222.457031 C 203.910156 222.457031 204.621094 221.746094 204.621094 220.875 " fill-opacity="1" fill-rule="nonzero"/></g><g clip-path="url(#d0a51a3af5)"><path fill="#e1e1e1" d="M 213.574219 220.875 C 213.574219 220.003906 212.867188 219.292969 211.992188 219.292969 C 211.121094 219.292969 210.414062 220.003906 210.414062 220.875 C 210.414062 221.746094 211.121094 222.457031 211.992188 222.457031 C 212.867188 222.457031 213.574219 221.746094 213.574219 220.875 " fill-opacity="1" fill-rule="nonzero"/></g><g clip-path="url(#d504b92f93)"><path fill="#e1e1e1" d="M 222.445312 220.875 C 222.445312 220.003906 221.734375 219.292969 220.863281 219.292969 C 219.992188 219.292969 219.28125 220.003906 219.28125 220.875 C 219.28125 221.746094 219.992188 222.457031 220.863281 222.457031 C 221.734375 222.457031 222.445312 221.746094 222.445312 220.875 " fill-opacity="1" fill-rule="nonzero"/></g><g clip-path="url(#267627a11d)"><path fill="#e1e1e1" d="M 194.171875 219.292969 C 193.296875 219.292969 192.589844 220.003906 192.589844 220.875 C 192.589844 221.746094 193.296875 222.457031 194.171875 222.457031 C 195.042969 222.457031 195.75 221.746094 195.75 220.875 C 195.75 220.003906 195.042969 219.292969 194.171875 219.292969 " fill-opacity="1" fill-rule="nonzero"/></g><g clip-path="url(#add2b89dbc)"><path fill="#e1e1e1" d="M 185.300781 219.292969 C 184.429688 219.292969 183.722656 220.003906 183.722656 220.875 C 183.722656 221.746094 184.429688 222.457031 185.300781 222.457031 C 186.175781 222.457031 186.882812 221.746094 186.882812 220.875 C 186.882812 220.003906 186.175781 219.292969 185.300781 219.292969 " fill-opacity="1" fill-rule="nonzero"/></g><g clip-path="url(#a19d5e3b92)"><path fill="#e1e1e1" d="M 178.015625 194.273438 C 178.015625 193.398438 177.304688 192.691406 176.433594 192.691406 C 175.5625 192.691406 174.851562 193.398438 174.851562 194.273438 C 174.851562 195.144531 175.5625 195.851562 176.433594 195.851562 C 177.304688 195.851562 178.015625 195.144531 178.015625 194.273438 " fill-opacity="1" fill-rule="nonzero"/></g><g clip-path="url(#a729cd02c2)"><path fill="#e1e1e1" d="M 167.566406 192.691406 C 166.695312 192.691406 165.984375 193.398438 165.984375 194.273438 C 165.984375 195.144531 166.695312 195.851562 167.566406 195.851562 C 168.4375 195.851562 169.148438 195.144531 169.148438 194.273438 C 169.148438 193.398438 168.4375 192.691406 167.566406 192.691406 " fill-opacity="1" fill-rule="nonzero"/></g><path fill="#e1e1e1" d="M 178.015625 203.140625 C 178.015625 202.269531 177.304688 201.558594 176.433594 201.558594 C 175.5625 201.558594 174.851562 202.269531 174.851562 203.140625 C 174.851562 204.011719 175.5625 204.722656 176.433594 204.722656 C 177.304688 204.722656 178.015625 204.011719 178.015625 203.140625 " fill-opacity="1" fill-rule="nonzero"/><g clip-path="url(#a9bd892c71)"><path fill="#e1e1e1" d="M 167.566406 201.558594 C 166.695312 201.558594 165.984375 202.269531 165.984375 203.140625 C 165.984375 204.011719 166.695312 204.722656 167.566406 204.722656 C 168.4375 204.722656 169.148438 204.011719 169.148438 203.140625 C 169.148438 202.269531 168.4375 201.558594 167.566406 201.558594 " fill-opacity="1" fill-rule="nonzero"/></g><path fill="#e1e1e1" d="M 178.015625 212.007812 C 178.015625 211.136719 177.304688 210.425781 176.433594 210.425781 C 175.5625 210.425781 174.851562 211.136719 174.851562 212.007812 C 174.851562 212.878906 175.5625 213.589844 176.433594 213.589844 C 177.304688 213.589844 178.015625 212.878906 178.015625 212.007812 " fill-opacity="1" fill-rule="nonzero"/><g clip-path="url(#00bce3a91b)"><path fill="#e1e1e1" d="M 167.566406 210.425781 C 166.695312 210.425781 165.984375 211.136719 165.984375 212.007812 C 165.984375 212.878906 166.695312 213.589844 167.566406 213.589844 C 168.4375 213.589844 169.148438 212.878906 169.148438 212.007812 C 169.148438 211.136719 168.4375 210.425781 167.566406 210.425781 " fill-opacity="1" fill-rule="nonzero"/></g><g clip-path="url(#92d847c990)"><path fill="#e1e1e1" d="M 178.015625 220.875 C 178.015625 220.003906 177.304688 219.292969 176.433594 219.292969 C 175.5625 219.292969 174.851562 220.003906 174.851562 220.875 C 174.851562 221.746094 175.5625 222.457031 176.433594 222.457031 C 177.304688 222.457031 178.015625 221.746094 178.015625 220.875 " fill-opacity="1" fill-rule="nonzero"/></g><g clip-path="url(#d1b72ff97f)"><path fill="#e1e1e1" d="M 167.566406 219.292969 C 166.695312 219.292969 165.984375 220.003906 165.984375 220.875 C 165.984375 221.746094 166.695312 222.457031 167.566406 222.457031 C 168.4375 222.457031 169.148438 221.746094 169.148438 220.875 C 169.148438 220.003906 168.4375 219.292969 167.566406 219.292969 " fill-opacity="1" fill-rule="nonzero"/></g><g clip-path="url(#b1f98100eb)"><path fill="#bf2026" d="M 205.5625 195.210938 C 205.5625 194.339844 204.851562 193.632812 203.980469 193.632812 C 203.105469 193.632812 202.398438 194.339844 202.398438 195.210938 C 202.398438 196.085938 203.105469 196.792969 203.980469 196.792969 C 204.851562 196.792969 205.5625 196.085938 205.5625 195.210938 " fill-opacity="1" fill-rule="nonzero"/></g><g clip-path="url(#f8a350083a)"><path fill="#bf2026" d="M 214.515625 195.210938 C 214.515625 194.339844 213.808594 193.632812 212.933594 193.632812 C 212.0625 193.632812 211.355469 194.339844 211.355469 195.210938 C 211.355469 196.085938 212.0625 196.792969 212.933594 196.792969 C 213.808594 196.792969 214.515625 196.085938 214.515625 195.210938 " fill-opacity="1" fill-rule="nonzero"/></g><g clip-path="url(#e0a0ec6ae3)"><path fill="#bf2026" d="M 223.382812 195.210938 C 223.382812 194.339844 222.675781 193.632812 221.804688 193.632812 C 220.929688 193.632812 220.222656 194.339844 220.222656 195.210938 C 220.222656 196.085938 220.929688 196.792969 221.804688 196.792969 C 222.675781 196.792969 223.382812 196.085938 223.382812 195.210938 " fill-opacity="1" fill-rule="nonzero"/></g><g clip-path="url(#c41d73847d)"><path fill="#bf2026" d="M 195.109375 193.632812 C 194.238281 193.632812 193.53125 194.339844 193.53125 195.210938 C 193.53125 196.085938 194.238281 196.792969 195.109375 196.792969 C 195.984375 196.792969 196.691406 196.085938 196.691406 195.210938 C 196.691406 194.339844 195.984375 193.632812 195.109375 193.632812 " fill-opacity="1" fill-rule="nonzero"/></g><g clip-path="url(#4265e28314)"><path fill="#bf2026" d="M 186.242188 193.632812 C 185.371094 193.632812 184.660156 194.339844 184.660156 195.210938 C 184.660156 196.085938 185.371094 196.792969 186.242188 196.792969 C 187.113281 196.792969 187.824219 196.085938 187.824219 195.210938 C 187.824219 194.339844 187.113281 193.632812 186.242188 193.632812 " fill-opacity="1" fill-rule="nonzero"/></g><path fill="#bf2026" d="M 205.5625 204.082031 C 205.5625 203.210938 204.851562 202.5 203.980469 202.5 C 203.105469 202.5 202.398438 203.210938 202.398438 204.082031 C 202.398438 204.953125 203.105469 205.664062 203.980469 205.664062 C 204.851562 205.664062 205.5625 204.953125 205.5625 204.082031 " fill-opacity="1" fill-rule="nonzero"/><path fill="#bf2026" d="M 214.515625 204.082031 C 214.515625 203.210938 213.808594 202.5 212.933594 202.5 C 212.0625 202.5 211.355469 203.210938 211.355469 204.082031 C 211.355469 204.953125 212.0625 205.664062 212.933594 205.664062 C 213.808594 205.664062 214.515625 204.953125 214.515625 204.082031 " fill-opacity="1" fill-rule="nonzero"/><g clip-path="url(#c3b9366e05)"><path fill="#bf2026" d="M 223.382812 204.082031 C 223.382812 203.210938 222.675781 202.5 221.804688 202.5 C 220.929688 202.5 220.222656 203.210938 220.222656 204.082031 C 220.222656 204.953125 220.929688 205.664062 221.804688 205.664062 C 222.675781 205.664062 223.382812 204.953125 223.382812 204.082031 " fill-opacity="1" fill-rule="nonzero"/></g><path fill="#bf2026" d="M 195.109375 202.5 C 194.238281 202.5 193.53125 203.210938 193.53125 204.082031 C 193.53125 204.953125 194.238281 205.664062 195.109375 205.664062 C 195.984375 205.664062 196.691406 204.953125 196.691406 204.082031 C 196.691406 203.210938 195.984375 202.5 195.109375 202.5 " fill-opacity="1" fill-rule="nonzero"/><path fill="#bf2026" d="M 186.242188 202.5 C 185.371094 202.5 184.660156 203.210938 184.660156 204.082031 C 184.660156 204.953125 185.371094 205.664062 186.242188 205.664062 C 187.113281 205.664062 187.824219 204.953125 187.824219 204.082031 C 187.824219 203.210938 187.113281 202.5 186.242188 202.5 " fill-opacity="1" fill-rule="nonzero"/><path fill="#bf2026" d="M 205.5625 212.949219 C 205.5625 212.078125 204.851562 211.367188 203.980469 211.367188 C 203.105469 211.367188 202.398438 212.078125 202.398438 212.949219 C 202.398438 213.820312 203.105469 214.53125 203.980469 214.53125 C 204.851562 214.53125 205.5625 213.820312 205.5625 212.949219 " fill-opacity="1" fill-rule="nonzero"/><path fill="#bf2026" d="M 214.515625 212.949219 C 214.515625 212.078125 213.808594 211.367188 212.933594 211.367188 C 212.0625 211.367188 211.355469 212.078125 211.355469 212.949219 C 211.355469 213.820312 212.0625 214.53125 212.933594 214.53125 C 213.808594 214.53125 214.515625 213.820312 214.515625 212.949219 " fill-opacity="1" fill-rule="nonzero"/><g clip-path="url(#0744138d6e)"><path fill="#bf2026" d="M 223.382812 212.949219 C 223.382812 212.078125 222.675781 211.367188 221.804688 211.367188 C 220.929688 211.367188 220.222656 212.078125 220.222656 212.949219 C 220.222656 213.820312 220.929688 214.53125 221.804688 214.53125 C 222.675781 214.53125 223.382812 213.820312 223.382812 212.949219 " fill-opacity="1" fill-rule="nonzero"/></g><path fill="#bf2026" d="M 195.109375 211.367188 C 194.238281 211.367188 193.53125 212.078125 193.53125 212.949219 C 193.53125 213.820312 194.238281 214.53125 195.109375 214.53125 C 195.984375 214.53125 196.691406 213.820312 196.691406 212.949219 C 196.691406 212.078125 195.984375 211.367188 195.109375 211.367188 " fill-opacity="1" fill-rule="nonzero"/><path fill="#bf2026" d="M 186.242188 211.367188 C 185.371094 211.367188 184.660156 212.078125 184.660156 212.949219 C 184.660156 213.820312 185.371094 214.53125 186.242188 214.53125 C 187.113281 214.53125 187.824219 213.820312 187.824219 212.949219 C 187.824219 212.078125 187.113281 211.367188 186.242188 211.367188 " fill-opacity="1" fill-rule="nonzero"/><g clip-path="url(#6cccbe530f)"><path fill="#bf2026" d="M 205.5625 221.816406 C 205.5625 220.945312 204.851562 220.234375 203.980469 220.234375 C 203.105469 220.234375 202.398438 220.945312 202.398438 221.816406 C 202.398438 222.6875 203.105469 223.398438 203.980469 223.398438 C 204.851562 223.398438 205.5625 222.6875 205.5625 221.816406 " fill-opacity="1" fill-rule="nonzero"/></g><g clip-path="url(#9a5625f819)"><path fill="#bf2026" d="M 214.515625 221.816406 C 214.515625 220.945312 213.808594 220.234375 212.933594 220.234375 C 212.0625 220.234375 211.355469 220.945312 211.355469 221.816406 C 211.355469 222.6875 212.0625 223.398438 212.933594 223.398438 C 213.808594 223.398438 214.515625 222.6875 214.515625 221.816406 " fill-opacity="1" fill-rule="nonzero"/></g><g clip-path="url(#bbf53df3e5)"><path fill="#bf2026" d="M 223.382812 221.816406 C 223.382812 220.945312 222.675781 220.234375 221.804688 220.234375 C 220.929688 220.234375 220.222656 220.945312 220.222656 221.816406 C 220.222656 222.6875 220.929688 223.398438 221.804688 223.398438 C 222.675781 223.398438 223.382812 222.6875 223.382812 221.816406 " fill-opacity="1" fill-rule="nonzero"/></g><g clip-path="url(#4dc5459a7a)"><path fill="#bf2026" d="M 195.109375 220.234375 C 194.238281 220.234375 193.53125 220.945312 193.53125 221.816406 C 193.53125 222.6875 194.238281 223.398438 195.109375 223.398438 C 195.984375 223.398438 196.691406 222.6875 196.691406 221.816406 C 196.691406 220.945312 195.984375 220.234375 195.109375 220.234375 " fill-opacity="1" fill-rule="nonzero"/></g><g clip-path="url(#2990c6acd8)"><path fill="#bf2026" d="M 186.242188 220.234375 C 185.371094 220.234375 184.660156 220.945312 184.660156 221.816406 C 184.660156 222.6875 185.371094 223.398438 186.242188 223.398438 C 187.113281 223.398438 187.824219 222.6875 187.824219 221.816406 C 187.824219 220.945312 187.113281 220.234375 186.242188 220.234375 " fill-opacity="1" fill-rule="nonzero"/></g><g clip-path="url(#731f89ddf6)"><path fill="#bf2026" d="M 178.957031 195.210938 C 178.957031 194.339844 178.246094 193.632812 177.375 193.632812 C 176.503906 193.632812 175.792969 194.339844 175.792969 195.210938 C 175.792969 196.085938 176.503906 196.792969 177.375 196.792969 C 178.246094 196.792969 178.957031 196.085938 178.957031 195.210938 " fill-opacity="1" fill-rule="nonzero"/></g><g clip-path="url(#de634ccbec)"><path fill="#bf2026" d="M 168.507812 193.632812 C 167.636719 193.632812 166.925781 194.339844 166.925781 195.210938 C 166.925781 196.085938 167.636719 196.792969 168.507812 196.792969 C 169.378906 196.792969 170.089844 196.085938 170.089844 195.210938 C 170.089844 194.339844 169.378906 193.632812 168.507812 193.632812 " fill-opacity="1" fill-rule="nonzero"/></g><path fill="#bf2026" d="M 178.957031 204.082031 C 178.957031 203.210938 178.246094 202.5 177.375 202.5 C 176.503906 202.5 175.792969 203.210938 175.792969 204.082031 C 175.792969 204.953125 176.503906 205.664062 177.375 205.664062 C 178.246094 205.664062 178.957031 204.953125 178.957031 204.082031 " fill-opacity="1" fill-rule="nonzero"/><g clip-path="url(#095340ecfc)"><path fill="#bf2026" d="M 168.507812 202.5 C 167.636719 202.5 166.925781 203.210938 166.925781 204.082031 C 166.925781 204.953125 167.636719 205.664062 168.507812 205.664062 C 169.378906 205.664062 170.089844 204.953125 170.089844 204.082031 C 170.089844 203.210938 169.378906 202.5 168.507812 202.5 " fill-opacity="1" fill-rule="nonzero"/></g><path fill="#bf2026" d="M 178.957031 212.949219 C 178.957031 212.078125 178.246094 211.367188 177.375 211.367188 C 176.503906 211.367188 175.792969 212.078125 175.792969 212.949219 C 175.792969 213.820312 176.503906 214.53125 177.375 214.53125 C 178.246094 214.53125 178.957031 213.820312 178.957031 212.949219 " fill-opacity="1" fill-rule="nonzero"/><g clip-path="url(#91b7402250)"><path fill="#bf2026" d="M 168.507812 211.367188 C 167.636719 211.367188 166.925781 212.078125 166.925781 212.949219 C 166.925781 213.820312 167.636719 214.53125 168.507812 214.53125 C 169.378906 214.53125 170.089844 213.820312 170.089844 212.949219 C 170.089844 212.078125 169.378906 211.367188 168.507812 211.367188 " fill-opacity="1" fill-rule="nonzero"/></g><g clip-path="url(#48acea80a0)"><path fill="#bf2026" d="M 178.957031 221.816406 C 178.957031 220.945312 178.246094 220.234375 177.375 220.234375 C 176.503906 220.234375 175.792969 220.945312 175.792969 221.816406 C 175.792969 222.6875 176.503906 223.398438 177.375 223.398438 C 178.246094 223.398438 178.957031 222.6875 178.957031 221.816406 " fill-opacity="1" fill-rule="nonzero"/></g><g clip-path="url(#9d9185f6da)"><path fill="#bf2026" d="M 168.507812 220.234375 C 167.636719 220.234375 166.925781 220.945312 166.925781 221.816406 C 166.925781 222.6875 167.636719 223.398438 168.507812 223.398438 C 169.378906 223.398438 170.089844 222.6875 170.089844 221.816406 C 170.089844 220.945312 169.378906 220.234375 168.507812 220.234375 " fill-opacity="1" fill-rule="nonzero"/></g></svg>