<svg version="1.2" xmlns="http://www.w3.org/2000/svg" viewBox="0 0 576 319" width="576" height="319">
	<title>red-lines-svg</title>
	<defs>
		<clipPath clipPathUnits="userSpaceOnUse" id="cp1">
			<path d="m576.47-0.65l0.36 319-576 0.65-0.36-319z"/>
		</clipPath>
	</defs>
	<style>
		.s0 { fill: none;stroke: #bf2026;stroke-miterlimit:10 } 
	</style>
	<g id="Clip-Path" clip-path="url(#cp1)">
		<g id="Layer" style="opacity: .5">
			<path id="Layer" fill-rule="evenodd" class="s0" d="m546.4-413.7c-2.1 52.4-7.4 104.6-16.1 156.4-12.1 72.7-21.5 89.6-25 145.8-3.1 47.4-5.9 101.4 17.2 162.9 14.2 37.4 35.5 71.7 62.8 101"/>
			<path id="Layer" fill-rule="evenodd" class="s0" d="m522.8-414.5c-5.5 69.8-13.6 126-20.1 164.5-10.2 60.4-15.8 74.8-19.4 118.2-4 47.3-8.2 97.4 6.7 153.1 8 30.5 29.8 92.6 94.5 153.8"/>
			<path id="Layer" fill-rule="evenodd" class="s0" d="m498.4-412.8c-2.7 33.8-8 86.8-18.5 151.5-14.3 87.1-23.1 103-25.1 155.5-1.7 45.3-4 108.4 27.9 176.7 28.1 60.3 71 99.2 102.6 122.1"/>
			<path id="Layer" fill-rule="evenodd" class="s0" d="m475.6-413.6c-2.3 28.5-7 74.3-16.9 130.3-13.8 78.1-23.2 94.3-27.5 149.1-2.8 36-6.4 87.1 9.9 149.8 8.6 32.9 21.7 81.1 62 127.8 21.8 25.2 48 46.2 77.4 61.8"/>
			<path id="Layer" fill-rule="evenodd" class="s0" d="m452-410.3c-1.9 19.9-5.3 50-11.2 86.3-12.1 73.1-21.5 91.6-29.2 136.1-6 34.7-18.7 112.1 5.1 201.1 9.4 35.1 24 87.5 69.3 136.8 26.7 28.9 59.2 51.9 95.3 67.5"/>
			<path id="Layer" fill-rule="evenodd" class="s0" d="m427.6-412.8c-0.1 28.6-3.3 57-9.6 84.8-3.6 15.9-7.2 27.1-9 32.5-1.4 4.6-25.7 83.9-30.7 159.7-1.8 27.6-5.2 88.1 17.3 160.4 10.3 33.3 24.6 77.4 62.8 121.3 43.4 50 94.2 72.5 121.3 82.2"/>
			<path id="Layer" fill-rule="evenodd" class="s0" d="m402.4-414.4c-0.6 22.2-2.8 44.2-6.4 66-6.4 38-14.6 59.5-21.9 85.6-1.3 4.7-17.5 63.5-20.2 131.1-1.2 29.9-2.9 82.2 15.6 145.8 9.3 31.9 24.3 83.4 67.7 133.4 49.6 57.3 109.5 81.6 142.4 91.9"/>
			<path id="Layer" fill-rule="evenodd" class="s0" d="m380.5-412.7c-2 15.2-5.5 38.2-11.4 66-8.8 42-16.1 61.8-23.4 90.4-6.2 24.2-16.9 72.3-18.6 127.1-1 31.3-2.2 82.4 16.4 144.1 8.4 27.8 25 80.7 69.3 131.9 59.3 68.5 133 93.3 167.7 102.4"/>
			<path id="Layer" fill-rule="evenodd" class="s0" d="m354.4-413.5c-2 21.6-5.3 43.1-9.7 64.4-8.5 40.9-17.8 64.1-25.1 88-18.8 62.1-19.3 115.6-19.3 139.2-0.2 82.2 21.6 143.2 26.2 155.6 11.8 32.1 31.5 84 79 132.6 63.6 65.1 139.4 85.6 175.8 92.7"/>
			<path id="Layer" fill-rule="evenodd" class="s0" d="m332.5-414.3c-3.4 17.5-8.9 43.6-17 75-13.3 50.9-21.9 70.4-29.2 98.5-16 61.2-13.2 112.6-11.2 142.6 2.5 39.4 7.5 106.6 47.3 180.7 12.7 23.5 39.9 72.9 96.2 116.4 63.9 49.4 129.3 63.5 161.9 68.2"/>
			<path id="Layer" fill-rule="evenodd" class="s0" d="m308.1-412.6c-4.7 17.9-12.1 45.5-21.9 79-17.4 59.4-22.3 68.5-28.4 93.7-14.2 59.4-11 108.6-8.8 138.5 5.8 78.5 28.4 135 33.5 147.4 14.7 35.6 35.1 83.9 82.3 129.4 39.1 37.6 78.3 55.8 100.2 65.8 36.6 16.7 75.6 27.6 115.5 32.5"/>
			<path id="Layer" fill-rule="evenodd" class="s0" d="m284.4-413.4c-4.8 22.7-11.3 45-19.4 66.8-7.5 20.2-12.2 28.7-18.7 45.6-9.7 26.7-17 54.3-21.9 82.3-9.7 58.1-2.8 106.3 2.6 142.5 5.8 38 13.5 89.1 43.3 149 14.6 29.2 38.4 75.7 88 118 42.3 36 83.7 52.1 113.2 63.4 35.1 13.4 71.7 22.4 109 26.8"/>
			<path id="Layer" fill-rule="evenodd" class="s0" d="m260.9-412.6c-6.3 18.2-16.1 45.7-29.2 79.1-11.8 29.9-15.5 37.1-20.3 50.5-16.1 44.9-17 83.2-17.8 115.6-1.1 51.5 5.5 102.9 19.7 152.3 12.4 43.1 31.7 110 89.7 174.2 10.5 11.6 48 51.7 110.7 83.8 51.4 26.3 107.8 41.3 165.5 44.1"/>
			<path id="Layer" fill-rule="evenodd" class="s0" d="m237.3-412.5c-16.4 28.7-30.5 58.7-42.2 89.6-4 10.6-17 45-24.3 78.7-19.2 88.3 1.7 165.5 15.4 216.1 11.6 43 25.2 91.8 62 146.6 15.2 22.6 45.5 67 101.5 104.6 53.3 35.9 103.3 48 138.4 56.4 30.2 7.2 61.1 11.7 92.2 13.4"/>
			<path id="Layer" fill-rule="evenodd" class="s0" d="m213.7-411.7c-5 8.9-12.6 22.5-21.9 39.1-21 37.3-23.5 41.5-26.8 48.1-15.2 30.3-19.8 56.9-23.5 79-10.5 61.7-1.9 113.9 5 153.1 14.3 81.6 41.6 139.9 52.3 161.2 17.8 36 35.6 71.6 72.5 109.1 40.7 41.4 82.1 62 103.4 72.4 44.4 21.6 82.1 29.8 113.9 36.5 30.2 6.4 60.9 10.4 91.7 12.1"/>
			<path id="Layer" fill-rule="evenodd" class="s0" d="m190.1-412.5c-7.2 10.6-18.2 26.8-31.7 46.5-20.7 30.2-23.2 33.6-26.8 39.9-16.6 29.1-20.4 56.3-23.5 79.9-5.5 42.3-0.8 74.1 5.8 117.2 6.5 41 16.3 81.3 29.5 120.6 11.2 33.7 22.7 68.5 47.3 110.7 12.6 21.7 29.5 50.4 60.2 81.4 23.8 23.6 50.6 43.9 79.8 60.2 37.1 20.7 68 29.6 95.3 37.3 49.9 14 101.4 21.6 153.2 22.6"/>
			<path id="Layer" fill-rule="evenodd" class="s0" d="m165.7-413c-10.1 11.1-24.5 27.4-41.2 47.8-17.6 21.6-26.4 32.4-32.5 42.4-10.5 17.4-19.3 42.3-16.1 107.5 2 39.4 7.9 86.6 23.5 144.4 9.2 34.5 23.9 87.7 57.6 150.9 15.2 28.4 31.6 58.7 62 92.8 37.7 42.4 74.5 65.6 82.5 70.5 45.5 28.1 85.2 37.9 128.6 48.2 48.8 11.6 98.9 17.3 149.1 17.2"/>
			<path id="Layer" fill-rule="evenodd" class="s0" d="m141.3-412.4c-20.2 13.1-38.7 28.6-55.3 46.1-14 14.9-25.8 27.5-34.6 46.8-10.9 24.1-11.5 46.4-10.8 67.9 1.7 45 8.3 89.8 19.7 133.5 16.2 61.3 30.2 114.4 63.6 181.3 19 37.9 35.8 70.9 68.5 108.5 15.1 17.4 44.4 50.5 92.3 78.6 42.4 24.9 78.4 33.6 122.6 43.9 56.2 13 113.7 19.3 171.4 18.8"/>
			<path id="Layer" fill-rule="evenodd" class="s0" d="m116.9-413.2c-25.9 11-50.1 25.8-71.5 44-14 11.9-25.1 21.3-33.4 35.1-17.6 29.5-12.3 62.4-0.6 115.7 15 68.2 22.4 102.3 39.2 153 19 57.6 32.1 96.7 58.7 146.6 17.8 33.4 35.1 65.3 67.6 100.9 39.6 43.3 78.4 66.7 89.6 73.2 43.4 25.2 80.6 34.7 113.1 43 46.3 11.8 83.6 14.9 113.6 17.2 28.2 2.2 56.6 2.8 84.9 2.1"/>
		</g>
	</g>
</svg>