<?xml version="1.0" encoding="UTF-8"?>
<svg id="Layer_1" data-name="Layer 1" xmlns="http://www.w3.org/2000/svg" viewBox="0 0 500 500">
  <path d="M426.2,335.91l-70.59-70.59c-8.82-8.82-23.12-8.82-31.94,0l-36.85,36.85c-41.42-28.16-76.79-63.24-105.31-104.35l37.33-37.33c8.82-8.82,8.82-23.12,0-31.94l-70.59-70.59c-8.82-8.82-23.12-8.82-31.94,0l-42.85,42.85c-24.14,24.14-24.14,63.29,0,87.44l58.82,58.82h0l104.83,104.83h0l58.82,58.82c24.14,24.14,63.29,24.14,87.44,0l42.85-42.85c8.82-8.82,8.82-23.12,0-31.94l-.02-.02Z"/>
</svg>