<svg xmlns="http://www.w3.org/2000/svg" xmlns:xlink="http://www.w3.org/1999/xlink" width="300" zoomAndPan="magnify" viewBox="0 0 224.87999 225" height="300" preserveAspectRatio="xMidYMid meet" version="1.0"><defs><clipPath id="3b26cf9e1c"><path d="M 37 2.730469 L 41 2.730469 L 41 6 L 37 6 Z M 37 2.730469 " clip-rule="nonzero"/></clipPath><clipPath id="ebe68e9668"><path d="M 46 2.730469 L 50 2.730469 L 50 6 L 46 6 Z M 46 2.730469 " clip-rule="nonzero"/></clipPath><clipPath id="b1b27115a2"><path d="M 55.308594 2.769531 L 58.253906 2.769531 L 58.253906 6 L 55.308594 6 Z M 55.308594 2.769531 " clip-rule="nonzero"/></clipPath><clipPath id="660cf5e279"><path d="M 28 2.730469 L 32 2.730469 L 32 6 L 28 6 Z M 28 2.730469 " clip-rule="nonzero"/></clipPath><clipPath id="365ef2e2dc"><path d="M 19 2.730469 L 23 2.730469 L 23 6 L 19 6 Z M 19 2.730469 " clip-rule="nonzero"/></clipPath><clipPath id="851f4d056e"><path d="M 55.308594 11.578125 L 58.253906 11.578125 L 58.253906 14.84375 L 55.308594 14.84375 Z M 55.308594 11.578125 " clip-rule="nonzero"/></clipPath><clipPath id="ae0a3445e2"><path d="M 55.308594 20.386719 L 58.253906 20.386719 L 58.253906 23.792969 L 55.308594 23.792969 Z M 55.308594 20.386719 " clip-rule="nonzero"/></clipPath><clipPath id="195b783245"><path d="M 37.40625 29.335938 L 40.675781 29.335938 L 40.675781 32.535156 L 37.40625 32.535156 Z M 37.40625 29.335938 " clip-rule="nonzero"/></clipPath><clipPath id="d78cc2e38e"><path d="M 46.355469 29.335938 L 49.765625 29.335938 L 49.765625 32.535156 L 46.355469 32.535156 Z M 46.355469 29.335938 " clip-rule="nonzero"/></clipPath><clipPath id="611657087c"><path d="M 55.308594 29.335938 L 58.253906 29.335938 L 58.253906 32.535156 L 55.308594 32.535156 Z M 55.308594 29.335938 " clip-rule="nonzero"/></clipPath><clipPath id="8440d8fab5"><path d="M 28.601562 29.335938 L 31.867188 29.335938 L 31.867188 32.535156 L 28.601562 32.535156 Z M 28.601562 29.335938 " clip-rule="nonzero"/></clipPath><clipPath id="39919d120a"><path d="M 19.648438 29.335938 L 23 29.335938 L 23 32.535156 L 19.648438 32.535156 Z M 19.648438 29.335938 " clip-rule="nonzero"/></clipPath><clipPath id="dd2ffbfdc0"><path d="M 10 2.730469 L 15 2.730469 L 15 6 L 10 6 Z M 10 2.730469 " clip-rule="nonzero"/></clipPath><clipPath id="1591623980"><path d="M 2.035156 2.730469 L 6 2.730469 L 6 6 L 2.035156 6 Z M 2.035156 2.730469 " clip-rule="nonzero"/></clipPath><clipPath id="803185ebe4"><path d="M 2.035156 11 L 6 11 L 6 15 L 2.035156 15 Z M 2.035156 11 " clip-rule="nonzero"/></clipPath><clipPath id="e9757526f4"><path d="M 2.035156 20 L 6 20 L 6 24 L 2.035156 24 Z M 2.035156 20 " clip-rule="nonzero"/></clipPath><clipPath id="2fb4551391"><path d="M 10.84375 29.335938 L 14.109375 29.335938 L 14.109375 32.535156 L 10.84375 32.535156 Z M 10.84375 29.335938 " clip-rule="nonzero"/></clipPath><clipPath id="c7a2455723"><path d="M 2.035156 29.335938 L 5.300781 29.335938 L 5.300781 32.535156 L 2.035156 32.535156 Z M 2.035156 29.335938 " clip-rule="nonzero"/></clipPath><clipPath id="e79a1457df"><path d="M 38 3.671875 L 42 3.671875 L 42 7 L 38 7 Z M 38 3.671875 " clip-rule="nonzero"/></clipPath><clipPath id="b7723a5b0c"><path d="M 47 3.671875 L 51 3.671875 L 51 7 L 47 7 Z M 47 3.671875 " clip-rule="nonzero"/></clipPath><clipPath id="a9739bb07e"><path d="M 56.246094 3.710938 L 59.195312 3.710938 L 59.195312 6.976562 L 56.246094 6.976562 Z M 56.246094 3.710938 " clip-rule="nonzero"/></clipPath><clipPath id="280f62e0f3"><path d="M 29 3.671875 L 33 3.671875 L 33 7 L 29 7 Z M 29 3.671875 " clip-rule="nonzero"/></clipPath><clipPath id="7cadb87fdb"><path d="M 20 3.671875 L 24 3.671875 L 24 7 L 20 7 Z M 20 3.671875 " clip-rule="nonzero"/></clipPath><clipPath id="3b10dfd54d"><path d="M 56.246094 12.519531 L 59.195312 12.519531 L 59.195312 15.785156 L 56.246094 15.785156 Z M 56.246094 12.519531 " clip-rule="nonzero"/></clipPath><clipPath id="485bfec10b"><path d="M 56.246094 21.328125 L 59.195312 21.328125 L 59.195312 24.734375 L 56.246094 24.734375 Z M 56.246094 21.328125 " clip-rule="nonzero"/></clipPath><clipPath id="df8c61c43b"><path d="M 38.347656 30.277344 L 41.617188 30.277344 L 41.617188 33.476562 L 38.347656 33.476562 Z M 38.347656 30.277344 " clip-rule="nonzero"/></clipPath><clipPath id="04c1794c05"><path d="M 47.296875 30.277344 L 50.707031 30.277344 L 50.707031 33.476562 L 47.296875 33.476562 Z M 47.296875 30.277344 " clip-rule="nonzero"/></clipPath><clipPath id="59748c741a"><path d="M 56.246094 30.277344 L 59.195312 30.277344 L 59.195312 33.476562 L 56.246094 33.476562 Z M 56.246094 30.277344 " clip-rule="nonzero"/></clipPath><clipPath id="de0312a0fb"><path d="M 29.539062 30.277344 L 32.808594 30.277344 L 32.808594 33.476562 L 29.539062 33.476562 Z M 29.539062 30.277344 " clip-rule="nonzero"/></clipPath><clipPath id="163518d7ad"><path d="M 20.589844 30.277344 L 24 30.277344 L 24 33.476562 L 20.589844 33.476562 Z M 20.589844 30.277344 " clip-rule="nonzero"/></clipPath><clipPath id="1a2c7a3113"><path d="M 11 3.671875 L 16 3.671875 L 16 7 L 11 7 Z M 11 3.671875 " clip-rule="nonzero"/></clipPath><clipPath id="b9edba88b6"><path d="M 2.976562 3.671875 L 7 3.671875 L 7 7 L 2.976562 7 Z M 2.976562 3.671875 " clip-rule="nonzero"/></clipPath><clipPath id="584d8d27ea"><path d="M 2.976562 12 L 7 12 L 7 16 L 2.976562 16 Z M 2.976562 12 " clip-rule="nonzero"/></clipPath><clipPath id="e7d34834f1"><path d="M 2.976562 21 L 7 21 L 7 25 L 2.976562 25 Z M 2.976562 21 " clip-rule="nonzero"/></clipPath><clipPath id="45ceb0b840"><path d="M 11.785156 30.277344 L 15.050781 30.277344 L 15.050781 33.476562 L 11.785156 33.476562 Z M 11.785156 30.277344 " clip-rule="nonzero"/></clipPath><clipPath id="7db7805d06"><path d="M 2.976562 30.277344 L 6.242188 30.277344 L 6.242188 33.476562 L 2.976562 33.476562 Z M 2.976562 30.277344 " clip-rule="nonzero"/></clipPath></defs><g clip-path="url(#3b26cf9e1c)"><path fill="#e1e1e1" d="M 40.667969 4.351562 C 40.667969 3.480469 39.960938 2.769531 39.089844 2.769531 C 38.214844 2.769531 37.507812 3.480469 37.507812 4.351562 C 37.507812 5.222656 38.214844 5.933594 39.089844 5.933594 C 39.960938 5.933594 40.667969 5.222656 40.667969 4.351562 " fill-opacity="1" fill-rule="nonzero"/></g><g clip-path="url(#ebe68e9668)"><path fill="#e1e1e1" d="M 49.625 4.351562 C 49.625 3.480469 48.917969 2.769531 48.042969 2.769531 C 47.171875 2.769531 46.464844 3.480469 46.464844 4.351562 C 46.464844 5.222656 47.171875 5.933594 48.042969 5.933594 C 48.917969 5.933594 49.625 5.222656 49.625 4.351562 " fill-opacity="1" fill-rule="nonzero"/></g><g clip-path="url(#b1b27115a2)"><path fill="#e1e1e1" d="M 58.492188 4.351562 C 58.492188 3.480469 57.785156 2.769531 56.914062 2.769531 C 56.039062 2.769531 55.332031 3.480469 55.332031 4.351562 C 55.332031 5.222656 56.039062 5.933594 56.914062 5.933594 C 57.785156 5.933594 58.492188 5.222656 58.492188 4.351562 " fill-opacity="1" fill-rule="nonzero"/></g><g clip-path="url(#660cf5e279)"><path fill="#e1e1e1" d="M 30.21875 2.769531 C 29.347656 2.769531 28.640625 3.480469 28.640625 4.351562 C 28.640625 5.222656 29.347656 5.933594 30.21875 5.933594 C 31.09375 5.933594 31.800781 5.222656 31.800781 4.351562 C 31.800781 3.480469 31.09375 2.769531 30.21875 2.769531 " fill-opacity="1" fill-rule="nonzero"/></g><g clip-path="url(#365ef2e2dc)"><path fill="#e1e1e1" d="M 21.351562 2.769531 C 20.480469 2.769531 19.769531 3.480469 19.769531 4.351562 C 19.769531 5.222656 20.480469 5.933594 21.351562 5.933594 C 22.222656 5.933594 22.933594 5.222656 22.933594 4.351562 C 22.933594 3.480469 22.222656 2.769531 21.351562 2.769531 " fill-opacity="1" fill-rule="nonzero"/></g><path fill="#e1e1e1" d="M 40.667969 13.21875 C 40.667969 12.347656 39.960938 11.636719 39.089844 11.636719 C 38.214844 11.636719 37.507812 12.347656 37.507812 13.21875 C 37.507812 14.089844 38.214844 14.800781 39.089844 14.800781 C 39.960938 14.800781 40.667969 14.089844 40.667969 13.21875 " fill-opacity="1" fill-rule="nonzero"/><path fill="#e1e1e1" d="M 49.625 13.21875 C 49.625 12.347656 48.917969 11.636719 48.042969 11.636719 C 47.171875 11.636719 46.464844 12.347656 46.464844 13.21875 C 46.464844 14.089844 47.171875 14.800781 48.042969 14.800781 C 48.917969 14.800781 49.625 14.089844 49.625 13.21875 " fill-opacity="1" fill-rule="nonzero"/><g clip-path="url(#851f4d056e)"><path fill="#e1e1e1" d="M 58.492188 13.21875 C 58.492188 12.347656 57.785156 11.636719 56.914062 11.636719 C 56.039062 11.636719 55.332031 12.347656 55.332031 13.21875 C 55.332031 14.089844 56.039062 14.800781 56.914062 14.800781 C 57.785156 14.800781 58.492188 14.089844 58.492188 13.21875 " fill-opacity="1" fill-rule="nonzero"/></g><path fill="#e1e1e1" d="M 30.21875 11.636719 C 29.347656 11.636719 28.640625 12.347656 28.640625 13.21875 C 28.640625 14.089844 29.347656 14.800781 30.21875 14.800781 C 31.09375 14.800781 31.800781 14.089844 31.800781 13.21875 C 31.800781 12.347656 31.09375 11.636719 30.21875 11.636719 " fill-opacity="1" fill-rule="nonzero"/><path fill="#e1e1e1" d="M 21.351562 11.636719 C 20.480469 11.636719 19.769531 12.347656 19.769531 13.21875 C 19.769531 14.089844 20.480469 14.800781 21.351562 14.800781 C 22.222656 14.800781 22.933594 14.089844 22.933594 13.21875 C 22.933594 12.347656 22.222656 11.636719 21.351562 11.636719 " fill-opacity="1" fill-rule="nonzero"/><path fill="#e1e1e1" d="M 40.667969 22.089844 C 40.667969 21.214844 39.960938 20.507812 39.089844 20.507812 C 38.214844 20.507812 37.507812 21.214844 37.507812 22.089844 C 37.507812 22.960938 38.214844 23.667969 39.089844 23.667969 C 39.960938 23.667969 40.667969 22.960938 40.667969 22.089844 " fill-opacity="1" fill-rule="nonzero"/><path fill="#e1e1e1" d="M 49.625 22.089844 C 49.625 21.214844 48.917969 20.507812 48.042969 20.507812 C 47.171875 20.507812 46.464844 21.214844 46.464844 22.089844 C 46.464844 22.960938 47.171875 23.667969 48.042969 23.667969 C 48.917969 23.667969 49.625 22.960938 49.625 22.089844 " fill-opacity="1" fill-rule="nonzero"/><g clip-path="url(#ae0a3445e2)"><path fill="#e1e1e1" d="M 58.492188 22.089844 C 58.492188 21.214844 57.785156 20.507812 56.914062 20.507812 C 56.039062 20.507812 55.332031 21.214844 55.332031 22.089844 C 55.332031 22.960938 56.039062 23.667969 56.914062 23.667969 C 57.785156 23.667969 58.492188 22.960938 58.492188 22.089844 " fill-opacity="1" fill-rule="nonzero"/></g><path fill="#e1e1e1" d="M 30.21875 20.507812 C 29.347656 20.507812 28.640625 21.214844 28.640625 22.089844 C 28.640625 22.960938 29.347656 23.667969 30.21875 23.667969 C 31.09375 23.667969 31.800781 22.960938 31.800781 22.089844 C 31.800781 21.214844 31.09375 20.507812 30.21875 20.507812 " fill-opacity="1" fill-rule="nonzero"/><path fill="#e1e1e1" d="M 21.351562 20.507812 C 20.480469 20.507812 19.769531 21.214844 19.769531 22.089844 C 19.769531 22.960938 20.480469 23.667969 21.351562 23.667969 C 22.222656 23.667969 22.933594 22.960938 22.933594 22.089844 C 22.933594 21.214844 22.222656 20.507812 21.351562 20.507812 " fill-opacity="1" fill-rule="nonzero"/><g clip-path="url(#195b783245)"><path fill="#e1e1e1" d="M 40.667969 30.957031 C 40.667969 30.082031 39.960938 29.375 39.089844 29.375 C 38.214844 29.375 37.507812 30.082031 37.507812 30.957031 C 37.507812 31.828125 38.214844 32.535156 39.089844 32.535156 C 39.960938 32.535156 40.667969 31.828125 40.667969 30.957031 " fill-opacity="1" fill-rule="nonzero"/></g><g clip-path="url(#d78cc2e38e)"><path fill="#e1e1e1" d="M 49.625 30.957031 C 49.625 30.082031 48.917969 29.375 48.042969 29.375 C 47.171875 29.375 46.464844 30.082031 46.464844 30.957031 C 46.464844 31.828125 47.171875 32.535156 48.042969 32.535156 C 48.917969 32.535156 49.625 31.828125 49.625 30.957031 " fill-opacity="1" fill-rule="nonzero"/></g><g clip-path="url(#611657087c)"><path fill="#e1e1e1" d="M 58.492188 30.957031 C 58.492188 30.082031 57.785156 29.375 56.914062 29.375 C 56.039062 29.375 55.332031 30.082031 55.332031 30.957031 C 55.332031 31.828125 56.039062 32.535156 56.914062 32.535156 C 57.785156 32.535156 58.492188 31.828125 58.492188 30.957031 " fill-opacity="1" fill-rule="nonzero"/></g><g clip-path="url(#8440d8fab5)"><path fill="#e1e1e1" d="M 30.21875 29.375 C 29.347656 29.375 28.640625 30.082031 28.640625 30.957031 C 28.640625 31.828125 29.347656 32.535156 30.21875 32.535156 C 31.09375 32.535156 31.800781 31.828125 31.800781 30.957031 C 31.800781 30.082031 31.09375 29.375 30.21875 29.375 " fill-opacity="1" fill-rule="nonzero"/></g><g clip-path="url(#39919d120a)"><path fill="#e1e1e1" d="M 21.351562 29.375 C 20.480469 29.375 19.769531 30.082031 19.769531 30.957031 C 19.769531 31.828125 20.480469 32.535156 21.351562 32.535156 C 22.222656 32.535156 22.933594 31.828125 22.933594 30.957031 C 22.933594 30.082031 22.222656 29.375 21.351562 29.375 " fill-opacity="1" fill-rule="nonzero"/></g><g clip-path="url(#dd2ffbfdc0)"><path fill="#e1e1e1" d="M 14.066406 4.351562 C 14.066406 3.480469 13.355469 2.769531 12.484375 2.769531 C 11.613281 2.769531 10.902344 3.480469 10.902344 4.351562 C 10.902344 5.222656 11.613281 5.933594 12.484375 5.933594 C 13.355469 5.933594 14.066406 5.222656 14.066406 4.351562 " fill-opacity="1" fill-rule="nonzero"/></g><g clip-path="url(#1591623980)"><path fill="#e1e1e1" d="M 3.617188 2.769531 C 2.742188 2.769531 2.035156 3.480469 2.035156 4.351562 C 2.035156 5.222656 2.742188 5.933594 3.617188 5.933594 C 4.488281 5.933594 5.195312 5.222656 5.195312 4.351562 C 5.195312 3.480469 4.488281 2.769531 3.617188 2.769531 " fill-opacity="1" fill-rule="nonzero"/></g><path fill="#e1e1e1" d="M 14.066406 13.21875 C 14.066406 12.347656 13.355469 11.636719 12.484375 11.636719 C 11.613281 11.636719 10.902344 12.347656 10.902344 13.21875 C 10.902344 14.089844 11.613281 14.800781 12.484375 14.800781 C 13.355469 14.800781 14.066406 14.089844 14.066406 13.21875 " fill-opacity="1" fill-rule="nonzero"/><g clip-path="url(#803185ebe4)"><path fill="#e1e1e1" d="M 3.617188 11.636719 C 2.742188 11.636719 2.035156 12.347656 2.035156 13.21875 C 2.035156 14.089844 2.742188 14.800781 3.617188 14.800781 C 4.488281 14.800781 5.195312 14.089844 5.195312 13.21875 C 5.195312 12.347656 4.488281 11.636719 3.617188 11.636719 " fill-opacity="1" fill-rule="nonzero"/></g><path fill="#e1e1e1" d="M 14.066406 22.089844 C 14.066406 21.214844 13.355469 20.507812 12.484375 20.507812 C 11.613281 20.507812 10.902344 21.214844 10.902344 22.089844 C 10.902344 22.960938 11.613281 23.667969 12.484375 23.667969 C 13.355469 23.667969 14.066406 22.960938 14.066406 22.089844 " fill-opacity="1" fill-rule="nonzero"/><g clip-path="url(#e9757526f4)"><path fill="#e1e1e1" d="M 3.617188 20.507812 C 2.742188 20.507812 2.035156 21.214844 2.035156 22.089844 C 2.035156 22.960938 2.742188 23.667969 3.617188 23.667969 C 4.488281 23.667969 5.195312 22.960938 5.195312 22.089844 C 5.195312 21.214844 4.488281 20.507812 3.617188 20.507812 " fill-opacity="1" fill-rule="nonzero"/></g><g clip-path="url(#2fb4551391)"><path fill="#e1e1e1" d="M 14.066406 30.957031 C 14.066406 30.082031 13.355469 29.375 12.484375 29.375 C 11.613281 29.375 10.902344 30.082031 10.902344 30.957031 C 10.902344 31.828125 11.613281 32.535156 12.484375 32.535156 C 13.355469 32.535156 14.066406 31.828125 14.066406 30.957031 " fill-opacity="1" fill-rule="nonzero"/></g><g clip-path="url(#c7a2455723)"><path fill="#e1e1e1" d="M 3.617188 29.375 C 2.742188 29.375 2.035156 30.082031 2.035156 30.957031 C 2.035156 31.828125 2.742188 32.535156 3.617188 32.535156 C 4.488281 32.535156 5.195312 31.828125 5.195312 30.957031 C 5.195312 30.082031 4.488281 29.375 3.617188 29.375 " fill-opacity="1" fill-rule="nonzero"/></g><g clip-path="url(#e79a1457df)"><path fill="#bf2026" d="M 41.609375 5.292969 C 41.609375 4.421875 40.902344 3.710938 40.027344 3.710938 C 39.15625 3.710938 38.449219 4.421875 38.449219 5.292969 C 38.449219 6.164062 39.15625 6.875 40.027344 6.875 C 40.902344 6.875 41.609375 6.164062 41.609375 5.292969 " fill-opacity="1" fill-rule="nonzero"/></g><g clip-path="url(#b7723a5b0c)"><path fill="#bf2026" d="M 50.566406 5.292969 C 50.566406 4.421875 49.855469 3.710938 48.984375 3.710938 C 48.113281 3.710938 47.402344 4.421875 47.402344 5.292969 C 47.402344 6.164062 48.113281 6.875 48.984375 6.875 C 49.855469 6.875 50.566406 6.164062 50.566406 5.292969 " fill-opacity="1" fill-rule="nonzero"/></g><g clip-path="url(#a9739bb07e)"><path fill="#bf2026" d="M 59.433594 5.292969 C 59.433594 4.421875 58.726562 3.710938 57.851562 3.710938 C 56.980469 3.710938 56.273438 4.421875 56.273438 5.292969 C 56.273438 6.164062 56.980469 6.875 57.851562 6.875 C 58.726562 6.875 59.433594 6.164062 59.433594 5.292969 " fill-opacity="1" fill-rule="nonzero"/></g><g clip-path="url(#280f62e0f3)"><path fill="#bf2026" d="M 31.160156 3.710938 C 30.289062 3.710938 29.578125 4.421875 29.578125 5.292969 C 29.578125 6.164062 30.289062 6.875 31.160156 6.875 C 32.035156 6.875 32.742188 6.164062 32.742188 5.292969 C 32.742188 4.421875 32.035156 3.710938 31.160156 3.710938 " fill-opacity="1" fill-rule="nonzero"/></g><g clip-path="url(#7cadb87fdb)"><path fill="#bf2026" d="M 22.292969 3.710938 C 21.421875 3.710938 20.710938 4.421875 20.710938 5.292969 C 20.710938 6.164062 21.421875 6.875 22.292969 6.875 C 23.164062 6.875 23.875 6.164062 23.875 5.292969 C 23.875 4.421875 23.164062 3.710938 22.292969 3.710938 " fill-opacity="1" fill-rule="nonzero"/></g><path fill="#bf2026" d="M 41.609375 14.160156 C 41.609375 13.289062 40.902344 12.578125 40.027344 12.578125 C 39.15625 12.578125 38.449219 13.289062 38.449219 14.160156 C 38.449219 15.03125 39.15625 15.742188 40.027344 15.742188 C 40.902344 15.742188 41.609375 15.03125 41.609375 14.160156 " fill-opacity="1" fill-rule="nonzero"/><path fill="#bf2026" d="M 50.566406 14.160156 C 50.566406 13.289062 49.855469 12.578125 48.984375 12.578125 C 48.113281 12.578125 47.402344 13.289062 47.402344 14.160156 C 47.402344 15.03125 48.113281 15.742188 48.984375 15.742188 C 49.855469 15.742188 50.566406 15.03125 50.566406 14.160156 " fill-opacity="1" fill-rule="nonzero"/><g clip-path="url(#3b10dfd54d)"><path fill="#bf2026" d="M 59.433594 14.160156 C 59.433594 13.289062 58.726562 12.578125 57.851562 12.578125 C 56.980469 12.578125 56.273438 13.289062 56.273438 14.160156 C 56.273438 15.03125 56.980469 15.742188 57.851562 15.742188 C 58.726562 15.742188 59.433594 15.03125 59.433594 14.160156 " fill-opacity="1" fill-rule="nonzero"/></g><path fill="#bf2026" d="M 31.160156 12.578125 C 30.289062 12.578125 29.578125 13.289062 29.578125 14.160156 C 29.578125 15.03125 30.289062 15.742188 31.160156 15.742188 C 32.035156 15.742188 32.742188 15.03125 32.742188 14.160156 C 32.742188 13.289062 32.035156 12.578125 31.160156 12.578125 " fill-opacity="1" fill-rule="nonzero"/><path fill="#bf2026" d="M 22.292969 12.578125 C 21.421875 12.578125 20.710938 13.289062 20.710938 14.160156 C 20.710938 15.03125 21.421875 15.742188 22.292969 15.742188 C 23.164062 15.742188 23.875 15.03125 23.875 14.160156 C 23.875 13.289062 23.164062 12.578125 22.292969 12.578125 " fill-opacity="1" fill-rule="nonzero"/><path fill="#bf2026" d="M 41.609375 23.027344 C 41.609375 22.15625 40.902344 21.449219 40.027344 21.449219 C 39.15625 21.449219 38.449219 22.15625 38.449219 23.027344 C 38.449219 23.902344 39.15625 24.609375 40.027344 24.609375 C 40.902344 24.609375 41.609375 23.902344 41.609375 23.027344 " fill-opacity="1" fill-rule="nonzero"/><path fill="#bf2026" d="M 50.566406 23.027344 C 50.566406 22.15625 49.855469 21.449219 48.984375 21.449219 C 48.113281 21.449219 47.402344 22.15625 47.402344 23.027344 C 47.402344 23.902344 48.113281 24.609375 48.984375 24.609375 C 49.855469 24.609375 50.566406 23.902344 50.566406 23.027344 " fill-opacity="1" fill-rule="nonzero"/><g clip-path="url(#485bfec10b)"><path fill="#bf2026" d="M 59.433594 23.027344 C 59.433594 22.15625 58.726562 21.449219 57.851562 21.449219 C 56.980469 21.449219 56.273438 22.15625 56.273438 23.027344 C 56.273438 23.902344 56.980469 24.609375 57.851562 24.609375 C 58.726562 24.609375 59.433594 23.902344 59.433594 23.027344 " fill-opacity="1" fill-rule="nonzero"/></g><path fill="#bf2026" d="M 31.160156 21.449219 C 30.289062 21.449219 29.578125 22.15625 29.578125 23.027344 C 29.578125 23.902344 30.289062 24.609375 31.160156 24.609375 C 32.035156 24.609375 32.742188 23.902344 32.742188 23.027344 C 32.742188 22.15625 32.035156 21.449219 31.160156 21.449219 " fill-opacity="1" fill-rule="nonzero"/><path fill="#bf2026" d="M 22.292969 21.449219 C 21.421875 21.449219 20.710938 22.15625 20.710938 23.027344 C 20.710938 23.902344 21.421875 24.609375 22.292969 24.609375 C 23.164062 24.609375 23.875 23.902344 23.875 23.027344 C 23.875 22.15625 23.164062 21.449219 22.292969 21.449219 " fill-opacity="1" fill-rule="nonzero"/><g clip-path="url(#df8c61c43b)"><path fill="#bf2026" d="M 41.609375 31.894531 C 41.609375 31.023438 40.902344 30.316406 40.027344 30.316406 C 39.15625 30.316406 38.449219 31.023438 38.449219 31.894531 C 38.449219 32.769531 39.15625 33.476562 40.027344 33.476562 C 40.902344 33.476562 41.609375 32.769531 41.609375 31.894531 " fill-opacity="1" fill-rule="nonzero"/></g><g clip-path="url(#04c1794c05)"><path fill="#bf2026" d="M 50.566406 31.894531 C 50.566406 31.023438 49.855469 30.316406 48.984375 30.316406 C 48.113281 30.316406 47.402344 31.023438 47.402344 31.894531 C 47.402344 32.769531 48.113281 33.476562 48.984375 33.476562 C 49.855469 33.476562 50.566406 32.769531 50.566406 31.894531 " fill-opacity="1" fill-rule="nonzero"/></g><g clip-path="url(#59748c741a)"><path fill="#bf2026" d="M 59.433594 31.894531 C 59.433594 31.023438 58.726562 30.316406 57.851562 30.316406 C 56.980469 30.316406 56.273438 31.023438 56.273438 31.894531 C 56.273438 32.769531 56.980469 33.476562 57.851562 33.476562 C 58.726562 33.476562 59.433594 32.769531 59.433594 31.894531 " fill-opacity="1" fill-rule="nonzero"/></g><g clip-path="url(#de0312a0fb)"><path fill="#bf2026" d="M 31.160156 30.316406 C 30.289062 30.316406 29.578125 31.023438 29.578125 31.894531 C 29.578125 32.769531 30.289062 33.476562 31.160156 33.476562 C 32.035156 33.476562 32.742188 32.769531 32.742188 31.894531 C 32.742188 31.023438 32.035156 30.316406 31.160156 30.316406 " fill-opacity="1" fill-rule="nonzero"/></g><g clip-path="url(#163518d7ad)"><path fill="#bf2026" d="M 22.292969 30.316406 C 21.421875 30.316406 20.710938 31.023438 20.710938 31.894531 C 20.710938 32.769531 21.421875 33.476562 22.292969 33.476562 C 23.164062 33.476562 23.875 32.769531 23.875 31.894531 C 23.875 31.023438 23.164062 30.316406 22.292969 30.316406 " fill-opacity="1" fill-rule="nonzero"/></g><g clip-path="url(#1a2c7a3113)"><path fill="#bf2026" d="M 15.007812 5.292969 C 15.007812 4.421875 14.296875 3.710938 13.425781 3.710938 C 12.554688 3.710938 11.84375 4.421875 11.84375 5.292969 C 11.84375 6.164062 12.554688 6.875 13.425781 6.875 C 14.296875 6.875 15.007812 6.164062 15.007812 5.292969 " fill-opacity="1" fill-rule="nonzero"/></g><g clip-path="url(#b9edba88b6)"><path fill="#bf2026" d="M 4.558594 3.710938 C 3.683594 3.710938 2.976562 4.421875 2.976562 5.292969 C 2.976562 6.164062 3.683594 6.875 4.558594 6.875 C 5.429688 6.875 6.136719 6.164062 6.136719 5.292969 C 6.136719 4.421875 5.429688 3.710938 4.558594 3.710938 " fill-opacity="1" fill-rule="nonzero"/></g><path fill="#bf2026" d="M 15.007812 14.160156 C 15.007812 13.289062 14.296875 12.578125 13.425781 12.578125 C 12.554688 12.578125 11.84375 13.289062 11.84375 14.160156 C 11.84375 15.03125 12.554688 15.742188 13.425781 15.742188 C 14.296875 15.742188 15.007812 15.03125 15.007812 14.160156 " fill-opacity="1" fill-rule="nonzero"/><g clip-path="url(#584d8d27ea)"><path fill="#bf2026" d="M 4.558594 12.578125 C 3.683594 12.578125 2.976562 13.289062 2.976562 14.160156 C 2.976562 15.03125 3.683594 15.742188 4.558594 15.742188 C 5.429688 15.742188 6.136719 15.03125 6.136719 14.160156 C 6.136719 13.289062 5.429688 12.578125 4.558594 12.578125 " fill-opacity="1" fill-rule="nonzero"/></g><path fill="#bf2026" d="M 15.007812 23.027344 C 15.007812 22.15625 14.296875 21.449219 13.425781 21.449219 C 12.554688 21.449219 11.84375 22.15625 11.84375 23.027344 C 11.84375 23.902344 12.554688 24.609375 13.425781 24.609375 C 14.296875 24.609375 15.007812 23.902344 15.007812 23.027344 " fill-opacity="1" fill-rule="nonzero"/><g clip-path="url(#e7d34834f1)"><path fill="#bf2026" d="M 4.558594 21.449219 C 3.683594 21.449219 2.976562 22.15625 2.976562 23.027344 C 2.976562 23.902344 3.683594 24.609375 4.558594 24.609375 C 5.429688 24.609375 6.136719 23.902344 6.136719 23.027344 C 6.136719 22.15625 5.429688 21.449219 4.558594 21.449219 " fill-opacity="1" fill-rule="nonzero"/></g><g clip-path="url(#45ceb0b840)"><path fill="#bf2026" d="M 15.007812 31.894531 C 15.007812 31.023438 14.296875 30.316406 13.425781 30.316406 C 12.554688 30.316406 11.84375 31.023438 11.84375 31.894531 C 11.84375 32.769531 12.554688 33.476562 13.425781 33.476562 C 14.296875 33.476562 15.007812 32.769531 15.007812 31.894531 " fill-opacity="1" fill-rule="nonzero"/></g><g clip-path="url(#7db7805d06)"><path fill="#bf2026" d="M 4.558594 30.316406 C 3.683594 30.316406 2.976562 31.023438 2.976562 31.894531 C 2.976562 32.769531 3.683594 33.476562 4.558594 33.476562 C 5.429688 33.476562 6.136719 32.769531 6.136719 31.894531 C 6.136719 31.023438 5.429688 30.316406 4.558594 30.316406 " fill-opacity="1" fill-rule="nonzero"/></g></svg>