<svg xmlns="http://www.w3.org/2000/svg" xmlns:xlink="http://www.w3.org/1999/xlink" width="1080" zoomAndPan="magnify" viewBox="0 0 810 809.999993" height="1080" preserveAspectRatio="xMidYMid meet" version="1.0"><defs><filter x="0%" y="0%" width="100%" height="100%" id="5d15ab2b4c"><feColorMatrix values="0 0 0 0 1 0 0 0 0 1 0 0 0 0 1 0 0 0 1 0" color-interpolation-filters="sRGB"/></filter><clipPath id="5b42da8dbe"><path d="M 0.15625 280.679688 L 809.597656 280.679688 L 809.597656 529.867188 L 0.15625 529.867188 Z M 0.15625 280.679688 " clip-rule="nonzero"/></clipPath><mask id="19a846ec8b"><g filter="url(#5d15ab2b4c)"><rect x="-81" width="972" fill="#000000" y="-80.999999" height="971.999992" fill-opacity="0.48"/></g></mask><clipPath id="c5a611b577"><path d="M 0.15625 237 L 395.882812 237 L 395.882812 245.367188 L 0.15625 245.367188 Z M 0.15625 237 " clip-rule="nonzero"/></clipPath><clipPath id="0a6ec269be"><path d="M 0.15625 215 L 395.882812 215 L 395.882812 245.367188 L 0.15625 245.367188 Z M 0.15625 215 " clip-rule="nonzero"/></clipPath><clipPath id="e5bfcc008d"><path d="M 0.15625 197 L 395.882812 197 L 395.882812 245.367188 L 0.15625 245.367188 Z M 0.15625 197 " clip-rule="nonzero"/></clipPath><clipPath id="bd956191c2"><path d="M 0.15625 172 L 395.882812 172 L 395.882812 245.367188 L 0.15625 245.367188 Z M 0.15625 172 " clip-rule="nonzero"/></clipPath><clipPath id="8414caac63"><path d="M 0.15625 155 L 395.882812 155 L 395.882812 245.367188 L 0.15625 245.367188 Z M 0.15625 155 " clip-rule="nonzero"/></clipPath><clipPath id="a20e654a3f"><path d="M 0.15625 134 L 395.882812 134 L 395.882812 245.367188 L 0.15625 245.367188 Z M 0.15625 134 " clip-rule="nonzero"/></clipPath><clipPath id="e7e7e0467a"><path d="M 0.15625 111 L 395.882812 111 L 395.882812 245.367188 L 0.15625 245.367188 Z M 0.15625 111 " clip-rule="nonzero"/></clipPath><clipPath id="a109f1dee8"><path d="M 0.15625 62 L 395.882812 62 L 395.882812 245.367188 L 0.15625 245.367188 Z M 0.15625 62 " clip-rule="nonzero"/></clipPath><clipPath id="7698d21efe"><path d="M 0.15625 0.679688 L 395.882812 0.679688 L 395.882812 245.367188 L 0.15625 245.367188 Z M 0.15625 0.679688 " clip-rule="nonzero"/></clipPath><clipPath id="22f6976eac"><path d="M 0.15625 0.679688 L 395.882812 0.679688 L 395.882812 42 L 0.15625 42 Z M 0.15625 0.679688 " clip-rule="nonzero"/></clipPath><clipPath id="6370afbe49"><path d="M 0.15625 0.679688 L 367 0.679688 L 367 9 L 0.15625 9 Z M 0.15625 0.679688 " clip-rule="nonzero"/></clipPath><clipPath id="6d1b3aa28a"><path d="M 427.460938 5.179688 L 809.597656 5.179688 L 809.597656 14 L 427.460938 14 Z M 427.460938 5.179688 " clip-rule="nonzero"/></clipPath><clipPath id="f354b52cc8"><path d="M 427.460938 5.179688 L 809.597656 5.179688 L 809.597656 36 L 427.460938 36 Z M 427.460938 5.179688 " clip-rule="nonzero"/></clipPath><clipPath id="507eefffb9"><path d="M 427.460938 5.179688 L 809.597656 5.179688 L 809.597656 54 L 427.460938 54 Z M 427.460938 5.179688 " clip-rule="nonzero"/></clipPath><clipPath id="2827b5ccfa"><path d="M 427.460938 5.179688 L 809.597656 5.179688 L 809.597656 79 L 427.460938 79 Z M 427.460938 5.179688 " clip-rule="nonzero"/></clipPath><clipPath id="bc44552b67"><path d="M 427.460938 5.179688 L 809.597656 5.179688 L 809.597656 95 L 427.460938 95 Z M 427.460938 5.179688 " clip-rule="nonzero"/></clipPath><clipPath id="67fc9d38dc"><path d="M 427.460938 5.179688 L 809.597656 5.179688 L 809.597656 117 L 427.460938 117 Z M 427.460938 5.179688 " clip-rule="nonzero"/></clipPath><clipPath id="5362fa82ad"><path d="M 427.460938 5.179688 L 809.597656 5.179688 L 809.597656 140 L 427.460938 140 Z M 427.460938 5.179688 " clip-rule="nonzero"/></clipPath><clipPath id="e336034a72"><path d="M 427.460938 5.179688 L 809.597656 5.179688 L 809.597656 189 L 427.460938 189 Z M 427.460938 5.179688 " clip-rule="nonzero"/></clipPath><clipPath id="e3a83979ed"><path d="M 427.460938 5.179688 L 809.597656 5.179688 L 809.597656 249.867188 L 427.460938 249.867188 Z M 427.460938 5.179688 " clip-rule="nonzero"/></clipPath><clipPath id="1b0e0eff68"><path d="M 427.460938 209 L 809.597656 209 L 809.597656 249.867188 L 427.460938 249.867188 Z M 427.460938 209 " clip-rule="nonzero"/></clipPath><clipPath id="a0ae961e51"><path d="M 456 241 L 809.597656 241 L 809.597656 249.867188 L 456 249.867188 Z M 456 241 " clip-rule="nonzero"/></clipPath><clipPath id="fb4cec1b8e"><rect x="0" width="810" y="0" height="250"/></clipPath><clipPath id="ab10569499"><path d="M 8.996094 268.203125 L 810 268.203125 L 810 517.390625 L 8.996094 517.390625 Z M 8.996094 268.203125 " clip-rule="nonzero"/></clipPath><mask id="2becc162d9"><g filter="url(#5d15ab2b4c)"><rect x="-81" width="972" fill="#000000" y="-80.999999" height="971.999992" fill-opacity="0.48"/></g></mask><clipPath id="6075cd43f3"><path d="M 0.996094 236 L 396.722656 236 L 396.722656 244.890625 L 0.996094 244.890625 Z M 0.996094 236 " clip-rule="nonzero"/></clipPath><clipPath id="95a028865b"><path d="M 0.996094 214 L 396.722656 214 L 396.722656 244.890625 L 0.996094 244.890625 Z M 0.996094 214 " clip-rule="nonzero"/></clipPath><clipPath id="10723a471b"><path d="M 0.996094 196 L 396.722656 196 L 396.722656 244.890625 L 0.996094 244.890625 Z M 0.996094 196 " clip-rule="nonzero"/></clipPath><clipPath id="bd590f92e5"><path d="M 0.996094 171 L 396.722656 171 L 396.722656 244.890625 L 0.996094 244.890625 Z M 0.996094 171 " clip-rule="nonzero"/></clipPath><clipPath id="b6644412d9"><path d="M 0.996094 155 L 396.722656 155 L 396.722656 244.890625 L 0.996094 244.890625 Z M 0.996094 155 " clip-rule="nonzero"/></clipPath><clipPath id="afb144144f"><path d="M 0.996094 133 L 396.722656 133 L 396.722656 244.890625 L 0.996094 244.890625 Z M 0.996094 133 " clip-rule="nonzero"/></clipPath><clipPath id="2204ca08b4"><path d="M 0.996094 111 L 396.722656 111 L 396.722656 244.890625 L 0.996094 244.890625 Z M 0.996094 111 " clip-rule="nonzero"/></clipPath><clipPath id="aa6cc995f8"><path d="M 0.996094 61 L 396.722656 61 L 396.722656 244.890625 L 0.996094 244.890625 Z M 0.996094 61 " clip-rule="nonzero"/></clipPath><clipPath id="8153098319"><path d="M 0.996094 0.203125 L 396.722656 0.203125 L 396.722656 244.890625 L 0.996094 244.890625 Z M 0.996094 0.203125 " clip-rule="nonzero"/></clipPath><clipPath id="760648f870"><path d="M 0.996094 0.203125 L 396.722656 0.203125 L 396.722656 41 L 0.996094 41 Z M 0.996094 0.203125 " clip-rule="nonzero"/></clipPath><clipPath id="a144370e0d"><path d="M 0.996094 0.203125 L 368 0.203125 L 368 9 L 0.996094 9 Z M 0.996094 0.203125 " clip-rule="nonzero"/></clipPath><clipPath id="405a0b951e"><path d="M 428.300781 4.703125 L 802 4.703125 L 802 13 L 428.300781 13 Z M 428.300781 4.703125 " clip-rule="nonzero"/></clipPath><clipPath id="5f16b231fb"><path d="M 428.300781 4.703125 L 802 4.703125 L 802 35 L 428.300781 35 Z M 428.300781 4.703125 " clip-rule="nonzero"/></clipPath><clipPath id="e7c19afd68"><path d="M 428.300781 4.703125 L 802 4.703125 L 802 53 L 428.300781 53 Z M 428.300781 4.703125 " clip-rule="nonzero"/></clipPath><clipPath id="d737abb635"><path d="M 428.300781 4.703125 L 802 4.703125 L 802 78 L 428.300781 78 Z M 428.300781 4.703125 " clip-rule="nonzero"/></clipPath><clipPath id="c984d9230c"><path d="M 428.300781 4.703125 L 802 4.703125 L 802 95 L 428.300781 95 Z M 428.300781 4.703125 " clip-rule="nonzero"/></clipPath><clipPath id="ca87603b17"><path d="M 428.300781 4.703125 L 802 4.703125 L 802 117 L 428.300781 117 Z M 428.300781 4.703125 " clip-rule="nonzero"/></clipPath><clipPath id="b020ec2d44"><path d="M 428.300781 4.703125 L 802 4.703125 L 802 139 L 428.300781 139 Z M 428.300781 4.703125 " clip-rule="nonzero"/></clipPath><clipPath id="4a3d0241d3"><path d="M 428.300781 4.703125 L 802 4.703125 L 802 188 L 428.300781 188 Z M 428.300781 4.703125 " clip-rule="nonzero"/></clipPath><clipPath id="b0f7217b44"><path d="M 428.300781 4.703125 L 802 4.703125 L 802 249.390625 L 428.300781 249.390625 Z M 428.300781 4.703125 " clip-rule="nonzero"/></clipPath><clipPath id="eb4ffe1910"><path d="M 428.300781 208 L 802 208 L 802 249.390625 L 428.300781 249.390625 Z M 428.300781 208 " clip-rule="nonzero"/></clipPath><clipPath id="75d8ae807f"><path d="M 457 241 L 802 241 L 802 249.390625 L 457 249.390625 Z M 457 241 " clip-rule="nonzero"/></clipPath><clipPath id="60738b2081"><rect x="0" width="802" y="0" height="250"/></clipPath></defs><g clip-path="url(#5b42da8dbe)"><g mask="url(#19a846ec8b)"><g transform="matrix(1, 0, 0, 1, 0, 280)"><g clip-path="url(#fb4cec1b8e)"><g clip-path="url(#c5a611b577)"><path stroke-linecap="butt" transform="matrix(0.56211, 0, 0, 0.5625, 0.0000035, 0.211666)" fill="none" stroke-linejoin="miter" d="M 696.094211 565.609844 C 677.372884 546.443177 656.844748 529.130676 634.794723 513.922342 C 518.790602 434.012616 389.874743 434.061227 235.990165 436.102893 C 151.633008 437.26956 67.470431 444.700116 -15.788742 458.34595 " stroke="#000000" stroke-width="1" stroke-opacity="0.2" stroke-miterlimit="10"/></g><g clip-path="url(#0a6ec269be)"><path stroke-linecap="butt" transform="matrix(0.56211, 0, 0, 0.5625, 0.0000035, 0.211666)" fill="none" stroke-linejoin="miter" d="M 748.401346 565.609844 C 736.142839 542.186232 712.612619 504.755675 670.750232 473.873729 C 631.431278 444.873727 593.252002 434.415393 566.962924 428.102893 C 388.443194 385.255669 193.571837 397.74178 156.657329 400.311225 C 110.590635 403.533447 46.963143 409.311225 -28.867263 420.75567 " stroke="#000000" stroke-width="1" stroke-opacity="0.2" stroke-miterlimit="10"/></g><g clip-path="url(#e5bfcc008d)"><path stroke-linecap="butt" transform="matrix(0.56211, 0, 0, 0.5625, 0.0000035, 0.211666)" fill="none" stroke-linejoin="miter" d="M 799.867621 565.609844 C 790.38882 538.505676 769.7078 491.741785 724.683497 453.443172 C 688.630698 422.790393 652.008058 410.332059 626.601537 402.769558 C 487.310421 361.311223 332.480743 362.109834 203.231319 366.769557 C 152.487768 368.623723 82.56424 371.901501 -1.09799 378.220946 " stroke="#000000" stroke-width="1" stroke-opacity="0.2" stroke-miterlimit="10"/></g><g clip-path="url(#bd956191c2)"><path stroke-linecap="butt" transform="matrix(0.56211, 0, 0, 0.5625, 0.0000035, 0.211666)" fill="none" stroke-linejoin="miter" d="M 843.210202 549.609844 C 836.379072 517.63762 823.925985 487.130674 806.427729 459.512617 C 779.429825 416.894559 747.942695 393.214002 740.229008 387.582058 C 693.231113 353.325111 644.933704 345.130667 617.630032 341.005666 C 448.853175 315.422332 263.050613 320.241776 250.632272 320.561221 C 199.381425 321.894554 109.631636 324.102888 -6.831136 326.283443 " stroke="#000000" stroke-width="1" stroke-opacity="0.2" stroke-miterlimit="10"/></g><g clip-path="url(#8414caac63)"><path stroke-linecap="butt" transform="matrix(0.56211, 0, 0, 0.5625, 0.0000035, 0.211666)" fill="none" stroke-linejoin="miter" d="M 882.438816 549.609844 C 878.449937 521.505675 871.035068 493.991785 860.367943 467.686228 C 850.708461 443.873727 838.192831 413.012614 809.700834 381.859835 C 768.554222 336.859833 720.85445 320.561221 703.453485 314.859832 C 678.102557 306.595942 651.653646 302.18622 624.989307 301.783442 C 526.87955 299.283442 428.853184 288.325108 330.750376 291.165386 C 253.530116 293.394553 141.028426 295.262609 -3.530234 292.790386 " stroke="#000000" stroke-width="1" stroke-opacity="0.2" stroke-miterlimit="10"/></g><g clip-path="url(#a20e654a3f)"><path stroke-linecap="butt" transform="matrix(0.56211, 0, 0, 0.5625, 0.0000035, 0.211666)" fill="none" stroke-linejoin="miter" d="M 919.221288 541.609843 C 917.873131 470.60984 897.761951 419.241781 884.071894 391.019558 C 871.292191 364.686223 856.858563 335.713999 826.073308 310.109831 C 805.010079 292.609831 777.171313 277.42233 719.81901 265.165385 C 638.380545 247.755662 572.223519 252.234829 548.192953 253.72094 C 453.557829 259.575107 358.561344 253.082051 263.759438 254.53344 C 195.163219 255.582051 97.011767 256.186218 -23.10632 253.72094 " stroke="#000000" stroke-width="1" stroke-opacity="0.2" stroke-miterlimit="10"/></g><g clip-path="url(#e7e7e0467a)"><path stroke-linecap="butt" transform="matrix(0.56211, 0, 0, 0.5625, 0.0000035, 0.211666)" fill="none" stroke-linejoin="miter" d="M 956.809876 541.609843 C 954.120509 489.005674 947.011409 436.720949 935.559016 385.30428 C 927.511764 349.436222 920.562497 328.880666 906.142767 307.665387 C 883.592394 274.443163 854.968362 257.491773 839.944046 248.811217 C 800.35407 225.950105 762.800228 219.63066 730.423592 216.123716 C 646.643224 207.033437 585.2117 215.352882 530.993516 220.213994 C 507.90805 222.269549 443.988688 223.213994 316.038777 225.109827 C 240.653124 226.220938 132.578117 226.436216 -1.077143 221.845938 " stroke="#000000" stroke-width="1" stroke-opacity="0.2" stroke-miterlimit="10"/></g><g clip-path="url(#a109f1dee8)"><path stroke-linecap="butt" transform="matrix(0.56211, 0, 0, 0.5625, 0.0000035, 0.211666)" fill="none" stroke-linejoin="miter" d="M 1032.007898 557.609844 C 1032.007898 486.262618 1033.279614 428.936226 1034.46099 389.859836 C 1036.246951 330.484833 1037.977319 305.93622 1027.101716 270.533441 C 1020.631948 249.47094 1006.052385 204.165382 963.349136 169.193158 C 917.289392 131.463989 864.94751 127.422322 834.21785 125.054267 C 803.66887 122.693155 780.916969 125.852878 758.220661 129.144545 C 654.871156 144.095934 603.272846 151.575101 564.502883 159.380657 C 487.678732 174.859825 426.650266 176.512603 304.600282 179.811214 C 192.717077 182.790381 80.75743 178.151492 -30.500341 165.922324 " stroke="#000000" stroke-width="1" stroke-opacity="0.2" stroke-miterlimit="10"/></g><g clip-path="url(#7698d21efe)"><path stroke-linecap="butt" transform="matrix(0.56211, 0, 0, 0.5625, 0.0000035, 0.211666)" fill="none" stroke-linejoin="miter" d="M 1111.29209 573.609845 C 1114.078746 535.929287 1119.269849 498.464008 1126.816753 461.443172 C 1130.187148 444.859838 1132.883464 434.061227 1150.520705 366.630668 C 1179.978649 254.012606 1182.327501 246.463995 1182.390045 226.83205 C 1182.473436 202.832048 1181.980038 155.005657 1151.389363 109.950099 C 1128.046774 75.665375 1098.3873 59.311208 1074.558263 46.200096 C 1055.239299 35.561207 1010.562459 13.783428 940.562489 8.609816 C 884.148336 4.443149 841.834247 13.311205 751.757843 37.213984 C 597.650889 78.116764 592.487583 86.401487 521.27844 102.602877 C 407.949787 128.373711 317.442529 130.936211 270.361242 132.019545 C 176.643422 134.151489 82.960348 126.484822 -9.159141 109.144544 " stroke="#000000" stroke-width="1" stroke-opacity="0.2" stroke-miterlimit="10"/><path stroke-linecap="butt" transform="matrix(0.56211, 0, 0, 0.5625, 0.0000035, 0.211666)" fill="none" stroke-linejoin="miter" d="M 1152.146833 573.609845 C 1158.706942 528.45012 1169.672885 484.040396 1184.870933 441.012616 C 1196.830622 406.359836 1211.590866 372.741779 1228.998781 340.484833 C 1265.162769 273.713996 1283.772907 267.03344 1296.83753 220.332049 C 1302.549827 199.936215 1312.000831 166.144546 1300.91675 127.970933 C 1288.922314 86.776487 1259.721492 63.436208 1217.560287 30.713984 C 1180.041192 1.651483 1138.456776 -21.758241 1094.141298 -38.758242 C 1058.533252 -52.417965 996.330359 -75.577688 915.969031 -71.445743 C 873.967659 -69.286021 843.543766 -59.897132 784.377704 -41.209631 C 692.633476 -12.209629 674.468091 5.234816 595.580007 33.984818 C 527.053281 59.005652 456.094312 76.811209 383.870576 87.116765 C 246.685088 105.93621 107.116001 96.755654 -26.421121 60.116763 " stroke="#000000" stroke-width="1" stroke-opacity="0.2" stroke-miterlimit="10"/></g><g clip-path="url(#22f6976eac)"><path stroke-linecap="butt" transform="matrix(0.56211, 0, 0, 0.5625, 0.0000035, 0.211666)" fill="none" stroke-linejoin="miter" d="M 1452.382982 6.19315 C 1411.486543 4.707038 1371.069604 -3.00824 1332.508119 -16.681852 C 1299.512998 -28.452686 1286.927874 -37.966575 1237.699264 -63.542965 C 1188.97795 -88.862411 1140.770882 -113.917968 1085.128098 -133.286024 C 1030.520755 -152.286025 986.413755 -167.674915 927.129555 -165.987415 C 864.961409 -164.216581 818.65844 -144.612414 771.292233 -124.57769 C 717.219984 -101.681856 710.61818 -90.237411 641.611954 -53.737409 C 606.504255 -35.167964 543.078292 -1.626295 467.247886 22.547317 C 367.247928 54.422319 283.502307 57.922319 253.662152 58.547319 C 133.439826 60.894541 34.66294 32.547318 -31.848499 6.234816 " stroke="#000000" stroke-width="1" stroke-opacity="0.2" stroke-miterlimit="10"/></g><g clip-path="url(#6370afbe49)"><path stroke-linecap="butt" transform="matrix(0.56211, 0, 0, 0.5625, 0.0000035, 0.211666)" fill="none" stroke-linejoin="miter" d="M 637.240865 -260.883253 C 639.297848 -237.577696 639.068522 -202.834639 624.169293 -166.35547 C 560.402815 -10.202685 300.611403 -0.223517 265.594045 0.644538 C 212.70317 1.99176 117.908214 -3.286018 6.268233 -55.216576 " stroke="#000000" stroke-width="1" stroke-opacity="0.2" stroke-miterlimit="10"/></g><g clip-path="url(#6d1b3aa28a)"><path stroke-linecap="butt" transform="matrix(0.56211, 0, 0, 0.5625, 0.0000035, 0.211666)" fill="none" stroke-linejoin="miter" d="M 768.651512 -120.945746 C 787.365889 -101.779078 807.894025 -84.466577 829.950999 -69.258243 C 945.948171 10.651483 1074.87098 10.602872 1228.748608 8.56815 C 1313.112714 7.401483 1397.268342 -0.0360174 1480.527515 -13.674907 " stroke="#000000" stroke-width="1" stroke-opacity="0.2" stroke-miterlimit="10"/></g><g clip-path="url(#f354b52cc8)"><path stroke-linecap="butt" transform="matrix(0.56211, 0, 0, 0.5625, 0.0000035, 0.211666)" fill="none" stroke-linejoin="miter" d="M 716.344376 -120.945746 C 728.602884 -97.515189 752.133103 -60.084632 793.988541 -29.202686 C 833.314445 -0.202684 871.49372 10.25565 897.782798 16.56815 C 1076.302529 59.415374 1271.166936 46.922318 1308.081444 44.352874 C 1354.148138 41.137596 1417.782579 35.352873 1493.612985 23.915373 " stroke="#000000" stroke-width="1" stroke-opacity="0.2" stroke-miterlimit="10"/></g><g clip-path="url(#507eefffb9)"><path stroke-linecap="butt" transform="matrix(0.56211, 0, 0, 0.5625, 0.0000035, 0.211666)" fill="none" stroke-linejoin="miter" d="M 664.871152 -120.945746 C 674.349953 -93.834633 695.030973 -47.077686 740.062226 -8.772129 C 776.108076 21.873706 812.730715 34.33204 838.144186 41.89454 C 977.428352 83.352876 1132.25803 82.554264 1261.507454 77.894542 C 1312.251005 76.04732 1382.181483 72.762597 1465.836764 66.443153 " stroke="#000000" stroke-width="1" stroke-opacity="0.2" stroke-miterlimit="10"/></g><g clip-path="url(#2827b5ccfa)"><path stroke-linecap="butt" transform="matrix(0.56211, 0, 0, 0.5625, 0.0000035, 0.211666)" fill="none" stroke-linejoin="miter" d="M 621.528572 -104.945745 C 628.366651 -72.973521 640.819738 -42.466575 658.311044 -14.848518 C 685.308948 27.776484 716.803028 51.457041 724.509765 57.082041 C 771.507661 91.345932 819.812018 99.533432 847.108741 103.665377 C 1015.892547 129.241767 1201.68816 124.422322 1214.113451 124.102878 C 1265.357348 122.776489 1355.107137 120.568155 1471.569909 118.3876 " stroke="#000000" stroke-width="1" stroke-opacity="0.2" stroke-miterlimit="10"/></g><g clip-path="url(#bc44552b67)"><path stroke-linecap="butt" transform="matrix(0.56211, 0, 0, 0.5625, 0.0000035, 0.211666)" fill="none" stroke-linejoin="miter" d="M 582.299957 -104.945745 C 586.288837 -76.841577 593.703705 -49.327687 604.37083 -23.015185 C 614.030312 0.797316 626.552892 31.651484 655.037939 62.804264 C 696.1915 107.804266 743.891272 124.102878 761.292237 129.804267 C 786.643165 138.075101 813.092077 142.484823 839.749466 142.887601 C 937.859224 145.387601 1035.892539 156.345935 1133.988397 153.505657 C 1211.208657 151.27649 1323.710347 149.408435 1468.269007 151.873712 " stroke="#000000" stroke-width="1" stroke-opacity="0.2" stroke-miterlimit="10"/></g><g clip-path="url(#67fc9d38dc)"><path stroke-linecap="butt" transform="matrix(0.56211, 0, 0, 0.5625, 0.0000035, 0.211666)" fill="none" stroke-linejoin="miter" d="M 545.524434 -96.945745 C 546.872592 -25.945741 566.983772 25.422317 580.673828 53.644541 C 593.453531 79.98482 607.88021 108.957044 638.672414 134.554267 C 659.728694 152.054268 687.574409 167.241769 744.919763 179.505658 C 826.358228 196.915381 892.522203 192.436214 916.55277 190.943159 C 1011.180944 185.095936 1106.177429 191.582048 1200.979335 190.137603 C 1269.582503 189.082048 1367.727006 188.484825 1487.852043 190.943159 " stroke="#000000" stroke-width="1" stroke-opacity="0.2" stroke-miterlimit="10"/></g><g clip-path="url(#5362fa82ad)"><path stroke-linecap="butt" transform="matrix(0.56211, 0, 0, 0.5625, 0.0000035, 0.211666)" fill="none" stroke-linejoin="miter" d="M 507.928897 -96.945745 C 510.618264 -44.341575 517.727364 7.950094 529.179757 59.366763 C 537.233958 95.234821 544.183225 115.783433 558.602955 137.005656 C 581.153328 170.22788 609.770411 187.172325 624.801676 195.852881 C 664.391653 218.713994 701.945494 225.033438 734.322131 228.547327 C 818.102498 237.637606 879.534022 229.318161 933.752207 224.457049 C 956.830724 222.394549 1020.750085 221.457049 1148.699996 219.554271 C 1224.092598 218.44316 1332.160656 218.234827 1465.822865 222.825105 " stroke="#000000" stroke-width="1" stroke-opacity="0.2" stroke-miterlimit="10"/></g><g clip-path="url(#e336034a72)"><path stroke-linecap="butt" transform="matrix(0.56211, 0, 0, 0.5625, 0.0000035, 0.211666)" fill="none" stroke-linejoin="miter" d="M 432.730875 -112.945745 C 432.730875 -41.59852 431.459159 15.734817 430.284733 54.804263 C 428.491822 114.186211 426.761454 138.734823 437.644007 174.137602 C 444.113775 195.193159 458.693338 240.505661 501.389637 275.477885 C 547.449381 313.207054 599.791263 317.241776 630.520924 319.616776 C 661.069903 321.977888 683.821804 318.818165 706.525061 315.526498 C 809.874566 300.575109 861.472876 293.095942 900.242839 285.283441 C 977.060041 269.804274 1038.088507 268.15844 1160.138491 264.852885 C 1272.028645 261.880662 1383.988292 266.519552 1495.239114 278.741774 " stroke="#000000" stroke-width="1" stroke-opacity="0.2" stroke-miterlimit="10"/></g><g clip-path="url(#e3a83979ed)"><path stroke-linecap="butt" transform="matrix(0.56211, 0, 0, 0.5625, 0.0000035, 0.211666)" fill="none" stroke-linejoin="miter" d="M 353.453632 -128.945746 C 350.660027 -91.265189 345.475873 -53.799909 337.92202 -16.772129 C 334.551625 -0.19574 331.862258 10.602872 314.218069 78.033431 C 284.760124 190.658437 282.411272 198.207048 282.348728 217.832049 C 282.272286 241.83205 282.758735 289.665386 313.34941 334.713999 C 336.691999 369.005668 366.351473 385.352891 390.18051 398.464003 C 409.499474 409.102892 454.183263 430.887615 524.183234 436.054282 C 580.590437 440.227894 622.911476 431.352893 712.98093 407.457059 C 867.087884 366.554279 872.25119 358.262612 943.460333 342.068166 C 1056.788986 316.297332 1147.303194 313.734832 1194.377531 312.644554 C 1288.102301 310.512609 1381.778425 318.186221 1473.897914 335.526499 " stroke="#000000" stroke-width="1" stroke-opacity="0.2" stroke-miterlimit="10"/><path stroke-linecap="butt" transform="matrix(0.56211, 0, 0, 0.5625, 0.0000035, 0.211666)" fill="none" stroke-linejoin="miter" d="M 312.59194 -128.945746 C 306.024882 -83.786022 295.065888 -39.376297 279.874789 3.651483 C 267.9151 38.304262 253.154856 71.929264 235.739992 104.18621 C 199.582954 170.957047 180.972815 177.637603 167.901243 224.332049 C 162.188946 244.734828 152.744891 278.526497 163.822023 316.693165 C 175.823408 357.894556 205.02423 381.234835 247.185435 413.957059 C 284.70453 443.01956 326.288946 466.422339 370.604424 483.42234 C 406.21247 497.082063 468.415363 520.241787 548.769742 516.116786 C 590.771114 513.957064 621.201956 504.568175 680.361069 485.873729 C 772.112247 456.873728 790.270683 439.436227 869.158766 410.686225 C 937.692441 385.658446 1008.651411 367.85289 1080.868197 357.554278 C 1218.046736 338.727888 1357.629721 347.915389 1491.159894 384.55428 " stroke="#000000" stroke-width="1" stroke-opacity="0.2" stroke-miterlimit="10"/></g><g clip-path="url(#1b0e0eff68)"><path stroke-linecap="butt" transform="matrix(0.56211, 0, 0, 0.5625, 0.0000035, 0.211666)" fill="none" stroke-linejoin="miter" d="M 12.36274 438.470949 C 53.25223 439.964005 93.669169 447.679283 132.230654 461.352895 C 165.232725 473.123729 177.810899 482.630674 227.039509 508.214008 C 275.760823 533.533454 323.967891 558.582066 379.610675 577.950123 C 434.218018 596.950124 478.331967 612.345958 537.609218 610.651513 C 599.784314 608.88068 646.080333 589.283457 693.453489 569.241789 C 747.518789 546.352899 754.120593 534.901509 823.133768 498.401508 C 858.241467 479.832062 921.660481 446.290394 997.490887 422.123726 C 1097.490845 390.24178 1181.243416 386.74178 1211.076621 386.123724 C 1331.298947 383.769557 1430.082783 412.123726 1496.587272 438.436227 " stroke="#000000" stroke-width="1" stroke-opacity="0.2" stroke-miterlimit="10"/></g><g clip-path="url(#a0ae961e51)"><path stroke-linecap="butt" transform="matrix(0.56211, 0, 0, 0.5625, 0.0000035, 0.211666)" fill="none" stroke-linejoin="miter" d="M 827.497908 705.554296 C 825.440925 682.241795 825.670251 647.505682 840.56948 611.026513 C 904.342907 454.873728 1164.12737 444.894561 1199.151678 444.026505 C 1252.042552 442.672338 1346.830559 447.957061 1458.47054 499.880674 " stroke="#000000" stroke-width="1" stroke-opacity="0.2" stroke-miterlimit="10"/></g></g></g></g></g><g clip-path="url(#ab10569499)"><g mask="url(#2becc162d9)"><g transform="matrix(1, 0, 0, 1, 8, 268)"><g clip-path="url(#60738b2081)"><g clip-path="url(#6075cd43f3)"><path stroke-linecap="butt" transform="matrix(0.56211, 0, 0, 0.5625, 0.83955, -0.267103)" fill="none" stroke-linejoin="miter" d="M 696.09474 565.613767 C 677.373414 546.447099 656.845278 529.134598 634.795253 513.926264 C 518.791132 434.009594 389.875272 434.065149 235.990695 436.099871 C 151.626589 437.266538 67.470961 444.704039 -15.788212 458.342928 " stroke="#000000" stroke-width="1" stroke-opacity="0.2" stroke-miterlimit="10"/></g><g clip-path="url(#95a028865b)"><path stroke-linecap="butt" transform="matrix(0.56211, 0, 0, 0.5625, 0.83955, -0.267103)" fill="none" stroke-linejoin="miter" d="M 748.401876 565.613767 C 736.143368 542.18321 712.613149 504.752653 670.750762 473.870707 C 631.431807 444.870705 593.252532 434.412371 566.963453 428.099871 C 388.436774 385.252647 193.572367 397.745703 156.657858 400.315147 C 110.591165 403.530425 46.963672 409.315148 -28.866733 420.752648 " stroke="#000000" stroke-width="1" stroke-opacity="0.2" stroke-miterlimit="10"/></g><g clip-path="url(#10723a471b)"><path stroke-linecap="butt" transform="matrix(0.56211, 0, 0, 0.5625, 0.83955, -0.267103)" fill="none" stroke-linejoin="miter" d="M 799.86815 565.613767 C 790.38935 538.502654 769.70833 491.745708 724.684026 453.44015 C 688.631227 422.794315 652.008588 410.335981 626.602066 402.773481 C 487.310951 361.315145 332.481273 362.113757 203.231848 366.773479 C 152.488298 368.620701 82.55782 371.905424 -1.097461 378.224869 " stroke="#000000" stroke-width="1" stroke-opacity="0.2" stroke-miterlimit="10"/></g><g clip-path="url(#bd590f92e5)"><path stroke-linecap="butt" transform="matrix(0.56211, 0, 0, 0.5625, 0.83955, -0.267103)" fill="none" stroke-linejoin="miter" d="M 843.210731 549.613766 C 836.379601 517.641542 823.926514 487.134596 806.428259 459.509595 C 779.430355 416.891537 747.943224 393.21098 740.229538 387.58598 C 693.231642 353.322089 644.934234 345.134589 617.630562 341.002644 C 448.853705 315.426254 263.051142 320.245699 250.632801 320.565143 C 199.381954 321.891532 109.632166 324.099866 -6.830606 326.280421 " stroke="#000000" stroke-width="1" stroke-opacity="0.2" stroke-miterlimit="10"/></g><g clip-path="url(#b6644412d9)"><path stroke-linecap="butt" transform="matrix(0.56211, 0, 0, 0.5625, 0.83955, -0.267103)" fill="none" stroke-linejoin="miter" d="M 882.439346 549.613766 C 878.450466 521.502654 871.035598 493.988763 860.368472 467.683206 C 850.708991 443.870705 838.19336 413.009593 809.701364 381.863758 C 768.547802 336.863755 720.848031 320.565143 703.454014 314.863754 C 678.103087 306.59292 651.654175 302.183198 624.989836 301.78042 C 526.880079 299.28042 428.853713 288.322086 330.750905 291.162364 C 253.530646 293.391531 141.028956 295.259587 -3.529704 292.794309 " stroke="#000000" stroke-width="1" stroke-opacity="0.2" stroke-miterlimit="10"/></g><g clip-path="url(#afb144144f)"><path stroke-linecap="butt" transform="matrix(0.56211, 0, 0, 0.5625, 0.83955, -0.267103)" fill="none" stroke-linejoin="miter" d="M 919.221818 541.613766 C 917.87366 470.613762 897.76248 419.245704 884.072423 391.02348 C 871.292721 364.683201 856.859092 335.710978 826.073838 310.113754 C 805.010608 292.613753 777.171843 277.426252 719.819539 265.162363 C 638.381075 247.75264 572.224049 252.231807 548.193482 253.724862 C 453.558359 259.572085 358.561873 253.085973 263.759968 254.530418 C 195.163749 255.585973 97.012296 256.183196 -23.11274 253.724862 " stroke="#000000" stroke-width="1" stroke-opacity="0.2" stroke-miterlimit="10"/></g><g clip-path="url(#2204ca08b4)"><path stroke-linecap="butt" transform="matrix(0.56211, 0, 0, 0.5625, 0.83955, -0.267103)" fill="none" stroke-linejoin="miter" d="M 956.810405 541.613766 C 954.121039 489.002652 947.011938 436.717927 935.559546 385.301258 C 927.512294 349.4332 920.563027 328.884588 906.143297 307.662365 C 883.592924 274.440141 854.968892 257.495696 839.937626 248.81514 C 800.34765 225.954028 762.800758 219.634583 730.424121 216.120694 C 646.643753 207.030415 585.21223 215.34986 530.994045 220.210972 C 507.908579 222.273472 443.989218 223.210972 316.039306 225.11375 C 240.653653 226.224861 132.578647 226.433194 -1.076613 221.842916 " stroke="#000000" stroke-width="1" stroke-opacity="0.2" stroke-miterlimit="10"/></g><g clip-path="url(#aa6cc995f8)"><path stroke-linecap="butt" transform="matrix(0.56211, 0, 0, 0.5625, 0.83955, -0.267103)" fill="none" stroke-linejoin="miter" d="M 1032.008428 557.613766 C 1032.008428 486.259596 1033.280144 428.933204 1034.461519 389.863758 C 1036.247481 330.481811 1037.977849 305.933198 1027.102245 270.530419 C 1020.632477 249.474862 1006.052914 204.16236 963.349666 169.190136 C 917.289922 131.460967 864.94804 127.426245 834.218379 125.051245 C 803.6694 122.690133 780.917498 125.849856 758.221191 129.141523 C 654.871686 144.092912 603.273376 151.572079 564.503413 159.38458 C 487.679262 174.863747 426.650795 176.509581 304.600812 179.815136 C 192.717607 182.787359 80.75796 178.14847 -30.499811 165.926247 " stroke="#000000" stroke-width="1" stroke-opacity="0.2" stroke-miterlimit="10"/></g><g clip-path="url(#8153098319)"><path stroke-linecap="butt" transform="matrix(0.56211, 0, 0, 0.5625, 0.83955, -0.267103)" fill="none" stroke-linejoin="miter" d="M 1111.29262 573.613767 C 1114.079276 535.93321 1119.270379 498.46793 1126.817283 461.44015 C 1130.187678 444.863761 1132.877044 434.065149 1150.521234 366.63459 C 1179.979179 254.009585 1182.328031 246.460973 1182.390574 226.835972 C 1182.467016 202.835971 1181.980568 155.002635 1151.389893 109.954022 C 1128.047303 75.662353 1098.38783 59.31513 1074.558792 46.204018 C 1055.239829 35.565129 1010.562989 13.780406 940.563018 8.613739 C 884.148865 4.440128 841.827827 13.315128 751.758372 37.210962 C 597.651418 78.113742 592.488113 86.405409 521.27897 102.599855 C 407.950317 128.370689 317.443058 130.933189 270.361772 132.023467 C 176.643951 134.155412 82.960878 126.4818 -9.158611 109.141522 " stroke="#000000" stroke-width="1" stroke-opacity="0.2" stroke-miterlimit="10"/><path stroke-linecap="butt" transform="matrix(0.56211, 0, 0, 0.5625, 0.83955, -0.267103)" fill="none" stroke-linejoin="miter" d="M 1152.147363 573.613767 C 1158.707471 528.454043 1169.673415 484.044318 1184.871463 441.009594 C 1196.831152 406.363759 1211.591396 372.738757 1228.999311 340.481811 C 1265.163298 273.710974 1283.773437 267.030418 1296.838059 220.335972 C 1302.550357 199.933193 1312.001361 166.141525 1300.917279 127.974856 C 1288.922844 86.773465 1259.722022 63.433186 1217.560817 30.710962 C 1180.041722 1.648461 1138.457306 -21.754318 1094.141828 -38.754319 C 1058.526832 -52.414042 996.330889 -75.573765 915.969561 -71.448765 C 873.968189 -69.289043 843.544296 -59.900154 784.378233 -41.205708 C 692.634005 -12.205707 674.46862 5.231794 595.580537 33.981796 C 527.046862 59.009575 456.094841 76.815131 383.871105 87.113743 C 246.685618 105.940133 107.109582 96.752632 -26.420591 60.113741 " stroke="#000000" stroke-width="1" stroke-opacity="0.2" stroke-miterlimit="10"/></g><g clip-path="url(#760648f870)"><path stroke-linecap="butt" transform="matrix(0.56211, 0, 0, 0.5625, 0.83955, -0.267103)" fill="none" stroke-linejoin="miter" d="M 1452.376562 6.197072 C 1411.487073 4.704016 1371.070134 -3.011262 1332.508649 -16.684874 C 1299.506578 -28.455707 1286.928404 -37.962652 1237.699794 -63.545987 C 1188.97848 -88.865433 1140.771412 -113.914045 1085.128628 -133.282102 C 1030.521285 -152.282103 986.414284 -167.677937 927.130084 -165.983492 C 864.961938 -164.212659 818.658969 -144.615436 771.292763 -124.573768 C 717.220513 -101.684878 710.618709 -90.233488 641.612484 -53.733487 C 606.497836 -35.164041 543.078821 -1.622373 467.248416 22.544295 C 367.248458 54.426241 283.502836 57.926241 253.662682 58.544297 C 133.440356 60.891519 34.663469 32.544296 -31.847969 6.231794 " stroke="#000000" stroke-width="1" stroke-opacity="0.2" stroke-miterlimit="10"/></g><g clip-path="url(#a144370e0d)"><path stroke-linecap="butt" transform="matrix(0.56211, 0, 0, 0.5625, 0.83955, -0.267103)" fill="none" stroke-linejoin="miter" d="M 637.241395 -260.886275 C 639.298378 -237.573774 639.069052 -202.837661 624.169823 -166.358492 C 560.403345 -10.205707 300.611933 -0.226539 265.587625 0.641516 C 212.7037 1.995683 117.908743 -3.28904 6.268763 -55.212653 " stroke="#000000" stroke-width="1" stroke-opacity="0.2" stroke-miterlimit="10"/></g><g clip-path="url(#405a0b951e)"><path stroke-linecap="butt" transform="matrix(0.56211, 0, 0, 0.5625, 0.83955, -0.267103)" fill="none" stroke-linejoin="miter" d="M 768.652041 -120.941823 C 787.366418 -101.775156 807.894554 -84.462655 829.951529 -69.254321 C 945.9487 10.655406 1074.871509 10.606794 1228.749137 8.565128 C 1313.113243 7.398461 1397.268872 -0.0320949 1480.528044 -13.677929 " stroke="#000000" stroke-width="1" stroke-opacity="0.2" stroke-miterlimit="10"/></g><g clip-path="url(#5f16b231fb)"><path stroke-linecap="butt" transform="matrix(0.56211, 0, 0, 0.5625, 0.83955, -0.267103)" fill="none" stroke-linejoin="miter" d="M 716.344905 -120.941823 C 728.603413 -97.518211 752.133633 -60.087654 793.98907 -29.205708 C 833.314974 -0.205706 871.494249 10.252628 897.783328 16.565128 C 1076.303058 59.412352 1271.167465 46.926241 1308.081974 44.356796 C 1354.148667 41.134574 1417.783109 35.356796 1493.606566 23.912351 " stroke="#000000" stroke-width="1" stroke-opacity="0.2" stroke-miterlimit="10"/></g><g clip-path="url(#e7c19afd68)"><path stroke-linecap="butt" transform="matrix(0.56211, 0, 0, 0.5625, 0.83955, -0.267103)" fill="none" stroke-linejoin="miter" d="M 664.871682 -120.941823 C 674.350483 -93.837655 695.031502 -47.073764 740.062755 -8.775151 C 776.108605 21.877628 812.731244 34.335962 838.137766 41.891518 C 977.428882 83.356798 1132.258559 82.551243 1261.507984 77.89152 C 1312.251534 76.044298 1382.182012 72.76652 1465.837293 66.447075 " stroke="#000000" stroke-width="1" stroke-opacity="0.2" stroke-miterlimit="10"/></g><g clip-path="url(#d737abb635)"><path stroke-linecap="butt" transform="matrix(0.56211, 0, 0, 0.5625, 0.83955, -0.267103)" fill="none" stroke-linejoin="miter" d="M 621.529101 -104.941822 C 628.36718 -72.969599 640.820267 -42.462653 658.311573 -14.844596 C 685.309477 27.773462 716.803557 51.454019 724.510295 57.085963 C 771.50819 91.34291 819.812548 99.537355 847.10927 103.662355 C 1015.893077 129.245689 1201.68869 124.426245 1214.107031 124.1068 C 1265.357878 122.773467 1355.107666 120.565133 1471.570439 118.384578 " stroke="#000000" stroke-width="1" stroke-opacity="0.2" stroke-miterlimit="10"/></g><g clip-path="url(#c984d9230c)"><path stroke-linecap="butt" transform="matrix(0.56211, 0, 0, 0.5625, 0.83955, -0.267103)" fill="none" stroke-linejoin="miter" d="M 582.300487 -104.941822 C 586.289366 -76.837654 593.704234 -49.323764 604.37136 -23.018207 C 614.030842 0.794294 626.553421 31.655407 655.038468 62.801242 C 696.19203 107.808188 743.891801 124.1068 761.292767 129.808189 C 786.636745 138.072079 813.085657 142.481801 839.749996 142.884579 C 937.859753 145.384579 1035.893068 156.342913 1133.988927 153.502635 C 1211.209186 151.273468 1323.710876 149.405413 1468.269537 151.877635 " stroke="#000000" stroke-width="1" stroke-opacity="0.2" stroke-miterlimit="10"/></g><g clip-path="url(#ca87603b17)"><path stroke-linecap="butt" transform="matrix(0.56211, 0, 0, 0.5625, 0.83955, -0.267103)" fill="none" stroke-linejoin="miter" d="M 545.518014 -96.948766 C 546.873121 -25.948763 566.984301 25.42624 580.674358 53.641519 C 593.454061 79.981798 607.88074 108.954022 638.672944 134.55819 C 659.729224 152.05819 687.567989 167.245691 744.920293 179.502636 C 826.358758 196.912359 892.522733 192.433193 916.553299 190.947081 C 1011.181473 185.092914 1106.177959 191.58597 1200.979865 190.134581 C 1269.583032 189.08597 1367.727536 188.481803 1487.852572 190.947081 " stroke="#000000" stroke-width="1" stroke-opacity="0.2" stroke-miterlimit="10"/></g><g clip-path="url(#b020ec2d44)"><path stroke-linecap="butt" transform="matrix(0.56211, 0, 0, 0.5625, 0.83955, -0.267103)" fill="none" stroke-linejoin="miter" d="M 507.929427 -96.948766 C 510.618793 -44.337653 517.727894 7.947072 529.180287 59.363741 C 537.234488 95.231799 544.183755 115.787355 558.603485 137.002634 C 581.153857 170.224858 609.770941 187.176248 624.802206 195.856804 C 664.392182 218.717916 701.939074 225.037361 734.32266 228.544305 C 818.103028 237.634584 879.534552 229.315139 933.752736 224.454027 C 956.831253 222.398472 1020.750615 221.454027 1148.700526 219.558194 C 1224.093128 218.447083 1332.161185 218.231805 1465.823395 222.822083 " stroke="#000000" stroke-width="1" stroke-opacity="0.2" stroke-miterlimit="10"/></g><g clip-path="url(#4a3d0241d3)"><path stroke-linecap="butt" transform="matrix(0.56211, 0, 0, 0.5625, 0.83955, -0.267103)" fill="none" stroke-linejoin="miter" d="M 432.731404 -112.941823 C 432.731404 -41.594597 431.459688 15.731795 430.285262 54.801241 C 428.492351 114.183189 426.761984 138.731801 437.644536 174.13458 C 444.114304 195.197082 458.693867 240.502639 501.390166 275.474863 C 547.449911 313.204032 599.791793 317.245699 630.521453 319.613754 C 661.070433 321.974866 683.822334 318.815143 706.518641 315.523476 C 809.875095 300.572087 861.473406 293.09292 900.243369 285.287364 C 977.060571 269.808196 1038.089037 268.155419 1160.13902 264.856807 C 1272.029175 261.87764 1383.988822 266.51653 1495.239643 278.745697 " stroke="#000000" stroke-width="1" stroke-opacity="0.2" stroke-miterlimit="10"/></g><g clip-path="url(#b0f7217b44)"><path stroke-linecap="butt" transform="matrix(0.56211, 0, 0, 0.5625, 0.83955, -0.267103)" fill="none" stroke-linejoin="miter" d="M 353.454162 -128.941824 C 350.660556 -91.261266 345.476403 -53.795987 337.922549 -16.775151 C 334.552155 -0.198762 331.862788 10.606794 314.218598 78.037353 C 284.760654 190.655415 282.411801 198.204026 282.349258 217.835972 C 282.272816 241.835973 282.759265 289.662364 313.34994 334.717922 C 336.692529 369.002646 366.352002 385.356813 390.18104 398.467925 C 409.500003 409.106815 454.183793 430.884593 524.183763 436.058205 C 580.590967 440.224872 622.912005 431.356816 712.98146 407.454037 C 867.088414 366.558201 872.25172 358.266534 943.460863 342.065144 C 1056.789515 316.29431 1147.296774 313.73181 1194.378061 312.641532 C 1288.10283 310.516532 1381.778955 318.183199 1473.898443 335.523477 " stroke="#000000" stroke-width="1" stroke-opacity="0.2" stroke-miterlimit="10"/><path stroke-linecap="butt" transform="matrix(0.56211, 0, 0, 0.5625, 0.83955, -0.267103)" fill="none" stroke-linejoin="miter" d="M 312.59247 -128.941824 C 306.025412 -83.782099 295.066417 -39.372375 279.875319 3.655405 C 267.915629 38.308185 253.155385 71.926242 235.740521 104.183188 C 199.583483 170.954025 180.973345 177.634581 167.901773 224.335972 C 162.189475 244.731806 152.745421 278.523475 163.822553 316.697088 C 175.823938 357.891534 205.024759 381.231813 247.179016 413.954037 C 284.705059 443.016538 326.289476 466.426262 370.604954 483.426263 C 406.213 497.085986 468.408943 520.245709 548.770271 516.113764 C 590.771644 513.954042 621.202486 504.565153 680.361599 485.877652 C 772.112776 456.87765 790.271212 439.433205 869.159296 410.683203 C 937.692971 385.662369 1008.65194 367.856812 1080.868727 357.558201 C 1218.047265 338.731811 1357.63025 347.912367 1491.160424 384.558202 " stroke="#000000" stroke-width="1" stroke-opacity="0.2" stroke-miterlimit="10"/></g><g clip-path="url(#eb4ffe1910)"><path stroke-linecap="butt" transform="matrix(0.56211, 0, 0, 0.5625, 0.83955, -0.267103)" fill="none" stroke-linejoin="miter" d="M 12.36327 438.474872 C 53.24581 439.960983 93.669699 447.676261 132.231183 461.349873 C 165.233254 473.120707 177.811428 482.634596 227.040039 508.210986 C 275.761352 533.530432 323.96842 558.585989 379.611204 577.954045 C 434.218548 596.954046 478.332497 612.342936 537.609748 610.655436 C 599.777894 608.884602 646.080863 589.280435 693.454019 569.245711 C 747.519319 546.349877 754.121123 534.905432 823.134298 498.40543 C 858.241997 479.835985 921.661011 446.294316 997.491417 422.120704 C 1097.491375 390.245702 1181.236996 386.745702 1211.07715 386.120702 C 1331.299476 383.77348 1430.083312 412.120704 1496.587801 438.433205 " stroke="#000000" stroke-width="1" stroke-opacity="0.2" stroke-miterlimit="10"/></g><g clip-path="url(#75d8ae807f)"><path stroke-linecap="butt" transform="matrix(0.56211, 0, 0, 0.5625, 0.83955, -0.267103)" fill="none" stroke-linejoin="miter" d="M 827.498438 705.551274 C 825.441454 682.245717 825.67078 647.50266 840.57001 611.023491 C 904.343436 454.870706 1164.1279 444.891539 1199.152207 444.023483 C 1252.043082 442.676261 1346.831089 447.954039 1458.47107 499.884597 " stroke="#000000" stroke-width="1" stroke-opacity="0.2" stroke-miterlimit="10"/></g></g></g></g></g></svg>