<svg viewBox="0 0 1441 444" fill="none" xmlns="http://www.w3.org/2000/svg" preserveAspectRatio="none" class="call_to_action_tile_contour__Y9RiP"><g opacity="0.48" clip-path="url(#clip0_1953_70811)"><g clip-path="url(#clip1_1953_70811)"><path d="M696.092 565.613C677.376 546.444 656.846 529.133 634.792 513.923C518.792 434.013 389.872 434.063 235.992 436.103C151.63 437.268 67.4715 444.702 -15.7882 458.343" stroke="rgba(0,0,0,0.2)" stroke-miterlimit="10"></path><path d="M748.4 565.613C736.14 542.183 712.61 504.753 670.75 473.873C631.43 444.873 593.25 434.413 566.96 428.103C388.44 385.253 193.57 397.743 156.66 400.313C110.59 403.533 46.9604 409.313 -28.8696 420.753" stroke="rgba(0,0,0,0.2)" stroke-miterlimit="10"></path><path d="M799.871 565.613C790.391 538.503 769.711 491.743 724.681 453.443C688.631 422.793 652.011 410.333 626.601 402.773C487.311 361.313 332.481 362.113 203.231 366.773C152.491 368.623 82.5611 371.903 -1.09888 378.223" stroke="rgba(0,0,0,0.2)" stroke-miterlimit="10"></path><path d="M843.211 549.613C836.378 517.64 823.925 487.134 806.431 459.513C779.431 416.893 747.941 393.213 740.231 387.583C693.231 353.323 644.931 345.133 617.631 341.003C448.851 315.423 263.051 320.243 250.631 320.563C199.381 321.893 109.631 324.103 -6.82904 326.283" stroke="rgba(0,0,0,0.2)" stroke-miterlimit="10"></path><path d="M882.441 549.613C878.45 521.506 871.038 493.992 860.371 467.683C850.711 443.873 838.191 413.013 809.701 381.863C768.551 336.863 720.851 320.563 703.451 314.863C678.102 306.593 651.653 302.183 624.991 301.783C526.881 299.283 428.851 288.323 330.751 291.163C253.531 293.393 141.031 295.263 -3.52863 292.793" stroke="rgba(0,0,0,0.2)" stroke-miterlimit="10"></path><path d="M919.221 541.613C917.871 470.613 897.761 419.243 884.071 391.023C871.291 364.683 856.861 335.713 826.071 310.113C805.011 292.613 777.171 277.423 719.821 265.163C638.381 247.753 572.221 252.233 548.191 253.723C453.561 259.573 358.561 253.083 263.761 254.533C195.161 255.583 97.0107 256.183 -23.1093 253.723" stroke="rgba(0,0,0,0.2)" stroke-miterlimit="10"></path><path d="M956.811 541.613C954.121 489.006 947.013 436.719 935.561 385.303C927.511 349.433 920.561 328.883 906.141 307.663C883.591 274.443 854.971 257.493 839.941 248.813C800.351 225.953 762.801 219.633 730.421 216.123C646.641 207.033 585.211 215.353 530.991 220.213C507.911 222.273 443.991 223.213 316.041 225.113C240.651 226.223 132.581 226.433 -1.07941 221.843" stroke="rgba(0,0,0,0.2)" stroke-miterlimit="10"></path><path d="M1032.01 557.613C1032.01 486.263 1033.28 428.933 1034.46 389.863C1036.25 330.483 1037.98 305.933 1027.1 270.533C1020.63 249.473 1006.05 204.163 963.35 169.193C917.29 131.463 864.95 127.423 834.22 125.053C803.67 122.693 780.92 125.853 758.22 129.143C654.87 144.093 603.27 151.573 564.5 159.383C487.68 174.863 426.65 176.513 304.6 179.813C192.715 182.79 80.7561 178.149 -30.4995 165.923" stroke="rgba(0,0,0,0.2)" stroke-miterlimit="10"></path><path d="M1111.29 573.613C1114.08 535.931 1119.27 498.466 1126.82 461.443C1130.19 444.863 1132.88 434.063 1150.52 366.633C1179.98 254.013 1182.33 246.463 1182.39 226.833C1182.47 202.833 1181.98 155.003 1151.39 109.953C1128.05 75.6633 1098.39 59.3132 1074.56 46.2032C1055.24 35.5632 1010.56 13.7833 940.561 8.61328C884.151 4.44328 841.831 13.3133 751.761 37.2133C597.651 78.1133 592.491 86.4033 521.281 102.603C407.951 128.373 317.441 130.933 270.361 132.023C176.646 134.154 82.9635 126.485 -9.15857 109.143" stroke="rgba(0,0,0,0.2)" stroke-miterlimit="10"></path><path d="M1152.15 573.613C1158.71 528.453 1169.67 484.043 1184.87 441.013C1196.83 406.361 1211.59 372.739 1229 340.483C1265.16 273.713 1283.77 267.033 1296.84 220.333C1302.55 199.933 1312 166.143 1300.92 127.973C1288.92 86.7733 1259.72 63.4333 1217.56 30.7133C1180.04 1.64846 1138.46 -21.7571 1094.14 -38.7567C1058.53 -52.4167 996.331 -75.5768 915.971 -71.4468C873.971 -69.2868 843.541 -59.8967 784.381 -41.2067C692.631 -12.2067 674.471 5.23328 595.581 33.9833C527.05 59.0066 456.096 76.813 383.871 87.1133C246.688 105.939 107.113 96.754 -26.4194 60.1133" stroke="rgba(0,0,0,0.2)" stroke-miterlimit="10"></path><path d="M1452.38 6.19479C1411.49 4.70614 1371.07 -3.00922 1332.51 -16.6852C1299.51 -28.4552 1286.93 -37.9652 1237.7 -63.5452C1188.98 -88.8652 1140.77 -113.915 1085.13 -133.285C1030.52 -152.285 986.411 -167.675 927.131 -165.985C864.961 -164.215 818.661 -144.615 771.291 -124.575C717.221 -101.685 710.621 -90.2352 641.611 -53.7352C606.501 -35.1652 543.081 -1.62517 467.251 22.5448C367.251 54.4248 283.501 57.9248 253.661 58.5448C133.441 60.8948 34.6609 32.5448 -31.8491 6.23483" stroke="rgba(0,0,0,0.2)" stroke-miterlimit="10"></path><path d="M637.241 -260.886C639.301 -237.576 639.071 -202.836 624.171 -166.356C560.401 -10.206 300.611 -0.225985 265.591 0.644015C212.701 1.99402 117.911 -3.28597 6.27112 -55.216" stroke="rgba(0,0,0,0.2)" stroke-miterlimit="10"></path></g><g clip-path="url(#clip2_1953_70811)"><path d="M768.65 -120.945C787.367 -101.776 807.896 -84.4653 829.95 -69.2553C945.95 10.6547 1074.87 10.6047 1228.75 8.56468C1313.11 7.39962 1397.27 -0.0341787 1480.53 -13.6753" stroke="rgba(0,0,0,0.2)" stroke-miterlimit="10"></path><path d="M716.342 -120.945C728.602 -97.5153 752.132 -60.0853 793.992 -29.2053C833.312 -0.205307 871.492 10.2547 897.782 16.5647C1076.3 59.4147 1271.17 46.9247 1308.08 44.3547C1354.15 41.1347 1417.78 35.3547 1493.61 23.9147" stroke="rgba(0,0,0,0.2)" stroke-miterlimit="10"></path><path d="M664.871 -120.945C674.351 -93.8353 695.031 -47.0753 740.061 -8.77531C776.111 21.8747 812.731 34.3347 838.141 41.8947C977.431 83.3547 1132.26 82.5547 1261.51 77.8947C1312.25 76.0447 1382.18 72.7647 1465.84 66.4447" stroke="rgba(0,0,0,0.2)" stroke-miterlimit="10"></path><path d="M621.531 -104.945C628.364 -72.9724 640.817 -42.466 658.311 -14.8453C685.311 27.7747 716.801 51.4547 724.511 57.0847C771.511 91.3447 819.811 99.5347 847.111 103.665C1015.89 129.245 1201.69 124.425 1214.11 124.105C1265.36 122.775 1355.11 120.565 1471.57 118.385" stroke="rgba(0,0,0,0.2)" stroke-miterlimit="10"></path><path d="M582.301 -104.945C586.292 -76.8382 593.704 -49.3243 604.371 -23.0153C614.031 0.79468 626.551 31.6547 655.041 62.8047C696.191 107.805 743.891 124.105 761.291 129.805C786.64 138.075 813.089 142.485 839.751 142.885C937.861 145.385 1035.89 156.345 1133.99 153.505C1211.21 151.275 1323.71 149.405 1468.27 151.875" stroke="rgba(0,0,0,0.2)" stroke-miterlimit="10"></path><path d="M545.521 -96.9453C546.871 -25.9453 566.981 25.4247 580.671 53.6447C593.451 79.9847 607.881 108.955 638.671 134.555C659.731 152.055 687.571 167.245 744.921 179.505C826.361 196.915 892.521 192.435 916.551 190.945C1011.18 185.095 1106.18 191.585 1200.98 190.135C1269.58 189.085 1367.73 188.485 1487.85 190.945" stroke="rgba(0,0,0,0.2)" stroke-miterlimit="10"></path><path d="M507.932 -96.9453C510.621 -44.3384 517.729 7.94914 529.182 59.3647C537.232 95.2347 544.182 115.785 558.602 137.005C581.152 170.225 609.772 187.175 624.802 195.855C664.392 218.715 701.942 225.035 734.322 228.545C818.102 237.635 879.532 229.315 933.752 224.455C956.832 222.395 1020.75 221.455 1148.7 219.555C1224.09 218.445 1332.16 218.235 1465.82 222.825" stroke="rgba(0,0,0,0.2)" stroke-miterlimit="10"></path><path d="M432.732 -112.945C432.732 -41.5953 431.462 15.7347 430.282 54.8047C428.492 114.185 426.762 138.735 437.642 174.135C444.112 195.195 458.692 240.505 501.392 275.475C547.452 313.205 599.792 317.245 630.522 319.615C661.072 321.975 683.822 318.815 706.522 315.525C809.872 300.575 861.472 293.095 900.242 285.285C977.062 269.805 1038.09 268.155 1160.14 264.855C1272.03 261.878 1383.99 266.518 1495.24 278.745" stroke="rgba(0,0,0,0.2)" stroke-miterlimit="10"></path><path d="M353.451 -128.945C350.662 -91.2634 345.474 -53.7975 337.921 -16.7753C334.551 -0.195314 331.861 10.6047 314.221 78.0347C284.761 190.655 282.411 198.205 282.351 217.835C282.271 241.835 282.761 289.665 313.351 334.715C336.691 369.005 366.351 385.355 390.181 398.465C409.501 409.105 454.181 430.885 524.181 436.055C580.591 440.225 622.911 431.355 712.981 407.455C867.091 366.555 872.251 358.265 943.461 342.065C1056.79 316.295 1147.3 313.735 1194.38 312.645C1288.1 310.514 1381.78 318.183 1473.9 335.525" stroke="rgba(0,0,0,0.2)" stroke-miterlimit="10"></path><path d="M312.592 -128.945C306.028 -83.7855 295.069 -39.3747 279.872 3.65469C267.916 38.3074 253.157 71.9286 235.742 104.185C199.582 170.955 180.972 177.635 167.902 224.335C162.192 244.735 152.742 278.525 163.822 316.695C175.822 357.895 205.022 381.235 247.182 413.955C284.705 443.02 326.287 466.425 370.602 483.425C406.212 497.085 468.412 520.245 548.772 516.115C590.772 513.955 621.202 504.565 680.362 485.875C772.112 456.875 790.272 439.435 869.162 410.685C937.692 385.661 1008.65 367.855 1080.87 357.555C1218.05 338.729 1357.63 347.914 1491.16 384.555" stroke="rgba(0,0,0,0.2)" stroke-miterlimit="10"></path><path d="M12.3613 438.473C53.2488 439.962 93.6701 447.677 132.231 461.353C165.231 473.123 177.811 482.633 227.041 508.213C275.761 533.533 323.971 558.583 379.611 577.953C434.221 596.953 478.331 612.343 537.611 610.653C599.781 608.883 646.081 589.283 693.451 569.243C747.521 546.353 754.121 534.903 823.131 498.403C858.241 479.833 921.661 446.293 997.491 422.123C1097.49 390.243 1181.24 386.743 1211.08 386.123C1331.3 383.773 1430.08 412.123 1496.59 438.433" stroke="rgba(0,0,0,0.2)" stroke-miterlimit="10"></path><path d="M827.501 705.554C825.441 682.244 825.671 647.504 840.571 611.024C904.341 454.874 1164.13 444.894 1199.15 444.024C1252.04 442.674 1346.83 447.954 1458.47 499.884" stroke="rgba(0,0,0,0.2)" stroke-miterlimit="10"></path></g></g><defs><clipPath id="clip0_1953_70811"><rect width="1440" height="443" fill="white" transform="translate(0.28125 0.833984)"></rect></clipPath><clipPath id="clip1_1953_70811"><rect width="769" height="435" fill="white" transform="translate(704.281 435.834) rotate(-180)"></rect></clipPath><clipPath id="clip2_1953_70811"><rect width="769" height="435" fill="white" transform="translate(760.461 8.83398)"></rect></clipPath></defs></svg>