<svg xmlns="http://www.w3.org/2000/svg" xmlns:xlink="http://www.w3.org/1999/xlink" width="1080" zoomAndPan="magnify" viewBox="0 0 810 249.749984" height="333" preserveAspectRatio="xMidYMid meet" version="1.0"><defs><filter x="0%" y="0%" width="100%" height="100%" id="50c5dacce8"><feColorMatrix values="0 0 0 0 1 0 0 0 0 1 0 0 0 0 1 0 0 0 1 0" color-interpolation-filters="sRGB"/></filter><clipPath id="81a90c45ff"><path d="M 0.40625 0.46875 L 809.59375 0.46875 L 809.59375 249.40625 L 0.40625 249.40625 Z M 0.40625 0.46875 " clip-rule="nonzero"/></clipPath><mask id="a61fe66e28"><g filter="url(#50c5dacce8)"><rect x="-81" width="972" fill="#000000" y="-24.974998" height="299.699981" fill-opacity="0.48"/></g></mask><clipPath id="be6aeefc4f"><path d="M 0.40625 236 L 395.976562 236 L 395.976562 244.910156 L 0.40625 244.910156 Z M 0.40625 236 " clip-rule="nonzero"/></clipPath><clipPath id="9626564097"><path d="M 0.40625 214 L 395.976562 214 L 395.976562 244.910156 L 0.40625 244.910156 Z M 0.40625 214 " clip-rule="nonzero"/></clipPath><clipPath id="e24fd24604"><path d="M 0.40625 196 L 395.976562 196 L 395.976562 244.910156 L 0.40625 244.910156 Z M 0.40625 196 " clip-rule="nonzero"/></clipPath><clipPath id="1374c8e0e1"><path d="M 0.40625 171 L 395.976562 171 L 395.976562 244.910156 L 0.40625 244.910156 Z M 0.40625 171 " clip-rule="nonzero"/></clipPath><clipPath id="ee824a48f0"><path d="M 0.40625 155 L 395.976562 155 L 395.976562 244.910156 L 0.40625 244.910156 Z M 0.40625 155 " clip-rule="nonzero"/></clipPath><clipPath id="66cce2b00e"><path d="M 0.40625 133 L 395.976562 133 L 395.976562 244.910156 L 0.40625 244.910156 Z M 0.40625 133 " clip-rule="nonzero"/></clipPath><clipPath id="8cd4e70fe4"><path d="M 0.40625 111 L 395.976562 111 L 395.976562 244.910156 L 0.40625 244.910156 Z M 0.40625 111 " clip-rule="nonzero"/></clipPath><clipPath id="32fec035ad"><path d="M 0.40625 61 L 395.976562 61 L 395.976562 244.910156 L 0.40625 244.910156 Z M 0.40625 61 " clip-rule="nonzero"/></clipPath><clipPath id="12b4c4ca1e"><path d="M 0.40625 0.46875 L 395.976562 0.46875 L 395.976562 244.910156 L 0.40625 244.910156 Z M 0.40625 0.46875 " clip-rule="nonzero"/></clipPath><clipPath id="b0e0271e80"><path d="M 0.40625 0.46875 L 395.976562 0.46875 L 395.976562 41 L 0.40625 41 Z M 0.40625 0.46875 " clip-rule="nonzero"/></clipPath><clipPath id="f2cdc24b3f"><path d="M 0.40625 0.46875 L 367 0.46875 L 367 9 L 0.40625 9 Z M 0.40625 0.46875 " clip-rule="nonzero"/></clipPath><clipPath id="7bddacbeaa"><path d="M 427.554688 4.964844 L 809.59375 4.964844 L 809.59375 14 L 427.554688 14 Z M 427.554688 4.964844 " clip-rule="nonzero"/></clipPath><clipPath id="127be2fb63"><path d="M 427.554688 4.964844 L 809.59375 4.964844 L 809.59375 35 L 427.554688 35 Z M 427.554688 4.964844 " clip-rule="nonzero"/></clipPath><clipPath id="f9aea797a3"><path d="M 427.554688 4.964844 L 809.59375 4.964844 L 809.59375 53 L 427.554688 53 Z M 427.554688 4.964844 " clip-rule="nonzero"/></clipPath><clipPath id="57b590cc5b"><path d="M 427.554688 4.964844 L 809.59375 4.964844 L 809.59375 78 L 427.554688 78 Z M 427.554688 4.964844 " clip-rule="nonzero"/></clipPath><clipPath id="c4d9fdb832"><path d="M 427.554688 4.964844 L 809.59375 4.964844 L 809.59375 95 L 427.554688 95 Z M 427.554688 4.964844 " clip-rule="nonzero"/></clipPath><clipPath id="f31d542d42"><path d="M 427.554688 4.964844 L 809.59375 4.964844 L 809.59375 117 L 427.554688 117 Z M 427.554688 4.964844 " clip-rule="nonzero"/></clipPath><clipPath id="75ca2146b3"><path d="M 427.554688 4.964844 L 809.59375 4.964844 L 809.59375 139 L 427.554688 139 Z M 427.554688 4.964844 " clip-rule="nonzero"/></clipPath><clipPath id="951201d595"><path d="M 427.554688 4.964844 L 809.59375 4.964844 L 809.59375 189 L 427.554688 189 Z M 427.554688 4.964844 " clip-rule="nonzero"/></clipPath><clipPath id="0649757be0"><path d="M 427.554688 4.964844 L 809.59375 4.964844 L 809.59375 249.40625 L 427.554688 249.40625 Z M 427.554688 4.964844 " clip-rule="nonzero"/></clipPath><clipPath id="bc25538a39"><path d="M 427.554688 208 L 809.59375 208 L 809.59375 249.40625 L 427.554688 249.40625 Z M 427.554688 208 " clip-rule="nonzero"/></clipPath><clipPath id="0c996e582e"><path d="M 456 241 L 809.59375 241 L 809.59375 249.40625 L 456 249.40625 Z M 456 241 " clip-rule="nonzero"/></clipPath><clipPath id="03177b48b4"><rect x="0" width="810" y="0" height="250"/></clipPath><clipPath id="9468a4f36f"><path d="M 0.40625 0 L 809.59375 0 L 809.59375 240.492188 L 0.40625 240.492188 Z M 0.40625 0 " clip-rule="nonzero"/></clipPath><mask id="32b160dc68"><g filter="url(#50c5dacce8)"><rect x="-81" width="972" fill="#000000" y="-24.974998" height="299.699981" fill-opacity="0.48"/></g></mask><clipPath id="316dcbdb2a"><path d="M 0.40625 227 L 395.773438 227 L 395.773438 235.886719 L 0.40625 235.886719 Z M 0.40625 227 " clip-rule="nonzero"/></clipPath><clipPath id="e623f1e2b4"><path d="M 0.40625 205 L 395.773438 205 L 395.773438 235.886719 L 0.40625 235.886719 Z M 0.40625 205 " clip-rule="nonzero"/></clipPath><clipPath id="b0125979c7"><path d="M 0.40625 186 L 395.773438 186 L 395.773438 235.886719 L 0.40625 235.886719 Z M 0.40625 186 " clip-rule="nonzero"/></clipPath><clipPath id="5d15576995"><path d="M 0.40625 161 L 395.773438 161 L 395.773438 235.886719 L 0.40625 235.886719 Z M 0.40625 161 " clip-rule="nonzero"/></clipPath><clipPath id="2a64a897e6"><path d="M 0.40625 144 L 395.773438 144 L 395.773438 235.886719 L 0.40625 235.886719 Z M 0.40625 144 " clip-rule="nonzero"/></clipPath><clipPath id="30766b0602"><path d="M 0.40625 122 L 395.773438 122 L 395.773438 235.886719 L 0.40625 235.886719 Z M 0.40625 122 " clip-rule="nonzero"/></clipPath><clipPath id="f7b3ae2c3d"><path d="M 0.40625 98 L 395.773438 98 L 395.773438 235.886719 L 0.40625 235.886719 Z M 0.40625 98 " clip-rule="nonzero"/></clipPath><clipPath id="f93e47769f"><path d="M 0.40625 48 L 395.773438 48 L 395.773438 235.886719 L 0.40625 235.886719 Z M 0.40625 48 " clip-rule="nonzero"/></clipPath><clipPath id="61180e6045"><path d="M 0.40625 0 L 395.773438 0 L 395.773438 235.886719 L 0.40625 235.886719 Z M 0.40625 0 " clip-rule="nonzero"/></clipPath><clipPath id="cf241be162"><path d="M 0.40625 0 L 395.773438 0 L 395.773438 27 L 0.40625 27 Z M 0.40625 0 " clip-rule="nonzero"/></clipPath><clipPath id="c32a6a8952"><path d="M 428.082031 0 L 809.59375 0 L 809.59375 21 L 428.082031 21 Z M 428.082031 0 " clip-rule="nonzero"/></clipPath><clipPath id="d1f55fd931"><path d="M 428.082031 0 L 809.59375 0 L 809.59375 40 L 428.082031 40 Z M 428.082031 0 " clip-rule="nonzero"/></clipPath><clipPath id="5f349eea09"><path d="M 428.082031 0 L 809.59375 0 L 809.59375 65 L 428.082031 65 Z M 428.082031 0 " clip-rule="nonzero"/></clipPath><clipPath id="e1b5672464"><path d="M 428.082031 0 L 809.59375 0 L 809.59375 82 L 428.082031 82 Z M 428.082031 0 " clip-rule="nonzero"/></clipPath><clipPath id="9ee1d7fca2"><path d="M 428.082031 0 L 809.59375 0 L 809.59375 105 L 428.082031 105 Z M 428.082031 0 " clip-rule="nonzero"/></clipPath><clipPath id="a2521e33d2"><path d="M 428.082031 0 L 809.59375 0 L 809.59375 128 L 428.082031 128 Z M 428.082031 0 " clip-rule="nonzero"/></clipPath><clipPath id="e4f958f0aa"><path d="M 428.082031 0 L 809.59375 0 L 809.59375 178 L 428.082031 178 Z M 428.082031 0 " clip-rule="nonzero"/></clipPath><clipPath id="606f0ac936"><path d="M 428.082031 0 L 809.59375 0 L 809.59375 240.492188 L 428.082031 240.492188 Z M 428.082031 0 " clip-rule="nonzero"/></clipPath><clipPath id="123944813d"><path d="M 428.082031 199 L 809.59375 199 L 809.59375 240.492188 L 428.082031 240.492188 Z M 428.082031 199 " clip-rule="nonzero"/></clipPath><clipPath id="25b420ea9a"><path d="M 457 232 L 809.59375 232 L 809.59375 240.492188 L 457 240.492188 Z M 457 232 " clip-rule="nonzero"/></clipPath><clipPath id="1636e71bf6"><rect x="0" width="810" y="0" height="241"/></clipPath></defs><g clip-path="url(#81a90c45ff)"><g mask="url(#a61fe66e28)"><g transform="matrix(1, 0, 0, 1, 0.000000000000000056, -0.000000000000040357)"><g clip-path="url(#03177b48b4)"><g clip-path="url(#be6aeefc4f)"><path stroke-linecap="butt" transform="matrix(0.562067, 0, 0, 0.561937, 0.124057, -0.00000999)" fill="none" stroke-linejoin="miter" d="M 696.092615 565.614303 C 677.376831 546.442351 656.847152 529.133374 634.78852 513.923718 C 518.78958 434.010463 389.870981 434.066074 235.988737 436.102833 C 151.632189 437.270668 67.470236 444.701711 -15.788245 458.340351 " stroke="#000000" stroke-width="1" stroke-opacity="0.2" stroke-miterlimit="10"/></g><g clip-path="url(#9626564097)"><path stroke-linecap="butt" transform="matrix(0.562067, 0, 0, 0.561937, 0.124057, -0.00000999)" fill="none" stroke-linejoin="miter" d="M 748.396732 565.614303 C 736.137303 542.181145 712.612265 504.754826 670.746732 473.869771 C 631.431771 444.875496 593.249627 434.413644 566.958572 428.101776 C 388.439324 385.253367 193.56722 397.745027 156.656887 400.310092 C 110.586731 403.53554 46.961406 409.312151 -28.867749 420.75415 " stroke="#000000" stroke-width="1" stroke-opacity="0.2" stroke-miterlimit="10"/></g><g clip-path="url(#e24fd24604)"><path stroke-linecap="butt" transform="matrix(0.562067, 0, 0, 0.561937, 0.124057, -0.00000999)" fill="none" stroke-linejoin="miter" d="M 799.873824 565.614303 C 790.394311 538.503856 769.711737 491.741812 724.68405 453.439616 C 688.628541 422.790909 652.010099 410.334006 626.601667 402.770887 C 487.313982 361.312758 332.479617 362.112168 203.234378 366.769604 C 152.493963 368.625627 82.558229 371.899735 -1.096389 378.225505 " stroke="#000000" stroke-width="1" stroke-opacity="0.2" stroke-miterlimit="10"/></g><g clip-path="url(#1374c8e0e1)"><path stroke-linecap="butt" transform="matrix(0.562067, 0, 0, 0.561937, 0.124057, -0.00000999)" fill="none" stroke-linejoin="miter" d="M 843.212713 549.612188 C 836.38107 517.642715 823.927047 487.133036 806.434426 459.515137 C 779.434493 416.896125 747.938046 393.212716 740.230729 387.582085 C 693.229301 353.325603 644.928263 345.129906 617.629489 341.000777 C 448.853846 315.419637 263.051218 320.243907 250.631944 320.563671 C 199.384194 321.891388 109.62766 324.101932 -6.829966 326.28467 " stroke="#000000" stroke-width="1" stroke-opacity="0.2" stroke-miterlimit="10"/></g><g clip-path="url(#ee824a48f0)"><path stroke-linecap="butt" transform="matrix(0.562067, 0, 0, 0.561937, 0.124057, -0.00000999)" fill="none" stroke-linejoin="miter" d="M 882.444276 549.612188 C 878.448147 521.507692 871.039671 493.994064 860.371744 467.683028 C 850.711536 443.874495 838.188015 413.010294 809.700827 381.861086 C 768.551122 336.864696 720.847766 320.563671 703.452442 314.863526 C 678.099609 306.591364 651.655659 302.184178 624.989316 301.780997 C 526.879135 299.285446 428.852351 288.323094 330.749119 291.166215 C 253.530006 293.390662 141.03376 295.260587 -3.528816 292.792842 " stroke="#000000" stroke-width="1" stroke-opacity="0.2" stroke-miterlimit="10"/></g><g clip-path="url(#66cce2b00e)"><path stroke-linecap="butt" transform="matrix(0.562067, 0, 0, 0.561937, 0.124057, -0.00000999)" fill="none" stroke-linejoin="miter" d="M 919.222563 541.611131 C 917.874304 470.609566 897.761613 419.245697 884.070527 391.023027 C 871.289864 364.684185 856.8621 335.710764 826.067582 310.115722 C 805.009719 292.612105 777.168861 277.423304 719.819197 265.16104 C 638.381561 247.754743 572.219563 252.231443 548.19414 253.725993 C 453.558853 259.572117 358.562178 253.086464 263.760096 254.532355 C 195.158722 255.582016 97.013792 256.179836 -23.106373 253.725993 " stroke="#000000" stroke-width="1" stroke-opacity="0.2" stroke-miterlimit="10"/></g><g clip-path="url(#8cd4e70fe4)"><path stroke-linecap="butt" transform="matrix(0.562067, 0, 0, 0.561937, 0.124057, -0.00000999)" fill="none" stroke-linejoin="miter" d="M 956.813976 541.611131 C 954.124407 489.002961 947.014772 436.721508 935.561519 385.302027 C 927.513662 349.432821 920.563873 328.884493 906.143059 307.661879 C 883.590991 274.441155 854.971757 257.49365 839.939362 248.811355 C 800.35336 225.955163 762.803646 219.636344 730.417626 216.125889 C 646.637911 207.033462 585.20872 215.354284 530.99341 220.21331 C 507.913159 222.270923 443.988993 223.216313 316.043364 225.114044 C 240.652046 226.226268 132.582816 226.43481 -1.08249 221.839937 " stroke="#000000" stroke-width="1" stroke-opacity="0.2" stroke-miterlimit="10"/></g><g clip-path="url(#32fec035ad)"><path stroke-linecap="butt" transform="matrix(0.562067, 0, 0, 0.561937, 0.124057, -0.00000999)" fill="none" stroke-linejoin="miter" d="M 1032.0107 557.613245 C 1032.0107 486.264111 1033.282512 428.935943 1034.457026 389.862143 C 1036.250072 330.483314 1037.98057 305.930981 1027.097199 270.53447 C 1020.626945 249.471738 1006.053236 204.162535 963.346778 169.190059 C 917.290522 131.46483 864.951655 127.426068 834.219685 125.055642 C 803.66841 122.692167 780.921748 125.855053 758.216785 129.143063 C 654.873412 144.095517 603.271223 151.57522 564.498347 159.381638 C 487.682321 174.862399 426.649268 176.50988 304.597061 179.811793 C 192.712396 182.786991 80.758234 178.150409 -30.50095 165.922903 " stroke="#000000" stroke-width="1" stroke-opacity="0.2" stroke-miterlimit="10"/></g><g clip-path="url(#12b4c4ca1e)"><path stroke-linecap="butt" transform="matrix(0.562067, 0, 0, 0.561937, 0.124057, -0.00000999)" fill="none" stroke-linejoin="miter" d="M 1111.286952 573.61536 C 1114.080767 535.93184 1119.27226 498.463812 1126.819732 461.440674 C 1130.19038 444.861593 1132.879948 434.066074 1150.518514 366.630576 C 1179.978673 254.011 1182.327702 246.461783 1182.39025 226.831039 C 1182.466698 202.834818 1181.980212 155.002259 1151.387238 109.950257 C 1128.049844 75.665969 1098.388142 59.316285 1074.557313 46.205951 C 1055.236898 35.563363 1010.556699 13.784637 940.558418 8.612798 C 884.153924 4.44196 841.829705 13.311942 751.76043 37.210844 C 597.648843 78.112861 592.4921 86.405877 521.277604 102.602631 C 407.954333 128.371458 317.440272 130.929572 270.362397 132.020942 C 176.644482 134.15502 82.961317 126.48763 -9.158145 109.143895 " stroke="#000000" stroke-width="1" stroke-opacity="0.2" stroke-miterlimit="10"/><path stroke-linecap="butt" transform="matrix(0.562067, 0, 0, 0.561937, 0.124057, -0.00000999)" fill="none" stroke-linejoin="miter" d="M 1152.151715 573.61536 C 1158.712317 528.452137 1169.672135 484.039664 1184.871325 441.010519 C 1196.831913 406.357807 1211.593266 372.740854 1229.00249 340.486373 C 1265.162246 273.711258 1283.766833 267.030966 1296.839387 220.331484 C 1302.552114 199.936086 1311.996878 166.145347 1300.918914 127.975229 C 1288.916627 86.774301 1259.72056 63.431512 1217.563136 30.711288 C 1180.041221 1.647499 1138.460629 -21.757854 1094.14182 -38.754018 C 1058.531098 -52.413512 996.33048 -75.575566 915.970062 -71.446436 C 873.972482 -69.284552 843.539353 -59.900167 784.382743 -41.207861 C 692.631619 -12.206635 674.471819 5.234419 595.577806 33.985396 C 527.05288 59.003472 456.095527 76.81295 383.873312 87.11492 C 246.691413 105.939302 107.111836 96.756507 -26.421423 60.115695 " stroke="#000000" stroke-width="1" stroke-opacity="0.2" stroke-miterlimit="10"/></g><g clip-path="url(#b0e0271e80)"><path stroke-linecap="butt" transform="matrix(0.562067, 0, 0, 0.561937, 0.124057, -0.00000999)" fill="none" stroke-linejoin="miter" d="M 1452.382631 6.193712 C 1411.490068 4.706113 1371.070091 -3.009937 1332.512658 -16.683334 C 1299.508106 -28.452048 1286.928987 -37.96851 1237.696677 -63.542698 C 1188.978651 -88.866636 1140.767959 -113.912518 1085.127943 -133.28606 C 1030.523445 -152.284227 986.41313 -167.674619 927.131424 -165.98543 C 864.958605 -164.212824 818.659106 -144.616837 771.289339 -124.57596 C 717.219975 -101.685011 710.617675 -90.236061 641.613213 -53.734278 C 606.502876 -35.167097 543.079095 -1.626609 467.249939 22.543397 C 367.249415 54.422502 283.504449 57.926005 253.662052 58.54468 C 133.43764 60.894252 34.660279 32.546457 -31.849209 6.235421 " stroke="#000000" stroke-width="1" stroke-opacity="0.2" stroke-miterlimit="10"/></g><g clip-path="url(#f2cdc24b3f)"><path stroke-linecap="butt" transform="matrix(0.562067, 0, 0, 0.561937, 0.124057, -0.00000999)" fill="none" stroke-linejoin="miter" d="M 637.241795 -260.885896 C 639.298933 -237.577863 639.06959 -202.834783 624.169241 -166.353854 C 560.397971 -10.204632 300.607881 -0.229378 265.587891 0.646498 C 212.699991 1.995069 117.91181 -3.287993 6.270388 -55.214925 " stroke="#000000" stroke-width="1" stroke-opacity="0.2" stroke-miterlimit="10"/></g><g clip-path="url(#7bddacbeaa)"><path stroke-linecap="butt" transform="matrix(0.562067, 0, 0, 0.561937, 0.124057, -0.00000999)" fill="none" stroke-linejoin="miter" d="M 768.648419 -120.947331 C 787.364203 -101.775379 807.893882 -84.466402 829.952514 -69.256746 C 945.951454 10.656509 1074.870053 10.607849 1228.752297 8.564138 C 1313.108845 7.396304 1397.270798 -0.0347392 1480.529279 -13.673379 " stroke="#000000" stroke-width="1" stroke-opacity="0.2" stroke-miterlimit="10"/></g><g clip-path="url(#127be2fb63)"><path stroke-linecap="butt" transform="matrix(0.562067, 0, 0, 0.561937, 0.124057, -0.00000999)" fill="none" stroke-linejoin="miter" d="M 716.344302 -120.947331 C 728.603731 -97.514173 752.128769 -60.087854 793.994302 -29.202799 C 833.309263 -0.208524 871.491407 10.253328 897.782462 16.565196 C 1076.30171 59.413604 1271.166864 46.921945 1308.077197 44.356879 C 1354.147353 41.131431 1417.779628 35.354821 1493.608783 23.912822 " stroke="#000000" stroke-width="1" stroke-opacity="0.2" stroke-miterlimit="10"/></g><g clip-path="url(#f9aea797a3)"><path stroke-linecap="butt" transform="matrix(0.562067, 0, 0, 0.561937, 0.124057, -0.00000999)" fill="none" stroke-linejoin="miter" d="M 664.874159 -120.947331 C 674.353672 -93.836885 695.029297 -47.07484 740.063934 -8.772645 C 776.112493 21.876063 812.730935 34.332965 838.139367 41.896085 C 977.434002 83.354214 1132.261417 82.554804 1261.506656 77.897368 C 1312.247071 76.041345 1382.182805 72.767237 1465.837423 66.441466 " stroke="#000000" stroke-width="1" stroke-opacity="0.2" stroke-miterlimit="10"/></g><g clip-path="url(#57b590cc5b)"><path stroke-linecap="butt" transform="matrix(0.562067, 0, 0, 0.561937, 0.124057, -0.00000999)" fill="none" stroke-linejoin="miter" d="M 621.528321 -104.945216 C 628.366914 -72.975743 640.813987 -42.466064 658.313558 -14.848165 C 685.313491 27.777798 716.802988 51.454255 724.510305 57.084886 C 771.511733 91.341369 819.812771 99.537065 847.111545 103.666195 C 1015.887188 129.247334 1201.689816 124.423065 1214.10909 124.103301 C 1265.35684 122.775584 1355.113374 120.56504 1471.571 118.382301 " stroke="#000000" stroke-width="1" stroke-opacity="0.2" stroke-miterlimit="10"/></g><g clip-path="url(#c4d9fdb832)"><path stroke-linecap="butt" transform="matrix(0.562067, 0, 0, 0.561937, 0.124057, -0.00000999)" fill="none" stroke-linejoin="miter" d="M 582.303708 -104.945216 C 586.292887 -76.84072 593.701363 -49.327092 604.36929 -23.016056 C 614.029498 0.792477 626.553019 31.656678 655.040207 62.805886 C 696.189912 107.802276 743.893268 124.103301 761.288592 129.803446 C 786.641425 138.075608 813.092324 142.482793 839.751718 142.885974 C 937.861899 145.381526 1035.888683 156.343878 1133.991915 153.507708 C 1211.211028 151.27631 1323.707274 149.406384 1468.26985 151.87413 " stroke="#000000" stroke-width="1" stroke-opacity="0.2" stroke-miterlimit="10"/></g><g clip-path="url(#f31d542d42)"><path stroke-linecap="butt" transform="matrix(0.562067, 0, 0, 0.561937, 0.124057, -0.00000999)" fill="none" stroke-linejoin="miter" d="M 545.518471 -96.944159 C 546.87368 -25.942594 566.979421 25.421275 580.670507 53.643945 C 593.45117 79.982787 607.878934 108.956208 638.673452 134.558201 C 659.731315 152.054866 687.572173 167.243668 744.921837 179.505932 C 826.359473 196.912229 892.521471 192.435529 916.553844 190.94793 C 1011.182181 185.094854 1106.178856 191.587459 1200.980938 190.134617 C 1269.582312 189.084956 1367.727242 188.487136 1487.847407 190.94793 " stroke="#000000" stroke-width="1" stroke-opacity="0.2" stroke-miterlimit="10"/></g><g clip-path="url(#75ca2146b3)"><path stroke-linecap="butt" transform="matrix(0.562067, 0, 0, 0.561937, 0.124057, -0.00000999)" fill="none" stroke-linejoin="miter" d="M 507.934008 -96.944159 C 510.623577 -44.33599 517.726262 7.952415 529.179515 59.364945 C 537.234322 95.234151 544.184111 115.782479 558.604925 137.005093 C 581.150043 170.225817 609.769277 187.173322 624.801672 195.855616 C 664.394624 218.711808 701.944338 225.037579 734.323408 228.548034 C 818.103123 237.63351 879.532314 229.312688 933.754573 224.453662 C 956.834825 222.396048 1020.752041 221.45761 1148.69767 219.552927 C 1224.088988 218.447655 1332.158218 218.232162 1465.816574 222.827035 " stroke="#000000" stroke-width="1" stroke-opacity="0.2" stroke-miterlimit="10"/></g><g clip-path="url(#951201d595)"><path stroke-linecap="butt" transform="matrix(0.562067, 0, 0, 0.561937, 0.124057, -0.00000999)" fill="none" stroke-linejoin="miter" d="M 432.730334 -112.946274 C 432.730334 -41.597139 431.465472 15.73798 430.284008 54.804828 C 428.490962 114.183658 426.760464 138.735991 437.643835 174.132502 C 444.114089 195.195234 458.694748 240.504436 501.394256 275.476913 C 547.450512 313.202142 599.789379 317.247855 630.521349 319.618281 C 661.072624 321.974804 683.819286 318.811919 706.524249 315.523908 C 809.874572 300.578406 861.469811 293.091752 900.242687 285.285333 C 977.058713 269.804573 1038.091766 268.157092 1160.137023 264.855179 C 1272.028638 261.879981 1383.98975 266.516562 1495.241984 278.744069 " stroke="#000000" stroke-width="1" stroke-opacity="0.2" stroke-miterlimit="10"/></g><g clip-path="url(#0649757be0)"><path stroke-linecap="butt" transform="matrix(0.562067, 0, 0, 0.561937, 0.124057, -0.00000999)" fill="none" stroke-linejoin="miter" d="M 353.454082 -128.948389 C 350.660267 -91.264868 345.475724 -53.79684 337.921302 -16.773702 C 334.550654 -0.194621 331.861086 10.607849 314.22252 78.036396 C 284.762361 190.655972 282.413332 198.205188 282.350784 217.835932 C 282.274336 241.832153 282.760822 289.664713 313.353796 334.716714 C 336.69119 369.007954 366.352892 385.357638 390.183721 398.467972 C 409.504136 409.103609 454.184334 430.882334 524.182616 436.054174 C 580.59406 440.225011 622.911329 431.355029 712.980604 407.456128 C 867.092191 366.554111 872.248934 358.268046 943.46343 342.06434 C 1056.786701 316.295513 1147.300762 313.737399 1194.378637 312.64603 C 1288.096552 310.511951 1381.779717 318.186293 1473.899179 335.523076 " stroke="#000000" stroke-width="1" stroke-opacity="0.2" stroke-miterlimit="10"/><path stroke-linecap="butt" transform="matrix(0.562067, 0, 0, 0.561937, 0.124057, -0.00000999)" fill="none" stroke-linejoin="miter" d="M 312.589319 -128.948389 C 306.028717 -83.785165 295.068899 -39.372692 279.869709 3.656452 C 267.916071 38.309164 253.154717 71.926118 235.738544 104.18755 C 199.578788 170.955714 180.974201 177.636006 167.901647 224.335488 C 162.18892 244.737837 152.744156 278.521624 163.82212 316.691743 C 175.824407 357.89267 205.020474 381.23546 247.184848 413.955684 C 284.706763 443.019473 326.287354 466.424825 370.599214 483.427941 C 406.209936 497.087435 468.410554 520.242537 548.770972 516.113408 C 590.768552 513.958475 621.201681 504.567138 680.365241 485.874833 C 772.109415 456.873606 790.269215 439.432552 869.163228 410.681576 C 937.695104 385.6635 1008.652457 367.854022 1080.867722 357.552052 C 1218.049621 338.72767 1357.629198 347.917416 1491.162457 384.558228 " stroke="#000000" stroke-width="1" stroke-opacity="0.2" stroke-miterlimit="10"/></g><g clip-path="url(#bc25538a39)"><path stroke-linecap="butt" transform="matrix(0.562067, 0, 0, 0.561937, 0.124057, -0.00000999)" fill="none" stroke-linejoin="miter" d="M 12.358403 438.47326 C 53.250966 439.960858 93.670943 447.676909 132.228376 461.350306 C 165.232928 473.125971 177.812047 482.635482 227.044357 508.20967 C 275.762383 533.533608 323.973074 558.586441 379.613091 577.953032 C 434.217589 596.951199 478.327904 612.341591 537.60961 610.652401 C 599.782429 608.879795 646.081928 589.283808 693.451695 569.242932 C 747.521059 546.351983 754.123359 534.903033 823.127821 498.401249 C 858.238158 479.834069 921.661939 446.293581 997.491095 422.123575 C 1097.491619 390.24447 1181.236585 386.740966 1211.078982 386.122292 C 1331.303394 383.77272 1430.080755 412.120515 1496.590243 438.431551 " stroke="#000000" stroke-width="1" stroke-opacity="0.2" stroke-miterlimit="10"/></g><g clip-path="url(#0c996e582e)"><path stroke-linecap="butt" transform="matrix(0.562067, 0, 0, 0.561937, 0.124057, -0.00000999)" fill="none" stroke-linejoin="miter" d="M 827.499239 705.552867 C 825.442101 682.244835 825.671444 647.501755 840.571793 611.020825 C 904.343063 454.871604 1164.133153 444.89635 1199.153143 444.027425 C 1252.041043 442.671903 1346.829224 447.954964 1458.470646 499.881897 " stroke="#000000" stroke-width="1" stroke-opacity="0.2" stroke-miterlimit="10"/></g></g></g></g></g><g clip-path="url(#9468a4f36f)"><g mask="url(#32b160dc68)"><g transform="matrix(1, 0, 0, 1, 0.000000000000000056, -0.000000000000040364)"><g clip-path="url(#1636e71bf6)"><g clip-path="url(#316dcbdb2a)"><path stroke-linecap="butt" transform="matrix(0.575066, 0, 0, 0.575437, -9.232765, -14.90695)" fill="none" stroke-linejoin="miter" d="M 696.09228 565.610372 C 677.378403 546.44696 656.844084 529.12997 634.794993 513.924145 C 518.789336 434.012107 389.870763 434.059625 235.989034 436.102908 C 151.630546 437.270498 67.469046 444.703702 -15.789025 458.341426 " stroke="#000000" stroke-width="1" stroke-opacity="0.2" stroke-miterlimit="10"/></g><g clip-path="url(#e623f1e2b4)"><path stroke-linecap="butt" transform="matrix(0.575066, 0, 0, 0.575437, -9.232765, -14.90695)" fill="none" stroke-linejoin="miter" d="M 748.402829 565.610372 C 736.142014 542.183899 712.612116 504.753132 670.748732 473.87309 C 631.432609 444.87341 593.250866 434.412617 566.963134 428.106273 C 388.437505 385.251643 193.56865 397.742142 156.657141 400.314913 C 110.589079 403.532574 46.961898 409.316218 -28.871757 420.754528 " stroke="#000000" stroke-width="1" stroke-opacity="0.2" stroke-miterlimit="10"/></g><g clip-path="url(#b0125979c7)"><path stroke-linecap="butt" transform="matrix(0.575066, 0, 0, 0.575437, -9.232765, -14.90695)" fill="none" stroke-linejoin="miter" d="M 799.871085 565.610372 C 790.388482 538.504632 769.711516 491.739933 724.682736 453.440263 C 688.6339 422.791023 652.007684 410.334466 626.603002 402.772283 C 487.311984 361.316046 332.479277 362.110279 203.227863 366.773851 C 152.493219 368.620273 82.562416 371.905817 -1.096425 378.225738 " stroke="#000000" stroke-width="1" stroke-opacity="0.2" stroke-miterlimit="10"/></g><g clip-path="url(#5d15576995)"><path stroke-linecap="butt" transform="matrix(0.575066, 0, 0, 0.575437, -9.232765, -14.90695)" fill="none" stroke-linejoin="miter" d="M 843.208484 549.610315 C 836.375032 517.637353 823.92402 487.130668 806.432829 459.515804 C 779.431863 416.891977 747.940926 393.214336 740.231216 387.580035 C 693.232555 353.3262 644.929695 345.132704 617.629851 341.005409 C 448.85174 315.420252 263.051134 320.239955 250.634086 320.565794 C 199.383197 321.896304 109.631308 324.102506 -6.82946 326.281555 " stroke="#000000" stroke-width="1" stroke-opacity="0.2" stroke-miterlimit="10"/></g><g clip-path="url(#2a64a897e6)"><path stroke-linecap="butt" transform="matrix(0.575066, 0, 0, 0.575437, -9.232765, -14.90695)" fill="none" stroke-linejoin="miter" d="M 882.443094 549.610315 C 878.448989 521.506693 871.038158 493.993654 860.373626 467.682147 C 850.70762 443.875528 838.188681 413.01585 809.700116 381.864274 C 768.549965 336.864537 720.851655 320.565794 703.448769 314.86361 C 678.105221 306.595443 651.654464 302.183038 624.993133 301.782528 C 526.879436 299.284428 428.854044 288.3213 330.753933 291.165604 C 253.527775 293.392171 141.033941 295.265746 -3.52821 292.794799 " stroke="#000000" stroke-width="1" stroke-opacity="0.2" stroke-miterlimit="10"/></g><g clip-path="url(#30766b0602)"><path stroke-linecap="butt" transform="matrix(0.575066, 0, 0, 0.575437, -9.232765, -14.90695)" fill="none" stroke-linejoin="miter" d="M 919.218749 541.61368 C 917.873795 470.614699 897.760623 419.240734 884.073341 391.021711 C 871.289488 364.68305 856.861802 335.710524 826.070512 310.11179 C 805.013156 292.611515 777.169896 277.426055 719.819166 265.166359 C 638.381537 247.754332 572.22068 252.23462 548.188123 253.721261 C 453.559079 259.572788 358.563229 253.083159 263.764367 254.535858 C 195.15814 255.581259 97.01048 256.185419 -23.111551 253.721261 " stroke="#000000" stroke-width="1" stroke-opacity="0.2" stroke-miterlimit="10"/></g><g clip-path="url(#f7b3ae2c3d)"><path stroke-linecap="butt" transform="matrix(0.575066, 0, 0, 0.575437, -9.232765, -14.90695)" fill="none" stroke-linejoin="miter" d="M 956.809527 541.61368 C 954.119619 489.004243 947.01446 436.720644 935.561975 385.30595 C 927.51263 349.429707 920.563703 328.881479 906.14281 307.661208 C 883.59106 274.445985 854.973433 257.495564 839.941197 248.813309 C 800.353366 225.950266 762.803344 219.630345 730.422564 216.120786 C 646.641455 207.031233 585.208314 215.353707 530.989017 220.21414 C 507.91423 222.270999 443.98817 223.214575 316.040954 225.115303 C 240.648824 226.221799 132.583827 226.432236 -1.076046 221.843336 " stroke="#000000" stroke-width="1" stroke-opacity="0.2" stroke-miterlimit="10"/></g><g clip-path="url(#f93e47769f)"><path stroke-linecap="butt" transform="matrix(0.575066, 0, 0, 0.575437, -9.232765, -14.90695)" fill="none" stroke-linejoin="miter" d="M 1032.011461 557.613738 C 1032.011461 486.261764 1033.281695 428.934447 1034.456832 389.860909 C 1036.250103 330.483522 1037.982241 305.930188 1027.100342 270.535916 C 1020.626903 249.471776 1006.049778 204.159776 963.350893 169.193168 C 917.289623 131.463716 864.951903 127.424669 834.221747 125.055547 C 803.668202 122.693213 780.919464 125.84978 758.218275 129.142112 C 654.867409 144.089981 603.270092 151.570704 564.497385 159.384054 C 487.678789 174.861411 426.653211 176.510971 304.602054 179.810092 C 192.71277 182.790162 80.755559 178.146955 -30.502004 165.9212 " stroke="#000000" stroke-width="1" stroke-opacity="0.2" stroke-miterlimit="10"/></g><g clip-path="url(#61180e6045)"><path stroke-linecap="butt" transform="matrix(0.575066, 0, 0, 0.575437, -9.232765, -14.90695)" fill="none" stroke-linejoin="miter" d="M 1111.289013 573.613795 C 1114.080811 535.931861 1119.270431 498.467153 1126.817116 461.443686 C 1130.193085 444.859833 1132.882993 434.059625 1150.516831 366.631297 C 1179.976752 254.013158 1182.327025 246.464552 1182.388159 226.832747 C 1182.469672 202.836055 1181.980598 155.005591 1151.393089 109.951547 C 1128.053386 75.66377 1098.389684 59.310721 1074.560907 46.202485 C 1055.242481 35.565196 1010.560128 13.781495 940.561399 8.615588 C 884.148061 4.440774 841.829566 13.313101 751.758421 37.214757 C 597.652533 78.114352 592.490084 86.402884 521.282255 102.599802 C 407.952919 128.375033 317.440249 130.934227 270.360075 132.020358 C 176.648045 134.151888 82.963185 126.487881 -9.159354 109.143738 " stroke="#000000" stroke-width="1" stroke-opacity="0.2" stroke-miterlimit="10"/><path stroke-linecap="butt" transform="matrix(0.575066, 0, 0, 0.575437, -9.232765, -14.90695)" fill="none" stroke-linejoin="miter" d="M 1152.147078 573.613795 C 1158.708822 528.451139 1169.672233 484.041985 1184.867493 441.010859 C 1196.82943 406.363302 1211.589958 372.74078 1228.999637 340.482709 C 1265.157157 273.712847 1283.769143 267.033146 1296.83829 220.33633 C 1302.550947 199.930656 1311.999587 166.145215 1300.9207 127.974522 C 1288.918006 86.776241 1259.723 63.431228 1217.560738 30.711551 C 1180.037887 1.650777 1138.459796 -21.755332 1094.137456 -38.76006 C 1058.530145 -52.418148 996.329431 -75.579878 915.97184 -71.445794 C 873.972603 -69.28711 843.541326 -59.898871 784.383739 -41.203853 C 692.628005 -12.204173 674.471129 5.235007 595.580761 33.983519 C 527.049254 59.005246 456.092754 76.810995 383.872813 87.115657 C 246.68753 105.939653 107.111218 96.755064 -26.419594 60.111742 " stroke="#000000" stroke-width="1" stroke-opacity="0.2" stroke-miterlimit="10"/></g><g clip-path="url(#cf241be162)"><path stroke-linecap="butt" transform="matrix(0.575066, 0, 0, 0.575437, -9.232765, -14.90695)" fill="none" stroke-linejoin="miter" d="M 1452.377436 6.192159 C 1411.492201 4.705518 1371.068869 -3.006007 1332.506735 -16.684461 C 1299.507819 -28.455398 1286.927747 -37.965827 1237.701081 -63.544196 C 1188.977074 -88.864609 1140.769313 -113.91349 1085.130342 -133.28734 C 1030.517068 -152.287832 986.412095 -167.676941 927.132239 -165.986651 C 864.958695 -164.214901 818.659681 -144.617037 771.294214 -124.577932 C 717.224356 -101.687735 710.621856 -90.235849 641.608067 -53.735081 C 606.503416 -35.162253 543.080016 -1.627979 467.253153 22.545209 C 367.251087 54.423134 283.503941 57.925904 253.663629 58.543641 C 133.439707 60.892398 34.660326 32.544396 -31.846958 6.232889 " stroke="#000000" stroke-width="1" stroke-opacity="0.2" stroke-miterlimit="10"/></g><g clip-path="url(#c32a6a8952)"><path stroke-linecap="butt" transform="matrix(0.575066, 0, 0, 0.575437, -9.232765, -14.90695)" fill="none" stroke-linejoin="miter" d="M 716.341305 -120.946184 C 728.602121 -97.512922 752.132019 -60.082156 793.98861 -29.202113 C 833.311526 -0.202433 871.493269 10.251571 897.781001 16.564704 C 1076.299837 59.412545 1271.168693 46.922047 1308.080201 44.356064 C 1354.148264 41.131614 1417.782237 35.354759 1493.6091 23.916449 " stroke="#000000" stroke-width="1" stroke-opacity="0.2" stroke-miterlimit="10"/></g><g clip-path="url(#d1f55fd931)"><path stroke-linecap="butt" transform="matrix(0.575066, 0, 0, 0.575437, -9.232765, -14.90695)" fill="none" stroke-linejoin="miter" d="M 664.87305 -120.946184 C 674.348861 -93.833655 695.032619 -47.075745 740.061399 -8.776074 C 776.110235 21.873166 812.729658 34.336511 838.141133 41.891905 C 977.432151 83.354931 1132.258065 82.55391 1261.509479 77.897126 C 1312.250916 76.043916 1382.181719 72.76516 1465.840559 66.445239 " stroke="#000000" stroke-width="1" stroke-opacity="0.2" stroke-miterlimit="10"/></g><g clip-path="url(#5f349eea09)"><path stroke-linecap="butt" transform="matrix(0.575066, 0, 0, 0.575437, -9.232765, -14.90695)" fill="none" stroke-linejoin="miter" d="M 621.528859 -104.946126 C 628.36231 -72.973165 640.820114 -42.466479 658.311306 -14.844827 C 685.312271 27.772211 716.803209 51.456641 724.512918 57.084153 C 771.51158 91.344777 819.807647 99.531484 847.114284 103.665568 C 1015.892394 129.243937 1201.693001 124.424234 1214.110048 124.105183 C 1265.360938 122.774673 1355.112826 120.561683 1471.566802 118.382634 " stroke="#000000" stroke-width="1" stroke-opacity="0.2" stroke-miterlimit="10"/></g><g clip-path="url(#e1b5672464)"><path stroke-linecap="butt" transform="matrix(0.575066, 0, 0, 0.575437, -9.232765, -14.90695)" fill="none" stroke-linejoin="miter" d="M 582.301041 -104.946126 C 586.295146 -76.835716 593.705977 -49.322677 604.370509 -23.017958 C 614.029722 0.795449 626.548661 31.655127 655.044019 62.806703 C 696.19417 107.80644 743.892479 124.105183 761.288573 129.807367 C 786.638914 138.075534 813.089671 142.487939 839.751001 142.881661 C 937.857906 145.386549 1035.890091 156.342889 1133.990202 153.505373 C 1211.209567 151.272018 1323.710194 149.405231 1468.272344 151.876178 " stroke="#000000" stroke-width="1" stroke-opacity="0.2" stroke-miterlimit="10"/></g><g clip-path="url(#9ee1d7fca2)"><path stroke-linecap="butt" transform="matrix(0.575066, 0, 0, 0.575437, -9.232765, -14.90695)" fill="none" stroke-linejoin="miter" d="M 545.518593 -96.942704 C 546.87034 -25.943722 566.983512 25.423454 580.670794 53.642478 C 593.447854 79.987927 607.882333 108.953665 638.673623 134.552399 C 659.730979 152.052674 687.574239 167.244922 744.918176 179.504618 C 826.362598 196.916645 892.523455 192.436357 916.549219 190.942928 C 1011.178264 185.098189 1106.180906 191.587818 1200.979768 190.135118 C 1269.579202 189.08293 1367.726862 188.485558 1487.848894 190.942928 " stroke="#000000" stroke-width="1" stroke-opacity="0.2" stroke-miterlimit="10"/></g><g clip-path="url(#a2521e33d2)"><path stroke-linecap="butt" transform="matrix(0.575066, 0, 0, 0.575437, -9.232765, -14.90695)" fill="none" stroke-linejoin="miter" d="M 507.934608 -96.942704 C 510.617723 -44.340054 517.729675 7.950333 529.18216 59.365027 C 537.231505 95.234481 544.180432 115.782709 558.601325 137.002981 C 581.153075 170.224992 609.770702 187.175413 624.802938 195.857668 C 664.390769 218.713923 701.940791 225.033843 734.321571 228.543402 C 818.10268 237.632955 879.529028 229.31727 933.755118 224.456837 C 956.829905 222.393189 1020.749172 221.456402 1148.703181 219.555674 C 1224.088518 218.44239 1332.160307 218.231952 1465.820181 222.827641 " stroke="#000000" stroke-width="1" stroke-opacity="0.2" stroke-miterlimit="10"/></g><g clip-path="url(#e4f958f0aa)"><path stroke-linecap="butt" transform="matrix(0.575066, 0, 0, 0.575437, -9.232765, -14.90695)" fill="none" stroke-linejoin="miter" d="M 432.732673 -112.942761 C 432.732673 -41.597575 431.462439 15.73653 430.28051 54.80328 C 428.494031 114.187455 426.761894 138.734001 437.643792 174.135061 C 444.110439 195.192413 458.694357 240.504412 501.393242 275.477809 C 547.454512 313.207261 599.792232 317.246308 630.522388 319.61543 C 661.06914 321.977763 683.824671 318.814409 706.519067 315.522076 C 809.869933 300.574208 861.474042 293.093485 900.239957 285.286923 C 977.065346 269.802778 1038.090924 268.153217 1160.142081 264.854097 C 1272.031365 261.880815 1383.988576 266.517234 1495.239346 278.742988 " stroke="#000000" stroke-width="1" stroke-opacity="0.2" stroke-miterlimit="10"/></g><g clip-path="url(#606f0ac936)"><path stroke-linecap="butt" transform="matrix(0.575066, 0, 0, 0.575437, -9.232765, -14.90695)" fill="none" stroke-linejoin="miter" d="M 353.448329 -128.942818 C 350.663324 -91.260884 345.473704 -53.796176 337.920227 -16.772709 C 334.551049 -0.195645 331.861142 10.604564 314.220511 78.032892 C 284.76059 190.657819 282.410317 198.206424 282.349183 217.83823 C 282.26767 241.834922 282.763537 289.665386 313.351046 334.712642 C 336.690749 369.007207 366.347658 385.353468 390.183227 398.461703 C 409.501654 409.105781 454.184007 430.882694 524.182736 436.055389 C 580.589281 440.223414 622.907776 431.357876 712.978921 407.45622 C 867.091602 366.556625 872.254051 358.268093 943.46188 342.064386 C 1056.791215 316.295944 1147.297093 313.73675 1194.377267 312.643831 C 1288.102883 310.5123 1381.78095 318.183096 1473.896696 335.527239 " stroke="#000000" stroke-width="1" stroke-opacity="0.2" stroke-miterlimit="10"/><path stroke-linecap="butt" transform="matrix(0.575066, 0, 0, 0.575437, -9.232765, -14.90695)" fill="none" stroke-linejoin="miter" d="M 312.590264 -128.942818 C 306.02852 -83.78695 295.071902 -39.377796 279.869849 3.65333 C 267.914704 38.307675 253.154177 71.930197 235.744497 104.188268 C 199.580185 170.95813 180.974992 177.637831 167.899052 224.334647 C 162.193188 244.733532 152.744548 278.525762 163.823435 316.696455 C 175.819336 357.894736 205.021135 381.232961 247.183397 413.952637 C 284.706248 443.0202 326.284339 466.426309 370.599886 483.424248 C 406.213989 497.082337 468.414704 520.244066 548.772295 516.116771 C 590.771532 513.958087 621.202809 504.56306 680.360396 485.87483 C 772.109337 456.87515 790.273006 439.43597 869.163374 410.687458 C 937.694881 385.658942 1008.651381 367.853193 1080.871322 357.55532 C 1218.049812 338.731324 1357.632916 347.915913 1491.156936 384.552447 " stroke="#000000" stroke-width="1" stroke-opacity="0.2" stroke-miterlimit="10"/></g><g clip-path="url(#123944813d)"><path stroke-linecap="butt" transform="matrix(0.575066, 0, 0, 0.575437, -9.232765, -14.90695)" fill="none" stroke-linejoin="miter" d="M 12.359906 438.472029 C 53.251934 439.95867 93.668474 447.676984 132.230607 461.355438 C 165.229523 473.126375 177.809596 482.630015 227.043054 508.215173 C 275.760268 533.535586 323.968029 558.584467 379.613793 577.951528 C 434.220274 596.952021 478.33204 612.34113 537.611896 610.650839 C 599.778647 608.885878 646.077661 589.281225 693.449921 569.242121 C 747.519779 546.351924 754.122279 534.900037 823.129275 498.406058 C 858.240719 479.83323 921.664119 446.292168 997.490982 422.125768 C 1097.493048 390.241054 1181.240194 386.745072 1211.080506 386.120548 C 1331.297635 383.771791 1430.077016 412.119792 1496.591093 438.431299 " stroke="#000000" stroke-width="1" stroke-opacity="0.2" stroke-miterlimit="10"/></g><g clip-path="url(#25b420ea9a)"><path stroke-linecap="butt" transform="matrix(0.575066, 0, 0, 0.575437, -9.232765, -14.90695)" fill="none" stroke-linejoin="miter" d="M 827.503771 705.551477 C 825.438792 682.247193 825.669743 647.504599 840.572918 611.024197 C 904.342745 454.872597 1164.129393 444.893775 1199.152532 444.024871 C 1252.040461 442.673996 1346.83253 447.955305 1458.470485 499.885911 " stroke="#000000" stroke-width="1" stroke-opacity="0.2" stroke-miterlimit="10"/></g></g></g></g></g></svg>