<?xml version="1.0" encoding="UTF-8"?>
<svg xmlns="http://www.w3.org/2000/svg" xmlns:xlink="http://www.w3.org/1999/xlink" viewBox="0 0 1920 1080">
  <defs>
    <style>
      .cls-1 {
        fill: #bf2026;
      }

      .cls-2 {
        filter: url(#drop-shadow-36);
      }

      .cls-3 {
        filter: url(#drop-shadow-34);
      }

      .cls-4, .cls-5 {
        fill: #fff;
      }

      .cls-6 {
        filter: url(#drop-shadow-37);
      }

      .cls-7 {
        fill: #e5e5e5;
      }

      .cls-8 {
        fill: #faf1f1;
      }

      .cls-9 {
        filter: url(#drop-shadow-38);
      }

      .cls-10 {
        fill: #d6d6d6;
      }

      .cls-11 {
        fill: none;
        stroke: #bf2026;
        stroke-miterlimit: 10;
        stroke-width: 5px;
      }

      .cls-12 {
        fill: #f4f4f4;
      }

      .cls-13 {
        fill: #7f7f7f;
      }

      .cls-14 {
        fill: #3d3d3d;
      }

      .cls-5 {
        opacity: .26;
      }

      .cls-15 {
        filter: url(#drop-shadow-35);
      }
    </style>
    <filter id="drop-shadow-34" x="794" y="427" width="353" height="285" filterUnits="userSpaceOnUse">
      <feOffset dx="-3" dy="4"/>
      <feGaussianBlur result="blur" stdDeviation="5"/>
      <feFlood flood-color="#000" flood-opacity=".6"/>
      <feComposite in2="blur" operator="in"/>
      <feComposite in="SourceGraphic"/>
    </filter>
    <filter id="drop-shadow-35" x="793" y="75" width="354" height="235" filterUnits="userSpaceOnUse">
      <feOffset dx="-3" dy="4"/>
      <feGaussianBlur result="blur-2" stdDeviation="5"/>
      <feFlood flood-color="#000" flood-opacity=".6"/>
      <feComposite in2="blur-2" operator="in"/>
      <feComposite in="SourceGraphic"/>
    </filter>
    <filter id="drop-shadow-36" x="461" y="439" width="145" height="223" filterUnits="userSpaceOnUse">
      <feOffset dx="-3" dy="4"/>
      <feGaussianBlur result="blur-3" stdDeviation="5"/>
      <feFlood flood-color="#000" flood-opacity=".6"/>
      <feComposite in2="blur-3" operator="in"/>
      <feComposite in="SourceGraphic"/>
    </filter>
    <filter id="drop-shadow-37" x="1310" y="401" width="232" height="319" filterUnits="userSpaceOnUse">
      <feOffset dx="-3" dy="4"/>
      <feGaussianBlur result="blur-4" stdDeviation="5"/>
      <feFlood flood-color="#000" flood-opacity=".6"/>
      <feComposite in2="blur-4" operator="in"/>
      <feComposite in="SourceGraphic"/>
    </filter>
    <filter id="drop-shadow-38" x="865" y="817" width="211" height="186" filterUnits="userSpaceOnUse">
      <feOffset dx="-3" dy="4"/>
      <feGaussianBlur result="blur-5" stdDeviation="5"/>
      <feFlood flood-color="#000" flood-opacity=".6"/>
      <feComposite in2="blur-5" operator="in"/>
      <feComposite in="SourceGraphic"/>
    </filter>
  </defs>
  <g id="Layer_10" data-name="Layer 10">
    <path class="cls-8" d="M1476.84,392.08c-8.14-17.28-16.67-34.52-29.35-55.17-13.14-21.4-40.1-61.75-96.26-115.04-64.75-61.44-113.22-107.44-191.35-129.13-25.03-6.95-55.26-15.01-93.91-9.39-57.11,8.3-98.36,41.48-125.61,63.39-6.04,4.86-24.46,22.87-61.04,58.7-65.31,63.95-63.63,63.62-71.61,69.26-44.3,31.33-91.15,38.1-136.17,44.61-61.44,8.88-69.37-2.28-116.22,10.57-20.75,5.69-58.17,15.95-92.74,45.78-53.81,46.44-66.06,110.44-72.78,145.57-11.96,62.5-2.03,112.14,3.52,138.52,5.75,27.33,23.88,98.77,81,167.87,7.61,9.2,36.68,43.5,84.52,76.3,29.43,20.19,53.04,36.37,86.87,45.78,74.14,20.63,157.34-2.42,210.13-37.57,13.89-9.25,28.05-20.91,55.17-34.04,28.44-13.77,53.02-25.67,83.35-24.65,22.44.76,45.4,13.04,90.39,37.57,23.47,12.8,27.44,16.22,72.78,43.43,70.96,42.58,85.13,48.52,97.43,52.83,16.21,5.67,42.53,14.65,76.3,15.26,74.73,1.34,128.86-39.36,143.22-50.48,51.05-39.53,71.64-88.48,81-111.52,30.05-74,21.63-139.45,15.26-189-10.62-82.55-38.74-142.28-93.91-259.43v-.02Z"/>
  </g>
  <g id="Layer_9" data-name="Layer 9">
    <line class="cls-11" x1="559.83" y1="541.51" x2="1374.2" y2="541.51"/>
    <line class="cls-11" x1="975.82" y1="213.78" x2="975.82" y2="869.23"/>
    <g class="cls-3">
      <path class="cls-7" d="M1064.12,692.35h-176.6c-3.07,0-5.56-2.49-5.56-5.56v-.62c0-13.98,11.34-25.32,25.32-25.32h137.07c13.98,0,25.32,11.34,25.32,25.32v.62c0,3.07-2.49,5.56-5.56,5.56Z"/>
      <polygon class="cls-7" points="996.56 668.73 956.83 668.73 962.71 616.66 990.69 616.66 996.56 668.73"/>
      <rect class="cls-7" x="812.39" y="438.13" width="322.05" height="181.59" rx="19.07" ry="19.07"/>
      <path class="cls-13" d="M976.6,669.64c-7.1,0-13.61-2-18.7-5.32-.18-.11-.38.11-.25.27,3.96,5,10.96,8.32,18.95,8.32s14.99-3.32,18.95-8.32c.13-.16-.07-.38-.25-.27-5.09,3.32-11.6,5.32-18.7,5.32Z"/>
      <path class="cls-13" d="M976.6,623.26c-4.7,0-9.01-1.32-12.38-3.52-.12-.08-.25.07-.16.18,2.62,3.31,7.26,5.51,12.54,5.51s9.92-2.2,12.54-5.51c.09-.11-.05-.25-.16-.18-3.37,2.2-7.68,3.52-12.38,3.52Z"/>
      <path class="cls-13" d="M881.97,685.13h187.72v.14c0,3.91-3.17,7.08-7.08,7.08h-173.55c-3.91,0-7.08-3.17-7.08-7.08v-.14h0Z"/>
      <rect class="cls-14" x="831.21" y="455.19" width="289.23" height="147.9" rx="14.8" ry="14.8"/>
      <rect class="cls-5" x="852.16" y="454.47" width="51.69" height="148.62"/>
      <rect class="cls-5" x="912.28" y="455.19" width="14.84" height="147.9"/>
      <rect class="cls-5" x="933.86" y="455.19" width="7.42" height="147.9"/>
    </g>
    <g class="cls-15">
      <path class="cls-10" d="M1082.3,180.7c4.26.01,11.02.55,18.62,3.52,2.66,1.04,11.19,4.63,19.13,13.09,2.31,2.46,10.4,11.55,13.59,26.17,2.71,12.44.47,22.47-.5,26.17-3.86,14.59-12.57,23.24-14.6,25.17-1.31,1.25-7.58,7.11-17.62,11.07-6.68,2.64-12.2,3.33-18.12,4.03-8.02.95-13.69.71-20.64.5-10.57-.31-21.14-.25-31.71-.5-14.84-.36-25.75-.43-37.75-.5-23.24-.15-24.22.22-44.3,0-22.76-.25-20.7-.71-32.22-.5-21.81.39-32.72.58-37.25,1.01-2.77.26-7.68.34-14.72.25-6.02-.08-15.73-3.55-17.5-4.28-10.08-4.14-16.66-10.11-19.63-13.09-3.43-3.44-9.18-9.21-12.59-18.62-5.03-13.91-1.53-26.31,0-31.71.95-3.37,3.68-11.87,10.57-20.64,2.53-3.22,7.09-8.91,15.1-13.59,8.32-4.86,15.86-6.01,19.63-6.54,5.38-.76,9.91-1.41,15.61,0,6.02,1.48,9.31,4.26,10.57,3.02,1.3-1.28-1.42-5.02-3.52-11.07-3.02-8.71-2.68-16.2-2.52-19.63.38-8.1,2.65-13.83,5.54-21.14,2.37-5.98,4.64-11.73,9.56-18.12,5.58-7.24,11.41-11.22,17.12-15.1,5.95-4.05,12.18-8.29,21.65-11.07,3.28-.96,13.52-3.68,26.68-2.01,10.51,1.33,17.87,4.81,23.66,7.55,5.16,2.44,11.13,5.32,17.62,11.07,3.27,2.9,8.23,7.37,12.08,14.6,3.32,6.22,5.03,11.58,5.03,11.58,1.95,6.1,2,9.48,4.03,10.07,1.99.57,3.62-2.18,7.55-5.03,5.56-4.04,11.24-5.04,14.09-5.54,10.85-1.9,19.59,2.26,21.14,3.02,2.56,1.26,8.84,4.76,13.59,12.08,4.83,7.44,5.34,14.61,5.54,18.12.43,7.38-1.27,13.25-2.52,16.61h0Z"/>
      <path class="cls-4" d="M967.7,116.25c12.62,0,24.44,3.39,34.61,9.31-9.97-17.06-28.48-28.52-49.66-28.52-31.75,0-57.48,25.73-57.48,57.48,0,7.65,1.5,14.94,4.21,21.62,4.42-33.8,33.32-59.89,68.32-59.89Z"/>
      <path class="cls-4" d="M1046.48,145.94c14.24,0,26.36,9.1,30.85,21.8.16-1.19.26-2.42.26-3.66,0-14.62-11.85-26.47-26.47-26.47-10.23,0-19.1,5.81-23.51,14.31,5.33-3.77,11.84-5.99,18.87-5.99h0Z"/>
      <g id="Layer_12" data-name="Layer 12">
        <path class="cls-4" d="M845,231.56c0-17.88,11.7-33.53,29.2-42.13-27.81,2.17-49.55,21.28-49.55,44.54,0,24.71,24.56,44.74,54.85,44.74,2.42,0,4.81-.13,7.15-.38-24.17-6.4-41.65-24.92-41.65-46.77h0Z"/>
      </g>
    </g>
    <g class="cls-2">
      <rect class="cls-10" x="479.36" y="450.57" width="114.44" height="192.12" rx="13.13" ry="13.13"/>
      <rect class="cls-14" x="487.2" y="460.26" width="98.76" height="175.05" rx="13.13" ry="13.13"/>
      <rect class="cls-5" x="497.7" y="460.26" width="36.84" height="175.31"/>
      <rect class="cls-5" x="540.9" y="460.26" width="11.21" height="175.31"/>
      <path class="cls-10" d="M513.32,459.15h46.51v1.04c0,4.19-3.4,7.58-7.58,7.58h-31.34c-4.19,0-7.58-3.4-7.58-7.58v-1.04h0Z"/>
    </g>
    <g class="cls-6">
      <rect class="cls-14" x="1339.75" y="425.97" width="171.36" height="244.44"/>
      <rect class="cls-7" x="1339.75" y="430.95" width="178.59" height="39.29"/>
      <rect class="cls-7" x="1339.75" y="479.29" width="178.59" height="39.29"/>
      <rect class="cls-7" x="1339.75" y="526.79" width="178.59" height="39.29"/>
      <rect class="cls-7" x="1339.75" y="575.12" width="178.59" height="39.29"/>
      <rect class="cls-7" x="1346.98" y="623.53" width="178.59" height="39.29"/>
      <g>
        <path class="cls-14" d="M1510.98,412.23h-163.87c-10.03,0-18.15,8.13-18.15,18.15v235.5c0,10.03,8.13,18.15,18.15,18.15h163.87c10.03,0,18.15-8.13,18.15-18.15v-235.5c0-10.03-8.13-18.15-18.15-18.15ZM1511.11,650.75c0,6.4-5.19,11.6-11.6,11.6h-140.94c-6.4,0-11.6-5.19-11.6-11.6v-208.28c0-6.4,5.19-11.6,11.6-11.6h140.94c6.4,0,11.6,5.19,11.6,11.6v208.28Z"/>
        <path class="cls-14" d="M1366.98,700.27h-11.82c-3.09,0-5.6-2.51-5.6-5.6v-17.42h23.02v17.42c0,3.09-2.51,5.6-5.6,5.6Z"/>
        <path class="cls-14" d="M1498.47,700.27h-11.82c-3.09,0-5.6-2.51-5.6-5.6v-17.42h23.02v17.42c0,3.09-2.51,5.6-5.6,5.6Z"/>
      </g>
      <circle class="cls-1" cx="1367.64" cy="452.19" r="6.56"/>
      <circle class="cls-1" cx="1396.36" cy="452.19" r="6.56"/>
      <circle class="cls-1" cx="1367.64" cy="498.93" r="6.56"/>
      <circle class="cls-1" cx="1396.36" cy="498.93" r="6.56"/>
      <circle class="cls-1" cx="1367.64" cy="546.61" r="6.56"/>
      <circle class="cls-1" cx="1396.36" cy="546.61" r="6.56"/>
      <circle class="cls-1" cx="1367.64" cy="594.77" r="6.56"/>
      <circle class="cls-1" cx="1396.36" cy="594.77" r="6.56"/>
      <circle class="cls-1" cx="1367.64" cy="643.17" r="6.56"/>
      <circle class="cls-1" cx="1396.36" cy="643.17" r="6.56"/>
      <rect class="cls-14" x="1425.43" y="447.48" width="72.3" height="10.79" rx="5.29" ry="5.29"/>
      <rect class="cls-14" x="1425.43" y="493.53" width="72.3" height="10.79" rx="5.29" ry="5.29"/>
      <rect class="cls-14" x="1425.43" y="541.03" width="72.3" height="10.79" rx="5.29" ry="5.29"/>
      <rect class="cls-14" x="1425.43" y="589.37" width="72.3" height="10.79" rx="5.29" ry="5.29"/>
      <rect class="cls-14" x="1425.43" y="637.78" width="72.3" height="10.79" rx="5.29" ry="5.29"/>
    </g>
    <g class="cls-9">
      <rect class="cls-1" x="886.16" y="869.23" width="174.51" height="92.69"/>
      <g>
        <path class="cls-10" d="M1063.37,936.52v-22.98c-16.75,4.83-52.01,13.35-98.5,12.48-36.93-.7-65.33-7.03-81.41-11.46v22.98c16.08,4.42,44.48,10.76,81.41,11.46,46.49.88,81.74-7.65,98.5-12.48Z"/>
        <path class="cls-10" d="M1063.37,904.15v-22.98c-16.75,4.83-52.01,13.35-98.5,12.48-36.93-.7-65.33-7.03-81.41-11.46v22.98c16.08,4.42,44.48,10.76,81.41,11.46,46.49.88,81.74-7.65,98.5-12.48Z"/>
        <path class="cls-10" d="M964.87,958.39c-36.93-.7-65.33-7.03-81.41-11.46v19.74c0,2.26,2.26,4.34,5.85,5.35,56.07,15.73,112.14,15.73,168.22,0,3.58-1.01,5.85-3.08,5.85-5.35v-20.76c-16.75,4.83-52.01,13.35-98.5,12.48Z"/>
        <path class="cls-10" d="M1063.37,871.78v-29.03h-179.91v30.05c16.08,4.42,44.48,10.76,81.41,11.46,46.49.88,81.74-7.65,98.5-12.48Z"/>
      </g>
      <ellipse class="cls-12" cx="973.42" cy="842.75" rx="89.95" ry="14.51"/>
    </g>
  </g>
</svg>