<?xml version="1.0" encoding="UTF-8"?>
<svg xmlns="http://www.w3.org/2000/svg" xmlns:xlink="http://www.w3.org/1999/xlink" viewBox="0 0 1920 1080">
  <defs>
    <style>
      .cls-1 {
        filter: url(#drop-shadow-32);
      }

      .cls-1, .cls-2, .cls-3, .cls-4 {
        fill: #a01721;
      }

      .cls-5, .cls-6 {
        fill: #9b9b9b;
      }

      .cls-7 {
        fill: #e5e5e5;
      }

      .cls-8 {
        fill: #faf1f1;
      }

      .cls-6 {
        filter: url(#drop-shadow-29);
      }

      .cls-9 {
        filter: url(#drop-shadow-30);
      }

      .cls-10 {
        fill: none;
        stroke: #3d3d3d;
        stroke-miterlimit: 10;
        stroke-width: 2px;
      }

      .cls-3 {
        filter: url(#drop-shadow-33);
      }

      .cls-11 {
        fill: #7f7f7f;
      }

      .cls-4 {
        filter: url(#drop-shadow-31);
      }

      .cls-12 {
        fill: #3d3d3d;
      }

      .cls-13 {
        fill: #fff;
        opacity: .26;
      }
    </style>
    <filter id="drop-shadow-29" x="910" y="194" width="434" height="670" filterUnits="userSpaceOnUse">
      <feOffset dx="-3" dy="4"/>
      <feGaussianBlur result="blur" stdDeviation="5"/>
      <feFlood flood-color="#000" flood-opacity=".6"/>
      <feComposite in2="blur" operator="in"/>
      <feComposite in="SourceGraphic"/>
    </filter>
    <filter id="drop-shadow-30" x="461" y="317" width="715" height="571" filterUnits="userSpaceOnUse">
      <feOffset dx="-3" dy="4"/>
      <feGaussianBlur result="blur-2" stdDeviation="5"/>
      <feFlood flood-color="#000" flood-opacity=".6"/>
      <feComposite in2="blur-2" operator="in"/>
      <feComposite in="SourceGraphic"/>
    </filter>
    <filter id="drop-shadow-31" x="529" y="372" width="243" height="246" filterUnits="userSpaceOnUse">
      <feOffset dx="-3" dy="4"/>
      <feGaussianBlur result="blur-3" stdDeviation="5"/>
      <feFlood flood-color="#000" flood-opacity=".6"/>
      <feComposite in2="blur-3" operator="in"/>
      <feComposite in="SourceGraphic"/>
    </filter>
    <filter id="drop-shadow-32" x="758" y="462" width="224" height="223" filterUnits="userSpaceOnUse">
      <feOffset dx="-3" dy="4"/>
      <feGaussianBlur result="blur-4" stdDeviation="5"/>
      <feFlood flood-color="#000" flood-opacity=".6"/>
      <feComposite in2="blur-4" operator="in"/>
      <feComposite in="SourceGraphic"/>
    </filter>
    <filter id="drop-shadow-33" x="938" y="367" width="181" height="181" filterUnits="userSpaceOnUse">
      <feOffset dx="-3" dy="4"/>
      <feGaussianBlur result="blur-5" stdDeviation="5"/>
      <feFlood flood-color="#000" flood-opacity=".6"/>
      <feComposite in2="blur-5" operator="in"/>
      <feComposite in="SourceGraphic"/>
    </filter>
  </defs>
  <g id="Layer_10" data-name="Layer 10">
    <path class="cls-8" d="M1430.3,392.08c-8.14-17.28-16.67-34.52-29.35-55.17-13.14-21.4-40.1-61.75-96.26-115.04-64.75-61.44-113.22-107.44-191.35-129.13-25.03-6.95-55.26-15.01-93.91-9.39-57.11,8.3-98.36,41.48-125.61,63.39-6.04,4.86-24.46,22.87-61.04,58.7-65.31,63.95-63.63,63.62-71.61,69.26-44.3,31.33-91.15,38.1-136.17,44.61-61.44,8.88-69.37-2.28-116.22,10.57-20.75,5.69-58.17,15.95-92.74,45.78-53.81,46.44-66.06,110.44-72.78,145.57-11.96,62.5-2.03,112.14,3.52,138.52,5.75,27.33,23.88,98.77,81,167.87,7.61,9.2,36.68,43.5,84.52,76.3,29.43,20.19,53.04,36.37,86.87,45.78,74.14,20.63,157.34-2.42,210.13-37.57,13.89-9.25,28.05-20.91,55.17-34.04,28.44-13.77,53.02-25.67,83.35-24.65,22.44.76,45.4,13.04,90.39,37.57,23.47,12.8,27.44,16.22,72.78,43.43,70.96,42.58,85.13,48.52,97.43,52.83,16.21,5.67,42.53,14.65,76.3,15.26,74.73,1.34,128.86-39.36,143.22-50.48,51.05-39.53,71.64-88.48,81-111.52,30.05-74,21.63-139.45,15.26-189-10.62-82.55-38.74-142.28-93.91-259.43v-.02Z"/>
  </g>
  <g id="Layer_8" data-name="Layer 8">
    <rect class="cls-6" x="928.99" y="205.52" width="402.47" height="639.03" rx="33.25" ry="33.25"/>
    <polyline class="cls-10" points="1331.46 486.08 1149.7 486.08 1149.7 779.03"/>
    <g class="cls-9">
      <path class="cls-7" d="M1014.31,868.61h-375.67c-6.29,0-11.39-5.1-11.39-11.39v-3.58c0-28.66,23.24-51.9,51.9-51.9h294.66c28.66,0,51.9,23.24,51.9,51.9v3.58c0,6.29-5.1,11.39-11.39,11.39Z"/>
      <polygon class="cls-7" points="870.5 818.46 786.17 818.46 798.64 707.93 858.03 707.93 870.5 818.46"/>
      <rect class="cls-7" x="479.57" y="328.98" width="683.59" height="385.45" rx="53.16" ry="53.16"/>
      <path class="cls-11" d="M828.13,820.4c-15.07,0-28.9-4.24-39.69-11.29-.37-.24-.8.22-.53.57,8.4,10.61,23.27,17.66,40.22,17.66s31.82-7.05,40.22-17.66c.28-.35-.15-.82-.53-.57-10.8,7.05-24.62,11.29-39.69,11.29Z"/>
      <path class="cls-11" d="M828.13,721.95c-9.98,0-19.13-2.81-26.27-7.48-.25-.16-.53.15-.35.38,5.56,7.02,15.4,11.69,26.62,11.69s21.06-4.67,26.62-11.69c.18-.23-.1-.54-.35-.38-7.15,4.67-16.3,7.48-26.27,7.48Z"/>
      <path class="cls-11" d="M627.25,853.27h398.45v3.22c0,6.69-5.43,12.12-12.12,12.12h-374.22c-6.69,0-12.12-5.43-12.12-12.12v-3.22h0Z"/>
    </g>
    <rect class="cls-12" x="519.51" y="365.2" width="613.93" height="313.93" rx="31.01" ry="31.01"/>
    <path class="cls-7" d="M747.26,464.11h-35.87c-1.67-4.02-3.7-7.85-6.03-11.47l24-24c1.33-1.33,1.33-3.48,0-4.8l-24-24c-1.33-1.33-3.48-1.33-4.8,0l-26.18,26.18c-2.93-1.32-5.97-2.45-9.1-3.37v-35.73c0-1.88-1.52-3.4-3.4-3.4h-33.94c-1.88,0-3.4,1.52-3.4,3.4v35.73c-3.13.92-6.16,2.05-9.1,3.37l-26.18-26.18c-1.33-1.33-3.48-1.33-4.8,0l-24,24c-1.33,1.33-1.33,3.48,0,4.8l24,24c-2.34,3.62-4.37,7.45-6.03,11.47h-35.87c-1.88,0-3.4,1.52-3.4,3.4v33.94c0,1.88,1.52,3.4,3.4,3.4h31.64c1.06,5.68,2.78,11.12,5.08,16.25l-25.78,25.78c-1.33,1.33-1.33,3.48,0,4.8l24,24c1.33,1.33,3.48,1.33,4.8,0l23.61-23.61c5.7,3.69,11.96,6.59,18.62,8.55v34.43c0,1.88,1.52,3.4,3.4,3.4h33.94c1.88,0,3.4-1.52,3.4-3.4v-34.43c6.66-1.96,12.92-4.87,18.62-8.55l23.61,23.61c1.33,1.33,3.48,1.33,4.8,0l24-24c1.33-1.33,1.33-3.48,0-4.8l-25.78-25.78c2.31-5.13,4.03-10.57,5.08-16.25h31.64c1.88,0,3.4-1.52,3.4-3.4v-33.94c0-1.88-1.52-3.4-3.4-3.4ZM644.92,520.64c-16.02,0-29.01-12.99-29.01-29.01,0-16.02,12.99-29.01,29.01-29.01,16.02,0,29.01,12.99,29.01,29.01,0,16.02-12.99,29.01-29.01,29.01Z"/>
    <path class="cls-7" d="M926.47,638.2l-14.86-28.45c2.5-2.99,4.7-6.19,6.6-9.54l28.99,9.1c1.6.5,3.31-.39,3.81-1.99l9.1-28.99c.5-1.6-.39-3.31-1.99-3.81l-31.61-9.92c-.17-2.87-.53-5.75-1.09-8.61l28.35-14.81c1.49-.78,2.06-2.61,1.29-4.1l-14.06-26.93c-.78-1.49-2.61-2.06-4.1-1.29l-28.35,14.81c-2.03-2.1-4.18-4.04-6.44-5.82l9.92-31.61c.5-1.6-.39-3.31-1.99-3.81l-28.99-9.1c-1.6-.5-3.31.39-3.81,1.99l-9.1,28.99c-3.84-.36-7.72-.38-11.6-.03l-14.86-28.45c-.78-1.49-2.61-2.06-4.1-1.29l-26.93,14.06c-1.49.78-2.06,2.61-1.29,4.1l13.11,25.1c-4.07,3.19-7.67,6.81-10.78,10.76l-31.14-9.77c-1.6-.5-3.31.39-3.81,1.99l-9.1,28.99c-.5,1.6.39,3.31,1.99,3.81l28.51,8.95c-.56,6.05-.27,12.22.93,18.32l-27.31,14.27c-1.49.78-2.06,2.61-1.29,4.1l14.06,26.93c.78,1.49,2.61,2.06,4.1,1.29l27.31-14.27c4.32,4.47,9.21,8.23,14.5,11.23l-8.95,28.51c-.5,1.6.39,3.31,1.99,3.81l28.99,9.1c1.6.5,3.31-.39,3.81-1.99l9.77-31.14c5.02-.3,10.05-1.18,14.99-2.7l13.11,25.1c.78,1.49,2.61,2.06,4.1,1.29l26.93-14.06c1.49-.78,2.06-2.61,1.29-4.1ZM839.22,580.44c-6.64-12.71-1.72-28.39,10.99-35.03,12.71-6.64,28.39-1.72,35.03,10.99,6.64,12.71,1.72,28.39-10.99,35.03-12.71,6.64-28.39,1.72-35.03-10.99Z"/>
    <path class="cls-7" d="M1096.62,469.75l-22.45-11.12c.2-3.03.12-6.06-.22-9.05l22.47-7.58c1.24-.42,1.91-1.76,1.49-3.01l-7.58-22.47c-.42-1.24-1.76-1.91-3.01-1.49l-24.5,8.27c-1.43-1.74-2.98-3.38-4.65-4.93l11.08-22.37c.58-1.17.1-2.6-1.07-3.18l-21.25-10.53c-1.17-.58-2.6-.1-3.18,1.07l-11.08,22.37c-2.24-.39-4.49-.63-6.74-.71l-8.27-24.5c-.42-1.24-1.76-1.91-3.01-1.49l-22.47,7.58c-1.24.42-1.91,1.76-1.49,3.01l7.58,22.47c-2.58,1.54-5.04,3.31-7.33,5.31l-22.45-11.12c-1.17-.58-2.6-.1-3.18,1.07l-10.53,21.25c-.58,1.17-.1,2.6,1.07,3.18l19.8,9.81c-1.1,3.88-1.71,7.82-1.86,11.75l-24.13,8.14c-1.24.42-1.91,1.76-1.49,3.01l7.58,22.47c.42,1.24,1.76,1.91,3.01,1.49l22.1-7.46c2.43,4.08,5.44,7.83,9,11.13l-10.68,21.55c-.58,1.17-.1,2.6,1.07,3.18l21.25,10.53c1.17.58,2.6.1,3.18-1.07l10.68-21.55c4.78.84,9.59.96,14.31.42l7.46,22.1c.42,1.24,1.76,1.91,3.01,1.49l22.47-7.58c1.24-.42,1.91-1.76,1.49-3.01l-8.14-24.13c3.03-2.49,5.8-5.37,8.22-8.59l19.8,9.81c1.17.58,2.6.1,3.18-1.07l10.53-21.25c.58-1.17.1-2.6-1.07-3.18ZM1015.04,473.39c-10.03-4.97-14.13-17.12-9.16-27.15,4.97-10.03,17.12-14.13,27.15-9.16,10.03,4.97,14.13,17.12,9.16,27.15-4.97,10.03-17.12,14.13-27.15,9.16Z"/>
    <path class="cls-4" d="M755.98,464.11h-35.87c-1.67-4.02-3.7-7.85-6.03-11.47l24-24c1.33-1.33,1.33-3.48,0-4.8l-24-24c-1.33-1.33-3.48-1.33-4.8,0l-26.18,26.18c-2.93-1.32-5.97-2.45-9.1-3.37v-35.73c0-1.88-1.52-3.4-3.4-3.4h-33.94c-1.88,0-3.4,1.52-3.4,3.4v35.73c-3.13.92-6.16,2.05-9.1,3.37l-26.18-26.18c-1.33-1.33-3.48-1.33-4.8,0l-24,24c-1.33,1.33-1.33,3.48,0,4.8l24,24c-2.34,3.62-4.37,7.45-6.03,11.47h-35.87c-1.88,0-3.4,1.52-3.4,3.4v33.94c0,1.88,1.52,3.4,3.4,3.4h31.64c1.06,5.68,2.78,11.12,5.08,16.25l-25.78,25.78c-1.33,1.33-1.33,3.48,0,4.8l24,24c1.33,1.33,3.48,1.33,4.8,0l23.61-23.61c5.7,3.69,11.96,6.59,18.62,8.55v34.43c0,1.88,1.52,3.4,3.4,3.4h33.94c1.88,0,3.4-1.52,3.4-3.4v-34.43c6.66-1.96,12.92-4.87,18.62-8.55l23.61,23.61c1.33,1.33,3.48,1.33,4.8,0l24-24c1.33-1.33,1.33-3.48,0-4.8l-25.78-25.78c2.31-5.13,4.03-10.57,5.08-16.25h31.64c1.88,0,3.4-1.52,3.4-3.4v-33.94c0-1.88-1.52-3.4-3.4-3.4ZM653.64,520.64c-16.02,0-29.01-12.99-29.01-29.01,0-16.02,12.99-29.01,29.01-29.01,16.02,0,29.01,12.99,29.01,29.01,0,16.02-12.99,29.01-29.01,29.01Z"/>
    <path class="cls-1" d="M935.63,638.2l-14.86-28.45c2.5-2.99,4.7-6.19,6.6-9.54l28.99,9.1c1.6.5,3.31-.39,3.81-1.99l9.1-28.99c.5-1.6-.39-3.31-1.99-3.81l-31.61-9.92c-.17-2.87-.53-5.75-1.09-8.61l28.35-14.81c1.49-.78,2.06-2.61,1.29-4.1l-14.06-26.93c-.78-1.49-2.61-2.06-4.1-1.29l-28.35,14.81c-2.03-2.1-4.18-4.04-6.44-5.82l9.92-31.61c.5-1.6-.39-3.31-1.99-3.81l-28.99-9.1c-1.6-.5-3.31.39-3.81,1.99l-9.1,28.99c-3.84-.36-7.72-.38-11.6-.03l-14.86-28.45c-.78-1.49-2.61-2.06-4.1-1.29l-26.93,14.06c-1.49.78-2.06,2.61-1.29,4.1l13.11,25.1c-4.07,3.19-7.67,6.81-10.78,10.76l-31.14-9.77c-1.6-.5-3.31.39-3.81,1.99l-9.1,28.99c-.5,1.6.39,3.31,1.99,3.81l28.51,8.95c-.56,6.05-.27,12.22.93,18.32l-27.31,14.27c-1.49.78-2.06,2.61-1.29,4.1l14.06,26.93c.78,1.49,2.61,2.06,4.1,1.29l27.31-14.27c4.32,4.47,9.21,8.23,14.5,11.23l-8.95,28.51c-.5,1.6.39,3.31,1.99,3.81l28.99,9.1c1.6.5,3.31-.39,3.81-1.99l9.77-31.14c5.02-.3,10.05-1.18,14.99-2.7l13.11,25.1c.78,1.49,2.61,2.06,4.1,1.29l26.93-14.06c1.49-.78,2.06-2.61,1.29-4.1ZM848.38,580.44c-6.64-12.71-1.72-28.39,10.99-35.03,12.71-6.64,28.39-1.72,35.03,10.99,6.64,12.71,1.72,28.39-10.99,35.03-12.71,6.64-28.39,1.72-35.03-10.99Z"/>
    <path class="cls-3" d="M1104.66,469.75l-22.45-11.12c.2-3.03.12-6.06-.22-9.05l22.47-7.58c1.24-.42,1.91-1.76,1.49-3.01l-7.58-22.47c-.42-1.24-1.76-1.91-3.01-1.49l-24.5,8.27c-1.43-1.74-2.98-3.38-4.65-4.93l11.08-22.37c.58-1.17.1-2.6-1.07-3.18l-21.25-10.53c-1.17-.58-2.6-.1-3.18,1.07l-11.08,22.37c-2.24-.39-4.49-.63-6.74-.71l-8.27-24.5c-.42-1.24-1.76-1.91-3.01-1.49l-22.47,7.58c-1.24.42-1.91,1.76-1.49,3.01l7.58,22.47c-2.58,1.54-5.04,3.31-7.33,5.31l-22.45-11.12c-1.17-.58-2.6-.1-3.18,1.07l-10.53,21.25c-.58,1.17-.1,2.6,1.07,3.18l19.8,9.81c-1.1,3.88-1.71,7.82-1.86,11.75l-24.13,8.14c-1.24.42-1.91,1.76-1.49,3.01l7.58,22.47c.42,1.24,1.76,1.91,3.01,1.49l22.1-7.46c2.43,4.08,5.44,7.83,9,11.13l-10.68,21.55c-.58,1.17-.1,2.6,1.07,3.18l21.25,10.53c1.17.58,2.6.1,3.18-1.07l10.68-21.55c4.78.84,9.59.96,14.31.42l7.46,22.1c.42,1.24,1.76,1.91,3.01,1.49l22.47-7.58c1.24-.42,1.91-1.76,1.49-3.01l-8.14-24.13c3.03-2.49,5.8-5.37,8.22-8.59l19.8,9.81c1.17.58,2.6.1,3.18-1.07l10.53-21.25c.58-1.17.1-2.6-1.07-3.18ZM1023.07,473.39c-10.03-4.97-14.13-17.12-9.16-27.15,4.97-10.03,17.12-14.13,27.15-9.16,10.03,4.97,14.13,17.12,9.16,27.15-4.97,10.03-17.12,14.13-27.15,9.16Z"/>
    <rect class="cls-13" x="563.99" y="363.67" width="109.72" height="315.47"/>
    <rect class="cls-13" x="691.59" y="365.2" width="31.49" height="313.93"/>
    <rect class="cls-13" x="737.41" y="365.2" width="15.75" height="313.93"/>
    <rect class="cls-12" x="970.8" y="273.45" width="325.28" height="37.68" rx="14.38" ry="14.38"/>
    <rect class="cls-5" x="975.16" y="277.05" width="315.92" height="30.47" rx="12.44" ry="12.44"/>
    <circle class="cls-2" cx="1288.63" cy="239.31" r="14.69"/>
    <rect class="cls-12" x="1224.72" y="340.38" width="71.37" height="19.47" rx="9.64" ry="9.64"/>
    <rect class="cls-12" x="1224.72" y="383.51" width="71.37" height="19.47" rx="9.64" ry="9.64"/>
    <rect class="cls-7" x="926.35" y="776.43" width="407.52" height="5.2" rx="2.57" ry="2.57"/>
  </g>
</svg>