<?xml version="1.0" encoding="UTF-8"?>
<svg xmlns="http://www.w3.org/2000/svg" xmlns:xlink="http://www.w3.org/1999/xlink" viewBox="0 0 1920 1080">
  <defs>
    <style>
      .cls-1 {
        fill: #bf2026;
      }

      .cls-2 {
        filter: url(#drop-shadow-28);
      }

      .cls-3 {
        fill: #a2c997;
      }

      .cls-4, .cls-5 {
        fill: #9b9b9b;
      }

      .cls-6 {
        fill: none;
        stroke: #bf2026;
        stroke-miterlimit: 10;
        stroke-width: 2px;
      }

      .cls-7 {
        fill: #666;
      }

      .cls-8 {
        fill: #faf1f1;
      }

      .cls-9 {
        fill: #6b87af;
        filter: url(#drop-shadow-26);
      }

      .cls-10 {
        fill: #f4f4f4;
      }

      .cls-11 {
        fill: #fff;
        opacity: .35;
      }

      .cls-12 {
        fill: #353535;
      }

      .cls-5 {
        filter: url(#drop-shadow-25);
      }

      .cls-13 {
        filter: url(#drop-shadow-27);
      }
    </style>
    <filter id="drop-shadow-25" x="472" y="174" width="244" height="244" filterUnits="userSpaceOnUse">
      <feOffset dx="-3" dy="4"/>
      <feGaussianBlur result="blur" stdDeviation="5"/>
      <feFlood flood-color="#000" flood-opacity=".6"/>
      <feComposite in2="blur" operator="in"/>
      <feComposite in="SourceGraphic"/>
    </filter>
    <filter id="drop-shadow-26" x="526" y="184" width="806" height="806" filterUnits="userSpaceOnUse">
      <feOffset dx="-3" dy="4"/>
      <feGaussianBlur result="blur-2" stdDeviation="5"/>
      <feFlood flood-color="#000" flood-opacity=".6"/>
      <feComposite in2="blur-2" operator="in"/>
      <feComposite in="SourceGraphic"/>
    </filter>
    <filter id="drop-shadow-27" x="513" y="178" width="824" height="822" filterUnits="userSpaceOnUse">
      <feOffset dx="-3" dy="4"/>
      <feGaussianBlur result="blur-3" stdDeviation="5"/>
      <feFlood flood-color="#000" flood-opacity=".6"/>
      <feComposite in2="blur-3" operator="in"/>
      <feComposite in="SourceGraphic"/>
    </filter>
    <filter id="drop-shadow-28" x="625" y="280" width="644" height="536" filterUnits="userSpaceOnUse">
      <feOffset dx="-3" dy="4"/>
      <feGaussianBlur result="blur-4" stdDeviation="5"/>
      <feFlood flood-color="#000" flood-opacity=".6"/>
      <feComposite in2="blur-4" operator="in"/>
      <feComposite in="SourceGraphic"/>
    </filter>
  </defs>
  <g id="Layer_10" data-name="Layer 10">
    <path class="cls-8" d="M1410.12,392.08c-8.14-17.28-16.67-34.52-29.35-55.17-13.14-21.4-40.1-61.75-96.26-115.04-64.75-61.44-113.22-107.44-191.35-129.13-25.03-6.95-55.26-15.01-93.91-9.39-57.11,8.3-98.36,41.48-125.61,63.39-6.04,4.86-24.46,22.87-61.04,58.7-65.31,63.95-63.63,63.62-71.61,69.26-44.3,31.33-91.15,38.1-136.17,44.61-61.44,8.88-69.37-2.28-116.22,10.57-20.75,5.69-58.17,15.95-92.74,45.78-53.81,46.44-66.06,110.44-72.78,145.57-11.96,62.5-2.03,112.14,3.52,138.52,5.75,27.33,23.88,98.77,81,167.87,7.61,9.2,36.68,43.5,84.52,76.3,29.43,20.19,53.04,36.37,86.87,45.78,74.14,20.63,157.34-2.42,210.13-37.57,13.89-9.25,28.05-20.91,55.17-34.04,28.44-13.77,53.02-25.67,83.35-24.65,22.44.76,45.4,13.04,90.39,37.57,23.47,12.8,27.44,16.22,72.78,43.43,70.96,42.58,85.13,48.52,97.43,52.83,16.21,5.67,42.53,14.65,76.3,15.26,74.73,1.34,128.86-39.36,143.22-50.48,51.05-39.53,71.64-88.48,81-111.52,30.05-74,21.63-139.45,15.26-189-10.62-82.55-38.74-142.28-93.91-259.43v-.02Z"/>
  </g>
  <g id="Layer_7" data-name="Layer 7">
    <circle class="cls-5" cx="597.03" cy="291.73" r="106.46"/>
    <ellipse class="cls-7" cx="548.9" cy="235.78" rx="24.78" ry="19.23" transform="translate(70.26 593.25) rotate(-60)"/>
    <ellipse class="cls-7" cx="604.17" cy="349.2" rx="24.78" ry="19.23" transform="translate(-.33 697.83) rotate(-60)"/>
    <ellipse class="cls-7" cx="557.78" cy="280.23" rx="14.46" ry="11.22" transform="translate(36.2 623.17) rotate(-60)"/>
    <ellipse class="cls-7" cx="564.56" cy="366.84" rx="14.46" ry="11.22" transform="translate(-35.41 672.35) rotate(-60)"/>
    <ellipse class="cls-7" cx="583.41" cy="252.25" rx="8.73" ry="6.77" transform="translate(73.25 631.37) rotate(-60)"/>
    <ellipse class="cls-7" cx="679.93" cy="260.53" rx="8.73" ry="6.77" transform="translate(114.34 719.1) rotate(-60)"/>
    <circle class="cls-9" cx="932.25" cy="583.2" r="387.45"/>
    <g class="cls-13">
      <path class="cls-3" d="M1283.77,563.65c-3.79,4.15-6.73,5.99-11.88,9.68-16.31,11.68-28.86,23.24-34.33,28.6-6.62,6.5-16.22,16.07-24.64,31.25-3.56,6.4-9.32,17-11.88,32.13-1.05,6.2-2.45,14.93-.44,25.96,2.05,11.29,6.65,19.39,10.12,25.52,2.03,3.58,5.46,8.4,12.32,18.04,8.95,12.58,8.88,11.56,12.32,17.16,3.39,5.51,5.27,9.44,10.12,15.84.98,1.29,3.22,4.19,6.6,7.48,3.43,3.34,5.82,5.62,9.68,7.04,2,.74,5.92,2.18,9.24.44,2.51-1.32,3.56-3.87,3.96-4.84,3.57-8.6,9.19-16.31,12.32-25.08,4.9-13.74,5.07-10.05,11.88-27.72,2.94-7.63,9.11-24.41,14.52-46.65,2.7-11.11,6.07-27.12,8.36-46.65,1.16-9.88,2.73-26.6,2.64-47.09-.04-8.48-.08-19.23-1.32-30.37-1.05-9.43-.68-7.98-.44-14.08.18-4.56-.49-9.68-2.2-12.32-2.15-3.31-6.84-5.05-11-4.4-3.83.6-6.21,3.07-7.04,3.96-3.32,3.55-3.71,7.67-4.4,11-2.46,11.88-10.06,20.2-14.52,25.08Z"/>
      <path class="cls-3" d="M1228.32,486.2c-5.93-.91-8.9-1.36-12.32-2.64-9.98-3.73-15.88-10.29-18.04-12.76-4.38-4.99-6.69-9.75-8.36-13.2-2.73-5.62-2.72-7.54-5.28-13.2-1.66-3.66-1.94-3.28-8.36-14.08-4.8-8.07-5.73-10.01-6.6-12.32-1.37-3.63-2.65-7.02-2.64-11.44,0-1.67.2-5.87,4.4-14.08,3.26-6.37,4.96-7.4,11-16.28,3.43-5.04,6.75-9.96,10.12-16.72,2.77-5.55,5.13-10.28,6.6-17.16.81-3.8,2-9.33,1.32-16.28-.43-4.39-.28-8.83-.88-13.2-.23-1.69-.53-3.49.44-5.28,1.29-2.38,4.36-3.87,7.04-3.52,2.84.37,4.67,2.73,5.28,3.52,5.95,7.63,13.67,13.88,18.92,22,7.36,11.36,6.08,6.56,19.8,25.52,6.63,9.16,16.59,23.02,26.84,41.81,11.63,21.31,8.57,18,12.76,25.96,1.44,2.74,5.22,6.26,4.4,10.56-.65,3.43-3.78,6.43-7.04,7.48-1.56.5-2.23.26-10.12-.44-6.06-.54-6.9-.5-7.92,0-1.45.71-2.96,2.2-4.84,8.8-1.48,5.17-1.98,9.28-3.08,18.04-.76,6.1-1.17,9.18-2.2,11-2.86,5.04-7.9,7.19-9.68,7.92-5.73,2.36-11.09,1.6-21.56,0Z"/>
      <path class="cls-3" d="M838.86,940.8c-3.49-8.68-4.03-10.78-4.4-13.2-1.34-8.84,1.34-11.47,0-20.24-.28-1.82-1.43-8.5-5.72-15.4-3.39-5.45-5.23-5.4-13.64-14.08-7.09-7.31-10.63-10.97-13.64-17.16-3.78-7.79-4.29-14.53-4.4-16.72-.06-1.24-.25-6.32,1.32-12.32.69-2.63,1.19-4.49,2.64-6.6,1.9-2.77,3.79-3.58,3.52-4.4-.46-1.39-6.38-.41-11.44,0-3.34.27-8.88-.11-19.8-.88-22.45-1.58-33.68-2.37-36.53-3.08-4.55-1.13-26.78-6.67-41.81-22-2.46-2.51-6.51-7.1-13.64-11-5.48-3-10.48-4.33-15.84-5.72-11.66-3.03-12.61-1.25-19.8-3.96-4.13-1.56-12.02-4.52-16.72-11.88-3.31-5.17-1.35-6.73-4.84-12.32-3.37-5.4-6.06-5.33-13.64-12.32-5.78-5.34-9.39-8.67-11.88-14.08-3-6.53-1.05-8.86-3.52-18.48-1.99-7.75-5.04-13.2-7.04-16.72-4.8-8.44-9.91-13.5-18.04-21.56-4.35-4.31-9.84-9.75-17.16-15.4-1.99-1.54-3.97-3.23-7.92-6.6-5.65-4.83-7.23-6.43-8.36-8.8-1.88-3.95-1.46-7.75-1.32-9.24.98-10.81-2.78-18.29-3.52-40.05-.82-24.13,2.77-45.24,6.16-65.13,2.28-13.42,5.14-29.88,11.44-51.05,3.49-11.74,12.34-39.35,29.93-72.17,15.69-29.28,31.45-49.87,38.73-58.97,4.25-5.32,16.98-20.95,36.09-39.17,27.73-26.44,53.03-43.19,66.45-51.49,19.57-12.1,35.84-19.81,43.57-23.32,24.21-11.01,43.69-16.8,55.45-20.24,9.8-2.87,24.49-7.13,44.45-10.56,17.4-2.99,31.04-4.02,36.97-4.4,14.34-.92,25.04-.69,35.65-.44,11.82.28,24.38.61,40.93,2.64,21.73,2.67,22.23,4.82,37.85,6.6,6.43.74,11.57,1.19,18.92,4.4,2.47,1.08,5.18.8,6.16,2.64,1.91,3.58-3.6,9.94-5.28,11.88-6.25,7.21-14.72,12.25-32.57,18.04-18.39,5.97-32.84,8.24-36.53,8.8-18.16,2.74-17.58.52-32.13,3.08-18.49,3.26-30.37,8.79-42.69,14.52-12.2,5.68-17.01,9.34-20.68,14.52-3.52,4.96-4.75,9.58-6.6,16.72-1.21,4.7-3.37,14.33-3.52,29.93-.17,16.89-.25,25.33,4.4,35.21,2.31,4.9,6.21,12.91,14.96,17.6,7.13,3.82,13.79,3.47,21.12,3.08,16.45-.87,28.26-7.39,36.97-12.32,8.65-4.9,15.31-8.78,19.8-16.72,3.58-6.34,4.84-12.76,4.84-12.76,1.37-7.01-.14-9.49,2.2-15.4.83-2.09,2.5-6.18,6.6-9.24,2.78-2.08,5.38-2.72,8.8-3.52,7.77-1.82,14.07-.9,19.8,0,5.4.84,8.15,1.3,10.12,3.08,3.18,2.86,2.43,5.86,5.28,10.56,1.69,2.8,4.36,4.8,9.68,8.8,7.73,5.81,10.19,6.09,16.72,11.44,3.91,3.2,5.87,4.8,7.48,7.04,4.23,5.86,4.68,12.97,3.52,24.64-1.09,10.97-2.06,20.75-7.04,35.21-5.7,16.57-9.03,26.23-18.04,35.21-2.66,2.65-11.46,7.93-29.05,18.48-15.45,9.27-17.71,10.25-22.44,14.52-5.43,4.9-13.96,12.77-17.16,25.08-1.52,5.83-.02,5.66-.88,18.04-.95,13.78-1.62,23.39-7.48,33.01-1.89,3.1-5.74,9.41-13.2,13.64-6.46,3.66-9.02,2.03-18.04,6.16-5.9,2.7-11.83,5.42-15.4,11.44-1.6,2.7-2.26,6.97-3.52,15.4-1.85,12.42-.83,12.78-2.2,16.28-3.72,9.48-13.95,13.76-18.92,15.84-13.09,5.47-24.93,3.02-28.6,2.2-4.5-1-17.64-3.92-25.52-14.96-2.64-3.7-2.18-4.8-6.6-18.04-5.23-15.69-7.85-23.53-12.32-30.37-7.04-10.76-15.78-16.69-19.8-19.36-12.11-8.05-23.27-10.33-29.05-11.44-8.64-1.67-15.97-3.09-25.08-.44-2.68.78-10.74,3.23-17.6,10.56-8.03,8.58-9.49,18.57-10.56,25.96-1.44,9.9-.14,17.06,2.2,29.93,2.26,12.41,3.48,18.75,8.36,25.52,1.99,2.77,6.75,9.21,15.4,12.76,8,3.29,15.62,2.59,19.8,2.2,2.57-.24,7.54-.9,13.2-2.2,5.97-1.37,8.26-2.41,11.88-1.76,3.82.69,6.99,2.88,8.8,4.84,7.79,8.41,3.11,25.92-2.64,36.53-2.1,3.88-5.51,7.87-12.32,15.84-7.06,8.27-10.78,11.47-18.48,21.12-5.2,6.52-8.04,10.73-9.24,16.72-.44,2.18-1.19,6.15,0,10.56,2.02,7.5,8.48,11.91,13.64,14.96,15.35,9.07,30.99,13.02,39.17,14.96,13.25,3.15,25.7,5.18,50.61,9.24,13.14,2.14,20.2,3.15,29.93,3.08,0,0,12.69-.09,28.16-3.96,11.4-2.85,13.62-5.11,14.52-6.16,2.13-2.47,3.64-6,7.48-7.04,1.89-.51,3.48-.18,4.4,0,12.63,2.53,13.11,1.1,20.68,3.52,4.48,1.43,19.16,6.12,30.81,19.36,8.47,9.63,13.08,21.23,15.84,28.16,2.65,6.65,2.99,9.29,6.16,14.08,6.02,9.1,14.08,13.66,18.04,15.84,7.68,4.23,14.03,5.52,24.2,7.48,10.69,2.07,11.15.97,29.49,3.52,13.78,1.92,19.16,3.32,23.76,4.84,3.26,1.08,9.11,3.2,15.84,7.04,5.14,2.93,8.08,4.61,11,7.92,5.55,6.28,6.75,13.58,7.04,15.84,2.11,16.58-10.92,28.27-12.32,29.48-4.56,3.96-9,5.65-11.44,6.6-29.45,11.41-21.06,11.15-46.21,19.8-12.41,4.27-34.8,11.87-65.57,17.16-28.16,4.85-48.73,5.25-72.61,5.72-26.05.51-9.46-1.52-54.57-3.96-3.41-.18-7.24-.37-11.44-2.64-2.96-1.6-7.49-4.97-18.92-33.45Z"/>
    </g>
    <g class="cls-2">
      <rect class="cls-12" x="757.36" y="336.28" width="320.41" height="182.47"/>
      <rect class="cls-12" x="697.7" y="456.16" width="448.73" height="85.86"/>
      <rect class="cls-12" x="710.66" y="719.33" width="409.85" height="50.34"/>
      <rect class="cls-4" x="737.15" y="756.24" width="356.93" height="40.27" rx="4.65" ry="4.65"/>
      <path class="cls-10" d="M790.39,291.73h249.42c3.96,0,7.17,3.21,7.17,7.17v199.42c0,2.56-2.07,4.63-4.63,4.63h-254.49c-2.56,0-4.63-2.07-4.63-4.63v-199.42c0-3.96,3.21-7.17,7.17-7.17Z"/>
      <rect class="cls-12" x="652.34" y="524.2" width="594.53" height="232.05"/>
      <path class="cls-4" d="M771.57,325.67h-9.65c-10.37,0-18.78,8.41-18.78,18.78v155.89c0,1.44,1.17,2.61,2.61,2.61h23.21c1.44,0,2.61-1.17,2.61-2.61v-174.67Z"/>
      <path class="cls-4" d="M1056.84,325.67h9.65c10.37,0,18.78,8.41,18.78,18.78v155.89c0,1.44-1.17,2.61-2.61,2.61h-23.21c-1.44,0-2.61-1.17-2.61-2.61v-174.67Z"/>
      <path class="cls-4" d="M1232.14,444.32h-110.15c-6.32,0-11.45,5.13-11.45,11.45v62.98h-389.31v-62.98c0-6.32-5.13-11.45-11.45-11.45h-41.45c-5.44,0-10.14,3.83-11.22,9.17l-13.27,65.26v34.35c0,5.12,4.15,9.28,9.28,9.28h594.23c5.12,0,9.28-4.15,9.28-9.28v-34.35l-13.27-65.26c-1.08-5.34-5.78-9.17-11.22-9.17Z"/>
      <path class="cls-4" d="M1073.82,569.88h-312.32c-12.21,0-22.11,9.9-22.11,22.11v68.31c0,12.21,9.9,22.11,22.11,22.11h312.32c12.21,0,22.11-9.9,22.11-22.11v-68.31c0-12.21-9.9-22.11-22.11-22.11ZM777.2,648.53c-11.33,0-20.51-9.18-20.51-20.51s9.18-20.51,20.51-20.51,20.51,9.18,20.51,20.51-9.18,20.51-20.51,20.51ZM996.04,637.89c-5.45,0-9.87-4.42-9.87-9.87s4.42-9.87,9.87-9.87,9.87,4.42,9.87,9.87-4.42,9.87-9.87,9.87ZM1031.57,637.89c-5.45,0-9.87-4.42-9.87-9.87s4.42-9.87,9.87-9.87,9.87,4.42,9.87,9.87-4.42,9.87-9.87,9.87ZM1067.9,637.89c-5.45,0-9.87-4.42-9.87-9.87s4.42-9.87,9.87-9.87,9.87,4.42,9.87,9.87-4.42,9.87-9.87,9.87Z"/>
      <path class="cls-4" d="M712.15,576.2h-59.23c-5.02,0-9.08,4.07-9.08,9.08v18.06h27.93c4.2,0,7.6,3.4,7.6,7.6h0c0,4.2-3.4,7.6-7.6,7.6h-27.93v119.93c0,17.23,13.97,31.19,31.19,31.19h37.11c5.02,0,9.08-4.07,9.08-9.08v-175.31c0-5.02-4.07-9.08-9.08-9.08Z"/>
      <path class="cls-10" d="M1081.21,744.99h-330.48c-3.15,0-5.32-3.16-4.19-6.1l16.23-42.35c.67-1.74,2.33-2.88,4.19-2.88h303.01c2.04,0,3.82,1.37,4.34,3.34l11.24,42.35c.76,2.85-1.39,5.64-4.34,5.64Z"/>
      <path class="cls-4" d="M1196.91,665.53c-4.09,0-7.4-3.31-7.4-7.4s3.31-7.4,7.4-7.4h59.72v-32.18h-94.27c-4.2,0-7.6-3.4-7.6-7.6s3.4-7.6,7.6-7.6h94.27v-18.06c0-5.02-4.07-9.08-9.08-9.08h-127.93c-5.02,0-9.08,4.07-9.08,9.08v175.31c0,5.02,4.07,9.08,9.08,9.08h105.82c17.23,0,31.19-13.97,31.19-31.19v-72.95h-59.72Z"/>
      <rect class="cls-12" x="813.26" y="585.15" width="152.28" height="85.02" rx="13.72" ry="13.72"/>
    </g>
    <rect class="cls-11" x="829.52" y="585.09" width="26.09" height="85.08"/>
    <rect class="cls-11" x="866.87" y="585.09" width="13.04" height="85.08"/>
    <circle class="cls-1" cx="777.3" cy="628.39" r="15.61"/>
    <circle class="cls-1" cx="996.04" cy="628.02" r="6.66"/>
    <circle class="cls-1" cx="1031.57" cy="628.02" r="6.66"/>
    <circle class="cls-1" cx="1067.9" cy="628.02" r="6.66"/>
    <line class="cls-6" x1="771.57" y1="724.65" x2="1061.24" y2="724.65"/>
    <line class="cls-6" x1="786.23" y1="707.43" x2="1045.71" y2="707.43"/>
  </g>
</svg>