<svg id="visual" viewBox="0 0 1000 800" width="1000" height="800" xmlns="http://www.w3.org/2000/svg" xmlns:xlink="http://www.w3.org/1999/xlink" version="1.1"><rect x="0" y="0" width="1000" height="800" fill="#EBEBEB"></rect><path d="M0 663L33.3 649.2C66.7 635.3 133.3 607.7 200 594C266.7 580.3 333.3 580.7 400 593.5C466.7 606.3 533.3 631.7 600 630.2C666.7 628.7 733.3 600.3 800 584.8C866.7 569.3 933.3 566.7 966.7 565.3L1000 564L1000 801L966.7 801C933.3 801 866.7 801 800 801C733.3 801 666.7 801 600 801C533.3 801 466.7 801 400 801C333.3 801 266.7 801 200 801C133.3 801 66.7 801 33.3 801L0 801Z" fill="#ffffff" stroke-linecap="round" stroke-linejoin="miter"></path></svg>