<svg id="visual" viewBox="0 0 900 450" width="900" height="450" xmlns="http://www.w3.org/2000/svg" xmlns:xlink="http://www.w3.org/1999/xlink" version="1.1"><rect x="0" y="0" width="900" height="450" fill="#bf2026"></rect><path d="M0 447L30 436C60 425 120 403 180 388C240 373 300 365 360 355.7C420 346.3 480 335.7 540 340.8C600 346 660 367 720 341.5C780 316 840 244 870 208L900 172L900 451L870 451C840 451 780 451 720 451C660 451 600 451 540 451C480 451 420 451 360 451C300 451 240 451 180 451C120 451 60 451 30 451L0 451Z" fill="#ebebeb" stroke-linecap="round" stroke-linejoin="miter"></path></svg>