<svg xmlns="http://www.w3.org/2000/svg" xmlns:xlink="http://www.w3.org/1999/xlink" width="900" zoomAndPan="magnify" viewBox="0 0 675 449.999984" height="600" preserveAspectRatio="xMidYMid meet" version="1.0"><defs><clipPath id="d21d5cd4d5"><path d="M 0 0 L 675 0 L 675 444 L 0 444 Z M 0 0 " clip-rule="nonzero"/></clipPath><clipPath id="ed89782065"><path d="M 0 373 L 675 373 L 675 444 L 0 444 Z M 0 373 " clip-rule="nonzero"/></clipPath><clipPath id="46dab54920"><path d="M 0 354.644531 L 84.75 354.644531 L 84.75 411 L 0 411 Z M 0 354.644531 " clip-rule="nonzero"/></clipPath><clipPath id="12bba0a909"><path d="M 0 357 L 84.75 357 L 84.75 412 L 0 412 Z M 0 357 " clip-rule="nonzero"/></clipPath><clipPath id="b5cbe9581c"><path d="M 0 360 L 84.75 360 L 84.75 413 L 0 413 Z M 0 360 " clip-rule="nonzero"/></clipPath><clipPath id="448b4c1c66"><path d="M 0 362 L 84.75 362 L 84.75 414 L 0 414 Z M 0 362 " clip-rule="nonzero"/></clipPath><clipPath id="8445f89651"><path d="M 0 364 L 84.75 364 L 84.75 415 L 0 415 Z M 0 364 " clip-rule="nonzero"/></clipPath><clipPath id="e923106af4"><path d="M 0 365 L 84.75 365 L 84.75 416 L 0 416 Z M 0 365 " clip-rule="nonzero"/></clipPath><clipPath id="8a307f21e3"><path d="M 0 367 L 84.75 367 L 84.75 418 L 0 418 Z M 0 367 " clip-rule="nonzero"/></clipPath><clipPath id="f9d384c0e5"><path d="M 0 369 L 84.75 369 L 84.75 419 L 0 419 Z M 0 369 " clip-rule="nonzero"/></clipPath><clipPath id="68751ca5b7"><path d="M 0 370 L 84.75 370 L 84.75 420 L 0 420 Z M 0 370 " clip-rule="nonzero"/></clipPath><clipPath id="bc85ecb965"><path d="M 0 372 L 84.75 372 L 84.75 422 L 0 422 Z M 0 372 " clip-rule="nonzero"/></clipPath></defs><rect x="-67.5" width="810" fill="#ffffff" y="-44.999998" height="539.99998" fill-opacity="1"/><rect x="-67.5" width="810" fill="#ffffff" y="-44.999998" height="539.99998" fill-opacity="1"/><g clip-path="url(#d21d5cd4d5)"><rect x="-67.5" width="810" fill="#bf2026" y="-44.999998" height="539.99998" fill-opacity="1"/></g><g clip-path="url(#ed89782065)"><path fill="#ffffff" d="M 0 384.75 L 28.125 381.375 C 56.25 378 112.5 371.25 168.75 374.023438 C 225 376.726562 281.25 389.023438 337.5 401.773438 C 393.75 414.523438 450 427.726562 506.25 429.148438 C 562.5 430.5 618.75 420 646.875 414.75 L 675 409.5 L 675 450.75 L 646.875 450.75 C 618.75 450.75 562.5 450.75 506.25 450.75 C 450 450.75 393.75 450.75 337.5 450.75 C 281.25 450.75 225 450.75 168.75 450.75 C 112.5 450.75 56.25 450.75 28.125 450.75 L 0 450.75 Z M 0 384.75 " fill-opacity="1" fill-rule="nonzero"/></g><g clip-path="url(#46dab54920)"><path fill="#bf2026" d="M 76.074219 357.351562 C 71.585938 358.375 67.035156 359.105469 62.542969 360.070312 C 54.394531 361.808594 45.199219 364.503906 41.492188 372.777344 C 39.847656 376.449219 39.5 380.464844 39.277344 384.429688 C 39.039062 388.683594 38.65625 393.074219 36.589844 396.886719 C 34.289062 401.121094 30.207031 403.824219 25.828125 405.574219 C 21.070312 407.472656 15.96875 408.449219 10.910156 409.152344 C 7.3125 409.648438 3.679688 409.964844 0.0390625 410.273438 L 0.0390625 410.878906 C 2.527344 410.675781 5.007812 410.460938 7.457031 410.1875 C 12.621094 409.613281 17.808594 408.816406 22.78125 407.285156 C 27.15625 405.9375 31.566406 403.957031 34.722656 400.539062 C 37.679688 397.316406 38.996094 393.183594 39.519531 388.921875 C 40.015625 384.832031 39.851562 380.683594 40.824219 376.652344 C 41.898438 372.203125 44.371094 368.402344 48.222656 365.863281 C 51.699219 363.570312 55.777344 362.3125 59.785156 361.332031 C 64.277344 360.234375 68.839844 359.492188 73.363281 358.5625 C 77.292969 357.757812 81.25 356.835938 84.96875 355.300781 L 84.96875 354.644531 C 82.109375 355.851562 79.085938 356.660156 76.074219 357.351562 Z M 76.074219 357.351562 " fill-opacity="1" fill-rule="nonzero"/></g><g clip-path="url(#12bba0a909)"><path fill="#bf2026" d="M 65.363281 361.367188 C 65.105469 361.414062 64.851562 361.464844 64.589844 361.519531 C 60.371094 362.363281 55.953125 363.515625 52.15625 365.609375 C 48.632812 367.546875 45.664062 370.273438 43.839844 374.128906 C 42.105469 377.800781 41.601562 381.824219 41.207031 385.796875 C 40.773438 390.074219 40.203125 394.472656 38.019531 398.292969 C 35.617188 402.503906 31.523438 405.238281 27.082031 406.96875 C 22.273438 408.847656 17.117188 409.757812 12.015625 410.351562 C 8.046875 410.820312 4.042969 411.042969 0.0390625 411.273438 L 0.0390625 411.882812 C 2.890625 411.722656 5.734375 411.566406 8.550781 411.316406 C 13.785156 410.863281 19.0625 410.148438 24.109375 408.628906 C 28.003906 407.460938 31.898438 405.765625 34.96875 403.019531 C 35.40625 402.628906 35.820312 402.222656 36.21875 401.792969 C 39.226562 398.542969 40.652344 394.40625 41.339844 390.128906 C 41.890625 386.707031 42.011719 383.234375 42.6875 379.839844 C 42.820312 379.164062 42.976562 378.5 43.160156 377.835938 C 44.128906 374.347656 45.917969 371.242188 48.539062 368.835938 C 49.253906 368.179688 50.03125 367.574219 50.871094 367.027344 C 53.933594 365.03125 57.4375 363.828125 60.976562 362.949219 C 61.527344 362.8125 62.078125 362.683594 62.632812 362.554688 C 67.195312 361.523438 71.828125 360.898438 76.433594 360.082031 C 79.296875 359.570312 82.164062 358.996094 84.960938 358.171875 L 84.960938 357.558594 C 83.058594 358.121094 81.109375 358.570312 79.167969 358.957031 C 74.59375 359.875 69.949219 360.480469 65.363281 361.367188 Z M 65.363281 361.367188 " fill-opacity="1" fill-rule="nonzero"/></g><g clip-path="url(#b5cbe9581c)"><path fill="#bf2026" d="M 68.183594 362.671875 C 67.921875 362.714844 67.660156 362.761719 67.394531 362.8125 C 63.082031 363.585938 58.585938 364.714844 54.710938 366.851562 C 51.117188 368.828125 48.109375 371.632812 46.191406 375.496094 C 44.367188 379.171875 43.703125 383.195312 43.136719 387.171875 C 42.503906 391.480469 41.75 395.882812 39.453125 399.710938 C 36.945312 403.898438 32.839844 406.660156 28.34375 408.382812 C 23.480469 410.242188 18.273438 411.082031 13.125 411.570312 C 8.78125 411.984375 4.40625 412.101562 0.0390625 412.234375 L 0.0390625 412.839844 C 3.253906 412.75 6.464844 412.664062 9.640625 412.457031 C 14.945312 412.117188 20.324219 411.492188 25.445312 409.988281 C 29.402344 408.832031 33.324219 407.105469 36.457031 404.304688 C 36.898438 403.910156 37.324219 403.496094 37.722656 403.0625 C 40.773438 399.777344 42.308594 395.636719 43.164062 391.351562 C 43.851562 387.917969 44.140625 384.4375 44.953125 381.046875 C 45.117188 380.371094 45.300781 379.707031 45.507812 379.042969 C 46.597656 375.5625 48.472656 372.457031 51.15625 370.035156 C 51.886719 369.375 52.683594 368.769531 53.53125 368.222656 C 56.644531 366.21875 60.210938 365.023438 63.816406 364.1875 C 64.375 364.058594 64.9375 363.933594 65.496094 363.816406 C 70.136719 362.859375 74.84375 362.34375 79.515625 361.632812 C 81.335938 361.355469 83.160156 361.050781 84.96875 360.675781 L 84.96875 360.042969 C 84.070312 360.234375 83.179688 360.402344 82.28125 360.558594 C 77.597656 361.378906 72.859375 361.863281 68.183594 362.671875 Z M 68.183594 362.671875 " fill-opacity="1" fill-rule="nonzero"/></g><g clip-path="url(#448b4c1c66)"><path fill="#bf2026" d="M 70.195312 364.097656 C 65.785156 364.808594 61.210938 365.910156 57.257812 368.089844 C 53.597656 370.101562 50.546875 372.988281 48.539062 376.847656 C 46.621094 380.523438 45.804688 384.550781 45.0625 388.539062 C 44.238281 392.871094 43.296875 397.28125 40.878906 401.121094 C 38.277344 405.28125 34.152344 408.070312 29.601562 409.777344 C 24.6875 411.621094 19.421875 412.386719 14.230469 412.78125 C 9.507812 413.132812 4.765625 413.105469 0.0351562 413.132812 L 0.0351562 413.738281 C 3.613281 413.726562 7.1875 413.742188 10.726562 413.597656 C 16.101562 413.378906 21.574219 412.835938 26.773438 411.347656 C 30.789062 410.195312 34.75 408.449219 37.9375 405.597656 C 38.386719 405.195312 38.816406 404.777344 39.226562 404.335938 C 42.320312 401.023438 43.964844 396.867188 44.984375 392.578125 C 45.804688 389.140625 46.265625 385.636719 47.21875 382.246094 C 47.40625 381.574219 47.617188 380.90625 47.847656 380.246094 C 49.066406 376.777344 51.019531 373.65625 53.757812 371.230469 C 54.507812 370.5625 55.316406 369.957031 56.175781 369.410156 C 59.34375 367.398438 62.960938 366.207031 66.628906 365.417969 C 67.199219 365.296875 67.769531 365.183594 68.339844 365.074219 C 73.054688 364.183594 77.835938 363.78125 82.585938 363.175781 C 83.378906 363.070312 84.171875 362.960938 84.960938 362.847656 L 84.960938 362.222656 C 80.320312 362.894531 75.625 363.265625 70.996094 363.976562 C 70.738281 364.011719 70.464844 364.054688 70.195312 364.097656 Z M 70.195312 364.097656 " fill-opacity="1" fill-rule="nonzero"/></g><g clip-path="url(#8445f89651)"><path fill="#bf2026" d="M 73 365.390625 C 68.492188 366.03125 63.84375 367.113281 59.8125 369.332031 C 56.085938 371.390625 53 374.347656 50.894531 378.214844 C 48.890625 381.894531 47.921875 385.929688 46.992188 389.921875 C 45.980469 394.277344 44.84375 398.699219 42.308594 402.539062 C 39.605469 406.671875 35.46875 409.496094 30.863281 411.191406 C 25.894531 413.015625 20.574219 413.707031 15.339844 414 C 10.242188 414.273438 5.136719 414.089844 0.0351562 413.992188 L 0.0351562 414.597656 C 3.96875 414.683594 7.914062 414.816406 11.820312 414.746094 C 17.261719 414.640625 22.835938 414.1875 28.109375 412.710938 C 32.183594 411.570312 36.175781 409.792969 39.421875 406.890625 C 39.878906 406.484375 40.3125 406.050781 40.734375 405.609375 C 43.875 402.265625 45.621094 398.105469 46.8125 393.804688 C 47.761719 390.351562 48.394531 386.847656 49.480469 383.449219 C 49.699219 382.773438 49.929688 382.109375 50.191406 381.445312 C 51.535156 377.988281 53.570312 374.863281 56.359375 372.433594 C 57.128906 371.757812 57.953125 371.152344 58.828125 370.601562 C 62.050781 368.578125 65.71875 367.390625 69.449219 366.644531 C 70.027344 366.53125 70.609375 366.421875 71.1875 366.324219 C 75.746094 365.539062 80.363281 365.238281 84.957031 364.78125 L 84.957031 364.164062 C 81.238281 364.527344 77.5 364.789062 73.8125 365.28125 C 73.550781 365.308594 73.277344 365.347656 73 365.390625 Z M 73 365.390625 " fill-opacity="1" fill-rule="nonzero"/></g><g clip-path="url(#e923106af4)"><path fill="#bf2026" d="M 75.808594 366.675781 C 71.203125 367.25 66.476562 368.300781 62.371094 370.570312 C 58.574219 372.664062 55.449219 375.703125 53.253906 379.566406 C 51.160156 383.25 50.03125 387.289062 48.933594 391.285156 C 47.726562 395.671875 46.398438 400.09375 43.753906 403.945312 C 40.9375 408.046875 36.789062 410.90625 32.136719 412.589844 C 27.121094 414.40625 21.746094 415.019531 16.460938 415.207031 C 10.988281 415.394531 5.511719 415.03125 0.046875 414.792969 L 0.046875 415.398438 C 4.347656 415.59375 8.648438 415.867188 12.925781 415.878906 C 18.4375 415.898438 24.109375 415.519531 29.457031 414.058594 C 33.597656 412.929688 37.621094 411.125 40.914062 408.167969 C 41.375 407.757812 41.820312 407.320312 42.242188 406.871094 C 45.429688 403.496094 47.285156 399.332031 48.644531 395.023438 C 49.734375 391.566406 50.523438 388.039062 51.753906 384.648438 C 51.996094 383.976562 52.257812 383.308594 52.542969 382.648438 C 54.019531 379.203125 56.121094 376.070312 58.980469 373.628906 C 59.769531 372.953125 60.613281 372.339844 61.496094 371.789062 C 64.773438 369.757812 68.5 368.578125 72.289062 367.875 C 72.878906 367.765625 73.464844 367.671875 74.054688 367.578125 C 77.671875 367.019531 81.324219 366.777344 84.972656 366.53125 L 84.972656 365.90625 C 82.191406 366.085938 79.40625 366.269531 76.652344 366.585938 C 76.367188 366.609375 76.085938 366.640625 75.808594 366.675781 Z M 75.808594 366.675781 " fill-opacity="1" fill-rule="nonzero"/></g><g clip-path="url(#8a307f21e3)"><path fill="#bf2026" d="M 78.609375 367.96875 C 73.910156 368.476562 69.109375 369.503906 64.925781 371.8125 C 61.0625 373.949219 57.894531 377.066406 55.605469 380.929688 C 53.421875 384.613281 52.132812 388.660156 50.871094 392.664062 C 49.460938 397.066406 47.957031 401.507812 45.191406 405.367188 C 42.285156 409.449219 38.113281 412.332031 33.398438 414 C 28.328125 415.792969 22.898438 416.335938 17.570312 416.417969 C 11.722656 416.503906 5.882812 415.933594 0.046875 415.550781 L 0.046875 416.160156 C 4.710938 416.472656 9.375 416.90625 14.011719 417.015625 C 19.597656 417.148438 25.359375 416.855469 30.777344 415.414062 C 34.980469 414.296875 39.039062 412.457031 42.386719 409.449219 C 42.855469 409.023438 43.3125 408.585938 43.742188 408.132812 C 46.976562 404.730469 48.933594 400.550781 50.457031 396.238281 C 51.683594 392.773438 52.640625 389.230469 54.011719 385.839844 C 54.285156 385.164062 54.570312 384.5 54.878906 383.835938 C 56.480469 380.398438 58.664062 377.261719 61.578125 374.808594 C 62.382812 374.128906 63.238281 373.511719 64.144531 372.960938 C 67.472656 370.921875 71.246094 369.746094 75.105469 369.089844 C 75.699219 368.988281 76.300781 368.894531 76.898438 368.816406 C 79.574219 368.445312 82.269531 368.265625 84.96875 368.117188 L 84.96875 367.488281 C 83.125 367.578125 81.292969 367.695312 79.464844 367.871094 C 79.179688 367.90625 78.894531 367.9375 78.609375 367.96875 Z M 78.609375 367.96875 " fill-opacity="1" fill-rule="nonzero"/></g><g clip-path="url(#f9d384c0e5)"><path fill="#bf2026" d="M 81.414062 369.253906 C 76.613281 369.695312 71.738281 370.695312 67.472656 373.050781 C 63.542969 375.222656 60.332031 378.417969 57.949219 382.285156 C 55.675781 385.972656 54.222656 390.019531 52.785156 394.035156 C 51.179688 398.46875 49.492188 402.914062 46.609375 406.773438 C 43.601562 410.824219 39.417969 413.742188 34.648438 415.398438 C 29.527344 417.175781 24.039062 417.652344 18.667969 417.632812 C 12.4375 417.601562 6.238281 416.808594 0.0351562 416.273438 L 0.0351562 416.878906 C 5.0625 417.324219 10.085938 417.941406 15.089844 418.160156 C 20.742188 418.414062 26.609375 418.207031 32.101562 416.777344 C 36.363281 415.667969 40.453125 413.804688 43.863281 410.742188 C 44.34375 410.308594 44.796875 409.867188 45.234375 409.40625 C 48.507812 405.972656 50.585938 401.789062 52.269531 397.460938 C 53.628906 393.984375 54.757812 390.4375 56.261719 387.039062 C 56.558594 386.367188 56.875 385.699219 57.207031 385.039062 C 58.9375 381.609375 61.199219 378.46875 64.171875 376.003906 C 64.996094 375.320312 65.871094 374.699219 66.78125 374.148438 C 70.160156 372.097656 73.996094 370.925781 77.917969 370.320312 C 78.527344 370.222656 79.132812 370.144531 79.738281 370.074219 C 81.472656 369.859375 83.210938 369.734375 84.949219 369.640625 L 84.949219 369.011719 C 84.050781 369.054688 83.160156 369.109375 82.269531 369.179688 C 81.996094 369.203125 81.703125 369.230469 81.414062 369.253906 Z M 81.414062 369.253906 " fill-opacity="1" fill-rule="nonzero"/></g><g clip-path="url(#68751ca5b7)"><path fill="#bf2026" d="M 70.027344 374.292969 C 66.027344 376.507812 62.777344 379.785156 60.300781 383.648438 C 57.9375 387.335938 56.335938 391.390625 54.722656 395.410156 C 52.917969 399.871094 51.046875 404.324219 48.046875 408.191406 C 44.9375 412.222656 40.738281 415.167969 35.914062 416.808594 C 30.742188 418.566406 25.203125 418.96875 19.785156 418.847656 C 13.171875 418.695312 6.617188 417.636719 0.0390625 416.941406 L 0.0390625 417.558594 C 5.425781 418.136719 10.8125 418.949219 16.1875 419.292969 C 21.914062 419.664062 27.871094 419.542969 33.441406 418.128906 C 37.765625 417.03125 41.890625 415.140625 45.355469 412.027344 C 45.839844 411.589844 46.300781 411.140625 46.75 410.675781 C 50.070312 407.210938 52.253906 403.019531 54.109375 398.679688 C 55.601562 395.199219 56.898438 391.632812 58.542969 388.234375 C 58.871094 387.5625 59.210938 386.894531 59.570312 386.234375 C 61.425781 382.816406 63.765625 379.667969 66.792969 377.195312 C 67.636719 376.503906 68.523438 375.882812 69.449219 375.332031 C 72.882812 373.273438 76.765625 372.109375 80.757812 371.546875 C 81.371094 371.460938 81.988281 371.382812 82.609375 371.316406 C 83.398438 371.230469 84.179688 371.171875 84.96875 371.117188 L 84.96875 370.484375 C 84.71875 370.503906 84.464844 370.519531 84.214844 370.539062 C 79.328125 370.921875 74.371094 371.890625 70.027344 374.292969 Z M 70.027344 374.292969 " fill-opacity="1" fill-rule="nonzero"/></g><g clip-path="url(#bc85ecb965)"><path fill="#bf2026" d="M 62.65625 385.007812 C 60.199219 388.703125 58.441406 392.753906 56.652344 396.78125 C 54.65625 401.265625 52.59375 405.730469 49.472656 409.605469 C 46.265625 413.609375 42.050781 416.582031 37.171875 418.214844 C 31.949219 419.957031 26.347656 420.285156 20.890625 420.058594 C 13.894531 419.769531 6.980469 418.445312 0.0351562 417.578125 L 0.0351562 418.792969 C 6.152344 419.664062 12.257812 420.945312 18.367188 421.582031 C 28.804688 422.660156 40.148438 421.964844 48.316406 414.605469 C 55.492188 408.144531 58.433594 398.828125 63.0625 390.644531 C 65.40625 386.5 68.242188 382.570312 72.003906 379.589844 C 75.777344 376.601562 80.261719 374.9375 84.96875 374.203125 L 84.96875 373.597656 C 81.539062 374.117188 78.199219 375.082031 75.136719 376.78125 C 71.003906 379.074219 67.671875 382.507812 65.011719 386.371094 C 59.617188 394.199219 57.046875 403.667969 50.910156 411.027344 C 47.601562 415 43.371094 418.007812 38.441406 419.621094 C 33.160156 421.351562 27.515625 421.601562 22.003906 421.277344 C 15.136719 420.871094 8.363281 419.433594 1.554688 418.398438 C 6.804688 419.101562 12.042969 420.003906 17.28125 420.441406 C 23.078125 420.933594 29.132812 420.890625 34.773438 419.496094 C 39.167969 418.410156 43.316406 416.492188 46.839844 413.320312 C 47.332031 412.875 47.804688 412.421875 48.253906 411.949219 C 51.621094 408.453125 53.910156 404.25 55.929688 399.914062 C 57.5625 396.417969 59.023438 392.839844 60.804688 389.449219 C 61.15625 388.773438 61.527344 388.101562 61.917969 387.445312 C 63.894531 384.042969 66.320312 380.882812 69.410156 378.402344 C 70.269531 377.710938 71.171875 377.085938 72.113281 376.527344 C 75.601562 374.457031 79.539062 373.300781 83.589844 372.777344 C 84.050781 372.71875 84.511719 372.675781 84.972656 372.625 L 84.972656 372 C 80.671875 372.433594 76.402344 373.425781 72.585938 375.539062 C 68.515625 377.789062 65.226562 381.144531 62.65625 385.007812 Z M 62.65625 385.007812 " fill-opacity="1" fill-rule="nonzero"/></g></svg>