<svg xmlns="http://www.w3.org/2000/svg" preserveAspectRatio="none" viewBox="0 0 1440 844" fill="none" class="content_link_box_contour__aQmoT waves -z-10">
    <g opacity="0.48" clip-path="url(#clip0_1407_225121)">
        <path d="M-18.6118 497.649C22.1685 487.317 64.2861 483.263 106.288 485.629C142.252 487.72 157.412 493.474 213.379 504.508C268.768 515.433 323.576 526.239 384.076 529.294C443.453 532.282 491.426 534.738 549.44 515.96C610.283 496.268 650.318 463.561 691.282 430.112C738.035 391.915 741.243 378.711 798.812 322.771C828.1 294.31 881.007 242.905 948.865 197.165C1038.35 136.839 1119.99 109.211 1149.26 99.9864C1267.22 62.9668 1372.89 62.4325 1446.12 69.1996" stroke="rgba(0,0,0,0.2)" stroke-miterlimit="10"></path>
        <path d="M-18.6118 537.649C22.1685 527.317 64.2861 523.263 106.288 525.629C142.252 527.72 157.412 533.474 213.379 544.508C268.768 555.433 323.576 566.239 384.076 569.294C443.453 572.282 491.426 574.738 549.44 555.96C610.283 536.268 650.318 503.561 691.282 470.112C738.035 431.915 741.243 418.711 798.812 362.771C828.1 334.31 881.007 282.905 948.865 237.165C1038.35 176.839 1119.99 149.211 1149.26 139.986C1267.22 102.967 1372.89 102.433 1446.12 109.2" stroke="rgba(0,0,0,0.2)" stroke-miterlimit="10"></path>
        <path d="M-18.6118 577.649C22.1685 567.317 64.2861 563.263 106.288 565.629C142.252 567.72 157.412 573.474 213.379 584.508C268.768 595.433 323.576 606.239 384.076 609.294C443.453 612.282 491.426 614.738 549.44 595.96C610.283 576.268 650.318 543.561 691.282 510.112C738.035 471.915 741.243 458.711 798.812 402.771C828.1 374.31 881.007 322.905 948.865 277.165C1038.35 216.839 1119.99 189.211 1149.26 179.986C1267.22 142.967 1372.89 142.433 1446.12 149.2" stroke="rgba(0,0,0,0.2)" stroke-miterlimit="10"></path>
        <path d="M-18.6118 617.649C22.1685 607.317 64.2861 603.263 106.288 605.629C142.252 607.72 157.412 613.474 213.379 624.508C268.768 635.433 323.576 646.239 384.076 649.294C443.453 652.282 491.426 654.738 549.44 635.96C610.283 616.268 650.318 583.561 691.282 550.112C738.035 511.915 741.243 498.711 798.812 442.771C828.1 414.31 881.007 362.905 948.865 317.165C1038.35 256.839 1119.99 229.211 1149.26 219.986C1267.22 182.967 1372.89 182.433 1446.12 189.2" stroke="rgba(0,0,0,0.2)" stroke-miterlimit="10"></path>
    </g>
    <defs>
        <clipPath id="clip0_1407_225121">
            <rect width="1440" height="844" fill="white" transform="matrix(1 8.74228e-08 8.74228e-08 -1 0 844)"></rect>
        </clipPath>
    </defs>
</svg>