<svg xmlns="http://www.w3.org/2000/svg" version="1.1" xmlns:xlink="http://www.w3.org/1999/xlink" xmlns:svgjs="http://svgjs.dev/svgjs" width="2800" height="1000" preserveAspectRatio="none" viewBox="0 0 2800 1000"><g mask="url(&quot;#SvgjsMask1087&quot;)" fill="none"><rect width="2800" height="1000" x="0" y="0" fill="rgba(235, 235, 235, 1)"></rect><path d="M115 1000L1115 0L1575.5 0L575.5 1000z" fill="url(&quot;#SvgjsLinearGradient1088&quot;)"></path><path d="M703 1000L1703 0L2294 0L1294 1000z" fill="url(&quot;#SvgjsLinearGradient1088&quot;)"></path><path d="M1258 1000L2258 0L2687 0L1687 1000z" fill="url(&quot;#SvgjsLinearGradient1088&quot;)"></path><path d="M2749 1000L1749 0L1105.5 0L2105.5 1000z" fill="url(&quot;#SvgjsLinearGradient1089&quot;)"></path><path d="M2068 1000L1068 0L897 0L1897 1000z" fill="url(&quot;#SvgjsLinearGradient1089&quot;)"></path><path d="M1554 1000L554 0L408.5 0L1408.5 1000z" fill="url(&quot;#SvgjsLinearGradient1089&quot;)"></path><path d="M1956.9491838774388 1000L2800 156.94918387743894L2800 1000z" fill="url(&quot;#SvgjsLinearGradient1088&quot;)"></path><path d="M0 1000L843.0508161225611 1000L 0 156.94918387743894z" fill="url(&quot;#SvgjsLinearGradient1089&quot;)"></path></g><defs><mask id="SvgjsMask1087"><rect width="2800" height="1000" fill="#ffffff"></rect></mask><linearGradient x1="0%" y1="100%" x2="100%" y2="0%" id="SvgjsLinearGradient1088"><stop stop-color="rgba(200, 200, 200, 0.2)" offset="0"></stop><stop stop-opacity="0" stop-color="rgba(200, 200, 200, 0.2)" offset="0.66"></stop></linearGradient><linearGradient x1="100%" y1="100%" x2="0%" y2="0%" id="SvgjsLinearGradient1089"><stop stop-color="rgba(200, 200, 200, 0.2)" offset="0"></stop><stop stop-opacity="0" stop-color="rgba(200, 200, 200, 0.2)" offset="0.66"></stop></linearGradient></defs></svg>