<svg id="visual" viewBox="0 0 900 600" width="900" height="600" xmlns="http://www.w3.org/2000/svg" xmlns:xlink="http://www.w3.org/1999/xlink" version="1.1"><rect x="0" y="0" width="900" height="600" fill="#bf2026"></rect><path d="M0 513L37.5 508.5C75 504 150 495 225 498.7C300 502.3 375 518.7 450 535.7C525 552.7 600 570.3 675 572.2C750 574 825 560 862.5 553L900 546L900 601L862.5 601C825 601 750 601 675 601C600 601 525 601 450 601C375 601 300 601 225 601C150 601 75 601 37.5 601L0 601Z" fill="#ffffff" stroke-linecap="round" stroke-linejoin="miter"></path></svg>