<svg id="visual" viewBox="0 0 900 600" width="900" height="600" xmlns="http://www.w3.org/2000/svg" xmlns:xlink="http://www.w3.org/1999/xlink" version="1.1"><rect x="0" y="0" width="900" height="600" fill="#ffffff"></rect><defs><linearGradient id="grad1_0" x1="33.3%" y1="0%" x2="100%" y2="100%"><stop offset="20%" stop-color="#ffffff" stop-opacity="1"></stop><stop offset="80%" stop-color="#ffffff" stop-opacity="1"></stop></linearGradient></defs><defs><linearGradient id="grad2_0" x1="0%" y1="0%" x2="66.7%" y2="100%"><stop offset="20%" stop-color="#ffffff" stop-opacity="1"></stop><stop offset="80%" stop-color="#ffffff" stop-opacity="1"></stop></linearGradient></defs><g transform="translate(900, 0)"><path d="M0 243.4C-47.2 239.7 -94.4 236 -121.7 210.8C-148.9 185.5 -156.2 138.7 -173.2 100C-190.2 61.3 -216.8 30.6 -243.4 0L0 0Z" fill="#bf2026"></path></g><g transform="translate(0, 600)"><path d="M0 -243.4C35.4 -225.1 70.9 -206.8 109 -188.8C147.1 -170.8 187.9 -153.1 210.8 -121.7C233.6 -90.3 238.5 -45.1 243.4 0L0 0Z" fill="#bf2026"></path></g></svg>