<?xml version="1.0" encoding="UTF-8"?>
<svg id="Layer_1" data-name="Layer 1" xmlns="http://www.w3.org/2000/svg" viewBox="0 0 1920 1080">
  <defs>
    <style>
      .cls-1 {
        fill: #bf2026;
        opacity: .04;
      }
    </style>
  </defs>
  <path class="cls-1" d="M1923.22,479.77c-32.5-6.8-82.51-13.43-141.77-5.06-146.97,20.74-309.61,127.87-341.77,270.89-23.52,104.61,32.68,184.31-11.39,216.46-35.86,26.15-104.36-3.81-130.38-15.19-52.42-22.93-69.87-49.52-103.8-74.68-73.22-54.31-177-67.71-250.63-50.63-109.91,25.49-196.69,129.09-229.11,259.49h1210.13l-1.27-601.27Z"/>
  <path class="cls-1" d="M1219.22,1084.1c-186.03-271.16-350.11-342.05-473.42-349.37-158.32-9.4-285.59,83.86-379.75,8.86-80.33-63.98-41.82-174.97-131.65-245.57C166.68,444.8,72.02,450.71.23,465.11v616.46l1218.99,2.53Z"/>
  <path class="cls-1" d="M1.49,765.11c26.15-7.8,69.4-25.21,101.27-65.82,30.14-38.41,38.62-81.87,45.57-125.32,10.74-67.08-4.63-99.51,21.52-134.18,31.99-42.4,92.93-44.18,101.27-44.3,63.58-.96,93.61,41.63,137.97,62.03,129.8,59.66,401.73-61.77,427.85-246.84,2.93-20.79,11.96-107.56-70.89-212.66H-1.04L1.49,765.11Z"/>
  <path class="cls-1" d="M1921.68,748.66c-37.38-18.07-85.46-49.04-97.47-98.73-12.65-52.35,25.6-80.42,13.92-140.51-9.84-50.63-51.46-105.02-100-113.92-61.51-11.29-87.02,59.1-173.42,97.47-106.99,47.52-257.69,23.9-358.23-62.03-124.32-106.25-123.02-265.95-122.78-294.94.47-58.28,13.84-105.63,25.32-136.71h817.72l-5.06,749.37Z"/>
</svg>