<svg xmlns="http://www.w3.org/2000/svg" version="1.1" xmlns:xlink="http://www.w3.org/1999/xlink" xmlns:svgjs="http://svgjs.dev/svgjs" width="2800" height="1200" preserveAspectRatio="none" viewBox="0 0 2800 1200"><g mask="url(&quot;#SvgjsMask1263&quot;)" fill="none"><rect width="2800" height="1200" x="0" y="0" fill="rgba(235, 235, 235, 1)"></rect><path d="M2800 0L2199.2799999999997 0L2800 546.12z" fill="rgba(255, 255, 255, .1)"></path><path d="M2199.2799999999997 0L2800 546.12L2800 806.1L1665.2299999999998 0z" fill="rgba(255, 255, 255, .075)"></path><path d="M1665.23 0L2800 806.1L2800 884.59L1271.64 0z" fill="rgba(255, 255, 255, .05)"></path><path d="M1271.64 0L2800 884.59L2800 899.5300000000001L904.3600000000001 0z" fill="rgba(255, 255, 255, .025)"></path><path d="M0 1200L631.08 1200L0 1154.54z" fill="rgba(0, 0, 0, .1)"></path><path d="M0 1154.54L631.08 1200L1404.8600000000001 1200L0 589.0899999999999z" fill="rgba(0, 0, 0, .075)"></path><path d="M0 589.0899999999999L1404.8600000000001 1200L1693.3300000000002 1200L0 297.0199999999999z" fill="rgba(0, 0, 0, .05)"></path><path d="M0 297.02L1693.3300000000002 1200L2089.27 1200L0 269.34z" fill="rgba(0, 0, 0, .025)"></path></g><defs><mask id="SvgjsMask1263"><rect width="2800" height="1200" fill="#ffffff"></rect></mask></defs></svg>