<svg xmlns="http://www.w3.org/2000/svg" version="1.1" xmlns:xlink="http://www.w3.org/1999/xlink" xmlns:svgjs="http://svgjs.dev/svgjs" width="1440" height="1000" preserveAspectRatio="none" viewBox="0 0 1440 1000"><g mask="url(&quot;#SvgjsMask1081&quot;)" fill="none"><rect width="1440" height="1000" x="0" y="0" fill="rgba(191, 32, 38, 1)"></rect><path d="M0,586.765C115.187,579.829,242.644,589.541,331.763,516.233C418.991,444.481,401.946,307.137,458.671,209.468C524.476,96.165,672.9,30.935,689.13,-99.082C705.963,-233.926,645.889,-381.565,543.62,-471.049C443.872,-558.326,295.093,-538.985,164.006,-558.554C51.577,-575.338,-58.173,-600.14,-169.574,-577.515C-288.142,-553.435,-413.07,-518.005,-491.068,-425.513C-568.747,-333.399,-583.157,-204.665,-585.588,-84.195C-587.818,26.3,-541.161,126.117,-504.303,230.307C-463.626,345.291,-458.074,487.399,-358.475,557.798C-258.556,628.424,-122.138,594.12,0,586.765" fill="#991a1e"></path><path d="M1440 1636.2359999999999C1557.014 1644.176 1637.466 1523.246 1741.628 1469.342 1859.74 1408.218 2023.024 1411.2930000000001 2093.093 1298.258 2163.325 1184.96 2120.584 1036.337 2090.545 906.466 2062.424 784.888 2019.569 661.595 1926.584 578.373 1838.245 499.308 1710.493 499.558 1597.132 464.856 1482.181 429.66700000000003 1371.411 339.70500000000004 1255.916 373.06600000000003 1140.392 406.43499999999995 1097.463 544.149 1016.098 632.687 931.631 724.6 776.375 778.871 768.497 903.452 760.501 1029.902 903.542 1108.914 979.5740000000001 1210.269 1038.105 1288.2939999999999 1091.981 1363.88 1163.579 1430.1190000000001 1249.691 1509.786 1322.9569999999999 1628.2939999999999 1440 1636.2359999999999" fill="#dc2f36"></path></g><defs><mask id="SvgjsMask1081"><rect width="1440" height="1000" fill="#ffffff"></rect></mask></defs></svg>