<svg xmlns="http://www.w3.org/2000/svg" version="1.1" xmlns:xlink="http://www.w3.org/1999/xlink" xmlns:svgjs="http://svgjs.dev/svgjs" width="1440" height="1000" preserveAspectRatio="none" viewBox="0 0 1440 1000"><g mask="url(&quot;#SvgjsMask1222&quot;)" fill="none"><rect width="1440" height="1000" x="0" y="0" fill="rgba(163, 162, 162, 1)"></rect><path d="M0,538.274C103.172,518.72,205.147,511.626,300.412,467.45C407.794,417.655,526.726,370.207,584.826,267.081C644.35,161.427,622.574,32.723,613.458,-88.202C603.73,-217.243,608.312,-356.233,530.067,-459.305C450.19,-564.527,319.429,-620.981,189.775,-646.315C66.76,-670.351,-54.003,-628.584,-175.335,-597.136C-300.751,-564.63,-442.732,-554.986,-530.454,-459.641C-618.82,-363.595,-635.434,-222.456,-640.057,-92.026C-644.347,29.003,-597.959,140.291,-555.742,253.799C-510.2,376.248,-500.039,537.589,-383.745,597.118C-266.169,657.303,-129.775,562.87,0,538.274" fill="#989797"></path><path d="M1440 1660.454C1565.446 1675.545 1695.442 1630.344 1795.578 1553.29 1892.025 1479.075 1944.929 1362.92 1978.63 1245.984 2009.085 1140.311 2000.743 1030.194 1977.301 922.748 1955.182 821.3679999999999 1906.51 732.188 1847.856 646.591 1782.481 551.1859999999999 1727.467 431.43499999999995 1617.052 397.01599999999996 1506.45 362.539 1396.858 442.09000000000003 1284.682 471.03599999999994 1167.892 501.173 1017.129 474.34000000000003 944.427 570.5830000000001 871.117 667.631 957.264 807.718 939.467 928.034 921.56 1049.096 799.048 1158.647 840.405 1273.826 881.391 1387.973 1033.529 1408.151 1135.458 1473.876 1237.58 1539.726 1319.358 1645.94 1440 1660.454" fill="#aeadad"></path></g><defs><mask id="SvgjsMask1222"><rect width="1440" height="1000" fill="#ffffff"></rect></mask></defs></svg>