<svg id="visual" viewBox="0 0 900 600" width="900" height="600" xmlns="http://www.w3.org/2000/svg" xmlns:xlink="http://www.w3.org/1999/xlink" version="1.1"><rect x="0" y="0" width="900" height="600" fill="#ffffff"></rect><path d="M0 572L21.5 572.8C43 573.7 86 575.3 128.8 573.2C171.7 571 214.3 565 257.2 561C300 557 343 555 385.8 554.5C428.7 554 471.3 555 514.2 558.5C557 562 600 568 642.8 570.2C685.7 572.3 728.3 570.7 771.2 572C814 573.3 857 577.7 878.5 579.8L900 582L900 601L878.5 601C857 601 814 601 771.2 601C728.3 601 685.7 601 642.8 601C600 601 557 601 514.2 601C471.3 601 428.7 601 385.8 601C343 601 300 601 257.2 601C214.3 601 171.7 601 128.8 601C86 601 43 601 21.5 601L0 601Z" fill="#bf2026" stroke-linecap="round" stroke-linejoin="miter"></path></svg>