<?xml version="1.0" encoding="UTF-8"?><svg id="Layer_1" xmlns="http://www.w3.org/2000/svg" width="700" height="512" xmlns:xlink="http://www.w3.org/1999/xlink" viewBox="0 0 700 512"><defs><style>.cls-1{fill:url(#linear-gradient-38);}.cls-1,.cls-2,.cls-3,.cls-4,.cls-5,.cls-6,.cls-7,.cls-8,.cls-9,.cls-10,.cls-11,.cls-12,.cls-13,.cls-14,.cls-15,.cls-16,.cls-17,.cls-18,.cls-19,.cls-20,.cls-21,.cls-22,.cls-23,.cls-24,.cls-25,.cls-26,.cls-27,.cls-28,.cls-29,.cls-30,.cls-31,.cls-32,.cls-33,.cls-34,.cls-35,.cls-36,.cls-37,.cls-38,.cls-39,.cls-40,.cls-41,.cls-42,.cls-43,.cls-44,.cls-45,.cls-46,.cls-47,.cls-48,.cls-49,.cls-50,.cls-51,.cls-52,.cls-53,.cls-54,.cls-55,.cls-56,.cls-57,.cls-58,.cls-59,.cls-60,.cls-61,.cls-62,.cls-63,.cls-64,.cls-65,.cls-66{stroke-width:0px;}.cls-2{fill:url(#linear-gradient-12);}.cls-3{fill:url(#linear-gradient-17);}.cls-4{fill:url(#linear-gradient-19);}.cls-5{fill:url(#linear-gradient-33);}.cls-6{fill:url(#linear-gradient);}.cls-7{fill:url(#linear-gradient-57);}.cls-8{fill:url(#linear-gradient-21);}.cls-9{fill:url(#linear-gradient-6);}.cls-10{fill:url(#linear-gradient-42);}.cls-12{fill:url(#linear-gradient-15);}.cls-13{fill:url(#linear-gradient-11);}.cls-14{fill:url(#linear-gradient-5);}.cls-15{fill:url(#linear-gradient-31);}.cls-16{fill:url(#linear-gradient-58);}.cls-17{fill:url(#linear-gradient-34);}.cls-18{opacity:.2;}.cls-19{fill:url(#linear-gradient-41);}.cls-20{fill:url(#linear-gradient-40);}.cls-21{fill:url(#linear-gradient-13);}.cls-22{fill:url(#linear-gradient-23);}.cls-23{fill:url(#linear-gradient-25);}.cls-24{fill:url(#linear-gradient-43);}.cls-25{fill:url(#linear-gradient-16);}.cls-26{fill:url(#linear-gradient-22);}.cls-27{fill:url(#linear-gradient-54);}.cls-28{fill:url(#linear-gradient-55);}.cls-29{fill:url(#linear-gradient-35);}.cls-30{fill:url(#linear-gradient-50);}.cls-31{fill:url(#linear-gradient-32);}.cls-32{fill:url(#linear-gradient-60);}.cls-33{fill:url(#linear-gradient-59);}.cls-34{fill:url(#linear-gradient-20);}.cls-35{fill:url(#linear-gradient-14);}.cls-36{fill:url(#linear-gradient-2);}.cls-37{fill:url(#linear-gradient-52);}.cls-38{fill:url(#linear-gradient-45);}.cls-39{fill:url(#linear-gradient-7);}.cls-40{fill:url(#linear-gradient-39);}.cls-41{fill:url(#linear-gradient-3);}.cls-42{fill:url(#linear-gradient-9);}.cls-43{fill:url(#linear-gradient-27);}.cls-44{fill:url(#radial-gradient);}.cls-45{fill:url(#linear-gradient-53);}.cls-46{fill:url(#linear-gradient-36);}.cls-47{fill:url(#linear-gradient-48);}.cls-48{fill:url(#linear-gradient-49);}.cls-49{fill:url(#linear-gradient-8);}.cls-50{fill:#ebebeb;}.cls-51{fill:url(#linear-gradient-47);}.cls-52{fill:url(#linear-gradient-24);}.cls-53{fill:url(#linear-gradient-26);}.cls-54{fill:url(#linear-gradient-18);}.cls-55{fill:url(#linear-gradient-51);}.cls-56{fill:url(#linear-gradient-30);}.cls-57{fill:url(#linear-gradient-44);}.cls-58{fill:url(#linear-gradient-29);}.cls-59{fill:url(#linear-gradient-46);}.cls-60{fill:#1e1e1e;}.cls-61{fill:url(#linear-gradient-28);}.cls-62{fill:url(#linear-gradient-56);}.cls-63{fill:#103a44;}.cls-64{fill:url(#linear-gradient-10);}.cls-65{fill:url(#linear-gradient-4);}.cls-66{fill:url(#linear-gradient-37);}</style><linearGradient id="linear-gradient" x1="208.53" y1="338.8" x2="214.25" y2="338.8" gradientUnits="userSpaceOnUse"><stop offset="0" stop-color="#5a5b5b"/><stop offset="1" stop-color="#3a3a3a"/></linearGradient><linearGradient id="linear-gradient-2" x1="-2589.81" y1="405.67" x2="-2584.09" y2="405.67" gradientTransform="translate(-2262.11) rotate(-180) scale(1 -1)" xlink:href="#linear-gradient"/><linearGradient id="linear-gradient-3" x1="-2655.72" y1="442.96" x2="-2650" y2="442.96" gradientTransform="translate(-2262.11) rotate(-180) scale(1 -1)" xlink:href="#linear-gradient"/><linearGradient id="linear-gradient-4" x1="245.78" y1="437.84" x2="251.5" y2="437.84" gradientTransform="translate(212.86)" xlink:href="#linear-gradient"/><linearGradient id="linear-gradient-5" x1="283.01" y1="417.04" x2="288.73" y2="417.04" gradientTransform="translate(212.86)" xlink:href="#linear-gradient"/><linearGradient id="linear-gradient-6" x1="-2610.66" y1="381.48" x2="-2604.94" y2="381.48" gradientTransform="translate(-2321.84) rotate(-180) scale(1 -1)" xlink:href="#linear-gradient"/><linearGradient id="linear-gradient-7" x1="201.93" y1="329.12" x2="213.18" y2="329.12" gradientUnits="userSpaceOnUse"><stop offset="0" stop-color="#181819"/><stop offset="1" stop-color="#000"/></linearGradient><linearGradient id="linear-gradient-8" x1="197.76" y1="330.13" x2="250.91" y2="330.13" gradientUnits="userSpaceOnUse"><stop offset=".09" stop-color="#383839"/><stop offset=".87" stop-color="#242425"/></linearGradient><linearGradient id="linear-gradient-9" x1="197.76" y1="335.9" x2="240.9" y2="335.9" gradientUnits="userSpaceOnUse"><stop offset=".13" stop-color="#242425"/><stop offset="1" stop-color="#2f2f30"/></linearGradient><linearGradient id="linear-gradient-10" x1="223.82" y1="100.56" x2="282.18" y2="169.36" gradientUnits="userSpaceOnUse"><stop offset=".18" stop-color="#242425"/><stop offset=".82" stop-color="#0f0f0f"/></linearGradient><linearGradient id="linear-gradient-11" x1="226.29" y1="97" x2="285.68" y2="167.01" gradientUnits="userSpaceOnUse"><stop offset="0" stop-color="#383839"/><stop offset=".93" stop-color="#242425"/></linearGradient><linearGradient id="linear-gradient-12" x1="198.32" y1="122.94" x2="202.36" y2="122.94" gradientUnits="userSpaceOnUse"><stop offset=".18" stop-color="#0f0f0f"/><stop offset=".82" stop-color="#242425"/></linearGradient><linearGradient id="linear-gradient-13" x1="306.65" y1="182.16" x2="304.55" y2="185.75" xlink:href="#linear-gradient-8"/><linearGradient id="linear-gradient-14" x1="228.1" y1="273.23" x2="290.6" y2="273.23" xlink:href="#linear-gradient"/><linearGradient id="linear-gradient-15" x1="349.07" y1="206.69" x2="346.97" y2="210.27" xlink:href="#linear-gradient-8"/><linearGradient id="linear-gradient-16" x1="312.18" y1="392.75" x2="496.85" y2="392.75" gradientUnits="userSpaceOnUse"><stop offset=".44" stop-color="#383839"/><stop offset=".51" stop-color="#242425"/></linearGradient><linearGradient id="linear-gradient-17" x1="351.92" y1="380.31" x2="353.33" y2="383.59" gradientUnits="userSpaceOnUse"><stop offset=".09" stop-color="#666"/><stop offset="1" stop-color="#505050"/></linearGradient><linearGradient id="linear-gradient-18" x1="312.18" y1="353.56" x2="496.9" y2="353.56" gradientUnits="userSpaceOnUse"><stop offset=".44" stop-color="#383839"/><stop offset=".5" stop-color="#242425"/></linearGradient><linearGradient id="linear-gradient-19" y1="352.42" x2="353.33" y2="355.7" xlink:href="#linear-gradient-17"/><linearGradient id="linear-gradient-20" x1="312.18" y1="326.44" x2="496.8" y2="326.44" gradientUnits="userSpaceOnUse"><stop offset=".44" stop-color="#383839"/><stop offset=".5" stop-color="#242425"/></linearGradient><linearGradient id="linear-gradient-21" x1="351.92" y1="325.3" x2="353.33" y2="328.58" xlink:href="#linear-gradient-17"/><linearGradient id="linear-gradient-22" x1="312.18" y1="295.49" x2="496.8" y2="295.49" gradientUnits="userSpaceOnUse"><stop offset=".45" stop-color="#383839"/><stop offset=".51" stop-color="#242425"/></linearGradient><linearGradient id="linear-gradient-23" x1="312.48" y1="281.24" x2="496.1" y2="281.24" gradientUnits="userSpaceOnUse"><stop offset=".45" stop-color="#838484"/><stop offset=".48" stop-color="#505151"/></linearGradient><linearGradient id="linear-gradient-24" x1="312.18" y1="263.94" x2="496.78" y2="263.94" gradientUnits="userSpaceOnUse"><stop offset=".45" stop-color="#242425"/><stop offset=".53" stop-color="#000"/></linearGradient><linearGradient id="linear-gradient-25" x1="312.97" y1="229.22" x2="496.41" y2="229.22" xlink:href="#linear-gradient-7"/><linearGradient id="linear-gradient-26" x1="324.12" y1="213.09" x2="383.63" y2="213.09" gradientUnits="userSpaceOnUse"><stop offset="0" stop-color="#2b2b2c"/><stop offset=".29" stop-color="#2b2b2c"/><stop offset=".73" stop-color="#171718"/></linearGradient><linearGradient id="linear-gradient-27" x1="373.12" y1="224.12" x2="423.65" y2="224.12" gradientUnits="userSpaceOnUse"><stop offset="0" stop-color="#000"/><stop offset=".17" stop-color="#2b2b2c"/><stop offset=".48" stop-color="#2b2b2c"/><stop offset=".67" stop-color="#171718"/></linearGradient><linearGradient id="linear-gradient-28" x1="312.18" y1="196.12" x2="496.79" y2="196.12" gradientUnits="userSpaceOnUse"><stop offset=".44" stop-color="#383839"/><stop offset=".5" stop-color="#242425"/></linearGradient><linearGradient id="linear-gradient-29" x1="312.38" y1="183.25" x2="496.6" y2="183.25" xlink:href="#linear-gradient-24"/><linearGradient id="linear-gradient-30" x1="478.73" y1="159.14" x2="481.73" y2="163.33" xlink:href="#linear-gradient-11"/><linearGradient id="linear-gradient-31" x1="396.9" y1="110.08" x2="473.62" y2="162.92" xlink:href="#linear-gradient-11"/><linearGradient id="linear-gradient-32" x1="369.21" y1="106.76" x2="392.05" y2="148.31" xlink:href="#linear-gradient"/><linearGradient id="linear-gradient-33" x1="382.58" y1="127.84" x2="423.88" y2="156.29" gradientUnits="userSpaceOnUse"><stop offset="0" stop-color="#6a6b6b"/><stop offset="1" stop-color="#505151"/></linearGradient><linearGradient id="linear-gradient-34" x1="380.88" y1="175.73" x2="471.03" y2="175.73" xlink:href="#linear-gradient-7"/><linearGradient id="linear-gradient-35" x1="437.88" y1="181.75" x2="441.05" y2="187.6" xlink:href="#linear-gradient-11"/><linearGradient id="linear-gradient-36" x1="319.27" y1="154.91" x2="395.99" y2="207.76" xlink:href="#linear-gradient-11"/><linearGradient id="linear-gradient-37" x1="361.83" y1="170.23" x2="458.52" y2="170.23" xlink:href="#linear-gradient-7"/><linearGradient id="linear-gradient-38" x1="417.26" y1="135.84" x2="449.58" y2="135.84" xlink:href="#linear-gradient-11"/><linearGradient id="linear-gradient-39" x1="-172.74" y1="-709.43" x2="-128.08" y2="-709.43" gradientTransform="translate(-164.12 640.9) rotate(30) skewX(-30)" xlink:href="#linear-gradient-12"/><linearGradient id="linear-gradient-40" x1="359.64" y1="172.98" x2="385.26" y2="172.98" xlink:href="#linear-gradient-11"/><linearGradient id="linear-gradient-41" x1="275.93" y1="201.62" x2="277.57" y2="205.43" xlink:href="#linear-gradient-17"/><linearGradient id="linear-gradient-42" x1="309.18" y1="61.11" x2="324.11" y2="61.11" xlink:href="#linear-gradient"/><linearGradient id="linear-gradient-43" x1="317.32" y1="80.69" x2="357.32" y2="80.69" xlink:href="#linear-gradient"/><linearGradient id="linear-gradient-44" x1="233.71" y1="123.94" x2="274.92" y2="123.94" xlink:href="#linear-gradient-9"/><linearGradient id="linear-gradient-45" x1="248.46" y1="50.74" x2="306.82" y2="119.55" xlink:href="#linear-gradient-10"/><linearGradient id="linear-gradient-46" x1="250.93" y1="47.18" x2="310.32" y2="117.2" xlink:href="#linear-gradient-11"/><linearGradient id="linear-gradient-47" x1="222.96" y1="73.12" x2="227" y2="73.12" xlink:href="#linear-gradient-12"/><linearGradient id="linear-gradient-48" x1="233.71" y1="104.68" x2="248.64" y2="104.68" xlink:href="#linear-gradient"/><linearGradient id="linear-gradient-49" x1="241.85" y1="124.26" x2="281.86" y2="124.26" xlink:href="#linear-gradient"/><linearGradient id="linear-gradient-50" x1="-2.21" y1="-388.12" x2="22.76" y2="-388.12" gradientTransform="translate(79.62 640.9) rotate(30) skewX(-30)" xlink:href="#linear-gradient"/><linearGradient id="linear-gradient-51" x1="443.83" y1="408" x2="498.81" y2="408" xlink:href="#linear-gradient"/><linearGradient id="linear-gradient-52" x1="454.8" y1="416.55" x2="509.45" y2="416.55" gradientUnits="userSpaceOnUse"><stop offset="0" stop-color="#383839"/><stop offset=".9" stop-color="#242425"/></linearGradient><linearGradient id="linear-gradient-53" x1="443.83" y1="429.22" x2="465.45" y2="429.22" xlink:href="#linear-gradient"/><linearGradient id="linear-gradient-54" x1="465.45" y1="425.06" x2="509.45" y2="425.06" gradientUnits="userSpaceOnUse"><stop offset=".1" stop-color="#242425"/><stop offset=".88" stop-color="#000"/></linearGradient><linearGradient id="linear-gradient-55" x1="368.64" y1="222.82" x2="364.19" y2="224.03" gradientUnits="userSpaceOnUse"><stop offset="0" stop-color="#171717"/><stop offset="1" stop-color="#000"/></linearGradient><linearGradient id="linear-gradient-56" x1="-189.3" y1="-575.57" x2="-114.36" y2="-575.57" gradientTransform="translate(-83.82 631.06) rotate(30) skewX(-30)" gradientUnits="userSpaceOnUse"><stop offset="0" stop-color="#323233"/><stop offset=".93" stop-color="#242425"/></linearGradient><radialGradient id="radial-gradient" cx="350" cy="256" fx="350" fy="256" r="246.3" gradientUnits="userSpaceOnUse"><stop offset="0" stop-color="#fff" stop-opacity="0"/><stop offset=".36" stop-color="#fff" stop-opacity="0"/><stop offset=".56" stop-color="#fff" stop-opacity=".04"/><stop offset=".71" stop-color="#fff" stop-opacity=".09"/><stop offset=".85" stop-color="#fff" stop-opacity=".17"/><stop offset=".97" stop-color="#fff" stop-opacity=".27"/><stop offset="1" stop-color="#fff" stop-opacity=".3"/></radialGradient><linearGradient id="linear-gradient-57" x1="151.99" y1="367.49" x2="290.85" y2="367.49" gradientUnits="userSpaceOnUse"><stop offset=".61" stop-color="#9e9e9e"/><stop offset=".75" stop-color="#6d7678"/></linearGradient><linearGradient id="linear-gradient-58" x1="151.98" y1="312.03" x2="290.86" y2="312.03" gradientUnits="userSpaceOnUse"><stop offset="0" stop-color="#ebebeb"/><stop offset="1" stop-color="#838484"/></linearGradient><linearGradient id="linear-gradient-59" x1="214.81" y1="232.63" x2="230.51" y2="337.85" gradientUnits="userSpaceOnUse"><stop offset="0" stop-color="#242425"/><stop offset=".8" stop-color="#000"/></linearGradient><linearGradient id="linear-gradient-60" x1="196.41" y1="356.56" x2="202.54" y2="389.22" xlink:href="#linear-gradient-59"/></defs><path class="cls-18" d="m414.3,469.18l-216.62-124.93c-4.97-2.87-4.34-7.87,1.39-11.18l75.93-44.19c5.73-3.31,14.41-3.67,19.37-.8l216.62,124.93c4.97,2.87,4.34,7.87-1.39,11.18l-75.93,44.19c-5.73,3.31-14.41,3.67-19.37.8Z"/><path class="cls-11" d="m214.21,346.39c-1.11,0-2.27-.32-3.39-.97-3.04-1.75-5.32-5.71-5.31-9.21,0-2.38,1.04-4.34,2.84-5.37,1.8-1.04,4.02-.94,6.09.25h0c3.04,1.75,5.32,5.71,5.31,9.21,0,2.38-1.04,4.34-2.84,5.37-.83.48-1.75.72-2.71.72Z"/><path class="cls-6" d="m211.4,335.52c-1.58-.91-2.86-.18-2.87,1.64,0,1.82,1.27,4.03,2.85,4.94s2.86.18,2.87-1.64c0-1.82-1.27-4.03-2.85-4.94h0Z"/><path class="cls-11" d="m322.03,413.25c1.11,0,2.27-.32,3.39-.97,3.04-1.75,5.32-5.71,5.31-9.21,0-2.38-1.04-4.34-2.84-5.37-1.8-1.04-4.02-.94-6.09.25h0c-3.04,1.75-5.32,5.71-5.31,9.21,0,2.38,1.04,4.34,2.84,5.37.83.48,1.75.72,2.71.72Z"/><path class="cls-36" d="m324.84,402.38c1.58-.91,2.86-.18,2.87,1.64,0,1.82-1.27,4.03-2.85,4.94-1.58.91-2.86.18-2.87-1.64,0-1.82,1.27-4.03,2.85-4.94h0Z"/><path class="cls-11" d="m387.94,450.54c1.11,0,2.27-.32,3.39-.97,3.04-1.75,5.32-5.71,5.31-9.21,0-2.38-1.04-4.34-2.84-5.37-1.8-1.04-4.02-.94-6.09.25h0c-3.04,1.75-5.32,5.71-5.31,9.21,0,2.38,1.04,4.34,2.84,5.37.83.48,1.75.72,2.71.72Z"/><path class="cls-41" d="m390.75,439.67c1.58-.91,2.86-.18,2.87,1.64,0,1.82-1.27,4.03-2.85,4.94-1.58.91-2.86.18-2.87-1.64,0-1.82,1.27-4.03,2.85-4.94h0Z"/><path class="cls-11" d="m464.32,445.42c-1.11,0-2.27-.32-3.39-.97-3.04-1.75-5.32-5.71-5.31-9.21,0-2.38,1.04-4.34,2.84-5.37,1.8-1.04,4.02-.94,6.09.25h0c3.04,1.75,5.32,5.71,5.31,9.21,0,2.38-1.04,4.34-2.84,5.37-.83.48-1.75.72-2.71.72Z"/><path class="cls-65" d="m461.51,434.55c-1.58-.91-2.86-.18-2.87,1.64,0,1.82,1.27,4.03,2.85,4.94,1.58.91,2.86.18,2.87-1.64,0-1.82-1.27-4.03-2.85-4.94h0Z"/><path class="cls-11" d="m501.55,424.62c-1.11,0-2.27-.32-3.39-.97-3.04-1.75-5.32-5.71-5.31-9.21,0-2.38,1.04-4.34,2.84-5.37,1.8-1.04,4.02-.94,6.09.25h0c3.04,1.75,5.32,5.71,5.31,9.21,0,2.38-1.04,4.34-2.84,5.37-.83.48-1.75.72-2.71.72Z"/><path class="cls-14" d="m498.74,413.75c-1.58-.91-2.86-.18-2.87,1.64s1.27,4.03,2.85,4.94,2.86.18,2.87-1.64c0-1.82-1.27-4.03-2.85-4.94h0Z"/><path class="cls-11" d="m283.14,389.06c1.11,0,2.27-.32,3.39-.97,3.04-1.75,5.32-5.71,5.31-9.21,0-2.38-1.04-4.34-2.84-5.37-1.8-1.04-4.02-.94-6.09.25h0c-3.04,1.75-5.32,5.71-5.31,9.21,0,2.38,1.04,4.34,2.84,5.37.83.48,1.75.72,2.71.72Z"/><path class="cls-9" d="m285.95,378.2c1.58-.91,2.86-.18,2.87,1.64,0,1.82-1.27,4.03-2.85,4.94-1.58.91-2.86.18-2.87-1.64,0-1.82,1.27-4.03,2.85-4.94h0Z"/><polygon class="cls-39" points="203.1 333.68 213.18 327.93 205.51 324.56 201.93 328.45 203.1 333.68"/><path class="cls-49" d="m250.91,331.93c-15.32-10.88-43.14-15.98-43.14-15.98l-10.01,5.77,23.51,13.16,2.19-.99,18.07,10.43,9.38-12.39Z"/><path class="cls-42" d="m240.9,337.7l-9.39,12.39-20.04-11.57-.9-3.95-7.48-4.19v3.31l-5.34-3.08v-8.88s27.82,5.1,43.14,15.98Z"/><path class="cls-64" d="m309.69,159.09l-52.47,30.36-23.01-17.88-1.02-1.05-11.66-12.16c-7.77-11.78-15.85-21.48-23.23-29.27l1.59-8.73,23.19-19.22s24.51,23.88,41.19,51.46c.78,1.29,1.55,2.6,2.29,3.9l8.13-4.73s-.89-1.4-2.45-3.76c-7.24-10.93-28.86-42.46-42.52-50.71l2.46-3.56,3.56,1.44,20.02-7.08,10.52,2.45c5.83,6.19,12.07,13.56,18.25,22.18,1.53,2.13,3.04,4.32,4.55,6.6,4.93,7.45,9.05,14.68,12.49,21.49,2.98,5.88,5.91,12.71,8.11,18.25Z"/><path class="cls-13" d="m312.84,157.26l-55.62,32.19-20.24-21.11-12.98-13.54c-7.77-11.78-15.85-21.48-23.23-29.27l1.59-8.73,23.19-19.22s26.87,26.17,43.48,55.37l8.13-4.73s-28.37-44.43-44.97-54.47l26.04-9.2,10.52,2.45c7.27,7.71,15.17,17.25,22.8,28.79,4.93,7.45,9.05,14.68,12.49,21.49,3.3,6.52,6.53,14.19,8.8,19.99Z"/><polygon class="cls-2" points="199.91 120.35 202.36 116.8 200.76 125.53 198.32 129.08 199.91 120.35"/><path class="cls-11" d="m240.58,100.37l75.47-43.57.8,16.36,3.46,19.16s-14.34,15.32-14.83,15.57-38.19,4.57-39.3,4.82c-1.11.25-10.41.19-10.75.39s-14.85-12.72-14.85-12.72Z"/><path class="cls-21" d="m408.42,107.09l-18.05,42.84-49.8,118.19-37.82,89.76-12.14,28.8-62.5-36.09v-210.62c0-1.25.67-2.41,1.76-3.04l5.87-3.39,108.37-62.57c.63-.37,1.35-.29,1.88.08l62.43,36.06Z"/><path class="cls-11" d="m409.24,108.58v209.6l-118.64,68.5v-210.61c0-1.26.67-2.43,1.76-3.04l114.24-65.96c1.17-.68,2.64.16,2.64,1.52Z"/><polygon class="cls-35" points="290.6 195.85 290.6 386.68 228.1 350.59 228.1 159.77 290.6 195.85"/><polygon class="cls-11" points="290.6 287.37 290.6 288.31 228.1 252.23 228.1 251.28 290.6 287.37"/><polygon class="cls-11" points="290.6 194.89 290.6 195.84 228.1 159.75 228.1 158.81 290.6 194.89"/><path class="cls-12" d="m429.05,118.99l-18.05,42.84-87.63,207.95-12.14,28.8-18.87-10.9v-210.62c0-1.25.67-2.41,1.76-3.04l114.24-65.96c.63-.37,1.35-.29,1.88.08l18.81,10.86Z"/><polygon class="cls-11" points="322.81 237.4 322.81 238.57 292.35 220.98 292.35 219.81 322.81 237.4"/><path class="cls-11" d="m311.22,398.58l118.64-68.5V120.48c0-1.35-1.47-2.2-2.64-1.52l-114.25,65.96c-1.09.63-1.76,1.79-1.76,3.04v210.62Z"/><path class="cls-25" d="m496.85,346.67l-57.51-8.02-3.17-1.83c-3.01-1.74-8.27-1.52-11.74.49l-4.98,2.88-107.26,8.24.05,48.79c-.07,1.16.58,2.29,2.02,3.11l83.73,48.34c3.01,1.74,8.27,1.52,11.74-.49l84.25-48.74c1.85-1.07,2.81-2.43,2.86-3.73v-49.04Z"/><path class="cls-60" d="m397.98,399.79l-83.77-48.37c-3.01-1.74-2.63-4.77.84-6.78l84.25-48.74c3.48-2.01,8.73-2.22,11.74-.49l83.77,48.37c3.01,1.74,2.63,4.77-.84,6.78l-84.25,48.74c-3.48,2.01-8.73,2.22-11.74.49Z"/><path class="cls-3" d="m364.46,389.72v5.37c0,.31-.08.57-.22.75-.31.41-.93.44-1.65.04l-15.82-9.13c-1.02-.6-1.85-1.9-1.85-2.93v-5.37c0-.64.31-1.01.79-1.06.3-.04.67.05,1.06.28l15.82,9.12c1.03.6,1.86,1.9,1.86,2.93Z"/><path class="cls-11" d="m364.46,389.72v5.37c0,.31-.08.57-.22.75-.3.03-.66-.05-1.06-.28l-15.82-9.13c-1.03-.58-1.85-1.9-1.85-2.92v-5.37c0-.31.08-.56.21-.75.3-.04.67.05,1.06.28l15.82,9.12c1.03.6,1.86,1.9,1.86,2.93Z"/><path class="cls-11" d="m496.05,342.15v4.28c-.06,1.28-1.01,2.64-2.85,3.7l-83.47,48.29c-3.45,2-8.66,2.21-11.65.49l-83.1-47.99c-1.42-.81-2.07-1.93-2-3.09h-.03s0-4.13,0-4.13c.22.19.45.35.71.5l84.24,48.64c3.03,1.75,8.32,1.53,11.81-.49l84.8-49.05c.61-.36,1.12-.74,1.54-1.14Z"/><path class="cls-11" d="m389.67,409.15l-6.79-3.92c-1.13-.65-2.04-2.09-2.04-3.22v-2.05c0-1.13.91-1.51,2.04-.86l6.79,3.92c1.13.65,2.04,2.09,2.04,3.22v2.05c0,1.13-.91,1.51-2.04.86Z"/><path class="cls-54" d="m496.9,319.48l-57.56-8.04-3.17-1.83c-3.01-1.74-8.27-1.52-11.74.49l-4.98,2.88-107.26,8.24.05,24.87c-.07,1.16.58,2.29,2.02,3.11l83.73,48.34c3.01,1.74,8.27,1.52,11.74-.49l84.3-48.71c1.85-1.07,2.81-2.43,2.86-3.73v-25.12Z"/><path class="cls-60" d="m397.98,372.56l-83.77-48.37c-3.01-1.74-2.63-4.77.84-6.78l84.3-48.71c3.48-2.01,8.73-2.22,11.74-.49l83.77,48.37c3.01,1.74,2.63,4.77-.84,6.78l-84.3,48.71c-3.48,2.01-8.73,2.22-11.74.49Z"/><path class="cls-4" d="m364.46,361.83v5.37c0,.31-.08.57-.22.75-.31.41-.93.44-1.65.04l-15.82-9.13c-1.02-.6-1.85-1.9-1.85-2.93v-5.37c0-.64.31-1.01.79-1.06.3-.04.67.05,1.06.28l15.82,9.12c1.03.6,1.86,1.9,1.86,2.93Z"/><path class="cls-11" d="m364.46,361.83v5.37c0,.31-.08.57-.22.75-.3.03-.66-.05-1.06-.28l-15.82-9.13c-1.03-.58-1.85-1.9-1.85-2.92v-5.37c0-.31.08-.56.21-.75.3-.04.67.05,1.06.28l15.82,9.12c1.03.6,1.86,1.9,1.86,2.93Z"/><path class="cls-11" d="m389.67,381.68l-6.79-3.92c-1.13-.65-2.04-2.09-2.04-3.22v-2.05c0-1.13.91-1.51,2.04-.86l6.79,3.92c1.13.65,2.04,2.09,2.04,3.22v2.05c0,1.13-.91,1.51-2.04.86Z"/><path class="cls-11" d="m496.1,314.96v4.28c-.06,1.28-1.01,2.64-2.85,3.7l-83.52,48.26c-3.45,2-8.66,2.21-11.65.49l-83.1-47.99c-1.42-.81-2.07-1.93-2-3.09h-.03s0-4.13,0-4.13c.22.19.45.35.71.5l84.24,48.64c3.03,1.75,8.32,1.53,11.81-.49l84.85-49.03c.61-.36,1.12-.74,1.54-1.14Z"/><path class="cls-34" d="m496.8,292.4l-57.47-8.08-3.17-1.83c-3.01-1.74-8.27-1.52-11.74.49l-4.98,2.88-107.26,8.24.05,24.87c-.07,1.16.58,2.29,2.02,3.11l83.73,48.34c3.01,1.74,8.27,1.52,11.74-.49l84.2-48.67c1.85-1.07,2.81-2.43,2.86-3.73v-25.12Z"/><path class="cls-60" d="m397.98,345.45l-83.77-48.37c-3.01-1.74-2.63-4.77.84-6.78l84.2-48.67c3.48-2.01,8.73-2.22,11.74-.49l83.77,48.37c3.01,1.74,2.63,4.77-.84,6.78l-84.2,48.67c-3.48,2.01-8.73,2.22-11.74.49Z"/><path class="cls-8" d="m364.46,334.71v5.37c0,.31-.08.57-.22.75-.31.41-.93.44-1.65.04l-15.82-9.13c-1.02-.6-1.85-1.9-1.85-2.93v-5.37c0-.64.31-1.01.79-1.06.3-.04.67.05,1.06.28l15.82,9.12c1.03.6,1.86,1.9,1.86,2.93Z"/><path class="cls-11" d="m364.46,334.71v5.37c0,.31-.08.57-.22.75-.3.03-.66-.05-1.06-.28l-15.82-9.13c-1.03-.58-1.85-1.9-1.85-2.92v-5.37c0-.31.08-.56.21-.75.3-.04.67.05,1.06.28l15.82,9.12c1.03.6,1.86,1.9,1.86,2.93Z"/><path class="cls-11" d="m389.67,354.57l-6.79-3.92c-1.13-.65-2.04-2.09-2.04-3.22v-2.05c0-1.13.91-1.51,2.04-.86l6.79,3.92c1.13.65,2.04,2.09,2.04,3.22v2.05c0,1.13-.91,1.51-2.04.86Z"/><path class="cls-11" d="m496.01,287.87v4.28c-.06,1.28-1.01,2.64-2.85,3.7l-83.42,48.22c-3.45,2-8.66,2.21-11.65.49l-83.1-47.99c-1.42-.81-2.07-1.93-2-3.09h-.03s0-4.13,0-4.13c.22.19.45.35.71.5l84.24,48.64c3.03,1.75,8.32,1.53,11.81-.49l84.75-48.99c.61-.36,1.12-.74,1.54-1.14Z"/><path class="cls-26" d="m496.8,257.28l-57.47-7.97-3.17-1.83c-3.01-1.74-8.27-1.52-11.74.49l-4.98,2.88-107.26,8.24.05,32.97c-.07,1.16.58,2.29,2.02,3.11l83.73,48.34c3.01,1.74,8.27,1.52,11.74-.49l84.2-48.78c1.85-1.07,2.81-2.43,2.86-3.73v-33.21Z"/><path class="cls-60" d="m397.98,310.44l-83.77-48.37c-3.01-1.74-2.63-4.77.84-6.78l84.2-48.78c3.48-2.01,8.73-2.22,11.74-.49l83.77,48.37c3.01,1.74,2.63,4.77-.84,6.78l-84.2,48.78c-3.48,2.01-8.73,2.22-11.74.49Z"/><path class="cls-22" d="m496.1,252.29v4.3c-.06,1.29-1.02,2.65-2.86,3.72l-83.55,48.23c-3.46,2-8.7,2.22-11.71.49l-83.49-48.21c-1.43-.82-2.08-1.94-2.01-3.11,0,0,.02-4.11.04-4.09.2.16.41.31.65.44l84.63,48.87c3.04,1.76,8.36,1.53,11.87-.49l84.88-49c.61-.36,1.13-.74,1.54-1.15Z"/><path class="cls-52" d="m496.78,229.8l-57.44-8.04-3.17-1.83c-3.01-1.74-8.27-1.52-11.74.49l-4.98,2.88-107.26,8.24.05,24.98c-.07,1.16.58,2.29,2.02,3.11l83.73,48.34c3.01,1.74,8.27,1.52,11.74-.49l84.18-48.71c1.85-1.07,2.81-2.43,2.86-3.73v-25.23Z"/><path class="cls-60" d="m397.98,282.89l-83.77-48.37c-3.01-1.74-2.63-4.77.84-6.78l84.18-48.71c3.48-2.01,8.73-2.22,11.74-.49l83.77,48.37c3.01,1.74,2.63,4.77-.84,6.78l-84.18,48.71c-3.48,2.01-8.73,2.22-11.74.49Z"/><path class="cls-11" d="m496.41,228.2l-57.31-7.76-3.14-1.82c-2.99-1.72-8.2-1.51-11.65.48l-4.94,2.85-106.4,8.17.05.96c-.07,1.16.58,2.27,2,3.09l83.06,47.95c2.99,1.72,8.2,1.51,11.65-.48l83.83-48.53c1.84-1.06,2.79-2.41,2.84-3.7v-1.21Z"/><path class="cls-23" d="m398.09,281.08l-83.1-47.98c-2.99-1.72-2.61-4.73.84-6.72l83.83-48.53c3.45-1.99,8.66-2.21,11.65-.48l83.1,47.98c2.99,1.72,2.61,4.73-.84,6.72l-83.83,48.53c-3.45,1.99-8.66,2.21-11.65.48Z"/><path class="cls-53" d="m324.12,178.23v15.06c0,3.06,1.43,5.95,3.87,7.8l28.35,21.32c1.51,1.14,2.8,2.54,3.81,4.13l15.24,21.4,8.24-36.37-33.38-23.87-26.12-9.48Z"/><path class="cls-60" d="m374.3,252.81l-7.22-8.33c-.44-.51-.68-1.16-.68-1.83v-29.45l12.64,2.67-4.74,36.93Z"/><path class="cls-43" d="m491.67,167.79l-74.73,14.27-44.05,18.22.05,52.59c-.02.28.07.84.07.84l5.04,14.4h0c.13.96.78,1.88,1.99,2.58l17.91,10.42c3.01,1.74,8.27,1.52,11.74-.49l84.19-48.59c1.85-1.07,2.81-2.43,2.86-3.73v-62.34s-5.1,1.82-5.1,1.82Z"/><path class="cls-61" d="m496.79,164.99l-57.45-8.17-3.17-1.83c-3.01-1.74-8.27-1.52-11.74.49l-4.98,2.88-107.26,8.24.05,19.21c-.07,1.16.58,2.29,2.02,3.11l83.73,48.34c3.01,1.74,8.27,1.52,11.74-.49l84.19-48.59c1.85-1.07,2.81-2.43,2.86-3.73v-19.46Z"/><path class="cls-60" d="m397.98,217.95l-83.77-48.37c-3.01-1.74-2.63-4.77.84-6.78l84.19-48.59c3.48-2.01,8.73-2.22,11.74-.49l83.77,48.37c3.01,1.74,2.63,4.77-.84,6.78l-84.19,48.59c-3.48,2.01-8.73,2.22-11.74.49Z"/><path class="cls-58" d="m496.6,158.86l-57.33-8.03-3.16-1.83c-3-1.73-8.25-1.52-11.72.49l-4.97,2.87-107.04,8.22.05,5.57c-.07,1.16.58,2.28,2.01,3.11l83.56,48.24c3,1.73,8.25,1.52,11.72-.49l84.01-48.61c1.85-1.07,2.81-2.42,2.86-3.72v-5.82Z"/><path class="cls-60" d="m398.01,211.84l-83.6-48.27c-3-1.73-2.63-4.76.84-6.77l84.01-48.61c3.47-2,8.71-2.22,11.72-.49l83.6,48.27c3,1.73,2.63,4.76-.84,6.77l-84.01,48.61c-3.47,2-8.71,2.22-11.72.49Z"/><path class="cls-56" d="m496.77,153.99v9.79l-15.69,9.04-41.62-36.82,4.6-2.65,11.07-6.39,39.88,23.71c.96.55,1.74,2.04,1.74,3.32Z"/><polygon class="cls-63" points="455.14 122.06 455.14 126.96 444.07 133.35 439.83 130.9 455.14 122.06"/><path class="cls-15" d="m389.81,120.12l91.27,52.7v-9.78c0-1.28-.78-2.77-1.74-3.32l-39.89-23.72v-4.89l-10.03-13.55s-21.83-14.34-37.78-17.24c-1.09-.2-1.84.71-1.84,2.23v17.57Z"/><polygon class="cls-11" points="439.46 136 455.14 126.96 455.14 122.06 439.46 131.1 439.46 136"/><path class="cls-31" d="m455.14,122.06l-15.31,8.84-8.84,5.1-6.94-8.37-66.82,36.33,6.28,11.01-1.68.97-24.53-9.61-24.37-20.93,93.42-53.95.04-.02c.27-.16.6-.21.95-.15,15.95,2.91,37.77,17.24,37.77,17.24l10.03,13.54Z"/><polygon class="cls-11" points="429.88 122.64 356.49 164.56 361.83 187.17 439.46 142.29 439.46 131.1 429.88 122.64"/><polygon class="cls-5" points="455.14 122.06 432.34 135.22 423.96 128.63 360.86 165.09 361.44 166.69 365.9 173.58 361.83 175.93 351.79 162.39 445.11 108.52 455.14 122.06"/><polygon class="cls-17" points="380.88 198.17 458.52 153.3 471.03 154.77 393.12 195.87 380.88 198.17"/><path class="cls-29" d="m479.35,159.72l-8.32-4.95-11.04,5.82-66.87,35.28,10.33,21.77,77.63-44.88v-9.72c0-1.28-.77-2.77-1.73-3.33Z"/><path class="cls-46" d="m312.18,164.95l91.27,52.7v-13.49c0-1.28-.78-2.77-1.74-3.32l-8.59-4.96-12.24,2.3-19.06-11v-11.23l-10.03-13.55s-21.83-14.34-37.78-17.24c-1.09-.2-1.84.71-1.84,2.23v17.57Z"/><polygon class="cls-66" points="361.83 187.17 439.46 142.29 458.52 153.3 380.88 198.17 361.83 187.17"/><path class="cls-11" d="m450.75,141.26l-1.05-5.43c-.11-.56-.46-1.1-.85-1.31l-9.02-5c-.29-.16-.57-.2-.8-.08-2.02.96-13.86-1.49-13.86-1.49l-1.21.68,3.46,1.69,18.02,10.44,3.83,2.22,1.1-.62.04-.02c.3-.1.45-.52.34-1.07Z"/><path class="cls-1" d="m423.96,128.63s11.53,2.59,13.86,1.49c.23-.11.51-.07.8.09l9.02,5c.39.22.74.75.84,1.32l1.06,5.43c.14.74-.17,1.24-.68,1.07l-31.6-10.52,6.7-3.87Z"/><path class="cls-11" d="m470.34,145.44l-.69-.04c-.21-.17-.45-.31-.75-.38l-51.26-11.37-57.26,32.76,4.66,5.84,42.27,9.37c2.14.47,4.37.13,6.27-.96l55.85-32.24c.62-.36.9-.97.9-1.57l.02-1.4Z"/><path class="cls-40" d="m407.31,180.26l-42.27-9.37-5.1-5.28,57.7-33.31,51.26,11.37c1.64.36,1.98,2.55.52,3.39l-55.85,32.24c-1.9,1.09-4.13,1.44-6.27.96Z"/><path class="cls-11" d="m386.43,178.41l-1.05-5.43c-.11-.56-.46-1.1-.85-1.31l-9.02-5c-.29-.16-.57-.2-.8-.08-2.02.96-13.86-1.49-13.86-1.49l-1.21.68,3.46,1.69,18.02,10.44,3.83,2.22,1.1-.62.04-.02c.3-.1.45-.52.34-1.07Z"/><path class="cls-20" d="m359.64,165.77s11.53,2.59,13.86,1.49c.23-.11.51-.07.8.09l9.02,5c.39.22.74.75.84,1.32l1.06,5.43c.14.74-.17,1.24-.68,1.07l-18.92-6.42-5.98-7.96Z"/><path class="cls-19" d="m283.48,201.42v20.49c0,.31-.08.57-.22.75-.31.41-.93.44-1.65.04l-4.94-2.96c-1.02-.6-1.85-1.9-1.85-2.93v-20.49c0-.64.31-1.01.79-1.06.3-.04.67.05,1.06.28l4.94,2.94c1.03.6,1.86,1.9,1.86,2.93Z"/><path class="cls-11" d="m283.48,201.42v20.49c0,.31-.08.57-.22.75-.3.03-.66-.05-1.06-.28l-4.94-2.96c-1.03-.58-1.85-1.9-1.85-2.92v-20.49c0-.31.08-.56.21-.75.3-.04.67.05,1.06.28l4.94,2.94c1.03.6,1.86,1.9,1.86,2.93Z"/><polygon class="cls-10" points="324.11 61.41 317.32 65.41 309.18 60.77 316.05 56.81 324.11 61.41"/><path class="cls-11" d="m350.38,99.98h.01s0,0,0,0h-.01Z"/><polygon class="cls-11" points="350.38 99.97 350.38 99.98 344.98 103.11 334.33 109.27 281.86 139.63 258.84 121.75 257.63 120.82 257.83 120.7 261.62 118.52 288.92 102.79 296.88 98.2 309.18 91.13 309.18 60.77 317.32 65.41 333.24 77.24 340.75 86.5 350.38 99.97"/><polygon class="cls-24" points="350.39 99.98 357.32 96.07 324.11 61.41 317.32 65.41 350.39 99.98"/><polygon class="cls-57" points="274.92 143.55 247.51 127.72 246.65 127.22 241.84 130 235.73 133.53 233.71 134.69 233.71 104.33 241.85 108.98 256.07 121.78 265.28 130.07 274.92 143.55"/><path class="cls-38" d="m334.33,109.27l-52.47,30.36-23.01-17.88-1.02-1.05-11.66-12.16c-7.77-11.78-15.85-21.48-23.23-29.27l1.59-8.73,23.19-19.22s24.51,23.88,41.19,51.46c.78,1.29,1.55,2.6,2.29,3.9l8.13-4.73s-.89-1.4-2.45-3.76c-7.24-10.93-28.86-42.46-42.52-50.71l2.46-3.56,3.56,1.44,20.02-7.08,10.52,2.45c5.83,6.19,12.07,13.56,18.25,22.18,1.53,2.13,3.04,4.32,4.55,6.6,4.93,7.45,9.05,14.68,12.49,21.49,2.98,5.88,5.91,12.71,8.11,18.25Z"/><path class="cls-59" d="m337.48,107.44l-55.62,32.19-20.24-21.11-12.98-13.54c-7.77-11.78-15.85-21.48-23.23-29.27l1.59-8.73,23.19-19.22s26.87,26.17,43.48,55.37l8.13-4.73s-28.37-44.43-44.97-54.47l26.04-9.2,10.52,2.45c7.27,7.71,15.17,17.25,22.8,28.79,4.93,7.45,9.05,14.68,12.49,21.49,3.3,6.52,6.53,14.19,8.8,19.99Z"/><polygon class="cls-51" points="224.55 70.54 227 66.98 225.41 75.71 222.96 79.27 224.55 70.54"/><polygon class="cls-47" points="248.64 104.98 241.85 108.98 233.71 104.34 240.58 100.37 248.64 104.98"/><path class="cls-48" d="m281.86,139.63l-4.44,2.51-2.5,1.41-.09-.09-11.06-11.55h0s-21.93-22.91-21.93-22.91l6.79-4.01,33.22,34.65Z"/><polygon class="cls-30" points="465.45 440.9 443.83 428.41 487.83 403.01 509.45 415.49 465.45 440.9"/><polygon class="cls-55" points="498.81 398.48 454.8 423.87 443.83 417.54 487.84 392.13 498.81 398.48"/><polygon class="cls-37" points="465.45 434.63 454.8 423.87 498.81 398.48 509.45 409.23 465.45 434.63"/><polygon class="cls-45" points="443.83 428.41 443.83 417.54 454.8 423.87 465.45 434.63 465.45 440.9 443.83 428.41"/><polygon class="cls-27" points="509.45 415.49 509.45 409.23 465.45 434.63 465.45 440.9 509.45 415.49"/><path class="cls-28" d="m398.53,226.26h.01s-.04-.12-.04-.12c0-.01,0-.02-.01-.03l-.79-2.08h-1.89s0,.02-.01.04l-48.12-27.78c-.84-.48-1.9-.3-2.52.43l-20.63,24.18h-.09s-1.64.66-1.64.66l.73,1.93h.01c.14.46.44.88.9,1.14l49.96,28.84c.84.48,1.9.3,2.52-.43l21.23-24.89c.47-.55.57-1.27.37-1.91Z"/><path class="cls-62" d="m373.63,251.44l-49.96-28.84c-1.08-.63-1.33-2.08-.52-3.03l21.23-24.89c.63-.73,1.69-.92,2.52-.43l49.96,28.84c1.08.63,1.33,2.08.52,3.03l-21.23,24.89c-.63.73-1.69.92-2.52.43Z"/><polygon class="cls-50" points="362.89 241.71 326.21 220.53 346.08 197.71 382.75 218.89 362.89 241.71"/><circle class="cls-44" cx="350" cy="256" r="246.3"/><path class="cls-7" d="m290.85,330.35v89c-.02,2.49-.96,5.05-2.79,7.47-1.8,2.44-4.5,4.8-8.06,6.85l-2.44,1.42c-6.05,3.5-13.52,5.55-20.92,6.1-2.86.21-5.67.21-8.41-.02-5.64-.46-10.9-1.85-15.03-4.25l-73.53-42.47c-5.07-2.92-7.58-6.83-7.65-10.92l-.02-89.89,96.24,25.42,8.04,2.12,34.58,9.16Z"/><path class="cls-16" d="m233.21,347.69l-73.55-42.46c-11.37-6.56-9.94-18.03,3.18-25.6l2.45-1.41c13.13-7.58,32.98-8.4,44.35-1.84l73.55,42.46c11.37,6.56,9.94,18.03-3.18,25.6l-2.45,1.41c-13.13,7.58-32.98,8.4-44.35,1.84Z"/><path class="cls-33" d="m177.44,245.96v44.51c0,1.43.93,2.85,2.81,3.94,3.76,2.19,9.89,2.19,13.67,0,1.9-1.1,2.85-2.54,2.85-3.97v-44.47c0-4.39,2.94-6.56,4.21-7.29,1.27-.73,4.62-2.2,8.41,0l21.18,12.23c10.86,6.27,17.61,17.96,17.61,30.5v49.96c0,1.43.93,2.85,2.81,3.94,3.76,2.19,9.89,2.19,13.67,0,1.9-1.1,2.85-2.54,2.85-3.97v-49.93c0-19.43-10.45-37.53-27.28-47.25l-21.18-12.23c-8.68-5.02-19.06-5.02-27.75,0-8.69,5.02-13.87,14-13.87,24.03Z"/><path class="cls-32" d="m205.63,378.25c2.26-.77,3.75-3.39,3.75-7.34,0-6.36-3.87-13.76-8.65-16.52-4.78-2.76-8.65.17-8.65,6.53,0,3.94,1.49,8.28,3.75,11.67l-3.78,17.06,17.37,10.03-3.78-21.44Z"/></svg>