<?xml version="1.0" encoding="UTF-8"?><svg xmlns="http://www.w3.org/2000/svg" width="700" height="512" xmlns:xlink="http://www.w3.org/1999/xlink" viewBox="0 0 700 512"><defs><style>.cls-1{fill:url(#linear-gradient-38);}.cls-1,.cls-2,.cls-3,.cls-4,.cls-5,.cls-6,.cls-7,.cls-8,.cls-9,.cls-10,.cls-11,.cls-12,.cls-13,.cls-14,.cls-15,.cls-16,.cls-17,.cls-18,.cls-19,.cls-20,.cls-21,.cls-22,.cls-23,.cls-24,.cls-25,.cls-26,.cls-27,.cls-28,.cls-29,.cls-30,.cls-31,.cls-32,.cls-33,.cls-34,.cls-35,.cls-36,.cls-37,.cls-38,.cls-39,.cls-40,.cls-41,.cls-42,.cls-43,.cls-44,.cls-45,.cls-46,.cls-47,.cls-48,.cls-49,.cls-50,.cls-51,.cls-52,.cls-53,.cls-54,.cls-55,.cls-56,.cls-57,.cls-58,.cls-59,.cls-60,.cls-61,.cls-62,.cls-63,.cls-64,.cls-65,.cls-66,.cls-67,.cls-68,.cls-69,.cls-70,.cls-71,.cls-72,.cls-73,.cls-74,.cls-75,.cls-76,.cls-77,.cls-78,.cls-79,.cls-80,.cls-81,.cls-82,.cls-83,.cls-84,.cls-85,.cls-86,.cls-87,.cls-88,.cls-89,.cls-90,.cls-91,.cls-92,.cls-93,.cls-94,.cls-95,.cls-96,.cls-97,.cls-98,.cls-99,.cls-100,.cls-101,.cls-102,.cls-103,.cls-104,.cls-105,.cls-106,.cls-107,.cls-108,.cls-109,.cls-110,.cls-111,.cls-112,.cls-113,.cls-114,.cls-115,.cls-116,.cls-117,.cls-118,.cls-119,.cls-120,.cls-121,.cls-122{stroke-width:0px;}.cls-2{fill:url(#linear-gradient-12);}.cls-3{fill:url(#linear-gradient-17);}.cls-4{fill:url(#linear-gradient-88);}.cls-5{fill:url(#linear-gradient-19);}.cls-6{fill:url(#linear-gradient-33);}.cls-7{fill:url(#linear-gradient);}.cls-8{fill:url(#linear-gradient-62);}.cls-9{fill:url(#linear-gradient-92);}.cls-10{fill:url(#linear-gradient-98);}.cls-11{fill:url(#linear-gradient-67);}.cls-12{fill:url(#linear-gradient-57);}.cls-13{fill:url(#linear-gradient-21);}.cls-14{fill:url(#linear-gradient-6);}.cls-15{fill:url(#linear-gradient-76);}.cls-123{isolation:isolate;}.cls-16{fill:url(#linear-gradient-42);}.cls-124,.cls-32{opacity:.2;}.cls-18{fill:url(#linear-gradient-95);}.cls-19{fill:url(#linear-gradient-15);}.cls-20{fill:url(#linear-gradient-11);}.cls-21{fill:url(#linear-gradient-101);}.cls-22{fill:url(#linear-gradient-81);}.cls-23{fill:url(#linear-gradient-73);}.cls-24{fill:url(#linear-gradient-91);}.cls-25{fill:url(#linear-gradient-5);}.cls-26{fill:url(#linear-gradient-31);}.cls-27{fill:url(#linear-gradient-103);}.cls-28{fill:url(#linear-gradient-71);}.cls-29{fill:url(#linear-gradient-58);}.cls-30{fill:url(#linear-gradient-63);}.cls-31{fill:url(#linear-gradient-34);}.cls-33{fill:url(#linear-gradient-96);}.cls-34{fill:url(#linear-gradient-41);}.cls-35{fill:url(#linear-gradient-89);}.cls-36{fill:#f4f6f9;}.cls-37{fill:url(#linear-gradient-40);}.cls-38{opacity:.16;}.cls-39{fill:url(#linear-gradient-66);}.cls-40{fill:url(#linear-gradient-13);}.cls-41{fill:url(#linear-gradient-23);}.cls-42{fill:url(#linear-gradient-25);}.cls-43{fill:url(#linear-gradient-43);}.cls-44{fill:#f6f6f6;}.cls-45{fill:#ffa87e;}.cls-46{fill:url(#linear-gradient-16);}.cls-47{fill:url(#linear-gradient-22);}.cls-48{fill:url(#linear-gradient-54);}.cls-49{fill:url(#linear-gradient-55);}.cls-50{fill:#fff;}.cls-51{fill:url(#linear-gradient-35);}.cls-52{fill:url(#linear-gradient-50);}.cls-53{fill:url(#linear-gradient-32);}.cls-54{fill:url(#linear-gradient-60);}.cls-55{fill:url(#linear-gradient-59);}.cls-56{fill:url(#linear-gradient-20);}.cls-57{fill:#ededed;}.cls-58{fill:url(#linear-gradient-14);}.cls-59{fill:url(#linear-gradient-2);}.cls-60{fill:url(#linear-gradient-52);}.cls-61{fill:url(#linear-gradient-45);}.cls-62{fill:url(#linear-gradient-93);}.cls-63{fill:url(#linear-gradient-7);}.cls-64{fill:url(#linear-gradient-39);}.cls-65{fill:url(#linear-gradient-3);}.cls-66{fill:url(#linear-gradient-77);}.cls-67{fill:url(#linear-gradient-69);}.cls-68{fill:url(#linear-gradient-94);}.cls-69{fill:url(#linear-gradient-9);}.cls-70{fill:url(#linear-gradient-27);}.cls-71{fill:url(#linear-gradient-100);}.cls-72{fill:#023146;}.cls-73{fill:url(#linear-gradient-82);}.cls-74{fill:url(#linear-gradient-83);}.cls-75{fill:url(#linear-gradient-53);}.cls-76{fill:url(#linear-gradient-90);}.cls-77{opacity:.5;}.cls-78{fill:url(#linear-gradient-85);}.cls-79{fill:url(#linear-gradient-65);}.cls-80{fill:url(#linear-gradient-36);}.cls-81{fill:url(#linear-gradient-48);}.cls-82{fill:url(#linear-gradient-49);}.cls-83{fill:url(#linear-gradient-8);}.cls-84{fill:#ebebeb;}.cls-85{fill:url(#linear-gradient-47);}.cls-86{fill:url(#linear-gradient-24);}.cls-87{fill:url(#linear-gradient-26);}.cls-88{fill:url(#linear-gradient-61);}.cls-89{fill:#ccc;}.cls-89,.cls-102,.cls-125{mix-blend-mode:multiply;}.cls-90{fill:url(#linear-gradient-18);}.cls-91{fill:url(#linear-gradient-51);}.cls-92{fill:url(#linear-gradient-30);}.cls-93{fill:url(#linear-gradient-44);}.cls-94{fill:url(#linear-gradient-84);}.cls-95{fill:url(#linear-gradient-97);}.cls-96{fill:url(#linear-gradient-68);}.cls-97{fill:url(#linear-gradient-72);}.cls-98{fill:url(#linear-gradient-29);}.cls-99{fill:url(#linear-gradient-46);}.cls-100{fill:#1e1e1e;}.cls-101{fill:url(#linear-gradient-64);}.cls-102,.cls-118{opacity:.1;}.cls-103{fill:url(#linear-gradient-28);}.cls-104{fill:url(#linear-gradient-56);}.cls-105{fill:url(#linear-gradient-99);}.cls-106{fill:#103a44;}.cls-107{fill:url(#linear-gradient-10);}.cls-108{fill:#bb2024;}.cls-109{fill:url(#linear-gradient-87);}.cls-110{fill:url(#linear-gradient-70);}.cls-111{fill:url(#linear-gradient-78);}.cls-112{fill:url(#linear-gradient-86);}.cls-113{fill:#0b3c49;}.cls-114{fill:url(#linear-gradient-74);}.cls-115{fill:#c8c3c9;}.cls-116{fill:url(#linear-gradient-102);}.cls-117{fill:url(#linear-gradient-4);}.cls-119{fill:url(#linear-gradient-37);}.cls-120{fill:url(#linear-gradient-80);}.cls-121{fill:url(#linear-gradient-79);}.cls-122{fill:url(#linear-gradient-75);}</style><linearGradient id="linear-gradient" x1="110.4" y1="266.33" x2="228.27" y2="266.33" gradientUnits="userSpaceOnUse"><stop offset=".31" stop-color="#383839"/><stop offset=".41" stop-color="#242425"/></linearGradient><linearGradient id="linear-gradient-2" x1="143.96" y1="250.77" x2="160.13" y2="250.77" gradientUnits="userSpaceOnUse"><stop offset="0" stop-color="#838484"/><stop offset="1" stop-color="#6d7678"/></linearGradient><linearGradient id="linear-gradient-3" x1="106.86" y1="229.79" x2="231.65" y2="229.79" gradientUnits="userSpaceOnUse"><stop offset="0" stop-color="#ebebeb"/><stop offset="1" stop-color="#838484"/></linearGradient><linearGradient id="linear-gradient-4" x1="166.82" y1="263.08" x2="166.48" y2="273.65" gradientUnits="userSpaceOnUse"><stop offset=".09" stop-color="#383839"/><stop offset=".87" stop-color="#242425"/></linearGradient><linearGradient id="linear-gradient-5" x1="165.49" y1="260.61" x2="174.55" y2="260.61" gradientUnits="userSpaceOnUse"><stop offset="0" stop-color="#5a5b5b"/><stop offset="1" stop-color="#3a3a3a"/></linearGradient><linearGradient id="linear-gradient-6" x1="211.77" y1="236.13" x2="212.36" y2="246.85" xlink:href="#linear-gradient-4"/><linearGradient id="linear-gradient-7" x1="210.9" y1="234.09" x2="219.96" y2="234.09" xlink:href="#linear-gradient-5"/><linearGradient id="linear-gradient-8" x1="368.67" y1="215.84" x2="393.23" y2="227.69" gradientTransform="translate(560.61) rotate(-180) scale(1 -1)" gradientUnits="userSpaceOnUse"><stop offset="0" stop-color="#333" stop-opacity=".3"/><stop offset="1" stop-color="#333" stop-opacity="0"/></linearGradient><linearGradient id="linear-gradient-9" x1="394.59" y1="231.62" x2="420.32" y2="244.04" xlink:href="#linear-gradient-8"/><linearGradient id="linear-gradient-10" x1="150.68" y1="222.3" x2="186.95" y2="222.3" gradientUnits="userSpaceOnUse"><stop offset="0" stop-color="#383839"/><stop offset="1" stop-color="#242425"/></linearGradient><linearGradient id="linear-gradient-11" x1="167.77" y1="266.13" x2="174.55" y2="266.13" xlink:href="#linear-gradient-10"/><linearGradient id="linear-gradient-12" x1="213.18" y1="239.61" x2="219.96" y2="239.61" xlink:href="#linear-gradient-10"/><linearGradient id="linear-gradient-13" x1="283.17" y1="333.38" x2="289" y2="333.38" xlink:href="#linear-gradient-5"/><linearGradient id="linear-gradient-14" x1="-866.57" y1="401.43" x2="-860.74" y2="401.43" gradientTransform="translate(-462.11) rotate(-180) scale(1 -1)" xlink:href="#linear-gradient-5"/><linearGradient id="linear-gradient-15" x1="-933.64" y1="439.38" x2="-927.82" y2="439.38" gradientTransform="translate(-462.11) rotate(-180) scale(1 -1)" xlink:href="#linear-gradient-5"/><linearGradient id="linear-gradient-16" x1="324.85" y1="434.17" x2="330.67" y2="434.17" gradientTransform="translate(212.86)" xlink:href="#linear-gradient-5"/><linearGradient id="linear-gradient-17" x1="362.73" y1="413" x2="368.55" y2="413" gradientTransform="translate(212.86)" xlink:href="#linear-gradient-5"/><linearGradient id="linear-gradient-18" x1="-886.73" y1="376.82" x2="-880.9" y2="376.82" gradientTransform="translate(-521.84) rotate(-180) scale(1 -1)" xlink:href="#linear-gradient-5"/><linearGradient id="linear-gradient-19" x1="276.45" y1="323.53" x2="287.9" y2="323.53" gradientUnits="userSpaceOnUse"><stop offset="0" stop-color="#181819"/><stop offset="1" stop-color="#000"/></linearGradient><linearGradient id="linear-gradient-20" x1="272.22" y1="324.56" x2="326.3" y2="324.56" xlink:href="#linear-gradient-4"/><linearGradient id="linear-gradient-21" x1="272.21" y1="330.43" x2="316.12" y2="330.43" gradientUnits="userSpaceOnUse"><stop offset=".13" stop-color="#242425"/><stop offset="1" stop-color="#2f2f30"/></linearGradient><linearGradient id="linear-gradient-22" x1="298.74" y1="90.92" x2="358.13" y2="160.95" gradientUnits="userSpaceOnUse"><stop offset=".18" stop-color="#242425"/><stop offset=".82" stop-color="#0f0f0f"/></linearGradient><linearGradient id="linear-gradient-23" x1="301.25" y1="87.3" x2="361.69" y2="158.56" gradientUnits="userSpaceOnUse"><stop offset="0" stop-color="#383839"/><stop offset=".93" stop-color="#242425"/></linearGradient><linearGradient id="linear-gradient-24" x1="272.78" y1="113.7" x2="276.89" y2="113.7" gradientUnits="userSpaceOnUse"><stop offset=".18" stop-color="#0f0f0f"/><stop offset=".82" stop-color="#242425"/></linearGradient><linearGradient id="linear-gradient-25" x1="383.03" y1="173.97" x2="380.89" y2="177.62" xlink:href="#linear-gradient-4"/><linearGradient id="linear-gradient-26" x1="305.05" y1="312.74" x2="366.69" y2="312.74" xlink:href="#linear-gradient-23"/><linearGradient id="linear-gradient-27" x1="261.24" y1="269.79" x2="278.84" y2="360.18" gradientUnits="userSpaceOnUse"><stop offset="0" stop-color="#242425"/><stop offset=".86" stop-color="#000"/></linearGradient><linearGradient id="linear-gradient-28" x1="265.64" y1="272.92" x2="283.25" y2="363.31" xlink:href="#linear-gradient-27"/><linearGradient id="linear-gradient-29" x1="269.48" y1="252.32" x2="273.49" y2="272.89" xlink:href="#linear-gradient-5"/><linearGradient id="linear-gradient-30" x1="232.92" y1="296.28" x2="247.65" y2="371.9" xlink:href="#linear-gradient-5"/><linearGradient id="linear-gradient-31" x1="303.09" y1="216.11" x2="366.69" y2="216.11" xlink:href="#linear-gradient-5"/><linearGradient id="linear-gradient-32" x1="426.2" y1="198.93" x2="424.06" y2="202.58" xlink:href="#linear-gradient-4"/><linearGradient id="linear-gradient-33" x1="388.66" y1="388.28" x2="576.59" y2="388.28" gradientUnits="userSpaceOnUse"><stop offset=".44" stop-color="#383839"/><stop offset=".51" stop-color="#242425"/></linearGradient><linearGradient id="linear-gradient-34" x1="429.1" y1="375.62" x2="430.53" y2="378.96" gradientUnits="userSpaceOnUse"><stop offset=".09" stop-color="#666"/><stop offset="1" stop-color="#505050"/></linearGradient><linearGradient id="linear-gradient-35" x1="388.66" y1="348.4" x2="576.64" y2="348.4" gradientUnits="userSpaceOnUse"><stop offset=".44" stop-color="#383839"/><stop offset=".5" stop-color="#242425"/></linearGradient><linearGradient id="linear-gradient-36" x1="429.1" y1="347.24" x2="430.53" y2="350.58" xlink:href="#linear-gradient-34"/><linearGradient id="linear-gradient-37" x1="388.66" y1="320.81" x2="576.54" y2="320.81" gradientUnits="userSpaceOnUse"><stop offset=".44" stop-color="#383839"/><stop offset=".5" stop-color="#242425"/></linearGradient><linearGradient id="linear-gradient-38" x1="429.1" y1="319.64" x2="430.53" y2="322.98" xlink:href="#linear-gradient-34"/><linearGradient id="linear-gradient-39" x1="388.66" y1="289.3" x2="576.54" y2="289.3" gradientUnits="userSpaceOnUse"><stop offset=".45" stop-color="#383839"/><stop offset=".51" stop-color="#242425"/></linearGradient><linearGradient id="linear-gradient-40" x1="388.97" y1="274.81" x2="575.83" y2="274.81" gradientUnits="userSpaceOnUse"><stop offset=".45" stop-color="#838484"/><stop offset=".48" stop-color="#505151"/></linearGradient><linearGradient id="linear-gradient-41" x1="388.66" y1="257.2" x2="576.52" y2="257.2" gradientUnits="userSpaceOnUse"><stop offset=".45" stop-color="#242425"/><stop offset=".53" stop-color="#000"/></linearGradient><linearGradient id="linear-gradient-42" x1="389.46" y1="221.86" x2="576.15" y2="221.86" xlink:href="#linear-gradient-19"/><linearGradient id="linear-gradient-43" x1="400.81" y1="205.45" x2="461.37" y2="205.45" gradientUnits="userSpaceOnUse"><stop offset="0" stop-color="#2b2b2c"/><stop offset=".29" stop-color="#2b2b2c"/><stop offset=".73" stop-color="#171718"/></linearGradient><linearGradient id="linear-gradient-44" x1="450.68" y1="216.67" x2="502.09" y2="216.67" gradientUnits="userSpaceOnUse"><stop offset="0" stop-color="#000"/><stop offset=".17" stop-color="#2b2b2c"/><stop offset=".48" stop-color="#2b2b2c"/><stop offset=".67" stop-color="#171718"/></linearGradient><linearGradient id="linear-gradient-45" x1="388.66" y1="188.18" x2="576.53" y2="188.18" gradientUnits="userSpaceOnUse"><stop offset=".44" stop-color="#383839"/><stop offset=".5" stop-color="#242425"/></linearGradient><linearGradient id="linear-gradient-46" x1="388.86" y1="175.08" x2="576.34" y2="175.08" xlink:href="#linear-gradient-41"/><linearGradient id="linear-gradient-47" x1="558.15" y1="150.54" x2="561.21" y2="154.8" xlink:href="#linear-gradient-23"/><linearGradient id="linear-gradient-48" x1="474.88" y1="100.61" x2="552.96" y2="154.39" xlink:href="#linear-gradient-23"/><linearGradient id="linear-gradient-49" x1="446.69" y1="97.24" x2="469.94" y2="139.52" xlink:href="#linear-gradient-5"/><linearGradient id="linear-gradient-50" x1="460.3" y1="118.69" x2="502.33" y2="147.64" gradientUnits="userSpaceOnUse"><stop offset="0" stop-color="#6a6b6b"/><stop offset="1" stop-color="#505151"/></linearGradient><linearGradient id="linear-gradient-51" x1="458.58" y1="167.43" x2="550.32" y2="167.43" xlink:href="#linear-gradient-19"/><linearGradient id="linear-gradient-52" x1="516.58" y1="173.55" x2="519.81" y2="179.5" xlink:href="#linear-gradient-23"/><linearGradient id="linear-gradient-53" x1="395.87" y1="146.23" x2="473.95" y2="200.02" xlink:href="#linear-gradient-23"/><linearGradient id="linear-gradient-54" x1="439.18" y1="161.83" x2="537.59" y2="161.83" xlink:href="#linear-gradient-19"/><linearGradient id="linear-gradient-55" x1="495.6" y1="126.83" x2="528.48" y2="126.83" xlink:href="#linear-gradient-23"/><linearGradient id="linear-gradient-56" x1="243.8" y1="-306.07" x2="289.25" y2="-306.07" gradientTransform="translate(-43.54 190.9) rotate(30) skewX(-30)" xlink:href="#linear-gradient-24"/><linearGradient id="linear-gradient-57" x1="436.96" y1="164.63" x2="463.03" y2="164.63" xlink:href="#linear-gradient-23"/><linearGradient id="linear-gradient-58" x1="351.77" y1="193.78" x2="353.44" y2="197.65" xlink:href="#linear-gradient-34"/><linearGradient id="linear-gradient-59" x1="385.6" y1="50.78" x2="400.8" y2="50.78" xlink:href="#linear-gradient-5"/><linearGradient id="linear-gradient-60" x1="393.89" y1="70.71" x2="434.6" y2="70.71" xlink:href="#linear-gradient-5"/><linearGradient id="linear-gradient-61" x1="308.8" y1="114.72" x2="350.74" y2="114.72" xlink:href="#linear-gradient-21"/><linearGradient id="linear-gradient-62" x1="323.82" y1="40.22" x2="383.21" y2="110.25" xlink:href="#linear-gradient-22"/><linearGradient id="linear-gradient-63" x1="326.33" y1="36.6" x2="386.76" y2="107.86" xlink:href="#linear-gradient-23"/><linearGradient id="linear-gradient-64" x1="297.86" y1="63" x2="301.97" y2="63" xlink:href="#linear-gradient-24"/><linearGradient id="linear-gradient-65" x1="308.8" y1="95.12" x2="323.99" y2="95.12" xlink:href="#linear-gradient-5"/><linearGradient id="linear-gradient-66" x1="317.08" y1="115.05" x2="357.8" y2="115.05" xlink:href="#linear-gradient-5"/><linearGradient id="linear-gradient-67" x1="419.84" y1="18.76" x2="445.24" y2="18.76" gradientTransform="translate(200.2 190.9) rotate(30) skewX(-30)" xlink:href="#linear-gradient-5"/><linearGradient id="linear-gradient-68" x1="522.64" y1="403.81" x2="578.59" y2="403.81" xlink:href="#linear-gradient-5"/><linearGradient id="linear-gradient-69" x1="533.8" y1="412.51" x2="589.42" y2="412.51" gradientUnits="userSpaceOnUse"><stop offset="0" stop-color="#383839"/><stop offset=".9" stop-color="#242425"/></linearGradient><linearGradient id="linear-gradient-70" x1="522.64" y1="425.4" x2="544.64" y2="425.4" xlink:href="#linear-gradient-5"/><linearGradient id="linear-gradient-71" x1="544.64" y1="421.17" x2="589.42" y2="421.17" gradientUnits="userSpaceOnUse"><stop offset=".1" stop-color="#242425"/><stop offset=".88" stop-color="#000"/></linearGradient><linearGradient id="linear-gradient-72" x1="446.12" y1="215.34" x2="441.59" y2="216.58" gradientUnits="userSpaceOnUse"><stop offset="0" stop-color="#171717"/><stop offset="1" stop-color="#000"/></linearGradient><linearGradient id="linear-gradient-73" x1="227.6" y1="-170.71" x2="303.86" y2="-170.71" gradientTransform="translate(36.76 181.06) rotate(30) skewX(-30)" gradientUnits="userSpaceOnUse"><stop offset="0" stop-color="#323233"/><stop offset=".93" stop-color="#242425"/></linearGradient><linearGradient id="linear-gradient-74" x1="192.44" y1="448.59" x2="236.04" y2="448.59" gradientUnits="userSpaceOnUse"><stop offset="0" stop-color="#383839"/><stop offset=".69" stop-color="#242425"/></linearGradient><linearGradient id="linear-gradient-75" x1="215.93" y1="421.03" x2="271.33" y2="421.03" xlink:href="#linear-gradient-5"/><linearGradient id="linear-gradient-76" x1="315.46" y1="438.41" x2="367.28" y2="438.41" xlink:href="#linear-gradient-74"/><linearGradient id="linear-gradient-77" x1="330.55" y1="430.21" x2="325.85" y2="361.86" xlink:href="#linear-gradient-5"/><linearGradient id="linear-gradient-78" x1="213.98" y1="380.36" x2="338.69" y2="380.36" xlink:href="#linear-gradient-5"/><linearGradient id="linear-gradient-79" x1="209.2" y1="266.52" x2="216.25" y2="381.17" xlink:href="#linear-gradient-5"/><linearGradient id="linear-gradient-80" x1="241.59" y1="264.72" x2="248.8" y2="382.15" xlink:href="#linear-gradient-5"/><linearGradient id="linear-gradient-81" x1="224.9" y1="230.36" x2="277.74" y2="230.36" gradientTransform="translate(56.54 -51.53) rotate(12.79)" gradientUnits="userSpaceOnUse"><stop offset="0" stop-color="#232323"/><stop offset="1" stop-color="#000"/></linearGradient><linearGradient id="linear-gradient-82" x1="291.02" y1="261.49" x2="298.07" y2="376.15" xlink:href="#linear-gradient-5"/><linearGradient id="linear-gradient-83" x1="141.88" y1="420.59" x2="164.39" y2="420.59" gradientUnits="userSpaceOnUse"><stop offset="0" stop-color="#383f46"/><stop offset="1" stop-color="#222221"/></linearGradient><linearGradient id="linear-gradient-84" x1="141.87" y1="394.24" x2="178.36" y2="394.24" xlink:href="#linear-gradient-5"/><linearGradient id="linear-gradient-85" x1="157.28" y1="384.33" x2="173.48" y2="384.33" xlink:href="#linear-gradient-74"/><linearGradient id="linear-gradient-86" x1="140.71" y1="426.07" x2="154.98" y2="426.07" xlink:href="#linear-gradient-74"/><linearGradient id="linear-gradient-87" x1="140.51" y1="424.63" x2="154.67" y2="424.63" xlink:href="#linear-gradient-5"/><linearGradient id="linear-gradient-88" x1="150.78" y1="415.19" x2="161.41" y2="415.19" gradientUnits="userSpaceOnUse"><stop offset="0" stop-color="#2f2f30"/><stop offset=".97" stop-color="#242425"/></linearGradient><linearGradient id="linear-gradient-89" x1="156.54" y1="416.29" x2="159.53" y2="416.29" xlink:href="#linear-gradient-5"/><linearGradient id="linear-gradient-90" x1="154.69" y1="415.47" x2="157.7" y2="415.47" xlink:href="#linear-gradient-5"/><linearGradient id="linear-gradient-91" x1="152.7" y1="414.68" x2="155.75" y2="414.68" xlink:href="#linear-gradient-5"/><linearGradient id="linear-gradient-92" x1="151.08" y1="413.94" x2="154.17" y2="413.94" xlink:href="#linear-gradient-5"/><linearGradient id="linear-gradient-93" x1="425.79" y1="461.5" x2="394.1" y2="461.5" xlink:href="#linear-gradient-5"/><linearGradient id="linear-gradient-94" x1="425.79" y1="466.4" x2="394.1" y2="466.4" xlink:href="#linear-gradient-5"/><linearGradient id="linear-gradient-95" x1="372.57" y1="476" x2="400.22" y2="476" xlink:href="#linear-gradient-5"/><linearGradient id="linear-gradient-96" x1="370.63" y1="474.26" x2="396.44" y2="474.26" xlink:href="#linear-gradient-5"/><linearGradient id="linear-gradient-97" x1="425.79" y1="464.3" x2="394.1" y2="464.3" xlink:href="#linear-gradient-5"/><linearGradient id="linear-gradient-98" x1="425.79" y1="459.9" x2="394.1" y2="459.9" xlink:href="#linear-gradient-5"/><linearGradient id="linear-gradient-99" x1="425.79" y1="474.15" x2="394.1" y2="474.15" xlink:href="#linear-gradient-5"/><linearGradient id="linear-gradient-100" x1="425.79" y1="467.6" x2="394.1" y2="467.6" xlink:href="#linear-gradient-5"/><linearGradient id="linear-gradient-101" x1="394.84" y1="463.68" x2="430.09" y2="463.68" xlink:href="#linear-gradient-3"/><linearGradient id="linear-gradient-102" x1="387.95" y1="459.29" x2="422.34" y2="459.29" xlink:href="#linear-gradient-3"/><linearGradient id="linear-gradient-103" x1="370.63" y1="482.99" x2="374.71" y2="482.99" xlink:href="#linear-gradient-74"/></defs><g class="cls-123"><g id="Layer_1"><g class="cls-124"><path class="cls-17" d="m108.44,283.32c-3.77,2.18-3.79,5.7-.04,7.88l39.61,23.02c3.74,2.18,9.83,2.18,13.6,0l75.4-43.53c3.77-2.18,3.79-5.7.04-7.88l-39.61-23.02c-3.75-2.18-9.84-2.18-13.6,0l-75.4,43.53Z"/></g><path class="cls-7" d="m110.4,240.13v13.53s.06,14.86.06,14.86l.06,17.23v.23c0,.12,0,.17.06.29v.06c0,.06,0,.12.06.17,0,.06,0,.17.06.23v.06c.06.06.06.12.06.17.06.06.12.17.17.23v.06c.06.06.06.12.12.12.06.12.12.23.17.35l.06.06c0,.06.06.06.06.06.12.17.23.29.35.4q.06.06.12.12s.06,0,.06.06c.06.06.17.12.23.17.12.06.17.12.23.17.12.12.23.17.35.23.06.06.12.12.17.12.06.06.12.06.12.12l34.76,20.18c.23.12.52.23.81.4.06,0,.17.06.23.06.23.12.41.17.64.29.06,0,.12,0,.17.06h.12c.12.06.29.12.4.12.12.06.23.06.35.12.12.06.29.06.46.12.06,0,.17,0,.29.06.35.06.64.06.98.12h.29c.17.06.4.06.58.06h.12s1.73,0,1.73,0c.06-.06.12-.06.17-.06.17,0,.29,0,.4-.06h.23c.06,0,.12,0,.17-.06.17,0,.29-.06.46-.06.06,0,.12,0,.17-.06h.17c.17-.06.35-.12.52-.12.06-.06.12-.06.17-.06s.06-.06.12-.06c.29-.06.58-.17.87-.29h.06q.06-.06.12-.06c.35-.17.75-.35,1.1-.52l66.16-38.23c.64-.35,1.1-.75,1.5-1.16.52-.58.81-1.21.93-1.85.06-.12.06-.29.06-.46l-.06-22.9-.06-22.96c0,.35-.06.64-.17.93-.06.17-.12.35-.17.52-.4.75-1.1,1.45-2.14,2.02l-30.54,17.64-35.63,20.59c-.35.17-.75.35-1.16.52,0,0-.06.06-.12.06-.29.12-.58.23-.93.29-.06.06-.17.06-.29.12-.12.06-.29.06-.52.12-.06,0-.23.06-.35.06-.12.06-.29.06-.41.06-.17.06-.29.06-.4.06-.12.06-.29.06-.4.06s-.29.06-.4.06h-1.62c-.23,0-.41,0-.58-.06h-.29c-.35,0-.64-.06-.98-.12-.12-.06-.23-.06-.29-.06-.17-.06-.35-.12-.46-.12-.12-.06-.23-.06-.35-.12-.17,0-.29-.06-.46-.12-.06,0-.12-.06-.23-.06-.23-.12-.46-.17-.64-.29-.12,0-.17-.06-.23-.06-.29-.17-.58-.29-.81-.41l-20.76-12.09-14-8.1c-.12-.12-.23-.17-.29-.23-.12-.06-.23-.12-.35-.17-.06-.12-.12-.17-.23-.23-.06-.06-.17-.12-.23-.17-.06-.06-.12-.12-.17-.17l-.35-.35c-.06-.06-.12-.12-.12-.17-.06-.12-.17-.23-.23-.29,0-.12-.06-.17-.12-.23,0-.06-.06-.17-.12-.23,0-.06-.06-.17-.06-.23-.06-.06-.06-.17-.12-.23v-.23c-.06-.06-.06-.17-.06-.29Z"/><path class="cls-72" d="m112.88,236.43c-3.31,1.91-3.33,5-.04,6.91l34.74,20.19c3.28,1.91,8.62,1.91,11.93,0l66.13-38.18c3.3-1.91,3.32-5,.04-6.91l-34.74-20.19c-3.29-1.91-8.63-1.91-11.93,0l-66.13,38.18Z"/><path class="cls-59" d="m106.88,239.61l.12,15.15v.29c.06.12.06.17.06.29v.06c0,.06.06.12.06.17,0,.06.06.17.06.23s0,.06.06.06c0,.06,0,.12.06.17.06.12.06.17.12.29,0,0,0,.06.06.06,0,.06.06.12.06.12.06.12.17.23.23.35l.06.06c0,.06.06.06.06.12.12.12.29.29.4.4,0,.06.06.06.12.12.12.12.23.17.29.23.12.12.17.17.29.23.06.06.17.12.29.23.12,0,.17.06.23.12q.06.06.12.06l36.84,21.4c.23.17.52.29.81.46.12,0,.17.06.29.12.23.06.46.17.69.23.06,0,.12.06.17.06,0,0,.06,0,.06.06.17,0,.35.06.46.12.12,0,.23.06.35.12.17,0,.35.06.52.06.06.06.17.06.29.06q0,.06.06.06c.29.06.64.06.98.12h.35c.17.06.41.06.58.06h1.04s.93,0,.93,0c.06-.06.12-.06.17-.06.17,0,.35,0,.46-.06h.23c.06,0,.12,0,.17-.06.17,0,.29-.06.46-.06.06,0,.17,0,.23-.06h.17c.17-.06.35-.12.52-.17.12,0,.17,0,.23-.06h.12c.29-.12.64-.23.93-.35h.06s.06-.06.06-.06c.46-.17.87-.35,1.21-.58l70.09-40.43c1.79-1.04,2.66-2.37,2.66-3.7l-.12-15.44c0,1.33-.93,2.66-2.66,3.7l-70.09,40.43c-.4.23-.81.4-1.21.58q-.06.06-.12.06c-.35.12-.64.23-.98.35-.12,0-.17.06-.29.06-.17.06-.4.12-.58.17-.12,0-.23.06-.35.06-.17.06-.35.06-.46.06-.17.06-.29.06-.4.06-.17.06-.29.06-.46.06-.12.06-.29.06-.4.06h-.46c-.06,0-.17,0-.23.06-.06-.06-.12,0-.17,0-.17,0-.35,0-.52-.06h-.98c-.12-.06-.17-.06-.29-.06-.35,0-.69-.06-1.04-.12-.11-.06-.23-.06-.35-.06-.12-.06-.29-.12-.46-.12-.12-.06-.23-.06-.35-.12-.17-.06-.35-.06-.46-.12-.12-.06-.17-.06-.29-.12-.23-.06-.46-.17-.69-.23-.06-.06-.17-.11-.23-.11-.29-.17-.58-.29-.87-.46l-36.78-21.4c-.12-.06-.23-.12-.35-.17-.12-.12-.23-.17-.35-.23-.06-.06-.17-.12-.23-.17-.12-.12-.17-.17-.29-.23-.06-.06-.12-.12-.12-.17-.17-.12-.29-.29-.41-.4l-.17-.17c-.06-.12-.12-.23-.17-.35-.06-.06-.12-.12-.12-.17-.06-.12-.12-.17-.12-.29-.06-.06-.12-.12-.12-.23-.06-.06-.06-.17-.06-.23-.06-.06-.06-.17-.06-.23-.06-.12-.06-.17-.06-.29Z"/><path class="cls-65" d="m109.5,235.66c-3.51,2.02-3.53,5.3-.04,7.33l36.82,21.4c3.48,2.02,9.14,2.02,12.65,0l70.09-40.47c3.5-2.02,3.52-5.3.04-7.32l-36.82-21.4c-3.48-2.02-9.14-2.02-12.65,0l-70.09,40.47Z"/><path class="cls-117" d="m165.49,261.94l2.28,1.25s.34,10.11,0,9.79c-.34-.32-2.28-1.25-2.28-1.25v-9.79Z"/><polygon class="cls-25" points="172.28 258.03 174.55 259.28 167.77 263.19 165.49 261.94 172.28 258.03"/><path class="cls-14" d="m210.9,235.42l2.28,1.25s.34,10.11,0,9.79c-.34-.32-2.28-1.25-2.28-1.25v-9.79Z"/><polygon class="cls-63" points="217.68 231.51 219.96 232.76 213.18 236.67 210.9 235.42 217.68 231.51"/><g class="cls-125"><path class="cls-113" d="m153.82,258.28c-.15,0-.3-.04-.43-.12l-30.62-17.68c-.41-.24-.56-.77-.32-1.18.24-.41.77-.56,1.18-.32l30.62,17.68c.41.24.56.77.32,1.18-.16.28-.45.43-.75.43Z"/></g><g class="cls-125"><path class="cls-113" d="m167.41,250.15c-.15,0-.3-.04-.43-.12l-30.62-17.68c-.41-.24-.56-.77-.32-1.18.24-.41.77-.55,1.18-.32l30.62,17.68c.41.24.56.77.32,1.18-.16.28-.45.43-.75.43Z"/></g><g class="cls-125"><path class="cls-113" d="m203.26,226.79c-.15,0-.3-.04-.43-.12l-30.62-17.68c-.41-.24-.56-.77-.32-1.18.24-.41.77-.55,1.18-.32l30.62,17.68c.41.24.56.77.32,1.18-.16.28-.45.43-.75.43Z"/></g><g class="cls-125"><path class="cls-113" d="m216.84,218.66c-.15,0-.3-.04-.43-.12l-30.62-17.68c-.41-.24-.56-.77-.32-1.18.24-.41.77-.55,1.18-.32l30.62,17.68c.41.24.56.77.32,1.18-.16.28-.45.43-.75.43Z"/></g><polygon class="cls-83" points="185.06 222.3 165.49 234.26 158.37 226.4 179.13 219.09 185.06 222.3"/><polygon class="cls-69" points="158.37 237.47 140.02 250.78 130.57 242.13 152.44 234.26 158.37 237.47"/><path class="cls-107" d="m155.5,238.37c2.66,0,4.82-1.35,4.82-4.02v-.98c0-4.41,2.78-9.3,5.26-10.74l11.29-6.52c.06-.04.12-.07.17-.09.13.38.27,1.03.27,1.97v.98c0,2.66,2.16,4.02,4.82,4.02s4.82-1.36,4.82-4.02v-.98c0-4.86-1.87-8.73-5.13-10.61-2.89-1.67-6.45-1.53-9.77.38l-11.29,6.52c-5.75,3.32-10.08,11.53-10.08,19.09v.98c0,2.66,2.16,4.02,4.82,4.02Z"/><polygon class="cls-20" points="167.77 272.98 174.55 269.06 174.55 259.28 167.77 263.19 167.77 272.98"/><polygon class="cls-2" points="213.18 246.46 219.96 242.54 219.96 232.76 213.18 236.67 213.18 246.46"/><path class="cls-32" d="m492.59,466.07l-220.45-127.14c-5.05-2.92-4.42-8.01,1.42-11.38l77.27-44.97c5.83-3.37,14.66-3.73,19.71-.82l220.45,127.14c5.05,2.92,4.42,8.01-1.42,11.38l-77.27,44.97c-5.83,3.37-14.66,3.73-19.71.82Z"/><path class="cls-17" d="m288.95,341.1c-1.13,0-2.31-.33-3.45-.98-3.09-1.79-5.41-5.81-5.4-9.37,0-2.42,1.06-4.41,2.89-5.46,1.83-1.05,4.09-.96,6.2.26h0c3.09,1.79,5.42,5.81,5.4,9.37,0,2.42-1.06,4.41-2.89,5.46-.85.49-1.78.73-2.75.73Z"/><path class="cls-40" d="m286.09,330.04c-1.61-.93-2.91-.18-2.92,1.66s1.29,4.1,2.9,5.03c1.61.93,2.92.18,2.92-1.66,0-1.85-1.29-4.1-2.9-5.03h0Z"/><path class="cls-17" d="m398.68,409.15c1.13,0,2.31-.33,3.45-.98,3.09-1.79,5.41-5.81,5.4-9.37,0-2.42-1.06-4.41-2.89-5.46-1.83-1.05-4.09-.96-6.2.26h0c-3.09,1.79-5.42,5.81-5.4,9.37,0,2.42,1.06,4.41,2.89,5.46.85.49,1.78.73,2.75.73Z"/><path class="cls-58" d="m401.54,398.09c1.61-.93,2.91-.18,2.92,1.66,0,1.85-1.29,4.1-2.9,5.03s-2.92.18-2.92-1.66c0-1.85,1.29-4.1,2.9-5.03h0Z"/><path class="cls-17" d="m465.76,447.09c1.13,0,2.31-.33,3.45-.98,3.09-1.79,5.41-5.81,5.4-9.37,0-2.42-1.06-4.41-2.89-5.46-1.83-1.05-4.09-.96-6.2.26h0c-3.09,1.79-5.42,5.81-5.4,9.37,0,2.42,1.06,4.41,2.89,5.46.85.49,1.78.73,2.75.73Z"/><path class="cls-19" d="m468.61,436.03c1.61-.93,2.91-.18,2.92,1.66,0,1.85-1.29,4.1-2.9,5.03-1.61.93-2.92.18-2.92-1.66,0-1.85,1.29-4.1,2.9-5.03h0Z"/><path class="cls-17" d="m543.49,441.88c-1.13,0-2.31-.33-3.45-.98-3.09-1.79-5.41-5.81-5.4-9.37,0-2.42,1.06-4.41,2.89-5.46,1.83-1.05,4.09-.96,6.2.26h0c3.09,1.79,5.42,5.81,5.4,9.37,0,2.42-1.06,4.41-2.89,5.46-.85.49-1.78.73-2.75.73Z"/><path class="cls-46" d="m540.63,430.82c-1.61-.93-2.91-.18-2.92,1.66,0,1.85,1.29,4.1,2.9,5.03,1.61.93,2.92.18,2.92-1.66,0-1.85-1.29-4.1-2.9-5.03h0Z"/><path class="cls-17" d="m581.37,420.71c-1.13,0-2.31-.33-3.45-.98-3.09-1.79-5.41-5.81-5.4-9.37,0-2.42,1.06-4.41,2.89-5.46,1.83-1.05,4.09-.96,6.2.26h0c3.09,1.79,5.42,5.81,5.4,9.37,0,2.42-1.06,4.41-2.89,5.46-.85.49-1.78.73-2.75.73Z"/><path class="cls-3" d="m578.52,409.66c-1.61-.93-2.91-.18-2.92,1.66s1.29,4.1,2.9,5.03c1.61.93,2.92.18,2.92-1.66,0-1.85-1.29-4.1-2.9-5.03h0Z"/><path class="cls-17" d="m359.11,384.53c1.13,0,2.31-.33,3.45-.98,3.09-1.79,5.41-5.81,5.4-9.37,0-2.42-1.06-4.41-2.89-5.46-1.83-1.05-4.09-.96-6.2.26h0c-3.09,1.79-5.42,5.81-5.4,9.37,0,2.42,1.06,4.41,2.89,5.46.85.49,1.78.73,2.75.73Z"/><path class="cls-90" d="m361.97,373.47c1.61-.93,2.91-.18,2.92,1.66,0,1.85-1.29,4.1-2.9,5.03-1.61.93-2.92.18-2.92-1.66,0-1.85,1.29-4.1,2.9-5.03h0Z"/><polygon class="cls-5" points="277.65 328.17 287.9 322.32 280.1 318.88 276.45 322.85 277.65 328.17"/><path class="cls-56" d="m326.3,326.39c-15.6-11.07-43.9-16.27-43.9-16.27l-10.19,5.87,23.92,13.4,2.23-1.01,18.39,10.62,9.54-12.61Z"/><path class="cls-13" d="m316.12,332.26l-9.55,12.61-20.39-11.78-.91-4.02-7.61-4.27v3.37l-5.44-3.14v-9.04s28.31,5.19,43.91,16.26Z"/><path class="cls-47" d="m386.12,150.49l-53.4,30.89-23.42-18.2-1.03-1.07-11.86-12.37c-7.91-11.99-16.13-21.86-23.64-29.79l1.62-8.88,23.6-19.55s24.95,24.3,41.92,52.37c.79,1.32,1.58,2.64,2.33,3.97l8.28-4.82s-.91-1.42-2.5-3.83c-7.37-11.12-29.37-43.21-43.27-51.61l2.51-3.63,3.63,1.46,20.37-7.2,10.7,2.5c5.94,6.3,12.28,13.8,18.57,22.58,1.56,2.16,3.09,4.4,4.63,6.72,5.02,7.58,9.21,14.94,12.71,21.88,3.03,5.99,6.01,12.94,8.26,18.57Z"/><path class="cls-41" d="m389.33,148.63l-56.61,32.76-20.6-21.49-13.21-13.78c-7.91-11.99-16.13-21.86-23.64-29.79l1.62-8.88,23.6-19.55s27.34,26.63,44.25,56.34l8.28-4.82s-28.87-45.21-45.77-55.43l26.51-9.36,10.7,2.5c7.4,7.85,15.44,17.56,23.2,29.3,5.02,7.58,9.21,14.94,12.71,21.88,3.35,6.64,6.65,14.44,8.96,20.34Z"/><polygon class="cls-86" points="274.4 111.07 276.89 107.45 275.27 116.34 272.78 119.95 274.4 111.07"/><path class="cls-17" d="m315.79,90.74l76.8-44.34.81,16.65,3.52,19.49s-14.59,15.6-15.09,15.85-38.86,4.65-40,4.91c-1.13.25-10.59.2-10.94.39s-15.11-12.95-15.11-12.95Z"/><path class="cls-42" d="m486.6,97.57l-18.37,43.6-50.68,120.28-38.49,91.35-12.36,29.31-63.6-36.73v-214.35c0-1.27.68-2.46,1.79-3.1l5.98-3.45,110.29-63.68c.64-.37,1.38-.3,1.92.08l63.54,36.69Z"/><path class="cls-17" d="m487.43,99.09v213.31l-118.78,68.58-.64.37-1.32.76v-214.34c0-1.29.68-2.47,1.79-3.1l116.26-67.12c1.2-.7,2.69.16,2.69,1.54Z"/><polygon class="cls-87" points="366.69 280.47 366.69 380.59 305.05 344.98 305.05 244.89 366.69 280.47"/><polygon class="cls-70" points="237.26 278.25 237.26 378.36 300.86 341.63 300.86 241.53 237.26 278.25"/><polygon class="cls-103" points="241.66 281.38 241.66 381.49 305.26 344.76 305.26 244.66 241.66 281.38"/><polygon class="cls-98" points="305.26 244.66 300.86 241.53 237.26 278.25 241.66 281.38 305.26 244.66"/><polygon class="cls-92" points="237.26 378.36 241.66 381.49 241.66 281.38 237.26 278.25 237.26 378.36"/><polygon class="cls-26" points="366.69 187.9 366.69 281.03 303.09 244.31 303.09 151.19 366.69 187.9"/><polygon class="cls-17" points="366.69 186.93 366.69 187.89 303.09 151.17 303.09 150.21 366.69 186.93"/><path class="cls-53" d="m507.59,109.69l-18.37,43.6-89.18,211.62-12.36,29.31-19.21-11.1v-214.35c0-1.27.68-2.46,1.79-3.1l116.26-67.13c.64-.37,1.38-.3,1.92.08l19.14,11.06Z"/><polygon class="cls-17" points="399.48 230.19 399.48 231.38 368.48 213.48 368.48 212.29 399.48 230.19"/><path class="cls-17" d="m387.69,394.22l120.74-69.71V111.2c0-1.38-1.49-2.24-2.69-1.55l-116.27,67.13c-1.11.64-1.79,1.82-1.79,3.09v214.35Z"/><path class="cls-6" d="m576.59,341.39l-58.53-8.16-3.23-1.86c-3.06-1.77-8.41-1.55-11.95.5l-5.07,2.93-109.16,8.38.06,49.66c-.07,1.19.59,2.33,2.05,3.17l85.21,49.19c3.06,1.77,8.41,1.55,11.95-.5l85.74-49.6c1.88-1.09,2.86-2.47,2.91-3.8v-49.91Z"/><path class="cls-100" d="m475.98,395.45l-85.25-49.22c-3.06-1.77-2.68-4.86.86-6.9l85.74-49.6c3.54-2.04,8.89-2.26,11.95-.5l85.25,49.22c3.06,1.77,2.68,4.86-.86,6.9l-85.74,49.6c-3.54,2.04-8.89,2.26-11.95.5Z"/><path class="cls-31" d="m441.86,385.2v5.46c0,.32-.08.58-.22.76-.32.42-.95.45-1.67.04l-16.1-9.3c-1.04-.61-1.88-1.94-1.88-2.98v-5.46c0-.65.32-1.02.8-1.08.31-.04.68.06,1.08.29l16.1,9.29c1.05.61,1.89,1.94,1.89,2.98Z"/><path class="cls-17" d="m441.86,385.2v5.46c0,.32-.08.58-.22.76-.31.03-.67-.06-1.08-.29l-16.1-9.3c-1.05-.59-1.88-1.94-1.88-2.97v-5.46c0-.32.08-.57.21-.76.31-.04.68.06,1.08.29l16.1,9.29c1.05.61,1.89,1.94,1.89,2.98Z"/><path class="cls-17" d="m575.78,336.79v4.36c-.06,1.31-1.03,2.69-2.9,3.77l-84.94,49.14c-3.51,2.03-8.82,2.25-11.86.5l-84.57-48.83c-1.45-.83-2.11-1.96-2.04-3.15h-.03s0-4.2,0-4.2c.22.19.46.35.72.51l85.73,49.5c3.08,1.78,8.46,1.55,12.02-.5l86.3-49.92c.62-.36,1.14-.75,1.56-1.16Z"/><path class="cls-17" d="m467.51,404.98l-6.91-3.99c-1.15-.66-2.08-2.13-2.08-3.27v-2.08c0-1.15.93-1.54,2.08-.88l6.91,3.99c1.15.66,2.08,2.13,2.08,3.27v2.08c0,1.15-.93,1.54-2.08.88Z"/><path class="cls-51" d="m576.64,313.71l-58.58-8.19-3.23-1.86c-3.06-1.77-8.41-1.55-11.95.5l-5.07,2.93-109.16,8.38.06,25.31c-.07,1.19.59,2.33,2.05,3.17l85.21,49.19c3.06,1.77,8.41,1.55,11.95-.5l85.79-49.57c1.88-1.09,2.86-2.47,2.91-3.8v-25.56Z"/><path class="cls-100" d="m475.98,367.74l-85.25-49.22c-3.06-1.77-2.68-4.86.86-6.9l85.79-49.57c3.54-2.04,8.89-2.26,11.95-.5l85.25,49.22c3.06,1.77,2.68,4.86-.86,6.9l-85.79,49.57c-3.54,2.04-8.89,2.26-11.95.5Z"/><path class="cls-80" d="m441.86,356.81v5.46c0,.32-.08.58-.22.76-.32.42-.95.45-1.67.04l-16.1-9.3c-1.04-.61-1.88-1.94-1.88-2.98v-5.46c0-.65.32-1.02.8-1.08.31-.04.68.06,1.08.29l16.1,9.29c1.05.61,1.89,1.94,1.89,2.98Z"/><path class="cls-17" d="m441.86,356.81v5.46c0,.32-.08.58-.22.76-.31.03-.67-.06-1.08-.29l-16.1-9.3c-1.05-.59-1.88-1.94-1.88-2.97v-5.46c0-.32.08-.57.21-.76.31-.04.68.06,1.08.29l16.1,9.29c1.05.61,1.89,1.94,1.89,2.98Z"/><path class="cls-17" d="m467.51,377.02l-6.91-3.99c-1.15-.66-2.08-2.13-2.08-3.27v-2.08c0-1.15.93-1.54,2.08-.88l6.91,3.99c1.15.66,2.08,2.13,2.08,3.27v2.08c0,1.15-.93,1.54-2.08.88Z"/><path class="cls-17" d="m575.83,309.11v4.36c-.06,1.31-1.03,2.69-2.9,3.77l-85,49.11c-3.51,2.03-8.82,2.25-11.86.5l-84.57-48.83c-1.45-.83-2.11-1.96-2.04-3.15h-.03s0-4.2,0-4.2c.22.19.46.35.72.51l85.73,49.5c3.08,1.78,8.46,1.55,12.02-.5l86.35-49.89c.62-.36,1.14-.75,1.56-1.16Z"/><path class="cls-119" d="m576.54,286.15l-58.48-8.22-3.23-1.86c-3.06-1.77-8.41-1.55-11.95.5l-5.07,2.93-109.16,8.38.06,25.31c-.07,1.19.59,2.33,2.05,3.17l85.21,49.19c3.06,1.77,8.41,1.55,11.95-.5l85.69-49.53c1.88-1.09,2.86-2.47,2.91-3.8v-25.56Z"/><path class="cls-100" d="m475.98,340.14l-85.25-49.22c-3.06-1.77-2.68-4.86.86-6.9l85.69-49.53c3.54-2.04,8.89-2.26,11.95-.5l85.25,49.22c3.06,1.77,2.68,4.86-.86,6.9l-85.69,49.53c-3.54,2.04-8.89,2.26-11.95.5Z"/><path class="cls-1" d="m441.86,329.22v5.46c0,.32-.08.58-.22.76-.32.42-.95.45-1.67.04l-16.1-9.3c-1.04-.61-1.88-1.94-1.88-2.98v-5.46c0-.65.32-1.02.8-1.08.31-.04.68.06,1.08.29l16.1,9.29c1.05.61,1.89,1.94,1.89,2.98Z"/><path class="cls-17" d="m441.86,329.22v5.46c0,.32-.08.58-.22.76-.31.03-.67-.06-1.08-.29l-16.1-9.3c-1.05-.59-1.88-1.94-1.88-2.97v-5.46c0-.32.08-.57.21-.76.31-.04.68.06,1.08.29l16.1,9.29c1.05.61,1.89,1.94,1.89,2.98Z"/><path class="cls-17" d="m467.51,349.42l-6.91-3.99c-1.15-.66-2.08-2.13-2.08-3.27v-2.08c0-1.15.93-1.54,2.08-.88l6.91,3.99c1.15.66,2.08,2.13,2.08,3.27v2.08c0,1.15-.93,1.54-2.08.88Z"/><path class="cls-17" d="m575.73,281.55v4.36c-.06,1.31-1.03,2.69-2.9,3.77l-84.9,49.07c-3.51,2.03-8.82,2.25-11.86.5l-84.57-48.83c-1.45-.83-2.11-1.96-2.04-3.15h-.03s0-4.2,0-4.2c.22.19.46.35.72.51l85.73,49.5c3.08,1.78,8.46,1.55,12.02-.5l86.25-49.86c.62-.36,1.14-.75,1.56-1.16Z"/><path class="cls-64" d="m576.54,250.42l-58.48-8.11-3.23-1.86c-3.06-1.77-8.41-1.55-11.95.5l-5.07,2.93-109.16,8.38.06,33.55c-.07,1.19.59,2.33,2.05,3.17l85.21,49.19c3.06,1.77,8.41,1.55,11.95-.5l85.69-49.65c1.88-1.09,2.86-2.47,2.91-3.8v-33.8Z"/><path class="cls-100" d="m475.98,304.52l-85.25-49.22c-3.06-1.77-2.68-4.86.86-6.9l85.69-49.65c3.54-2.04,8.89-2.26,11.95-.5l85.25,49.22c3.06,1.77,2.68,4.86-.86,6.9l-85.69,49.65c-3.54,2.04-8.89,2.26-11.95.5Z"/><path class="cls-37" d="m575.83,245.34v4.38c-.06,1.31-1.03,2.7-2.91,3.78l-85.03,49.09c-3.52,2.04-8.86,2.26-11.91.5l-84.96-49.06c-1.46-.83-2.12-1.97-2.05-3.16,0,0,.02-4.19.04-4.17.2.17.42.31.66.45l86.13,49.73c3.09,1.79,8.5,1.56,12.08-.5l86.39-49.87c.62-.36,1.15-.76,1.57-1.17Z"/><path class="cls-34" d="m576.52,222.45l-58.46-8.18-3.23-1.86c-3.06-1.77-8.41-1.55-11.95.5l-5.07,2.93-109.16,8.38.06,25.42c-.07,1.19.59,2.33,2.05,3.17l85.21,49.19c3.06,1.77,8.41,1.55,11.95-.5l85.67-49.57c1.88-1.09,2.86-2.47,2.91-3.8v-25.67Z"/><path class="cls-100" d="m475.98,276.48l-85.25-49.22c-3.06-1.77-2.68-4.86.86-6.9l85.67-49.57c3.54-2.04,8.89-2.26,11.95-.5l85.25,49.22c3.06,1.77,2.68,4.86-.86,6.9l-85.67,49.57c-3.54,2.04-8.89,2.26-11.95.5Z"/><path class="cls-17" d="m576.15,220.82l-58.32-7.9-3.2-1.85c-3.04-1.75-8.35-1.53-11.85.49l-5.03,2.9-108.28,8.31.06.98c-.07,1.18.59,2.31,2.04,3.14l84.52,48.79c3.04,1.75,8.35,1.53,11.85-.49l85.31-49.39c1.87-1.08,2.84-2.45,2.89-3.77v-1.23Z"/><path class="cls-16" d="m476.08,274.64l-84.57-48.83c-3.04-1.75-2.66-4.82.85-6.84l85.31-49.39c3.51-2.03,8.82-2.25,11.85-.49l84.57,48.83c3.04,1.75,2.66,4.82-.85,6.84l-85.31,49.39c-3.51,2.03-8.82,2.25-11.85.49Z"/><path class="cls-43" d="m400.81,169.97v15.33c0,3.12,1.46,6.05,3.94,7.94l28.85,21.69c1.54,1.16,2.85,2.58,3.88,4.21l15.51,21.78,8.38-37.01-33.97-24.29-26.58-9.64Z"/><path class="cls-100" d="m451.88,245.86l-7.34-8.47c-.45-.52-.69-1.18-.69-1.86v-29.98l12.86,2.72-4.82,37.59Z"/><path class="cls-93" d="m571.33,159.34l-76.05,14.52-44.83,18.55.06,53.52c-.02.28.08.85.08.85l5.13,14.66h0c.13.98.79,1.91,2.03,2.63l18.23,10.6c3.06,1.77,8.41,1.55,11.95-.5l85.67-49.45c1.88-1.09,2.86-2.47,2.91-3.8v-63.44s-5.19,1.86-5.19,1.86Z"/><path class="cls-61" d="m576.53,156.49l-58.47-8.31-3.23-1.86c-3.06-1.77-8.41-1.55-11.95.5l-5.07,2.93-109.16,8.38.06,19.55c-.07,1.19.59,2.33,2.05,3.17l85.21,49.19c3.06,1.77,8.41,1.55,11.95-.5l85.67-49.44c1.88-1.09,2.86-2.47,2.91-3.8v-19.8Z"/><path class="cls-100" d="m475.98,210.4l-85.25-49.22c-3.06-1.77-2.68-4.86.86-6.9l85.67-49.45c3.54-2.04,8.89-2.26,11.95-.5l85.25,49.22c3.06,1.77,2.68,4.86-.86,6.9l-85.67,49.45c-3.54,2.04-8.89,2.26-11.95.5Z"/><path class="cls-99" d="m576.34,150.25l-58.34-8.17-3.22-1.86c-3.06-1.76-8.4-1.54-11.93.49l-5.06,2.92-108.93,8.36.06,5.67c-.07,1.18.59,2.32,2.05,3.16l85.04,49.09c3.06,1.76,8.4,1.54,11.93-.49l85.49-49.47c1.88-1.09,2.86-2.47,2.91-3.79v-5.92Z"/><path class="cls-100" d="m476.01,204.17l-85.08-49.12c-3.06-1.76-2.67-4.85.86-6.89l85.49-49.47c3.53-2.04,8.87-2.26,11.93-.49l85.08,49.12c3.06,1.76,2.67,4.85-.86,6.89l-85.49,49.47c-3.53,2.04-8.87,2.26-11.93.49Z"/><path class="cls-85" d="m576.51,145.3v9.96l-15.96,9.19-42.35-37.47,4.68-2.69,11.27-6.5,40.59,24.13c.98.56,1.77,2.08,1.77,3.37Z"/><polygon class="cls-106" points="534.15 112.8 534.15 117.79 522.88 124.29 518.56 121.8 534.15 112.8"/><path class="cls-81" d="m467.66,110.83l92.89,53.63v-9.95c0-1.3-.79-2.82-1.77-3.38l-40.59-24.14v-4.98l-10.21-13.79s-22.22-14.59-38.45-17.54c-1.11-.2-1.87.73-1.87,2.27v17.88Z"/><polygon class="cls-17" points="518.19 126.99 534.15 117.79 534.15 112.8 518.19 122.01 518.19 126.99"/><path class="cls-82" d="m534.14,112.81l-15.58,9-9,5.19-7.06-8.52-68,36.97,6.39,11.2-1.71.99-24.97-9.78-24.8-21.3,95.08-54.9.04-.02c.27-.16.61-.22.97-.15,16.23,2.96,38.44,17.55,38.44,17.55l10.21,13.78Z"/><polygon class="cls-17" points="508.43 113.4 433.76 156.06 439.18 179.07 518.19 133.39 518.19 122.01 508.43 113.4"/><polygon class="cls-52" points="534.14 112.81 510.95 126.2 502.42 119.49 438.19 156.6 438.79 158.22 443.33 165.24 439.18 167.63 428.97 153.85 523.93 99.02 534.14 112.81"/><polygon class="cls-91" points="458.58 190.26 537.59 144.6 550.32 146.1 471.03 187.93 458.58 190.26"/><path class="cls-60" d="m558.78,151.13l-8.46-5.03-11.23,5.92-68.05,35.91,10.51,22.15,79-45.67v-9.9c0-1.3-.79-2.82-1.76-3.38Z"/><path class="cls-75" d="m388.66,156.45l92.89,53.63v-13.73c0-1.3-.79-2.82-1.77-3.38l-8.74-5.05-12.45,2.34-19.39-11.2v-11.43l-10.21-13.79s-22.22-14.59-38.45-17.54c-1.11-.2-1.87.73-1.87,2.27v17.88Z"/><polygon class="cls-48" points="439.18 179.07 518.19 133.39 537.59 144.6 458.58 190.26 439.18 179.07"/><path class="cls-17" d="m529.67,132.35l-1.07-5.53c-.11-.57-.46-1.12-.86-1.34l-9.18-5.09c-.29-.16-.58-.2-.82-.09-2.06.98-14.1-1.51-14.1-1.51l-1.23.69,3.52,1.72,18.34,10.63,3.9,2.26,1.12-.64.04-.02c.3-.1.45-.53.34-1.09Z"/><path class="cls-49" d="m502.42,119.49s11.74,2.64,14.1,1.51c.23-.11.52-.08.82.09l9.18,5.09c.4.22.75.77.86,1.34l1.07,5.52c.15.75-.17,1.26-.69,1.08l-32.16-10.7,6.82-3.94Z"/><path class="cls-17" d="m549.62,136.6l-.7-.04c-.21-.17-.46-.32-.76-.38l-52.17-11.57-58.27,33.34,4.74,5.94,43.01,9.54c2.17.48,4.45.13,6.38-.98l56.83-32.81c.63-.37.91-.98.92-1.6l.02-1.43Z"/><path class="cls-104" d="m485.47,172.03l-43.01-9.54-5.19-5.38,58.72-33.9,52.17,11.57c1.67.37,2.01,2.6.53,3.45l-56.83,32.81c-1.93,1.11-4.21,1.46-6.38.98Z"/><path class="cls-17" d="m464.22,170.15l-1.07-5.53c-.11-.57-.46-1.12-.86-1.34l-9.18-5.09c-.29-.16-.58-.2-.82-.09-2.06.98-14.1-1.51-14.1-1.51l-1.23.69,3.52,1.72,18.34,10.63,3.9,2.26,1.12-.64.04-.02c.3-.1.45-.53.34-1.09Z"/><path class="cls-12" d="m436.96,157.29s11.74,2.64,14.1,1.51c.23-.11.52-.08.82.09l9.18,5.09c.4.22.75.77.86,1.34l1.07,5.52c.15.75-.17,1.26-.69,1.08l-19.25-6.54-6.09-8.1Z"/><path class="cls-29" d="m359.45,193.57v20.85c0,.32-.08.58-.22.76-.32.42-.95.45-1.67.04l-5.03-3.01c-1.04-.61-1.88-1.94-1.88-2.98v-20.85c0-.65.32-1.02.8-1.08.31-.04.68.06,1.08.29l5.03,3c1.05.61,1.89,1.94,1.89,2.98Z"/><path class="cls-17" d="m359.45,193.57v20.85c0,.32-.08.58-.22.76-.31.03-.67-.06-1.08-.29l-5.03-3.01c-1.05-.59-1.88-1.94-1.88-2.97v-20.85c0-.32.08-.57.21-.76.31-.04.68.06,1.08.29l5.03,3c1.05.61,1.89,1.94,1.89,2.98Z"/><polygon class="cls-55" points="400.8 51.08 393.89 55.16 385.6 50.43 392.59 46.4 400.8 51.08"/><path class="cls-17" d="m427.53,90.33h.01s0,0,0,0h-.01Z"/><polygon class="cls-17" points="427.53 90.32 427.53 90.33 422.04 93.52 411.2 99.79 357.8 130.69 334.38 112.49 333.15 111.54 333.34 111.43 337.2 109.2 364.98 93.2 373.09 88.53 385.6 81.33 385.6 50.43 393.89 55.16 410.09 67.2 417.73 76.62 427.53 90.32"/><polygon class="cls-54" points="427.55 90.34 434.6 86.35 400.8 51.08 393.89 55.16 427.55 90.34"/><polygon class="cls-88" points="350.74 134.67 322.84 118.56 321.97 118.06 317.07 120.89 310.86 124.48 308.8 125.66 308.8 94.77 317.08 99.5 331.56 112.52 340.93 120.96 350.74 134.67"/><path class="cls-8" d="m411.2,99.79l-53.4,30.89-23.42-18.2-1.03-1.07-11.86-12.37c-7.91-11.99-16.13-21.86-23.64-29.79l1.62-8.88,23.6-19.55s24.95,24.3,41.92,52.37c.79,1.32,1.58,2.64,2.33,3.97l8.28-4.82s-.91-1.42-2.5-3.83c-7.37-11.12-29.37-43.21-43.27-51.61l2.51-3.63,3.63,1.46,20.37-7.2,10.7,2.5c5.94,6.3,12.28,13.8,18.57,22.58,1.56,2.16,3.09,4.4,4.63,6.72,5.02,7.58,9.21,14.94,12.71,21.88,3.03,5.99,6.01,12.94,8.26,18.57Z"/><path class="cls-30" d="m414.41,97.93l-56.61,32.76-20.6-21.49-13.21-13.78c-7.91-11.99-16.13-21.86-23.64-29.79l1.62-8.88,23.6-19.55s27.34,26.63,44.25,56.34l8.28-4.82s-28.87-45.21-45.77-55.43l26.51-9.36,10.7,2.5c7.4,7.85,15.44,17.56,23.2,29.3,5.02,7.58,9.21,14.94,12.71,21.88,3.35,6.64,6.65,14.44,8.96,20.34Z"/><polygon class="cls-101" points="299.48 60.37 301.97 56.75 300.35 65.64 297.86 69.26 299.48 60.37"/><polygon class="cls-79" points="323.99 95.42 317.09 99.5 308.8 94.77 315.79 90.74 323.99 95.42"/><path class="cls-39" d="m357.8,130.69l-4.52,2.55-2.54,1.43-.09-.09-11.26-11.76h0s-22.31-23.32-22.31-23.32l6.91-4.08,33.81,35.26Z"/><polygon class="cls-11" points="544.64 437.28 522.64 424.58 567.42 398.73 589.42 411.43 544.64 437.28"/><polygon class="cls-96" points="578.59 394.11 533.8 419.95 522.64 413.51 567.42 387.66 578.59 394.11"/><polygon class="cls-67" points="544.64 430.91 533.8 419.95 578.59 394.11 589.42 405.06 544.64 430.91"/><polygon class="cls-110" points="522.64 424.58 522.64 413.51 533.8 419.95 544.64 430.91 544.64 437.28 522.64 424.58"/><polygon class="cls-28" points="589.42 411.43 589.42 405.06 544.64 430.91 544.64 437.28 589.42 411.43"/><path class="cls-97" d="m476.53,218.85h.01s-.05-.12-.05-.12c0-.01,0-.02-.01-.03l-.8-2.12h-1.92s0,.02-.01.05l-48.97-28.27c-.85-.49-1.93-.3-2.57.44l-20.99,24.61-.09-.02-1.66.69.75,1.97h.01c.15.47.45.89.92,1.16l50.84,29.35c.85.49,1.93.3,2.57-.44l21.61-25.33c.48-.56.59-1.3.38-1.94Z"/><path class="cls-23" d="m451.19,244.47l-50.84-29.35c-1.1-.64-1.36-2.12-.53-3.08l21.61-25.33c.64-.75,1.72-.93,2.57-.44l50.84,29.35c1.1.64,1.36,2.12.53,3.08l-21.61,25.33c-.64.75-1.72.93-2.57.44Z"/><polygon class="cls-84" points="440.26 234.57 402.94 213.02 423.15 189.8 460.48 211.35 440.26 234.57"/><polygon class="cls-17" points="363.14 371.8 309.34 340.73 309.34 252.73 363.14 283.8 363.14 371.8"/><g class="cls-124"><path class="cls-17" d="m372.48,460.91c-.53,6.15-4.9,11.47-10.23,14.58-5.33,3.12-11.53,4.35-17.64,5.25-19.55,2.86-39.54,2.67-59.03-.56-9.22-1.52-18.48-3.73-27.79-3-10.33.82-19.99,5.18-30,7.84-8.56,2.27-17.46,3.28-26.32,3.01-3.79-.12-7.64-.49-11.16-1.92-7.82-3.17-13-11.87-12.06-20.26.95-8.45,7.42-15.46,14.96-19.38,7.23-3.75,15.38-5.14,23.44-6.38,15.33-5.12,31.9-6.42,47.84-3.75,4.57.76,9.09,1.85,13.7,2.32,15.02,1.54,29.94-3.49,45.03-3.72,6.96-.1,13.89.81,20.72,2.07,6.72,1.23,13.56,2.86,19.2,6.72,5.64,3.85,9.92,10.37,9.33,17.17Z"/></g><path class="cls-114" d="m221.45,420.77s-11.62,7.95-14.21,9.25c-2.59,1.3-10.27,4.79-11.47,8.88-1.2,4.09-3.6,23.55-3.3,27.15.98,11.93,12.78,11.64,17.53,8.52,4.18-2.74,8.21-11.81,10.69-24.68l15.36-17.68s-4.04-11.01-14.58-11.44Z"/><path class="cls-17" d="m198.34,435.29s1.62-1.78,3.19-1.98c1.57-.2,5.69-.52,9.33,4.1,4.39,5.59,1.99,14.09,1.27,18.5-.72,4.41-.33,16.01-4.49,19.37-4.16,3.37-9.3.04-9.3.04v-40.03Z"/><path class="cls-17" d="m211.09,448.62c-3.81,16.76-.98,28.38-8.61,28.23-8.2-.16-10.21-4.75-10.5-11.56-.29-6.81.75-13.9,1.65-20.3.9-6.4,4.41-11.09,8.08-10.89,3.67.2,11.49,5.29,9.38,14.52Z"/><path class="cls-122" d="m235.17,402.6l-18.85,20.81c-.47.47-.48,1.15-.25,1.77,1.34,3.71,4.93,13.2,13.73,14.28.49.06.99-.07,1.4-.35,5.34-3.62,38.59-28.9,40.08-31.12,1.6-2.39-36.1-5.39-36.1-5.39Z"/><path class="cls-17" d="m367.27,448.62v6.85c0,.82-.38,1.59-1.02,2.09-1.8,1.39-5.81,4.06-10.86,4.7-6.91.88-14.6.53-18.65.49-5.16-.05-14.36.68-17.38-.69-3.02-1.36-3.41-1.66-3.89-3.6-.49-1.95,0-6.82,0-6.82l51.81-3.03Z"/><path class="cls-15" d="m317.12,423.38s-2.36,27.27-1.46,29.24c2.83,6.23,15.33,5.17,27.11,5.55,11.78.38,25.03-.89,24.5-10.03-.46-7.88-8.37-7.2-15.36-8.86-6.99-1.66-14-3.79-14-4.85s.42-10.98.42-10.98c0,0-2.08-5.01-9.08-4.86-11.59.25-12.13,4.79-12.13,4.79Z"/><path class="cls-66" d="m338.72,423.21c-.05.51-.37.94-.84,1.13-1.78.72-6.35,2.38-10.83,2.53-4.53.15-7.76-1.42-9.33-2.42-.68-.43-1.11-1.15-1.15-1.95l-1.6-28.32-.83-14.83-.08-1.51s-.26-1.38-.6-3.58c-.84-5.32-2.19-15.49-1.63-22.86.3-3.91,1.13-7.03,2.87-8.23,6.35-4.39,15.48-4.83,22.2,6.25,1.43,2.36,2.33,7.08,2.88,13.06.22,2.46.38,5.15.49,7.96.8,20.35-1.08,47.8-1.53,52.77Z"/><path class="cls-50" d="m340.25,370.44c-1.78,3.09-5.07,6.94-10.81,8.88-5.81,1.95-11.45,1.14-15.31.03l-.08-1.51s-.26-1.38-.6-3.58c4.99,1.94,12.68,2.05,17.59-1.32,4.89-3.36,7.58-8.01,8.72-10.45.22,2.46.38,5.15.49,7.96Z"/><path class="cls-102" d="m332.91,373.73c-1.15,4.11-8.56,11.96-17.95,20.45l-.92-16.35s-3.03-16.02-2.23-26.44c2.71-1,5.05-1.62,6.86-1.74.6-.04,1.19-.03,1.77.02,9.6.8,15.48,13.4,12.47,24.07Z"/><path class="cls-111" d="m337.9,364.07c-2.94,10.44-46.26,45.06-59.73,52.84-13.47,7.78-28.42,1.6-31.86.41-3.44-1.2-7.62.74-21.54-5.09-9.73-4.08-10.93-20.42-10.77-29.88.08-4.07.39-6.86.39-6.86.12-1.25,59.6-10.83,59.6-10.83,0,0,3.86-2.33,9.66-5.73,5.64-3.3,11.55-6.69,17.16-9.68,9.46-5.05,18.03-8.95,22.85-9.27.6-.04,1.19-.03,1.77.02,9.6.8,15.48,13.4,12.47,24.07Z"/><path class="cls-121" d="m204.91,344.21c.58,1.93,2.75,5.29,5.44,8.97,5.77,7.88,13.88,10.01,13.88,10.01l2.72-32.74-17.31-56.54-3.33-10.83s-9.3,7.78-9.58,21.96c-.28,14.19,6.3,53.12,8.19,59.17Z"/><path class="cls-118" d="m207.6,325.18c1.75,6.99,2.49,14.7,2.75,28,5.77,7.88,13.88,10.01,13.88,10.01l2.72-32.74-17.31-56.54c-.31.25-.61.53-.92.81-7.63,7.3-5.75,31.96-1.12,50.46Z"/><path class="cls-118" d="m276.22,393.33c-10.81,4.73-19.59,5.12-31.02,2.76-19.07-3.94-28.25-12.35-31.4-15.29.08-4.07.58-5.32.58-5.32.12-1.25,59.6-10.83,59.6-10.83,0,0,3.86-2.33,9.66-5.73.02.37.02.73.04,1.09.62,17.65,3.98,15.11,3.98,15.11,0,0-.36,13.33-11.46,18.19Z"/><path class="cls-120" d="m287.43,379.17s-2.84,8.87-8.89,11.86c-10.59,5.24-21.32,3.4-32.85,1.71-22.07-3.28-31.31-17.26-31.31-17.26,0,0,.05-44.65-4.6-63.19-4.63-18.51-12.26-40.95-4.63-48.26,7.62-7.32,23.69-7.32,31.88-4.32,8.16,3.01,23.72,8.93,30.96,13.22,6.48,3.84,10.38,8.95,12.75,14.39,4.14,9.46,3.62,19.88,3.92,26.2.06,1.27-.08,12.33.15,26.4.07,4.53.18,9.37.34,14.31.65,19.32,2.27,24.94,2.27,24.94Z"/><path class="cls-45" d="m258.19,247.51v20.34s-18.87,1.45-25.51-5.45l1.72-23.06,23.79,8.17Z"/><path class="cls-45" d="m275.4,225.03s-1.59,22.21-4.9,27.93c-3.31,5.72-14.89,8.36-27.93-1.27-13.04-9.62-9.1-36.49-1.05-38.98,8.05-2.49,33.37,1.28,33.89,12.31Z"/><path class="cls-22" d="m272.98,245.26c-.78.24-6.06,2.81-6.06,2.81-1.68-1-2.1-3.48-2.1-3.48l-.38-7.68s11.94-.41,14.83-15.1c2.89-14.69-13.98-22.36-28.77-22.26-14.79.09-18.25,11.95-18.25,11.95,0,0-4.43.92-6.55,7.73-2.12,6.81,3.59,28.93,7.75,33.46,4.15,4.53,13.83,6.47,15.63,2.88,1.79-3.59.9-17.41,5.37-16.78,3.76.53,5.74,5.28,6.27,6.76.44,2.33-.26,3.93-2.08,6.04-1.9,2.2-5.31,5.2-2.79,6.6,2.52,1.4,7.42.76,12.4-2.04,4.98-2.8,5.53-11.14,4.75-10.91Z"/><path class="cls-102" d="m308.43,354.04c-1.85-.65-4.52-2.37-7.62-4.79,9.46-5.05,18.03-8.95,22.85-9.27.6-.04,1.19-.03,1.77.02.82,9.48-9.72,16.6-17,14.04Z"/><path class="cls-102" d="m284.82,339.93c-5.91-6.08-11.25-12.29-14.09-16.69-9.16-14.15-2.76-37,5.86-37.58,1.02-.07,2.44.54,4.16,1.67,4.14,9.46,3.62,19.88,3.92,26.2.06,1.27-.08,12.33.15,26.4Z"/><path class="cls-73" d="m268.9,315.95c7.78,10.76,32.09,32.29,40.21,34.68s19.55-7.04,15.53-17.68c-4.02-10.64-45.27-53.9-52.8-57.13-7.94-3.4-12.81,26.47-2.94,40.13Z"/><path class="cls-57" d="m265.85,232.97c-23.1,5.14-43.63-2.8-43.27-11.6.47-11.34,51.13-14.79,59.54-5.58,5.11,5.59,2.19,13.06-16.28,17.17Z"/><path class="cls-36" d="m223.31,220.92s-1.95-23.71,24.89-27.58c32.36-4.67,31.66,28.59,31.66,28.59,0,0-8.45,10.61-29.84,10.72-21.39.1-26.71-8.22-26.71-11.73Z"/><path class="cls-44" d="m224.57,217.93c6.12-26.67,35.38-27.19,35.38-27.19l4.59,1.71s-1.32.34-3.44,1l1.15,2.7c-11.19,2.06-17.54,4.23-23.41,7.33-10.77,7.18-12.39,15.63-12.39,15.63l-1.88-1.17Z"/><path class="cls-57" d="m266.84,197.86l-2.31-5.41s-32.63.55-38.08,26.66c0,0,6.71-19.4,40.39-21.24Z"/><path class="cls-108" d="m247.46,321.78s-.03.03-.04.05c-1.72,1.46-8.5-4.2-9-8.68l-5,21.32c-4.64-18.77-16.84-33.72-16.84-33.72,8.45,2.64,17.48-4.05,17.48-4.05,0,0,8.03,9.67,12.77,20.53,1.14,2.61,1.19,4.01.63,4.56Z"/><path class="cls-17" d="m233.42,334.96c-.15-.09-.29-.29-.35-.52-4.53-18.33-16.53-33.2-16.65-33.34-.14-.18-.23-.43-.21-.63.02-.2.14-.3.3-.25,8.24,2.58,17.2-3.96,17.29-4.03.11-.08.28-.02.42.15.08.1,8.16,9.89,12.91,20.75,1.46,3.35,1.14,4.66.62,5.17,0,.01-.02.02-.02.03s-.03.03-.03.03c-1.1.94-3.76-.62-5.82-2.65-1.58-1.56-2.77-3.31-3.39-4.94l-4.71,20.08c-.04.18-.18.25-.34.17,0,0-.01,0-.02,0Zm-15.79-33.42c2.81,3.74,11.6,16.25,15.72,31.35l4.71-20.09c.05-.2.21-.26.38-.14.17.11.32.37.35.62.18,1.63,1.42,3.71,3.3,5.57,2.08,2.04,4.3,3.14,5.06,2.49,0,0,.03-.03.04-.04.63-.6,0-2.47-.64-3.94-4.19-9.59-11.07-18.36-12.41-20.02-1.32.93-8.93,5.97-16.51,4.2Z"/><path class="cls-17" d="m250.02,312.09s-.04-.02-.06-.04c-4.85-3.81-7.84-10.7-8.8-13.17-1.21,1.78-3.37,2.61-3.47,2.65-.17.06-.4-.12-.52-.41-.12-.29-.08-.58.09-.64.03,0,2.55-.98,3.56-2.97.06-.12.19-.15.32-.08.14.05.26.24.33.44.03.09,3.11,8.96,8.6,13.28.2.16.34.49.31.74-.03.23-.19.31-.37.21Z"/><path class="cls-50" d="m222.5,304.79c-.17-.1-.34-.31-.43-.58-.14-.39-.05-.75.18-.79.05,0,4.66-.89,8.41-3.6.2-.14.51.04.7.42.19.37.19.79,0,.93-3.85,2.78-8.57,3.67-8.61,3.68-.08.01-.16,0-.24-.05Z"/><path class="cls-50" d="m223.9,307.94c-.17-.1-.33-.3-.42-.56-.14-.39-.07-.75.17-.81.07-.01,6.76-1.56,10.24-5.6.17-.19.48-.07.69.28.22.35.26.78.09.98-3.6,4.18-10.23,5.7-10.51,5.77-.08.02-.17,0-.25-.05Z"/><path class="cls-50" d="m225.71,311.16c-.16-.09-.32-.29-.42-.54-.15-.39-.08-.76.15-.83.06-.02,6.5-1.88,9.86-6.08.16-.2.47-.09.69.25.22.34.27.78.11.98-3.47,4.34-9.86,6.18-10.13,6.26-.08.02-.18,0-.27-.05Z"/><path class="cls-50" d="m227.38,314.53c-.15-.09-.3-.26-.4-.49-.16-.39-.12-.77.1-.87.06-.03,6.5-2.77,9.49-6.94.15-.21.46-.12.69.22.23.33.29.78.13.99-3.08,4.3-9.45,7.01-9.71,7.13-.09.04-.19.02-.3-.04Z"/><path class="cls-50" d="m229.13,317.73c-.15-.09-.29-.26-.39-.48-.17-.38-.13-.78.09-.87.06-.03,6.16-2.8,9.14-7.51.14-.23.45-.15.68.18.23.33.3.77.16,1-3.08,4.86-9.13,7.61-9.38,7.72-.09.04-.2.02-.3-.04Z"/><path class="cls-50" d="m230.8,321.02c-.15-.09-.3-.27-.4-.5-.16-.39-.11-.77.11-.86.05-.02,4.78-1.99,8.74-8.41.14-.23.45-.15.68.17.23.32.31.77.17,1-4.07,6.59-8.8,8.55-9,8.63-.09.04-.19.02-.29-.04Z"/><path class="cls-50" d="m232.32,324.09c-.15-.08-.29-.25-.39-.47-.17-.38-.13-.78.08-.88.05-.03,5.44-2.68,8.45-9.12.12-.26.42-.22.66.08.25.3.35.76.23,1.01-3.11,6.66-8.49,9.3-8.72,9.41-.09.04-.2.03-.31-.03Z"/><path class="cls-50" d="m233.53,327.17c-.14-.08-.29-.25-.39-.47-.17-.38-.14-.78.07-.88.05-.03,5.07-2.59,8.73-9.31.13-.24.43-.19.67.13.24.31.33.77.19,1.01-3.75,6.9-8.76,9.45-8.97,9.56-.09.05-.2.03-.31-.03Z"/><path class="cls-115" d="m247.41,321.83c-9.98,10.56-14,12.64-14,12.64l5-21.32c.5,4.48,7.28,10.14,9,8.68Z"/><path class="cls-17" d="m233.42,334.96c-.07-.04-.14-.11-.2-.2-.14-.2-.2-.45-.16-.64l5-21.32c.05-.2.21-.26.38-.14.17.11.32.37.35.62.18,1.63,1.42,3.71,3.3,5.57,2.08,2.04,4.3,3.14,5.06,2.49.14-.12.36,0,.51.26.15.26.17.58.04.71-9.89,10.47-13.88,12.59-14.05,12.68-.07.04-.15.02-.24-.02Zm5.06-20.23l-4.37,18.62c1.62-1.12,5.41-4.07,11.94-10.88-1.25-.36-2.85-1.49-4.19-2.81-1.58-1.56-2.77-3.31-3.39-4.94Z"/><path class="cls-17" d="m222.25,333.59c-.19-.94-.46-2.03-1.35-2.55-.56-.32-.93,0-.93.71s.36,1.34,1.21,2.4c1.03,1.28,1.69,2.33,1.69,3.61,0,1.52-.95,2.08-2.33,1.28-.62-.36-1.17-.89-1.62-1.34-.06-.33-.22-1.77-.29-2.41l.38.1c.19.92.73,2.64,1.68,3.19.59.34.95.06.95-.77,0-.75-.35-1.39-1.16-2.44-1.01-1.3-1.66-2.33-1.66-3.67s.79-1.97,2.24-1.13c.67.39,1.17.87,1.38,1.03.04.5.11,1.21.18,2.07l-.37-.1Z"/><path class="cls-17" d="m228.34,343.05c-.58-.23-1.2-.42-1.84-.6v-.88c-.4.21-.8.41-1.33.11-.81-.47-1.27-1.43-1.27-2.57v-2.67c0-.59-.06-.69-.32-.93l-.2-.19v-.41c.49.26,1.26.61,1.8.82-.02.53-.03,1.19-.03,1.93v1.88c0,.84.32,1.31.66,1.5.27.16.48.2.7.03v-3.11c0-.59-.05-.72-.32-.94l-.29-.24v-.41c.56.3,1.38.68,1.87.86v4.2c0,.67.06.85.37,1.06l.21.15v.43Z"/><path class="cls-17" d="m234.05,346.65v-.44c.39.15.45.13.45-.65v-2.23c0-1.07-.38-1.48-.68-1.65-.19-.11-.42-.16-.72-.01,0,.16.02.36.02.55v2.6c0,.72.03.8.47,1.14v.44l-2.17-1.26v-.44c.43.17.46.15.46-.6v-2.35c0-.91-.27-1.37-.63-1.57-.24-.14-.47-.16-.74-.04v3.17c0,.72.06.82.42,1.1v.44l-2.21-1.28v-.44c.53.22.56.18.56-.59v-2.73c0-.72,0-.84-.46-1.2v-.41c.54.24,1.09.37,1.7.49v.97c.21-.07.39-.14.59-.19.3-.07.53-.09.82.07.54.31.9.91,1.08,1.6.23-.1.43-.17.67-.25.21-.06.48-.07.77.1.84.49,1.29,1.5,1.29,2.82v2.5c0,.71.05.79.52,1.16v.44l-2.21-1.28Z"/><path class="cls-17" d="m242.04,351.26v-.44c.39.15.45.13.45-.65v-2.23c0-1.07-.38-1.48-.68-1.65-.19-.11-.42-.16-.72-.01,0,.16.02.36.02.55v2.6c0,.72.03.8.47,1.14v.44l-2.18-1.26v-.44c.43.17.46.15.46-.6v-2.35c0-.91-.27-1.37-.63-1.57-.24-.14-.47-.16-.74-.04v3.17c0,.72.06.82.42,1.1v.44l-2.21-1.28v-.44c.53.22.56.18.56-.59v-2.73c0-.72,0-.84-.46-1.2v-.41c.54.24,1.09.37,1.7.49v.97c.21-.07.39-.14.59-.19.3-.07.53-.09.82.07.54.31.9.91,1.08,1.6.23-.1.43-.17.67-.25.21-.06.48-.07.77.1.84.49,1.29,1.5,1.29,2.82v2.5c0,.71.05.79.52,1.16v.44l-2.21-1.28Z"/><path class="cls-17" d="m244.68,352.79v-.44c.52.21.58.19.58-.72v-2.51c0-.86-.05-.94-.5-1.28v-.43c.61.26,1.22.45,1.75.55v4.39c0,.88.04.99.6,1.4v.44l-2.43-1.4Zm1.13-6.02c-.37-.21-.7-.81-.7-1.32,0-.53.33-.73.71-.51.39.22.7.79.7,1.32s-.31.74-.71.51Z"/><path class="cls-17" d="m249.49,355.58c-.16,0-.32-.04-.39-.08-.74-.43-1.19-1.15-1.19-2.32v-3.6l-.62-.36-.06-.19.28-.33.4.23v-1.07c.33-.12.8-.26,1.14-.37l.13.18c0,.34-.03,1.01-.02,1.99l.97.56c.09.18.05.56-.08.6l-.89-.51v3.16c0,1.01.31,1.3.49,1.41.16.09.29.13.46.14l.1.52-.72.06Z"/><path class="cls-17" d="m220.52,342.31c-.04-.22-.1-.45-.15-.59-.07-.21-.12-.28-.37-.42l-.46-.26v2.97c0,.48.04.56.47.85v.17l-1.33-.77v-.17c.42.21.46.17.46-.31v-2.97l-.42-.24c-.25-.15-.32-.15-.4-.01-.05.09-.09.22-.15.41l-.14-.08c.03-.36.05-.72.07-1.06l.1.06c.07.19.12.21.25.28l1.81,1.04c.13.07.16.07.23,0l.11.06c0,.29.02.74.04,1.1l-.14-.06Z"/><path class="cls-17" d="m221.88,345.58c-.29.32-.61.24-.76.15-.56-.32-.9-1.13-.9-1.83,0-.41.11-.73.3-.89.19-.18.44-.19.68-.05.4.23.7.86.7,1.35,0,.12-.02.17-.09.15-.09-.03-.68-.31-1.22-.6-.01.81.36,1.36.69,1.55.19.11.36.1.53,0l.07.18Zm-.79-2.45c-.21-.12-.42.02-.48.48.26.15.51.3.78.43.08.05.11.03.11-.06,0-.32-.16-.7-.41-.85Z"/><path class="cls-17" d="m223.62,346.56c-.2.24-.51.33-.78.17-.58-.34-.92-1.16-.92-1.81,0-.48.16-.79.46-.93.24-.11.52-.05.69.05.21.12.36.29.42.41.06.1.07.15.07.22,0,.15-.11.21-.16.18-.02-.01-.04-.04-.09-.11-.14-.25-.3-.43-.46-.52-.3-.17-.57.01-.57.65,0,.84.43,1.37.69,1.53.19.11.35.13.56-.01l.08.18Z"/><path class="cls-17" d="m224.78,347.77v-.17c.26.12.3.11.3-.29v-1c0-.51-.15-.85-.45-1.02-.17-.1-.36-.09-.48.04v1.44c0,.4.04.45.31.65v.17l-1-.58v-.17c.27.12.32.13.32-.28v-2.94c0-.32-.01-.41-.32-.62v-.16c.24.11.52.18.68.19v2.08c.16-.12.42-.2.66-.06.37.22.64.68.64,1.41v1.07c0,.4.04.45.3.64v.17l-.96-.56Z"/><path class="cls-17" d="m226.99,349.05v-.17c.27.12.29.09.29-.32v-1.01c0-.43-.11-.78-.42-.95-.19-.11-.37-.06-.51.02v1.43c0,.42.03.45.3.64v.17l-.99-.57v-.17c.3.13.33.12.33-.28v-1.25c0-.4-.03-.43-.28-.63v-.16c.22.08.45.13.64.13v.48c.09-.03.19-.07.31-.1.13-.04.25-.04.38.04.37.21.59.7.59,1.29v1.16c0,.41.03.45.29.64v.17l-.95-.55Z"/><path class="cls-17" d="m228.9,347.41c.57.33,1,1.15,1,1.94,0,.99-.55,1.14-1,.88-.63-.36-1.01-1.26-1.01-1.94,0-.99.58-1.13,1.01-.88Zm-.05.18c-.28-.16-.53.05-.53.76,0,.77.26,1.48.63,1.7.28.16.52.03.52-.81,0-.71-.22-1.42-.62-1.65Z"/><path class="cls-17" d="m229.83,350.69v-.17c.29.13.33.12.33-.28v-2.92c0-.37-.02-.42-.32-.64v-.16c.25.11.53.17.68.18v3.74c0,.4.03.45.32.66v.17l-1.01-.59Z"/><path class="cls-17" d="m231.78,349.07c.57.33,1,1.15,1,1.94,0,.99-.55,1.14-1,.88-.63-.36-1.01-1.26-1.01-1.94,0-.99.58-1.13,1.01-.88Zm-.05.18c-.28-.16-.53.05-.53.76,0,.77.26,1.48.63,1.7.28.16.52.03.52-.81,0-.71-.22-1.42-.62-1.65Z"/><path class="cls-17" d="m233.42,351.87c-.11.05-.15.14-.15.22,0,.11.08.28.28.4.17.1.36.2.51.29.29.17.67.51.67,1.12,0,.63-.56.91-1.17.56-.52-.3-.8-.86-.8-1.23,0-.13.04-.23.11-.28.09-.08.27-.17.37-.22-.16-.16-.28-.36-.34-.53-.04-.12-.05-.23-.05-.29.17.01.33-.07.42-.18l.15.15Zm.22.19c-.42-.25-.78-.8-.78-1.37,0-.69.47-.75.82-.54.15.09.3.23.44.41.21.12.48.23.61.26l.03.07c-.03.08-.1.21-.17.23-.07-.04-.22-.15-.28-.19.08.18.13.41.13.63,0,.66-.41.74-.8.51Zm.11.96c-.22-.13-.32-.15-.41-.11-.13.07-.22.2-.22.37,0,.34.26.74.61.94.43.25.68.09.68-.3,0-.21-.07-.41-.2-.56-.11-.13-.27-.24-.47-.35Zm-.11-2.7c-.21-.12-.39.03-.39.51s.18.92.43,1.07c.2.1.38-.02.38-.51s-.17-.91-.42-1.06Z"/><path class="cls-17" d="m236.74,352.17c-.24-.09-.29-.07-.4.21-.11.28-.24.62-.55,1.5-.3.8-.38,1.13-.45,1.41-.03.11-.08.11-.14.08-.15-.08-.28-.3-.28-.45,0-.08.03-.12.1-.16.15-.07.25-.15.31-.27.1-.2.16-.37.19-.44.02-.08.02-.14,0-.26-.18-.8-.42-1.69-.56-2.21-.1-.39-.14-.49-.39-.68v-.16l.92.53v.16c-.21-.08-.23-.03-.17.23l.44,1.75c.13-.35.31-.92.41-1.25.05-.2.02-.29-.24-.49v-.16l.84.48v.16Z"/><path class="cls-17" d="m238.8,355.87v-.17c.3.12.33.08.27-.19-.06-.27-.15-.63-.25-1.07l-.99-.57c-.07.23-.14.43-.21.64-.1.34-.04.42.34.7v.17l-1.06-.61v-.17c.29.12.36.12.52-.34l.95-2.65.15.05c.29,1.21.6,2.54.89,3.76.15.61.19.69.51.92v.17l-1.13-.65Zm-.46-3.51c-.15.44-.3.9-.44,1.31l.85.49-.42-1.8Z"/><path class="cls-17" d="m240.05,354.16l-.32-.19-.02-.08.1-.12.24.14v-.03c0-.44.14-.8.42-.95.17-.1.4-.1.59-.02.34.2.51.51.59.68l-.21.25c-.09-.23-.23-.54-.53-.71-.42-.24-.52.37-.52.85v.15l.87.5v-.12c0-.48.14-.84.43-1,.18-.1.41-.08.58,0,.31.18.46.45.51.58.04.08.05.17.03.24-.02.05-.07.09-.11.12-.06,0-.11-.02-.16-.12-.1-.2-.25-.5-.47-.63-.14-.08-.24-.04-.29.04-.09.1-.16.42-.16.92v.18l.37.21c.37.21.65.36.86.42v2.14c0,.38.03.42.33.63v.17l-.99-.57v-.17c.27.12.3.11.3-.26v-1.5c0-.27-.01-.32-.24-.46l-.63-.36v1.76c0,.43.02.46.32.68v.17l-.99-.57v-.17c.28.13.3.11.3-.28v-1.8l-.87-.5v1.76c0,.43,0,.44.32.68v.17l-1.01-.58v-.17c.29.13.32.13.32-.27v-1.8Z"/><path class="cls-17" d="m243.07,358.33v-.17c.29.13.33.12.33-.28v-2.92c0-.37-.02-.42-.32-.64v-.16c.25.11.53.17.68.18v3.74c0,.4.03.45.32.66v.17l-1.01-.59Z"/><path class="cls-17" d="m244,358.87v-.17c.29.13.32.12.32-.3v-1.25c0-.38-.01-.41-.29-.63v-.15c.24.08.45.13.65.13v2.11c0,.41.03.46.33.67v.17l-1.01-.58Zm.48-3.08c-.13-.07-.24-.29-.24-.46,0-.19.11-.27.25-.19.13.07.23.27.23.47,0,.17-.1.26-.24.19Z"/><path class="cls-17" d="m246.36,360.31c-.07-.04-.17-.15-.21-.24-.06-.11-.09-.21-.11-.34-.18.06-.41.16-.55.07-.32-.19-.56-.68-.56-1.07,0-.3.12-.42.37-.39.28.03.62.07.72.02v-.12c0-.43-.16-.78-.4-.91-.11-.06-.17-.03-.21.02-.05.06-.08.17-.12.32-.02.08-.06.1-.13.06-.09-.05-.2-.24-.2-.38,0-.09.06-.12.15-.16.13-.05.4-.12.66-.05.14.08.28.22.38.39.16.28.23.52.23.84v1.18c0,.28.08.41.16.46.05.03.11.04.16.03l.05.2-.39.08Zm-.33-1.73c-.1,0-.32.01-.42.01-.17,0-.28.06-.28.28,0,.32.18.57.33.66.12.07.28.07.37,0v-.95Z"/><path class="cls-17" d="m247.47,360.87c-.08,0-.15,0-.2-.03-.29-.17-.45-.5-.45-.98v-1.77l-.32-.18-.02-.08.12-.11.21.12v-.51c.09-.07.22-.15.31-.23l.07.05c0,.25-.01.6-.01.89l.52.3c.04.08.03.21-.03.23l-.49-.28v1.56c0,.49.15.67.27.74.11.06.21.07.28.06l.04.18-.3.04Z"/><path class="cls-17" d="m249.23,361.37c-.29.32-.61.24-.76.15-.56-.32-.9-1.13-.9-1.83,0-.41.11-.73.3-.89.19-.18.44-.19.68-.05.4.23.7.86.7,1.35,0,.12-.02.17-.09.15-.09-.03-.68-.31-1.22-.6-.01.81.36,1.36.69,1.55.19.11.36.1.53,0l.07.18Zm-.79-2.45c-.21-.12-.42.02-.48.48.26.15.51.3.78.43.08.05.11.03.11-.06,0-.32-.16-.7-.41-.85Z"/><path class="cls-17" d="m250.4,360.62c-.08-.4-.2-.71-.48-.87-.16-.09-.28-.01-.28.23,0,.26.13.46.39.77.39.48.59.77.59,1.17,0,.56-.38.63-.74.42-.24-.14-.45-.36-.54-.48-.02-.19-.06-.55-.08-.76l.13.05c.08.44.24.85.56,1.03.17.1.32.03.32-.23,0-.27-.12-.49-.37-.78-.32-.39-.58-.74-.58-1.18s.28-.62.71-.37c.19.11.35.26.44.33.01.15.05.56.07.72l-.13-.03Z"/><polygon class="cls-108" points="250.29 357.72 218.36 339.28 218.36 338.55 250.29 356.99 250.29 357.72"/><path class="cls-77" d="m156.85,439.85c5.38-.14,11.24-2.75,14.65-5.77,1.45-1.29,2.46-2.65,2.81-3.93.73-2.74-.76-6.48-3.84-9.52-3.77-4.06-4.7-10.54-3.09-16.42,3-10.97,12.27-41.6,12.27-41.6.88-2.98-1.87-5.99-6.1-6.69-2.94-.49-5.79.28-7.51,1.79-.81.72-1.37,1.6-1.55,2.6,0,0-4.88,31.97-7.82,43-1.29,4.86-3.79,8.09-6.4,10.4-.78.69-1.58,1.31-2.35,1.86-.48.34-1.59,1.14-2.83,2.24-.5.44-1.02.93-1.54,1.46-.46.48-.2,1.15.52,1.45l.71.29.17.08c-1.4,1.8-3.97,5.88-2.54,10.26.42,1.32,1.08,2.44,1.77,3.37.27.37.96.42,1.3.12.02-.02.03-.03.05-.05l7.57-8.78,3.85.02,5.41,2.23c.7.28.96.9.6,1.38l-6.95,9.3c-.32.43.17.96.86.94Zm11.42-78.82c.12-.44.37-.82.73-1.15.86-.76,2.29-1.14,3.77-.9,2.09.35,3.47,1.82,3.07,3.3-.12.45-.38.83-.75,1.16-.86.77-2.28,1.15-3.75.9-2.1-.35-3.47-1.82-3.08-3.31Z"/><path class="cls-17" d="m155.89,438.63c5.38-.15,11.24-2.75,14.65-5.78,1.46-1.29,2.46-2.65,2.8-3.93.26-.99.23-2.12-.05-3.3l-.43-2.14-.42-.12c-.69-1.37-1.67-2.73-2.93-3.97-3.77-4.05-4.7-10.53-3.09-16.41,3-10.97,12.27-41.6,12.27-41.6.19-.66.2-1.33.06-1.96l-.51-2.53-.63.04-.07.25c-1.11-1.21-2.85-2.13-4.96-2.48-2.95-.49-5.8.28-7.51,1.79-.81.72-1.37,1.6-1.55,2.6,0,0-4.88,31.97-7.82,43-1.29,4.86-3.79,8.09-6.4,10.4-.64.57-1.3,1.09-1.94,1.56-.14.1-.27.2-.41.3-.48.34-1.59,1.14-2.83,2.24,0,0-.02.01-.02.02l-2.21-.24.47,2.33h0c.04.32.31.64.74.81l.7.29,11.27,4.64,6.31,2.59c.09.03.16.07.23.11.52.31.68.84.37,1.26l-5.2,6.96-1.6-.42-.71.82.47,2.31c.08.3.46.57.95.55Zm11.42-78.82c.12-.44.37-.83.74-1.15.86-.76,2.29-1.14,3.76-.9,2.09.34,3.47,1.82,3.07,3.3-.12.44-.38.83-.75,1.16-.86.76-2.29,1.14-3.75.9-2.1-.35-3.47-1.82-3.08-3.3Zm-16.65,59.21c-.31-.13-.43-.42-.25-.63l.47-.58.09-.11.3-.37.64-.81,1.74-2.18.56-.69s.03-.03.05-.05c.2-.17.54-.22.83-.09l7.21,3.08c.31.13.43.42.25.63l-.11.14-2.38,2.99-.35.43-.39.49-.12.15-.43.53s-.01.02-.02.03c0,0-.02.02-.03.03-.03.03-.07.06-.11.08-.14.07-.31.1-.48.08-.08-.01-.15-.03-.22-.06l-7.21-3.08Z"/><path class="cls-74" d="m161.61,427.13c-.07-.04-.14-.08-.23-.11l-6.31-2.59-11.27-4.64-.7-.29c-.44-.18-.7-.49-.74-.82h0s-.47-2.32-.47-2.32l2.21.24s.02-.01.02-.02c1.24-1.1,2.35-1.9,2.83-2.24.14-.1.27-.2.41-.3l4.55,2.48-.64.81-.3.37-.09.11-.47.58c-.18.22-.06.5.25.63l7.21,3.08c.08.03.15.05.22.06.17.02.34,0,.48-.08.04-.02.08-.05.11-.08.01,0,.03-.02.03-.03,0,0,.02-.02.02-.03l.43-.53.12-.15.39-.49,4.7,2.56-2.78,3.8Z"/><path class="cls-17" d="m157.25,419.98l-.06-.03-.82-.35-1-.43-.82-.35h0s-1.13-.49-1.13-.49l-.82-.35-.78-.33-.82-.35-.99-.42c-.32-.13-.43-.42-.26-.64l.47-.58c.25,0,.71.23.69.42-.02.16-.02.53.18.73.04.05.09.08.15.11.02.01.05.02.08.03.31.08.5-.03.67-.16h0c.16-.13.29-.26.47-.21.25.07.1.53.27.83.06.12.17.21.37.25.17.03.32,0,.46-.05.29-.1.55-.3.8-.25.27.05.19.47.35.75.06.12.17.22.37.25.19.03.34.02.46-.01.32-.09.47-.3.75-.18.21.1.21.36.27.61.04.22.13.41.42.46.1.01.23,0,.37-.05.3-.09.65-.24.82-.2.16.04.32.17.4.26,0,0,.02.02.03.03l-.44.54s-.01.02-.02.02c-.05.04-.1.08-.15.12-.14.07-.32.1-.49.07-.07-.02-.14-.03-.22-.06Z"/><path class="cls-17" d="m159.36,420.96c-.48-.16-.67-.98-.54-2.04h0c.05-.45.16-.94.32-1.44.56-1.69,1.57-2.88,2.26-2.65.68.23.78,1.79.21,3.48-.56,1.69-1.58,2.88-2.26,2.65Z"/><path class="cls-94" d="m155.41,436.28c5.38-.15,11.24-2.75,14.65-5.78,1.46-1.29,2.46-2.65,2.8-3.93.73-2.74-.76-6.48-3.84-9.53-3.77-4.05-4.7-10.53-3.09-16.41,3-10.97,12.27-41.6,12.27-41.6.88-2.98-1.88-5.99-6.11-6.69-2.95-.49-5.8.28-7.51,1.79-.81.72-1.37,1.6-1.55,2.6,0,0-4.88,31.97-7.82,43-1.29,4.86-3.79,8.09-6.4,10.4-.78.69-1.58,1.31-2.35,1.85-.48.34-1.59,1.14-2.83,2.24-.5.44-1.02.93-1.53,1.46-.46.48-.21,1.15.52,1.45l.7.29,11.27,4.64,6.31,2.59c.69.28.96.9.6,1.38l-6.94,9.29c-.32.42.17.96.86.94Zm11.42-78.82c.12-.44.37-.83.74-1.15.86-.76,2.29-1.14,3.76-.9,2.09.34,3.47,1.82,3.07,3.3-.12.44-.38.83-.75,1.16-.86.76-2.29,1.14-3.75.9-2.1-.35-3.47-1.82-3.08-3.3Zm-16.65,59.21c-.31-.13-.43-.42-.25-.63l.47-.58.09-.11.3-.37.63-.79,1.75-2.2.53-.66.03-.03s.03-.03.05-.05c.2-.17.54-.22.83-.09l7.21,3.08c.31.13.43.42.25.63l-.11.14-1.57,1.97-.81,1.02-.74.93-.12.15-.43.53s-.01.02-.02.03c0,0-.02.02-.03.03-.03.03-.07.06-.11.08-.14.07-.31.1-.48.08-.08-.01-.15-.03-.22-.06l-6.05-2.58-1.15-.5Z"/><path class="cls-78" d="m161.71,405.4c.22-.2.39-.44.47-.71l11.2-37.96c.53-1.78-1.12-3.59-3.66-4.01-1.76-.29-3.47.17-4.49,1.08-.49.43-.82.96-.93,1.57l-7,38.6c-.17.92.71,1.81,2,2.02.94.16,1.86-.09,2.41-.58"/><path class="cls-112" d="m144.33,432.69s.03-.03.05-.05l7.57-8.77,3.03.02-.31-1.45-10.97-3.19c-1.1,1.39-2.98,4.1-2.88,7.47l-.12.15.29,1.34h0c.07.33.15.66.26,1,.42,1.31,1.08,2.44,1.77,3.36.27.37.96.42,1.3.12Z"/><path class="cls-109" d="m154.67,422.44l-11.28-4.64c-1.36,1.71-3.91,5.45-2.45,9.96.42,1.31,1.08,2.44,1.77,3.36.27.37.96.42,1.3.12.02-.02.03-.03.05-.05l7.57-8.77,3.03.02"/><path class="cls-4" d="m156.27,418.18c-.39-.17-.54.3-1.21.19-.66-.12-.33-.92-.72-1-.39-.08-.76.4-1.27.3-.71-.15-.29-.99-.64-1.09-.36-.1-.52.53-1.14.37-.03,0-.38-.21-.4-.23-.21-.61-.15-1.63.18-2.72.02-.07.04-.14.06-.21.55-1.66,1.53-2.84,2.22-2.66.01,0,.03,0,.04,0l8.01,3.68c-.69-.23-1.7.96-2.26,2.65-.17.5-.28.99-.32,1.43h0s-.12.15-.12.15l-.16.19c-.08-.09-.24-.23-.4-.26-.24-.06-.88.3-1.19.25-.62-.1-.29-.9-.68-1.07Z"/><path class="cls-35" d="m156.95,419.25c-.29-.05-.37-.24-.42-.46.09-.38.22-.86.4-1.41.37-1.1.84-2.3,1.74-3.8.12-.21.41-.33.62-.2.2.12.29.37.18.57-1.35,2.25-1.92,4.21-2.15,5.25-.14.04-.27.07-.37.05Z"/><path class="cls-76" d="m155.06,418.36c-.2-.03-.3-.13-.37-.25.09-.4.23-.91.43-1.5.37-1.1.84-2.3,1.74-3.81.12-.2.41-.32.62-.2.2.12.3.37.18.57-1.32,2.2-1.89,4.12-2.13,5.18-.12.03-.27.04-.46.01Z"/><path class="cls-24" d="m153.08,417.67c-.2-.04-.31-.13-.37-.25.09-.42.24-.99.47-1.67.37-1.1.84-2.31,1.74-3.81.12-.21.41-.32.62-.2.2.12.3.37.17.58-1.38,2.3-1.94,4.29-2.16,5.31-.14.06-.3.08-.46.05Z"/><path class="cls-9" d="m151.3,416.95s-.05-.02-.08-.03c-.06-.03-.11-.06-.15-.11.09-.44.25-1.07.51-1.85.37-1.1.84-2.31,1.74-3.81.12-.21.41-.32.62-.2.2.12.3.37.17.58-1.35,2.26-1.92,4.22-2.14,5.26h0c-.17.13-.36.25-.67.17Z"/><path class="cls-38" d="m428.69,458.56c-1.71-.32-3.31.2-3.57,1.15v-.02s0,.02,0,.02c0,.01,0,.02-.02.04l-.05.11c-.05.08-.08.16-.13.25-.09.17-.21.34-.33.51-.26.35-.54.69-.87,1.04-.65.68-1.42,1.34-2.26,1.98-.83.64-1.78,1.24-2.73,1.83-.5.28-.99.58-1.5.85l-.77.4-.39.2-.41.19c-2.15,1.02-4.51,1.93-7.03,2.7-1.25.4-2.55.75-3.87,1.08-.66.17-1.33.32-2,.47-.33.08-.67.15-1.01.21-.32.07-.69.14-.96.18l-.18.03c-.16.03-.3.06-.45.1l-1.78.27.55-1.01c.08-.08.15-.16.2-.25l.06-.1c.1-.15.24-.36.37-.54.14-.19.27-.38.42-.57.29-.38.6-.75.92-1.13.65-.74,1.32-1.47,2.07-2.18,1.47-1.41,3.16-2.73,5.04-3.92l.35-.22.37-.21.73-.43c.5-.28,1.03-.55,1.55-.82,1.07-.52,2.15-1.04,3.3-1.48,1.14-.45,2.32-.86,3.54-1.2.61-.17,1.22-.32,1.84-.45.3-.06.61-.12.91-.17.15-.03.29-.04.43-.06l.19-.02s.05,0,.07,0h.03s-.03,0-.03,0c1.67-.1,2.64-1,2.18-2-.46-1-2.19-1.73-3.86-1.62l-.29.02-.22.02-.38.04c-.23.03-.48.06-.7.09-.45.06-.88.14-1.3.21-.83.16-1.63.33-2.39.53-1.53.39-2.96.85-4.32,1.34-1.37.49-2.63,1.05-3.88,1.61-.61.29-1.21.58-1.8.89l-.88.47-.44.24-.42.25c-2.24,1.32-4.23,2.76-5.98,4.29-.88.76-1.69,1.56-2.46,2.37-.38.41-.75.82-1.11,1.24-.18.21-.35.43-.52.64l-.13.17c-.91-.21-1.84,0-2.11.49l-1,1.83c-.28.51.25,1.14,1.2,1.39l.9.24-.75.34-1.29.59-9.47,4.35-8,7.61,2,1.22h0s1.94,1.18,1.94,1.18l13.57-4.22,1.31-.85.35-.23,7.75-5.06c.5.34,1.28.53,1.98.42l3.21-.49c.87-.13,1.28-.66.96-1.19l.3-.07c.38-.09.77-.18,1.14-.27.75-.18,1.48-.38,2.21-.58,1.44-.4,2.86-.83,4.23-1.3,2.75-.93,5.34-2,7.73-3.23l.45-.23.43-.24.86-.48c.56-.33,1.09-.66,1.63-.99,1.04-.69,2.07-1.39,2.99-2.16.93-.76,1.79-1.56,2.54-2.42.38-.43.72-.88,1.04-1.35.15-.24.3-.48.43-.74.07-.12.13-.26.19-.4l.09-.22.04-.12.05-.17c.26-.95-.91-1.99-2.62-2.3Z"/><path class="cls-62" d="m394.54,472.36l-5.31-1.43c-.94-.25-1.48-.88-1.2-1.39l1-1.83c.27-.49,1.2-.7,2.11-.49l.13-.17c.17-.22.35-.43.52-.64.36-.42.72-.84,1.11-1.24.77-.81,1.58-1.61,2.46-2.37,1.74-1.54,3.73-2.98,5.98-4.29l.42-.25.44-.24.88-.47c.59-.31,1.2-.59,1.8-.89,1.25-.57,2.51-1.12,3.88-1.61,1.36-.5,2.79-.95,4.32-1.34.76-.2,1.56-.37,2.39-.53.42-.08.85-.15,1.3-.21.2-.03.43-.06.65-.08l.96-1.93,2.53-.41,1.4,1.01v3.34s0,0,0,0c.02.8-.89,1.45-2.29,1.53h.03s-.03,0-.03,0c-.03,0-.04,0-.07,0l-.19.02c-.14.02-.28.04-.43.06-.29.05-.6.11-.91.17-.61.13-1.23.28-1.84.45-1.22.34-2.4.75-3.54,1.2-1.15.45-2.23.96-3.3,1.48-.52.27-1.05.54-1.55.82l-.73.42-.37.21-.35.22c-1.88,1.19-3.56,2.5-5.04,3.92-.75.7-1.43,1.43-2.07,2.17-.32.37-.63.75-.92,1.13-.15.19-.29.38-.42.57-.13.18-.27.39-.37.54l-.06.1c-.06.09-.13.17-.2.25l-.94,1.71c-.28.51-1.28.72-2.22.47Z"/><path class="cls-68" d="m419.32,469.41c-2.39,1.23-4.98,2.3-7.73,3.23-1.37.47-2.78.89-4.23,1.3-.72.2-1.46.39-2.21.58-.37.09-.75.18-1.14.27l-.3.07c.32.54-.09,1.06-.96,1.19l-3.21.49c-.9.14-1.95-.2-2.35-.76l-2.2-3.13c-.39-.56.02-1.12.93-1.26l3.01-.45c.14-.04.29-.08.45-.1l.18-.03c.27-.05.63-.12.96-.19.33-.07.67-.14,1.01-.21.67-.15,1.34-.3,2-.47,1.32-.33,2.62-.69,3.87-1.08,2.52-.78,4.88-1.68,7.03-2.7l.41-.19.39-.2.77-.4c.51-.27,1.01-.57,1.5-.85.96-.59,1.9-1.19,2.73-1.83.84-.63,1.61-1.29,2.26-1.98.33-.34.61-.69.87-1.03.12-.17.24-.35.33-.51.06-.09.09-.16.13-.24l.05-.11s.01-.03.02-.04v-.02s0,.02,0,.02c.23-.82,1.45-1.32,2.88-1.24l1.24-.99,2.1-.25v3.27c.01.12,0,.25-.03.37l-.05.17-.04.12-.09.22c-.06.13-.12.27-.19.4-.13.26-.28.5-.43.74-.31.47-.66.92-1.04,1.35-.75.86-1.62,1.66-2.54,2.42-.92.77-1.95,1.47-2.99,2.16-.54.33-1.06.67-1.63,1l-.86.48-.43.24-.45.23Z"/><polygon class="cls-18" points="388.15 478.91 389.46 478.06 389.81 477.83 400.22 471.03 396.55 468.95 396.44 468.89 396.39 468.86 372.57 481.92 374.58 483.13 388.15 478.91"/><polygon class="cls-33" points="372.63 481.95 396.44 468.89 396.42 468.88 396.25 468.76 392.88 466.57 389.38 468.18 388.09 468.78 378.62 473.13 370.63 480.74 372.63 481.95"/><path class="cls-89" d="m390.02,475.19c1.12-.62,1.06-1.72-.12-2.52-.05-.03-.1-.07-.15-.1h-.02s-.04-.04-.06-.04c-.02-.01-.05-.03-.08-.05-1.31-.72-3.23-.81-4.35-.2-1.15.63-1.05,1.77.19,2.56.02.01.04.03.06.04h.02c1.32.81,3.34.94,4.51.3Zm-.31-.19c-1.02.56-2.78.45-3.93-.25h-.02s-.04-.04-.06-.05c-1.08-.69-1.15-1.68-.16-2.23,1-.55,2.7-.45,3.85.2.02,0,.04.02.06.03h.02c1.15.71,1.25,1.73.23,2.29Z"/><path class="cls-89" d="m389.46,478.06l.35-.23c-3.77-.06-7.24-1.23-7.28-1.25l-.06-.02-.07-.02-.12.06-9.97,5.16.31.19.53-.27,9.35-4.84c.66.21,3.65,1.11,6.96,1.23Z"/><polygon class="cls-89" points="397.09 468.65 396.78 468.46 389.46 472.56 389.77 472.75 397.09 468.65"/><path class="cls-95" d="m419.25,466.69c-2.39,1.23-4.98,2.3-7.73,3.23-1.37.47-2.78.89-4.23,1.3-.72.2-1.46.39-2.21.58-.37.09-.75.18-1.14.27l-.3.07c.32.54-.09,1.06-.96,1.19l-3.22.49c-.9.14-1.95-.2-2.35-.76l-2.2-3.13c-.39-.56.02-1.12.93-1.26l3.01-.45c.14-.04.29-.08.45-.1l.18-.03c.27-.05.63-.12.96-.19.34-.07.67-.14,1-.21.67-.15,1.34-.3,2-.47,1.32-.33,2.62-.69,3.87-1.08,2.52-.78,4.88-1.68,7.03-2.7l.41-.19.39-.2.77-.4c.51-.27,1.01-.57,1.5-.85.96-.59,1.9-1.19,2.73-1.83.84-.63,1.61-1.29,2.26-1.98.33-.34.61-.69.87-1.04.12-.17.24-.35.33-.51.06-.09.09-.16.13-.25l.05-.11s.01-.03.02-.04v-.02s0,.02,0,.02c.26-.95,1.86-1.47,3.57-1.15,1.71.32,2.88,1.35,2.62,2.3l-.05.17-.04.12-.09.22c-.06.13-.12.27-.19.4-.13.26-.28.5-.43.74-.31.47-.66.92-1.04,1.35-.75.86-1.62,1.66-2.54,2.42-.92.77-1.95,1.47-2.99,2.16-.54.33-1.06.67-1.63,1l-.86.48-.43.24-.45.23Z"/><path class="cls-10" d="m401.28,455.78c-2.24,1.32-4.23,2.76-5.97,4.29-.88.76-1.69,1.56-2.46,2.37-.38.41-.75.82-1.11,1.24-.18.21-.35.43-.52.64l-.13.17c-.91-.21-1.84,0-2.11.49l-1,1.83c-.28.51.25,1.14,1.2,1.39l5.31,1.43c.94.25,1.94.04,2.22-.47l.94-1.71c.08-.08.15-.16.2-.25l.06-.1c.1-.15.24-.36.37-.54.14-.19.27-.38.42-.57.29-.38.6-.75.92-1.13.65-.74,1.32-1.47,2.07-2.17,1.47-1.41,3.16-2.73,5.04-3.92l.35-.22.37-.21.73-.42c.5-.28,1.03-.55,1.55-.82,1.07-.52,2.15-1.04,3.3-1.48,1.14-.45,2.32-.86,3.54-1.2.61-.17,1.22-.32,1.84-.45.3-.06.61-.12.91-.17.15-.03.29-.04.43-.06l.19-.02s.05,0,.07,0h.03s-.03,0-.03,0c1.67-.1,2.64-1,2.18-2-.46-1-2.19-1.73-3.86-1.62l-.29.02-.22.02-.38.04c-.23.03-.48.06-.7.09-.45.06-.88.14-1.3.21-.83.16-1.63.33-2.39.53-1.53.39-2.96.85-4.32,1.34-1.37.49-2.63,1.05-3.88,1.61-.61.29-1.21.58-1.81.89l-.88.47-.44.24-.42.25Z"/><path class="cls-105" d="m397.12,473.04s.74,1.29.4,1.96c-.35.67,1.42-.12,1.42-.12,0,0,1.84-.27,1.89-.39.05-.12.45-.69.45-.69l-2.94-.38-1.22-.38Z"/><path class="cls-71" d="m389.38,468.18c-.04-.08-.07-.16-.08-.17-.01-.02-.84-.47-.84-.47l-.24-.3-.23-.28.3-.2v-.34s-.35.02-.35.02l-.06.64.04.26s-.11.96.16,1.43l1.29-.59Z"/><path class="cls-21" d="m419.31,466.07c-2.39,1.23-4.98,2.3-7.73,3.23-1.37.47-2.78.89-4.23,1.3-.72.2-1.46.39-2.21.58-.37.09-.75.18-1.14.27l-.3.07c.32.53-.09,1.06-.96,1.19l-3.22.49c-.9.14-1.95-.2-2.35-.76l-2.2-3.13c-.39-.56.02-1.12.93-1.26l3.01-.45c.14-.04.29-.08.44-.1l.18-.03c.27-.05.63-.12.96-.18.33-.07.67-.14,1.01-.21.67-.15,1.34-.3,2-.47,1.32-.33,2.62-.69,3.87-1.08,2.52-.78,4.88-1.68,7.03-2.7l.41-.19.39-.2.77-.4c.51-.27,1.01-.57,1.5-.85.96-.59,1.9-1.19,2.73-1.83.84-.64,1.61-1.29,2.26-1.98.33-.34.61-.69.87-1.04.12-.17.24-.35.33-.51.06-.09.09-.16.13-.24l.05-.11s.01-.03.02-.04v-.02s0,.02,0,.02c.26-.95,1.86-1.47,3.57-1.15,1.71.32,2.88,1.35,2.62,2.3l-.05.17-.04.12-.09.22c-.06.13-.12.27-.19.4-.13.26-.28.5-.43.74-.31.47-.66.92-1.04,1.35-.75.86-1.62,1.66-2.54,2.42-.92.77-1.95,1.47-2.99,2.16-.54.33-1.06.67-1.63.99l-.86.48-.43.24-.45.23Z"/><path class="cls-116" d="m401.34,455.17c-2.24,1.32-4.23,2.76-5.98,4.29-.88.76-1.69,1.56-2.46,2.37-.38.41-.75.82-1.11,1.24-.18.21-.35.43-.52.64l-.13.17c-.91-.21-1.84,0-2.11.49l-1,1.83c-.28.51.25,1.14,1.2,1.39l5.31,1.43c.94.25,1.94.04,2.22-.47l.94-1.71c.08-.08.15-.16.2-.25l.06-.1c.1-.15.24-.36.37-.54.14-.19.27-.38.42-.57.29-.38.6-.75.92-1.13.65-.74,1.32-1.47,2.07-2.18,1.47-1.41,3.16-2.73,5.04-3.92l.35-.22.37-.21.73-.43c.5-.28,1.03-.55,1.55-.82,1.07-.52,2.15-1.04,3.3-1.48,1.14-.45,2.32-.86,3.54-1.2.61-.17,1.22-.32,1.84-.45.3-.06.61-.12.91-.17.15-.03.29-.04.43-.06l.19-.02s.05,0,.07,0h.03s-.03,0-.03,0c1.67-.1,2.64-1,2.18-2-.46-1-2.19-1.73-3.86-1.62l-.29.02-.22.02-.38.04c-.23.03-.48.06-.7.09-.45.06-.88.14-1.3.21-.83.16-1.63.33-2.39.53-1.53.39-2.96.85-4.32,1.34-1.37.49-2.63,1.05-3.88,1.61-.61.29-1.21.58-1.81.89l-.88.47-.44.24-.42.25Z"/><polygon class="cls-17" points="374.58 483.13 374.71 485.24 388.28 481.02 388.15 478.91 374.58 483.13"/><path class="cls-17" d="m388.15,478.91l8.97-5.87s.77,1.22.4,1.96l-9.24,6.02-.13-2.11Z"/><polygon class="cls-89" points="389.81 477.83 389.94 479.94 389.59 480.17 389.46 478.06 389.81 477.83"/><polygon class="cls-27" points="374.58 483.13 370.63 480.74 370.76 482.85 374.71 485.24 374.58 483.13"/><polygon class="cls-89" points="372.61 481.94 372.75 484.05 372.44 483.87 372.31 481.76 372.61 481.94"/></g></g></svg>