<?xml version="1.0" encoding="UTF-8"?><svg id="Layer_1" xmlns="http://www.w3.org/2000/svg" width="700" height="512" xmlns:xlink="http://www.w3.org/1999/xlink" viewBox="0 0 700 512"><defs><style>.cls-1{fill:url(#linear-gradient-38);}.cls-1,.cls-2,.cls-3,.cls-4,.cls-5,.cls-6,.cls-7,.cls-8,.cls-9,.cls-10,.cls-11,.cls-12,.cls-13,.cls-14,.cls-15,.cls-16,.cls-17,.cls-18,.cls-19,.cls-20,.cls-21,.cls-22,.cls-23,.cls-24,.cls-25,.cls-26,.cls-27,.cls-28,.cls-29,.cls-30,.cls-31,.cls-32,.cls-33,.cls-34,.cls-35,.cls-36,.cls-37,.cls-38,.cls-39,.cls-40,.cls-41,.cls-42,.cls-43,.cls-44,.cls-45,.cls-46,.cls-47,.cls-48,.cls-49,.cls-50,.cls-51,.cls-52,.cls-53,.cls-54,.cls-55,.cls-56,.cls-57,.cls-58,.cls-59,.cls-60,.cls-61,.cls-62,.cls-63,.cls-64,.cls-65,.cls-66,.cls-67,.cls-68,.cls-69,.cls-70,.cls-71,.cls-72,.cls-73,.cls-74,.cls-75,.cls-76,.cls-77,.cls-78,.cls-79,.cls-80,.cls-81{stroke-width:0px;}.cls-2{fill:url(#linear-gradient-12);}.cls-3{fill:url(#linear-gradient-17);}.cls-4{fill:url(#linear-gradient-19);}.cls-5{fill:url(#linear-gradient-33);}.cls-6{fill:url(#linear-gradient);}.cls-7{fill:url(#linear-gradient-62);}.cls-8{fill:url(#linear-gradient-67);}.cls-9{fill:url(#linear-gradient-57);}.cls-10{fill:url(#linear-gradient-21);}.cls-11{fill:url(#linear-gradient-6);}.cls-12{fill:url(#linear-gradient-42);}.cls-13{fill:#f7fafc;}.cls-15{opacity:.3;}.cls-16{fill:url(#linear-gradient-15);}.cls-17{fill:url(#linear-gradient-11);}.cls-18{fill:url(#linear-gradient-73);}.cls-19{fill:url(#linear-gradient-5);}.cls-20{fill:url(#linear-gradient-31);}.cls-21{fill:url(#linear-gradient-71);}.cls-22{fill:url(#linear-gradient-58);}.cls-23{fill:url(#linear-gradient-63);}.cls-24{fill:url(#linear-gradient-34);}.cls-25{opacity:.2;}.cls-26{fill:url(#linear-gradient-41);}.cls-27{fill:url(#linear-gradient-40);}.cls-28{fill:url(#linear-gradient-66);}.cls-29{fill:url(#linear-gradient-13);}.cls-30{fill:url(#linear-gradient-23);}.cls-31{fill:url(#linear-gradient-25);}.cls-32{fill:url(#linear-gradient-43);}.cls-33{fill:#ffa87e;}.cls-34{fill:url(#linear-gradient-16);}.cls-35{fill:url(#linear-gradient-22);}.cls-36{fill:url(#linear-gradient-54);}.cls-37{fill:url(#linear-gradient-55);}.cls-38{fill:url(#linear-gradient-35);}.cls-39{fill:url(#linear-gradient-50);}.cls-40{fill:url(#linear-gradient-32);}.cls-41{fill:url(#linear-gradient-60);}.cls-42{fill:url(#linear-gradient-59);}.cls-43{fill:url(#linear-gradient-20);}.cls-44{fill:url(#linear-gradient-14);}.cls-45{fill:url(#linear-gradient-2);}.cls-46{fill:url(#linear-gradient-52);}.cls-47{fill:url(#linear-gradient-45);}.cls-48{fill:url(#linear-gradient-7);}.cls-49{fill:url(#linear-gradient-39);}.cls-50{fill:url(#linear-gradient-3);}.cls-51{fill:url(#linear-gradient-69);}.cls-52{fill:url(#linear-gradient-9);}.cls-53{fill:url(#linear-gradient-27);}.cls-54{fill:url(#linear-gradient-53);}.cls-55{fill:url(#linear-gradient-65);}.cls-56{fill:url(#linear-gradient-36);}.cls-57{fill:url(#linear-gradient-48);}.cls-58{fill:url(#linear-gradient-49);}.cls-59{fill:url(#linear-gradient-8);}.cls-60{fill:#ebebeb;}.cls-61{fill:url(#linear-gradient-47);}.cls-62{fill:url(#linear-gradient-24);}.cls-63{fill:url(#linear-gradient-26);}.cls-64{fill:url(#linear-gradient-61);}.cls-65{fill:url(#linear-gradient-18);}.cls-66{fill:url(#linear-gradient-51);}.cls-67{fill:url(#linear-gradient-30);}.cls-68{fill:url(#linear-gradient-44);}.cls-69{fill:url(#linear-gradient-68);}.cls-70{fill:url(#linear-gradient-72);}.cls-71{fill:url(#linear-gradient-29);}.cls-72{fill:url(#linear-gradient-46);}.cls-73{fill:#1e1e1e;}.cls-74{fill:url(#linear-gradient-64);}.cls-75{fill:url(#linear-gradient-28);}.cls-76{fill:url(#linear-gradient-56);}.cls-77{fill:#103a44;}.cls-78{fill:url(#linear-gradient-10);}.cls-79{fill:url(#linear-gradient-70);}.cls-80{fill:url(#linear-gradient-4);}.cls-81{fill:url(#linear-gradient-37);}</style><linearGradient id="linear-gradient" x1="238.08" y1="299.79" x2="243.5" y2="299.79" gradientUnits="userSpaceOnUse"><stop offset="0" stop-color="#5a5b5b"/><stop offset="1" stop-color="#3a3a3a"/></linearGradient><linearGradient id="linear-gradient-2" x1="986.86" y1="363.16" x2="992.28" y2="363.16" gradientTransform="translate(1337.89) rotate(-180) scale(1 -1)" xlink:href="#linear-gradient"/><linearGradient id="linear-gradient-3" x1="924.4" y1="398.5" x2="929.82" y2="398.5" gradientTransform="translate(1337.89) rotate(-180) scale(1 -1)" xlink:href="#linear-gradient"/><linearGradient id="linear-gradient-4" x1="262.26" y1="393.65" x2="267.68" y2="393.65" gradientTransform="translate(212.86)" xlink:href="#linear-gradient"/><linearGradient id="linear-gradient-5" x1="297.54" y1="373.94" x2="302.96" y2="373.94" gradientTransform="translate(212.86)" xlink:href="#linear-gradient"/><linearGradient id="linear-gradient-6" x1="963.98" y1="340.24" x2="969.41" y2="340.24" gradientTransform="translate(1278.16) rotate(-180) scale(1 -1)" xlink:href="#linear-gradient"/><linearGradient id="linear-gradient-7" x1="231.82" y1="290.61" x2="242.49" y2="290.61" gradientUnits="userSpaceOnUse"><stop offset="0" stop-color="#181819"/><stop offset="1" stop-color="#000"/></linearGradient><linearGradient id="linear-gradient-8" x1="227.88" y1="291.57" x2="278.25" y2="291.57" gradientUnits="userSpaceOnUse"><stop offset=".09" stop-color="#383839"/><stop offset=".87" stop-color="#242425"/></linearGradient><linearGradient id="linear-gradient-9" x1="227.88" y1="297.04" x2="268.76" y2="297.04" gradientUnits="userSpaceOnUse"><stop offset=".13" stop-color="#242425"/><stop offset="1" stop-color="#2f2f30"/></linearGradient><linearGradient id="linear-gradient-10" x1="252.58" y1="74" x2="307.88" y2="139.21" gradientUnits="userSpaceOnUse"><stop offset=".18" stop-color="#242425"/><stop offset=".82" stop-color="#0f0f0f"/></linearGradient><linearGradient id="linear-gradient-11" x1="254.92" y1="70.63" x2="311.2" y2="136.98" gradientUnits="userSpaceOnUse"><stop offset="0" stop-color="#383839"/><stop offset=".93" stop-color="#242425"/></linearGradient><linearGradient id="linear-gradient-12" x1="228.41" y1="95.21" x2="232.23" y2="95.21" gradientUnits="userSpaceOnUse"><stop offset=".18" stop-color="#0f0f0f"/><stop offset=".82" stop-color="#242425"/></linearGradient><linearGradient id="linear-gradient-13" x1="331.07" y1="151.34" x2="329.08" y2="154.74" xlink:href="#linear-gradient-8"/><linearGradient id="linear-gradient-14" x1="256.63" y1="237.65" x2="315.86" y2="237.65" xlink:href="#linear-gradient"/><linearGradient id="linear-gradient-15" x1="371.28" y1="174.58" x2="369.29" y2="177.98" xlink:href="#linear-gradient-8"/><linearGradient id="linear-gradient-16" x1="336.32" y1="350.92" x2="511.33" y2="350.92" gradientUnits="userSpaceOnUse"><stop offset=".44" stop-color="#383839"/><stop offset=".51" stop-color="#242425"/></linearGradient><linearGradient id="linear-gradient-17" x1="373.97" y1="339.13" x2="375.31" y2="342.24" gradientUnits="userSpaceOnUse"><stop offset=".09" stop-color="#666"/><stop offset="1" stop-color="#505050"/></linearGradient><linearGradient id="linear-gradient-18" x1="336.32" y1="313.78" x2="511.38" y2="313.78" gradientUnits="userSpaceOnUse"><stop offset=".44" stop-color="#383839"/><stop offset=".5" stop-color="#242425"/></linearGradient><linearGradient id="linear-gradient-19" y1="312.69" x2="375.31" y2="315.8" xlink:href="#linear-gradient-17"/><linearGradient id="linear-gradient-20" x1="336.32" y1="288.08" x2="511.28" y2="288.08" gradientUnits="userSpaceOnUse"><stop offset=".44" stop-color="#383839"/><stop offset=".5" stop-color="#242425"/></linearGradient><linearGradient id="linear-gradient-21" x1="373.97" y1="286.99" x2="375.31" y2="290.1" xlink:href="#linear-gradient-17"/><linearGradient id="linear-gradient-22" x1="336.32" y1="258.74" x2="511.28" y2="258.74" gradientUnits="userSpaceOnUse"><stop offset=".45" stop-color="#383839"/><stop offset=".51" stop-color="#242425"/></linearGradient><linearGradient id="linear-gradient-23" x1="336.6" y1="245.24" x2="510.62" y2="245.24" gradientUnits="userSpaceOnUse"><stop offset=".45" stop-color="#838484"/><stop offset=".48" stop-color="#505151"/></linearGradient><linearGradient id="linear-gradient-24" x1="336.32" y1="228.84" x2="511.26" y2="228.84" gradientUnits="userSpaceOnUse"><stop offset=".45" stop-color="#242425"/><stop offset=".53" stop-color="#000"/></linearGradient><linearGradient id="linear-gradient-25" x1="337.07" y1="195.94" x2="510.92" y2="195.94" xlink:href="#linear-gradient-7"/><linearGradient id="linear-gradient-26" x1="347.63" y1="180.65" x2="404.03" y2="180.65" gradientUnits="userSpaceOnUse"><stop offset="0" stop-color="#2b2b2c"/><stop offset=".29" stop-color="#2b2b2c"/><stop offset=".73" stop-color="#171718"/></linearGradient><linearGradient id="linear-gradient-27" x1="394.07" y1="191.1" x2="441.95" y2="191.1" gradientUnits="userSpaceOnUse"><stop offset="0" stop-color="#000"/><stop offset=".17" stop-color="#2b2b2c"/><stop offset=".48" stop-color="#2b2b2c"/><stop offset=".67" stop-color="#171718"/></linearGradient><linearGradient id="linear-gradient-28" x1="336.32" y1="164.57" x2="511.27" y2="164.57" gradientUnits="userSpaceOnUse"><stop offset=".44" stop-color="#383839"/><stop offset=".5" stop-color="#242425"/></linearGradient><linearGradient id="linear-gradient-29" x1="336.51" y1="152.37" x2="511.1" y2="152.37" xlink:href="#linear-gradient-24"/><linearGradient id="linear-gradient-30" x1="494.15" y1="129.52" x2="497" y2="133.49" xlink:href="#linear-gradient-11"/><linearGradient id="linear-gradient-31" x1="416.61" y1="83.02" x2="489.32" y2="133.11" xlink:href="#linear-gradient-11"/><linearGradient id="linear-gradient-32" x1="390.36" y1="79.88" x2="412.01" y2="119.26" xlink:href="#linear-gradient"/><linearGradient id="linear-gradient-33" x1="403.04" y1="99.86" x2="442.17" y2="126.82" gradientUnits="userSpaceOnUse"><stop offset="0" stop-color="#6a6b6b"/><stop offset="1" stop-color="#505151"/></linearGradient><linearGradient id="linear-gradient-34" x1="401.43" y1="145.25" x2="486.86" y2="145.25" xlink:href="#linear-gradient-7"/><linearGradient id="linear-gradient-35" x1="455.44" y1="150.95" x2="458.45" y2="156.49" xlink:href="#linear-gradient-11"/><linearGradient id="linear-gradient-36" x1="343.03" y1="125.51" x2="415.74" y2="175.59" xlink:href="#linear-gradient-11"/><linearGradient id="linear-gradient-37" x1="383.37" y1="140.03" x2="475.01" y2="140.03" xlink:href="#linear-gradient-7"/><linearGradient id="linear-gradient-38" x1="435.9" y1="107.44" x2="466.53" y2="107.44" xlink:href="#linear-gradient-11"/><linearGradient id="linear-gradient-39" x1="570.57" y1="155.68" x2="612.89" y2="155.68" gradientTransform="translate(77.04 -259.1) rotate(30) skewX(-30)" xlink:href="#linear-gradient-12"/><linearGradient id="linear-gradient-40" x1="384.56" y1="128.42" x2="484.78" y2="128.42" gradientUnits="userSpaceOnUse"><stop offset="0" stop-color="#838484"/><stop offset="1" stop-color="#6d7678"/></linearGradient><linearGradient id="linear-gradient-41" x1="423.11" y1="132.04" x2="484.78" y2="132.04" gradientUnits="userSpaceOnUse"><stop offset="0" stop-color="#6d7678"/><stop offset="1" stop-color="#838484"/></linearGradient><linearGradient id="linear-gradient-42" x1="381.3" y1="142.64" x2="405.57" y2="142.64" xlink:href="#linear-gradient-11"/><linearGradient id="linear-gradient-43" x1="301.96" y1="169.78" x2="303.52" y2="173.39" xlink:href="#linear-gradient-17"/><linearGradient id="linear-gradient-44" x1="333.47" y1="36.61" x2="347.62" y2="36.61" xlink:href="#linear-gradient"/><linearGradient id="linear-gradient-45" x1="341.19" y1="55.18" x2="379.1" y2="55.18" xlink:href="#linear-gradient"/><linearGradient id="linear-gradient-46" x1="261.95" y1="96.16" x2="301" y2="96.16" xlink:href="#linear-gradient-9"/><linearGradient id="linear-gradient-47" x1="275.93" y1="26.79" x2="331.24" y2="92" xlink:href="#linear-gradient-10"/><linearGradient id="linear-gradient-48" x1="278.27" y1="23.41" x2="334.55" y2="89.77" xlink:href="#linear-gradient-11"/><linearGradient id="linear-gradient-49" x1="257.13" y1="64.73" x2="360.29" y2="64.73" xlink:href="#linear-gradient-40"/><linearGradient id="linear-gradient-50" x1="251.76" y1="48" x2="255.59" y2="48" xlink:href="#linear-gradient-12"/><linearGradient id="linear-gradient-51" x1="261.95" y1="77.91" x2="276.1" y2="77.91" xlink:href="#linear-gradient"/><linearGradient id="linear-gradient-52" x1="269.66" y1="96.47" x2="307.58" y2="96.47" xlink:href="#linear-gradient"/><linearGradient id="linear-gradient-53" x1="724.82" y1="466.56" x2="748.48" y2="466.56" gradientTransform="translate(320.78 -259.1) rotate(30) skewX(-30)" xlink:href="#linear-gradient"/><linearGradient id="linear-gradient-54" x1="461.09" y1="365.37" x2="513.19" y2="365.37" xlink:href="#linear-gradient"/><linearGradient id="linear-gradient-55" x1="471.48" y1="373.48" x2="523.27" y2="373.48" gradientUnits="userSpaceOnUse"><stop offset="0" stop-color="#383839"/><stop offset=".9" stop-color="#242425"/></linearGradient><linearGradient id="linear-gradient-56" x1="461.09" y1="385.48" x2="481.58" y2="385.48" xlink:href="#linear-gradient"/><linearGradient id="linear-gradient-57" x1="481.58" y1="381.54" x2="523.27" y2="381.54" gradientUnits="userSpaceOnUse"><stop offset=".1" stop-color="#242425"/><stop offset=".88" stop-color="#000"/></linearGradient><linearGradient id="linear-gradient-58" x1="389.83" y1="189.87" x2="385.61" y2="191.02" gradientUnits="userSpaceOnUse"><stop offset="0" stop-color="#171717"/><stop offset="1" stop-color="#000"/></linearGradient><linearGradient id="linear-gradient-59" x1="552.96" y1="285.08" x2="623.98" y2="285.08" gradientTransform="translate(157.33 -268.94) rotate(30) skewX(-30)" gradientUnits="userSpaceOnUse"><stop offset="0" stop-color="#323233"/><stop offset=".93" stop-color="#242425"/></linearGradient><linearGradient id="linear-gradient-60" x1="290.85" y1="42.03" x2="322.57" y2="42.03" xlink:href="#linear-gradient-40"/><linearGradient id="linear-gradient-61" x1="282.49" y1="51.47" x2="326.94" y2="51.47" xlink:href="#linear-gradient-40"/><linearGradient id="linear-gradient-62" x1="286.82" y1="57.24" x2="331.14" y2="57.24" xlink:href="#linear-gradient-40"/><linearGradient id="linear-gradient-63" x1="291.03" y1="63.09" x2="335.22" y2="63.09" xlink:href="#linear-gradient-40"/><linearGradient id="linear-gradient-64" x1="295.07" y1="69.04" x2="339.18" y2="69.04" xlink:href="#linear-gradient-40"/><linearGradient id="linear-gradient-65" x1="298.92" y1="75.08" x2="343.01" y2="75.08" xlink:href="#linear-gradient-40"/><linearGradient id="linear-gradient-66" x1="211.88" y1="441.63" x2="221.09" y2="457.11" gradientUnits="userSpaceOnUse"><stop offset=".04" stop-color="#242425"/><stop offset="1" stop-color="#000"/></linearGradient><linearGradient id="linear-gradient-67" x1="258.67" y1="463" x2="263.57" y2="485.15" xlink:href="#linear-gradient-66"/><linearGradient id="linear-gradient-68" x1="212.6" y1="269.02" x2="213.72" y2="461.23" xlink:href="#linear-gradient-66"/><linearGradient id="linear-gradient-69" x1="241.04" y1="268.86" x2="242.16" y2="461.06" xlink:href="#linear-gradient-66"/><linearGradient id="linear-gradient-70" x1="187.38" y1="160.61" x2="190.44" y2="280.69" xlink:href="#linear-gradient-66"/><linearGradient id="linear-gradient-71" x1="223.03" y1="159.7" x2="226.1" y2="279.78" xlink:href="#linear-gradient-66"/><linearGradient id="linear-gradient-72" x1="196.62" y1="93.52" x2="250.57" y2="93.52" gradientUnits="userSpaceOnUse"><stop offset="0" stop-color="#232323"/><stop offset="1" stop-color="#000"/></linearGradient><linearGradient id="linear-gradient-73" x1="290.22" y1="157.99" x2="293.29" y2="278.07" xlink:href="#linear-gradient-66"/></defs><path class="cls-25" d="m433.1,423.36l-205.3-118.4c-4.71-2.72-4.12-7.46,1.32-10.6l71.96-41.88c5.43-3.14,13.65-3.48,18.36-.76l205.3,118.4c4.71,2.72,4.12,7.46-1.32,10.6l-71.96,41.88c-5.43,3.14-13.65,3.48-18.36.76Z"/><path class="cls-14" d="m243.46,306.98c-1.05,0-2.15-.31-3.21-.92-2.88-1.66-5.04-5.41-5.03-8.73,0-2.25.99-4.11,2.69-5.09,1.71-.98,3.81-.89,5.77.24h0c2.88,1.66,5.04,5.41,5.03,8.73,0,2.25-.99,4.11-2.69,5.09-.79.45-1.66.68-2.56.68Z"/><path class="cls-6" d="m240.8,296.68c-1.5-.86-2.71-.17-2.72,1.55s1.2,3.82,2.7,4.68c1.5.86,2.71.17,2.72-1.55,0-1.72-1.21-3.82-2.7-4.68h0Z"/><path class="cls-14" d="m345.65,370.35c1.05,0,2.15-.31,3.21-.92,2.88-1.66,5.04-5.41,5.03-8.73,0-2.25-.99-4.11-2.69-5.09-1.71-.98-3.81-.89-5.77.24h0c-2.88,1.66-5.04,5.41-5.03,8.73,0,2.25.99,4.11,2.69,5.09.79.45,1.66.68,2.56.68Z"/><path class="cls-45" d="m348.31,360.05c1.5-.86,2.71-.17,2.72,1.55s-1.2,3.82-2.7,4.68-2.71.17-2.72-1.55c0-1.72,1.21-3.82,2.7-4.68h0Z"/><path class="cls-14" d="m408.11,405.68c1.05,0,2.15-.31,3.21-.92,2.88-1.66,5.04-5.41,5.03-8.73,0-2.25-.99-4.11-2.69-5.09-1.71-.98-3.81-.89-5.77.24h0c-2.88,1.66-5.04,5.41-5.03,8.73,0,2.25.99,4.11,2.69,5.09.79.45,1.66.68,2.56.68Z"/><path class="cls-50" d="m410.77,395.38c1.5-.86,2.71-.17,2.72,1.55,0,1.72-1.2,3.82-2.7,4.68-1.5.86-2.71.17-2.72-1.55,0-1.72,1.21-3.82,2.7-4.68h0Z"/><path class="cls-14" d="m480.5,400.83c-1.05,0-2.15-.31-3.21-.92-2.88-1.66-5.04-5.41-5.03-8.73,0-2.25.99-4.11,2.69-5.09,1.71-.98,3.81-.89,5.77.24h0c2.88,1.66,5.04,5.41,5.03,8.73,0,2.25-.99,4.11-2.69,5.09-.79.45-1.66.68-2.56.68Z"/><path class="cls-80" d="m477.84,390.53c-1.5-.86-2.71-.17-2.72,1.55,0,1.72,1.2,3.82,2.7,4.68,1.5.86,2.71.17,2.72-1.55,0-1.72-1.21-3.82-2.7-4.68h0Z"/><path class="cls-14" d="m515.78,381.12c-1.05,0-2.15-.31-3.21-.92-2.88-1.66-5.04-5.41-5.03-8.73,0-2.25.99-4.11,2.69-5.09,1.71-.98,3.81-.89,5.77.24h0c2.88,1.66,5.04,5.41,5.03,8.73,0,2.25-.99,4.11-2.69,5.09-.79.45-1.66.68-2.56.68Z"/><path class="cls-19" d="m513.12,370.82c-1.5-.86-2.71-.17-2.72,1.55,0,1.72,1.2,3.82,2.7,4.68,1.5.86,2.71.17,2.72-1.55,0-1.72-1.21-3.82-2.7-4.68h0Z"/><path class="cls-14" d="m308.8,347.43c1.05,0,2.15-.31,3.21-.92,2.88-1.66,5.04-5.41,5.03-8.73,0-2.25-.99-4.11-2.69-5.09-1.71-.98-3.81-.89-5.77.24h0c-2.88,1.66-5.04,5.41-5.03,8.73,0,2.25.99,4.11,2.69,5.09.79.45,1.66.68,2.56.68Z"/><path class="cls-11" d="m311.46,337.13c1.5-.86,2.71-.17,2.72,1.55,0,1.72-1.2,3.82-2.7,4.68s-2.71.17-2.72-1.55c0-1.72,1.21-3.82,2.7-4.68h0Z"/><polygon class="cls-48" points="232.94 294.94 242.49 289.49 235.22 286.29 231.82 289.98 232.94 294.94"/><path class="cls-59" d="m278.25,293.28c-14.52-10.31-40.88-15.15-40.88-15.15l-9.49,5.47,22.28,12.48,2.08-.94,17.13,9.89,8.89-11.74Z"/><path class="cls-52" d="m268.76,298.74l-8.9,11.75-18.99-10.97-.85-3.75-7.09-3.98v3.14l-5.06-2.92v-8.42s26.36,4.84,40.89,15.15Z"/><path class="cls-78" d="m333.95,129.47l-49.73,28.77-21.81-16.95-.96-.99-11.05-11.52c-7.37-11.16-15.02-20.36-22.02-27.74l1.51-8.27,21.98-18.21s23.23,22.63,39.04,48.77c.74,1.23,1.47,2.46,2.17,3.7l7.71-4.49s-.85-1.32-2.33-3.56c-6.86-10.36-27.35-40.24-40.29-48.06l2.34-3.38,3.38,1.36,18.97-6.71,9.97,2.33c5.53,5.87,11.44,12.85,17.3,21.02,1.45,2.01,2.88,4.1,4.31,6.26,4.67,7.06,8.57,13.91,11.84,20.37,2.82,5.58,5.6,12.05,7.69,17.3Z"/><path class="cls-17" d="m336.94,127.74l-52.71,30.5-19.18-20.01-12.3-12.83c-7.37-11.16-15.02-20.36-22.02-27.74l1.51-8.27,21.98-18.21s25.46,24.8,41.21,52.47l7.71-4.49s-26.88-42.11-42.62-51.62l24.68-8.72,9.97,2.33c6.89,7.31,14.38,16.35,21.61,27.28,4.67,7.06,8.57,13.91,11.84,20.37,3.12,6.18,6.19,13.45,8.34,18.94Z"/><polygon class="cls-2" points="229.92 92.76 232.23 89.39 230.72 97.67 228.41 101.03 229.92 92.76"/><path class="cls-14" d="m268.46,73.83l71.52-41.29.75,15.5,3.28,18.15s-13.59,14.52-14.06,14.76-36.19,4.33-37.25,4.57c-1.05.23-9.86.18-10.18.37s-14.07-12.06-14.07-12.06Z"/><path class="cls-29" d="m427.52,80.19l-17.11,40.6-47.2,112.01-35.85,85.07-11.51,27.3-59.23-34.21V111.35c0-1.19.63-2.29,1.66-2.89l5.57-3.21,102.7-59.3c.6-.35,1.28-.28,1.78.07l59.17,34.17Z"/><path class="cls-14" d="m428.3,81.61v198.64l-112.44,64.92v-199.6c0-1.2.63-2.3,1.66-2.89l108.27-62.51c1.11-.65,2.5.16,2.5,1.44Z"/><polygon class="cls-44" points="315.86 164.32 315.86 345.17 256.63 310.96 256.63 130.12 315.86 164.32"/><polygon class="cls-14" points="315.86 251.04 315.86 251.94 256.63 217.74 256.63 216.85 315.86 251.04"/><polygon class="cls-14" points="315.86 163.4 315.86 164.3 256.63 130.1 256.63 129.21 315.86 163.4"/><path class="cls-16" d="m447.07,91.47l-17.11,40.6-83.04,197.08-11.51,27.3-17.89-10.33v-199.61c0-1.19.63-2.29,1.66-2.89l108.27-62.51c.6-.35,1.28-.28,1.78.07l17.83,10.3Z"/><polygon class="cls-14" points="346.39 203.69 346.39 204.8 317.52 188.13 317.52 187.02 346.39 203.69"/><path class="cls-14" d="m335.41,356.45l112.44-64.92V92.88c0-1.28-1.39-2.09-2.5-1.44l-108.28,62.51c-1.03.59-1.66,1.69-1.66,2.88v199.61Z"/><path class="cls-34" d="m511.33,307.25l-54.51-7.6-3-1.73c-2.85-1.65-7.83-1.44-11.13.46l-4.72,2.73-101.65,7.81.05,46.24c-.07,1.1.55,2.17,1.91,2.95l79.35,45.81c2.85,1.65,7.83,1.44,11.13-.46l79.84-46.19c1.75-1.01,2.67-2.3,2.71-3.54v-46.48Z"/><path class="cls-73" d="m417.63,357.59l-79.39-45.84c-2.85-1.65-2.49-4.52.8-6.43l79.84-46.19c3.29-1.9,8.28-2.11,11.13-.46l79.39,45.84c2.85,1.65,2.49,4.52-.8,6.43l-79.84,46.19c-3.29,1.9-8.28,2.11-11.13.46Z"/><path class="cls-3" d="m385.86,348.05v5.09c0,.3-.07.54-.21.71-.3.39-.88.42-1.56.04l-15-8.66c-.96-.56-1.75-1.81-1.75-2.78v-5.09c0-.61.3-.95.75-1.01.29-.04.64.05,1.01.27l15,8.65c.97.56,1.76,1.81,1.76,2.78Z"/><path class="cls-14" d="m385.86,348.05v5.09c0,.3-.07.54-.21.71-.29.03-.63-.05-1.01-.27l-15-8.66c-.97-.55-1.75-1.81-1.75-2.77v-5.09c0-.3.07-.53.19-.71.29-.04.64.05,1.01.27l15,8.65c.97.56,1.76,1.81,1.76,2.78Z"/><path class="cls-14" d="m510.57,302.97v4.06c-.05,1.22-.96,2.5-2.7,3.51l-79.1,45.76c-3.27,1.89-8.21,2.09-11.04.46l-78.76-45.48c-1.35-.77-1.96-1.83-1.9-2.93h-.03s0-3.91,0-3.91c.2.18.43.33.67.47l79.84,46.1c2.87,1.66,7.88,1.45,11.19-.46l80.36-46.49c.58-.34,1.07-.7,1.46-1.08Z"/><path class="cls-14" d="m409.75,366.47l-6.44-3.72c-1.07-.62-1.93-1.98-1.93-3.05v-1.94c0-1.07.87-1.43,1.93-.82l6.44,3.72c1.07.62,1.93,1.98,1.93,3.05v1.94c0,1.07-.87,1.43-1.93.82Z"/><path class="cls-65" d="m511.38,281.47l-54.56-7.62-3-1.73c-2.85-1.65-7.83-1.44-11.13.46l-4.72,2.73-101.65,7.81.05,23.57c-.07,1.1.55,2.17,1.91,2.95l79.35,45.81c2.85,1.65,7.83,1.44,11.13-.46l79.89-46.16c1.75-1.01,2.67-2.3,2.71-3.54v-23.8Z"/><path class="cls-73" d="m417.63,331.79l-79.39-45.84c-2.85-1.65-2.49-4.52.8-6.43l79.89-46.16c3.29-1.9,8.28-2.11,11.13-.46l79.39,45.84c2.85,1.65,2.49,4.52-.8,6.43l-79.89,46.16c-3.29,1.9-8.28,2.11-11.13.46Z"/><path class="cls-4" d="m385.86,321.61v5.09c0,.3-.07.54-.21.71-.3.39-.88.42-1.56.04l-15-8.66c-.96-.56-1.75-1.81-1.75-2.78v-5.09c0-.61.3-.95.75-1.01.29-.04.64.05,1.01.27l15,8.65c.97.56,1.76,1.81,1.76,2.78Z"/><path class="cls-14" d="m385.86,321.61v5.09c0,.3-.07.54-.21.71-.29.03-.63-.05-1.01-.27l-15-8.66c-.97-.55-1.75-1.81-1.75-2.77v-5.09c0-.3.07-.53.19-.71.29-.04.64.05,1.01.27l15,8.65c.97.56,1.76,1.81,1.76,2.78Z"/><path class="cls-14" d="m409.75,340.43l-6.44-3.72c-1.07-.62-1.93-1.98-1.93-3.05v-1.94c0-1.07.87-1.43,1.93-.82l6.44,3.72c1.07.62,1.93,1.98,1.93,3.05v1.94c0,1.07-.87,1.43-1.93.82Z"/><path class="cls-14" d="m510.62,277.19v4.06c-.05,1.22-.96,2.5-2.7,3.51l-79.15,45.74c-3.27,1.89-8.21,2.09-11.04.46l-78.76-45.48c-1.35-.77-1.96-1.83-1.9-2.93h-.03s0-3.91,0-3.91c.2.18.43.33.67.47l79.84,46.1c2.87,1.66,7.88,1.45,11.19-.46l80.41-46.46c.58-.34,1.07-.7,1.46-1.08Z"/><path class="cls-43" d="m511.28,255.81l-54.46-7.66-3-1.73c-2.85-1.65-7.83-1.44-11.13.46l-4.72,2.73-101.65,7.81.05,23.57c-.07,1.1.55,2.17,1.91,2.95l79.35,45.81c2.85,1.65,7.83,1.44,11.13-.46l79.8-46.13c1.75-1.01,2.67-2.3,2.71-3.54v-23.8Z"/><path class="cls-73" d="m417.63,306.09l-79.39-45.84c-2.85-1.65-2.49-4.52.8-6.43l79.8-46.13c3.29-1.9,8.28-2.11,11.13-.46l79.39,45.84c2.85,1.65,2.49,4.52-.8,6.43l-79.8,46.13c-3.29,1.9-8.28,2.11-11.13.46Z"/><path class="cls-10" d="m385.86,295.91v5.09c0,.3-.07.54-.21.71-.3.39-.88.42-1.56.04l-15-8.66c-.96-.56-1.75-1.81-1.75-2.78v-5.09c0-.61.3-.95.75-1.01.29-.04.64.05,1.01.27l15,8.65c.97.56,1.76,1.81,1.76,2.78Z"/><path class="cls-14" d="m385.86,295.91v5.09c0,.3-.07.54-.21.71-.29.03-.63-.05-1.01-.27l-15-8.66c-.97-.55-1.75-1.81-1.75-2.77v-5.09c0-.3.07-.53.19-.71.29-.04.64.05,1.01.27l15,8.65c.97.56,1.76,1.81,1.76,2.78Z"/><path class="cls-14" d="m409.75,314.73l-6.44-3.72c-1.07-.62-1.93-1.98-1.93-3.05v-1.94c0-1.07.87-1.43,1.93-.82l6.44,3.72c1.07.62,1.93,1.98,1.93,3.05v1.94c0,1.07-.87,1.43-1.93.82Z"/><path class="cls-14" d="m510.53,251.53v4.06c-.05,1.22-.96,2.5-2.7,3.51l-79.06,45.7c-3.27,1.89-8.21,2.09-11.04.46l-78.76-45.48c-1.35-.77-1.96-1.83-1.9-2.93h-.03s0-3.91,0-3.91c.2.18.43.33.67.47l79.84,46.1c2.87,1.66,7.88,1.45,11.19-.46l80.32-46.43c.58-.34,1.07-.7,1.46-1.08Z"/><path class="cls-35" d="m511.28,222.53l-54.46-7.55-3-1.73c-2.85-1.65-7.83-1.44-11.13.46l-4.72,2.73-101.65,7.81.05,31.24c-.07,1.1.55,2.17,1.91,2.95l79.35,45.81c2.85,1.65,7.83,1.44,11.13-.46l79.8-46.23c1.75-1.01,2.67-2.3,2.71-3.54v-31.48Z"/><path class="cls-73" d="m417.63,272.92l-79.39-45.84c-2.85-1.65-2.49-4.52.8-6.43l79.8-46.23c3.29-1.9,8.28-2.11,11.13-.46l79.39,45.84c2.85,1.65,2.49,4.52-.8,6.43l-79.8,46.23c-3.29,1.9-8.28,2.11-11.13.46Z"/><path class="cls-30" d="m510.62,217.8v4.08c-.05,1.22-.96,2.51-2.71,3.52l-79.18,45.71c-3.28,1.9-8.25,2.1-11.09.46l-79.12-45.69c-1.36-.78-1.97-1.84-1.91-2.94,0,0,.01-3.9.04-3.88.19.16.39.29.62.42l80.21,46.31c2.88,1.67,7.92,1.45,11.25-.46l80.45-46.44c.58-.34,1.07-.7,1.46-1.09Z"/><path class="cls-62" d="m511.26,196.49l-54.44-7.62-3-1.73c-2.85-1.65-7.83-1.44-11.13.46l-4.72,2.73-101.65,7.81.05,23.67c-.07,1.1.55,2.17,1.91,2.95l79.35,45.81c2.85,1.65,7.83,1.44,11.13-.46l79.78-46.16c1.75-1.01,2.67-2.3,2.71-3.54v-23.91Z"/><path class="cls-73" d="m417.63,246.8l-79.39-45.84c-2.85-1.65-2.49-4.52.8-6.43l79.78-46.16c3.29-1.9,8.28-2.11,11.13-.46l79.39,45.84c2.85,1.65,2.49,4.52-.8,6.43l-79.78,46.16c-3.29,1.9-8.28,2.11-11.13.46Z"/><path class="cls-14" d="m510.92,194.97l-54.31-7.36-2.98-1.72c-2.83-1.63-7.77-1.43-11.04.46l-4.68,2.7-100.83,7.74.05.91c-.07,1.1.55,2.15,1.9,2.93l78.71,45.44c2.83,1.63,7.77,1.43,11.04-.46l79.44-46c1.74-1.01,2.65-2.28,2.69-3.51v-1.14Z"/><path class="cls-31" d="m417.73,245.08l-78.75-45.47c-2.83-1.63-2.47-4.49.79-6.37l79.44-46c3.27-1.89,8.21-2.09,11.04-.46l78.75,45.47c2.83,1.63,2.47,4.49-.79,6.37l-79.44,46c-3.27,1.89-8.21,2.09-11.04.46Z"/><path class="cls-63" d="m347.63,147.62v14.28c0,2.9,1.36,5.64,3.67,7.39l26.86,20.2c1.43,1.08,2.66,2.4,3.61,3.92l14.44,20.28,7.8-34.47-31.64-22.62-24.76-8.98Z"/><path class="cls-73" d="m395.19,218.29l-6.84-7.89c-.42-.48-.65-1.09-.65-1.73v-27.91l11.97,2.53-4.49,35Z"/><path class="cls-53" d="m506.43,137.72l-70.82,13.52-41.75,17.27.05,49.84c-.02.26.07.79.07.79l4.78,13.65h0c.12.91.74,1.78,1.89,2.45l16.97,9.87c2.85,1.65,7.83,1.44,11.13-.46l79.78-46.05c1.75-1.01,2.67-2.3,2.71-3.54v-59.08s-4.83,1.73-4.83,1.73Z"/><path class="cls-75" d="m511.27,135.06l-54.45-7.74-3-1.73c-2.85-1.65-7.83-1.44-11.13.46l-4.72,2.73-101.65,7.81.05,18.2c-.07,1.1.55,2.17,1.91,2.95l79.35,45.81c2.85,1.65,7.83,1.44,11.13-.46l79.78-46.05c1.75-1.01,2.67-2.3,2.71-3.54v-18.44Z"/><path class="cls-73" d="m417.63,185.26l-79.39-45.84c-2.85-1.65-2.49-4.52.8-6.43l79.78-46.05c3.29-1.9,8.28-2.11,11.13-.46l79.39,45.84c2.85,1.65,2.49,4.52-.8,6.43l-79.78,46.05c-3.29,1.9-8.28,2.11-11.13.46Z"/><path class="cls-71" d="m511.1,129.25l-54.33-7.61-3-1.73c-2.85-1.64-7.82-1.44-11.11.46l-4.71,2.72-101.44,7.79.05,5.28c-.07,1.1.55,2.16,1.91,2.95l79.19,45.71c2.85,1.64,7.82,1.44,11.11-.46l79.61-46.07c1.75-1.01,2.66-2.3,2.71-3.53v-5.51Z"/><path class="cls-73" d="m417.66,179.46l-79.23-45.74c-2.85-1.64-2.49-4.51.8-6.41l79.61-46.07c3.29-1.9,8.26-2.1,11.11-.46l79.23,45.74c2.85,1.64,2.49,4.51-.8,6.41l-79.61,46.07c-3.29,1.9-8.26,2.1-11.11.46Z"/><path class="cls-67" d="m511.25,124.64v9.28l-14.87,8.56-39.44-34.9,4.36-2.51,10.5-6.06,37.8,22.47c.91.52,1.65,1.93,1.65,3.14Z"/><polygon class="cls-77" points="471.8 94.38 471.8 99.02 461.3 105.08 457.29 102.75 471.8 94.38"/><path class="cls-20" d="m409.89,92.54l86.5,49.94v-9.27c0-1.21-.74-2.62-1.65-3.15l-37.8-22.48v-4.64l-9.51-12.84s-20.69-13.59-35.8-16.34c-1.04-.19-1.74.68-1.74,2.12v16.65Z"/><polygon class="cls-14" points="456.94 107.59 471.8 99.02 471.8 94.38 456.94 102.95 456.94 107.59"/><path class="cls-40" d="m471.8,94.38l-14.51,8.38-8.38,4.84-6.58-7.94-63.33,34.43,5.95,10.43-1.59.92-23.25-9.11-23.09-19.84,88.54-51.13.04-.02c.26-.15.56-.2.9-.14,15.11,2.75,35.8,16.34,35.8,16.34l9.51,12.84Z"/><polygon class="cls-14" points="447.86 94.93 378.31 134.66 383.37 156.08 456.94 113.55 456.94 102.95 447.86 94.93"/><polygon class="cls-5" points="471.8 94.38 450.2 106.85 442.25 100.6 382.45 135.16 383 136.67 387.23 143.2 383.36 145.44 373.86 132.6 462.29 81.54 471.8 94.38"/><polygon class="cls-24" points="401.43 166.51 475.01 123.98 486.86 125.38 413.02 164.33 401.43 166.51"/><path class="cls-38" d="m494.74,130.07l-7.88-4.69-10.46,5.52-63.37,33.44,9.79,20.63,73.57-42.53v-9.22c0-1.21-.73-2.62-1.64-3.15Z"/><path class="cls-56" d="m336.31,135.03l86.5,49.94v-12.78c0-1.21-.74-2.62-1.65-3.15l-8.14-4.7-11.6,2.18-18.06-10.43v-10.65l-9.51-12.84s-20.69-13.59-35.8-16.34c-1.04-.19-1.74.68-1.74,2.12v16.65Z"/><polygon class="cls-81" points="383.37 156.08 456.94 113.55 475.01 123.98 401.43 166.51 383.37 156.08"/><path class="cls-14" d="m467.64,112.58l-1-5.15c-.11-.53-.43-1.04-.8-1.24l-8.55-4.74c-.27-.15-.54-.19-.76-.08-1.92.91-13.13-1.41-13.13-1.41l-1.15.64,3.28,1.6,17.08,9.9,3.63,2.1,1.04-.59.04-.02c.28-.1.42-.49.32-1.02Z"/><path class="cls-1" d="m442.25,100.6s10.93,2.46,13.13,1.41c.22-.1.49-.07.76.08l8.55,4.74c.37.2.7.72.8,1.25l1,5.14c.14.7-.16,1.17-.64,1.01l-29.95-9.97,6.35-3.67Z"/><path class="cls-14" d="m486.21,116.54l-.66-.04c-.2-.16-.43-.29-.71-.36l-48.58-10.77-54.26,31.04,4.42,5.53,40.06,8.88c2.03.45,4.15.12,5.94-.91l52.93-30.56c.59-.34.85-.92.86-1.49v-1.33Z"/><path class="cls-49" d="m426.47,149.53l-40.06-8.88-4.83-5.01,54.68-31.57,48.58,10.77c1.55.34,1.87,2.42.49,3.21l-52.93,30.56c-1.8,1.04-3.92,1.36-5.94.91Z"/><polygon class="cls-27" points="484.78 115.27 423.11 150.88 387.35 143.2 384.56 138.83 441.45 105.97 484.78 115.27"/><polygon class="cls-26" points="484.78 115.27 484.78 113.2 423.11 148.81 423.11 150.88 484.78 115.27"/><polygon class="cls-60" points="484.78 113.2 423.11 148.81 387.35 141.14 381.81 135.46 437.82 103.1 484.78 113.2"/><path class="cls-14" d="m406.68,147.78l-1-5.15c-.11-.53-.43-1.04-.8-1.24l-8.55-4.74c-.27-.15-.54-.19-.76-.08-1.92.91-13.13-1.41-13.13-1.41l-1.15.64,3.28,1.6,17.08,9.9,3.63,2.1,1.04-.59.04-.02c.28-.1.42-.49.32-1.02Z"/><path class="cls-12" d="m381.3,135.81s10.93,2.46,13.13,1.41c.22-.1.49-.07.76.08l8.55,4.74c.37.2.7.72.8,1.25l1,5.14c.14.7-.16,1.17-.64,1.01l-17.93-6.09-5.67-7.55Z"/><path class="cls-32" d="m309.12,169.59v19.42c0,.3-.07.54-.21.71-.3.39-.88.42-1.56.04l-4.68-2.8c-.96-.56-1.75-1.81-1.75-2.78v-19.42c0-.61.3-.95.75-1.01.29-.04.64.05,1.01.27l4.68,2.79c.97.56,1.76,1.81,1.76,2.78Z"/><path class="cls-14" d="m309.12,169.59v19.42c0,.3-.07.54-.21.71-.29.03-.63-.05-1.01-.27l-4.68-2.8c-.97-.55-1.75-1.81-1.75-2.77v-19.42c0-.3.07-.53.19-.71.29-.04.64.05,1.01.27l4.68,2.79c.97.56,1.76,1.81,1.76,2.78Z"/><polygon class="cls-68" points="347.62 36.9 341.19 40.69 333.47 36.29 339.98 32.54 347.62 36.9"/><path class="cls-14" d="m372.52,73.45h0s0,0,0,0h0Z"/><polygon class="cls-14" points="372.52 73.44 372.52 73.45 367.4 76.42 357.31 82.26 307.58 111.03 285.77 94.09 284.62 93.2 284.8 93.09 288.4 91.02 314.27 76.12 321.82 71.77 333.47 65.06 333.47 36.29 341.19 40.69 356.27 51.9 363.39 60.68 372.52 73.44"/><polygon class="cls-47" points="372.53 73.45 379.1 69.74 347.62 36.9 341.19 40.69 372.53 73.45"/><polygon class="cls-72" points="301 114.74 275.02 99.74 274.21 99.27 269.65 101.91 263.86 105.25 261.95 106.35 261.95 77.58 269.66 81.99 283.14 94.11 291.87 101.97 301 114.74"/><path class="cls-61" d="m357.31,82.26l-49.73,28.77-21.81-16.95-.96-.99-11.05-11.52c-7.37-11.16-15.02-20.36-22.02-27.74l1.51-8.27,21.98-18.21s23.23,22.63,39.04,48.77c.74,1.23,1.47,2.46,2.17,3.7l7.71-4.49s-.85-1.32-2.33-3.56c-6.86-10.36-27.35-40.24-40.29-48.06l2.34-3.38,3.38,1.36,18.97-6.71,9.97,2.33c5.53,5.87,11.44,12.85,17.3,21.02,1.45,2.01,2.88,4.1,4.31,6.26,4.67,7.06,8.57,13.91,11.84,20.37,2.82,5.58,5.6,12.05,7.69,17.3Z"/><path class="cls-57" d="m360.29,80.53l-52.71,30.5-19.18-20.01-12.3-12.83c-7.37-11.16-15.02-20.36-22.02-27.74l1.51-8.27,21.98-18.21s25.46,24.8,41.21,52.47l7.71-4.49s-26.88-42.11-42.62-51.62l24.68-8.72,9.97,2.33c6.89,7.31,14.38,16.35,21.61,27.28,4.67,7.06,8.57,13.91,11.84,20.37,3.12,6.18,6.19,13.45,8.34,18.94Z"/><path class="cls-58" d="m320.09,17.09l-58.52,33.96-2.74-1.08-1.7,3.66s19.72,21.21,32.13,43.01l15.89,15.72,55.14-31.83s-17.08-39.14-40.2-63.43Z"/><path class="cls-60" d="m363.4,78.72l-56.35,32.58-14.18-15.58c-12.42-21.8-34.04-45.76-34.04-45.76l60.22-35.03c23.12,24.29,44.35,63.78,44.35,63.78Z"/><polygon class="cls-39" points="253.27 45.55 255.59 42.18 254.08 50.45 251.76 53.82 253.27 45.55"/><polygon class="cls-66" points="276.1 78.19 269.66 81.98 261.95 77.58 268.46 73.83 276.1 78.19"/><path class="cls-46" d="m307.58,111.03l-4.2,2.37-2.37,1.33-.09-.09-10.48-10.95h0s-20.78-21.71-20.78-21.71l6.43-3.8,31.49,32.84Z"/><polygon class="cls-54" points="481.58 396.55 461.09 384.72 502.78 360.64 523.27 372.47 481.58 396.55"/><polygon class="cls-36" points="513.19 356.35 471.48 380.41 461.09 374.41 502.79 350.33 513.19 356.35"/><polygon class="cls-37" points="481.58 390.61 471.48 380.41 513.19 356.35 523.27 366.54 481.58 390.61"/><polygon class="cls-76" points="461.09 384.72 461.09 374.41 471.48 380.41 481.58 390.61 481.58 396.55 461.09 384.72"/><polygon class="cls-9" points="523.27 372.47 523.27 366.54 481.58 390.61 481.58 396.55 523.27 372.47"/><path class="cls-22" d="m418.15,193.13h0s-.04-.12-.04-.12c0,0,0-.02-.01-.03l-.75-1.97h-1.79s0,.02-.01.04l-45.6-26.33c-.79-.46-1.8-.28-2.39.41l-19.55,22.92h-.08s-1.55.63-1.55.63l.69,1.83h.01c.14.44.42.83.85,1.08l47.35,27.34c.79.46,1.8.28,2.39-.41l20.12-23.59c.45-.52.54-1.21.35-1.81Z"/><path class="cls-42" d="m394.55,216.99l-47.35-27.34c-1.03-.59-1.26-1.97-.49-2.87l20.12-23.59c.59-.7,1.6-.87,2.39-.41l47.35,27.34c1.03.59,1.26,1.97.49,2.87l-20.12,23.59c-.59.7-1.6.87-2.39.41Z"/><polygon class="cls-60" points="384.37 207.77 349.61 187.71 368.44 166.08 403.19 186.15 384.37 207.77"/><path class="cls-41" d="m322.57,34.4l-29.89,17.39-1.83-2.08,30.01-17.46c.57.71,1.14,1.43,1.71,2.15Z"/><path class="cls-64" d="m326.94,40.12l-42.78,24.88c-.57-.74-1.12-1.46-1.67-2.17l42.81-24.89c.55.72,1.1,1.45,1.64,2.18Z"/><path class="cls-7" d="m331.14,45.93l-42.7,24.84c-.53-.74-1.07-1.47-1.62-2.2l42.74-24.86c.53.74,1.06,1.48,1.58,2.22Z"/><path class="cls-23" d="m335.22,51.83l-42.62,24.78c-.52-.75-1.04-1.49-1.57-2.23l42.66-24.8c.52.76,1.03,1.51,1.53,2.25Z"/><path class="cls-74" d="m339.18,57.79l-42.61,24.78c-.49-.77-.98-1.53-1.49-2.28l42.61-24.78c.5.77,1,1.53,1.49,2.28Z"/><path class="cls-55" d="m343.01,63.82l-42.69,24.83c-.45-.78-.92-1.55-1.4-2.33l42.64-24.8c.5.78.98,1.54,1.45,2.3Z"/><path class="cls-25" d="m251.86,500.38c-5.68-.11-11.42-1-16.61-3.3-5.2-2.3-9.83-6.11-12.51-11.12-1.53-2.87-2.44-6.13-4.63-8.53-4.75-5.21-13.53-4.4-18.89-8.97-3.19-2.72-4.7-7.07-4.61-11.26.09-4.19,1.63-8.24,3.71-11.88,5.5-9.62,15.29-16.99,26.28-18.37,11-1.38,22.85,3.84,28.27,13.51,3.69,6.58,4.64,15.05,10.52,19.78,3.17,2.55,7.3,3.56,11.33,4.07,4.03.52,8.14.62,12.07,1.68,4.7,1.26,9.55,4.31,10.55,9.41.66,3.38.66,7.05-1.75,9.75-2.41,2.71-6.07,4.26-9.18,5.98-4.96,2.75-10,5.13-15.47,6.71-5.51,1.59-11.24,2.47-16.98,2.55-.7,0-1.39,0-2.09,0Z"/><path class="cls-28" d="m203.1,447.62s-2.71,13.42-1.36,15.68c1.36,2.26,14.02,4.07,15.98,1.66,1.96-2.41,14.82-18.29,15.7-20.98.88-2.69-.82-10.17-7.5-11.7-6.69-1.54-22.82,15.35-22.82,15.35Z"/><path class="cls-8" d="m239.84,466.81s-4.1,12.97-2.3,16.58c1.79,3.62,3.3,5.92,7.97,5.56,4.67-.36,15.75.59,18.69,0,2.94-.59,16.73,2.58,20.8-1.94,4.07-4.52,4.09-11.53-1.23-13.57-5.33-2.03-27.03-6.63-27.03-6.63h-16.9Z"/><path class="cls-69" d="m191,279.53c.05,3.48.24,7.49.59,12.11,1.42,19.46,7.54,68.49,7.54,68.49,0,0-1.82,22.99-1.82,36.44s5.16,52.14,5.16,52.14c0,0,7.73,5.75,14.33,2.59,1.52-.72,2.78-1.63,3.85-2.57,3.56-3.15,4.73-6.9,4.73-6.9l1.15-87.08,2.14-25.6,2.35-25.35.99-10.67,1.79-19.46.48-5.08-40.29-5.29-2.41-.32s-.13.88-.29,2.67c-.19,2.62-.43,7.22-.29,13.88Z"/><path class="cls-15" d="m217.47,358.81l3.18,89.92c3.56-3.15,4.73-6.9,4.73-6.9l1.15-87.08,2.14-25.6,2.35-25.35-6.68-4.92-6.87,59.93Z"/><path class="cls-51" d="m211.72,272.52s2.38,7.62,5.72,18.61c3.29,10.78,7.49,24.81,11.23,38.02,5.37,18.9,12.11,38.58,11.68,42.27-1.74,14.73-4,35.39-3.63,59.08.21,13.61.52,41.33.52,41.33,8.18,3.58,12.15,3.29,17.17,1.93,4.87-1.28,7.78-3.37,7.78-3.37,0,0,8.85-97.08,8.77-102.24-.08-5.16-.61-92.55-.61-92.55l-36.55-1.92-22.08-1.15Z"/><path class="cls-15" d="m191,279.53c2.7,2.65,7.22,5.51,14.63,8.29,3.8,1.42,7.78,2.51,11.82,3.32,4.87,1.02,9.81,1.63,14.57,2.01,16.71,1.26,30.96-.75,30.96-.75,0,0-1.47,66.67,0,82.47,1.28,13.77-6.52,81.68-8.56,98.9,4.87-1.28,7.78-3.37,7.78-3.37,0,0,8.85-97.08,8.77-102.24-.08-5.16-.61-92.55-.61-92.55l-36.55-1.92.48-5.08-40.29-5.29-2.7,2.35c-.19,2.62-.43,7.22-.29,13.88Z"/><path class="cls-79" d="m180.7,227.27c.61,2.03,2.89,5.56,5.72,9.44,6.07,8.29,14.6,18.15,14.6,18.15l2.86-47.46-18.21-59.46-3.5-11.39s-9.79,8.18-10.08,23.1c-.29,14.92,6.63,61.26,8.61,67.62Z"/><path class="cls-15" d="m183.54,201.87c1.84,7.35,2.62,20.86,2.89,34.84,6.07,8.29,14.6,18.15,14.6,18.15l2.86-47.46-18.21-59.46c-.32.27-.64.56-.96.86-8.02,7.67-6.04,33.61-1.18,53.07Z"/><path class="cls-33" d="m357.13,187.94c5.58-2.21,14.59-6.27,10.88-8.25-2.89-1.55-14.06,2.62-18.47,5.14-.72.41-2.43,1.47-3.32,2.02-.35.21-.56.35-.56.35,0,0,.8-4.04.78-4.95-.02-.95-1.17-4.55-4.57-1.41s-7.96,13.56-7.96,13.56l-5.45,4.76,4.55,9.64s8.42-2.18,12.66-2.95c5.71-1.03,12.8-3.18,13.8-5.08,1.67-3.16.36-9.09-2.35-12.83Z"/><path class="cls-21" d="m265.76,220.75c.02.09,5.44,58.69,5.55,59.8v.02s-3.92,2.78-10.56,5.31c-7.27,2.78-17.78,5.26-29.91,3.48-23.22-3.46-42.7-20.91-42.7-20.91,0,0,2.59-60.64-2.3-80.14-4.86-19.46-12.9-43.06-4.86-50.74,8.02-7.71,24.91-7.71,33.52-4.55,8.58,3.16,42.11,12.35,47.45,21.68,6.21,10.84,2.99,57.56,3.81,66.05Z"/><path class="cls-33" d="m247.44,84.2s3.44,22.47,1.43,28.92c-2.01,6.45-12.94,11.69-28.1,5.06-15.16-6.63-17.31-34.28-9.86-38.57,7.45-4.3,33.52-6.27,36.52,4.6Z"/><path class="cls-33" d="m238.5,116.63l-.29,21.1s-21.32,1.21-28.3-6.04l1.81-24.25,26.78,9.2Z"/><path class="cls-70" d="m240.18,97.69s10.83-2.29,10.38-17.57c-.45-15.28-18.97-19.1-33.68-15.66-14.71,3.44-15.47,16.03-15.47,16.03,0,0-4.2,1.92-4.77,9.18-.57,7.26,10.12,28,15.28,31.57s15.24,3.32,16.21-.66c.98-3.98-3.04-17.54,1.55-17.92,4.58-.38,8.02,5.73,8.02,5.73l3.63-2.32-1.15-8.38Z"/><path class="cls-13" d="m204.85,132.7l4.88-5.35s16.06,7.02,29.51,9.04l1.9,6.42s-24.39,3.81-36.29-10.11Z"/><path class="cls-18" d="m331.21,196.04s8.81,1.49,7.61,12.99c0,0-46.27,20.9-57.46,20.9s-31.83-34.37-36.98-51.83c-5.15-17.46,5.93-26.2,13.99-25.97,8.06.22,32.24,55.56,32.24,55.56l40.6-11.64Z"/></svg>