<?xml version="1.0" encoding="UTF-8"?><svg xmlns="http://www.w3.org/2000/svg" width="700" height="512" xmlns:xlink="http://www.w3.org/1999/xlink" viewBox="0 0 700 512"><defs><style>.cls-1{fill:url(#linear-gradient-12);}.cls-1,.cls-2,.cls-3,.cls-4,.cls-5,.cls-6,.cls-7,.cls-8,.cls-9,.cls-10,.cls-11,.cls-12,.cls-13,.cls-14,.cls-15,.cls-16,.cls-17,.cls-18,.cls-19,.cls-20,.cls-21,.cls-22,.cls-23,.cls-24,.cls-25,.cls-26,.cls-27,.cls-28,.cls-29,.cls-30,.cls-31,.cls-32,.cls-33,.cls-34,.cls-35,.cls-36,.cls-37,.cls-38,.cls-39,.cls-40,.cls-41,.cls-42,.cls-43{stroke-width:0px;}.cls-2{fill:url(#linear-gradient-17);}.cls-3{fill:#930f1f;}.cls-4{fill:url(#linear-gradient-19);}.cls-5{fill:url(#linear-gradient);}.cls-6{fill:#def6ff;}.cls-7{fill:url(#linear-gradient-21);}.cls-8{fill:url(#linear-gradient-6);}.cls-44{isolation:isolate;}.cls-9{fill:#f7fafc;}.cls-11{opacity:.3;}.cls-12{fill:url(#linear-gradient-15);}.cls-13{fill:url(#linear-gradient-11);}.cls-14{fill:url(#linear-gradient-5);}.cls-15{opacity:.2;}.cls-16{fill:url(#linear-gradient-13);}.cls-17{fill:url(#linear-gradient-23);}.cls-18{fill:url(#linear-gradient-25);}.cls-19{fill:#ffa87e;}.cls-20{fill:url(#linear-gradient-16);}.cls-21{fill:url(#linear-gradient-22);}.cls-22{fill:#fff;}.cls-23{fill:url(#linear-gradient-20);}.cls-24{fill:url(#linear-gradient-14);}.cls-25{fill:url(#linear-gradient-2);}.cls-26{fill:#e2e2e2;}.cls-27{fill:url(#linear-gradient-7);}.cls-28{fill:url(#linear-gradient-3);}.cls-29{fill:url(#linear-gradient-9);}.cls-30{fill:url(#linear-gradient-27);}.cls-31{fill:url(#linear-gradient-8);}.cls-32{fill:#ebebeb;}.cls-33{fill:url(#linear-gradient-24);}.cls-34{fill:url(#linear-gradient-26);}.cls-35{fill:url(#linear-gradient-18);}.cls-36{mix-blend-mode:multiply;}.cls-36,.cls-42{opacity:.1;}.cls-37{fill:url(#linear-gradient-28);}.cls-38{fill:url(#linear-gradient-10);}.cls-39{fill:#bb2024;}.cls-40{fill:#c8c3c9;}.cls-41{fill:url(#linear-gradient-4);}.cls-43{fill:#efefef;}</style><linearGradient id="linear-gradient" x1="417.63" y1="337.88" x2="492.84" y2="337.88" gradientUnits="userSpaceOnUse"><stop offset="0" stop-color="#242425"/><stop offset="1" stop-color="#000"/></linearGradient><linearGradient id="linear-gradient-2" x1="447.26" y1="305.28" x2="464.21" y2="305.28" gradientUnits="userSpaceOnUse"><stop offset="0" stop-color="#5a5b5b"/><stop offset="1" stop-color="#3a3a3a"/></linearGradient><linearGradient id="linear-gradient-3" x1="475.29" y1="126.51" x2="482.41" y2="148.32" gradientUnits="userSpaceOnUse"><stop offset="0" stop-color="#242425"/><stop offset=".94" stop-color="#000"/></linearGradient><linearGradient id="linear-gradient-4" x1="428.36" y1="156.13" x2="529" y2="156.13" xlink:href="#linear-gradient-2"/><linearGradient id="linear-gradient-5" x1="233.88" y1="353.02" x2="310.72" y2="353.02" xlink:href="#linear-gradient-2"/><linearGradient id="linear-gradient-6" x1="181.84" y1="329.65" x2="319.59" y2="329.65" gradientUnits="userSpaceOnUse"><stop offset=".12" stop-color="#242425"/><stop offset=".83" stop-color="#000"/></linearGradient><linearGradient id="linear-gradient-7" x1="437.92" y1="83.48" x2="428.3" y2="198.04" gradientUnits="userSpaceOnUse"><stop offset=".04" stop-color="#242425"/><stop offset="1" stop-color="#000"/></linearGradient><linearGradient id="linear-gradient-8" x1="486.88" y1="87.59" x2="477.25" y2="202.15" xlink:href="#linear-gradient-7"/><linearGradient id="linear-gradient-9" x1="394.7" y1="381.87" x2="439.31" y2="381.87" gradientTransform="translate(35.23 -39.55) rotate(5.58)" gradientUnits="userSpaceOnUse"><stop offset="0" stop-color="#000"/><stop offset="1" stop-color="#232323"/></linearGradient><linearGradient id="linear-gradient-10" x1="428.61" y1="301.58" x2="421.31" y2="352.19" xlink:href="#linear-gradient-7"/><linearGradient id="linear-gradient-11" x1="374.01" y1="422.09" x2="390.97" y2="422.09" xlink:href="#linear-gradient-6"/><linearGradient id="linear-gradient-12" x1="183.29" y1="313.91" x2="200.25" y2="313.91" xlink:href="#linear-gradient-6"/><linearGradient id="linear-gradient-13" x1="519.96" y1="339.89" x2="536.91" y2="339.89" xlink:href="#linear-gradient-6"/><linearGradient id="linear-gradient-14" x1="175.94" y1="293.16" x2="541.52" y2="293.16" gradientUnits="userSpaceOnUse"><stop offset=".54" stop-color="#242425"/><stop offset=".59" stop-color="#000"/></linearGradient><linearGradient id="linear-gradient-15" x1="175.94" y1="240.49" x2="541.53" y2="240.49" gradientUnits="userSpaceOnUse"><stop offset="0" stop-color="#333"/><stop offset="1" stop-color="#242425"/></linearGradient><linearGradient id="linear-gradient-16" x1="396.22" y1="79.97" x2="386.61" y2="194.36" xlink:href="#linear-gradient-7"/><linearGradient id="linear-gradient-17" x1="430.63" y1="115.14" x2="454.63" y2="115.14" gradientUnits="userSpaceOnUse"><stop offset="0" stop-color="#383839"/><stop offset="1" stop-color="#2a2a2b"/></linearGradient><linearGradient id="linear-gradient-18" x1="455.78" y1="120.71" x2="487.18" y2="120.71" xlink:href="#linear-gradient-17"/><linearGradient id="linear-gradient-19" x1="473.14" y1="86.44" x2="463.52" y2="201" xlink:href="#linear-gradient-7"/><linearGradient id="linear-gradient-20" x1="230.19" y1="456.4" x2="305.4" y2="456.4" xlink:href="#linear-gradient"/><linearGradient id="linear-gradient-21" x1="259.82" y1="423.8" x2="276.77" y2="423.8" xlink:href="#linear-gradient-2"/><linearGradient id="linear-gradient-22" x1="198.91" y1="226.6" x2="227.86" y2="350.25" gradientUnits="userSpaceOnUse"><stop offset="0" stop-color="#ebebeb"/><stop offset="1" stop-color="#838484"/></linearGradient><linearGradient id="linear-gradient-23" x1="257.86" y1="212.79" x2="286.82" y2="336.45" xlink:href="#linear-gradient-22"/><linearGradient id="linear-gradient-24" x1="433.05" y1="45.55" x2="487.15" y2="45.55" gradientUnits="userSpaceOnUse"><stop offset="0" stop-color="#232323"/><stop offset="1" stop-color="#000"/></linearGradient><linearGradient id="linear-gradient-25" x1="205.98" y1="149.59" x2="198.96" y2="266.29" xlink:href="#linear-gradient-24"/><linearGradient id="linear-gradient-26" x1="200.48" y1="301.18" x2="216.3" y2="320.34" gradientUnits="userSpaceOnUse"><stop offset="0" stop-color="#242425"/><stop offset="1" stop-color="#000"/></linearGradient><linearGradient id="linear-gradient-27" x1="144.56" y1="338.97" x2="260.57" y2="338.97" xlink:href="#linear-gradient-2"/><linearGradient id="linear-gradient-28" x1="354.19" y1="165.96" x2="361.14" y2="165.96" gradientUnits="userSpaceOnUse"><stop offset="0" stop-color="#ffc0ab"/><stop offset="1" stop-color="#fbb599"/></linearGradient></defs><g class="cls-44"><g id="Layer_1"><path class="cls-42" d="m553,393.66l-197.94-114.65c-4.71-2.73-12.36-2.74-17.08-.01l-162.87,94.03c-4.72,2.72-4.72,7.14,0,9.87l197.94,114.65c4.71,2.73,12.36,2.74,17.08.01l162.87-94.03c4.72-2.72,4.72-7.14,0-9.88Z"/><path class="cls-5" d="m428.73,322.48c14.73-8.51,38.54-8.51,53.18,0,14.64,8.51,14.56,22.29-.17,30.8-14.74,8.51-38.54,8.51-53.18,0-14.64-8.51-14.56-22.3.17-30.8h0Z"/><path class="cls-25" d="m447.26,333.31v-60.87s7.99,0,7.99,0c.33-.01.67-.01,1,0h7.96s0,60.79,0,60.79h0c0,1.26-.84,2.51-2.5,3.47-3.32,1.92-8.69,1.92-11.99,0-1.61-.94-2.43-2.16-2.46-3.38h0Z"/><path class="cls-28" d="m472.6,76.38l64.31,31.49c6.43,3.15,10.04,10.13,8.87,17.19-4.33,26.18-21.83,103-24.62,108.74-9.76,20.04-69.1,44.69-69.1,44.69l20.55-202.11Z"/><path class="cls-41" d="m455.6,80.33l64.31,31.49c6.43,3.15,10.04,10.13,8.87,17.19-4.33,26.18-19.62,97.12-23.54,102.16-5.01,6.44-76.88-29.95-76.88-29.95l27.24-120.88Z"/><path class="cls-10" d="m285.47,387.6s-1.05-.42-1.8,2.91c-.75,3.33,2.94,18.53,3.54,19.42.6.9.93,3.23,6.88,2.12,4.35-.81,5.56-2.53,5.56-2.53l.4-4.75s16.79-4.96,22.59-13.15c3.94-5.58,8.85-17.38,4.63-21.15-2.95-2.64-11.74,2.91-17.55,6.11-5.8,3.2-10.69,5.15-12.48,6.77-1.78,1.61-2.59.81-11.78,4.25Z"/><path class="cls-19" d="m314.21,378.67c-1.44-.91-7.57,1.3-12.35,2.59l-1.04-7.67-17.82,5.59,1.83,11.28s2.36,1.92,6.47,1.81c3.56.31,9.49.31,15.23-2.07,9-3.74,9.61-10.32,7.69-11.53Z"/><path class="cls-10" d="m349.68,407.6s9.28,3.73,17.15,4.59c7.59.83,15.43,3.26,14.08,6.14-1.35,2.88-12.8,11.47-24.53,11.22-11.73-.25-22.96-6.22-22.96-6.22l-.77,6.66s-2.92,1.03-5.93.61c-3.01-.42-4.61-1.7-4.61-1.7,0,0-1.73-24.53,2.44-27.42,1.96-1.36,13.8,4.13,13.8,4.13l11.32,1.97Z"/><path class="cls-19" d="m355.49,411.31c.5-2.79-11.46-4.18-13.37-14.65-.93-5.13-1.01-16.74-.67-30.86,0,0-.2-30.89-.51-36.54-.31-5.64-1.82-13.63-8.19-17.51-13.33-8.12-39.57-5.45-39.57-5.45,0,0,14.7,19.69,15.94,27.56,4.04,25.71,11.63,41.89,13.72,51.5,1.73,7.94,2.55,7.54,1.22,19.14-.23,1.98,6.28,5.18,14.64,8.29,13.46,5.01,16.29,1.32,16.77-1.48Z"/><path class="cls-14" d="m310.72,351.02s-40.57-25.42-50.15-26.94c-9.58-1.53-26.69,8.23-26.69,8.23,0,0,12.52,50.72,22.91,49.8,10.39-.92,37.12-11,37.12-11l16.81-20.09Z"/><path class="cls-8" d="m319.59,333.48s-30.22,27.08-55.99,35.24c-11.96,3.8-28.72,2-43.56-1.73-17.11-4.34-31.69-11.26-33.35-15.22-3.09-7.38-4.86-31.68-4.86-31.68,6.09-14.73,86.26-31.63,86.26-31.63,0,0,25.7,6.64,38.79,17.77,7.84,6.66,10.83,15.1,11.99,20.8.77,3.85.7,6.45.7,6.45Z"/><path class="cls-11" d="m319.59,333.48s-30.22,27.08-55.99,35.24c-11.96,3.8-28.72,2-43.56-1.73-1.36-8.97-2.57-20.71-2.57-21.14.1.21,19.54,14.24,47.74,10.03,22.84-3.4,45.77-21.93,53.67-28.85.77,3.85.7,6.45.7,6.45Z"/><path class="cls-6" d="m481.37,79.77l24.56,20.39s-13.72,37.9-15.24,61.73c-1.52,23.84,4.8,48.7,4.8,48.7,0,0-18.54,17.29-42.43,9.36-23.9-7.93-28.86-19.28-28.86-19.28,0,0-.73-53.83-2.64-73.87-1.92-20.04-2.99-45.56,5.84-51.4,8.83-5.85,46.03-2.22,53.97,4.37Z"/><path class="cls-27" d="m456.63,73.58s-10.8,6.27-15.94,23.1c-5.14,16.82-5.25,61.7-5.25,61.7l-.64,65.48s-14.15-4.65-17.39-19.88c0,0,5.96-19.11,3.44-62.31v-.02c-.13-2.55-.31-5.2-.52-7.94-.07-.74-.11-1.47-.16-2.19-1.98-25.8-2.63-43.54,3.32-52.75.07-.07.1-.13.15-.18.77-1.19,1.67-2.23,2.7-3.13,8.26-7.18,30.3-1.9,30.3-1.9Z"/><path class="cls-31" d="m461.44,233.55c16.07,1.95,26.87,1.46,32.9-2.43,2.96-1.94,3.25-5.93,3.25-5.93-1.02-5.63-2.42-29.58-3.24-36.07-.68-5.6-1.28-10.76-1.65-14.35-.1-.86-.16-1.6-.24-2.25-.16-1.66-.27-2.64-.27-2.64.36,1.11,18.59-57.5,17.89-64.29-1.11-10.78-28.1-25.63-28.1-25.63l-16.22,29.22s-9.05,36.61-9.98,53.8c-.94,17.15,5.66,70.58,5.66,70.58Z"/><path class="cls-29" d="m434.41,360.98s1.21.16,1.35,3c.14,2.83.41,17.63-.64,18.89-1.05,1.26-21.54,18.81-24.71,20.35-4.74,2.31-16.32,1.51-19.33-3.47-3.01-4.98-1.92-9.11,3.89-14.64,3.41-3.24,13.62-17.8,16.47-23.21,2.85-5.41,18.68-5.54,22.97-.92Z"/><path class="cls-38" d="m442.7,295.7c-3.66,25.88-5.88,63.77-7.72,66.56-5.98,9.15-22.79,3.95-23.02-.49-.02-.98,0-37.99,1.5-62.47l29.25-3.6Z"/><path class="cls-13" d="m374.01,486.08v-132.78s7.99,0,7.99,0c.33-.01.67-.01,1,0h7.96s0,132.7,0,132.7h0c0,1.26-.84,2.51-2.5,3.47-3.32,1.92-8.69,1.92-11.99,0-1.61-.94-2.43-2.16-2.46-3.38h0Z"/><path class="cls-1" d="m183.29,377.89v-132.78s7.99,0,7.99,0c.33-.01.67-.01,1,0h7.96s0,132.7,0,132.7h0c0,1.26-.84,2.51-2.5,3.47-3.32,1.92-8.69,1.92-11.99,0-1.61-.94-2.43-2.16-2.46-3.38h0Z"/><path class="cls-16" d="m519.96,403.88v-132.78s7.99,0,7.99,0c.33-.01.67-.01,1,0h7.96s0,132.7,0,132.7h0c0,1.26-.84,2.51-2.5,3.47-3.32,1.92-8.69,1.92-11.99,0-1.61-.94-2.43-2.16-2.46-3.38h0Z"/><path class="cls-24" d="m522.79,253.97l-331.24-26.45-15.58-.83v13.11c-.29,2.55,1.26,5.17,4.65,7.13l190.03,109.98c6.25,3.63,16.4,3.63,22.66.02l143.52-81.71c3.08-1.78,4.63-4.09,4.7-6.41v-13.83l-18.73-1Z"/><path class="cls-12" d="m536.83,261.18l-143.52,81.72c-6.26,3.61-16.41,3.61-22.66-.02l-190.02-109.98c-6.26-3.62-6.25-9.49,0-13.11l143.52-81.72c6.26-3.61,16.41-3.61,22.66.02l190.02,109.98c6.26,3.62,6.25,9.49,0,13.11Z"/><polygon class="cls-22" points="406.8 209.27 399.14 213.69 392.57 217.48 330.39 253.38 329.91 253.1 292.83 231.69 272.08 219.72 276.63 217.09 326.18 188.48 348.49 175.6 406.8 209.27"/><polygon class="cls-32" points="339.24 235.15 302.23 213.78 304.26 212.61 341.27 233.98 339.24 235.15"/><polygon class="cls-32" points="344.53 232.1 307.52 210.73 309.55 209.56 346.56 230.92 344.53 232.1"/><polygon class="cls-32" points="349.82 229.04 312.81 207.68 314.84 206.5 351.85 227.87 349.82 229.04"/><polygon class="cls-32" points="355.11 225.99 318.1 204.62 320.13 203.45 357.14 224.81 355.11 225.99"/><polygon class="cls-32" points="360.4 222.93 323.39 201.57 325.42 200.39 362.43 221.76 360.4 222.93"/><polygon class="cls-32" points="365.69 219.88 328.68 198.51 330.71 197.34 367.72 218.71 365.69 219.88"/><polygon class="cls-32" points="370.97 216.83 333.97 195.46 336 194.28 373.01 215.65 370.97 216.83"/><polygon class="cls-26" points="330.39 253.38 330.39 259.79 406.8 215.68 406.8 209.27 330.39 253.38"/><polygon class="cls-43" points="272.08 219.72 272.08 226.13 330.39 259.79 330.39 253.38 272.08 219.72"/><polygon class="cls-22" points="458.96 266.9 451.29 271.32 444.73 275.11 382.55 311.01 382.06 310.73 344.98 289.32 324.23 277.35 328.79 274.72 378.33 246.11 400.64 233.23 458.96 266.9"/><polygon class="cls-26" points="382.55 311.01 382.55 314.74 458.96 270.62 458.96 266.9 382.55 311.01"/><polygon class="cls-43" points="324.23 277.35 324.23 281.08 382.55 314.74 382.55 311.01 324.23 277.35"/><path class="cls-39" d="m381.67,266.02s-.04,0-.06,0c-1.97.12-4.68-2.34-3.07-3.57l-13.36,4.75c4.78-5.52,2.05-11.17,2.05-11.17,5.34,1.93,15.28,1.54,15.28,1.54,0,0,1.88,3.68.7,7.17-.29.84-.87,1.21-1.55,1.27Z"/><path class="cls-10" d="m364.97,267.33c-.08-.05-.09-.12-.04-.18,4.67-5.39,2.05-10.99,2.02-11.04-.03-.07.02-.14.12-.19.1-.05.24-.06.34-.02,5.2,1.88,15.03,1.53,15.12,1.52.12,0,.22.04.26.1.02.04,1.89,3.75.7,7.25-.37,1.08-1.2,1.37-1.83,1.42-.01,0-.03,0-.03,0s-.04,0-.04,0c-1.27.08-2.62-.72-3.3-1.54-.53-.64-.66-1.26-.41-1.77l-12.58,4.47c-.11.04-.25.04-.34,0,0,0,0,0,0,0Zm2.72-10.94c.5,1.38,1.7,5.9-1.85,10.39l12.58-4.47c.12-.04.27-.04.36.02.08.06.08.14,0,.21-.59.45-.56,1.16.06,1.92.69.83,1.92,1.44,2.79,1.39,0,0,.04,0,.04,0,.75-.06,1.1-.64,1.26-1.11,1.05-3.09-.35-6.36-.64-6.99-1.43.04-9.54.21-14.6-1.36Z"/><path class="cls-10" d="m387.97,263.9s-.02-.01-.03-.02c-2.04-1.7-1.27-3.91-.91-4.69-1.72.28-3.76.17-3.86.17-.16,0-.25-.09-.21-.18.04-.09.19-.16.35-.15.02,0,2.41.12,4.07-.24.1-.02.21-.01.28.03.08.03.09.1.06.16-.02.03-1.59,2.77.71,4.69.09.07.04.18-.09.24-.12.05-.28.05-.37,0Z"/><path class="cls-22" d="m370,257.95c-.09-.05-.12-.13-.07-.21.07-.12.29-.2.5-.18.04,0,3.99.46,8.09.32.21,0,.37.09.35.21-.02.12-.21.23-.42.24-4.2.15-8.24-.32-8.28-.33-.07,0-.12-.03-.16-.05Z"/><path class="cls-22" d="m369.68,258.97c-.09-.05-.12-.13-.08-.21.07-.12.29-.2.49-.18.06,0,5.9.6,10.39.07.21-.02.4.05.41.17.01.12-.15.24-.36.26-4.63.54-10.43-.05-10.68-.07-.07,0-.13-.03-.17-.05Z"/><path class="cls-22" d="m369.64,260.06c-.08-.05-.12-.12-.08-.2.06-.12.28-.21.48-.19.06,0,5.85.48,10.32-.1.21-.03.4.05.42.17.02.12-.14.24-.36.27-4.61.6-10.36.13-10.6.11-.07,0-.14-.03-.18-.05Z"/><path class="cls-22" d="m369.42,261.18c-.08-.04-.11-.11-.09-.19.05-.12.25-.22.46-.21.06,0,6.24.25,10.41-.38.21-.03.41.04.43.16.03.12-.13.24-.34.27-4.29.65-10.41.41-10.67.4-.09,0-.16-.02-.21-.05Z"/><path class="cls-22" d="m369.34,262.26c-.08-.04-.11-.11-.09-.18.04-.12.25-.22.46-.21.06,0,6,.19,10.4-.58.21-.04.41.03.44.15.03.12-.11.24-.32.28-4.54.79-10.43.61-10.67.6-.09,0-.16-.02-.22-.05Z"/><path class="cls-22" d="m369.17,263.35c-.08-.05-.11-.11-.08-.19.05-.12.26-.22.46-.21.04,0,4.57.2,10.48-.87.21-.04.41.03.45.14.04.12-.11.24-.32.28-6.07,1.09-10.6.9-10.79.89-.08,0-.16-.02-.21-.05Z"/><path class="cls-22" d="m368.97,264.37c-.07-.04-.11-.11-.09-.18.04-.12.24-.22.45-.21.05,0,5.39.12,10.58-1.1.21-.05.42,0,.47.12.05.11-.07.25-.28.29-5.36,1.25-10.69,1.14-10.92,1.13-.09,0-.17-.02-.22-.05Z"/><path class="cls-22" d="m368.53,265.34c-.07-.04-.11-.11-.09-.18.04-.12.24-.22.45-.22.05,0,5.06.09,10.88-1.1.21-.04.42.02.46.13.04.12-.09.25-.3.29-5.97,1.22-10.97,1.13-11.18,1.13-.09,0-.17-.02-.22-.05Z"/><path class="cls-40" d="m381.61,266.02c-12.4,1.24-16.42,1.18-16.42,1.18l13.36-4.75c-1.61,1.23,1.09,3.69,3.07,3.57Z"/><path class="cls-10" d="m364.97,267.33s-.06-.05-.07-.08c-.02-.07.05-.15.16-.19l13.36-4.75c.12-.04.27-.04.36.02.08.06.08.14,0,.21-.59.45-.56,1.16.06,1.92.69.83,1.92,1.44,2.79,1.39.16,0,.28.05.28.14,0,.09-.13.17-.28.19-12.29,1.23-16.32,1.19-16.48,1.18-.07,0-.13-.02-.17-.04Zm12.92-4.46l-11.67,4.15c1.75-.05,5.98-.25,14.05-1.03-.8-.28-1.53-.8-1.98-1.34-.53-.64-.66-1.26-.41-1.77Z"/><path class="cls-10" d="m390.69,266.29c.49-.5,1.01-1.09.17-1.57-.53-.31-1.31-.26-1.9.09s-.59.73-.25,1.46c.42.89.49,1.56-.56,2.17-1.25.72-3.05.73-4.36-.03-.58-.34-.93-.74-1.21-1.08.19-.17,1.13-.9,1.56-1.22l.45.15c-.48.49-1.12,1.45-.23,1.97.56.32,1.3.29,1.97-.11.61-.35.64-.75.35-1.47-.36-.89-.45-1.55.65-2.19s2.74-.71,4.11.08c.63.36.95.73,1.12.86-.35.25-.84.6-1.43,1.03l-.44-.15Z"/><path class="cls-10" d="m391.58,272.43c-.63-.27-1.35-.53-2.12-.78l.72-.41c-.73,0-1.48-.02-1.98-.31-.77-.44-.63-1.02.31-1.56l2.19-1.26c.49-.28.48-.34.31-.53l-.13-.15.34-.2c.49.26,1.28.63,1.88.88-.46.25-1.02.56-1.62.91l-1.54.89c-.69.4-.62.7-.3.89.26.15.52.23.96.2l2.55-1.47c.49-.28.52-.36.32-.53l-.21-.19.34-.2c.55.29,1.4.7,1.94.91l-3.44,1.99c-.55.32-.61.42-.35.6l.18.13-.35.2Z"/><path class="cls-10" d="m396.72,275.69l.36-.21c.43.17.54.19,1.18-.19l1.83-1.06c.88-.51.68-.8.4-.97-.18-.11-.46-.19-1-.2-.12.08-.27.18-.43.27l-2.13,1.23c-.59.34-.62.39-.26.67l-.36.21-2.06-1.19.36-.21c.47.2.53.2,1.15-.16l1.92-1.11c.75-.43.74-.72.4-.92-.23-.13-.54-.2-1.02-.22l-2.6,1.5c-.59.34-.59.4-.32.64l-.36.21-2.09-1.21.36-.21c.58.25.65.24,1.28-.13l2.24-1.29c.59-.34.68-.4.32-.69l.34-.2c.57.26,1.24.47,2.01.7l-.79.46c.36.02.66.04.99.07.48.05.83.1,1.1.26.51.3.53.67.22,1.05.41.02.74.04,1.15.06.35.03.74.1,1.02.26.79.46.59,1.06-.49,1.68l-2.05,1.18c-.58.34-.58.39-.21.69l-.36.21-2.09-1.21Z"/><path class="cls-10" d="m404.26,280.04l.36-.21c.43.17.54.19,1.18-.19l1.83-1.06c.88-.51.68-.8.4-.97-.18-.11-.46-.19-1-.2-.12.08-.27.18-.43.27l-2.13,1.23c-.59.34-.62.39-.26.67l-.36.21-2.06-1.19.36-.21c.47.2.53.2,1.15-.16l1.92-1.11c.75-.43.74-.72.4-.92-.23-.13-.54-.2-1.02-.22l-2.6,1.5c-.59.34-.59.4-.32.64l-.36.21-2.09-1.21.36-.21c.58.25.65.24,1.28-.13l2.24-1.29c.59-.34.68-.4.32-.69l.34-.2c.57.26,1.24.47,2.01.7l-.79.46c.36.02.66.04.99.07.48.05.83.1,1.1.26.51.3.53.67.22,1.05.41.02.74.04,1.15.06.35.03.74.1,1.02.26.79.46.59,1.06-.49,1.68l-2.05,1.18c-.58.34-.58.39-.21.69l-.36.21-2.09-1.21Z"/><path class="cls-10" d="m406.76,281.48l.36-.21c.57.24.66.25,1.41-.18l2.06-1.19c.71-.41.7-.46.34-.74l.35-.2c.65.29,1.36.54,2.03.73l-1.31.76-2.29,1.32c-.72.41-.76.48-.3.83l-.36.21-2.29-1.32Zm6.54-2.54c-.35-.2-.32-.57.09-.81.43-.25,1.06-.25,1.42-.05.37.21.34.56-.09.81s-1.04.26-1.42.05Z"/><path class="cls-10" d="m411.29,284.12c-.24-.04-.42-.11-.48-.14-.7-.41-.74-.87.22-1.42l2.95-1.7-.58-.34.07-.1.67-.08.37.22.88-.51c.56.03,1.35.1,1.92.13l.03.12c-.29.16-.87.47-1.66.94l.91.53c-.02.11-.39.28-.6.26l-.84-.49-2.59,1.49c-.82.48-.63.7-.45.8.16.09.31.14.54.19l-.29.27-1.08-.17Z"/><path class="cls-10" d="m381.09,269.95c.12-.11.23-.24.28-.32.07-.12.06-.16-.18-.3l-.43-.25-2.43,1.4c-.39.22-.41.28-.03.53l-.14.08-1.26-.73.14-.08c.43.21.52.21.91-.02l2.43-1.4-.39-.23c-.24-.14-.34-.16-.56-.12-.15.03-.31.08-.55.15l-.13-.07c.33-.16.67-.33.96-.48l.1.06c-.06.11,0,.13.12.2l1.71.99c.12.07.18.08.33.06l.1.06c-.23.14-.58.35-.85.53l-.14-.07Z"/><path class="cls-10" d="m380.33,271.87c-.68.07-1.06-.05-1.2-.13-.53-.3-.35-.78.23-1.11.34-.2.76-.32,1.15-.34.42-.03.78.03,1.01.16.38.22.29.6-.11.83-.1.06-.16.07-.25.05-.11-.04-.7-.33-1.24-.62-.68.38-.6.74-.3.92.18.1.43.15.76.14l-.05.11Zm.9-1.37c-.2-.11-.61-.1-1.07.1.24.14.48.28.75.42.08.04.13.05.2,0,.27-.15.36-.38.12-.52Z"/><path class="cls-10" d="m382,272.8c-.48.06-.99.02-1.25-.13-.55-.32-.36-.8.18-1.11.39-.23.87-.33,1.41-.31.43.01.77.12.94.21.19.11.27.23.27.31,0,.07-.02.09-.08.12-.12.07-.33.07-.38.04-.02-.01-.03-.03-.03-.08,0-.16-.07-.28-.23-.37-.28-.16-.82-.15-1.33.15-.7.4-.52.77-.27.91.18.1.38.16.8.15l-.04.11Z"/><path class="cls-10" d="m382.65,273.69l.14-.08c.28.13.34.13.67-.06l.82-.47c.41-.24.49-.44.19-.6-.16-.09-.43-.14-.72-.11l-1.18.68c-.32.19-.32.22-.09.39l-.14.08-.94-.54.14-.08c.28.13.36.15.69-.04l2.41-1.39c.26-.15.32-.2.06-.38l.13-.08c.25.12.59.22.81.27l-.62.36-1.08.63c.34-.01.76.02.99.15.35.2.35.49-.25.84l-.88.51c-.33.19-.32.22-.09.38l-.14.08-.91-.53Z"/><path class="cls-10" d="m384.74,274.9l.14-.08c.28.13.34.12.68-.07l.82-.48c.35-.2.48-.4.19-.56-.18-.1-.47-.13-.74-.13l-1.17.67c-.34.2-.33.22-.1.38l-.14.08-.93-.54.14-.08c.32.14.37.15.7-.04l1.03-.59c.32-.19.31-.21.12-.37l.13-.07c.25.1.53.18.8.23l-.39.23c.16,0,.33.02.52.04.21.02.38.05.51.12.35.2.27.49-.22.77l-.95.55c-.34.2-.33.22-.11.38l-.14.08-.89-.52Z"/><path class="cls-10" d="m388.8,274.64c.54.31.47.82-.18,1.19-.81.47-1.71.39-2.13.15-.6-.34-.4-.87.16-1.2.81-.47,1.75-.38,2.16-.14Zm-.22.07c-.26-.15-.8-.12-1.37.22-.63.37-.85.77-.5.98.27.15.72.15,1.4-.24.58-.34.85-.73.47-.95Z"/><path class="cls-10" d="m387.42,276.45l.14-.08c.31.14.37.15.7-.04l2.39-1.38c.3-.18.31-.21.08-.39l.13-.08c.26.12.61.23.81.27l-.71.41-2.36,1.36c-.33.19-.33.22-.08.4l-.14.08-.96-.55Z"/><path class="cls-10" d="m391.52,276.21c.54.31.47.82-.18,1.19-.81.47-1.71.39-2.13.15-.6-.34-.4-.87.16-1.2.81-.47,1.75-.38,2.16-.14Zm-.22.07c-.26-.15-.8-.12-1.37.22-.63.37-.85.77-.5.98.27.15.72.15,1.4-.24.58-.34.85-.73.47-.95Z"/><path class="cls-10" d="m391.54,277.99c-.2,0-.33.03-.39.06-.09.05-.12.15.08.26.16.09.35.19.49.28.28.16.53.42.03.71-.52.3-1.54.28-2.11-.06-.49-.28-.42-.62-.14-.8.11-.06.24-.1.39-.1.19-.01.52,0,.71,0-.11-.12-.1-.25-.05-.34.04-.07.11-.13.16-.15.23.05.52.06.74.03l.09.11Zm.16.15c-.4-.23-.45-.59.02-.86.57-.33,1.27-.23,1.61-.03.14.08.24.19.29.31.2.11.5.24.65.29l-.02.04c-.11.03-.31.07-.42.06-.06-.04-.19-.13-.24-.17-.04.11-.15.23-.33.33-.54.31-1.19.24-1.56.02Zm-.64.48c-.21-.12-.34-.16-.49-.16-.24,0-.47.03-.62.12-.27.16-.23.42.1.61.41.24.89.23,1.21.05.17-.1.24-.22.17-.32-.05-.09-.19-.19-.38-.29Zm2.07-1.31c-.19-.11-.57-.09-.97.13s-.5.49-.26.62c.2.1.55.09.96-.14s.51-.48.27-.62Z"/><path class="cls-10" d="m396.01,279.03c-.26-.11-.35-.11-.74,0-.39.1-.84.23-2.01.56-1.08.3-1.47.43-1.8.54-.13.05-.2.03-.26,0-.14-.08-.15-.22-.02-.29.06-.04.14-.05.27-.05.26,0,.48,0,.66-.05.3-.07.54-.13.63-.16.09-.03.14-.06.2-.12.4-.43.78-.92,1.01-1.2.18-.21.2-.27,0-.43l.13-.08.87.5-.13.08c-.23-.09-.31-.08-.43.06l-.81.95c.47-.13,1.19-.35,1.6-.48.24-.08.27-.13.06-.3l.13-.08.79.46-.13.08Z"/><path class="cls-10" d="m395.9,281.34l.14-.08c.32.14.41.13.53-.01.14-.14.3-.34.53-.57l-.93-.54c-.29.09-.55.16-.82.25-.42.13-.4.19-.09.42l-.14.08-1-.58.14-.08c.31.13.42.15,1.02-.02l3.52-1,.17.06c-.58.65-1.23,1.37-1.82,2.02-.3.33-.3.38-.03.58l-.14.08-1.07-.62Zm2.23-1.79c-.57.17-1.17.35-1.69.5l.81.47.89-.96Z"/><path class="cls-10" d="m399.06,280.87l-.31-.18.04-.04.24-.03.23.13h.02c.36-.22.85-.35,1.39-.35.32,0,.65.06.86.15.31.19.31.38.28.48l-.49.06c.06-.13.12-.32-.16-.48-.39-.23-1.03.03-1.43.26l-.12.07.82.48.1-.06c.39-.22.89-.36,1.44-.36.34,0,.64.07.82.16.29.17.29.34.25.41-.02.05-.07.09-.15.12-.08.02-.17.03-.26.02-.09-.01-.14-.04-.14-.1.03-.12.06-.3-.15-.42-.13-.07-.3-.08-.45-.06-.21.02-.57.15-.98.39l-.15.09.35.2c.35.2.63.35.88.43l-1.76,1.01c-.31.18-.3.21-.04.39l-.14.08-.94-.54.14-.08c.28.13.33.14.64-.04l1.23-.71c.22-.13.25-.16.03-.28l-.6-.34-1.44.83c-.35.2-.35.22-.1.41l-.14.08-.93-.54.14-.08c.3.14.33.14.66-.05l1.47-.85-.82-.48-1.44.83c-.35.2-.37.21-.1.41l-.14.08-.95-.55.14-.08c.3.14.36.15.68-.04l1.47-.85Z"/><path class="cls-10" d="m399.93,283.67l.14-.08c.31.14.37.15.7-.04l2.39-1.38c.3-.18.31-.21.08-.39l.13-.08c.26.12.61.23.81.27l-.71.41-2.36,1.36c-.33.19-.33.22-.08.4l-.14.08-.96-.55Z"/><path class="cls-10" d="m400.81,284.18l.14-.08c.3.14.36.14.7-.05l1.03-.59c.31-.18.32-.2.11-.38l.12-.07c.27.1.54.18.81.24l-.63.36-1.1.63c-.34.2-.33.23-.08.41l-.14.08-.95-.55Zm3.2-1.33c-.12-.07-.1-.2.04-.28.16-.09.38-.1.51-.02.12.07.11.19-.05.29-.14.08-.36.1-.49.02Z"/><path class="cls-10" d="m402.98,285.5c-.07-.04-.12-.12-.11-.17,0-.07.05-.13.12-.19-.31-.02-.7-.04-.84-.11-.31-.18-.23-.47.09-.66.24-.14.52-.17.85-.08.37.09.82.2,1.01.21l.1-.06c.35-.2.4-.41.18-.54-.1-.06-.21-.06-.32-.05-.12.01-.26.06-.44.12-.1.03-.18.03-.24,0-.08-.05-.09-.17.03-.24.07-.04.19-.04.34-.03.23.01.67.05.97.16.13.07.22.18.23.29,0,.17-.1.31-.36.46l-.96.56c-.23.13-.23.22-.15.26.05.03.13.05.21.06l-.1.11-.62-.07Zm.95-.91c-.15-.02-.46-.08-.61-.11-.25-.05-.44-.05-.63.06-.26.15-.21.32-.07.4.11.06.35.11.53.1l.78-.45Z"/><path class="cls-10" d="m404.09,286.07c-.12-.02-.21-.04-.25-.07-.28-.16-.23-.36.17-.59l1.45-.84-.3-.17.04-.04.26-.02.2.11.42-.24c.18-.01.44-.01.62-.02l.05.04c-.22.12-.51.28-.75.42l.49.28c-.01.05-.13.11-.23.1l-.47-.27-1.28.74c-.4.23-.34.36-.23.42.1.06.25.09.34.11l-.09.1-.46-.06Z"/><path class="cls-10" d="m406.18,286.79c-.68.07-1.06-.05-1.2-.13-.53-.3-.35-.78.23-1.11.34-.2.76-.32,1.15-.34.42-.03.78.03,1.01.16.38.22.29.6-.11.83-.1.06-.16.07-.25.05-.11-.04-.7-.33-1.24-.62-.68.38-.6.74-.3.92.18.1.43.15.76.14l-.05.11Zm.9-1.37c-.2-.11-.61-.1-1.07.1.24.14.48.28.75.42.08.04.13.05.2,0,.27-.15.36-.38.12-.52Z"/><path class="cls-10" d="m408.46,286.75c.21-.21.3-.39.04-.54-.15-.09-.39-.08-.59.03-.21.12-.19.25-.08.47.17.33.2.53-.13.72-.46.27-1.06.19-1.4,0-.22-.13-.34-.29-.37-.38.12-.1.36-.28.51-.38l.15.06c-.24.23-.35.47-.05.64.16.09.43.1.64-.02.22-.13.22-.26.12-.47-.13-.27-.22-.51.14-.71s.91-.22,1.32.02c.18.1.28.22.35.28-.11.08-.39.28-.49.36l-.16-.05Z"/><polygon class="cls-39" points="410.68 285.35 380.5 267.92 381.1 267.58 411.28 285 410.68 285.35"/><path class="cls-20" d="m420.32,133.71c.21,2.74.39,5.4.52,7.95-.97,1.05-2.03,2.04-3.08,2.92-1.23,1.04-2.48,1.96-3.82,2.66-7.11,3.89-46.53,21.5-46.53,21.5-1.72-.34-4.81-1.99-5.84-3.67-2.33-3.83-1.9-6.34-1.51-7.39.13-.37.26-.56.26-.56,0,0,38-27.65,39.61-29.11,1.02-.91,8.65-21.51,16.23-36.72,2.52-5.08,5.04-9.57,7.32-12.51-6.1,9.5-5.26,27.97-3.15,54.93Z"/><path class="cls-3" d="m367.69,167.02c-.06,1.02-.27,1.71-.27,1.71-.49-.11-1.09-.3-1.73-.59-1.59-.7-3.37-1.89-4.11-3.08-1.41-2.31-1.8-4.15-1.82-5.46-.01-.87.15-1.51.3-1.93.42.07,1.04.26,1.79.63,1.12.55,2.53,1.51,3.96,3.01.15.16.3.33.43.5.06.08.13.18.19.26.05.07.11.14.15.21,1.04,1.64,1.18,3.44,1.1,4.73Z"/><path class="cls-42" d="m420.85,141.66c-.98,1.05-2.03,2.03-3.08,2.91-.04-1.12-.11-2.28-.18-3.43-.14-2.56-.32-5.22-.53-7.95-.07-.74-.14-1.47-.18-2.17-.74-9.35.46-17.59,1.89-24.77.07,7.88.7,17.03,1.54,27.47.21,2.73.39,5.4.53,7.95Z"/><path class="cls-2" d="m452.16,75.72s-10.25,18.27-13.06,44.77c-2.8,26.5-3.66,37.89-3.66,37.89l-4.81-42.35,5.47-1.08-4.68-7.18s8.34-31.14,17.11-35.9l6.11,1.85-2.47,1.98Z"/><path class="cls-9" d="m454.63,89.77l-11.46,6.65s4.7-17.47,8.23-20.7c0,0,2.45.25,3.23.18,0,0-.24,4.05-.19,9.6.02,2.33.19,4.27.19,4.27Z"/><polygon class="cls-10" points="458.83 102.43 453.47 107.53 447.86 104.97 445.85 94.71 453.77 89.84 458.1 92 458.83 102.43"/><path class="cls-10" d="m453.66,107.33s-1.84,41.34,1.57,80.17l-10.74,5.95-7.2-11.89s1.06-51.82,10.77-76.79c0,0,5.67,1.14,5.61,2.56Z"/><path class="cls-35" d="m480.4,78.45s-13.81,19.55-17.47,32.66c-3.66,13.11-7.15,51.85-7.15,51.85l15.06-36.86-5.38-4.71,7.95-2.13,13.77-36.14-6.78-4.67Z"/><path class="cls-42" d="m481.37,132.27c-7.62,19.63-12.81,43.45-13.47,43.83-.66.38-42.75,9.15-42.75,9.15,0,0-7.05,4-1.2,14.74,0,0,56.67.66,63.09-3.56,6.43-4.23,17.37-39.15,17.42-49.19.07-12.13,10.13-27.89-.64-33.33-8.1-4.08-17.34,5.18-22.45,18.35Z"/><path class="cls-19" d="m420.94,188.37s6.76-1.52,7.42,0c.83,1.91,3.73,10.82-4.78,11.95,0,0-12.3,4.77-18.92,5.57-6.63.8-12.76.28-12.89-5.57-.12-5.85,3.03-9.86,4.77-10.48,2.71-.97,13.18-1.57,13.18-1.57,0,0-4.55-2.33-4.28-4.78.24-2.2,3.66-1.32,8.2,1.04,1.8.94,7.3,3.84,7.3,3.84Z"/><path class="cls-4" d="m512.41,133.2c-1.39,9.95-15.27,60.16-21.68,64.39-6.43,4.24-66.94,3.86-66.94,3.86-.77-1.41-1.34-2.68-1.77-3.85-2.85-7.77.93-10.5.93-10.5,0,0,49.09-7.46,49.74-7.84.67-.39,6.45-28.06,11.45-48.51,2.08-8.52,12.09-41.54,19.14-35.83,3.16,2.55,5.43,5.96,6.99,9.88,3.29,8.21,3.47,18.7,2.13,28.4Z"/><path class="cls-23" d="m241.29,440.99c14.73-8.51,38.54-8.51,53.18,0,14.64,8.51,14.56,22.29-.17,30.8-14.74,8.51-38.54,8.51-53.18,0-14.64-8.51-14.56-22.3.17-30.8h0Z"/><path class="cls-7" d="m259.82,451.83v-60.87s7.99,0,7.99,0c.33-.01.67-.01,1,0h7.96s0,60.79,0,60.79h0c0,1.26-.84,2.51-2.5,3.47-3.32,1.92-8.69,1.92-11.99,0-1.61-.94-2.43-2.16-2.46-3.38h0Z"/><path class="cls-21" d="m264.83,332.23s-1.15,2.85-3.71,6.22c-1.31,1.75-3.03,3.65-5.15,5.35-2.39,1.93-5.3,3.63-8.79,4.65-43.47,12.76-67.53-15.32-67.53-15.32,0,0,2.32-19.73-4.96-52.56-3.13-14.09-4.65-29.3-4.55-42.49.11-17.54,3.09-31.5,8.88-34.43,10.19-5.15,25.74-2.94,25.74-2.94,0,0,5.66,6.41,8.75,5.84,0,0,24.71,14.15,27.36,19.08,2.73,5.1,4.61,10.86,5.99,16.98,4.2,18.62,3.68,40.45,8.13,56.56,6.99,25.25,9.83,33.05,9.83,33.05Z"/><path class="cls-15" d="m264.83,332.23s-2.63,6.54-8.87,11.57c-25.6-43.25-27.89-86.32-27.89-86.32l18.79-14.86c4.2,18.62,3.68,40.45,8.13,56.56,6.99,25.25,9.83,33.05,9.83,33.05Z"/><path class="cls-19" d="m306.3,271.66s6.62-3.33,8.77-6.02c2.15-2.69,6.06-10.46,8.24-10.21s2.04,6.14,1.64,6.46c-.4.32,4.71-2.62,11.76-5.04,5.62-1.93,8.3-1.48,10.17,7.31,1.63,7.64.7,11.29-3.87,13.12-4.57,1.82-9.63,1.55-17.73,3.64-8.1,2.09-13.2,4.24-13.2,4.24l-5.78-13.49Z"/><path class="cls-17" d="m316.69,284.98s-51.87,31.63-63.78,24.91c-9.72-5.49-19.69-31.62-26.2-48.74-1.48-3.86-2.53-7.37-2.98-10.21-2.46-15.43,17.21-25.47,17.21-25.47l21.83,60.1,45.48-16.34s7.16,1.18,8.37,10.6c.2,1.5.23,3.21.07,5.16Z"/><path class="cls-19" d="m452.81,74.03l-.54,7.97-.17,2.59c.52,2.33,1.74,8.74,12.28,6.22,7.1-1.71,13.97-6.85,13.97-6.85l-.44-26.87-25.11,16.94Z"/><path class="cls-36" d="m452.81,74.03l-.54,7.97c10.6,3.05,17.39-3.69,21.94-12.16,1.87-3.48,3.42-15.81,3.42-15.81l-24.82,20Z"/><path class="cls-19" d="m438.6,44.32s.83,13.18,3.13,21.39c1.62,5.78,4.65,14.89,19.94,11.76,15.3-3.12,21.98-15.52,18.65-35.48-3.33-19.96-30.54-17.32-35.86-12.6-5.32,4.73-6.11,10.87-5.87,14.92Z"/><path class="cls-33" d="m435.31,41.53c-6.38-9.21,1.05-24.17,18.44-28.53,10.48-2.63,25.59,3.6,26.92,10.88,0,0,3.8,3.21,5.84,11.46,2.05,8.25-.95,24.29-8.46,30.7,0,0,1.6-11.08-.43-12.02-1.83-.84-2.97-.09-3.73.99-.26.51-.52,1.05-.76,1.61,0,.02,0,.04-.01.06h-.01c-.83,1.9-1.53,4.02-1.78,5.92-.43,3.23,2.61,6.54,1.23,9.08-2.1,3.87-11.46,8.21-21.67,6.72-10.21-1.5-10.52-15.92-10.52-15.92,0,0,2.04-1.36,9.42-.14,7.39,1.22,12.05,4.49,12.05,4.49,6.37-5.34,7.49-11.16,7.49-11.16.54-1.73.84-3.29,1.03-4.35l.48-5.62s-27.51,7.4-35.53-4.17Z"/><path class="cls-9" d="m478.22,74.08l3.15,5.68s-2.3,18.62-22.4,25.82l-1.73-14.85s20.04-3.9,20.98-16.66Z"/><path class="cls-19" d="m235.73,170.8s.84,22.67-1.88,28.83-14.16,10.11-28.43,1.8c-14.27-8.3-13.24-35.96-5.37-39.37,7.87-3.41,33.94-2.39,35.68,8.73Z"/><path class="cls-18" d="m174.54,254.73c10.21-20.29-11.13-28.42-1.48-46.76,9.47-17.99,3.94-26.18,3.73-36.7-.22-10.52,7.9-26.13,19.37-28.24,0,0,0,0,0,0,1.55-.62,3.29-1.13,5.26-1.47,15.61-2.7,32.27,2.56,34.29,18.46,1.58,12.46-.74,15.21-.74,15.21-2.09,5.58-5.94,5.66-6.71,21.12-.77,15.46,11.04,22.96-.93,37.76-13.3,16.43-2.95,26.98-1.15,38.95,1.8,11.97.52,26.23-27.8,23.86-25.58-2.14-35.76-18.49-23.84-42.17Z"/><path class="cls-34" d="m143.78,272.94c3.82,14.71,38.59,92.27,44.89,100.01,6.73,8.24,52.13,33.3,66.19,30.85,1.72-.3,3.13.26,5.71-.74,18.56-7.14,53.54-26.95,55.82-37.34,2.37-10.81-3.5-18.12-11.63-13.33-8.9,5.24-25.38,16.76-42.46,22.7-7.5,2.61-28.88-67.28-40.71-77.01-11.83-9.74-55.82-40.28-64.37-39.67-8.55.61-13.13,6.3-13.74,12.47-.04.38.07,1.08.31,2.07Z"/><path class="cls-30" d="m146.44,274.08c-1.07-.47-2.18.55-1.81,1.66,6.53,19.82,38.07,89.87,44.04,97.21,6.73,8.24,52.13,33.3,66.19,30.85,1.72-.3,3.13.26,5.71-.74-31.44-12.67-40.41-71.72-55.63-93.04-4.85-6.8-44.35-29.78-58.49-35.93Z"/><path class="cls-37" d="m358.77,161.63s-4.16,2.31-4.56,6.78,6.36-.17,6.87-1.89c.52-1.72-2.31-4.89-2.31-4.89Z"/><path class="cls-19" d="m367.69,167.02l-2,1.12-9.05,5.08-2.48,6.24s.59,1.66.68,2.3c.09.63-.45,1.67-1.85,1.45-1.39-.23-6.69-6.1-7.08-8.95-.41-2.85,2.61-7.95,3.7-8.49.73-.36,6.48-3.9,10.16-6.17.83-.52,1.56-.96,2.1-1.3,1.12.55,2.53,1.51,3.96,3.01.15.16.3.33.43.5.06.08.13.18.19.26.05.07.11.14.15.21,1.04,1.64,1.18,3.44,1.1,4.73Z"/><path class="cls-19" d="m362.19,169.19s.95,5.4-.04,8.29c-.99,2.89-4.65,5.87-5.46,5.28s-1.4-2.57-.72-4.79,4.24-8.2,6.23-8.79Z"/><path class="cls-10" d="m352.5,189.74c-.8-3.01-.11-5.79.41-8.71.49-2.83,1.03-5.65,1.59-8.46,1.14-5.62,2.33-11.24,3.83-16.78.29-1.07,1.39-1.7,2.46-1.41.99.27,1.61,1.24,1.46,2.23-.86,5.68-2.04,11.3-3.27,16.9-.98,4.19-1.88,8.41-3.04,12.55-.3.88-2.21,5.96-3.42,3.68h0Z"/><path class="cls-19" d="m352.98,183.22c-1.39-.23-6.74-5.08-7.13-7.92-.13-.91.14-3.09.54-4.23l7.71.34s-.71,6.61.06,8.07c.28.53.59,1.66.68,2.3.09.63-.45,1.67-1.85,1.45Z"/></g></g></svg>