<svg xmlns="http://www.w3.org/2000/svg" xmlns:xlink="http://www.w3.org/1999/xlink" width="150" zoomAndPan="magnify" viewBox="0 0 112.5 89.999999" height="120" preserveAspectRatio="xMidYMid meet" version="1.0"><defs><filter x="0%" y="0%" width="100%" height="100%" id="a9db81e91d"><feColorMatrix values="0 0 0 0 1 0 0 0 0 1 0 0 0 0 1 0 0 0 1 0" color-interpolation-filters="sRGB"/></filter><mask id="ffc3db8f4a"><g filter="url(#a9db81e91d)"><rect x="-11.25" width="135" fill="#000000" y="-9" height="107.999999" fill-opacity="0.2"/></g></mask><clipPath id="71d08c67fb"><path d="M 0.269531 0.898438 L 110.03125 0.898438 L 110.03125 80.792969 L 0.269531 80.792969 Z M 0.269531 0.898438 " clip-rule="nonzero"/></clipPath><clipPath id="3beb6412a1"><rect x="0" width="111" y="0" height="82"/></clipPath></defs><g mask="url(#ffc3db8f4a)"><g transform="matrix(1, 0, 0, 1, 1, 4)"><g clip-path="url(#3beb6412a1)"><g clip-path="url(#71d08c67fb)"><path fill="#000000" d="M 29.824219 43.109375 L 31.507812 43.109375 C 36.121094 43.109375 40.203125 44.996094 43.757812 48.765625 C 47.3125 52.535156 49.089844 56.84375 49.089844 61.691406 C 49.089844 67.082031 47.039062 71.605469 42.941406 75.269531 C 38.839844 78.929688 33.746094 80.761719 27.664062 80.761719 C 19.835938 80.761719 13.316406 77.753906 8.101562 71.734375 C 2.878906 65.714844 0.273438 58.1875 0.273438 49.152344 C 0.273438 37.757812 4.144531 27.777344 11.886719 19.203125 C 19.628906 10.632812 30.3125 4.542969 43.9375 0.933594 L 43.9375 7.855469 C 34.03125 14.722656 29.082031 23.738281 29.082031 34.898438 L 29.828125 43.105469 Z M 104.878906 0.933594 L 104.878906 7.53125 C 100.417969 10.113281 96.828125 13.949219 94.105469 19.046875 C 91.378906 24.144531 90.019531 29.53125 90.019531 35.21875 C 90.019531 38.007812 90.265625 40.640625 90.765625 43.109375 C 96.625 43.433594 101.300781 45.292969 104.789062 48.6875 C 108.28125 52.082031 110.03125 56.414062 110.03125 61.691406 C 110.03125 66.964844 107.890625 71.605469 103.605469 75.269531 C 99.320312 78.929688 93.949219 80.761719 87.492188 80.761719 C 79.417969 80.761719 72.871094 77.914062 67.84375 72.214844 C 62.8125 66.519531 60.304688 59.152344 60.304688 50.121094 C 60.304688 42.917969 62.066406 35.917969 65.59375 29.121094 C 69.117188 22.328125 73.855469 16.816406 79.804688 12.59375 C 85.746094 8.371094 94.101562 4.484375 104.875 0.933594 Z M 104.878906 0.933594 " fill-opacity="1" fill-rule="nonzero"/></g></g></g></g></svg>