<svg xmlns="http://www.w3.org/2000/svg" xmlns:xlink="http://www.w3.org/1999/xlink" width="150" zoomAndPan="magnify" viewBox="0 0 112.5 89.999999" height="120" preserveAspectRatio="xMidYMid meet" version="1.0"><defs><clipPath id="ffac9f8137"><path d="M 1.269531 4.898438 L 111 4.898438 L 111 84.792969 L 1.269531 84.792969 Z M 1.269531 4.898438 " clip-rule="nonzero"/></clipPath></defs><g clip-path="url(#ffac9f8137)"><path fill="#bf2026" d="M 30.742188 47.269531 L 32.421875 47.269531 C 37.019531 47.269531 41.09375 49.160156 44.636719 52.945312 C 48.183594 56.734375 49.953125 61.054688 49.953125 65.921875 C 49.953125 71.332031 47.910156 75.875 43.824219 79.550781 C 39.730469 83.226562 34.652344 85.0625 28.585938 85.0625 C 20.785156 85.0625 14.28125 82.042969 9.078125 76.003906 C 3.871094 69.960938 1.273438 62.402344 1.273438 53.335938 C 1.273438 41.898438 5.136719 31.878906 12.855469 23.273438 C 20.574219 14.667969 31.230469 8.558594 44.816406 4.933594 L 44.816406 11.882812 C 34.9375 18.773438 30 27.824219 30 39.027344 L 30.746094 47.265625 Z M 105.589844 4.933594 L 105.589844 11.558594 C 101.144531 14.148438 97.5625 17.996094 94.84375 23.113281 C 92.128906 28.230469 90.769531 33.640625 90.769531 39.347656 C 90.769531 42.152344 91.015625 44.792969 91.515625 47.269531 C 97.355469 47.59375 102.019531 49.460938 105.503906 52.867188 C 108.984375 56.273438 110.726562 60.625 110.726562 65.921875 C 110.726562 71.21875 108.589844 75.875 104.320312 79.550781 C 100.046875 83.226562 94.691406 85.0625 88.25 85.0625 C 80.199219 85.0625 73.671875 82.207031 68.65625 76.484375 C 63.640625 70.769531 61.136719 63.375 61.136719 54.308594 C 61.136719 47.078125 62.894531 40.050781 66.414062 33.230469 C 69.929688 26.40625 74.652344 20.875 80.582031 16.636719 C 86.507812 12.398438 94.84375 8.496094 105.585938 4.933594 Z M 105.589844 4.933594 " fill-opacity="1" fill-rule="nonzero"/></g></svg>