<?xml version="1.0" encoding="UTF-8"?>
<svg id="Layer_1" data-name="Layer 1" xmlns="http://www.w3.org/2000/svg" viewBox="0 0 4200 2000">
  <defs>
    <style>
      .cls-1 {
        fill: #bf2026;
      }

      .cls-2 {
        fill: none;
        stroke: #30991a;
        stroke-miterlimit: 10;
        stroke-width: 50px;
      }

      .cls-3 {
        fill: #680e14;
      }

      .cls-4 {
        fill: #fff;
      }

      .cls-5 {
        fill: #999;
      }

      .cls-6 {
        fill: #ccc;
      }

      .cls-7 {
        fill: #b3b3b3;
      }
    </style>
  </defs>
  <polygon class="cls-5" points="2459.83 389.48 1430.78 389.48 1400.61 419.65 1400.61 1877.57 1421.39 1898.35 2469.22 1898.35 2490 1877.57 2490 419.65 2459.83 389.48"/>
  <polygon class="cls-7" points="2441.39 371.04 1412.34 371.04 1382.17 401.21 1382.17 1859.13 1402.95 1879.91 2450.79 1879.91 2471.57 1859.13 2471.57 401.21 2441.39 371.04"/>
  <polygon class="cls-6" points="2421.22 353 1392.17 353 1362 383.17 1362 1841.09 1382.78 1861.87 2430.61 1861.87 2451.39 1841.09 2451.39 383.17 2421.22 353"/>
  <polygon class="cls-4" points="2396.92 328.43 1367.87 328.43 1337.7 358.61 1337.7 1816.53 1358.47 1837.3 2406.31 1837.3 2427.09 1816.53 2427.09 358.61 2396.92 328.43"/>
  <rect class="cls-5" x="1873.87" y="511.43" width="17.04" height="184.7"/>
  <rect class="cls-5" x="2170.57" y="603.78" width="17.04" height="184.7"/>
  <rect class="cls-5" x="1585.7" y="603.78" width="17.04" height="184.7"/>
  <rect class="cls-1" x="1472.13" y="666.39" width="244.17" height="125.22" rx="17.3" ry="17.3"/>
  <rect class="cls-5" x="1878.13" y="294.3" width="17.04" height="601.91" transform="translate(1291.39 2481.91) rotate(-90)"/>
  <rect class="cls-1" x="1754.22" y="666.39" width="244.17" height="125.22" rx="17.3" ry="17.3"/>
  <rect class="cls-1" x="1754.22" y="403.43" width="244.17" height="125.22" rx="17.3" ry="17.3"/>
  <path class="cls-3" d="M1782.22,511.35v-90.61c0-9.56,7.75-17.3,17.3-17.3h-28c-9.56,0-17.3,7.75-17.3,17.3v90.61c0,9.56,7.75,17.3,17.3,17.3h28c-9.56,0-17.3-7.75-17.3-17.3Z"/>
  <path class="cls-3" d="M1500.13,774.3v-90.61c0-9.56,7.75-17.3,17.3-17.3h-28c-9.56,0-17.3,7.75-17.3,17.3v90.61c0,9.56,7.75,17.3,17.3,17.3h28c-9.56,0-17.3-7.75-17.3-17.3Z"/>
  <path class="cls-3" d="M1782.22,774.3v-90.61c0-9.56,7.75-17.3,17.3-17.3h-28c-9.56,0-17.3,7.75-17.3,17.3v90.61c0,9.56,7.75,17.3,17.3,17.3h28c-9.56,0-17.3-7.75-17.3-17.3Z"/>
  <rect class="cls-1" x="2048.48" y="666.39" width="244.17" height="125.22" rx="17.3" ry="17.3"/>
  <path class="cls-3" d="M2076.48,774.3v-90.61c0-9.56,7.75-17.3,17.3-17.3h-28c-9.56,0-17.3,7.75-17.3,17.3v90.61c0,9.56,7.75,17.3,17.3,17.3h28c-9.56,0-17.3-7.75-17.3-17.3Z"/>
  <path class="cls-5" d="M1516.76,1712.68l-23.45-18.29,18.29-23.45c2.89-3.71,2.23-9.07-1.48-11.96h0c-3.71-2.89-9.07-2.23-11.96,1.48l-18.29,23.45-23.45-18.29c-3.71-2.89-9.07-2.23-11.96,1.48h0c-2.89,3.71-2.23,9.07,1.48,11.96l23.45,18.29-18.29,23.45c-2.89,3.71-2.23,9.07,1.48,11.96h0c3.71,2.89,9.07,2.23,11.96-1.48l18.29-23.45,23.45,18.29c3.71,2.89,9.07,2.23,11.96-1.48h0c2.89-3.71,2.23-9.07-1.48-11.96Z"/>
  <rect class="cls-5" x="1872.41" y="496.89" width="17.04" height="823.44" rx="8.52" ry="8.52" transform="translate(972.33 2789.54) rotate(-90)"/>
  <rect class="cls-5" x="1872.41" y="579.76" width="17.04" height="823.44" rx="8.52" ry="8.52" transform="translate(889.46 2872.41) rotate(-90)"/>
  <rect class="cls-5" x="1872.41" y="662.63" width="17.04" height="823.44" rx="8.52" ry="8.52" transform="translate(806.59 2955.28) rotate(-90)"/>
  <rect class="cls-5" x="1667.28" y="955.19" width="17.04" height="413.17" rx="8.52" ry="8.52" transform="translate(514.03 2837.58) rotate(-90)"/>
  <rect class="cls-1" x="1667.28" y="1042.62" width="17.04" height="413.17" rx="8.52" ry="8.52" transform="translate(426.6 2925.01) rotate(-90)"/>
  <rect class="cls-5" x="1667.28" y="1130.04" width="17.04" height="413.17" rx="8.52" ry="8.52" transform="translate(339.18 3012.43) rotate(-90)"/>
  <rect class="cls-5" x="1873.87" y="1307.35" width="17.04" height="894.96" rx="8.52" ry="8.52" transform="translate(127.57 3637.22) rotate(-90)"/>
  <path class="cls-2" d="M1653.43,1552.48c94.67,21.39,167.6,69.07,208.03,156.03,81.58-166.15,203.44-291.61,357.12-384.95"/>
</svg>