<?xml version="1.0" encoding="UTF-8"?>
<svg id="Layer_1" data-name="Layer 1" xmlns="http://www.w3.org/2000/svg" viewBox="0 0 4200 2000">
  <defs>
    <style>
      .cls-1 {
        stroke: #000;
        stroke-width: .5px;
      }

      .cls-1, .cls-2 {
        fill: none;
        stroke-miterlimit: 10;
      }

      .cls-3 {
        fill: #f88;
      }

      .cls-4 {
        fill: #c8ffae;
      }

      .cls-5 {
        fill: #fff;
      }

      .cls-6 {
        fill: #8e8e8e;
      }

      .cls-7 {
        fill: #a01721;
      }

      .cls-8 {
        fill: #ffb;
      }

      .cls-9 {
        fill: #d7fdff;
      }

      .cls-10 {
        fill: #c4c4c4;
      }

      .cls-11 {
        fill: #666;
      }

      .cls-12 {
        fill: #9fdfff;
      }

      .cls-13 {
        fill: #0f0f0f;
      }

      .cls-14 {
        fill: #b5a1ff;
      }

      .cls-15 {
        fill: #515151;
      }

      .cls-16 {
        fill: #353535;
      }

      .cls-2 {
        stroke: #a01721;
        stroke-width: 6px;
      }

      .cls-17 {
        fill: #aaa;
      }

      .cls-18 {
        fill: #adadad;
      }
    </style>
  </defs>
  <path class="cls-2" d="M2912.68,1629.77c-58.23-13.07-128.26-35.92-149.67-77.01-20.75-39.82,17.21-71.66,27.85-107.82,15.12-51.4-20.01-128.34-233.21-242.05"/>
  <path class="cls-2" d="M1280.39,1602.55c-32.62-14.33-107.14-52.31-164.47-135.75-12.16-17.69-71.37-107.04-67.88-229.73,5.77-202.72,177.72-319.68,195.79-331.55"/>
  <path class="cls-2" d="M1720.38,1250.17c-35.63,14.55-89.9,33.85-158.24,46.88-89.04,16.98-185.6,35.39-290.1-5.86-36.7-14.49-105.42-41.62-149.44-114.28-56.11-92.62-31.37-191.99-25.28-214.16"/>
  <path class="cls-16" d="M1639.72,1500.64h675.64V55.27h-659.83c-8.73,0-15.8,7.08-15.8,15.8v1429.56Z"/>
  <path class="cls-15" d="M2014.8,1500.64h628.69c8.73,0,15.8-7.08,15.8-15.8V71.08c0-8.73-7.08-15.8-15.8-15.8h-611.48c-9.51,0-17.22,7.71-17.22,17.22v1428.14Z"/>
  <path class="cls-2" d="M1816.42,1056.43c-19.5,35.28-66.11,107.72-155.3,154.41-32.93,17.24-173.14,90.65-281.31,17.58-76.17-51.46-98.09-149.65-92.3-218.95,10.11-120.99,110.93-228.72,253.47-266.32"/>
  <path class="cls-18" d="M1611.17,1502.29h624.29c11.16,0,20.21-9.05,20.21-20.21v-163.53c0-7.46-6.05-13.51-13.51-13.51h-630.98v197.25Z"/>
  <path class="cls-10" d="M2013.01,1502.29h632.47c9.97,0,18.05-8.08,18.05-18.05v-179.2h-650.52v197.25Z"/>
  <rect class="cls-18" x="2046.35" y="245.01" width="588.94" height="101.09" rx="11.14" ry="11.14"/>
  <rect class="cls-10" x="2061.82" y="255.27" width="561.01" height="80.58" rx="10.72" ry="10.72"/>
  <circle class="cls-16" cx="2602.32" cy="438.08" r="12.45"/>
  <circle class="cls-16" cx="2602.32" cy="495.84" r="12.45"/>
  <rect class="cls-16" x="2502.7" y="552.53" width="109.89" height="40.29" rx="2.35" ry="2.35"/>
  <rect class="cls-16" x="2502.7" y="625.83" width="109.89" height="40.29" rx="2.35" ry="2.35"/>
  <path class="cls-15" d="M2700.79,1901.82h-1628.38c-16.32,0-30.09-11.82-32.15-27.59l-40.29-308.31c-1.45-11.07,7.41-20.86,18.86-20.86h1633.75c11.84,0,21.88,8.49,23.54,19.92l45.51,313.47c1.79,12.35-8.04,23.38-20.84,23.38Z"/>
  <path class="cls-6" d="M2704.63,1860.44h-1587.33c-16.58,0-30.48-12.5-32.24-28.98l-28.34-265.47c-1.2-11.24,7.61-21.04,18.91-21.04h1579.77c11.89,0,21.95,8.78,23.56,20.56l38.32,280.44c1.05,7.67-4.91,14.49-12.65,14.49Z"/>
  <rect class="cls-10" x="1562.46" y="1770.42" width="568.88" height="73.1" rx="6.42" ry="6.42"/>
  <rect class="cls-10" x="1446.62" y="1770.42" width="73.1" height="73.1" rx="4.78" ry="4.78"/>
  <rect class="cls-10" x="1346.35" y="1770.42" width="73.1" height="73.1" rx="4.78" ry="4.78"/>
  <rect class="cls-10" x="1244.47" y="1770.42" width="73.1" height="73.1" rx="4.78" ry="4.78"/>
  <rect class="cls-10" x="1346.35" y="1676.44" width="73.1" height="73.1" rx="4.78" ry="4.78"/>
  <rect class="cls-10" x="1446.62" y="1676.44" width="73.1" height="73.1" rx="4.78" ry="4.78"/>
  <rect class="cls-10" x="1551.78" y="1676.44" width="73.1" height="73.1" rx="4.78" ry="4.78"/>
  <rect class="cls-10" x="1654.49" y="1676.44" width="73.1" height="73.1" rx="4.78" ry="4.78"/>
  <rect class="cls-10" x="1853.51" y="1676.44" width="73.1" height="73.1" rx="4.78" ry="4.78"/>
  <rect class="cls-10" x="1757.21" y="1676.44" width="73.1" height="73.1" rx="4.78" ry="4.78"/>
  <rect class="cls-10" x="2057.73" y="1676.44" width="73.1" height="73.1" rx="4.78" ry="4.78"/>
  <rect class="cls-10" x="1949.81" y="1676.44" width="73.1" height="73.1" rx="4.78" ry="4.78"/>
  <rect class="cls-10" x="1275.04" y="1582.45" width="73.1" height="73.1" rx="4.78" ry="4.78"/>
  <rect class="cls-10" x="1373.53" y="1582.45" width="73.1" height="73.1" rx="4.78" ry="4.78"/>
  <rect class="cls-10" x="1477" y="1582.45" width="73.1" height="73.1" rx="4.78" ry="4.78"/>
  <rect class="cls-10" x="1580.19" y="1582.45" width="73.1" height="73.1" rx="4.78" ry="4.78"/>
  <rect class="cls-10" x="1683.15" y="1582.45" width="73.1" height="73.1" rx="4.78" ry="4.78"/>
  <rect class="cls-10" x="1784.95" y="1582.45" width="73.1" height="73.1" rx="4.78" ry="4.78"/>
  <rect class="cls-10" x="1882.94" y="1582.45" width="73.1" height="73.1" rx="4.78" ry="4.78"/>
  <rect class="cls-10" x="1986.36" y="1582.45" width="73.1" height="73.1" rx="4.78" ry="4.78"/>
  <rect class="cls-10" x="2094.27" y="1582.45" width="73.1" height="73.1" rx="4.78" ry="4.78"/>
  <rect class="cls-10" x="1143.53" y="1770.42" width="73.1" height="73.1" rx="4.78" ry="4.78"/>
  <rect class="cls-10" x="1144.65" y="1676.44" width="172.92" height="73.1" rx="4.78" ry="4.78"/>
  <rect class="cls-10" x="2170.46" y="1676.44" width="172.92" height="73.1" rx="4.78" ry="4.78"/>
  <rect class="cls-10" x="1144.65" y="1582.45" width="99.82" height="73.1" rx="4.78" ry="4.78"/>
  <path class="cls-11" d="M1157.08,1644.92v-51.83c0-5.87,4.76-10.63,10.63-10.63h-17.96c-3.44,0-6.23,2.79-6.23,6.23v60.64c0,3.44,2.79,6.23,6.23,6.23h17.96c-5.87,0-10.63-4.76-10.63-10.63Z"/>
  <path class="cls-11" d="M1288.59,1644.92v-51.83c0-5.87,4.76-10.63,10.63-10.63h-19.8c-2.42,0-4.39,1.96-4.39,4.39v64.32c0,2.42,1.96,4.39,4.39,4.39h19.8c-5.87,0-10.63-4.76-10.63-10.63Z"/>
  <path class="cls-11" d="M1387.08,1644.92v-51.83c0-5.87,4.76-10.63,10.63-10.63h-19.74c-2.46,0-4.45,1.99-4.45,4.45v64.2c0,2.46,1.99,4.45,4.45,4.45h19.74c-5.87,0-10.63-4.76-10.63-10.63Z"/>
  <path class="cls-11" d="M1490.41,1644.92v-51.83c0-5.87,4.76-10.63,10.63-10.63h-19.76c-2.45,0-4.43,1.98-4.43,4.43v64.24c0,2.45,1.98,4.43,4.43,4.43h19.76c-5.87,0-10.63-4.76-10.63-10.63Z"/>
  <path class="cls-11" d="M1593.56,1644.92v-51.83c0-5.87,4.76-10.63,10.63-10.63h-19.67c-2.49,0-4.51,2.02-4.51,4.51v64.07c0,2.49,2.02,4.51,4.51,4.51h19.67c-5.87,0-10.63-4.76-10.63-10.63Z"/>
  <path class="cls-11" d="M1696.03,1644.92v-51.83c0-5.87,4.76-10.63,10.63-10.63h-18.21c-3.3,0-5.97,2.67-5.97,5.97v61.16c0,3.3,2.67,5.97,5.97,5.97h18.21c-5.87,0-10.63-4.76-10.63-10.63Z"/>
  <path class="cls-11" d="M1796.26,1644.92v-51.83c0-5.87,4.76-10.63,10.63-10.63h-17.2c-3.86,0-6.99,3.13-6.99,6.99v59.13c0,3.86,3.13,6.99,6.99,6.99h17.2c-5.87,0-10.63-4.76-10.63-10.63Z"/>
  <path class="cls-11" d="M1896.49,1644.92v-51.83c0-5.87,4.76-10.63,10.63-10.63h-19.06c-2.83,0-5.13,2.3-5.13,5.13v62.84c0,2.83,2.3,5.13,5.13,5.13h19.06c-5.87,0-10.63-4.76-10.63-10.63Z"/>
  <path class="cls-11" d="M1996.28,1644.92v-51.83c0-5.87,4.76-10.63,10.63-10.63h-14.69c-5.25,0-9.5,4.25-9.5,9.5v54.1c0,5.25,4.25,9.5,9.5,9.5h14.69c-5.87,0-10.63-4.76-10.63-10.63Z"/>
  <path class="cls-11" d="M2105.9,1644.92v-51.83c0-5.87,4.76-10.63,10.63-10.63h-17.06c-3.94,0-7.13,3.19-7.13,7.13v58.85c0,3.94,3.19,7.13,7.13,7.13h17.06c-5.87,0-10.63-4.76-10.63-10.63Z"/>
  <path class="cls-11" d="M1157.08,1738.9v-51.83c0-5.87,4.76-10.63,10.63-10.63h-18.78c-2.99,0-5.41,2.42-5.41,5.41v62.28c0,2.99,2.42,5.41,5.41,5.41h18.78c-5.87,0-10.63-4.76-10.63-10.63Z"/>
  <path class="cls-11" d="M1359.1,1738.9v-51.83c0-5.87,4.76-10.63,10.63-10.63h-18.76c-3,0-5.43,2.43-5.43,5.43v62.24c0,3,2.43,5.43,5.43,5.43h18.76c-5.87,0-10.63-4.76-10.63-10.63Z"/>
  <path class="cls-11" d="M1460.17,1738.9v-51.83c0-5.87,4.76-10.63,10.63-10.63h-19.8c-2.42,0-4.38,1.96-4.38,4.38v64.33c0,2.42,1.96,4.38,4.38,4.38h19.8c-5.87,0-10.63-4.76-10.63-10.63Z"/>
  <path class="cls-11" d="M1564.11,1738.9v-51.83c0-5.87,4.76-10.63,10.63-10.63h-17.7c-3.58,0-6.49,2.9-6.49,6.49v60.12c0,3.58,2.9,6.49,6.49,6.49h17.7c-5.87,0-10.63-4.76-10.63-10.63Z"/>
  <path class="cls-11" d="M1667.43,1738.9v-51.83c0-5.87,4.76-10.63,10.63-10.63h-18.75c-3,0-5.43,2.43-5.43,5.43v62.23c0,3,2.43,5.43,5.43,5.43h18.75c-5.87,0-10.63-4.76-10.63-10.63Z"/>
  <path class="cls-11" d="M1770.76,1738.9v-51.83c0-5.87,4.76-10.63,10.63-10.63h-19.35c-2.67,0-4.83,2.16-4.83,4.83v63.43c0,2.67,2.16,4.83,4.83,4.83h19.35c-5.87,0-10.63-4.76-10.63-10.63Z"/>
  <path class="cls-11" d="M1867.06,1738.9v-51.83c0-5.87,4.76-10.63,10.63-10.63h-19.43c-2.62,0-4.75,2.13-4.75,4.75v63.6c0,2.62,2.13,4.75,4.75,4.75h19.43c-5.87,0-10.63-4.76-10.63-10.63Z"/>
  <path class="cls-11" d="M1963.37,1738.9v-51.83c0-5.87,4.76-10.63,10.63-10.63h-19.14c-2.79,0-5.05,2.26-5.05,5.05v63c0,2.79,2.26,5.05,5.05,5.05h19.14c-5.87,0-10.63-4.76-10.63-10.63Z"/>
  <path class="cls-11" d="M2068.37,1738.9v-51.83c0-5.87,4.76-10.63,10.63-10.63h-14.7c-5.24,0-9.49,4.25-9.49,9.49v54.12c0,5.24,4.25,9.49,9.49,9.49h14.7c-5.87,0-10.63-4.76-10.63-10.63Z"/>
  <path class="cls-11" d="M1157.08,1832.88v-51.83c0-5.87,4.76-10.63,10.63-10.63h-19.85c-2.39,0-4.33,1.94-4.33,4.33v64.43c0,2.39,1.94,4.33,4.33,4.33h19.85c-5.87,0-10.63-4.76-10.63-10.63Z"/>
  <path class="cls-11" d="M1258.02,1832.88v-51.83c0-5.87,4.76-10.63,10.63-10.63h-19.84c-2.4,0-4.35,1.95-4.35,4.35v64.4c0,2.4,1.95,4.35,4.35,4.35h19.84c-5.87,0-10.63-4.76-10.63-10.63Z"/>
  <path class="cls-11" d="M1359.1,1832.88v-51.83c0-5.87,4.76-10.63,10.63-10.63h-17.94c-3.45,0-6.24,2.8-6.24,6.24v60.61c0,3.45,2.8,6.24,6.24,6.24h17.94c-5.87,0-10.63-4.76-10.63-10.63Z"/>
  <path class="cls-11" d="M1460.17,1832.88v-51.83c0-5.87,4.76-10.63,10.63-10.63h-20.1c-2.26,0-4.09,1.83-4.09,4.09v64.92c0,2.26,1.83,4.09,4.09,4.09h20.1c-5.87,0-10.63-4.76-10.63-10.63Z"/>
  <path class="cls-11" d="M1576.2,1832.88v-51.83c0-5.87,4.76-10.63,10.63-10.63h-18.11c-3.36,0-6.08,2.72-6.08,6.08v60.95c0,3.36,2.72,6.08,6.08,6.08h18.11c-5.87,0-10.63-4.76-10.63-10.63Z"/>
  <rect class="cls-10" x="2201.96" y="1582.45" width="139.6" height="73.1" rx="4.78" ry="4.78"/>
  <rect class="cls-10" x="2473.56" y="1770.42" width="73.1" height="73.1" rx="4.78" ry="4.78"/>
  <rect class="cls-10" x="2576.51" y="1770.42" width="73.1" height="73.1" rx="4.78" ry="4.78"/>
  <rect class="cls-10" x="2373.28" y="1770.42" width="73.1" height="73.1" rx="4.78" ry="4.78"/>
  <rect class="cls-10" x="2473.56" y="1676.44" width="73.1" height="73.1" rx="4.78" ry="4.78"/>
  <rect class="cls-10" x="2576.51" y="1676.44" width="73.1" height="73.1" rx="4.78" ry="4.78"/>
  <rect class="cls-10" x="2373.28" y="1676.44" width="73.1" height="73.1" rx="4.78" ry="4.78"/>
  <rect class="cls-10" x="2473.56" y="1582.45" width="73.1" height="73.1" rx="4.78" ry="4.78"/>
  <rect class="cls-10" x="2576.51" y="1582.45" width="73.1" height="73.1" rx="4.78" ry="4.78"/>
  <rect class="cls-10" x="2373.28" y="1582.45" width="73.1" height="73.1" rx="4.78" ry="4.78"/>
  <rect class="cls-10" x="2271.41" y="1770.42" width="73.1" height="73.1" rx="4.78" ry="4.78"/>
  <rect class="cls-10" x="2170.46" y="1770.42" width="73.1" height="73.1" rx="4.78" ry="4.78"/>
  <path class="cls-11" d="M2215.51,1644.92v-51.83c0-5.87,4.76-10.63,10.63-10.63h-19.69c-2.48,0-4.49,2.01-4.49,4.49v64.12c0,2.48,2.01,4.49,4.49,4.49h19.69c-5.87,0-10.63-4.76-10.63-10.63Z"/>
  <path class="cls-11" d="M2184.01,1738.9v-51.83c0-5.87,4.76-10.63,10.63-10.63h-19.63c-2.51,0-4.55,2.04-4.55,4.55v63.99c0,2.51,2.04,4.55,4.55,4.55h19.63c-5.87,0-10.63-4.76-10.63-10.63Z"/>
  <path class="cls-11" d="M2387.04,1738.9v-51.83c0-5.87,4.76-10.63,10.63-10.63h-19.6c-2.53,0-4.59,2.05-4.59,4.59v63.92c0,2.53,2.05,4.59,4.59,4.59h19.6c-5.87,0-10.63-4.76-10.63-10.63Z"/>
  <path class="cls-11" d="M2484.7,1738.9v-51.83c0-5.87,4.76-10.63,10.63-10.63h-16.51c-4.24,0-7.67,3.43-7.67,7.67v57.75c0,4.24,3.43,7.67,7.67,7.67h16.51c-5.87,0-10.63-4.76-10.63-10.63Z"/>
  <path class="cls-11" d="M2584.25,1738.9v-51.83c0-5.87,4.76-10.63,10.63-10.63h-13.55c-5.87,0-10.63,4.76-10.63,10.63v51.83c0,5.87,4.76,10.63,10.63,10.63h13.55c-5.87,0-10.63-4.76-10.63-10.63Z"/>
  <path class="cls-11" d="M2587.38,1644.92v-51.83c0-5.87,4.76-10.63,10.63-10.63h-16.24c-4.39,0-7.95,3.56-7.95,7.95v57.21c0,4.39,3.56,7.95,7.95,7.95h16.24c-5.87,0-10.63-4.76-10.63-10.63Z"/>
  <path class="cls-11" d="M2484.7,1644.92v-51.83c0-5.87,4.76-10.63,10.63-10.63h-16.81c-4.07,0-7.38,3.3-7.38,7.38v58.34c0,4.07,3.3,7.38,7.38,7.38h16.81c-5.87,0-10.63-4.76-10.63-10.63Z"/>
  <path class="cls-11" d="M2382.59,1644.92v-51.83c0-5.87,4.76-10.63,10.63-10.63h-13.55c-5.87,0-10.63,4.76-10.63,10.63v51.83c0,5.87,4.76,10.63,10.63,10.63h13.55c-5.87,0-10.63-4.76-10.63-10.63Z"/>
  <path class="cls-11" d="M2180.92,1832.88v-51.83c0-5.87,4.76-10.63,10.63-10.63h-16.04c-4.5,0-8.15,3.65-8.15,8.15v56.8c0,4.5,3.65,8.15,8.15,8.15h16.04c-5.87,0-10.63-4.76-10.63-10.63Z"/>
  <path class="cls-11" d="M2283.88,1832.88v-51.83c0-5.87,4.76-10.63,10.63-10.63h-18.59c-3.09,0-5.59,2.5-5.59,5.59v61.91c0,3.09,2.5,5.59,5.59,5.59h18.59c-5.87,0-10.63-4.76-10.63-10.63Z"/>
  <path class="cls-11" d="M2385.49,1832.88v-51.83c0-5.87,4.76-10.63,10.63-10.63h-18.01c-3.41,0-6.18,2.77-6.18,6.18v60.74c0,3.41,2.77,6.18,6.18,6.18h18.01c-5.87,0-10.63-4.76-10.63-10.63Z"/>
  <path class="cls-11" d="M2484.7,1832.88v-51.83c0-5.87,4.76-10.63,10.63-10.63h-16.62c-4.18,0-7.57,3.39-7.57,7.57v57.96c0,4.18,3.39,7.57,7.57,7.57h16.62c-5.87,0-10.63-4.76-10.63-10.63Z"/>
  <path class="cls-11" d="M2587.38,1832.88v-51.83c0-5.87,4.76-10.63,10.63-10.63h-16.57c-4.21,0-7.62,3.41-7.62,7.62v57.86c0,4.21,3.41,7.62,7.62,7.62h16.57c-5.87,0-10.63-4.76-10.63-10.63Z"/>
  <ellipse class="cls-15" cx="3014.67" cy="1795.7" rx="144.15" ry="212.84" transform="translate(-386.77 2657.64) rotate(-45)"/>
  <ellipse class="cls-6" cx="3022.29" cy="1769.44" rx="130.2" ry="199.5" transform="translate(-365.98 2655.34) rotate(-45)"/>
  <rect class="cls-15" x="2926.49" y="1585.78" width="46.99" height="95.02" rx="23.5" ry="23.5" transform="translate(-402.71 1993.14) rotate(-35.1)"/>
  <rect class="cls-13" x="920.34" y="438.08" width="1323.22" height="714.99"/>
  <polygon class="cls-15" points="1733.62 1413.01 1457.91 1413.01 1495.35 1165.69 1696.18 1165.69 1733.62 1413.01"/>
  <polygon class="cls-6" points="1766.64 1413.01 1490.92 1413.01 1528.37 1165.69 1729.19 1165.69 1766.64 1413.01"/>
  <rect class="cls-7" x="973.08" y="1081.28" width="1267.35" height="71.79"/>
  <path class="cls-15" d="M968.69,1192.81h-80.26c-9.08,0-16.43-7.36-16.43-16.43V420.64c0-9.08,7.36-16.43,16.43-16.43h80.26v788.61Z"/>
  <rect class="cls-15" x="2197.21" y="438.08" width="37.36" height="703.27"/>
  <path class="cls-6" d="M2236.03,402.92H936.45c-16.99,0-30.77,13.78-30.77,30.77v729.64c0,16.99,13.78,30.77,30.77,30.77h1299.58c16.99,0,30.77-13.78,30.77-30.77V433.69c0-16.99-13.78-30.77-30.77-30.77ZM2224.56,1103.14c0,14.63-11.86,26.49-26.49,26.49H1014.47c-14.63,0-26.49-11.86-26.49-26.49V493.88c0-14.63,11.86-26.49,26.49-26.49h1183.59c14.63,0,26.49,11.86,26.49,26.49v609.25Z"/>
  <rect class="cls-5" x="1141.29" y="1093.18" width="338.45" height="22.71" rx="5.11" ry="5.11"/>
  <g>
    <rect class="cls-5" x="1013.74" y="1090.99" width="13.55" height="13.55" rx="1.92" ry="1.92"/>
    <rect class="cls-5" x="1013.74" y="1107.1" width="13.55" height="13.55" rx="1.92" ry="1.92"/>
  </g>
  <g>
    <rect class="cls-5" x="1029.86" y="1090.99" width="13.55" height="13.55" rx="1.92" ry="1.92"/>
    <rect class="cls-5" x="1029.86" y="1107.1" width="13.55" height="13.55" rx="1.92" ry="1.92"/>
  </g>
  <circle class="cls-1" cx="1154.1" cy="1104.37" r="3.5"/>
  <line class="cls-1" x1="1159.1" y1="1111.46" x2="1156.12" y2="1107.23"/>
  <circle class="cls-9" cx="1592.84" cy="1104.88" r="16.45"/>
  <g>
    <path class="cls-8" d="M1616.61,1095.69h40.24c.7,0,1.27.57,1.27,1.27v24.16h-41.51v-25.44h0Z"/>
    <path class="cls-8" d="M1616.61,1088.97h20.98c1,0,1.81.81,1.81,1.81v11.62h-22.79v-13.43h0Z"/>
  </g>
  <rect class="cls-14" x="1669.11" y="1088.12" width="33.21" height="33.21" rx="2.63" ry="2.63"/>
  <rect class="cls-12" x="1715.75" y="1088.12" width="33.21" height="33.21" rx="2.63" ry="2.63"/>
  <rect class="cls-4" x="1763.61" y="1088.12" width="33.21" height="33.21" rx="2.63" ry="2.63"/>
  <rect class="cls-5" x="2084.57" y="1096.83" width="84.98" height="15.78" rx="3.55" ry="3.55"/>
  <path class="cls-16" d="M2193.68,1200.77h-18.6c-1.95,0-3.52-1.58-3.52-3.52v-38.08c0-1.3,1.05-2.35,2.35-2.35h20.94c1.3,0,2.35,1.05,2.35,2.35v38.08c0,1.95-1.58,3.52-3.52,3.52Z"/>
  <path class="cls-16" d="M2149.18,1200.77h-18.6c-1.95,0-3.52-1.58-3.52-3.52v-38.08c0-1.3,1.05-2.35,2.35-2.35h20.94c1.3,0,2.35,1.05,2.35,2.35v38.08c0,1.95-1.58,3.52-3.52,3.52Z"/>
  <path class="cls-16" d="M2104.68,1200.77h-18.6c-1.95,0-3.52-1.58-3.52-3.52v-38.08c0-1.3,1.05-2.35,2.35-2.35h20.94c1.3,0,2.35,1.05,2.35,2.35v38.08c0,1.95-1.58,3.52-3.52,3.52Z"/>
  <path class="cls-15" d="M1455.9,1502.51h-255.69c-2.81,0-5.08-2.28-5.08-5.08v-62c0-20,16.21-36.21,36.21-36.21h224.56v103.29Z"/>
  <path class="cls-6" d="M2031.75,1502.51h-802.17c-2.81,0-5.08-2.28-5.08-5.08v-62c0-20,16.21-36.21,36.21-36.21h739.91c20,0,36.21,16.21,36.21,36.21v62c0,2.81-2.28,5.08-5.08,5.08Z"/>
  <rect class="cls-10" x="1510.79" y="1390.42" width="235.97" height="8.79" rx="1.98" ry="1.98"/>
  <rect class="cls-10" x="1541.19" y="1194.1" width="173.62" height="8.79" rx="1.98" ry="1.98"/>
  <circle class="cls-3" cx="2046.35" cy="1165.54" r="9.51"/>
  <circle class="cls-3" cx="2602.32" cy="203.66" r="9.51"/>
  <circle class="cls-10" cx="2602.32" cy="139.93" r="32.97"/>
  <path class="cls-7" d="M1302.84,664.07l-20.25,47.7c-6.29-.05-12.53.48-18.66,1.55l-18.37-45.47c-1.02-2.51-3.87-3.73-6.39-2.71l-45.47,18.37c-2.51,1.02-3.73,3.87-2.71,6.39l20.03,49.59c-3.41,3.15-6.63,6.56-9.61,10.2l-47.52-20.17c-2.49-1.06-5.37.11-6.43,2.6l-19.17,45.14c-1.06,2.49.11,5.37,2.6,6.43l47.52,20.17c-.54,4.67-.75,9.35-.65,14l-49.59,20.03c-2.51,1.02-3.73,3.87-2.71,6.39l18.37,45.47c1.02,2.51,3.87,3.73,6.39,2.71l45.47-18.37c3.49,5.15,7.44,10.01,11.85,14.5l-20.25,47.7c-1.06,2.49.11,5.37,2.6,6.43l45.14,19.17c2.49,1.06,5.37-.11,6.43-2.6l17.86-42.08c8.15,1.8,16.36,2.59,24.48,2.41l19.73,48.85c1.02,2.51,3.87,3.73,6.39,2.71l45.47-18.37c2.51-1.02,3.73-3.87,2.71-6.39l-18.07-44.73c8.13-5.5,15.52-12.18,21.89-19.93l45.79,19.44c2.49,1.06,5.37-.11,6.43-2.6l19.17-45.14c1.06-2.49-.11-5.37-2.6-6.43l-45.79-19.44c1.15-9.97.82-19.93-.87-29.59l44.73-18.07c2.51-1.02,3.73-3.87,2.71-6.39l-18.37-45.47c-1.02-2.51-3.87-3.73-6.39-2.71l-48.85,19.73c-5.51-5.96-11.78-11.32-18.74-15.93l17.86-42.08c1.06-2.49-.11-5.37-2.6-6.43l-45.14-19.17c-2.49-1.06-5.37.11-6.43,2.6h.03ZM1320.24,832.09c-9.05,21.3-33.65,31.24-54.95,22.2-21.3-9.05-31.24-33.65-22.2-54.95,9.05-21.3,33.65-31.24,54.95-22.2,21.3,9.04,31.24,33.65,22.2,54.95Z"/>
  <path class="cls-3" d="M1319.91,658.63l-20.25,47.7c-6.29-.05-12.53.48-18.66,1.55l-18.37-45.47c-1.02-2.51-3.87-3.73-6.39-2.71l-45.47,18.37c-2.51,1.02-3.73,3.87-2.71,6.39l20.03,49.59c-3.41,3.15-6.63,6.56-9.61,10.2l-47.52-20.17c-2.49-1.06-5.37.11-6.43,2.6l-19.17,45.14c-1.06,2.49.11,5.37,2.6,6.43l47.52,20.17c-.54,4.67-.75,9.35-.65,14l-49.59,20.03c-2.51,1.02-3.73,3.87-2.71,6.39l18.37,45.47c1.02,2.51,3.87,3.73,6.39,2.71l45.47-18.37c3.49,5.15,7.44,10.01,11.85,14.5l-20.25,47.7c-1.06,2.49.11,5.37,2.6,6.43l45.14,19.17c2.49,1.06,5.37-.11,6.43-2.6l17.86-42.08c8.15,1.8,16.36,2.59,24.48,2.41l19.73,48.85c1.02,2.51,3.87,3.73,6.39,2.71l45.47-18.37c2.51-1.02,3.73-3.87,2.71-6.39l-18.07-44.73c8.13-5.5,15.52-12.18,21.89-19.93l45.79,19.44c2.49,1.06,5.37-.11,6.43-2.6l19.17-45.14c1.06-2.49-.11-5.37-2.6-6.43l-45.79-19.44c1.15-9.97.82-19.93-.87-29.59l44.73-18.07c2.51-1.02,3.73-3.87,2.71-6.39l-18.37-45.47c-1.02-2.51-3.87-3.73-6.39-2.71l-48.85,19.73c-5.51-5.96-11.78-11.32-18.74-15.93l17.86-42.08c1.06-2.49-.11-5.37-2.6-6.43l-45.14-19.17c-2.49-1.06-5.37.11-6.43,2.6h.03ZM1337.31,826.65c-9.05,21.3-33.65,31.24-54.95,22.2-21.3-9.05-31.24-33.65-22.2-54.95,9.05-21.3,33.65-31.24,54.95-22.2,21.3,9.04,31.24,33.65,22.2,54.95Z"/>
  <path class="cls-7" d="M1948.96,681.03l-56.62,29.46c-5.94-4.98-12.28-9.36-18.95-13.15l18.17-57.61c1-3.18-.76-6.58-3.95-7.58l-57.61-18.17c-3.18-1-6.58.76-7.58,3.95l-19.82,62.82c-5.71.33-11.44,1.04-17.13,2.16l-29.36-56.41c-1.54-2.96-5.19-4.11-8.15-2.57l-53.59,27.89c-2.96,1.54-4.11,5.19-2.57,8.15l29.36,56.41c-4.18,4.02-8.04,8.3-11.59,12.79l-62.83-19.82c-3.18-1-6.58.76-7.58,3.95l-18.17,57.61c-1,3.18.76,6.58,3.95,7.58l57.61,18.17c-.72,7.63-.77,15.34-.1,23.07l-56.62,29.46c-2.96,1.54-4.11,5.19-2.57,8.15l27.89,53.59c1.54,2.96,5.19,4.11,8.15,2.57l49.94-26c6.33,8.1,13.52,15.28,21.37,21.47l-19.52,61.88c-1,3.18.76,6.58,3.95,7.58l57.61,18.17c3.18,1,6.58-.76,7.58-3.95l17.87-56.67c12.04,1.14,24.29.58,36.42-1.8l28.29,54.35c1.54,2.96,5.19,4.11,8.15,2.57l53.59-27.89c2.96-1.54,4.11-5.19,2.57-8.15l-28.29-54.35c8.9-8.57,16.39-18.29,22.36-28.8l56.67,17.87c3.18,1,6.58-.76,7.58-3.95l18.17-57.61c1-3.18-.76-6.58-3.95-7.58l-61.88-19.52c-.57-9.98-2.33-19.99-5.33-29.83l49.94-26c2.96-1.54,4.11-5.19,2.57-8.15l-27.89-53.59c-1.54-2.96-5.19-4.11-8.15-2.57l.02.03ZM1833.84,854.35c-25.29,13.16-56.46,3.33-69.63-21.95-13.16-25.29-3.33-56.46,21.95-69.63,25.29-13.16,56.46-3.33,69.63,21.95,13.16,25.28,3.33,56.46-21.95,69.63Z"/>
  <path class="cls-3" d="M1969.45,689.24l-56.62,29.46c-5.94-4.98-12.28-9.36-18.95-13.15l18.17-57.61c1-3.18-.76-6.58-3.95-7.58l-57.61-18.17c-3.18-1-6.58.76-7.58,3.95l-19.82,62.82c-5.71.33-11.44,1.04-17.13,2.16l-29.36-56.41c-1.54-2.96-5.19-4.11-8.15-2.57l-53.59,27.89c-2.96,1.54-4.11,5.19-2.57,8.15l29.36,56.41c-4.18,4.02-8.04,8.3-11.59,12.79l-62.83-19.82c-3.18-1-6.58.76-7.58,3.95l-18.17,57.61c-1,3.18.76,6.58,3.95,7.58l57.61,18.17c-.72,7.63-.77,15.34-.1,23.07l-56.62,29.46c-2.96,1.54-4.11,5.19-2.57,8.15l27.89,53.59c1.54,2.96,5.19,4.11,8.15,2.57l49.94-26c6.33,8.1,13.52,15.28,21.37,21.47l-19.52,61.88c-1,3.18.76,6.58,3.95,7.58l57.61,18.17c3.18,1,6.58-.76,7.58-3.95l17.87-56.67c12.04,1.14,24.29.58,36.42-1.8l28.29,54.35c1.54,2.96,5.19,4.11,8.15,2.57l53.59-27.89c2.96-1.54,4.11-5.19,2.57-8.15l-28.29-54.35c8.9-8.57,16.39-18.29,22.36-28.8l56.67,17.87c3.18,1,6.58-.76,7.58-3.95l18.17-57.61c1-3.18-.76-6.58-3.95-7.58l-61.88-19.52c-.57-9.98-2.33-19.99-5.33-29.83l49.94-26c2.96-1.54,4.11-5.19,2.57-8.15l-27.89-53.59c-1.54-2.96-5.19-4.11-8.15-2.57l.02.03ZM1854.33,862.56c-25.29,13.16-56.46,3.33-69.63-21.95-13.16-25.29-3.33-56.46,21.95-69.63,25.29-13.16,56.46-3.33,69.63,21.95,13.16,25.28,3.33,56.46-21.95,69.63Z"/>
  <path class="cls-7" d="M1626.15,553.63l-37.39,18.71c-3.84-3.32-7.95-6.26-12.27-8.81l12.49-37.54c.69-2.07-.43-4.31-2.51-5.01l-37.54-12.49c-2.07-.69-4.31.43-5.01,2.51l-13.63,40.94c-3.75.15-7.5.56-11.24,1.24l-18.65-37.24c-.98-1.95-3.36-2.74-5.31-1.77l-35.38,17.71c-1.95.98-2.74,3.36-1.77,5.31l18.65,37.24c-2.78,2.59-5.35,5.35-7.72,8.26l-40.94-13.63c-2.07-.69-4.31.43-5.01,2.51l-12.49,37.54c-.69,2.07.43,4.31,2.51,5.01l37.54,12.49c-.55,4.99-.66,10.04-.3,15.1l-37.39,18.71c-1.95.98-2.74,3.36-1.77,5.31l17.71,35.38c.98,1.95,3.36,2.74,5.31,1.77l32.98-16.51c4.06,5.37,8.69,10.14,13.78,14.28l-13.42,40.33c-.69,2.07.43,4.31,2.51,5.01l37.54,12.49c2.07.69,4.31-.43,5.01-2.51l12.29-36.93c7.87.87,15.9.63,23.87-.8l17.96,35.89c.98,1.95,3.36,2.74,5.31,1.77l35.38-17.71c1.95-.98,2.74-3.36,1.77-5.31l-17.96-35.89c5.92-5.52,10.92-11.81,14.94-18.63l36.93,12.29c2.07.69,4.31-.43,5.01-2.51l12.49-37.54c.69-2.07-.43-4.31-2.51-5.01l-40.33-13.42c-.27-6.54-1.32-13.11-3.18-19.59l32.98-16.51c1.95-.98,2.74-3.36,1.77-5.31l-17.71-35.38c-.98-1.95-3.36-2.74-5.31-1.77v.02ZM1548.97,665.96c-16.7,8.36-37.01,1.6-45.37-15.09-8.36-16.7-1.6-37.01,15.09-45.37,16.7-8.36,37.01-1.6,45.37,15.09,8.36,16.69,1.6,37.01-15.09,45.37Z"/>
  <path class="cls-3" d="M1639.48,559.22l-37.39,18.71c-3.84-3.32-7.95-6.26-12.27-8.81l12.49-37.54c.69-2.07-.43-4.31-2.51-5.01l-37.54-12.49c-2.07-.69-4.31.43-5.01,2.51l-13.63,40.94c-3.75.15-7.5.56-11.24,1.24l-18.65-37.24c-.98-1.95-3.36-2.74-5.31-1.77l-35.38,17.71c-1.95.98-2.74,3.36-1.77,5.31l18.65,37.24c-2.78,2.59-5.35,5.35-7.72,8.26l-40.94-13.63c-2.07-.69-4.31.43-5.01,2.51l-12.49,37.54c-.69,2.07.43,4.31,2.51,5.01l37.54,12.49c-.55,4.99-.66,10.04-.3,15.1l-37.39,18.71c-1.95.98-2.74,3.36-1.77,5.31l17.71,35.38c.98,1.95,3.36,2.74,5.31,1.77l32.98-16.51c4.06,5.37,8.69,10.14,13.78,14.28l-13.42,40.33c-.69,2.07.43,4.31,2.51,5.01l37.54,12.49c2.07.69,4.31-.43,5.01-2.51l12.29-36.93c7.87.87,15.9.63,23.87-.8l17.96,35.89c.98,1.95,3.36,2.74,5.31,1.77l35.38-17.71c1.95-.98,2.74-3.36,1.77-5.31l-17.96-35.89c5.92-5.52,10.92-11.81,14.94-18.63l36.93,12.29c2.07.69,4.31-.43,5.01-2.51l12.49-37.54c.69-2.07-.43-4.31-2.51-5.01l-40.33-13.42c-.27-6.54-1.32-13.11-3.18-19.59l32.98-16.51c1.95-.98,2.74-3.36,1.77-5.31l-17.71-35.38c-.98-1.95-3.36-2.74-5.31-1.77v.02ZM1562.31,671.54c-16.7,8.36-37.01,1.6-45.37-15.09-8.36-16.7-1.6-37.01,15.09-45.37,16.7-8.36,37.01-1.6,45.37,15.09,8.36,16.69,1.6,37.01-15.09,45.37Z"/>
  <path class="cls-17" d="M2950.07,1840.82c-72.96-72.96-96.83-169.12-57.81-222.81-3.64,2.65-7.1,5.58-10.33,8.81-50.85,50.85-28.91,155.23,49,233.14,77.91,77.91,182.29,99.85,233.14,49,3.23-3.23,6.16-6.69,8.81-10.33-53.69,39.01-149.85,15.14-222.81-57.81Z"/>
</svg>