<?xml version="1.0" encoding="UTF-8"?>
<svg id="Layer_2" data-name="Layer 2" xmlns="http://www.w3.org/2000/svg" viewBox="0 0 4200 2000">
  <defs>
    <style>
      .cls-1 {
        fill: #bf2026;
      }

      .cls-2 {
        fill: #4d4d4d;
      }

      .cls-3 {
        fill: #fffcee;
      }
    </style>
  </defs>
  <path class="cls-2" d="M2816.78,319.91v-105.7c0-3.67-1.46-7.18-4.05-9.78l-43.26-43.26c-2.59-2.59-6.11-4.05-9.78-4.05h-1210.01c-3.67,0-7.18,1.46-9.78,4.05l-40.13,40.13c-2.59,2.59-4.05,6.11-4.05,9.78v77.52h187.83v169.04h140.87v165.91h-165.91v-134.61h-162.78v416.35h108.57v109.57h-108.57v797.52c0,3.67,1.46,7.18,4.05,9.78l46.39,46.39c2.59,2.59,6.11,4.05,9.78,4.05h1216.27c3.67,0,7.18-1.46,9.78-4.05l30.74-30.73c2.59-2.59,4.05-6.11,4.05-9.78v-80.65h-133.61v-134.61h133.61V457.65h-137.74v-137.74h137.74ZM2521.04,837.26h109.39v109.39h-109.39v-109.39ZM1583.39,1058.69h147.13v147.13h-147.13v-147.13ZM1756.35,1614.35h-141.65v-141.65h141.65v141.65ZM1871.39,1728.61h-93.91v-93.91h93.91v93.91ZM2558.44,1137.69h-158v-158h158v158ZM2660.26,1594h-84.52v-84.52h84.52v84.52Z"/>
  <rect class="cls-2" x="1358.87" y="887.3" width="109.57" height="109.57"/>
  <rect class="cls-2" x="1236.78" y="1040.7" width="147.13" height="147.13"/>
  <rect class="cls-2" x="1299.26" y="1479.54" width="141.65" height="141.65"/>
  <rect class="cls-2" x="1205.35" y="1659.93" width="93.91" height="93.91"/>
  <rect class="cls-2" x="2853.09" y="305.91" width="137.74" height="137.74"/>
  <rect class="cls-2" x="2910.57" y="821.26" width="109.39" height="109.39"/>
  <rect class="cls-2" x="2993.61" y="963.69" width="158" height="158"/>
  <rect class="cls-2" x="2871.74" y="1596.35" width="134.61" height="134.61"/>
  <rect class="cls-2" x="2992.83" y="1469.56" width="84.52" height="84.52"/>
  <rect class="cls-3" x="2878.09" y="280.91" width="137.74" height="137.74"/>
  <rect class="cls-3" x="1384.87" y="866.3" width="109.57" height="109.57"/>
  <rect class="cls-3" x="2894.74" y="1575.35" width="134.61" height="134.61"/>
  <rect class="cls-3" x="3015.83" y="1448.56" width="84.52" height="84.52"/>
  <rect class="cls-3" x="1262.78" y="1019.7" width="147.13" height="147.13"/>
  <rect class="cls-3" x="2937.57" y="798.26" width="109.39" height="109.39"/>
  <rect class="cls-3" x="3020.61" y="940.69" width="158" height="158"/>
  <rect class="cls-3" x="1322.26" y="1458.54" width="141.65" height="141.65"/>
  <rect class="cls-3" x="1228.35" y="1638.93" width="93.91" height="93.91"/>
  <path class="cls-3" d="M2846.78,287.91v-105.7c0-3.67-1.46-7.18-4.05-9.78l-43.26-43.26c-2.59-2.59-6.11-4.05-9.78-4.05h-1210.01c-3.67,0-7.18,1.46-9.78,4.05l-40.13,40.13c-2.59,2.59-4.05,6.11-4.05,9.78v77.52h187.83v169.04h140.87v165.91h-165.91v-134.61h-162.78v416.35h108.57v109.57h-108.57v797.52c0,3.67,1.46,7.18,4.05,9.78l46.39,46.39c2.59,2.59,6.11,4.05,9.78,4.05h1216.27c3.67,0,7.18-1.46,9.78-4.05l30.74-30.73c2.59-2.59,4.05-6.11,4.05-9.78v-80.65h-133.61v-134.61h133.61V425.65h-137.74v-137.74h137.74ZM2551.04,805.26h109.39v109.39h-109.39v-109.39ZM1613.39,1026.69h147.13v147.13h-147.13v-147.13ZM1786.35,1582.35h-141.65v-141.65h141.65v141.65ZM1901.39,1696.61h-93.91v-93.91h93.91v93.91ZM2588.44,1105.69h-158v-158h158v158ZM2690.26,1562h-84.52v-84.52h84.52v84.52Z"/>
  <g>
    <rect class="cls-2" x="1241.15" y="282.48" width="200.35" height="200.35"/>
    <rect class="cls-2" x="1109.11" y="451.52" width="165.91" height="165.91"/>
  </g>
  <g>
    <rect class="cls-3" x="1277.44" y="249.61" width="200.35" height="200.35"/>
    <rect class="cls-3" x="1145.39" y="418.65" width="165.91" height="165.91"/>
  </g>
  <rect class="cls-2" x="1901.39" y="501.61" width="879.65" height="17.22" rx="8.61" ry="8.61"/>
  <rect class="cls-2" x="1901.39" y="593.17" width="879.65" height="17.22" rx="8.61" ry="8.61"/>
  <rect class="cls-2" x="1901.39" y="684.74" width="879.65" height="17.22" rx="8.61" ry="8.61"/>
  <rect class="cls-2" x="1807.48" y="1184.83" width="973.56" height="17.22" rx="8.61" ry="8.61"/>
  <rect class="cls-1" x="1807.48" y="1276.39" width="973.56" height="17.22" rx="8.61" ry="8.61"/>
  <rect class="cls-2" x="1807.48" y="1367.96" width="973.56" height="17.22" rx="8.61" ry="8.61"/>
</svg>