<?xml version="1.0" encoding="UTF-8"?>
<svg id="Layer_4" data-name="Layer 4" xmlns="http://www.w3.org/2000/svg" xmlns:xlink="http://www.w3.org/1999/xlink" viewBox="0 0 4200 2000">
  <defs>
    <style>
      .cls-1 {
        fill: #bf2026;
      }

      .cls-2 {
        filter: url(#drop-shadow-14);
      }

      .cls-2, .cls-3, .cls-4, .cls-5, .cls-6, .cls-7 {
        fill: #f2f2f2;
      }

      .cls-8 {
        fill: #20bc49;
      }

      .cls-9 {
        filter: url(#drop-shadow-22);
      }

      .cls-10 {
        fill: #9c22ba;
      }

      .cls-11 {
        filter: url(#drop-shadow-12);
      }

      .cls-11, .cls-12 {
        fill: #efef59;
      }

      .cls-13 {
        filter: url(#drop-shadow-10);
      }

      .cls-13, .cls-14 {
        fill: #3b97f2;
      }

      .cls-15 {
        filter: url(#drop-shadow-8);
      }

      .cls-15, .cls-16 {
        fill: #666;
      }

      .cls-17, .cls-18 {
        fill: #57f296;
      }

      .cls-19 {
        fill: #2d2d2d;
      }

      .cls-20 {
        filter: url(#drop-shadow-21);
      }

      .cls-3 {
        filter: url(#drop-shadow-18);
      }

      .cls-21 {
        fill: #ffc533;
      }

      .cls-4 {
        filter: url(#drop-shadow-19);
      }

      .cls-5 {
        filter: url(#drop-shadow-16);
      }

      .cls-22 {
        filter: url(#drop-shadow-13);
      }

      .cls-22, .cls-23 {
        fill: #ed5aed;
      }

      .cls-24 {
        filter: url(#drop-shadow-25);
      }

      .cls-25 {
        filter: url(#drop-shadow-24);
      }

      .cls-18 {
        filter: url(#drop-shadow-11);
      }

      .cls-26 {
        filter: url(#drop-shadow-23);
      }

      .cls-27 {
        filter: url(#drop-shadow-20);
      }

      .cls-6 {
        filter: url(#drop-shadow-15);
      }

      .cls-28, .cls-29 {
        fill: #ef6273;
      }

      .cls-30 {
        fill: #2067bc;
      }

      .cls-7 {
        filter: url(#drop-shadow-17);
      }

      .cls-29 {
        filter: url(#drop-shadow-9);
      }
    </style>
    <filter id="drop-shadow-8" x="431.55" y="611.98" width="911" height="911" filterUnits="userSpaceOnUse">
      <feOffset dx="-1" dy="7"/>
      <feGaussianBlur result="blur" stdDeviation="5"/>
      <feFlood flood-color="#000" flood-opacity=".75"/>
      <feComposite in2="blur" operator="in"/>
      <feComposite in="SourceGraphic"/>
    </filter>
    <filter id="drop-shadow-9" x="1491.82" y="192.65" width="588" height="588" filterUnits="userSpaceOnUse">
      <feOffset dx="-1" dy="7"/>
      <feGaussianBlur result="blur-2" stdDeviation="5"/>
      <feFlood flood-color="#000" flood-opacity=".75"/>
      <feComposite in2="blur-2" operator="in"/>
      <feComposite in="SourceGraphic"/>
    </filter>
    <filter id="drop-shadow-10" x="1475" y="1233.65" width="588" height="588" filterUnits="userSpaceOnUse">
      <feOffset dx="-1" dy="7"/>
      <feGaussianBlur result="blur-3" stdDeviation="5"/>
      <feFlood flood-color="#000" flood-opacity=".75"/>
      <feComposite in2="blur-3" operator="in"/>
      <feComposite in="SourceGraphic"/>
    </filter>
    <filter id="drop-shadow-11" x="2754" y="159.65" width="507" height="506" filterUnits="userSpaceOnUse">
      <feOffset dx="-1" dy="7"/>
      <feGaussianBlur result="blur-4" stdDeviation="5"/>
      <feFlood flood-color="#000" flood-opacity=".75"/>
      <feComposite in2="blur-4" operator="in"/>
      <feComposite in="SourceGraphic"/>
    </filter>
    <filter id="drop-shadow-12" x="2732" y="814.65" width="507" height="506" filterUnits="userSpaceOnUse">
      <feOffset dx="-1" dy="7"/>
      <feGaussianBlur result="blur-5" stdDeviation="5"/>
      <feFlood flood-color="#000" flood-opacity=".75"/>
      <feComposite in2="blur-5" operator="in"/>
      <feComposite in="SourceGraphic"/>
    </filter>
    <filter id="drop-shadow-13" x="2739" y="1411.65" width="506" height="506" filterUnits="userSpaceOnUse">
      <feOffset dx="-1" dy="7"/>
      <feGaussianBlur result="blur-6" stdDeviation="5"/>
      <feFlood flood-color="#000" flood-opacity=".75"/>
      <feComposite in2="blur-6" operator="in"/>
      <feComposite in="SourceGraphic"/>
    </filter>
    <filter id="drop-shadow-14" x="1497" y="214.65" width="544" height="544" filterUnits="userSpaceOnUse">
      <feOffset dx="-1" dy="7"/>
      <feGaussianBlur result="blur-7" stdDeviation="5"/>
      <feFlood flood-color="#000" flood-opacity=".75"/>
      <feComposite in2="blur-7" operator="in"/>
      <feComposite in="SourceGraphic"/>
    </filter>
    <filter id="drop-shadow-15" x="489.13" y="647.25" width="840" height="840" filterUnits="userSpaceOnUse">
      <feOffset dx="-1" dy="7"/>
      <feGaussianBlur result="blur-8" stdDeviation="5"/>
      <feFlood flood-color="#000" flood-opacity=".75"/>
      <feComposite in2="blur-8" operator="in"/>
      <feComposite in="SourceGraphic"/>
    </filter>
    <filter id="drop-shadow-16" x="1514.01" y="1268" width="544" height="544" filterUnits="userSpaceOnUse">
      <feOffset dx="-1" dy="7"/>
      <feGaussianBlur result="blur-9" stdDeviation="5"/>
      <feFlood flood-color="#000" flood-opacity=".75"/>
      <feComposite in2="blur-9" operator="in"/>
      <feComposite in="SourceGraphic"/>
    </filter>
    <filter id="drop-shadow-17" x="2751.76" y="1434.88" width="459" height="459" filterUnits="userSpaceOnUse">
      <feOffset dx="-1" dy="7"/>
      <feGaussianBlur result="blur-10" stdDeviation="5"/>
      <feFlood flood-color="#000" flood-opacity=".75"/>
      <feComposite in2="blur-10" operator="in"/>
      <feComposite in="SourceGraphic"/>
    </filter>
    <filter id="drop-shadow-18" x="2770.48" y="815.14" width="459" height="459" filterUnits="userSpaceOnUse">
      <feOffset dx="-1" dy="7"/>
      <feGaussianBlur result="blur-11" stdDeviation="5"/>
      <feFlood flood-color="#000" flood-opacity=".75"/>
      <feComposite in2="blur-11" operator="in"/>
      <feComposite in="SourceGraphic"/>
    </filter>
    <filter id="drop-shadow-19" x="2762.23" y="182.79" width="459" height="459" filterUnits="userSpaceOnUse">
      <feOffset dx="-1" dy="7"/>
      <feGaussianBlur result="blur-12" stdDeviation="5"/>
      <feFlood flood-color="#000" flood-opacity=".75"/>
      <feComposite in2="blur-12" operator="in"/>
      <feComposite in="SourceGraphic"/>
    </filter>
    <filter id="drop-shadow-20" x="746" y="530.65" width="343" height="1097" filterUnits="userSpaceOnUse">
      <feOffset dx="7" dy="7"/>
      <feGaussianBlur result="blur-13" stdDeviation="5"/>
      <feFlood flood-color="#000" flood-opacity=".5"/>
      <feComposite in2="blur-13" operator="in"/>
      <feComposite in="SourceGraphic"/>
    </filter>
    <filter id="drop-shadow-21" x="1673" y="166.65" width="235" height="680" filterUnits="userSpaceOnUse">
      <feOffset dx="7" dy="7"/>
      <feGaussianBlur result="blur-14" stdDeviation="5"/>
      <feFlood flood-color="#000" flood-opacity=".5"/>
      <feComposite in2="blur-14" operator="in"/>
      <feComposite in="SourceGraphic"/>
    </filter>
    <filter id="drop-shadow-22" x="1668" y="1180.65" width="252" height="694" filterUnits="userSpaceOnUse">
      <feOffset dx="7" dy="7"/>
      <feGaussianBlur result="blur-15" stdDeviation="5"/>
      <feFlood flood-color="#000" flood-opacity=".5"/>
      <feComposite in2="blur-15" operator="in"/>
      <feComposite in="SourceGraphic"/>
    </filter>
    <filter id="drop-shadow-23" x="2887" y="724.65" width="225" height="583" filterUnits="userSpaceOnUse">
      <feOffset dx="7" dy="7"/>
      <feGaussianBlur result="blur-16" stdDeviation="5"/>
      <feFlood flood-color="#000" flood-opacity=".5"/>
      <feComposite in2="blur-16" operator="in"/>
      <feComposite in="SourceGraphic"/>
    </filter>
    <filter id="drop-shadow-24" x="2902" y="129.65" width="195" height="547" filterUnits="userSpaceOnUse">
      <feOffset dx="7" dy="7"/>
      <feGaussianBlur result="blur-17" stdDeviation="5"/>
      <feFlood flood-color="#000" flood-opacity=".5"/>
      <feComposite in2="blur-17" operator="in"/>
      <feComposite in="SourceGraphic"/>
    </filter>
    <filter id="drop-shadow-25" x="2902" y="1374.65" width="195" height="564" filterUnits="userSpaceOnUse">
      <feOffset dx="7" dy="7"/>
      <feGaussianBlur result="blur-18" stdDeviation="5"/>
      <feFlood flood-color="#000" flood-opacity=".5"/>
      <feComposite in2="blur-18" operator="in"/>
      <feComposite in="SourceGraphic"/>
    </filter>
  </defs>
  <circle class="cls-15" cx="888.03" cy="1060.55" r="440.35"/>
  <circle class="cls-29" cx="1786.94" cy="479.37" r="278.41"/>
  <circle class="cls-13" cx="1769.92" cy="1520.63" r="278.41"/>
  <circle class="cls-18" cx="3008.45" cy="405.64" r="237.74"/>
  <circle class="cls-11" cx="2986.33" cy="1060.55" r="237.74"/>
  <circle class="cls-22" cx="2992.84" cy="1657.73" r="237.74"/>
  <circle class="cls-2" cx="1769.92" cy="479.37" r="256.7"/>
  <circle class="cls-6" cx="910.15" cy="1060.55" r="404.56"/>
  <circle class="cls-5" cx="1786.94" cy="1532.72" r="256.7"/>
  <circle class="cls-7" cx="2982.37" cy="1657.73" r="213.94"/>
  <circle class="cls-3" cx="3001.09" cy="1037.99" r="213.94"/>
  <circle class="cls-4" cx="2992.84" cy="405.64" r="213.94"/>
  <g class="cls-27">
    <circle class="cls-19" cx="910.15" cy="688.14" r="148.56"/>
    <path class="cls-19" d="M920.98,1596.69l139.74-515.76c26.87-99.18-47.82-196.8-150.58-196.8h0c-102.76,0-177.45,97.62-150.58,196.8l139.74,515.76c2.99,11.05,18.68,11.05,21.67,0Z"/>
    <g>
      <path class="cls-16" d="M822.07,688.14c0-71.69,50.77-131.51,118.32-145.48-9.76-2.02-19.88-3.08-30.24-3.08-82.05,0-148.56,66.51-148.56,148.56s66.51,148.56,148.56,148.56c10.36,0,20.48-1.06,30.24-3.08-67.55-13.97-118.32-73.79-118.32-145.48Z"/>
      <path class="cls-16" d="M820.05,1080.93c-24.15-89.15,33.75-177.02,120.34-193.89-9.74-1.9-19.85-2.91-30.24-2.91h0c-102.76,0-177.45,97.62-150.58,196.8l139.74,515.76c3,11.05,18.68,11.05,21.67,0l19.4-71.62-120.34-444.14Z"/>
    </g>
  </g>
  <g>
    <rect class="cls-16" x="1952.09" y="539.58" width="876.32" height="21.91" rx="10.96" ry="10.96"/>
    <path class="cls-16" d="M2817.1,901.68h-312.46s0-340.19,0-340.19h-21.91v350.08c0,6.64,5.38,12.02,12.02,12.02h322.72c6.12,0,11.07-5.02,10.95-11.16-.11-6.03-5.29-10.75-11.32-10.75Z"/>
  </g>
  <g>
    <rect class="cls-16" x="1952.09" y="1622.24" width="876.32" height="21.91" rx="10.96" ry="10.96"/>
    <path class="cls-16" d="M2817.1,1284.66h-312.46s0,340.19,0,340.19h-21.91v-350.08c0-6.64,5.38-12.02,12.02-12.02h322.72c6.12,0,11.07,5.02,10.95,11.16-.11,6.03-5.29,10.75-11.32,10.75Z"/>
  </g>
  <g class="cls-20">
    <path class="cls-1" d="M1795.39,815.76l87.34-322.37c14.67-54.14-26.1-107.42-82.19-107.42h-31.98c-56.09,0-96.86,53.28-82.19,107.42l87.34,322.37c2.99,11.05,18.68,11.05,21.67,0Z"/>
    <path class="cls-28" d="M1715.4,493.96c-14.67-54.14,26.1-107.42,82.19-107.42h-30.64c-56.09,0-96.86,53.28-82.19,107.42l87.34,322.37c3,11.05,18.68,11.05,21.67,0l4.48-16.55-82.86-305.82Z"/>
    <rect class="cls-1" x="1689.01" y="175.17" width="191.5" height="191.5" rx="25.63" ry="25.63"/>
    <path class="cls-28" d="M1728.92,341.04v-140.23c0-14.16,11.48-25.63,25.63-25.63h-39.91c-14.16,0-25.63,11.48-25.63,25.63v140.23c0,14.16,11.48,25.63,25.63,25.63h39.91c-14.16,0-25.63-11.48-25.63-25.63Z"/>
  </g>
  <g class="cls-9">
    <path class="cls-30" d="M1795.59,1843.95l89.37-329.83c13.65-50.38-24.29-99.96-76.48-99.96h-47.45c-52.19,0-90.13,49.58-76.48,99.96l89.37,329.83c2.99,11.05,18.68,11.05,21.67,0Z"/>
    <path class="cls-14" d="M1713.17,1514.12c-13.65-50.38,24.29-99.96,76.48-99.96h-29.05c-52.19,0-90.13,49.58-76.48,99.96l89.37,329.83c3,11.05,18.68,11.05,21.67,0l3.69-13.61-85.68-316.22Z"/>
    <path class="cls-30" d="M1779.21,1193.17l-101.89,176.48c-3.43,5.95.86,13.38,7.72,13.38h203.78c6.87,0,11.16-7.43,7.72-13.38l-101.89-176.48c-3.43-5.95-12.02-5.95-15.45,0Z"/>
    <path class="cls-14" d="M1703.18,1369.65l96.7-167.49-5.19-8.99c-3.43-5.95-12.02-5.95-15.45,0l-101.89,176.48c-3.43,5.95.86,13.38,7.73,13.38h25.83c-6.87,0-11.16-7.43-7.73-13.38Z"/>
  </g>
  <g class="cls-26">
    <path class="cls-21" d="M3003.32,1277.12l65.64-242.28c13.65-50.38-24.29-99.96-76.48-99.96h0c-52.19,0-90.13,49.58-76.48,99.96l65.64,242.28c2.99,11.05,18.68,11.05,21.67,0Z"/>
    <path class="cls-12" d="M2955.29,1034.85c-11.87-43.79,15.26-86.98,56.83-97.52-6.25-1.58-12.82-2.44-19.64-2.44h0c-52.19,0-90.13,49.58-76.48,99.96l65.64,242.28c3,11.05,18.68,11.05,21.67,0l8.81-32.51-56.83-209.76Z"/>
    <path class="cls-21" d="M2997.45,736.64l20.53,63.17h66.42c5.06,0,7.16,6.47,3.07,9.44l-53.74,39.04,20.53,63.17c1.56,4.81-3.94,8.81-8.03,5.84l-53.74-39.04-53.74,39.04c-4.09,2.97-9.59-1.03-8.03-5.84l20.53-63.17-53.74-39.04c-4.09-2.97-1.99-9.44,3.07-9.44h66.42s20.53-63.17,20.53-63.17c1.56-4.81,8.37-4.81,9.93,0Z"/>
    <path class="cls-12" d="M2965.57,852.18l-53.74-39.04c-4.09-2.97-1.99-9.44,3.07-9.44h66.42l18.82-57.94-2.98-9.17c-1.56-4.81-8.37-4.81-9.93,0l-20.53,63.17h-66.42c-5.06,0-7.16,6.47-3.07,9.44l53.74,39.04-20.53,63.17c-1.56,4.81,3.94,8.81,8.03,5.84l7.8-5.67,19.3-59.4Z"/>
  </g>
  <g class="cls-25">
    <path class="cls-8" d="M3003.32,646.34l65.64-242.28c13.65-50.38-24.29-99.96-76.48-99.96h0c-52.19,0-90.13,49.58-76.48,99.96l65.64,242.28c2.99,11.05,18.68,11.05,21.67,0Z"/>
    <path class="cls-17" d="M2955.29,404.07c-11.87-43.79,15.26-86.98,56.83-97.52-6.25-1.58-12.82-2.44-19.64-2.44h0c-52.19,0-90.13,49.58-76.48,99.96l65.64,242.28c3,11.05,18.68,11.05,21.67,0l8.81-32.51-56.83-209.76Z"/>
    <path class="cls-8" d="M3030.77,138.5h-76.57c-1.99,0-3.83,1.06-4.83,2.79l-38.29,66.31c-1,1.72-1,3.85,0,5.57l38.29,66.31c1,1.72,2.84,2.79,4.83,2.79h76.57c1.99,0,3.83-1.06,4.83-2.79l38.29-66.31c1-1.72,1-3.85,0-5.57l-38.29-66.31c-1-1.72-2.84-2.79-4.83-2.79Z"/>
    <path class="cls-17" d="M2977.54,279.49l-38.29-66.31c-1-1.72-1-3.85,0-5.57l38.29-66.31c1-1.72,2.83-2.79,4.83-2.79h-28.17c-1.99,0-3.83,1.06-4.83,2.79l-38.29,66.31c-1,1.72-1,3.85,0,5.57l38.29,66.31c1,1.72,2.83,2.79,4.83,2.79h28.17c-1.99,0-3.83-1.06-4.83-2.79Z"/>
  </g>
  <g class="cls-24">
    <path class="cls-10" d="M3003.32,1907.91l65.64-242.28c13.65-50.38-24.29-99.96-76.48-99.96h0c-52.19,0-90.13,49.58-76.48,99.96l65.64,242.28c2.99,11.05,18.68,11.05,21.67,0Z"/>
    <path class="cls-23" d="M2955.29,1665.63c-11.87-43.79,15.26-86.98,56.83-97.52-6.25-1.58-12.82-2.44-19.64-2.44h0c-52.19,0-90.13,49.58-76.48,99.96l65.64,242.28c3,11.05,18.68,11.05,21.67,0l8.81-32.51-56.83-209.76Z"/>
    <path class="cls-10" d="M3022.87,1383.03h-60.78c-2.31,0-4.53.92-6.16,2.55l-42.98,42.98c-1.63,1.63-2.55,3.85-2.55,6.16v60.78c0,2.31.92,4.53,2.55,6.16l42.98,42.98c1.63,1.63,3.85,2.55,6.16,2.55h60.78c2.31,0,4.53-.92,6.16-2.55l42.98-42.98c1.63-1.63,2.55-3.85,2.55-6.16v-60.78c0-2.31-.92-4.53-2.55-6.16l-42.98-42.98c-1.63-1.63-3.85-2.55-6.16-2.55Z"/>
    <path class="cls-23" d="M2957.68,1501.66c-1.63-1.63-2.55-3.85-2.55-6.16v-60.78c0-2.31.92-4.53,2.55-6.16l42.98-42.98c1.63-1.63,3.85-2.55,6.16-2.55h-44.61c-2.31,0-4.53.92-6.16,2.55l-42.98,42.98c-1.63,1.63-2.55,3.85-2.55,6.16v60.78c0,2.31.92,4.53,2.55,6.16l42.98,42.98c1.63,1.63,3.85,2.55,6.16,2.55h44.61c-2.31,0-4.53-.92-6.16-2.55l-42.98-42.98Z"/>
  </g>
  <rect class="cls-16" x="1128.4" y="823.91" width="491.2" height="21.91" rx="10.96" ry="10.96" transform="translate(-233.35 798.85) rotate(-30)"/>
  <rect class="cls-16" x="1128.4" y="1154.18" width="491.2" height="21.91" rx="10.96" ry="10.96" transform="translate(766.65 -530.9) rotate(30)"/>
</svg>