<?xml version="1.0" encoding="UTF-8"?>
<svg id="Layer_1" data-name="Layer 1" xmlns="http://www.w3.org/2000/svg" xmlns:xlink="http://www.w3.org/1999/xlink" viewBox="0 0 4200 2000">
  <defs>
    <style>
      .cls-1 {
        fill: #f2f1eb;
        opacity: .45;
      }

      .cls-2 {
        filter: url(#drop-shadow-6);
      }

      .cls-3 {
        filter: url(#drop-shadow-3);
      }

      .cls-3, .cls-4, .cls-5 {
        fill: #ede4bc;
      }

      .cls-6 {
        filter: url(#drop-shadow-5);
      }

      .cls-7 {
        fill: #2d2d2d;
      }

      .cls-4 {
        filter: url(#drop-shadow-2);
      }

      .cls-8 {
        filter: url(#drop-shadow-7);
      }

      .cls-9 {
        fill: none;
        stroke: #ed1837;
        stroke-miterlimit: 10;
        stroke-width: 6px;
      }

      .cls-5 {
        filter: url(#drop-shadow-4);
      }

      .cls-10 {
        fill: #ed1837;
      }
    </style>
    <filter id="drop-shadow-2" x="2651" y="166" width="859" height="1676" filterUnits="userSpaceOnUse">
      <feOffset dx="-4" dy="4"/>
      <feGaussianBlur result="blur" stdDeviation="5"/>
      <feFlood flood-color="#000" flood-opacity=".5"/>
      <feComposite in2="blur" operator="in"/>
      <feComposite in="SourceGraphic"/>
    </filter>
    <filter id="drop-shadow-3" x="1736" y="60" width="859" height="1862" filterUnits="userSpaceOnUse">
      <feOffset dx="-4" dy="4"/>
      <feGaussianBlur result="blur-2" stdDeviation="5"/>
      <feFlood flood-color="#000" flood-opacity=".5"/>
      <feComposite in2="blur-2" operator="in"/>
      <feComposite in="SourceGraphic"/>
    </filter>
    <filter id="drop-shadow-4" x="841" y="166" width="859" height="1676" filterUnits="userSpaceOnUse">
      <feOffset dx="-4" dy="4"/>
      <feGaussianBlur result="blur-3" stdDeviation="5"/>
      <feFlood flood-color="#000" flood-opacity=".5"/>
      <feComposite in2="blur-3" operator="in"/>
      <feComposite in="SourceGraphic"/>
    </filter>
    <filter id="drop-shadow-5" x="3130" y="1495" width="224" height="224" filterUnits="userSpaceOnUse">
      <feOffset dx="-4" dy="4"/>
      <feGaussianBlur result="blur-4" stdDeviation="5"/>
      <feFlood flood-color="#000" flood-opacity=".5"/>
      <feComposite in2="blur-4" operator="in"/>
      <feComposite in="SourceGraphic"/>
    </filter>
    <filter id="drop-shadow-6" x="973" y="259" width="137" height="295" filterUnits="userSpaceOnUse">
      <feOffset dx="-4" dy="4"/>
      <feGaussianBlur result="blur-5" stdDeviation="5"/>
      <feFlood flood-color="#000" flood-opacity=".5"/>
      <feComposite in2="blur-5" operator="in"/>
      <feComposite in="SourceGraphic"/>
    </filter>
    <filter id="drop-shadow-7" x="1024" y="299" width="2091" height="1297" filterUnits="userSpaceOnUse">
      <feOffset dx="-4" dy="4"/>
      <feGaussianBlur result="blur-6" stdDeviation="5"/>
      <feFlood flood-color="#000" flood-opacity=".5"/>
      <feComposite in2="blur-6" operator="in"/>
      <feComposite in="SourceGraphic"/>
    </filter>
  </defs>
  <path class="cls-4" d="M3468.06,177.19h-766.29c-17.05,0-30.87,13.82-30.87,30.87v1583.97c0,17.05,13.82,30.87,30.87,30.87h766.29c17.05,0,30.87-13.82,30.87-30.87V208.06c0-17.05-13.82-30.87-30.87-30.87ZM2698,327.18c-7.1,0-12.85-5.75-12.85-12.85s5.75-12.85,12.85-12.85,12.85,5.75,12.85,12.85-5.75,12.85-12.85,12.85ZM2732.99,531.48c-7.1,0-12.85-5.75-12.85-12.85s5.75-12.85,12.85-12.85,12.85,5.75,12.85,12.85-5.75,12.85-12.85,12.85ZM2734.88,329.07c-7.1,0-12.85-5.75-12.85-12.85s5.75-12.85,12.85-12.85,12.85,5.75,12.85,12.85-5.75,12.85-12.85,12.85ZM2768.93,520.13c-7.1,0-12.85-5.75-12.85-12.85s5.75-12.85,12.85-12.85,12.85,5.75,12.85,12.85-5.75,12.85-12.85,12.85ZM2815.28,1563.36c-7.1,0-12.85-5.75-12.85-12.85s5.75-12.85,12.85-12.85,12.85,5.75,12.85,12.85-5.75,12.85-12.85,12.85ZM2857.84,1566.19c-7.1,0-12.85-5.75-12.85-12.85s5.75-12.85,12.85-12.85,12.85,5.75,12.85,12.85-5.75,12.85-12.85,12.85ZM2876.2,324.73c0-7.1,5.75-12.85,12.85-12.85s12.85,5.75,12.85,12.85-5.75,12.85-12.85,12.85-12.85-5.75-12.85-12.85ZM2898.51,472.84c-7.1,0-12.85-5.75-12.85-12.85s5.75-12.85,12.85-12.85,12.85,5.75,12.85,12.85-5.75,12.85-12.85,12.85ZM2915.92,331.36c0-7.1,5.75-12.85,12.85-12.85s12.85,5.75,12.85,12.85-5.75,12.85-12.85,12.85-12.85-5.75-12.85-12.85ZM2934.45,457.7c-7.1,0-12.85-5.75-12.85-12.85s5.75-12.85,12.85-12.85,12.85,5.75,12.85,12.85-5.75,12.85-12.85,12.85ZM3113.21,1586.06c-7.1,0-12.85-5.75-12.85-12.85s5.75-12.85,12.85-12.85,12.85,5.75,12.85,12.85-5.75,12.85-12.85,12.85Z"/>
  <path class="cls-3" d="M2552.59,71.67h-766.29c-17.05,0-30.87,13.82-30.87,30.87v1769.35c0,17.05,13.82,30.87,30.87,30.87h766.29c17.05,0,30.87-13.82,30.87-30.87V102.54c0-17.05-13.82-30.87-30.87-30.87ZM2483.3,301.48c7.1,0,12.85,5.75,12.85,12.85s-5.75,12.85-12.85,12.85-12.85-5.75-12.85-12.85,5.75-12.85,12.85-12.85ZM2323.45,306.21c7.1,0,12.85,5.75,12.85,12.85s-5.75,12.85-12.85,12.85-12.85-5.75-12.85-12.85,5.75-12.85,12.85-12.85ZM1794.74,1443.24c-7.1,0-12.85-5.75-12.85-12.85s5.75-12.85,12.85-12.85,12.85,5.75,12.85,12.85-5.75,12.85-12.85,12.85ZM1805.15,359.34c-7.1,0-12.85-5.75-12.85-12.85s5.75-12.85,12.85-12.85,12.85,5.75,12.85,12.85-5.75,12.85-12.85,12.85ZM1839.2,1448.91c-7.1,0-12.85-5.75-12.85-12.85s5.75-12.85,12.85-12.85,12.85,5.75,12.85,12.85-5.75,12.85-12.85,12.85ZM1843.93,356.5c-7.1,0-12.85-5.75-12.85-12.85s5.75-12.85,12.85-12.85,12.85,5.75,12.85,12.85-5.75,12.85-12.85,12.85ZM1898.78,760.36c-7.1,0-12.85-5.75-12.85-12.85s5.75-12.85,12.85-12.85,12.85,5.75,12.85,12.85-5.75,12.85-12.85,12.85ZM1935.67,750.9c-7.1,0-12.85-5.75-12.85-12.85s5.75-12.85,12.85-12.85,12.85,5.75,12.85,12.85-5.75,12.85-12.85,12.85ZM1965.94,348.93c-7.1,0-12.85-5.75-12.85-12.85s5.75-12.85,12.85-12.85,12.85,5.75,12.85,12.85-5.75,12.85-12.85,12.85ZM2004.72,347.04c-7.1,0-12.85-5.75-12.85-12.85s5.75-12.85,12.85-12.85,12.85,5.75,12.85,12.85-5.75,12.85-12.85,12.85ZM2028.36,1493.37c-7.1,0-12.85-5.75-12.85-12.85s5.75-12.85,12.85-12.85,12.85,5.75,12.85,12.85-5.75,12.85-12.85,12.85ZM2069.03,1495.26c-7.1,0-12.85-5.75-12.85-12.85s5.75-12.85,12.85-12.85,12.85,5.75,12.85,12.85-5.75,12.85-12.85,12.85ZM2092.68,708.34c-7.1,0-12.85-5.75-12.85-12.85s5.75-12.85,12.85-12.85,12.85,5.75,12.85,12.85-5.75,12.85-12.85,12.85ZM2127.67,313.78c7.1,0,12.85,5.75,12.85,12.85s-5.75,12.85-12.85,12.85-12.85-5.75-12.85-12.85,5.75-12.85,12.85-12.85ZM2129.56,698.88c-7.1,0-12.85-5.75-12.85-12.85s5.75-12.85,12.85-12.85,12.85,5.75,12.85,12.85-5.75,12.85-12.85,12.85ZM2166.45,337.58c-7.1,0-12.85-5.75-12.85-12.85s5.75-12.85,12.85-12.85,12.85,5.75,12.85,12.85-5.75,12.85-12.85,12.85ZM2258.19,1518.9c-7.1,0-12.85-5.75-12.85-12.85s5.75-12.85,12.85-12.85,12.85,5.75,12.85,12.85-5.75,12.85-12.85,12.85ZM2286.57,307.16c7.1,0,12.85,5.75,12.85,12.85s-5.75,12.85-12.85,12.85-12.85-5.75-12.85-12.85,5.75-12.85,12.85-12.85ZM2276.56,643.47c0-7.1,5.75-12.85,12.85-12.85s12.85,5.75,12.85,12.85-5.75,12.85-12.85,12.85-12.85-5.75-12.85-12.85ZM2299.81,1522.69c-7.1,0-12.85-5.75-12.85-12.85s5.75-12.85,12.85-12.85,12.85,5.75,12.85,12.85-5.75,12.85-12.85,12.85ZM2325.35,646.86c-7.1,0-12.85-5.75-12.85-12.85s5.75-12.85,12.85-12.85,12.85,5.75,12.85,12.85-5.75,12.85-12.85,12.85ZM2444.52,328.13c-7.1,0-12.85-5.75-12.85-12.85s5.75-12.85,12.85-12.85,12.85,5.75,12.85,12.85-5.75,12.85-12.85,12.85ZM2477.62,1536.87c-7.1,0-12.85-5.75-12.85-12.85s5.75-12.85,12.85-12.85,12.85,5.75,12.85,12.85-5.75,12.85-12.85,12.85ZM2488.42,586.72c0-7.1,5.75-12.85,12.85-12.85s12.85,5.75,12.85,12.85-5.75,12.85-12.85,12.85-12.85-5.75-12.85-12.85ZM2519.24,1539.71c-7.1,0-12.85-5.75-12.85-12.85s5.75-12.85,12.85-12.85,12.85,5.75,12.85,12.85-5.75,12.85-12.85,12.85ZM2538.15,589.17c-7.1,0-12.85-5.75-12.85-12.85s5.75-12.85,12.85-12.85,12.85,5.75,12.85,12.85-5.75,12.85-12.85,12.85Z"/>
  <path class="cls-5" d="M1658.12,177.19h-766.29c-17.05,0-30.87,13.82-30.87,30.87v1583.97c0,17.05,13.82,30.87,30.87,30.87h766.29c17.05,0,30.87-13.82,30.87-30.87V208.06c0-17.05-13.82-30.87-30.87-30.87ZM1033.76,1154.21c0-7.1,5.75-12.85,12.85-12.85s12.85,5.75,12.85,12.85-5.75,12.85-12.85,12.85-12.85-5.75-12.85-12.85ZM1053.23,1208.68c-7.1,0-12.85-5.75-12.85-12.85s5.75-12.85,12.85-12.85,12.85,5.75,12.85,12.85-5.75,12.85-12.85,12.85ZM1142.13,1289.07c-7.1,0-12.85-5.75-12.85-12.85s5.75-12.85,12.85-12.85,12.85,5.75,12.85,12.85-5.75,12.85-12.85,12.85ZM1148.59,393.66c0-7.1,5.75-12.85,12.85-12.85s12.85,5.75,12.85,12.85-5.75,12.85-12.85,12.85-12.85-5.75-12.85-12.85ZM1176.18,988.14c7.1,0,12.85,5.75,12.85,12.85s-5.75,12.85-12.85,12.85-12.85-5.75-12.85-12.85,5.75-12.85,12.85-12.85ZM1178.07,1305.15c-7.1,0-12.85-5.75-12.85-12.85s5.75-12.85,12.85-12.85,12.85,5.75,12.85,12.85-5.75,12.85-12.85,12.85ZM1214.96,993.98c-7.1,0-12.85-5.75-12.85-12.85s5.75-12.85,12.85-12.85,12.85,5.75,12.85,12.85-5.75,12.85-12.85,12.85ZM1286.29,396.11c-7.1,0-12.85-5.75-12.85-12.85s5.75-12.85,12.85-12.85,12.85,5.75,12.85,12.85-5.75,12.85-12.85,12.85ZM1322.78,1357.17c-7.1,0-12.85-5.75-12.85-12.85s5.75-12.85,12.85-12.85,12.85,5.75,12.85,12.85-5.75,12.85-12.85,12.85ZM1325.07,393.27c-7.1,0-12.85-5.75-12.85-12.85s5.75-12.85,12.85-12.85,12.85,5.75,12.85,12.85-5.75,12.85-12.85,12.85ZM1361.56,1366.63c-7.1,0-12.85-5.75-12.85-12.85s5.75-12.85,12.85-12.85,12.85,5.75,12.85,12.85-5.75,12.85-12.85,12.85ZM1378.59,930.61c-7.1,0-12.85-5.75-12.85-12.85s5.75-12.85,12.85-12.85,12.85,5.75,12.85,12.85-5.75,12.85-12.85,12.85ZM1410.74,916.42c-7.1,0-12.85-5.75-12.85-12.85s5.75-12.85,12.85-12.85,12.85,5.75,12.85,12.85-5.75,12.85-12.85,12.85ZM1465.99,382.86c-7.1,0-12.85-5.75-12.85-12.85s5.75-12.85,12.85-12.85,12.85,5.75,12.85,12.85-5.75,12.85-12.85,12.85ZM1504.77,380.03c-7.1,0-12.85-5.75-12.85-12.85s5.75-12.85,12.85-12.85,12.85,5.75,12.85,12.85-5.75,12.85-12.85,12.85ZM1538.43,1412.97c-7.1,0-12.85-5.75-12.85-12.85s5.75-12.85,12.85-12.85,12.85,5.75,12.85,12.85-5.75,12.85-12.85,12.85ZM1576.26,1418.65c-7.1,0-12.85-5.75-12.85-12.85s5.75-12.85,12.85-12.85,12.85,5.75,12.85,12.85-5.75,12.85-12.85,12.85ZM1604.64,850.21c-7.1,0-12.85-5.75-12.85-12.85s5.75-12.85,12.85-12.85,12.85,5.75,12.85,12.85-5.75,12.85-12.85,12.85ZM1620.16,371.52c-7.1,0-12.85-5.75-12.85-12.85s5.75-12.85,12.85-12.85,12.85,5.75,12.85,12.85-5.75,12.85-12.85,12.85ZM1643.41,836.97c-7.1,0-12.85-5.75-12.85-12.85s5.75-12.85,12.85-12.85,12.85,5.75,12.85,12.85-5.75,12.85-12.85,12.85ZM1657.6,368.8c-7.1,0-12.85-5.75-12.85-12.85s5.75-12.85,12.85-12.85,12.85,5.75,12.85,12.85-5.75,12.85-12.85,12.85Z"/>
  <polygon class="cls-1" points="2812 229.45 2702.99 418.26 2921.02 418.26 2812 229.45"/>
  <polygon class="cls-1" points="2829.22 475.74 2755.9 602.73 2902.53 602.73 2829.22 475.74"/>
  <polygon class="cls-1" points="3326.55 535.34 3209.54 738 3443.56 738 3326.55 535.34"/>
  <polygon class="cls-1" points="3354.3 849.35 3237.29 1052.01 3471.3 1052.01 3354.3 849.35"/>
  <polygon class="cls-1" points="3349.32 199.06 3232.38 401.61 3466.26 401.61 3349.32 199.06"/>
  <polygon class="cls-1" points="3127.51 333.19 3013.84 530.08 3241.18 530.08 3127.51 333.19"/>
  <polygon class="cls-1" points="2870.96 657.03 2724.81 910.16 3017.1 910.16 2870.96 657.03"/>
  <polygon class="cls-1" points="3096.69 889.07 2950.54 1142.2 3242.83 1142.2 3096.69 889.07"/>
  <polygon class="cls-1" points="3004.7 1195.06 2834.11 1490.53 3175.29 1490.53 3004.7 1195.06"/>
  <polygon class="cls-1" points="3288.07 1153.27 3183.34 1334.67 3392.8 1334.67 3288.07 1153.27"/>
  <polygon class="cls-1" points="3090.46 705.8 3030.58 809.5 3150.33 809.5 3090.46 705.8"/>
  <polygon class="cls-1" points="3216.57 814.25 3156.69 917.96 3276.44 917.96 3216.57 814.25"/>
  <polygon class="cls-1" points="3404.51 446.01 3357.2 527.94 3451.81 527.94 3404.51 446.01"/>
  <polygon class="cls-1" points="2768.92 973.15 2721.62 1055.08 2816.22 1055.08 2768.92 973.15"/>
  <polygon class="cls-1" points="3391.43 1384.67 3331.56 1488.37 3451.3 1488.37 3391.43 1384.67"/>
  <polygon class="cls-1" points="3029.94 202.58 2970.07 306.28 3089.82 306.28 3029.94 202.58"/>
  <polygon class="cls-1" points="3003.46 1538.65 2943.59 1642.36 3063.34 1642.36 3003.46 1538.65"/>
  <polygon class="cls-1" points="3156.25 1593.53 3064.66 1752.17 3247.84 1752.17 3156.25 1593.53"/>
  <polygon class="cls-1" points="3384.31 1668.54 3324.43 1772.25 3444.18 1772.25 3384.31 1668.54"/>
  <polygon class="cls-1" points="2806.77 1116.7 2708.81 1286.37 2904.73 1286.37 2806.77 1116.7"/>
  <polygon class="cls-1" points="2823.38 1598.03 2723.4 1771.2 2923.36 1771.2 2823.38 1598.03"/>
  <rect class="cls-1" x="2361.5" y="107.15" width="182.33" height="182.33"/>
  <rect class="cls-1" x="1838.04" y="396.24" width="166.68" height="166.68"/>
  <rect class="cls-1" x="2036.03" y="120.07" width="51.29" height="51.29"/>
  <rect class="cls-1" x="2085.21" y="188.17" width="51.29" height="51.29"/>
  <rect class="cls-1" x="2160.88" y="1026.79" width="51.29" height="51.29"/>
  <rect class="cls-1" x="2118" y="1118.84" width="51.29" height="51.29"/>
  <rect class="cls-1" x="1996.93" y="1653.54" width="51.29" height="51.29"/>
  <rect class="cls-1" x="1801.47" y="1164.24" width="51.29" height="51.29"/>
  <rect class="cls-1" x="1824.17" y="767.74" width="280.12" height="280.12"/>
  <rect class="cls-1" x="2257.76" y="941.4" width="288.67" height="288.67"/>
  <rect class="cls-1" x="2126.42" y="1256.05" width="232.03" height="232.03"/>
  <rect class="cls-1" x="1899.43" y="1117.96" width="168.6" height="168.6"/>
  <rect class="cls-1" x="1803.84" y="1647.14" width="142.95" height="142.95"/>
  <rect class="cls-1" x="1991.03" y="1773.45" width="89.2" height="89.2"/>
  <rect class="cls-1" x="2357.92" y="1718.23" width="138.72" height="138.72"/>
  <rect class="cls-1" x="2124.73" y="1597.97" width="192.1" height="192.1"/>
  <rect class="cls-1" x="1867.86" y="1433.95" width="132.66" height="132.66"/>
  <rect class="cls-1" x="2170.42" y="667.47" width="229.47" height="229.47"/>
  <rect class="cls-1" x="2338.02" y="471.53" width="151.49" height="151.49"/>
  <rect class="cls-1" x="2187.24" y="290.69" width="76.99" height="76.99"/>
  <rect class="cls-1" x="1803.1" y="108.38" width="101.77" height="101.77"/>
  <rect class="cls-1" x="1929.85" y="191.41" width="70.99" height="70.99"/>
  <rect class="cls-1" x="2146.72" y="521.87" width="70.99" height="70.99"/>
  <rect class="cls-1" x="1946.21" y="587.45" width="99.22" height="99.22"/>
  <rect class="cls-1" x="2211.89" y="385.27" width="104.18" height="104.18"/>
  <rect class="cls-1" x="2464.51" y="771.57" width="70.99" height="70.99"/>
  <rect class="cls-1" x="2199.68" y="134.31" width="129.4" height="129.4"/>
  <rect class="cls-1" x="2454.02" y="1390.71" width="70.99" height="70.99"/>
  <rect class="cls-1" x="1849.96" y="1317.57" width="70.99" height="70.99"/>
  <rect class="cls-1" x="2388.44" y="1590.86" width="86.48" height="86.48"/>
  <circle class="cls-1" cx="1016.75" cy="333.33" r="131.39"/>
  <circle class="cls-1" cx="1595.32" cy="475.24" r="72.06"/>
  <circle class="cls-1" cx="1313.18" cy="589.26" r="155.2"/>
  <circle class="cls-1" cx="1024.6" cy="888.19" r="89.62"/>
  <circle class="cls-1" cx="1521.51" cy="918.8" r="92.48"/>
  <circle class="cls-1" cx="1061.07" cy="1445.72" r="167.09"/>
  <circle class="cls-1" cx="1548.91" cy="1672.47" r="114.21"/>
  <circle class="cls-1" cx="1468.32" cy="1313.09" r="78.84"/>
  <circle class="cls-1" cx="1040.62" cy="1695.53" r="56.07"/>
  <circle class="cls-1" cx="949.33" cy="1761.02" r="27.03"/>
  <circle class="cls-1" cx="1326.39" cy="1086.34" r="27.03"/>
  <circle class="cls-1" cx="922.84" cy="1047.25" r="27.03"/>
  <circle class="cls-1" cx="1356.32" cy="1547.99" r="74.18"/>
  <circle class="cls-1" cx="1209.09" cy="1144.44" r="74.18"/>
  <circle class="cls-1" cx="1281.37" cy="1697.01" r="51.24"/>
  <circle class="cls-1" cx="948.76" cy="1196.99" r="51.24"/>
  <circle class="cls-1" cx="1605.07" cy="1192.82" r="62.26"/>
  <circle class="cls-1" cx="1290.61" cy="954.87" r="51.24"/>
  <circle class="cls-1" cx="1274.93" cy="269.56" r="70.87"/>
  <circle class="cls-1" cx="981.16" cy="674.34" r="37.01"/>
  <circle class="cls-1" cx="1575.14" cy="629.7" r="37.01"/>
  <circle class="cls-1" cx="1600.67" cy="253.59" r="56.88"/>
  <circle class="cls-1" cx="1479.01" cy="289.74" r="37.01"/>
  <g class="cls-6">
    <rect class="cls-10" x="3221.08" y="1504.37" width="49.96" height="197.74" transform="translate(2842.16 -1994.56) rotate(57.31)"/>
    <rect class="cls-10" x="3221.08" y="1504.37" width="49.96" height="197.74" transform="translate(6843.86 1199.34) rotate(147.31)"/>
  </g>
  <g class="cls-2">
    <circle class="cls-7" cx="1045.66" cy="315.34" r="44.52"/>
    <path class="cls-7" d="M1014.57,374.2h62.18c12.11,0,21.94,9.83,21.94,21.94v138.72h-106.06v-138.72c0-12.11,9.83-21.94,21.94-21.94Z"/>
  </g>
  <g class="cls-8">
    <path class="cls-9" d="M2865.08,1554.29c80.3,4.52,160.06,19.03,238.67,18.92"/>
    <path class="cls-9" d="M2526.89,1527.23c94.6,7.41,186.45,17.08,280.39,22.25"/>
    <path class="cls-9" d="M2308.6,1510.45c53.12,4.7,106.3,8.76,159.49,12.6"/>
    <path class="cls-9" d="M2078.58,1484.87c57.19,7.98,114.57,14.54,172.04,20.18"/>
    <path class="cls-9" d="M1845.91,1440.77c86.86,23.76,86.86,24.44,173.72,38.3"/>
    <path class="cls-9" d="M1585.84,1408.41c66.49,11.78,133.58,23.05,201.32,22.59"/>
    <path class="cls-9" d="M1371.06,1356.72c37.06,8.73,73.32,18.39,109.57,28.06,16.92,4.83,31.42,12.09,47.22,13.64"/>
    <path class="cls-9" d="M1187.32,1298.56c18.65,10.06,41.09,13.56,60.74,22.08,10.59,4.59-10.47-4.39,20.96,8.81,10.65,4.48,26.2,9.07,44.16,12.59"/>
    <path class="cls-9" d="M1058.34,1203.84c16.94,30.13,44.97,51.03,74.7,67.48"/>
    <path class="cls-9" d="M1168.73,1006.03c-21.66,16.19-41,33.11-62.75,50.03-31.42,24.17-53.18,53.18-59.23,90.2"/>
    <path class="cls-9" d="M1369.2,921.28c-50.4,15.82-100.3,33.62-147.96,56.53"/>
    <path class="cls-9" d="M1596.58,839.25c-30.96,10.41-17.65,5-68.73,18.82,0,0-29.72,9.54-55.47,21.17-8.39,3.79-40.23,17.09-53.43,22"/>
    <path class="cls-9" d="M1889.19,751c-77.42,27.1-35.15,12.62-77.42,27.1-52.79,18.07-106.35,31.42-158.58,44.44"/>
    <path class="cls-9" d="M2081.72,699.29c-45,13.22-90.58,24.3-135.93,36.19"/>
    <path class="cls-9" d="M2278.92,646.02c-32.61,6.99-28.87,5.85-68.95,16.34-24.34,6.37-46.84,14.75-70.44,21.23"/>
    <path class="cls-9" d="M2491.69,589.26c-53.9,12.38-102.24,31.72-155.85,43.17"/>
    <path class="cls-9" d="M2722.06,521.51c-58.67,15.36-116.38,34.08-174.45,51.53"/>
    <path class="cls-9" d="M2888.1,464.32c-35.87,14.75-72.43,27.76-109.33,39.68"/>
    <path class="cls-9" d="M2938.93,335.29c18.81,5.64,38.93,14.5,51.78,29.91,6.13,7.36,10.59,16.89,10.52,26.64-.08,11.32-8.89,20.05-17.44,26.32-12.42,9.11-27.32,15.56-41.14,22.24"/>
    <path class="cls-9" d="M2745.46,316.35c45.1,1.74,90.39,1.17,135.23,7.02"/>
    <path class="cls-9" d="M2492.98,314.16c64.72-1.32,129.47-1.32,194.18.29"/>
    <path class="cls-9" d="M2333.19,318.82c33.64-1.47,67.3-2.65,100.96-3.5"/>
    <path class="cls-9" d="M2176.38,324.71c33.18-1.12,66.35-2.39,99.53-3.68"/>
    <path class="cls-9" d="M2014,333.33c34.61-1.98,69.23-3.89,103.85-5.69"/>
    <path class="cls-9" d="M1854.04,343.07c33.88-2.1,67.76-4.2,101.65-6.26"/>
    <path class="cls-9" d="M1667.54,355.31c42.58-2.79,85.15-5.62,127.72-8.41"/>
    <path class="cls-9" d="M1514.16,366.79c32.02-2.55,64.04-5,96.08-7.36"/>
    <path class="cls-9" d="M1334.61,379.95c40.28-2.94,80.56-5.91,120.83-8.86"/>
    <path class="cls-9" d="M1170.51,392.83c35.37-2.84,70.75-5.64,106.13-8.4"/>
  </g>
</svg>