<?xml version="1.0" encoding="UTF-8"?>
<svg id="Layer_1" data-name="Layer 1" xmlns="http://www.w3.org/2000/svg" viewBox="0 0 4200 2000">
  <defs>
    <style>
      .cls-1 {
        fill: #bf2026;
      }

      .cls-2 {
        fill: #7c7c7c;
      }

      .cls-3 {
        fill: #b7b7b7;
        opacity: .22;
      }

      .cls-4 {
        fill: #ffc533;
      }

      .cls-5 {
        fill: #aee8ff;
      }

      .cls-6 {
        fill: #964424;
      }

      .cls-7 {
        fill: #606060;
      }

      .cls-8 {
        fill: #ffe0b8;
      }

      .cls-9 {
        fill: none;
        stroke: #7a7a7a;
        stroke-miterlimit: 10;
        stroke-width: 14px;
      }

      .cls-10 {
        fill: #f2f2f2;
      }

      .cls-11 {
        fill: #a0a0a0;
      }

      .cls-12 {
        fill: #bfbfbf;
      }

      .cls-13 {
        fill: #7c5d48;
      }

      .cls-14 {
        fill: #3a3a3a;
      }

      .cls-15 {
        fill: #ffedc5;
      }

      .cls-16 {
        fill: #1a1a1a;
      }

      .cls-17 {
        fill: #ff8a33;
      }

      .cls-18 {
        fill: #512e0e;
      }

      .cls-19 {
        fill: #415e38;
      }

      .cls-20 {
        fill: #d3c29f;
      }

      .cls-21 {
        fill: #7a7a7a;
      }

      .cls-22 {
        fill: #e0b79b;
      }

      .cls-23 {
        fill: #fc4250;
      }
    </style>
  </defs>
  <polygon class="cls-5" points="2409.83 1156.07 3582.04 1156.07 3540.78 649.46 3125.16 236.07 2762.25 256.67 2420.49 722.88 2409.83 1156.07"/>
  <polygon class="cls-19" points="2409.83 1088.95 3569.52 1079.85 3502.06 1511.89 3085.48 1853.96 2776.07 1800.13 2483.24 1536.71 2409.83 1088.95"/>
  <circle class="cls-10" cx="3272.77" cy="399.43" r="119.85"/>
  <circle class="cls-10" cx="3406.9" cy="541.77" r="119.85"/>
  <circle class="cls-10" cx="3125.16" cy="512.35" r="119.85"/>
  <circle class="cls-10" cx="3273.84" cy="585.9" r="119.85"/>
  <polygon class="cls-13" points="526.74 913.29 1710.04 926.85 1606.74 1456.56 1268.65 1721.66 856.39 1661.23 620.65 1317.47 526.74 913.29"/>
  <polygon class="cls-22" points="548.65 961.01 1691.04 936.68 1586.83 336.54 1196.96 122.53 827.26 222.19 592 630.06 548.65 961.01"/>
  <path class="cls-10" d="M873.15,279.35h0c104.25,0,188.89,84.64,188.89,188.89v386.7h-377.78v-386.7c0-104.25,84.64-188.89,188.89-188.89Z"/>
  <rect class="cls-7" x="1157.94" y="431.18" width="484.02" height="272.28" rx="20.21" ry="20.21"/>
  <rect class="cls-14" x="1188.76" y="457.9" width="451.95" height="218.5" rx="20.21" ry="20.21"/>
  <rect class="cls-3" x="1275.69" y="457.9" width="105.1" height="225.17"/>
  <rect class="cls-3" x="1409.13" y="457.9" width="47.35" height="218.5"/>
  <path class="cls-5" d="M859.8,329.42h18.3c77.33,0,140.12,62.78,140.12,140.12v355.31h-298.53v-355.31c0-77.33,62.78-140.12,140.12-140.12Z"/>
  <path class="cls-7" d="M918.68,831.85h379.38c100.04,0,181.26,81.22,181.26,181.26v529.27h-741.91v-529.27c0-100.04,81.22-181.26,181.26-181.26Z"/>
  <rect class="cls-10" x="684.26" y="576.74" width="357.78" height="37.21"/>
  <rect class="cls-10" x="596.27" y="549.86" width="533.36" height="40.06" transform="translate(293.06 1432.83) rotate(-90)"/>
  <path class="cls-2" d="M978.88,826.18h-63.7c-100.11,0-181.26,81.15-181.26,181.26v529.27h63.7v-529.27c0-100.11,81.15-181.26,181.26-181.26Z"/>
  <path class="cls-17" d="M3008.45,170.77c-360.92,0-653.5,387.49-653.5,865.48s292.58,865.48,653.5,865.48,653.5-387.49,653.5-865.48-292.58-865.48-653.5-865.48ZM2951.09,1781.42c-317.93,0-575.65-341.33-575.65-762.37s257.73-762.37,575.65-762.37,575.65,341.33,575.65,762.37-257.73,762.37-575.65,762.37Z"/>
  <path class="cls-17" d="M1101.19,69.18c-360.92,0-653.5,387.49-653.5,865.48s292.58,865.48,653.5,865.48,653.5-387.49,653.5-865.48S1462.11,69.18,1101.19,69.18ZM1167.65,1679.82c-317.92,0-575.65-341.33-575.65-762.37S849.73,155.07,1167.65,155.07s575.65,341.33,575.65,762.37-257.73,762.37-575.65,762.37Z"/>
  <rect class="cls-4" x="1931.92" y="1088.95" width="408.77" height="67.12" transform="translate(4272.61 2245.02) rotate(180)"/>
  <polygon class="cls-4" points="1821.08 1120.8 1943.14 1191.27 1943.14 1050.32 1821.08 1120.8"/>
  <rect class="cls-4" x="1776.19" y="835.68" width="408.77" height="67.12"/>
  <polygon class="cls-4" points="2295.81 870.96 2173.74 800.48 2173.74 941.43 2295.81 870.96"/>
  <path class="cls-17" d="M1797.78,797.29h68.11c20.41,0,36.98,16.57,36.98,36.98v73.37c0,20.41-16.57,36.98-36.98,36.98h-68.11c-8.24,0-14.93-6.69-14.93-14.93v-117.48c0-8.24,6.69-14.93,14.93-14.93Z"/>
  <path class="cls-17" d="M2243.29,1044.41h64.53c10.22,0,18.51,8.3,18.51,18.51v110.3c0,10.22-8.3,18.51-18.51,18.51h-64.53c-20.41,0-36.98-16.57-36.98-36.98v-73.37c0-20.41,16.57-36.98,36.98-36.98Z"/>
  <path class="cls-4" d="M1161.29,69.18c-360.92,0-653.5,387.49-653.5,865.48s292.58,865.48,653.5,865.48,653.5-387.49,653.5-865.48S1522.21,69.18,1161.29,69.18ZM1167.65,1679.82c-317.92,0-575.65-341.33-575.65-762.37S849.73,155.07,1167.65,155.07s575.65,341.33,575.65,762.37-257.73,762.37-575.65,762.37Z"/>
  <path class="cls-17" d="M1172.47,155.07c-18.13,0-36.05,1.12-53.75,3.29,292.72,35.9,521.9,362.04,521.9,759.08s-229.18,723.18-521.9,759.08c17.7,2.17,35.63,3.29,53.75,3.29,317.92,0,575.65-341.33,575.65-762.37S1490.39,155.07,1172.47,155.07Z"/>
  <path class="cls-4" d="M2956.01,170.77c-360.92,0-653.5,387.49-653.5,865.48s292.58,865.48,653.5,865.48,653.5-387.49,653.5-865.48-292.58-865.48-653.5-865.48ZM2951.09,1781.42c-317.93,0-575.65-341.33-575.65-762.37s257.73-762.37,575.65-762.37,575.65,341.33,575.65,762.37-257.73,762.37-575.65,762.37Z"/>
  <path class="cls-17" d="M2947.34,256.67c18.13,0,36.05,1.12,53.75,3.29-292.72,35.9-521.9,362.04-521.9,759.08,0,397.04,229.18,723.18,521.9,759.08-17.7,2.17-35.63,3.29-53.75,3.29-317.92,0-575.65-341.33-575.65-762.37,0-421.05,257.73-762.37,575.65-762.37Z"/>
  <path class="cls-15" d="M800.95,1504.93c43.36,47.94,92.11,87.6,144.9,117.12h.09v-278.29h-144.99v161.17Z"/>
  <path class="cls-15" d="M1522.8,1343.76h-144.99v278.29h15.64c46.56-26.05,90-59.98,129.35-100.53v-177.76Z"/>
  <path class="cls-9" d="M926.49,699.05c1.19-17.61,4.89-43.26,16.63-71.72,29.68-71.96,87.93-106.6,106.02-116.41,12.44-6.75,64.74-33.68,136.16-28.06,15.9,1.25,85.84,8.29,146.55,62.36,36.53,32.54,54.22,68.3,63.4,87.31,15.31,31.71,22.42,60.5,25.98,81.07"/>
  <path class="cls-21" d="M1413.58,894.75v93.85c0,9.3-7.54,16.84-16.84,16.84h-44.92v21.83h66.75c9.3,0,16.84-7.54,16.84-16.84h0v-115.68h-21.83Z"/>
  <path class="cls-21" d="M1387.28,681.57c0-7.33,4.75-12.93,10.18-12.16,48.38,6.83,86.08,61.84,86.08,128.69s-37.7,121.85-86.08,128.69c-5.42.77-10.18-4.83-10.18-12.16v-233.05Z"/>
  <rect class="cls-14" x="1364.64" y="645.31" width="50.09" height="305.57" rx="12.57" ry="12.57" transform="translate(2779.38 1596.19) rotate(180)"/>
  <path class="cls-8" d="M2469.32,1283.4l-.07-.03,110.89-255.24,113.68,49.39-50.4,116h198.34v130h-329.39c-30.37-1.46-44.7-14.85-43.05-40.12Z"/>
  <path class="cls-8" d="M3318.84,1604.53c-43.36,47.94-92.11,87.6-144.9,117.12h-.09v-278.29h144.99v161.17Z"/>
  <path class="cls-1" d="M3182.44,1188.98l-42.08-21.73c-8.8-4.54-18.08-8.13-27.65-10.69-38.09-10.22-52.77-11.7-95.75-17.73h-120.91c-36.68,0-60.9,20.01-94.92,30.56-38.88,12.05-38.88,13.21-86.69,22.45h-53.96v152.53h78.29l-2.57,17.88c-11.21,78.01-16.84,156.72-16.84,235.54v119c70.65,41.57,148.72,64.64,230.79,64.64,87.04,0,169.56-25.94,243.53-72.38v-240.53h131.55v-106.53c0-97.3-62.51-126.49-142.77-173Z"/>
  <path class="cls-23" d="M2843.75,1558.89c0-56.52-45.82-102.34-102.34-102.34-5.35,0-10.6.41-15.72,1.2-4.31,48.6-6.47,97.38-6.47,146.2v54.82c7.15,1.58,14.57,2.44,22.2,2.44,56.52,0,102.34-45.82,102.34-102.34Z"/>
  <path class="cls-23" d="M3192.88,1493.71c-2.8-.15-5.62-.23-8.45-.23-86.85,0-157.25,70.4-157.25,157.25,0,43.97,18.07,83.71,47.16,112.25,41.36-12.3,81.05-30.56,118.54-54.09v-215.17Z"/>
  <path class="cls-23" d="M3181.84,1187.8l-1.34-.69c-40.91,13.4-70.48,51.86-70.48,97.25,0,56.52,45.82,102.33,102.34,102.33,51.45,0,94.02-37.97,101.24-87.42-21.34-51.45-71.56-76.59-131.76-111.48Z"/>
  <path class="cls-12" d="M937.35,1089.37c-80.26,46.51-142.77,75.7-142.77,173v106.53h131.55v240.53c73.96,46.44,156.49,72.38,243.53,72.38,82.08,0,160.14-23.07,230.79-64.64v-237.37h126.07v-106.53c0-96.13-53.07-113.48-167.4-181.04-51.2-27.02-83.9-53.01-135.37-53.01h-120.91c-42.98,6.03-57.66,7.51-95.74,17.73-9.57,2.57-18.85,6.15-27.65,10.7l-42.08,21.73Z"/>
  <ellipse class="cls-15" cx="1167.65" cy="796.1" rx="232.3" ry="283.75"/>
  <path class="cls-6" d="M998.44,725.34c12.78,1.14,82.6,7.33,138.24-41.57,47.17-41.46,60.19-101.45,64.44-99.78,3.69,1.45-20.69,40.95-7.28,68.6,24.34,50.15,168,50.94,185.01,9.35,14.82-36.24-67.87-101.4-78.99-110.17-18.62-14.67-46.75-36.34-90.42-45.73-9.98-2.15-50.64-10.08-99.78,4.16-36.49,10.57-60.5,28.4-73.79,38.46-33.07,25.02-51.1,51.57-56.13,59.24-11.53,17.61-47.69,72.88-28.06,100.82,9.16,13.04,26.79,14.86,46.77,16.63Z"/>
  <ellipse class="cls-16" cx="1278.03" cy="774.71" rx="17.15" ry="38.98"/>
  <ellipse class="cls-16" cx="1152.5" cy="798.09" rx="17.15" ry="38.98"/>
  <polygon class="cls-20" points="1221.27 774.71 1221.27 900.99 1268.85 900.99 1221.27 774.71"/>
  <rect class="cls-14" x="943.62" y="649.46" width="66.29" height="305.57" rx="16.64" ry="16.64"/>
  <path class="cls-21" d="M976.76,681.57c0-7.33-6.39-12.93-13.68-12.16-65.03,6.83-115.72,61.84-115.72,128.69s50.69,121.85,115.72,128.69c7.29.77,13.68-4.83,13.68-12.16v-233.05Z"/>
  <path class="cls-11" d="M868.15,798.09c0-47.5,21.63-89.94,55.56-118.04-45.01,20.26-76.35,65.48-76.35,118.04s31.34,97.78,76.35,118.04c-33.93-28.11-55.56-70.54-55.56-118.04Z"/>
  <rect class="cls-14" x="1285.3" y="993.49" width="92.5" height="45.73" rx="11.48" ry="11.48"/>
  <path class="cls-15" d="M1193.29,1172.45l73.57-127.42h-165.67l73.57,127.42c4.12,7.14,14.42,7.14,18.54,0Z"/>
  <polygon class="cls-10" points="1094.84 1145.76 1181.37 1258.01 1275.69 1145.76 1094.84 1145.76"/>
  <path class="cls-10" d="M1174.71,1165.96c-10.13-3.14-24.42-10.55-40.54-7.73-49.32,8.62-68.77,61.56-82.63,57.68-10.93-3.06-15.46-40.64,3.12-169.94,68.52,4.21,104.79,51.77,120.05,119.98Z"/>
  <path class="cls-10" d="M1196.96,1166.18c12.57-7.6,23.76-13.87,29.62-14.18,22.3-1.17,42.85,10.27,54.57,24.95,9.43,11.81,8.87,20.39,12.47,20.27,8.79-.3,21.33-51.72,9.35-101.34-5.09-21.07-16.04-36.59-22.78-47.51-39.25,12.03-63.7,57.87-83.23,117.81Z"/>
  <ellipse class="cls-18" cx="2841.76" cy="676.31" rx="130.79" ry="121.61" transform="translate(-20.02 1262.16) rotate(-24.96)"/>
  <ellipse class="cls-18" cx="2941.16" cy="630.06" rx="130.79" ry="121.61" transform="translate(8.78 1299.78) rotate(-24.96)"/>
  <ellipse class="cls-18" cx="3072.51" cy="683.07" rx="121.61" ry="130.79" transform="translate(-68.91 878.92) rotate(-16.1)"/>
  <ellipse class="cls-18" cx="3150.46" cy="793.76" rx="121.61" ry="130.79" transform="translate(-96.56 904.88) rotate(-16.1)"/>
  <ellipse class="cls-18" cx="3176.67" cy="972.55" rx="117.02" ry="125.86" transform="translate(-145.11 919.16) rotate(-16.1)"/>
  <ellipse class="cls-18" cx="2824.61" cy="1028.13" rx="117.02" ry="125.86" transform="translate(-174.34 823.71) rotate(-16.1)"/>
  <ellipse class="cls-18" cx="3150.46" cy="1126.88" rx="117.02" ry="125.86" transform="translate(-188.94 917.95) rotate(-16.1)"/>
  <ellipse class="cls-18" cx="3101.19" cy="1238.47" rx="83.66" ry="90.5" transform="translate(-234.58 1084.11) rotate(-19.12)"/>
  <ellipse class="cls-18" cx="2776.07" cy="803.46" rx="83.66" ry="90.5" transform="translate(-110.03 953.62) rotate(-19.12)"/>
  <ellipse class="cls-18" cx="2762.25" cy="913.29" rx="83.66" ry="90.5" transform="translate(-146.77 955.15) rotate(-19.12)"/>
  <ellipse class="cls-18" cx="3072.51" cy="1323.52" rx="66.41" ry="71.84" transform="translate(-264.02 1079.41) rotate(-19.12)"/>
  <ellipse class="cls-18" cx="3085.48" cy="1409.71" rx="55.82" ry="60.39" transform="translate(-291.54 1088.41) rotate(-19.12)"/>
  <ellipse class="cls-8" cx="2950.14" cy="897.7" rx="232.3" ry="283.75"/>
  <ellipse class="cls-16" cx="2841.76" cy="874.31" rx="17.15" ry="38.98"/>
  <ellipse class="cls-16" cx="2967.29" cy="897.7" rx="17.15" ry="38.98"/>
  <polygon class="cls-20" points="2898.51 874.31 2898.51 1000.6 2850.94 1000.6 2898.51 874.31"/>
  <path class="cls-8" d="M2924.5,1274.05l-73.57-127.42h165.67s-73.57,127.42-73.57,127.42c-4.12,7.14-14.42,7.14-18.54,0Z"/>
  <circle class="cls-21" cx="1150.01" cy="1295.81" r="10.53"/>
  <circle class="cls-21" cx="1150.01" cy="1342.58" r="10.53"/>
  <rect class="cls-21" x="1273.61" y="1294.2" width="97.79" height="10.53" rx="2.64" ry="2.64"/>
  <path class="cls-1" d="M2775.41,1149l-21.65-80.79c-2.7-10.09-13.08-16.08-23.17-13.38l-42.17,11.3c-18.26-37.78-29.23-78.05-32.7-119.83l42.72-11.45c10.09-2.7,16.08-13.08,13.38-23.17l-21.65-80.79c-2.7-10.09-13.08-16.08-23.17-13.38l-49.04,13.14c-27.63,7.4-44.03,35.81-36.63,63.44l18.04,67.32h0l32.15,119.98h0l18.04,67.32c7.4,27.63,35.81,44.03,63.44,36.63l49.04-13.14c10.09-2.7,16.08-13.08,13.38-23.17v-.02Z"/>
  <rect class="cls-8" x="2568.05" y="943.34" width="108.38" height="45.25" rx="5.29" ry="5.29" transform="translate(-121.66 436.58) rotate(-9.3)"/>
  <rect class="cls-8" x="2575.11" y="986.42" width="108.38" height="45.25" rx="5.29" ry="5.29" transform="translate(-128.53 438.29) rotate(-9.3)"/>
  <rect class="cls-8" x="2582.35" y="1030.6" width="108.38" height="45.25" rx="5.29" ry="5.29" transform="translate(-135.58 440.04) rotate(-9.3)"/>
  <ellipse class="cls-18" cx="2951.59" cy="643.09" rx="100.65" ry="92.99"/>
  <ellipse class="cls-18" cx="3090.8" cy="677.79" rx="82.36" ry="76.09"/>
  <ellipse class="cls-18" cx="3165.14" cy="807.91" rx="74.34" ry="85.03"/>
  <ellipse class="cls-18" cx="3199.5" cy="965.96" rx="74.34" ry="85.03"/>
  <circle class="cls-18" cx="2841.76" cy="632.67" r="46.77"/>
  <circle class="cls-23" cx="2895.37" cy="1684.85" r="48.85"/>
  <circle class="cls-23" cx="2986.33" cy="1524.21" r="45.48"/>
  <circle class="cls-23" cx="2856.13" cy="1411.83" r="62.61"/>
  <circle class="cls-23" cx="2962.11" cy="1344.4" r="24.22"/>
  <circle class="cls-23" cx="2816.82" cy="1279.11" r="16.43"/>
  <path class="cls-23" d="M2749.1,1277.59c34.64,0,62.71-28.08,62.71-62.71,0-16.82-6.63-32.07-17.4-43.33-32.83,10.28-35.38,11.8-80.51,20.52h-23.21c-2.76,7.07-4.3,14.76-4.3,22.81,0,34.64,28.08,62.71,62.71,62.71Z"/>
  <circle class="cls-17" cx="2054.82" cy="593.48" r="84.05"/>
  <circle class="cls-4" cx="2054.1" cy="574.93" r="76.8" transform="translate(195.09 1620.86) rotate(-45)"/>
  <path class="cls-17" d="M2157.39,416.85c-6.01-4.02-17.39-11.57-33.47-18.15-5.7-2.32-23.9-9.38-48.93-11.98-10.73-1.11-30.43-2.2-54.46,2.49-7.45,1.45-23.2,4.98-41.71,13.33-10.4,4.69-18.34,9.82-34.18,20.04-3.87,2.49-10.39,6.78-16.31,14.46-2.48,3.2-4.93,6.46-6.38,11.47-2.3,8.02-.4,14.98.65,18.64.67,2.34,2.06,7.01,5.82,12.01,4.58,6.07,10.05,9.07,12.75,10.37,2.86,1.34,8.95,4.13,16.99,3.19,5.77-.66,9.84-3.01,12.94-4.8,4.35-2.51,5.67-4.25,11.17-8.82,2.15-1.77,7.94-6.57,15.17-11.08,9.54-5.97,17.34-8.83,19.03-9.44,1.53-.54,6.74-2.4,13.87-3.79,11.71-2.32,20.99-1.99,27.5-1.72,4.38.19,11.38.51,20.45,2.39,11.6,2.4,20.03,6,23.17,7.4,9,4.01,15.22,8.27,18.63,10.63,4.92,3.39,9.02,6.21,13.7,10.9,2.02,2,4.09,4.3,7.98,7.7,3.18,2.8,4.91,4.26,7.58,5.74,1.07.58,4.8,2.53,10.14,3.39,2.38.39,7.8,1.18,14.24-.83,5.52-1.74,9.02-4.67,11.55-6.83,4.83-4.07,7.47-8.19,8.25-9.42,1.88-3,5.71-9.18,5.66-17.39-.02-7.37-3.17-12.6-6.09-17.4-1.23-2.02-4.62-7.39-16.82-17.88-4.16-3.57-9.93-8.52-18.94-14.54l.04-.08Z"/>
  <path class="cls-4" d="M2149.56,399.75c-5.52-3.71-16-10.64-30.78-16.69-5.24-2.14-21.97-8.65-45.01-11.01-9.85-1.02-27.99-2.02-50.1,2.29-6.87,1.33-21.33,4.56-38.37,12.25-9.58,4.32-16.87,9.02-31.44,18.4-3.57,2.29-9.54,6.23-15.02,13.29-2.27,2.94-4.55,5.95-5.86,10.55-2.12,7.38-.36,13.79.58,17.14.62,2.15,1.89,6.47,5.37,11.04,4.21,5.58,9.25,8.35,11.74,9.54,2.63,1.25,8.24,3.79,15.64,2.95,5.3-.6,9.04-2.79,11.9-4.44,4-2.31,5.2-3.9,10.27-8.09,1.98-1.63,7.32-6.02,13.97-10.2,8.79-5.51,15.98-8.13,17.5-8.67,1.4-.5,6.19-2.2,12.77-3.48,10.76-2.13,19.32-1.83,25.28-1.58,4.02.16,10.49.47,18.83,2.2,10.67,2.21,18.43,5.51,21.33,6.81,8.27,3.7,13.99,7.59,17.13,9.76,4.52,3.1,8.29,5.72,12.62,10,1.85,1.85,3.76,3.94,7.34,7.08,2.94,2.56,4.5,3.9,6.97,5.26.97.53,4.41,2.34,9.32,3.1,2.18.35,7.18,1.08,13.1-.76,5.07-1.59,8.29-4.3,10.66-6.28,4.43-3.72,6.9-7.54,7.59-8.66,1.72-2.77,5.24-8.45,5.21-15.99-.03-6.8-2.91-11.58-5.6-16.02-1.12-1.88-4.27-6.79-15.49-16.44-3.83-3.29-9.13-7.82-17.43-13.39v.04Z"/>
  <path class="cls-17" d="M2280.28,337.86c-11.59-10.12-9.39-9.37-18.01-16.67-9.64-8.16-17.53-13.46-24.19-17.9-12.38-8.26-21.95-13.42-34.68-20.27-12.98-7.01-19.5-10.53-27.28-13.71-10.19-4.17-18.17-6.35-34.15-10.65-12.96-3.5-20.7-5.59-31.87-7.65-17.03-3.15-31.03-4.22-39.7-4.65-5.97-.29-18.76-.75-35.11.37-14.94,1-26,2.84-34.33,4.24-12.86,2.17-25.77,4.33-42.26,9.67-9.97,3.21-17.58,6.4-24.94,9.49-14.66,6.11-25.17,11.53-27.5,12.72-3.32,1.72-13.88,7.26-27.14,15.62-8.79,5.56-14.68,9.27-22.32,15.37-8.79,7-7.57,7.32-17.01,14.63-4.06,3.17-6.4,4.73-9.01,8.25-4.68,6.27-5.69,12.59-5.93,14.17-.86,6.19.43,10.96,1.31,14,.77,2.71,2.1,7.18,5.73,11.78,3.23,4.08,6.68,6.28,8.79,7.62,3.02,1.86,8.2,5.01,15.61,5.5,8.16.55,14.21-2.43,16.5-3.59,3.53-1.79,4.5-3.07,11.97-9.56,2.36-2.05,9.69-8.44,15.97-13.21,6.3-4.79,11.2-7.72,17.81-11.71,10.47-6.27,18.83-10.31,24.14-12.87,7.8-3.75,15.58-7.49,26.46-11.31,9.3-3.26,16.5-5.07,22.89-6.68,6.49-1.62,14.3-3.57,24.75-5.15,5.62-.87,16.11-2.23,29.44-2.53,14.24-.32,25.01.75,31.68,1.41,3.68.37,12.52,1.33,23.88,3.46,6.68,1.23,16.77,3.16,29.48,7.07,9.63,2.97,16.13,5.65,28.84,10.88,10.05,4.14,15.21,6.3,22.16,10.12,6.83,3.77,12,7.25,17.3,10.88,4.81,3.26,10.13,6.9,16.77,12.29,7.01,5.71,12.23,10.73,15.26,13.67,5.23,5.08,7.86,7.62,10.59,10.56,3.14,3.43,4.02,4.64,6.45,6.54,1.18.95,5.01,3.81,10.8,5.78,2.76.93,6.68,2.2,11.95,1.97,2.08-.11,7.78-.59,13.64-4.2,3.38-2.08,5.45-4.45,9.54-9.2,3.94-4.53,5.88-6.78,7.17-9.79,3.1-7.23,1.76-14.13,1.21-16.77-1.22-5.92-3.86-9.87-6.15-13.26-4.48-6.59-8.47-9.51-16.58-16.59l.05-.12Z"/>
  <path class="cls-4" d="M2266.58,320.28c-10.85-9.5-8.78-8.78-16.87-15.62-9.03-7.62-16.42-12.61-22.68-16.76-11.59-7.74-20.57-12.58-32.49-19.01-12.17-6.58-18.27-9.87-25.56-12.86-9.54-3.91-17.03-5.94-31.99-9.99-12.14-3.28-19.37-5.24-29.86-7.17-15.95-2.97-29.09-3.96-37.19-4.34-5.61-.27-17.59-.68-32.9.35-13.98.94-24.36,2.68-32.15,3.98-12.04,2.03-24.13,4.07-39.59,9.05-9.32,3.01-16.47,6-23.35,8.87-13.73,5.74-23.57,10.79-25.74,11.92-3.11,1.61-13,6.78-25.42,14.64-8.25,5.2-13.74,8.7-20.91,14.39-8.24,6.57-7.12,6.85-15.91,13.7-3.81,2.97-6,4.45-8.44,7.72-4.39,5.88-5.33,11.78-5.53,13.27-.82,5.78.4,10.26,1.23,13.12.72,2.54,1.96,6.71,5.37,11.04,3.02,3.83,6.26,5.9,8.23,7.12,2.82,1.74,7.7,4.7,14.63,5.15,7.63.51,13.32-2.27,15.45-3.36,3.31-1.68,4.2-2.87,11.22-8.96,2.23-1.93,9.09-7.91,14.98-12.4,5.9-4.51,10.49-7.24,16.71-10.96,9.82-5.89,17.64-9.65,22.6-12.06,7.3-3.51,14.58-7,24.79-10.6,8.7-3.08,15.48-4.76,21.46-6.25,6.08-1.54,13.39-3.34,23.19-4.81,5.27-.8,15.08-2.09,27.58-2.38,13.37-.3,23.45.69,29.65,1.32,3.45.35,11.74,1.26,22.36,3.25,6.26,1.17,15.7,2.98,27.62,6.64,9.03,2.78,15.11,5.31,27.02,10.22,9.41,3.88,14.24,5.91,20.74,9.47,6.4,3.54,11.22,6.81,16.21,10.18,4.5,3.04,9.49,6.46,15.71,11.5,6.58,5.35,11.47,10.05,14.29,12.8,4.91,4.75,7.37,7.12,9.92,9.9,2.95,3.23,3.78,4.33,6.04,6.11,1.09.87,4.67,3.56,10.12,5.39,2.59.87,6.26,2.07,11.17,1.86,1.93-.09,7.29-.55,12.79-3.95,3.18-1.94,5.09-4.17,8.93-8.62,3.67-4.26,5.5-6.38,6.72-9.16,2.91-6.76,1.66-13.26,1.15-15.7-1.16-5.54-3.62-9.25-5.76-12.4-4.2-6.18-7.94-8.92-15.53-15.55v-.08Z"/>
  <path class="cls-17" d="M1865.94,154.49c-8.69,3.37-11.45,4.18-17.3,7-5.27,2.53-8.05,4.29-15.95,8.99-17.68,10.54-15.8,8.98-26.93,15.81-10.54,6.45-18.52,11.74-22,14.06-8.78,5.86-15.75,10.52-24.58,17.36-11.18,8.68-9.51,9.01-17.64,14.74-5.93,4.18-10,6.35-14.62,11.97-3.91,4.78-5.57,8.87-6.31,10.9-.9,2.5-2.23,6.23-1.95,11.08.22,3.76,1.57,6.77,4.3,12.82,2.51,5.59,3.75,8.39,5.85,10.47,2.35,2.32,5.2,3.64,10.9,6.31,3.88,1.82,5.83,2.71,8.12,3.26,1.57.39,7.66,1.7,14.59-.33,3.58-1.06,5.86-2.56,13.49-8.61,7.51-5.98,13.08-10.72,15.13-12.44,9.28-7.87,13.9-11.78,18.64-15.19,6-4.32,6.2-3.84,19.99-12.69,11.95-7.67,10.93-7.47,18.02-11.82,3.78-2.33,12.97-7.87,25.38-13.93,8.13-3.98,14.36-6.57,19.82-8.84,7.01-2.92,16.62-6.85,29.14-10.84,4.67-1.48,12.77-3.63,28.99-7.95,11.17-2.95,16.76-4.45,19.16-4.97,15.07-3.33,27.07-4.48,35.2-5.23,7.78-.71,13.32-.95,23.36-1.4,4.05-.17,14.31-.58,28.2-.7,15.86-.13,23.78-.18,33.95.53,3.08.22,13.27,1,26.57,3.13,17.01,2.74,29.64,6.19,37.96,8.49,3.13.87,12.89,3.6,25.36,7.93,12.51,4.33,21.82,8.17,27.22,10.42,5.72,2.39,11.68,4.86,19.53,8.64,8.78,4.21,15.3,7.8,20.41,10.63,5.09,2.8,11.15,6.16,18.93,11.05,8.93,5.59,15.44,10.25,20.73,14.03,6.75,4.83,11.44,8.46,17.87,13.42,7.69,5.94,11.63,9.02,15.95,12.85,2.81,2.52,6.08,5.75,12.57,12.21,8.59,8.54,12.87,12.79,14.41,14.73,3.29,4.14,4.58,6.5,8.34,9.12,3.96,2.75,7.75,3.75,10,4.34,1.32.34,7.21,1.76,15.03.67,4.37-.62,10.09-1.42,15.78-5.61,7.78-5.72,10.18-13.86,10.94-16.5,1.4-4.97,1.24-9.14,1.07-13.06-.18-4.66-.33-7.75-1.94-11.25-1.85-4.06-4.09-5.15-8.77-10.09-4.48-4.77-6.35-7.91-8.72-11.06-8.05-10.63-22.21-19.6-29.43-26.56-12.99-12.53-25.15-22.94-36.48-31.25-11.74-8.58-24.9-15.23-51.18-28.5-24.77-12.51-37.16-18.74-55.2-25.29-15.38-5.55-27.82-8.87-41.7-12.53-19.94-5.27-35.93-8.52-45.19-10.27-12.26-2.31-21.46-4.04-34.24-5.4-15.23-1.61-26.45-1.72-41.2-1.83-17.21-.12-31.57-.23-51.06,1.63-6.87.65-25.28,2.57-48.4,7.55-7.69,1.67-18.06,4.43-38.8,9.93-16.12,4.3-20.12,5.54-24.59,7.15-9.96,3.6-10.44,4.65-26.71,10.95l-.02-.02Z"/>
  <path class="cls-4" d="M1883.97,133.01c-8.06,3.13-10.63,3.87-16.06,6.49-4.87,2.33-7.46,3.99-14.78,8.34-16.4,9.78-14.68,8.32-24.97,14.64-9.77,5.99-17.17,10.9-20.4,13.07-8.15,5.44-14.63,9.77-22.77,16.1-10.38,8.05-8.8,8.35-16.38,13.68-5.49,3.86-9.3,5.9-13.56,11.1-3.62,4.43-5.19,8.22-5.86,10.1-.82,2.32-2.09,5.79-1.82,10.28.2,3.47,1.45,6.28,3.97,11.88,2.32,5.18,3.49,7.77,5.41,9.7,2.16,2.16,4.81,3.39,10.1,5.86,3.59,1.68,5.4,2.52,7.52,3.04,1.44.36,7.11,1.58,13.53-.29,3.31-.98,5.44-2.37,12.52-7.99,6.96-5.55,12.14-9.95,14.02-11.53,8.62-7.29,12.89-10.93,17.29-14.11,5.57-4.02,5.75-3.58,18.55-11.79,11.08-7.12,10.14-6.93,16.71-10.96,3.5-2.16,12.04-7.29,23.53-12.91,7.54-3.69,13.33-6.09,18.37-8.2,6.51-2.71,15.41-6.38,27.02-10.07,4.33-1.38,11.85-3.39,26.9-7.35,10.36-2.73,15.54-4.12,17.77-4.62,13.98-3.1,25.09-4.16,32.65-4.86,7.21-.67,12.34-.89,21.67-1.3,3.76-.16,13.3-.54,26.16-.63,14.7-.11,22.07-.17,31.52.51,2.85.19,12.32.92,24.64,2.89,15.77,2.53,27.51,5.74,35.24,7.87,2.9.81,11.94,3.35,23.54,7.35,11.6,4,20.26,7.6,25.25,9.67,5.31,2.22,10.84,4.51,18.1,8.01,8.16,3.91,14.18,7.23,18.93,9.86,4.71,2.58,10.34,5.72,17.57,10.24,8.3,5.2,14.32,9.49,19.24,13,6.26,4.48,10.61,7.85,16.56,12.44,7.13,5.52,10.8,8.35,14.77,11.91,2.62,2.34,5.62,5.33,11.67,11.32,7.96,7.93,11.95,11.88,13.35,13.66,3.04,3.81,4.25,6.03,7.72,8.44,3.66,2.54,7.18,3.49,9.26,4.01,1.25.31,6.68,1.64,13.95.62,4.06-.58,9.37-1.34,14.64-5.19,7.23-5.31,9.45-12.86,10.14-15.32,1.3-4.62,1.14-8.5.99-12.12-.18-4.31-.28-7.2-1.79-10.44-1.74-3.78-3.82-4.78-8.13-9.38-4.15-4.41-5.89-7.33-8.09-10.27-7.47-9.87-20.59-18.18-27.27-24.63-12.05-11.62-23.33-21.28-33.85-28.98-10.88-7.98-23.07-14.13-47.48-26.43-22.98-11.59-34.47-17.38-51.2-23.44-14.26-5.15-25.8-8.23-38.68-11.63-18.49-4.89-33.33-7.91-41.92-9.51-11.37-2.16-19.91-3.75-31.77-5.01-14.13-1.5-24.52-1.62-38.2-1.7-15.96-.13-29.29-.19-47.36,1.5-6.35.59-23.43,2.39-44.9,7-7.14,1.53-16.75,4.1-35.98,9.21-14.95,3.99-18.67,5.15-22.82,6.64-9.24,3.35-9.69,4.32-24.77,10.17l.02.06Z"/>
  <circle class="cls-17" cx="2046.17" cy="1420.22" r="84.05"/>
  <circle class="cls-4" cx="2046.89" cy="1438.78" r="76.8" transform="translate(-417.85 1868.78) rotate(-45)"/>
  <path class="cls-17" d="M1943.6,1596.85c6.01,4.02,17.39,11.57,33.47,18.15,5.7,2.32,23.9,9.38,48.93,11.98,10.73,1.11,30.43,2.2,54.46-2.49,7.45-1.45,23.2-4.98,41.71-13.33,10.4-4.69,18.34-9.82,34.18-20.04,3.87-2.49,10.39-6.78,16.31-14.46,2.48-3.2,4.93-6.46,6.38-11.47,2.3-8.02.4-14.98-.65-18.64-.67-2.34-2.06-7.01-5.82-12.01-4.58-6.07-10.05-9.07-12.75-10.37-2.86-1.34-8.95-4.13-16.99-3.19-5.77.66-9.84,3.01-12.94,4.8-4.35,2.51-5.67,4.25-11.17,8.82-2.15,1.77-7.94,6.57-15.17,11.08-9.54,5.97-17.34,8.83-19.03,9.44-1.53.54-6.74,2.4-13.87,3.79-11.71,2.32-20.99,1.99-27.5,1.72-4.38-.19-11.38-.51-20.45-2.39-11.6-2.4-20.03-6-23.17-7.4-9-4.01-15.22-8.27-18.63-10.63-4.92-3.39-9.02-6.21-13.7-10.9-2.02-2-4.09-4.3-7.98-7.7-3.18-2.8-4.91-4.26-7.58-5.74-1.07-.58-4.8-2.53-10.14-3.39-2.38-.39-7.8-1.18-14.24.83-5.52,1.74-9.02,4.67-11.55,6.83-4.83,4.07-7.47,8.19-8.25,9.42-1.88,3-5.71,9.18-5.66,17.39.02,7.37,3.17,12.6,6.09,17.4,1.23,2.02,4.62,7.39,16.82,17.88,4.16,3.57,9.93,8.52,18.94,14.54l-.04.08Z"/>
  <path class="cls-4" d="M1951.43,1613.95c5.52,3.71,16,10.64,30.78,16.69,5.24,2.14,21.97,8.65,45.01,11.01,9.85,1.02,27.99,2.02,50.1-2.29,6.87-1.33,21.33-4.56,38.37-12.25,9.58-4.32,16.87-9.02,31.44-18.4,3.57-2.29,9.54-6.23,15.02-13.29,2.27-2.94,4.55-5.95,5.86-10.55,2.12-7.38.36-13.79-.58-17.14-.62-2.15-1.89-6.47-5.37-11.04-4.21-5.58-9.25-8.35-11.74-9.54-2.63-1.25-8.24-3.79-15.64-2.95-5.3.6-9.04,2.79-11.9,4.44-4,2.31-5.2,3.9-10.27,8.09-1.98,1.63-7.32,6.02-13.97,10.2-8.79,5.51-15.98,8.13-17.5,8.67-1.4.5-6.19,2.2-12.77,3.48-10.76,2.13-19.32,1.83-25.28,1.58-4.02-.16-10.49-.47-18.83-2.2-10.67-2.21-18.43-5.51-21.33-6.81-8.27-3.7-13.99-7.59-17.13-9.76-4.52-3.1-8.29-5.72-12.62-10-1.85-1.85-3.76-3.94-7.34-7.08-2.94-2.56-4.5-3.9-6.97-5.26-.97-.53-4.41-2.34-9.32-3.1-2.18-.35-7.18-1.08-13.1.76-5.07,1.59-8.29,4.3-10.66,6.28-4.43,3.72-6.9,7.54-7.59,8.66-1.72,2.77-5.24,8.45-5.21,15.99.03,6.8,2.91,11.58,5.6,16.02,1.12,1.88,4.27,6.79,15.49,16.44,3.83,3.29,9.13,7.82,17.43,13.39v-.04Z"/>
  <path class="cls-17" d="M1820.7,1675.84c11.59,10.12,9.39,9.37,18.01,16.67,9.64,8.16,17.53,13.46,24.19,17.9,12.38,8.26,21.95,13.42,34.68,20.27,12.98,7.01,19.5,10.53,27.28,13.71,10.19,4.17,18.17,6.35,34.15,10.65,12.96,3.5,20.7,5.59,31.87,7.65,17.03,3.15,31.03,4.22,39.7,4.65,5.97.29,18.76.75,35.11-.37,14.94-1,26-2.84,34.33-4.24,12.86-2.17,25.77-4.33,42.26-9.67,9.97-3.21,17.58-6.4,24.94-9.49,14.66-6.11,25.17-11.53,27.5-12.72,3.32-1.72,13.88-7.26,27.14-15.62,8.79-5.56,14.68-9.27,22.32-15.37,8.79-7,7.57-7.32,17.01-14.63,4.06-3.17,6.4-4.73,9.01-8.25,4.68-6.27,5.69-12.59,5.93-14.17.86-6.19-.43-10.96-1.31-14-.77-2.71-2.1-7.18-5.73-11.78-3.23-4.08-6.68-6.28-8.79-7.62-3.02-1.86-8.2-5.01-15.61-5.5-8.16-.55-14.21,2.43-16.5,3.59-3.53,1.79-4.5,3.07-11.97,9.56-2.36,2.05-9.69,8.44-15.97,13.21-6.3,4.79-11.2,7.72-17.81,11.71-10.47,6.27-18.83,10.31-24.14,12.87-7.8,3.75-15.58,7.49-26.46,11.31-9.3,3.26-16.5,5.07-22.89,6.68-6.49,1.62-14.3,3.57-24.75,5.15-5.62.87-16.11,2.23-29.44,2.53-14.24.32-25.01-.75-31.68-1.41-3.68-.37-12.52-1.33-23.88-3.46-6.68-1.23-16.77-3.16-29.48-7.07-9.63-2.97-16.13-5.65-28.84-10.88-10.05-4.14-15.21-6.3-22.16-10.12-6.83-3.77-12-7.25-17.3-10.88-4.81-3.26-10.13-6.9-16.77-12.29-7.01-5.71-12.23-10.73-15.26-13.67-5.23-5.08-7.86-7.62-10.59-10.56-3.14-3.43-4.02-4.64-6.45-6.54-1.18-.95-5.01-3.81-10.8-5.78-2.76-.93-6.68-2.2-11.95-1.97-2.08.11-7.78.59-13.64,4.2-3.38,2.08-5.45,4.45-9.54,9.2-3.94,4.53-5.88,6.78-7.17,9.79-3.1,7.23-1.76,14.13-1.21,16.77,1.22,5.92,3.86,9.87,6.15,13.26,4.48,6.59,8.47,9.51,16.58,16.59l-.05.12Z"/>
  <path class="cls-4" d="M1834.41,1693.43c10.85,9.5,8.78,8.78,16.87,15.62,9.03,7.62,16.42,12.61,22.68,16.76,11.59,7.74,20.57,12.58,32.49,19.01,12.17,6.58,18.27,9.87,25.56,12.86,9.54,3.91,17.03,5.94,31.99,9.99,12.14,3.28,19.37,5.24,29.86,7.17,15.95,2.97,29.09,3.96,37.19,4.34,5.61.27,17.59.68,32.9-.35,13.98-.94,24.36-2.68,32.15-3.98,12.04-2.03,24.13-4.07,39.59-9.05,9.32-3.01,16.47-6,23.35-8.87,13.73-5.74,23.57-10.79,25.74-11.92,3.11-1.61,13-6.78,25.42-14.64,8.25-5.2,13.74-8.7,20.91-14.39,8.24-6.57,7.12-6.85,15.91-13.7,3.81-2.97,6-4.45,8.44-7.72,4.39-5.88,5.33-11.78,5.53-13.27.82-5.78-.4-10.26-1.23-13.12-.72-2.54-1.96-6.71-5.37-11.04-3.02-3.83-6.26-5.9-8.23-7.12-2.82-1.74-7.7-4.7-14.63-5.15-7.63-.51-13.32,2.27-15.45,3.36-3.31,1.68-4.2,2.87-11.22,8.96-2.23,1.93-9.09,7.91-14.98,12.4-5.9,4.51-10.49,7.24-16.71,10.96-9.82,5.89-17.64,9.65-22.6,12.06-7.3,3.51-14.58,7-24.79,10.6-8.7,3.08-15.48,4.76-21.46,6.25-6.08,1.54-13.39,3.34-23.19,4.81-5.27.8-15.08,2.09-27.58,2.38-13.37.3-23.45-.69-29.65-1.32-3.45-.35-11.74-1.26-22.36-3.25-6.26-1.17-15.7-2.98-27.62-6.64-9.03-2.78-15.11-5.31-27.02-10.22-9.41-3.88-14.24-5.91-20.74-9.47-6.4-3.54-11.22-6.81-16.21-10.18-4.5-3.04-9.49-6.46-15.71-11.5-6.58-5.35-11.47-10.05-14.29-12.8-4.91-4.75-7.37-7.12-9.92-9.9-2.95-3.23-3.78-4.33-6.04-6.11-1.09-.87-4.67-3.56-10.12-5.39-2.59-.87-6.26-2.07-11.17-1.86-1.93.09-7.29.55-12.79,3.95-3.18,1.94-5.09,4.17-8.93,8.62-3.67,4.26-5.5,6.38-6.72,9.16-2.91,6.76-1.66,13.26-1.15,15.7,1.16,5.54,3.62,9.25,5.76,12.4,4.2,6.18,7.94,8.92,15.53,15.55v.08Z"/>
  <path class="cls-17" d="M2235.05,1859.22c8.69-3.37,11.45-4.18,17.3-7,5.27-2.53,8.05-4.29,15.95-8.99,17.68-10.54,15.8-8.98,26.93-15.81,10.54-6.45,18.52-11.74,22-14.06,8.78-5.86,15.75-10.52,24.58-17.36,11.18-8.68,9.51-9.01,17.64-14.74,5.93-4.18,10-6.35,14.62-11.97,3.91-4.78,5.57-8.87,6.31-10.9.9-2.5,2.23-6.23,1.95-11.08-.22-3.76-1.57-6.77-4.3-12.82-2.51-5.59-3.75-8.39-5.85-10.47-2.35-2.32-5.2-3.64-10.9-6.31-3.88-1.82-5.83-2.71-8.12-3.26-1.57-.39-7.66-1.7-14.59.33-3.58,1.06-5.86,2.56-13.49,8.61-7.51,5.98-13.08,10.72-15.13,12.44-9.28,7.87-13.9,11.78-18.64,15.19-6,4.32-6.2,3.84-19.99,12.69-11.95,7.67-10.93,7.47-18.02,11.82-3.78,2.33-12.97,7.87-25.38,13.93-8.13,3.98-14.36,6.57-19.82,8.84-7.01,2.92-16.62,6.85-29.14,10.84-4.67,1.48-12.77,3.63-28.99,7.95-11.17,2.95-16.76,4.45-19.16,4.97-15.07,3.33-27.07,4.48-35.2,5.23-7.78.71-13.32.95-23.36,1.4-4.05.17-14.31.58-28.2.7-15.86.13-23.78.18-33.95-.53-3.08-.22-13.27-1-26.57-3.13-17.01-2.74-29.64-6.19-37.96-8.49-3.13-.87-12.89-3.6-25.36-7.93-12.51-4.33-21.82-8.17-27.22-10.42-5.72-2.39-11.68-4.86-19.53-8.64-8.78-4.21-15.3-7.8-20.41-10.63-5.09-2.8-11.15-6.16-18.93-11.05-8.93-5.59-15.44-10.25-20.73-14.03-6.75-4.83-11.44-8.46-17.87-13.42-7.69-5.94-11.63-9.02-15.95-12.85-2.81-2.52-6.08-5.75-12.57-12.21-8.59-8.54-12.87-12.79-14.41-14.73-3.29-4.14-4.58-6.5-8.34-9.12-3.96-2.75-7.75-3.75-10-4.34-1.32-.34-7.21-1.76-15.03-.67-4.37.62-10.09,1.42-15.78,5.61-7.78,5.72-10.18,13.86-10.94,16.5-1.4,4.97-1.24,9.14-1.07,13.06.18,4.66.33,7.75,1.94,11.25,1.85,4.06,4.09,5.15,8.77,10.09,4.48,4.77,6.35,7.91,8.72,11.06,8.05,10.63,22.21,19.6,29.43,26.56,12.99,12.53,25.15,22.94,36.48,31.25,11.74,8.58,24.9,15.23,51.18,28.5,24.77,12.51,37.16,18.74,55.2,25.29,15.38,5.55,27.82,8.87,41.7,12.53,19.94,5.27,35.93,8.52,45.19,10.27,12.26,2.31,21.46,4.04,34.24,5.4,15.23,1.61,26.45,1.72,41.2,1.83,17.21.12,31.57.23,51.06-1.63,6.87-.65,25.28-2.57,48.4-7.55,7.69-1.67,18.06-4.43,38.8-9.93,16.12-4.3,20.12-5.54,24.59-7.15,9.96-3.6,10.44-4.65,26.71-10.95l.02.02Z"/>
  <path class="cls-4" d="M2217.02,1880.69c8.06-3.13,10.63-3.87,16.06-6.49,4.87-2.33,7.46-3.99,14.78-8.34,16.4-9.78,14.68-8.32,24.97-14.64,9.77-5.99,17.17-10.9,20.4-13.07,8.15-5.44,14.63-9.77,22.77-16.1,10.38-8.05,8.8-8.35,16.38-13.68,5.49-3.86,9.3-5.9,13.56-11.1,3.62-4.43,5.19-8.22,5.86-10.1.82-2.32,2.09-5.79,1.82-10.28-.2-3.47-1.45-6.28-3.97-11.88-2.32-5.18-3.49-7.77-5.41-9.7-2.16-2.16-4.81-3.39-10.1-5.86-3.59-1.68-5.4-2.52-7.52-3.04-1.44-.36-7.11-1.58-13.53.29-3.31.98-5.44,2.37-12.52,7.99-6.96,5.55-12.14,9.95-14.02,11.53-8.62,7.29-12.89,10.93-17.29,14.11-5.57,4.02-5.75,3.58-18.55,11.79-11.08,7.12-10.14,6.93-16.71,10.96-3.5,2.16-12.04,7.29-23.53,12.91-7.54,3.69-13.33,6.09-18.37,8.2-6.51,2.71-15.41,6.38-27.02,10.07-4.33,1.38-11.85,3.39-26.9,7.35-10.36,2.73-15.54,4.12-17.77,4.62-13.98,3.1-25.09,4.16-32.65,4.86-7.21.67-12.34.89-21.67,1.3-3.76.16-13.3.54-26.16.63-14.7.11-22.07.17-31.52-.51-2.85-.19-12.32-.92-24.64-2.89-15.77-2.53-27.51-5.74-35.24-7.87-2.9-.81-11.94-3.35-23.54-7.35-11.6-4-20.26-7.6-25.25-9.67-5.31-2.22-10.84-4.51-18.1-8.01-8.16-3.91-14.18-7.23-18.93-9.86-4.71-2.58-10.34-5.72-17.57-10.24-8.3-5.2-14.32-9.49-19.24-13-6.26-4.48-10.61-7.85-16.56-12.44-7.13-5.52-10.8-8.35-14.77-11.91-2.62-2.34-5.62-5.33-11.67-11.32-7.96-7.93-11.95-11.88-13.35-13.66-3.04-3.81-4.25-6.03-7.72-8.44-3.66-2.54-7.18-3.49-9.26-4.01-1.25-.31-6.68-1.64-13.95-.62-4.06.58-9.37,1.34-14.64,5.19-7.23,5.31-9.45,12.86-10.14,15.32-1.3,4.62-1.14,8.5-.99,12.12.18,4.31.28,7.2,1.79,10.44,1.74,3.78,3.82,4.78,8.13,9.38,4.15,4.41,5.89,7.33,8.09,10.27,7.47,9.87,20.59,18.18,27.27,24.63,12.05,11.62,23.33,21.28,33.85,28.98,10.88,7.98,23.07,14.13,47.48,26.43,22.98,11.59,34.47,17.38,51.2,23.44,14.26,5.15,25.8,8.23,38.68,11.63,18.49,4.89,33.33,7.91,41.92,9.51,11.37,2.16,19.91,3.75,31.77,5.01,14.13,1.5,24.52,1.62,38.2,1.7,15.96.13,29.29.19,47.36-1.5,6.35-.59,23.43-2.39,44.9-7,7.14-1.53,16.75-4.1,35.98-9.21,14.95-3.99,18.67-5.15,22.82-6.64,9.24-3.35,9.69-4.32,24.77-10.17l-.02-.06Z"/>
</svg>