<?xml version="1.0" encoding="UTF-8"?>
<svg id="Layer_4" data-name="Layer 4" xmlns="http://www.w3.org/2000/svg" viewBox="0 0 4200 2000">
  <defs>
    <style>
      .cls-1 {
        fill: #bf2026;
      }

      .cls-2 {
        fill: #f2f1eb;
        opacity: .45;
      }

      .cls-3 {
        fill: #f45662;
      }

      .cls-4 {
        fill: #f2f2f2;
      }

      .cls-5 {
        fill: #ede4bc;
      }

      .cls-6 {
        fill: #333;
      }

      .cls-7 {
        fill: #ccc;
      }

      .cls-8 {
        fill: #e6e6e6;
      }
    </style>
  </defs>
  <rect class="cls-8" x="1467.15" y="534.39" width="2006.61" height="1145.74"/>
  <rect class="cls-7" x="830.11" y="381.91" width="2006.61" height="1145.74"/>
  <rect class="cls-8" x="874.69" y="425.61" width="2006.61" height="1145.74"/>
  <rect class="cls-4" x="1502.37" y="569.61" width="2006.61" height="1145.74"/>
  <path class="cls-5" d="M2916.8,1807.7H839.19c-14.7,0-26.61-11.91-26.61-26.61V381.93c0-41.72,33.82-75.54,75.54-75.54h757.55c24.65,0,47.75,12.03,61.88,32.22l108.84,155.5c4.93,7.04,12.95,11.26,21.54,11.35l1079.14,10.67c14.59.14,26.35,12.01,26.35,26.61v1238.35c0,14.7-11.91,26.61-26.61,26.61Z"/>
  <path class="cls-2" d="M956.44,1781.09V381.93c0-41.72,33.82-75.54,75.54-75.54h-152.89c-41.72,0-75.54,33.82-75.54,75.54v1399.16c0,14.7,11.91,26.61,26.61,26.61h152.89c-14.7,0-26.61-11.91-26.61-26.61Z"/>
  <path class="cls-1" d="M2058.3,1163.25l331.01-191.11c4.48-2.59,4.48-9.06,0-11.65l-331.01-191.11c-4.48-2.59-10.09.65-10.09,5.83v120.99h-645.19c-21.93,0-39.71,17.78-39.71,39.71v60.83c0,21.93,17.78,39.71,39.71,39.71h645.19v120.99c0,5.18,5.61,8.41,10.09,5.83Z"/>
  <g>
    <path class="cls-3" d="M2058.3,830.74l287.96,166.26,43.05-24.85c4.48-2.59,4.48-9.06,0-11.65l-331.01-191.11c-4.48-2.59-10.09.65-10.09,5.83v61.36c0-5.18,5.61-8.41,10.09-5.83Z"/>
    <path class="cls-3" d="M1403.02,957.55h645.19v-61.36h-645.19c-21.93,0-39.71,17.78-39.71,39.71v60.83c0,.09,0,.18,0,.26.14-21.81,17.86-39.44,39.7-39.44Z"/>
  </g>
  <path class="cls-1" d="M1697.69,1220.39l-331.01,191.11c-4.48,2.59-4.48,9.06,0,11.65l331.01,191.11c4.48,2.59,10.09-.65,10.09-5.83v-120.99h645.19c21.93,0,39.71-17.78,39.71-39.71v-60.83c0-21.93-17.78-39.71-39.71-39.71h-645.19v-120.99c0-5.18-5.61-8.41-10.09-5.83Z"/>
  <g>
    <path class="cls-3" d="M1697.69,1281.75l-287.96,166.26-43.05-24.85c-4.48-2.59-4.48-9.06,0-11.65l331.01-191.11c4.48-2.59,10.09.65,10.09,5.83v61.36c0-5.18-5.61-8.41-10.09-5.83Z"/>
    <path class="cls-3" d="M2352.97,1408.56h-645.19v-61.36h645.19c21.93,0,39.71,17.78,39.71,39.71v60.83c0,.09,0,.18,0,.26-.14-21.81-17.86-39.44-39.7-39.44Z"/>
  </g>
  <rect class="cls-6" x="3374.06" y="647.87" width="18.78" height="1023.65" rx="9.39" ry="9.39"/>
  <rect class="cls-6" x="3294.24" y="647.87" width="18.78" height="1023.65" rx="9.39" ry="9.39"/>
  <rect class="cls-6" x="3216.76" y="647.87" width="18.78" height="1023.65" rx="9.39" ry="9.39"/>
  <rect class="cls-6" x="3141.63" y="647.87" width="18.78" height="1023.65" rx="9.39" ry="9.39"/>
  <rect class="cls-1" x="3070.69" y="647.87" width="18.78" height="1023.65" rx="9.39" ry="9.39"/>
  <rect class="cls-6" x="2991.37" y="647.87" width="18.78" height="1023.65" rx="9.39" ry="9.39"/>
</svg>