<?xml version="1.0" encoding="UTF-8"?>
<svg id="Layer_3" data-name="Layer 3" xmlns="http://www.w3.org/2000/svg" viewBox="0 0 4200 2000">
  <defs>
    <style>
      .cls-1 {
        fill: #fff;
      }

      .cls-2 {
        fill: #efd3b4;
      }

      .cls-3 {
        fill: #ffe5c5;
      }

      .cls-4 {
        fill: #666;
      }

      .cls-5 {
        fill: #1a1a1a;
      }
    </style>
  </defs>
  <g>
    <path class="cls-3" d="M1332.89,1721.14c-119.61,119.61-313.54,119.61-433.15,0h0c-88.74-88.74-111.64-218.38-68.71-328.24l-.08-.03,127.65-400.08c14.27-44.73,62.1-69.42,106.83-55.15h0c44.73,14.27,69.42,62.1,55.15,106.83l-20.73,64.97,334.61-334.61c33.2-33.2,87.02-33.2,120.22,0h0c24.41,24.41,30.87,59.96,19.39,90.27l21.22-21.22c33.2-33.2,87.02-33.2,120.22,0h0c33.2,33.2,33.2,87.02,0,120.22l-10.72,10.72c26.03-4.19,53.63,3.74,73.69,23.81h0c33.2,33.2,33.2,87.02,0,120.22l-71.76,71.76c7.03,3.82,13.65,8.69,19.59,14.64h0c33.2,33.2,33.2,87.02,0,120.22l-393.42,395.66Z"/>
    <rect class="cls-2" x="1393.6" y="783.46" width="8.88" height="496.94" rx="4.44" ry="4.44" transform="translate(1139.16 -686.32) rotate(45)"/>
    <rect class="cls-2" x="1519.4" y="894.01" width="8.88" height="505.49" rx="4.44" ry="4.44" transform="translate(1257.2 -741.64) rotate(45)"/>
    <rect class="cls-2" x="1564.66" y="1128.15" width="8.88" height="389.22" rx="4.44" ry="4.44" transform="translate(1394.91 -722.1) rotate(45)"/>
    <path class="cls-2" d="M999.92,1482.39h0c-2.37-.63-3.77-3.07-3.14-5.44,95.43-139.35,120.7-259.2,98.44-367.38.63-2.37,3.07-3.77,5.44-3.14h0c2.37.63,3.77,3.07,3.14,5.44,21.63,135.2-10.19,257.89-98.44,367.38-.63,2.37-3.07,3.77-5.44,3.14Z"/>
    <path class="cls-2" d="M1457.48,1524.7h0c-1.9,1.55-4.94.97-6.81-1.3-77.69-183.35-175.78-292.61-289.11-352.83-1.86-2.27-1.84-5.38.06-6.93h0c1.9-1.55,4.94-.97,6.81,1.3,138.24,80.53,235.38,197.47,289.11,352.83,1.86,2.27,1.84,5.38-.06,6.93Z"/>
  </g>
  <g>
    <path class="cls-3" d="M2919.09,1721.14c119.61,119.61,313.54,119.61,433.15,0h0c88.74-88.74,111.64-218.38,68.71-328.24l.08-.03-127.65-400.08c-14.27-44.73-62.1-69.42-106.83-55.15h0c-44.73,14.27-69.42,62.1-55.15,106.83l20.73,64.97-334.61-334.61c-33.2-33.2-87.02-33.2-120.22,0h0c-24.41,24.41-30.87,59.96-19.39,90.27l-21.22-21.22c-33.2-33.2-87.02-33.2-120.22,0h0c-33.2,33.2-33.2,87.02,0,120.22l10.72,10.72c-26.03-4.19-53.63,3.74-73.69,23.81h0c-33.2,33.2-33.2,87.02,0,120.22l71.76,71.76c-7.03,3.82-13.65,8.69-19.59,14.64h0c-33.2,33.2-33.2,87.02,0,120.22l393.42,395.66Z"/>
    <rect class="cls-2" x="2849.5" y="783.46" width="8.88" height="496.94" rx="4.44" ry="4.44" transform="translate(5601.66 -256.42) rotate(135)"/>
    <rect class="cls-2" x="2723.7" y="894.01" width="8.88" height="505.49" rx="4.44" ry="4.44" transform="translate(5468.1 28.55) rotate(135)"/>
    <rect class="cls-2" x="2678.44" y="1128.15" width="8.88" height="389.22" rx="4.44" ry="4.44" transform="translate(5515.29 361) rotate(135)"/>
    <path class="cls-2" d="M3252.05,1482.39h0c2.37-.63,3.77-3.07,3.14-5.44-95.43-139.35-120.7-259.2-98.44-367.38-.63-2.37-3.07-3.77-5.44-3.14h0c-2.37.63-3.77,3.07-3.14,5.44-21.63,135.2,10.19,257.89,98.44,367.38.63,2.37,3.07,3.77,5.44,3.14Z"/>
    <path class="cls-2" d="M2794.49,1524.7h0c1.9,1.55,4.94.97,6.81-1.3,77.69-183.35,175.78-292.61,289.11-352.83,1.86-2.27,1.84-5.38-.06-6.93h0c-1.9-1.55-4.94-.97-6.81,1.3-138.24,80.53-235.38,197.47-289.11,352.83-1.86,2.27-1.84,5.38.06,6.93Z"/>
  </g>
  <rect class="cls-4" x="1707.49" y="275.67" width="835.83" height="1342.96" rx="93.91" ry="93.91"/>
  <rect class="cls-5" x="1747.08" y="317.87" width="756.64" height="1260.43" rx="77.67" ry="77.67"/>
  <path class="cls-4" d="M2216.02,399.7h-176.11c-18.75,0-34.87-13.3-38.44-31.71l-13.86-71.59h280.71l-13.86,71.59c-3.56,18.41-19.68,31.71-38.44,31.71Z"/>
  <circle class="cls-1" cx="2056.13" cy="1160.14" r="76.8" transform="translate(-218.11 1793.7) rotate(-45)"/>
  <path class="cls-1" d="M2187.81,1010.26c-4.57-4.83-13.26-13.9-26.35-23.06-4.64-3.24-19.52-13.27-41.48-20.65-9.38-3.16-26.85-8.13-49.38-8.79-7-.22-21.81-.24-40.13,3.51-10.29,2.11-18.44,5.09-34.72,11.03-3.99,1.45-10.68,3.98-17.58,9.66-2.86,2.36-5.75,4.8-8.04,9-3.69,6.73-3.39,13.37-3.21,16.85.14,2.23.42,6.73,2.81,11.96,2.88,6.37,7.18,10.18,9.36,11.89,2.29,1.79,7.21,5.51,14.61,6.32,5.31.58,9.43-.73,12.58-1.71,4.41-1.38,5.93-2.66,11.8-5.63,2.29-1.15,8.46-4.26,15.87-6.88,9.79-3.44,17.37-4.41,18.98-4.6,1.48-.18,6.52-.78,13.22-.59,10.97.29,19.25,2.47,25.01,4.02,3.89,1.04,10.13,2.76,17.88,6.29,9.92,4.5,16.76,9.43,19.31,11.34,7.25,5.43,11.98,10.49,14.56,13.29,3.72,4.02,6.83,7.41,10.11,12.54,1.39,2.21,2.8,4.67,5.6,8.52,2.31,3.15,3.53,4.79,5.64,6.66.83.73,3.79,3.25,8.41,5.08,2.05.82,6.76,2.63,12.94,2.14,5.3-.43,9.03-2.37,11.78-3.78,5.14-2.65,8.39-5.84,9.31-6.78,2.29-2.32,6.97-7.09,8.6-14.45,1.47-6.64-.29-11.93-1.93-16.86-.68-2.08-2.67-7.56-11.49-19.45-3.01-4.05-7.19-9.64-14.06-16.9v.04Z"/>
  <path class="cls-1" d="M2319.45,958.5c-8.49-11.65-6.63-10.5-13.01-18.95-7.13-9.42-13.24-15.91-18.43-21.34-9.6-10.1-17.29-16.79-27.51-25.69-10.42-9.09-15.65-13.65-22.1-18.17-8.45-5.91-15.3-9.54-29.01-16.79-11.12-5.88-17.74-9.38-27.55-13.56-14.91-6.41-27.5-10.27-35.32-12.42-5.42-1.5-17.01-4.54-32.17-6.9-13.85-2.16-24.35-2.75-32.23-3.19-12.2-.67-24.43-1.34-40.61.11-9.76.89-17.38,2.23-24.73,3.52-14.65,2.57-25.37,5.34-27.74,5.96-3.39.89-14.17,3.76-28.02,8.69-9.2,3.26-15.32,5.46-23.56,9.44-9.48,4.59-8.45,5.11-18.54,9.86-4.37,2.05-6.83,3.02-9.94,5.68-5.58,4.77-7.79,10.31-8.32,11.72-2.07,5.46-1.87,10.1-1.69,13.07.15,2.64.44,6.97,2.81,11.96,2.1,4.4,4.81,7.14,6.46,8.76,2.37,2.32,6.47,6.28,13.13,8.24,7.33,2.18,13.49.72,15.81.12,3.6-.91,4.73-1.88,12.92-6.27,2.6-1.39,10.61-5.71,17.34-8.8,6.75-3.1,11.82-4.76,18.71-7.01,10.88-3.58,19.33-5.53,24.7-6.79,7.9-1.82,15.77-3.62,26.51-4.88,9.17-1.09,16.14-1.24,22.31-1.37,6.27-.16,13.79-.31,23.68.41,5.32.38,15.18,1.28,27.42,3.75,13.11,2.65,22.72,5.84,28.63,7.81,3.29,1.1,11.18,3.82,21.1,8.09,5.84,2.52,14.66,6.36,25.49,12.56,8.19,4.7,13.57,8.5,24.11,15.91,8.32,5.86,12.59,8.9,18.15,13.8,5.47,4.86,9.45,9.11,13.57,13.5,3.72,3.96,7.83,8.39,12.79,14.68,5.24,6.67,8.98,12.33,11.12,15.63,3.74,5.72,5.63,8.57,7.49,11.84,2.17,3.8,2.73,5.06,4.54,7.29.87,1.09,3.77,4.5,8.68,7.49,2.33,1.42,5.65,3.4,10.49,4.27,1.9.34,7.23,1.07,13.35-1.04,3.53-1.19,5.89-2.95,10.61-6.44,4.52-3.34,6.77-5.01,8.57-7.46,4.33-5.96,4.54-12.57,4.57-15.06.09-5.66-1.49-9.82-2.89-13.37-2.74-6.96-5.78-10.45-11.72-18.58l.02-.08Z"/>
  <path class="cls-1" d="M1987.45,691.61c-8.55,1.28-11.22,1.44-17.09,2.8-5.27,1.2-8.15,2.25-16.25,4.88-18.15,5.94-16.15,4.89-27.58,8.79-10.85,3.69-19.15,6.85-22.78,8.26-9.14,3.51-16.42,6.31-25.76,10.69-11.9,5.56-10.42,6.21-18.99,9.74-6.2,2.56-10.37,3.7-15.67,7.84-4.51,3.53-6.88,6.87-7.94,8.56-1.31,2.08-3.31,5.19-4.04,9.62-.57,3.43.04,6.44,1.26,12.46,1.12,5.57,1.69,8.35,3.14,10.66,1.63,2.58,3.95,4.36,8.56,7.94,3.13,2.43,4.71,3.64,6.66,4.62,1.33.67,6.59,3.11,13.26,2.69,3.45-.23,5.83-1.11,13.98-5.04,8.01-3.88,14.04-7.04,16.22-8.16,10.01-5.21,14.98-7.83,19.97-9.95,6.32-2.69,6.39-2.23,20.69-7.42,12.38-4.51,11.42-4.53,18.71-7.01,3.89-1.34,13.35-4.46,25.79-7.42,8.17-1.94,14.35-3,19.73-3.95,6.94-1.21,16.44-2.83,28.58-3.88,4.52-.4,12.31-.7,27.86-1.25,10.71-.38,16.07-.6,18.35-.6,14.32.06,25.39,1.46,32.92,2.45,7.19.93,12.24,1.85,21.42,3.51,3.71.67,13.09,2.4,25.65,5.14,14.37,3.13,21.56,4.69,30.63,7.43,2.74.81,11.82,3.61,23.4,8.24,14.83,5.94,25.57,11.65,32.64,15.44,2.65,1.43,10.91,5.9,21.35,12.36,10.44,6.46,18.09,11.87,22.5,14.99,4.69,3.34,9.58,6.79,15.89,11.8,7.1,5.61,12.24,10.18,16.3,13.78,4.03,3.56,8.83,7.85,14.89,13.86,6.95,6.9,11.88,12.41,15.91,16.92,5.12,5.75,8.62,9.99,13.42,15.78,5.74,6.95,8.7,10.52,11.79,14.87,2.04,2.86,4.31,6.44,8.89,13.61,6.02,9.49,9.04,14.22,10.02,16.26,2.13,4.39,2.82,6.82,5.68,9.94,3.02,3.28,6.24,4.99,8.15,5.95,1.15.58,6.16,3.07,13.47,3.68,4.08.33,9.43.76,15.42-1.84,8.22-3.59,12.05-10.46,13.27-12.71,2.28-4.22,2.98-8.04,3.63-11.61.77-4.24,1.31-7.08.55-10.58-.87-4.07-2.67-5.51-5.87-10.94-3.07-5.21-4.13-8.44-5.63-11.8-5.11-11.27-16.08-22.27-21.18-30.03-9.19-13.99-18.08-25.89-26.65-35.72-8.86-10.18-19.39-18.86-40.5-36.23-19.87-16.37-29.8-24.54-44.78-34.13-12.77-8.16-23.36-13.71-35.17-19.86-16.96-8.84-30.77-15.05-38.8-18.51-10.62-4.61-18.59-8.04-29.88-11.88-13.45-4.58-23.56-6.97-36.89-10.06-15.54-3.63-28.53-6.63-46.53-8.96-6.33-.82-23.38-2.83-45.34-3.05-7.3-.08-17.24.32-37.12,1.06-15.47.6-19.34.91-23.72,1.45-9.75,1.23-10.41,2.08-26.4,4.47v.06Z"/>
</svg>