<?xml version="1.0" encoding="UTF-8"?>
<svg id="Layer_9" data-name="Layer 9" xmlns="http://www.w3.org/2000/svg" xmlns:xlink="http://www.w3.org/1999/xlink" viewBox="0 0 4200 2000">
  <defs>
    <style>
      .cls-1 {
        filter: url(#drop-shadow-18);
      }

      .cls-2 {
        fill: #898989;
      }

      .cls-3 {
        filter: url(#drop-shadow-16);
      }

      .cls-4 {
        filter: url(#drop-shadow-13);
      }

      .cls-4, .cls-5, .cls-6 {
        fill: #1a1a1a;
      }

      .cls-7 {
        filter: url(#drop-shadow-9);
      }

      .cls-8 {
        filter: url(#drop-shadow-14);
      }

      .cls-9 {
        fill: #4d4d4d;
      }

      .cls-10 {
        filter: url(#drop-shadow-17);
      }

      .cls-11 {
        filter: url(#drop-shadow-8);
      }

      .cls-12 {
        fill: #67a2ce;
      }

      .cls-13 {
        fill: #f2f2f2;
      }

      .cls-14 {
        filter: url(#drop-shadow-11);
      }

      .cls-5 {
        filter: url(#drop-shadow-15);
      }

      .cls-15 {
        fill: #75c0d8;
      }

      .cls-6 {
        filter: url(#drop-shadow-10);
      }

      .cls-16 {
        filter: url(#drop-shadow-12);
      }
    </style>
    <filter id="drop-shadow-8" x="1606" y="161" width="782" height="255" filterUnits="userSpaceOnUse">
      <feOffset dx="9" dy="10"/>
      <feGaussianBlur result="blur" stdDeviation="4"/>
      <feFlood flood-color="#000" flood-opacity=".75"/>
      <feComposite in2="blur" operator="in"/>
      <feComposite in="SourceGraphic"/>
    </filter>
    <filter id="drop-shadow-9" x="1179" y="100" width="1481" height="918" filterUnits="userSpaceOnUse">
      <feOffset dx="9" dy="10"/>
      <feGaussianBlur result="blur-2" stdDeviation="4"/>
      <feFlood flood-color="#000" flood-opacity=".75"/>
      <feComposite in2="blur-2" operator="in"/>
      <feComposite in="SourceGraphic"/>
    </filter>
    <filter id="drop-shadow-10" x="1273" y="707" width="225" height="671" filterUnits="userSpaceOnUse">
      <feOffset dx="9" dy="10"/>
      <feGaussianBlur result="blur-3" stdDeviation="4"/>
      <feFlood flood-color="#000" flood-opacity=".75"/>
      <feComposite in2="blur-3" operator="in"/>
      <feComposite in="SourceGraphic"/>
    </filter>
    <filter id="drop-shadow-11" x="1116" y="795" width="241" height="478" filterUnits="userSpaceOnUse">
      <feOffset dx="7" dy="7"/>
      <feGaussianBlur result="blur-4" stdDeviation="5"/>
      <feFlood flood-color="#000" flood-opacity=".75"/>
      <feComposite in2="blur-4" operator="in"/>
      <feComposite in="SourceGraphic"/>
    </filter>
    <filter id="drop-shadow-12" x="2085" y="1329" width="528" height="552" filterUnits="userSpaceOnUse">
      <feOffset dx="9" dy="10"/>
      <feGaussianBlur result="blur-5" stdDeviation="4"/>
      <feFlood flood-color="#000" flood-opacity=".75"/>
      <feComposite in2="blur-5" operator="in"/>
      <feComposite in="SourceGraphic"/>
    </filter>
    <filter id="drop-shadow-13" x="1824" y="1708" width="312" height="198" filterUnits="userSpaceOnUse">
      <feOffset dx="9" dy="10"/>
      <feGaussianBlur result="blur-6" stdDeviation="4"/>
      <feFlood flood-color="#000" flood-opacity=".75"/>
      <feComposite in2="blur-6" operator="in"/>
      <feComposite in="SourceGraphic"/>
    </filter>
    <filter id="drop-shadow-14" x="2437" y="921" width="244" height="525" filterUnits="userSpaceOnUse">
      <feOffset dx="7" dy="7"/>
      <feGaussianBlur result="blur-7" stdDeviation="5"/>
      <feFlood flood-color="#000" flood-opacity=".75"/>
      <feComposite in2="blur-7" operator="in"/>
      <feComposite in="SourceGraphic"/>
    </filter>
    <filter id="drop-shadow-15" x="2303" y="823" width="224" height="671" filterUnits="userSpaceOnUse">
      <feOffset dx="9" dy="10"/>
      <feGaussianBlur result="blur-8" stdDeviation="4"/>
      <feFlood flood-color="#000" flood-opacity=".75"/>
      <feComposite in2="blur-8" operator="in"/>
      <feComposite in="SourceGraphic"/>
    </filter>
    <filter id="drop-shadow-16" x="1476" y="743" width="888" height="864" filterUnits="userSpaceOnUse">
      <feOffset dx="9" dy="10"/>
      <feGaussianBlur result="blur-9" stdDeviation="4"/>
      <feFlood flood-color="#000" flood-opacity=".75"/>
      <feComposite in2="blur-9" operator="in"/>
      <feComposite in="SourceGraphic"/>
    </filter>
    <filter id="drop-shadow-17" x="1454" y="689" width="887" height="859" filterUnits="userSpaceOnUse">
      <feOffset dx="9" dy="10"/>
      <feGaussianBlur result="blur-10" stdDeviation="4"/>
      <feFlood flood-color="#000" flood-opacity=".75"/>
      <feComposite in2="blur-10" operator="in"/>
      <feComposite in="SourceGraphic"/>
    </filter>
    <filter id="drop-shadow-18" x="1811" y="773" width="243" height="455" filterUnits="userSpaceOnUse">
      <feOffset dx="9" dy="10"/>
      <feGaussianBlur result="blur-11" stdDeviation="4"/>
      <feFlood flood-color="#000" flood-opacity=".75"/>
      <feComposite in2="blur-11" operator="in"/>
      <feComposite in="SourceGraphic"/>
    </filter>
  </defs>
  <g class="cls-11">
    <path class="cls-12" d="M1995.71,166.91c-136.51-14.85-268.78,21.25-383.4,95.29l-2.12,19.53c-2.65,24.35,23.34,41.58,44.69,29.57,232.98-131.14,453.1-99.76,661.85,75.35,18.48,15.51,46.78,4.19,49.39-19.79l.7-6.46c-98.53-107.03-226.32-177.73-371.1-193.48Z"/>
  </g>
  <g class="cls-7">
    <path class="cls-9" d="M1994.95,173.91c350.11,38.09,600.92,397.48,578.6,815.13l59.51,6.47c48.67-447.3-235.48-845.12-634.66-888.55-399.18-43.43-762.23,283.97-810.9,731.28l67.08,7.3c68.02-412.67,390.25-709.72,740.36-671.63Z"/>
    <g>
      <path class="cls-2" d="M2015.63,109.22c-7.21-1.03-14.46-1.95-21.74-2.75-399.18-43.43-762.23,283.97-810.9,731.28l43.57,4.74c47.78-439.14,398.57-762.7,789.07-733.27Z"/>
      <path class="cls-2" d="M2033.99,178.16c-7.29-.79-14.57-1.43-21.83-1.93,338.7,50.29,578.72,403.37,556.87,812.32l43.57,4.74c22.32-417.65-228.49-777.04-578.6-815.13Z"/>
    </g>
  </g>
  <path class="cls-6" d="M1323.13,713.72h72c28.94,0,52.43,23.5,52.43,52.43v536.87c0,28.94-23.5,52.43-52.43,52.43h-72c-7.34,0-13.3-5.96-13.3-13.3v-615.13c0-7.34,5.96-13.3,13.3-13.3Z" transform="translate(119.99 -143.05) rotate(6.21)"/>
  <g class="cls-14">
    <path class="cls-12" d="M1285.93,1250.43l-155.3-39.56c-4.06-1.03-6.73-5.13-6.24-9.58l42.02-386.22c.49-4.49,4.03-7.94,8.26-8.02l159.86-3.2-48.59,446.58Z"/>
    <path class="cls-15" d="M1233.16,805.53l-58.45,1.17c-4.22.08-7.77,3.53-8.26,8.02l-42.02,386.22c-.48,4.45,2.19,8.55,6.24,9.58l56.85,14.48,45.64-419.47Z"/>
  </g>
  <g class="cls-16">
    <path class="cls-9" d="M2525.18,1344.72c-54.63,198.25-215.94,355.69-427.76,435.24l-8.57,78.76c246.53-78.83,438.91-263.75,501.94-501.07,2.87-10.8-4.5-21.63-15.61-22.84l-30.5-3.32c-8.87-.96-17.13,4.63-19.5,13.23Z"/>
    <path class="cls-2" d="M2558.16,1343.54c1.1-4,3.38-7.39,6.38-9.89l-19.85-2.16c-8.86-.96-17.13,4.63-19.5,13.23-54.63,198.25-215.94,355.69-427.76,435.24l-3.96,36.4c230.11-86.41,405.35-257.45,464.7-472.82Z"/>
  </g>
  <rect class="cls-4" x="1828.7" y="1720.03" width="284.09" height="154.73" rx="57.41" ry="57.41" transform="translate(205.97 -202.62) rotate(6.21)"/>
  <g class="cls-8">
    <g>
      <path class="cls-12" d="M2448.03,1376.87l160.18-5.24c4.19-.14,7.67-3.57,8.16-8.02l42.02-386.22c.49-4.49-2.23-8.62-6.34-9.61l-155.43-37.5-48.59,446.58Z"/>
      <path class="cls-12" d="M2490.05,1325.91h117.39v74.35c0,10.37-8.42,18.78-18.78,18.78h-81c-9.72,0-17.61-7.89-17.61-17.61v-75.52h0Z" transform="translate(163.4 -267.63) rotate(6.21)"/>
    </g>
    <polygon class="cls-15" points="2535.86 939.04 2494.44 929.05 2445.85 1375.63 2488.51 1374.23 2535.86 939.04"/>
  </g>
  <path class="cls-5" d="M2348.3,825.26h72c28.94,0,52.43,23.5,52.43,52.43v536.87c0,28.94-23.5,52.43-52.43,52.43h-72c-7.34,0-13.3-5.96-13.3-13.3v-615.13c0-7.34,5.96-13.3,13.3-13.3Z" transform="translate(4669.65 2545.55) rotate(-173.79)"/>
  <g class="cls-3">
    <rect class="cls-12" x="1504.74" y="786.16" width="812.35" height="540" rx="16.43" ry="16.43" transform="translate(125.45 -200.49) rotate(6.21)"/>
    <path class="cls-12" d="M2050.38,1579.58l25.45-233.89-227.96-24.8,192.96,261.27c2.87,3.89,9.03,2.23,9.55-2.58Z"/>
  </g>
  <g class="cls-10">
    <rect class="cls-13" x="1482.22" y="731.88" width="812.35" height="540" rx="16.43" ry="16.43" transform="translate(119.44 -198.38) rotate(6.21)"/>
    <path class="cls-13" d="M2027.86,1520.31l25.45-233.89-227.96-24.8,192.96,261.27c2.87,3.89,9.03,2.23,9.55-2.58Z"/>
  </g>
  <g class="cls-1">
    <circle class="cls-12" cx="1883.04" cy="1167.25" r="38.49"/>
    <path class="cls-12" d="M1900.36,1097.07l131.38-285.93c2.89-6.29-1.23-13.57-8.12-14.32l-198.19-21.56c-6.89-.75-12.48,5.47-11.01,12.24l66.81,307.49c2.07,9.52,15.07,10.94,19.13,2.08Z"/>
  </g>
</svg>