<?xml version="1.0" encoding="UTF-8"?>
<svg xmlns="http://www.w3.org/2000/svg" xmlns:xlink="http://www.w3.org/1999/xlink" viewBox="0 0 4200 2000">
  <defs>
    <style>
      .cls-1 {
        fill: #9bd88d;
        stroke: #246614;
      }

      .cls-1, .cls-2, .cls-3, .cls-4, .cls-5, .cls-6, .cls-7 {
        stroke-miterlimit: 10;
        stroke-width: 2px;
      }

      .cls-8 {
        filter: url(#drop-shadow-2);
      }

      .cls-2, .cls-5, .cls-6 {
        stroke: #a88e7d;
      }

      .cls-2, .cls-9 {
        fill: #e7cbb8;
      }

      .cls-10 {
        fill: #fff;
      }

      .cls-3 {
        fill: #a3a3a3;
      }

      .cls-3, .cls-7 {
        stroke: #565656;
      }

      .cls-4 {
        fill: #d6918e;
        stroke: #661414;
      }

      .cls-11 {
        filter: url(#drop-shadow-1);
      }

      .cls-12, .cls-7 {
        fill: #686868;
      }

      .cls-5 {
        fill: none;
      }

      .cls-13 {
        filter: url(#drop-shadow-3);
      }

      .cls-6 {
        fill: #ffefe6;
      }
    </style>
    <filter id="drop-shadow-1" x="820" y="137.83" width="1552" height="1725.17" filterUnits="userSpaceOnUse">
      <feOffset dx="-6" dy="16"/>
      <feGaussianBlur result="blur" stdDeviation="5"/>
      <feFlood flood-color="#000" flood-opacity=".5"/>
      <feComposite in2="blur" operator="in"/>
      <feComposite in="SourceGraphic"/>
    </filter>
    <filter id="drop-shadow-2" x="1901" y="609.75" width="1467" height="942.25" filterUnits="userSpaceOnUse">
      <feOffset dx="-6" dy="16"/>
      <feGaussianBlur result="blur-2" stdDeviation="5"/>
      <feFlood flood-color="#000" flood-opacity=".5"/>
      <feComposite in2="blur-2" operator="in"/>
      <feComposite in="SourceGraphic"/>
    </filter>
    <filter id="drop-shadow-3" x="1815" y="496" width="645" height="764" filterUnits="userSpaceOnUse">
      <feOffset dx="-2" dy="5"/>
      <feGaussianBlur result="blur-3" stdDeviation="5"/>
      <feFlood flood-color="#000" flood-opacity=".5"/>
      <feComposite in2="blur-3" operator="in"/>
      <feComposite in="SourceGraphic"/>
    </filter>
  </defs>
  <g id="Layer_6" data-name="Layer 6">
    <g class="cls-11">
      <g>
        <rect class="cls-3" x="1084.21" y="279.44" width="1001.74" height="1427.48" rx="73.06" ry="73.06" transform="translate(-276.99 815.4) rotate(-26.62)"/>
        <rect class="cls-10" x="1156.24" y="287.71" width="944.69" height="1373.64" rx="98.26" ry="98.26" transform="translate(-264.02 832.92) rotate(-26.62)"/>
        <path class="cls-3" d="M1671.18,194.51l-27.75,13.91c36.08-18.08,79.23-4.99,96.38,29.24l544.69,1086.92c17.15,34.23,1.81,76.63-34.26,94.71l27.75-13.91c36.08-18.08,51.42-60.48,34.26-94.71L1767.56,223.75c-17.15-34.23-60.3-47.32-96.38-29.24Z"/>
        <path class="cls-7" d="M1681.36,146.59l-764.93,383.33c-36.08,18.08-50.67,61.98-32.59,98.06l574.07,1145.56c18.08,36.08,61.98,50.67,98.06,32.59l764.93-383.33c36.08-18.08,50.67-61.98,32.59-98.06L1779.41,179.18c-18.08-36.08-61.98-50.67-98.06-32.59ZM2306.22,1314.26c14.87,29.67,2.87,65.78-26.8,80.65l-126.74,63.51-16.19-19.66c-15.13-18.37-40.94-23.84-62.22-13.18l-255.34,127.96c-21.27,10.66-32.35,34.61-26.69,57.73l6.06,24.74-222.47,111.49c-29.67,14.87-65.78,2.87-80.65-26.8L949.31,631.43c-14.87-29.67-2.87-65.78,26.8-80.65l220.94-110.72,21.09,25.61c15.13,18.37,40.94,23.84,62.22,13.18l255.34-127.96c21.27-10.66,32.35-34.61,26.69-57.73l-7.89-32.23,125.21-62.74c29.67-14.87,65.78-2.87,80.65,26.8l545.86,1089.26Z"/>
      </g>
      <rect class="cls-1" x="1699.58" y="1178.52" width="165.91" height="165.91" rx="18.78" ry="18.78" transform="translate(-376.26 932.3) rotate(-26.62)"/>
      <rect class="cls-4" x="1440.72" y="1323" width="165.91" height="165.91" rx="18.78" ry="18.78" transform="translate(-468.42 831.64) rotate(-26.62)"/>
      <rect class="cls-4" x="1956.64" y="1043.49" width="165.91" height="165.91" rx="18.78" ry="18.78" transform="translate(-288.52 1033.16) rotate(-26.62)"/>
      <rect class="cls-12" x="1075.63" y="708.03" width="812.3" height="4.25" rx="2.12" ry="2.12" transform="translate(-160.61 760.63) rotate(-27.37)"/>
      <rect class="cls-12" x="1061.12" y="745.1" width="318.63" height="4.25" rx="2.12" ry="2.12" transform="translate(-206.9 644.64) rotate(-27.37)"/>
      <rect class="cls-12" x="1034.81" y="694.29" width="318.63" height="4.25" rx="2.12" ry="2.12" transform="translate(-186.49 626.86) rotate(-27.37)"/>
      <rect class="cls-12" x="1003.51" y="645.73" width="318.63" height="4.25" rx="2.12" ry="2.12" transform="translate(-167.67 607.04) rotate(-27.37)"/>
      <rect class="cls-12" x="1103.73" y="762.31" width="812.3" height="4.25" rx="2.12" ry="2.12" transform="translate(-182.42 779.62) rotate(-27.37)"/>
      <rect class="cls-12" x="1132.1" y="817.13" width="812.3" height="4.25" rx="2.12" ry="2.12" transform="translate(-204.44 798.8) rotate(-27.37)"/>
      <rect class="cls-12" x="1162.89" y="874.58" width="812.3" height="4.25" rx="2.12" ry="2.12" transform="translate(-227.4 819.38) rotate(-27.37)"/>
      <rect class="cls-12" x="1190.33" y="929.63" width="812.3" height="4.25" rx="2.12" ry="2.12" transform="translate(-249.64 838.16) rotate(-27.37)"/>
      <rect class="cls-12" x="1220.66" y="988.21" width="812.3" height="4.25" rx="2.12" ry="2.12" transform="translate(-273.17 858.65) rotate(-27.37)"/>
    </g>
  </g>
  <g id="Layer_2" data-name="Layer 2">
    <g class="cls-8">
      <path class="cls-2" d="M3351.07,1078.61c-1.99-3.86-6.79-12.87-16.7-18-6.4-3.32-11.7-3.33-18.52-3.91-14.62-1.25-13.5-3.2-38.35-7.83-16.24-3.02-28.19-4.33-46.17-6.26-39.54-4.24-47.05-3.13-87.65-7.04-26.27-2.53-39.4-3.8-51.65-6.26-12.78-2.57-19.47-4.72-72.78-22.7-46.44-15.66-51.14-17.32-60.26-21.91-10.4-5.23-18.77-10.36-49.3-32.09-34.81-24.77-52.21-37.16-67.3-49.3-28.43-22.89-25.71-24.17-73.57-67.3-34.93-31.49-32.59-27.39-79.04-68.87-30.64-27.36-34.65-31.81-50.09-43.83-10.75-8.37-19.52-14.54-32.09-26.61-10.53-10.11-11.05-12.18-24.26-25.04-9.66-9.4-16.81-15.53-29.74-26.61-18.29-15.67-23.19-18.76-25.83-20.35-6.83-4.12-14.87-8.88-26.61-11.74-2.9-.71-14.77-3.43-30.52-1.57-8.81,1.04-14.54,3-28.17,7.83-38.87,13.75-38.75,13.91-41.48,14.87-12.18,4.27-31.72,11.05-55.57,15.65-18.07,3.49-16.98,1.56-44.61,5.48-13.29,1.88-35.39,5.08-62.61,11.74-23.3,5.7-36.83,10.64-54.78,12.52-2.09.22-7.9.78-15.65,2.35-8.55,1.73-16.13,3.26-24.26,7.04-3.81,1.77-19.02,8.85-28.96,24.26-3.88,6.02-4.88,10.1-10.96,17.22-5.17,6.07-10.02,9.64-11.74,10.96-16.07,12.27-22.22,27.69-50.87,60.26-10.04,11.42-11.02,11.5-23.48,25.83-12.87,14.8-19.31,22.2-22.7,27.39-10.46,16.01-14.8,32.85-23.48,66.52-2.14,8.29-4.18,17.14-9.39,28.96-4.85,11-6.39,10.86-10.17,20.35-4.48,11.25-10.04,25.19-4.17,37.57.89,1.87,3.5,6.8,8.87,10.43,3.01,2.04,6.2,3.21,9.4,3.82-1.51,2.47-2.59,4.54-3.13,5.57-5.34,10.22-6.5,18.25-8.35,26.61-1.71,7.74-5.83,18.9-14.09,41.22-10.19,27.56-15.38,36.59-16.7,53.74-.58,7.55-.35,15.94,4.17,24,3.19,5.69,7.54,9.48,10.43,12,3.61,3.14,8.71,7.59,16.17,9.91,8.39,2.61,15.54,1.21,21.39,0,14.73-3.06,24.7-10.84,32.87-17.22,6.98-5.45,11.81-10.53,16.7-15.65,5.61-5.9,9.88-10.38,14.61-17.22,7.01-10.15,6.11-12.56,14.09-23.48,2.49-3.41,4.06-5.21,5.74-8.87,3.57-7.8,2.94-13.88,4.7-14.09,1.97-.24,4.34,7.22,4.7,8.35,2.36,7.55,2.14,13.78,2.09,16.7,0,0-.14,8.7,2.09,24.52,1.32,9.41,3.66,15.84,8.35,28.7,4.59,12.6,7.33,20.12,13.04,29.22,3.58,5.71,3.7,4.64,17.74,21.91,12.37,15.22,18.56,22.82,21.39,27.13,6.47,9.84,7.83,14,14.09,18.26,2.3,1.56,9.4,6.26,18.78,5.74,0,0,14.35-.8,25.57-15.13,1.91-2.44,4.02-4.73,5.74-7.3,2.48-3.7,3.2-5.66,4.7-5.74,1.95-.1,3.36,3.1,5.22,6.26,0,0,1.72,2.93,10.96,13.04,3.66,4,8.87,7.19,19.3,13.57,8.74,5.34,14.97,8.48,24,13.04,14.18,7.16,16.7,7.62,18.78,7.83,10.47,1.03,18.73-3.66,21.39-5.22,8.19-4.79,12.35-11.3,14.09-14.09,5.18-8.31,5.89-17.89,7.3-37.04.66-8.92.48-14.11-1.57-19.83-1.35-3.77-3.12-6.67-5.74-10.96-1.95-3.19-4.98-8.11-9.91-13.57-2.31-2.56-6.3-6.97-12.52-11.48-5.78-4.18-9.7-5.71-9.39-7.83.2-1.41,2.13-2,6.26-3.65,8.95-3.57,5.26-2.94,15.13-6.78,7.79-3.03,7.93-2.58,14.09-5.22,6.31-2.7,9.29-4.5,10.43-5.22,3.1-1.94,6.26-4.17,6.26-4.17,5.27-3.73,6.61-5.24,7.83-4.7,1.7.76.3,4.29,2.61,7.83,1.63,2.5,4.13,3.51,5.74,4.17,12.4,5.13,23.41,9.7,31.3,15.13,7.58,5.22,8.64,8.74,15.65,10.96,4.13,1.3,7.21,2.28,11.48,2.09,4.2-.19,6.27-1.36,7.83,0,2.16,1.89-.14,5.6,2.09,9.39,1.58,2.68,4.39,3.65,5.74,4.17,16.68,6.5,30.19,19.24,45.39,28.7,16.48,10.25,12.41,9.94,33.39,24,24.59,16.48,36.88,24.72,54.78,31.83,11.34,4.5,23.34,7.98,39.13,18.26,7.68,5,6.44,5.22,12,8.35,15.59,8.78,25.02,6.89,40.17,16.17,4.43,2.72,6.52,4.66,9.91,7.3,20.07,15.68,43.23,23.01,57.91,27.65,0,0,28.64,9.06,69.39,10.96,12.17.57,18.39.8,25.04-1.57,5.88-2.09,9.33-4.83,16.17-4.7,4.05.08,5.5,1.1,12.52,1.57,1.07.07,4.77.3,10.96,0,2.13-.1,14.52-.7,19.35-2.21,1.86.03,3.79-.23,5.18-.4,0,0,8.28-1.01,40.7,1.04,9.54.61,13.97,2.33,30.26,6.78,29.43,8.04,37.83,8.66,60.52,14.35,41.04,10.28,78.33,24.48,112.7,37.57,59.35,22.6,70.18,30.71,104.09,41.48,7.81,2.48,25.04,7.7,46.96,17.22,14.69,6.38,13.79,7,24.26,10.96,17.83,6.74,19.96,8.61,32.87,14.87,5.05,2.45,10.97-5.95,12.13-8.22,2.55-4.99,4.18-15.45,4.3-18.39,1.37-33.17,3.71-45.09,2.35-78.26-.56-13.51-.37-35.35,0-79.04.58-68.29.87-102.44,4.7-141.65,2.33-23.9-.15-48.12,2.35-72,.99-9.42,3.07-26.5-5.48-43.04Z"/>
      <path class="cls-6" d="M1978.77,901.35c-.69-.24-1.77,1.45-3.52,3.91-3.71,5.23-2.47,2.76-6.26,8.22-2.04,2.94-5.67,8.2-9.78,15.65-1.24,2.25-4.21,7.76-7.43,15.26-3.27,7.6-5.37,12.49-7.04,19.57-1.1,4.67-2.67,11.53-2.35,20.35.36,9.64.05,12.52.78,19.11.28,2.48.13,3.31,1.17,5.93.26.66,1.06,2.58,3.13,3.91,1.69,1.09,4.63,2.16,5.48,1.17,1.03-1.19-2.31-3.91-3.52-9.39-.42-1.92-.16-4.7.39-10.17.72-7.17,1.08-10.76,1.96-12.91,1.14-2.81,3.13-5.17,7.04-9.78,5.43-6.39,6.36-6.28,9-9.78,3.62-4.8,4.99-9.14,7.04-15.65.72-2.3,2.81-9.29,3.52-18.78.42-5.62-.83-7.47,0-12.91.47-3.1.57-4.81.78-8.22.26-4.23.1-5.31-.39-5.48Z"/>
      <path class="cls-6" d="M2163.59,1190.78c-.21-4.04-2.54-6.86-6.78-12-2.05-2.48-5.7-6.83-12-10.43-3.33-1.91-8.9-5.01-16.7-5.22-3.18-.08-10.78.2-18.26,5.22-2.31,1.55-7.54,5.16-10.43,12-2.76,6.52-1.86,12.36-1.04,17.74,1.03,6.77,3.32,11.66,5.22,15.65,2.76,5.79,3.67,5.76,8.87,14.61,5.77,9.82,4.68,9.93,9.39,17.22,5.57,8.63,6.66,7.8,9.39,13.57.66,1.39,2.1,4.61,5.22,7.83.53.55,4.36,4.5,5.74,3.65,1.21-.74-.58-4.47-1.04-9.39-.44-4.72.63-7.42,2.61-14.61,4.18-15.17,2.44-14.09,5.74-24,2.18-6.56,3.66-10.98,6.78-16.7,4.48-8.18,7.56-10.25,7.3-15.13Z"/>
      <path class="cls-6" d="M2280.46,1241.91c-.86-3.77-1.38-6.02-3.13-8.35-1.31-1.74-2.68-2.69-11.48-6.78-6.37-2.97-9.6-4.45-11.48-4.7-2.61-.34-7.46-.47-12.52,2.09-4.74,2.4-7.25,5.94-7.83,6.78-2.74,4.03-3.31,1.45-5.54,15.13-1.25,7.64-.39,13.27.32,15.65.39,1.32,1.26,3.4,8.87,10.43,3.13,2.89,5.96,5.48,10.43,8.87,3.83,2.9,3,1.93,13.04,8.87,4.48,3.09,6.13,4.32,9.39,6.26,2,1.19,6.26,3.65,6.26,3.65h0s3.63,1.78,5.22,1.04c1.97-.92,1.21-5.91.52-13.57,0,0-.82-9.08-1.04-17.22-.12-4.23.07-3.65,0-15.65-.03-5.13-.08-8.31-1.04-12.52Z"/>
      <path class="cls-5" d="M2382.2,695.13c-3.43,7.75-8.46,19.78-13.57,34.96-6.21,18.44-6.53,23.68-12,34.96-8.38,17.26-19,28.41-22.96,32.35-17.08,17.01-34.97,24.14-40.17,26.09-14.09,5.26-26.28,5.84-50.09,6.78-14.34.57-34.13.74-57.91-1.04"/>
      <path class="cls-5" d="M2074.9,820.35c4,2,10.52,5.92,16.17,13.04,5.25,6.61,7.28,12.87,8.35,16.17,7.12,21.96-.91,48.83-2.61,54.26"/>
      <path class="cls-5" d="M2295.07,916.35c3.19-3.9,7.85-10.38,11.48-19.3,5.76-14.16,5.75-26.7,5.74-38.09,0-6.17-.4-14.58-2.09-24.52"/>
      <path class="cls-5" d="M2405.3,904.8c-.61-10.1,1.01-17.59,2.47-22.37,3.8-12.4,9.51-16.23,13.04-29.22,2.11-7.77,1.86-13,2.09-19.3.41-11.38,4.8-27.57,13.57-59.48,9.85-35.89,13.07-42.27,16.17-47.48,6.97-11.69,14.83-19.94,20.35-25.04"/>
      <path class="cls-5" d="M2378.04,910.65c-5-3.15-11.56-7.63-18.79-13.61-6.3-5.21-14.53-12.11-22.96-22.96-4.47-5.76-10.12-14.07-15.13-25.04"/>
      <path class="cls-5" d="M2509.51,768.69c-9.39,15.12-16.54,27.69-21.39,36.52-3.18,5.77-3.06,5.74-15.13,28.17-4.69,8.72-8.82,16.4-14.09,26.09-4.18,7.7-9.52,17.48-15.78,28.84"/>
      <path class="cls-5" d="M2076.93,1075.68c-2.96,4-5.98,8.62-8.81,13.88-1.15,2.14-2.19,4.23-3.13,6.26"/>
      <path class="cls-5" d="M2185.47,1082.63c-.55,5.64-1.39,10.13-2.06,13.19-1.01,4.66-1.86,7.12-2.09,11.48,0,0-.23,4.39.52,8.87,1.43,8.52,6.25,14.59,9.91,19.83,5.61,8.01,8.96,15.08,15.65,29.22,6.12,12.93,7.93,19.46,8.87,23.48,1.25,5.34,2.39,10.42,2.09,17.22-.34,7.49-2.26,12.97-5.22,21.39-2.2,6.27-4.58,11.68-6.78,16.17"/>
      <path class="cls-5" d="M2274.72,1176.69c.84-4.71,1.69-11.35,1.57-19.3-.08-5.11-.29-18.16-5.22-30.26-8.24-20.23-26.67-30.41-33.91-33.91"/>
      <path class="cls-5" d="M2308.55,1078.29c5.77,5.23,12.71,12.69,18.87,22.75,11.65,19.05,14.41,37.53,15.13,48"/>
      <path class="cls-5" d="M2438,1114.87c-3.76,6.28-7.69,14.02-10.93,23.21-6.35,17.99-7.5,34.12-7.3,45.39"/>
      <path class="cls-5" d="M2834.55,1366.61c13.91-13.48,30.41-32.5,44.61-57.91,29.6-53,32.56-104.01,32.09-130.7"/>
      <path class="cls-5" d="M2211.65,830.5c-9.47,10.46-25.83,25.98-50.14,38.36-24.39,12.43-46.63,16.54-60.68,18.04"/>
      <path class="cls-5" d="M1975.25,1017.56c7.83-1.57,15.65-3.13,23.48-4.7"/>
      <path class="cls-5" d="M2091.59,928.35c1.74-8.17,3.48-16.35,5.22-24.52"/>
    </g>
  </g>
  <g id="Layer_5" data-name="Layer 5">
    <g class="cls-13">
      <path class="cls-7" d="M1840.09,1222.18h11.03v15.07h-11.03c-3.85,0-6.97-3.12-6.97-6.97v-1.13c0-3.85,3.12-6.97,6.97-6.97Z" transform="translate(-251.69 1951.9) rotate(-52.76)"/>
      <polygon class="cls-7" points="2431.51 541.38 2259.87 748.35 2235.07 723.3 2406.46 521.39 2431.51 541.38"/>
      <path class="cls-3" d="M2287.77,726.58l-391.79,469.7c-5.05,6.05-10.78,11.5-17.09,16.23l-25.81,19.36c-1.35,1.01-3.19,1.04-4.57.07l-10.76-7.53c-1.51-1.05-2.07-3.02-1.36-4.71l14.11-33.43c3.85-9.12,9-17.63,15.3-25.26l385.78-467.04c1.24-1.5,3.48-1.66,4.92-.35l30.96,28.26c1.34,1.23,1.48,3.3.32,4.69Z"/>
      <path class="cls-3" d="M2292.71,715.48l-31.7-28.33c-1.37-1.22-1.52-3.32-.34-4.72l116.92-139.4c1.67-1.99,4.65-2.21,6.59-.47l29.92,26.73c1.85,1.66,2.06,4.48.46,6.39l-116.96,139.46c-1.23,1.47-3.44,1.63-4.88.35Z"/>
      <rect class="cls-3" x="2391.54" y="522.18" width="56.62" height="18.13" rx="3.27" ry="3.27" transform="translate(962.78 -1472.46) rotate(41.59)"/>
    </g>
  </g>
  <g id="Layer_7" data-name="Layer 7">
    <path class="cls-9" d="M2058.72,1045.74c-6.45-.17-15.98-5.54-20.01-9.24-.6-.55-1.12-1.09-1.62-1.63-2.42-4.02-5.05-7.94-6.82-12.24-.23-2.08-.51-4.44-.48-4.31-.33-1.2-.77-2.26-1.23-3.27-.03-.34-.06-.68-.1-1.02.04-.43.08-.86.11-1.32.15-2.65-.28-5.6-1.2-8.11-.27-.74-.58-1.45-.91-2.13.02-.22.04-.45.07-.67.35-2.23.3-4.46-.15-6.56.1-.21.26-.59.5-1.16.61-1.28,1.97-4.17,2.54-6.59.58-.7,1.15-1.42,1.66-2.18,1.69-2.74,2.1-5.41,2.37-8.55.62-7.27-6.65-13.5-13.5-13.5-5.49,0-9.61,3.06-11.8,7.41-.04.05-.07.08-.12.14-1.1,1.19-2.25,2.55-3.07,3.96-.81,1.39-1.37,3.11-1.76,4.68-.54,2.19-.81,3.37-.91,3.93-.71,1.59-1.87,4.13-2.28,5.71-.82,3.15-1.04,6.56-1.26,9.8-.37,5.54-.44,11.4.98,16.83-.12,1.49.02,3.03.49,4.57.59,1.93.75,3.95,1.39,5.86.78,2.35,1.78,4.67,3.1,6.78,3.11,9.85,10.78,19.63,18.64,25.74,9.79,7.61,22.86,13.74,35.38,14.08,7.29.19,13.5-6.34,13.5-13.5s-6.18-13.3-13.5-13.5Z"/>
    <path class="cls-9" d="M2162.58,938.92c.25-1.01.39-2.07.39-3.18,0-7.26-6.18-13.58-13.5-13.5-1.2.01-2.4.03-3.6.04-.4,0-.8.03-1.19.07-7.58-.07-15.05-1-22.46,1.79-.12.05-.24.1-.36.15-12.47-.28-25.36,2.8-37.51,4.81-13.12,2.17-25.92,5.38-38.4,9.97-6.84,2.51-11.48,9.16-9.43,16.61,1.81,6.59,9.73,11.95,16.61,9.43,6.79-2.49,13.69-4.58,20.67-6.32,4.07,2.31,9.26,2.41,13.61.05.47-.26,2.29-.74,3.46-.73,2.64.03,5.29.09,7.93.14,5.97.1,11.78-.97,17.71-1.4,10.57-.77,21.24.48,31.1,4.68,6.7,2.85,14.47,2,18.47-4.84,3.08-5.27,2.07-14.21-3.5-17.75Z"/>
  </g>
  <g id="Layer_4" data-name="Layer 4">
    <path class="cls-5" d="M2782.11,1263.3c-20.99-4.22-50.49-10.44-85.7-18.78-54.13-12.83-81.78-19.47-110.35-30.52-3.69-1.43-48.57-19.04-95.09-49.3-13.61-8.85-24.77-17.11-36.39-28.17-9.42-8.97-16.18-25.22-31.7-37.57-2.62-2.08-6.51-4.94-12-7.3-10.73-4.62-20.3-4.25-23.48-4.17-17.56.4-18.56-4.36-58.43-7.83-12.95-1.13-42.1-3.17-78.78-1.04-27.51,1.59-26.82,3.65-50.09,4.17-12.37.28-28.25-.68-60-2.61-47.24-2.86-31.62-2.95-56.35-4.17-22.34-1.11-28.51-.71-39.13-4.7-5.93-2.23-21.16-8.18-32.87-24-10.65-14.39-12.44-28.92-13.04-34.43-.66-6-2.41-24.11,7.83-42.26,11.5-20.4,31.04-28.25,43.83-33.39,8.12-3.27,19.16-5.13,41.22-8.87,27.38-4.64,41.07-6.95,58.96-7.83,10.25-.5,21.55-.56,43.3-2.09,6.74-.47,11.34-.86,13.57-1.04,30.03-2.43,54.33-.74,87.65-1.04,22.57-.2,39.62-.36,63.13-3.13,20.66-2.44,37.7-4.55,57.91-12,15.69-5.78,28.94-13.17,49.57-27.65,21.96-15.42,51.8-38.55,85.04-71.48"/>
    <path class="cls-6" d="M2116.51,1048.08c4.04-2.63,6.31-6.15,8.61-10.57,5.79-11.14,8.1-20.99,8.22-21.52,2.37-10.44,2.36-18.24,2.35-28.57-.01-8.23-.56-17.09-3.13-26.22-.26-.93-1.9-6.56-6.26-12.13-2.32-2.97-4.18-4.35-6.26-5.09-2.47-.87-4.57-.59-6.26-.39-5.19.6-10.45.34-15.65.78-1.26.11-8.1.67-15.26.78-5.27.08-10.82-.21-21.91-.78-10-.52-11.14-.71-14.48-.39-7.8.75-13.39,2.92-14.87,3.52-4.15,1.68-10.04,4.06-15.26,9.78-4.94,5.42-6.74,11.04-8.22,15.65-1.88,5.88-2.17,10.22-2.74,18.78-.64,9.57-.96,14.44.39,21.13.69,3.39,2.01,9.64,6.26,16.43,3.41,5.45,7.02,8.56,12.52,13.3,5.28,4.56,8.46,7.3,13.7,9.39,4.69,1.88,8.55,2.25,13.7,2.74,3.44.33,6.27.38,16.43,0,5.64-.21,6.22-.29,22.3-1.17,6.58-.36,11.53-.63,18-2.35,4.36-1.16,6.33-2.16,7.83-3.13Z"/>
    <path class="cls-5" d="M2422.9,1098.95c11.14,2.33,27.42,4.57,46.96,3.13,17.49-1.29,42.07-5.85,67.83-19.83,25.29-13.73,41.59-31.05,50.61-42.26"/>
    <path class="cls-5" d="M2601.33,1067.13c-16.71,13.32-31.81,23.01-43.3,29.74-25.07,14.68-46.57,26.96-76.17,29.22-10.19.78-18.7.17-24.52-.52"/>
    <path class="cls-5" d="M2487.07,1134.43c18.23-.07,48.69-2.67,81.91-18.26,20.04-9.4,35.23-20.79,45.91-30.26"/>
  </g>
</svg>