<?xml version="1.0" encoding="UTF-8"?>
<svg id="Layer_1" data-name="Layer 1" xmlns="http://www.w3.org/2000/svg" viewBox="0 0 4200 2000">
  <defs>
    <style>
      .cls-1 {
        fill: #849596;
      }

      .cls-2 {
        fill: #b0bfc1;
      }

      .cls-3 {
        stroke: #7c91a6;
      }

      .cls-3, .cls-4 {
        fill: none;
        stroke-miterlimit: 10;
      }

      .cls-5 {
        fill: #e9feff;
      }

      .cls-6 {
        fill: #f2f2f2;
      }

      .cls-7 {
        fill: #ede4bc;
      }

      .cls-8 {
        fill: #ddd;
      }

      .cls-9 {
        fill: #d6e4e5;
      }

      .cls-10 {
        fill: #7c91a6;
      }

      .cls-4 {
        stroke: #1a1a1a;
      }

      .cls-11 {
        fill: #bab290;
      }

      .cls-12 {
        fill: #2c353d;
      }
    </style>
  </defs>
  <polygon class="cls-8" points="1685.03 1854.27 1434.74 1642.16 1426.76 1642.45 1244.51 1720.76 1244.7 1726.11 1488.8 1956.65 1685.26 1860.69 1685.03 1854.27"/>
  <g>
    <polygon class="cls-6" points="2567.27 1666.42 2415.58 1541.62 2404.24 1540.67 2084.24 1629.85 2083.63 1637.04 2223.13 1779.88 2235.22 1780.89 2566.72 1673.03 2567.27 1666.42"/>
    <line class="cls-4" x1="2395.75" y1="1553.74" x2="2524.45" y2="1663.16"/>
    <line class="cls-4" x1="2366.8" y1="1566.14" x2="2495.51" y2="1675.55"/>
    <line class="cls-4" x1="2331.65" y1="1578.01" x2="2460.36" y2="1687.43"/>
    <line class="cls-4" x1="2295.68" y1="1591.97" x2="2424.38" y2="1701.39"/>
    <line class="cls-4" x1="2256.61" y1="1603.45" x2="2385.32" y2="1712.87"/>
    <line class="cls-4" x1="2213.03" y1="1615.51" x2="2338.76" y2="1728.33"/>
    <line class="cls-4" x1="2169.05" y1="1625.75" x2="2293.77" y2="1739.69"/>
    <line class="cls-4" x1="2129.42" y1="1637.94" x2="2251.21" y2="1755.01"/>
  </g>
  <polygon class="cls-2" points="1369.73 361.62 1961.31 275.05 2550.84 573.93 2499.3 1748.86 1866.49 1961.17 1413.01 1588.08 1369.73 361.62"/>
  <polygon class="cls-12" points="1949.98 904.77 1949.98 757.38 2475.26 657.07 2475.26 1133.22 2234.77 1133.22 1949.98 904.77"/>
  <path class="cls-11" d="M2048.34,1083.64l5.86-269.48c.19-8.79,6.37-16.3,14.95-18.19l149.81-32.93c11.88-2.61,23.14,6.44,23.14,18.6v24.75l247.14-47.42c17.32-3.32,33.79,8.85,35.69,26.39l28.43,262.72-505.01,35.56Z"/>
  <path class="cls-7" d="M2058.47,1092.11l5.86-269.48c.19-8.79,6.37-16.3,14.95-18.19l149.81-32.93c11.88-2.61,23.14,6.44,23.14,18.6v24.75l247.14-47.42c17.32-3.32,33.79,8.85,35.69,26.39l28.43,262.72-505.01,35.56Z"/>
  <path class="cls-11" d="M2072.95,1097.94l5.86-269.48c.19-8.79,6.37-16.3,14.95-18.19l149.81-32.93c11.88-2.61,23.14,6.44,23.14,18.6v24.75l247.14-47.42c17.32-3.32,33.79,8.85,35.69,26.39l28.43,262.72-505.01,35.56Z"/>
  <path class="cls-7" d="M2084.48,1105.69l5.86-269.48c.19-8.79,6.37-16.3,14.95-18.19l149.81-32.93c11.88-2.61,23.14,6.44,23.14,18.6v24.75l247.14-47.42c17.32-3.32,33.79,8.85,35.69,26.39l28.43,262.72-505.01,35.56Z"/>
  <path class="cls-11" d="M2098.71,1111.92l5.86-269.48c.19-8.79,6.37-16.3,14.95-18.19l149.81-32.93c11.88-2.61,23.14,6.44,23.14,18.6v24.75l247.14-47.42c17.32-3.32,33.79,8.85,35.69,26.39l28.43,262.72-505.01,35.56Z"/>
  <path class="cls-7" d="M2113.85,1118.11l5.86-269.48c.19-8.79,6.37-16.3,14.95-18.19l149.81-32.93c11.88-2.61,23.14,6.44,23.14,18.6v24.75l247.14-47.42c17.32-3.32,33.79,8.85,35.69,26.39l28.43,262.72-505.01,35.56Z"/>
  <path class="cls-11" d="M2129.31,1126.35l5.86-269.48c.19-8.79,6.37-16.3,14.95-18.19l149.81-32.93c11.88-2.61,23.14,6.44,23.14,18.6v24.75l247.14-47.42c17.32-3.32,33.79,8.85,35.69,26.39l28.43,262.72-505.01,35.56Z"/>
  <path class="cls-7" d="M2142.37,1131.27l5.86-269.48c.19-8.79,6.37-16.3,14.95-18.19l149.81-32.93c11.88-2.61,23.14,6.44,23.14,18.6v24.75l247.14-47.42c17.32-3.32,33.79,8.85,35.69,26.39l28.43,262.72-505.01,35.56Z"/>
  <path class="cls-11" d="M2156.1,1140.55l5.86-269.48c.19-8.79,6.37-16.3,14.95-18.19l149.81-32.93c11.88-2.61,23.14,6.44,23.14,18.6v24.75l247.14-47.42c17.32-3.32,33.79,8.85,35.69,26.39l28.43,262.72-505.01,35.56Z"/>
  <path class="cls-7" d="M2169.83,1149.82l5.86-269.48c.19-8.79,6.37-16.3,14.95-18.19l149.81-32.93c11.88-2.61,23.14,6.44,23.14,18.6v24.75l247.14-47.42c17.32-3.32,33.79,8.85,35.69,26.39l28.43,262.72-505.01,35.56Z"/>
  <path class="cls-11" d="M2188.05,1153.66l5.86-269.48c.19-8.79,6.37-16.3,14.95-18.19l149.81-32.93c11.88-2.61,23.14,6.44,23.14,18.6v24.75l247.14-47.42c17.32-3.32,33.79,8.85,35.69,26.39l28.43,262.72-505.01,35.56Z"/>
  <path class="cls-7" d="M2205.57,1161.39l5.86-269.48c.19-8.79,6.37-16.3,14.95-18.19l149.81-32.93c11.88-2.61,23.14,6.44,23.14,18.6v24.75l247.14-47.42c17.32-3.32,33.79,8.85,35.69,26.39l28.43,262.72-505.01,35.56Z"/>
  <path class="cls-11" d="M2222.75,1170.18l5.86-269.48c.19-8.79,6.37-16.3,14.95-18.19l149.81-32.93c11.88-2.61,23.14,6.44,23.14,18.6v24.75l247.14-47.42c17.32-3.32,33.79,8.85,35.69,26.39l28.43,262.72-505.01,35.56Z"/>
  <path class="cls-7" d="M2240.62,1178.16l5.86-269.48c.19-8.79,6.37-16.3,14.95-18.19l149.81-32.93c11.88-2.61,23.14,6.44,23.14,18.6v24.75l247.14-47.42c17.32-3.32,33.79,8.85,35.69,26.39l28.43,262.72-505.01,35.56Z"/>
  <polygon class="cls-1" points="1866.49 1961.17 1413.01 1588.08 1369.73 361.62 1866.49 692.8 1866.49 1961.17"/>
  <polygon class="cls-9" points="1866.49 692.8 2550.84 573.93 1961.31 275.05 1369.73 361.62 1866.49 692.8"/>
  <polygon class="cls-9" points="1956.16 1550.97 2440.56 1414.93 2433.34 1696.29 1956.16 1856.04 1956.16 1550.97"/>
  <polygon class="cls-9" points="2445.71 1332.48 1956.16 1468.52 1951.01 1170.67 2445.71 1059.36 2445.71 1332.48"/>
  <g>
    <polygon class="cls-5" points="2312.76 1125.97 2083.96 1191.25 2083.96 1264.77 2312.76 1198.12 2312.76 1125.97"/>
    <polygon class="cls-12" points="2106.98 1200.87 2106.98 1238.66 2294.21 1186.78 2294.21 1147.62 2106.98 1200.87"/>
    <polygon class="cls-1" points="2294.21 1147.62 2283.79 1150.58 2283.79 1189.67 2294.21 1186.78 2294.21 1147.62"/>
  </g>
  <polygon class="cls-9" points="2300.85 1338.66 2833.23 1208.8 2840.45 869.72 2795.1 849.11 2269.47 968.67 2263.29 1317.02 2300.85 1338.66"/>
  <polygon class="cls-10" points="2306.12 987.22 2840.45 869.72 2795.1 849.11 2269.47 968.67 2306.12 987.22"/>
  <polygon class="cls-1" points="1949.98 929.5 2269.47 1126.35 2269.47 1294.35 1949.98 1088.22 1949.98 929.5"/>
  <polygon class="cls-10" points="2277.72 1106.77 1949.98 904.77 1949.98 929.5 2269.47 1126.35 2277.72 1106.77"/>
  <polygon class="cls-10" points="2269.47 968.67 2263.29 1317.02 2300.85 1338.66 2306.12 987.22 2269.47 968.67"/>
  <polygon class="cls-5" points="2342.65 1476.77 2113.85 1542.04 2113.85 1615.56 2342.65 1548.91 2342.65 1476.77"/>
  <polygon class="cls-12" points="2136.86 1551.66 2136.86 1589.45 2324.1 1537.58 2324.1 1498.41 2136.86 1551.66"/>
  <polygon class="cls-10" points="2324.1 1498.41 2313.68 1501.37 2313.68 1540.46 2324.1 1537.58 2324.1 1498.41"/>
  <polygon class="cls-5" points="2721.36 935.04 2489.66 989.11 2486.09 1062.54 2717.86 1007.1 2721.36 935.04"/>
  <polygon class="cls-12" points="2512.18 999.84 2510.35 1037.58 2699.88 994.87 2701.78 955.75 2512.18 999.84"/>
  <polygon class="cls-10" points="2701.78 955.75 2691.23 958.2 2689.33 997.25 2699.88 994.87 2701.78 955.75"/>
  <g>
    <polygon class="cls-6" points="3383.21 128.55 3165.18 25.78 3147.26 32.22 2996.45 352.18 3002.23 368.27 3226.47 473.97 3237.08 470.16 3389.65 146.47 3383.21 128.55"/>
    <line class="cls-4" x1="3156.15" y1="93.94" x2="3336.39" y2="178.9"/>
    <line class="cls-4" x1="3142.67" y1="122.53" x2="3322.91" y2="207.49"/>
    <line class="cls-4" x1="3129.2" y1="151.12" x2="3309.44" y2="236.07"/>
    <line class="cls-4" x1="3115.72" y1="179.71" x2="3295.96" y2="264.66"/>
    <line class="cls-4" x1="3102.25" y1="208.3" x2="3282.48" y2="293.25"/>
    <line class="cls-4" x1="3088.77" y1="236.89" x2="3269.01" y2="321.84"/>
    <line class="cls-4" x1="3075.3" y1="265.48" x2="3255.53" y2="350.43"/>
    <line class="cls-4" x1="3061.82" y1="294.07" x2="3242.06" y2="379.02"/>
    <line class="cls-4" x1="3048.34" y1="322.65" x2="3228.58" y2="407.61"/>
  </g>
  <path class="cls-3" d="M2725.24,810.55c20.7-6.68,94.41-33.19,131.11-106.47,41.44-82.75,26.38-206.54-38.27-233.16-46.38-19.1-122.39,10.13-139.57,63.91-16.9,52.91,27.68,115.27,72.04,134.14,79.23,33.7,209.26-49.45,323.78-210.59"/>
  <g>
    <polygon class="cls-6" points="2876.52 1818.64 2714.91 1706.99 2703.53 1706.99 2392.12 1822.65 2392.12 1829.88 2543.09 1960.52 2555.22 1960.52 2876.52 1825.27 2876.52 1818.64"/>
    <line class="cls-4" x1="2696.16" y1="1720.73" x2="2833.57" y2="1818.98"/>
    <line class="cls-4" x1="2668.35" y1="1735.5" x2="2805.77" y2="1833.76"/>
    <line class="cls-4" x1="2634.32" y1="1750.28" x2="2771.74" y2="1848.53"/>
    <line class="cls-4" x1="2599.64" y1="1767.2" x2="2737.06" y2="1865.45"/>
    <line class="cls-4" x1="2561.67" y1="1781.91" x2="2699.09" y2="1880.17"/>
    <line class="cls-4" x1="2519.26" y1="1797.58" x2="2654" y2="1899.48"/>
    <line class="cls-4" x1="2476.29" y1="1811.47" x2="2610.12" y2="1914.56"/>
    <line class="cls-4" x1="2437.82" y1="1826.94" x2="2568.99" y2="1933.39"/>
  </g>
  <g>
    <g>
      <polygon class="cls-6" points="1688.24 1842.07 1437.95 1629.95 1429.97 1630.24 1247.71 1708.55 1247.91 1713.91 1492.01 1944.44 1688.47 1848.48 1688.24 1842.07"/>
      <line class="cls-4" x1="1296.21" y1="1719.31" x2="1443.48" y2="1656.27"/>
      <line class="cls-4" x1="1317.62" y1="1739.66" x2="1464.88" y2="1676.61"/>
      <line class="cls-4" x1="1341.57" y1="1763.5" x2="1488.83" y2="1700.45"/>
      <line class="cls-4" x1="1370.69" y1="1789.5" x2="1517.96" y2="1726.46"/>
    </g>
    <line class="cls-4" x1="1402.82" y1="1813.53" x2="1549.18" y2="1748.4"/>
    <line class="cls-4" x1="1436.01" y1="1845.33" x2="1578.49" y2="1772.1"/>
    <line class="cls-4" x1="1460.95" y1="1868.03" x2="1603.1" y2="1794.19"/>
    <line class="cls-4" x1="1489.33" y1="1896.02" x2="1631.35" y2="1821.91"/>
  </g>
</svg>