<?xml version="1.0" encoding="UTF-8"?>
<svg id="Layer_1" data-name="Layer 1" xmlns="http://www.w3.org/2000/svg" xmlns:xlink="http://www.w3.org/1999/xlink" viewBox="0 0 4200 2000">
  <defs>
    <style>
      .cls-1 {
        stroke-width: .5px;
      }

      .cls-1, .cls-2, .cls-3 {
        fill: none;
      }

      .cls-1, .cls-2, .cls-3, .cls-4 {
        stroke-miterlimit: 10;
      }

      .cls-1, .cls-2, .cls-4 {
        stroke: #000;
      }

      .cls-5 {
        fill: #f88;
      }

      .cls-6 {
        fill: #c8ffae;
      }

      .cls-7, .cls-4 {
        fill: #fff;
      }

      .cls-8 {
        fill: #244b72;
      }

      .cls-9 {
        fill: #fffcee;
      }

      .cls-3 {
        stroke: #f88;
        stroke-width: 6px;
      }

      .cls-10 {
        fill: #8e8e8e;
      }

      .cls-11 {
        fill: #7c6dc6;
      }

      .cls-12 {
        filter: url(#drop-shadow-1);
      }

      .cls-13 {
        fill: #ffb;
      }

      .cls-14 {
        fill: #d7fdff;
      }

      .cls-15 {
        fill: #c6bfa3;
      }

      .cls-16 {
        fill: #c4c4c4;
      }

      .cls-17 {
        fill: #ffa65c;
      }

      .cls-18 {
        fill: #666;
      }

      .cls-19 {
        fill: #9fdfff;
      }

      .cls-20 {
        fill: #b5a1ff;
      }

      .cls-21 {
        fill: #515151;
      }

      .cls-4 {
        stroke-width: .75px;
      }

      .cls-22 {
        fill: #353535;
      }

      .cls-23 {
        fill: #aaa;
      }

      .cls-24 {
        fill: #adadad;
      }
    </style>
    <filter id="drop-shadow-1" x="1443" y="495" width="452" height="558" filterUnits="userSpaceOnUse">
      <feOffset dx="-4" dy="4"/>
      <feGaussianBlur result="blur" stdDeviation="5"/>
      <feFlood flood-color="#000" flood-opacity=".5"/>
      <feComposite in2="blur" operator="in"/>
      <feComposite in="SourceGraphic"/>
    </filter>
  </defs>
  <path class="cls-3" d="M2956.97,1635.63c-58-13.02-127.75-35.78-149.08-76.71-20.67-39.66,17.14-71.38,27.74-107.39,15.06-51.19-19.93-127.83-232.29-241.09"/>
  <path class="cls-3" d="M1331.15,1608.51c-32.49-14.27-106.71-52.11-163.82-135.21-12.11-17.62-71.09-106.62-67.61-228.82,5.75-201.92,177.01-318.41,195.02-330.23"/>
  <path class="cls-3" d="M1769.4,1257.53c-35.49,14.5-89.54,33.72-157.61,46.7-88.69,16.91-184.87,35.25-288.95-5.84-36.55-14.43-105-41.45-148.85-113.83-55.89-92.25-31.25-191.23-25.18-213.31"/>
  <path class="cls-22" d="M1689.06,1507.01h672.96V67.38h-657.15c-8.73,0-15.8,7.08-15.8,15.8v1423.82Z"/>
  <path class="cls-21" d="M2062.65,1507.01h626.14c8.73,0,15.8-7.08,15.8-15.8V83.18c0-8.73-7.08-15.8-15.8-15.8h-608.92c-9.51,0-17.22,7.71-17.22,17.22v1422.41Z"/>
  <path class="cls-3" d="M1865.05,1064.57c-19.43,35.14-65.85,107.29-154.69,153.8-32.8,17.17-172.46,90.29-280.19,17.51-75.87-51.25-97.7-149.05-91.94-218.08,10.07-120.51,110.49-227.81,252.46-265.26"/>
  <path class="cls-24" d="M1660.62,1508.66h621.73c11.16,0,20.21-9.05,20.21-20.21v-162.75c0-7.46-6.05-13.51-13.51-13.51h-628.43v196.47Z"/>
  <path class="cls-16" d="M2060.86,1508.66h629.89c9.97,0,18.05-8.08,18.05-18.05v-178.42h-647.94v196.47Z"/>
  <rect class="cls-24" x="2094.07" y="256.36" width="586.6" height="100.69" rx="11.14" ry="11.14"/>
  <rect class="cls-16" x="2109.48" y="266.58" width="558.79" height="80.26" rx="10.72" ry="10.72"/>
  <circle class="cls-22" cx="2647.84" cy="448.67" r="12.4"/>
  <circle class="cls-22" cx="2647.84" cy="506.2" r="12.4"/>
  <rect class="cls-22" x="2548.61" y="562.67" width="109.45" height="40.13" rx="2.35" ry="2.35"/>
  <rect class="cls-22" x="2548.61" y="635.67" width="109.45" height="40.13" rx="2.35" ry="2.35"/>
  <path class="cls-21" d="M2745.92,1906.6h-1621.92c-16.25,0-29.97-11.77-32.02-27.48l-40.13-307.09c-1.44-11.03,7.38-20.78,18.78-20.78h1627.27c11.79,0,21.79,8.46,23.44,19.84l45.33,312.23c1.79,12.3-8.01,23.29-20.76,23.29Z"/>
  <path class="cls-10" d="M2749.74,1865.38h-1581.03c-16.51,0-30.36-12.45-32.12-28.87l-28.23-264.42c-1.2-11.2,7.58-20.96,18.84-20.96h1573.5c11.84,0,21.87,8.75,23.47,20.48l38.17,279.33c1.04,7.63-4.89,14.43-12.6,14.43Z"/>
  <rect class="cls-16" x="1612.11" y="1775.72" width="566.62" height="72.81" rx="6.42" ry="6.42"/>
  <rect class="cls-16" x="1496.73" y="1775.72" width="72.81" height="72.81" rx="4.78" ry="4.78"/>
  <rect class="cls-16" x="1396.85" y="1775.72" width="72.81" height="72.81" rx="4.78" ry="4.78"/>
  <rect class="cls-16" x="1295.38" y="1775.72" width="72.81" height="72.81" rx="4.78" ry="4.78"/>
  <rect class="cls-16" x="1396.85" y="1682.11" width="72.81" height="72.81" rx="4.78" ry="4.78"/>
  <rect class="cls-16" x="1496.73" y="1682.11" width="72.81" height="72.81" rx="4.78" ry="4.78"/>
  <rect class="cls-16" x="1601.46" y="1682.11" width="72.81" height="72.81" rx="4.78" ry="4.78"/>
  <rect class="cls-16" x="1703.77" y="1682.11" width="72.81" height="72.81" rx="4.78" ry="4.78"/>
  <rect class="cls-16" x="1902" y="1682.11" width="72.81" height="72.81" rx="4.78" ry="4.78"/>
  <rect class="cls-16" x="1806.08" y="1682.11" width="72.81" height="72.81" rx="4.78" ry="4.78"/>
  <rect class="cls-16" x="2105.41" y="1682.11" width="72.81" height="72.81" rx="4.78" ry="4.78"/>
  <rect class="cls-16" x="1997.92" y="1682.11" width="72.81" height="72.81" rx="4.78" ry="4.78"/>
  <rect class="cls-16" x="1325.82" y="1588.5" width="72.81" height="72.81" rx="4.78" ry="4.78"/>
  <rect class="cls-16" x="1423.92" y="1588.5" width="72.81" height="72.81" rx="4.78" ry="4.78"/>
  <rect class="cls-16" x="1526.98" y="1588.5" width="72.81" height="72.81" rx="4.78" ry="4.78"/>
  <rect class="cls-16" x="1629.77" y="1588.5" width="72.81" height="72.81" rx="4.78" ry="4.78"/>
  <rect class="cls-16" x="1732.32" y="1588.5" width="72.81" height="72.81" rx="4.78" ry="4.78"/>
  <rect class="cls-16" x="1833.72" y="1588.5" width="72.81" height="72.81" rx="4.78" ry="4.78"/>
  <rect class="cls-16" x="1931.32" y="1588.5" width="72.81" height="72.81" rx="4.78" ry="4.78"/>
  <rect class="cls-16" x="2034.33" y="1588.5" width="72.81" height="72.81" rx="4.78" ry="4.78"/>
  <rect class="cls-16" x="2141.81" y="1588.5" width="72.81" height="72.81" rx="4.78" ry="4.78"/>
  <rect class="cls-16" x="1194.83" y="1775.72" width="72.81" height="72.81" rx="4.78" ry="4.78"/>
  <rect class="cls-16" x="1195.95" y="1682.11" width="172.23" height="72.81" rx="4.78" ry="4.78"/>
  <rect class="cls-16" x="2217.7" y="1682.11" width="172.23" height="72.81" rx="4.78" ry="4.78"/>
  <rect class="cls-16" x="1195.95" y="1588.5" width="99.42" height="72.81" rx="4.78" ry="4.78"/>
  <path class="cls-18" d="M1208.33,1650.72v-51.63c0-5.85,4.74-10.59,10.59-10.59h-19.58c-2.49,0-4.51,2.02-4.51,4.51v63.79c0,2.49,2.02,4.51,4.51,4.51h19.58c-5.85,0-10.59-4.74-10.59-10.59Z"/>
  <path class="cls-18" d="M1339.32,1650.72v-51.63c0-5.85,4.74-10.59,10.59-10.59h-18.82c-2.91,0-5.27,2.36-5.27,5.27v62.26c0,2.91,2.36,5.27,5.27,5.27h18.82c-5.85,0-10.59-4.74-10.59-10.59Z"/>
  <path class="cls-18" d="M1437.42,1650.72v-51.63c0-5.85,4.74-10.59,10.59-10.59h-19.34c-2.62,0-4.75,2.12-4.75,4.75v63.31c0,2.62,2.12,4.75,4.75,4.75h19.34c-5.85,0-10.59-4.74-10.59-10.59Z"/>
  <path class="cls-18" d="M1540.34,1650.72v-51.63c0-5.85,4.74-10.59,10.59-10.59h-19.41c-2.58,0-4.68,2.09-4.68,4.68v63.46c0,2.58,2.09,4.68,4.68,4.68h19.41c-5.85,0-10.59-4.74-10.59-10.59Z"/>
  <path class="cls-18" d="M1643.08,1650.72v-51.63c0-5.85,4.74-10.59,10.59-10.59h-19.75c-2.4,0-4.34,1.94-4.34,4.34v64.12c0,2.4,1.94,4.34,4.34,4.34h19.75c-5.85,0-10.59-4.74-10.59-10.59Z"/>
  <path class="cls-18" d="M1745.15,1650.72v-51.63c0-5.85,4.74-10.59,10.59-10.59h-18.25c-3.22,0-5.84,2.61-5.84,5.84v61.13c0,3.22,2.61,5.84,5.84,5.84h18.25c-5.85,0-10.59-4.74-10.59-10.59Z"/>
  <path class="cls-18" d="M1844.98,1650.72v-51.63c0-5.85,4.74-10.59,10.59-10.59h-18.34c-3.17,0-5.75,2.57-5.75,5.75v61.31c0,3.17,2.57,5.75,5.75,5.75h18.34c-5.85,0-10.59-4.74-10.59-10.59Z"/>
  <path class="cls-18" d="M1944.81,1650.72v-51.63c0-5.85,4.74-10.59,10.59-10.59h-20.09c-2.21,0-4,1.79-4,4v64.81c0,2.21,1.79,4,4,4h20.09c-5.85,0-10.59-4.74-10.59-10.59Z"/>
  <path class="cls-18" d="M2044.2,1650.72v-51.63c0-5.85,4.74-10.59,10.59-10.59h-16.31c-4.3,0-7.78,3.48-7.78,7.78v57.25c0,4.3,3.48,7.78,7.78,7.78h16.31c-5.85,0-10.59-4.74-10.59-10.59Z"/>
  <path class="cls-18" d="M2153.39,1650.72v-51.63c0-5.85,4.74-10.59,10.59-10.59h-17.07c-3.88,0-7.02,3.14-7.02,7.02v58.76c0,3.88,3.14,7.02,7.02,7.02h17.07c-5.85,0-10.59-4.74-10.59-10.59Z"/>
  <path class="cls-18" d="M1208.33,1744.33v-51.63c0-5.85,4.74-10.59,10.59-10.59h-18.39c-3.15,0-5.7,2.55-5.7,5.7v61.4c0,3.15,2.55,5.7,5.7,5.7h18.39c-5.85,0-10.59-4.74-10.59-10.59Z"/>
  <path class="cls-18" d="M1409.55,1744.33v-51.63c0-5.85,4.74-10.59,10.59-10.59h-19.34c-2.62,0-4.75,2.12-4.75,4.75v63.32c0,2.62,2.12,4.75,4.75,4.75h19.34c-5.85,0-10.59-4.74-10.59-10.59Z"/>
  <path class="cls-18" d="M1510.23,1744.33v-51.63c0-5.85,4.74-10.59,10.59-10.59h-20.64c-1.91,0-3.45,1.55-3.45,3.45v65.9c0,1.91,1.55,3.45,3.45,3.45h20.64c-5.85,0-10.59-4.74-10.59-10.59Z"/>
  <path class="cls-18" d="M1613.75,1744.33v-51.63c0-5.85,4.74-10.59,10.59-10.59h-18.28c-3.21,0-5.81,2.6-5.81,5.81v61.18c0,3.21,2.6,5.81,5.81,5.81h18.28c-5.85,0-10.59-4.74-10.59-10.59Z"/>
  <path class="cls-18" d="M1716.66,1744.33v-51.63c0-5.85,4.74-10.59,10.59-10.59h-19.25c-2.67,0-4.84,2.17-4.84,4.84v63.12c0,2.67,2.17,4.84,4.84,4.84h19.25c-5.85,0-10.59-4.74-10.59-10.59Z"/>
  <path class="cls-18" d="M1819.58,1744.33v-51.63c0-5.85,4.74-10.59,10.59-10.59h-19.71c-2.42,0-4.38,1.96-4.38,4.38v64.06c0,2.42,1.96,4.38,4.38,4.38h19.71c-5.85,0-10.59-4.74-10.59-10.59Z"/>
  <path class="cls-18" d="M1915.5,1744.33v-51.63c0-5.85,4.74-10.59,10.59-10.59h-20.2c-2.15,0-3.89,1.74-3.89,3.89v65.02c0,2.15,1.74,3.89,3.89,3.89h20.2c-5.85,0-10.59-4.74-10.59-10.59Z"/>
  <path class="cls-18" d="M2011.42,1744.33v-51.63c0-5.85,4.74-10.59,10.59-10.59h-20.54c-1.96,0-3.55,1.59-3.55,3.55v65.71c0,1.96,1.59,3.55,3.55,3.55h20.54c-5.85,0-10.59-4.74-10.59-10.59Z"/>
  <path class="cls-18" d="M2116.01,1744.33v-51.63c0-5.85,4.74-10.59,10.59-10.59h-16.62c-4.12,0-7.46,3.34-7.46,7.46v57.88c0,4.12,3.34,7.46,7.46,7.46h16.62c-5.85,0-10.59-4.74-10.59-10.59Z"/>
  <path class="cls-18" d="M1208.33,1837.94v-51.63c0-5.85,4.74-10.59,10.59-10.59h-20.06c-2.22,0-4.03,1.8-4.03,4.03v64.75c0,2.22,1.8,4.03,4.03,4.03h20.06c-5.85,0-10.59-4.74-10.59-10.59Z"/>
  <path class="cls-18" d="M1308.87,1837.94v-51.63c0-5.85,4.74-10.59,10.59-10.59h-19.46c-2.56,0-4.63,2.07-4.63,4.63v63.55c0,2.56,2.07,4.63,4.63,4.63h19.46c-5.85,0-10.59-4.74-10.59-10.59Z"/>
  <path class="cls-18" d="M1409.55,1837.94v-51.63c0-5.85,4.74-10.59,10.59-10.59h-18.67c-2.99,0-5.42,2.43-5.42,5.42v61.97c0,2.99,2.43,5.42,5.42,5.42h18.67c-5.85,0-10.59-4.74-10.59-10.59Z"/>
  <path class="cls-18" d="M1510.23,1837.94v-51.63c0-5.85,4.74-10.59,10.59-10.59h-19.36c-2.61,0-4.73,2.12-4.73,4.73v63.36c0,2.61,2.12,4.73,4.73,4.73h19.36c-5.85,0-10.59-4.74-10.59-10.59Z"/>
  <path class="cls-18" d="M1625.79,1837.94v-51.63c0-5.85,4.74-10.59,10.59-10.59h-18.71c-2.97,0-5.38,2.41-5.38,5.38v62.05c0,2.97,2.41,5.38,5.38,5.38h18.71c-5.85,0-10.59-4.74-10.59-10.59Z"/>
  <rect class="cls-16" x="2249.07" y="1588.5" width="139.04" height="72.81" rx="4.78" ry="4.78"/>
  <rect class="cls-16" x="2519.59" y="1775.72" width="72.81" height="72.81" rx="4.78" ry="4.78"/>
  <rect class="cls-16" x="2622.13" y="1775.72" width="72.81" height="72.81" rx="4.78" ry="4.78"/>
  <rect class="cls-16" x="2419.71" y="1775.72" width="72.81" height="72.81" rx="4.78" ry="4.78"/>
  <rect class="cls-16" x="2519.59" y="1682.11" width="72.81" height="72.81" rx="4.78" ry="4.78"/>
  <rect class="cls-16" x="2622.13" y="1682.11" width="72.81" height="72.81" rx="4.78" ry="4.78"/>
  <rect class="cls-16" x="2419.71" y="1682.11" width="72.81" height="72.81" rx="4.78" ry="4.78"/>
  <rect class="cls-16" x="2519.59" y="1588.5" width="72.81" height="72.81" rx="4.78" ry="4.78"/>
  <rect class="cls-16" x="2622.13" y="1588.5" width="72.81" height="72.81" rx="4.78" ry="4.78"/>
  <rect class="cls-16" x="2419.71" y="1588.5" width="72.81" height="72.81" rx="4.78" ry="4.78"/>
  <rect class="cls-16" x="2318.24" y="1775.72" width="72.81" height="72.81" rx="4.78" ry="4.78"/>
  <rect class="cls-16" x="2217.7" y="1775.72" width="72.81" height="72.81" rx="4.78" ry="4.78"/>
  <path class="cls-18" d="M2262.57,1650.72v-51.63c0-5.85,4.74-10.59,10.59-10.59h-19.84c-2.35,0-4.25,1.9-4.25,4.25v64.31c0,2.35,1.9,4.25,4.25,4.25h19.84c-5.85,0-10.59-4.74-10.59-10.59Z"/>
  <path class="cls-18" d="M2231.19,1744.33v-51.63c0-5.85,4.74-10.59,10.59-10.59h-21c-1.71,0-3.09,1.38-3.09,3.09v66.63c0,1.71,1.38,3.09,3.09,3.09h21c-5.85,0-10.59-4.74-10.59-10.59Z"/>
  <path class="cls-18" d="M2433.41,1744.33v-51.63c0-5.85,4.74-10.59,10.59-10.59h-19.85c-2.34,0-4.24,1.9-4.24,4.24v64.32c0,2.34,1.9,4.24,4.24,4.24h19.85c-5.85,0-10.59-4.74-10.59-10.59Z"/>
  <path class="cls-18" d="M2530.68,1744.33v-51.63c0-5.85,4.74-10.59,10.59-10.59h-16.17c-4.37,0-7.92,3.54-7.92,7.92v56.97c0,4.37,3.54,7.92,7.92,7.92h16.17c-5.85,0-10.59-4.74-10.59-10.59Z"/>
  <path class="cls-18" d="M2629.85,1744.33v-51.63c0-5.85,4.74-10.59,10.59-10.59h-13.5c-5.85,0-10.59,4.74-10.59,10.59v51.63c0,5.85,4.74,10.59,10.59,10.59h13.5c-5.85,0-10.59-4.74-10.59-10.59Z"/>
  <path class="cls-18" d="M2632.96,1650.72v-51.63c0-5.85,4.74-10.59,10.59-10.59h-16.85c-4,0-7.24,3.24-7.24,7.24v58.33c0,4,3.24,7.24,7.24,7.24h16.85c-5.85,0-10.59-4.74-10.59-10.59Z"/>
  <path class="cls-18" d="M2530.68,1650.72v-51.63c0-5.85,4.74-10.59,10.59-10.59h-17.2c-3.8,0-6.89,3.08-6.89,6.89v59.03c0,3.8,3.08,6.89,6.89,6.89h17.2c-5.85,0-10.59-4.74-10.59-10.59Z"/>
  <path class="cls-18" d="M2428.99,1650.72v-51.63c0-5.85,4.74-10.59,10.59-10.59h-13.5c-5.85,0-10.59,4.74-10.59,10.59v51.63c0,5.85,4.74,10.59,10.59,10.59h13.5c-5.85,0-10.59-4.74-10.59-10.59Z"/>
  <path class="cls-18" d="M2228.12,1837.94v-51.63c0-5.85,4.74-10.59,10.59-10.59h-15.52c-4.73,0-8.57,3.84-8.57,8.57v55.66c0,4.73,3.84,8.57,8.57,8.57h15.52c-5.85,0-10.59-4.74-10.59-10.59Z"/>
  <path class="cls-18" d="M2330.66,1837.94v-51.63c0-5.85,4.74-10.59,10.59-10.59h-18.53c-3.07,0-5.56,2.49-5.56,5.56v61.69c0,3.07,2.49,5.56,5.56,5.56h18.53c-5.85,0-10.59-4.74-10.59-10.59Z"/>
  <path class="cls-18" d="M2431.88,1837.94v-51.63c0-5.85,4.74-10.59,10.59-10.59h-17.93c-3.4,0-6.16,2.76-6.16,6.16v60.48c0,3.4,2.76,6.16,6.16,6.16h17.93c-5.85,0-10.59-4.74-10.59-10.59Z"/>
  <path class="cls-18" d="M2530.68,1837.94v-51.63c0-5.85,4.74-10.59,10.59-10.59h-17.77c-3.49,0-6.32,2.83-6.32,6.32v60.16c0,3.49,2.83,6.32,6.32,6.32h17.77c-5.85,0-10.59-4.74-10.59-10.59Z"/>
  <path class="cls-18" d="M2632.96,1837.94v-51.63c0-5.85,4.74-10.59,10.59-10.59h-19.16c-2.72,0-4.93,2.21-4.93,4.93v62.94c0,2.72,2.21,4.93,4.93,4.93h19.16c-5.85,0-10.59-4.74-10.59-10.59Z"/>
  <ellipse class="cls-21" cx="3058.56" cy="1800.9" rx="143.58" ry="212" transform="translate(-377.6 2690.2) rotate(-45)"/>
  <ellipse class="cls-10" cx="3066.14" cy="1774.75" rx="129.69" ry="198.71" transform="translate(-356.88 2687.9) rotate(-45)"/>
  <path class="cls-23" d="M2991.77,1849.12c-72.67-72.67-96.44-168.45-57.59-221.92-3.63,2.64-7.07,5.56-10.29,8.78-50.65,50.65-28.79,154.61,48.81,232.21,77.6,77.6,181.57,99.45,232.21,48.81,3.22-3.22,6.14-6.66,8.78-10.29-53.47,38.86-149.26,15.08-221.92-57.59Z"/>
  <rect class="cls-21" x="2970.73" y="1594.07" width="46.8" height="94.65" rx="23.4" ry="23.4" transform="translate(-399.34 2020) rotate(-35.1)"/>
  <rect class="cls-5" x="1007.55" y="461.8" width="1273.99" height="688.8"/>
  <polygon class="cls-21" points="1782.59 1419.73 1507.97 1419.73 1545.26 1173.39 1745.29 1173.39 1782.59 1419.73"/>
  <polygon class="cls-10" points="1815.47 1419.73 1540.85 1419.73 1578.15 1173.39 1778.18 1173.39 1815.47 1419.73"/>
  <path class="cls-7" d="M2278.63,740.53c-220.98,182.69-384.73,204.67-493.25,191.17-105.97-13.18-159.02-60.17-310.84-121.12-189.71-76.16-356.4-102.97-465.53-113.83l11.67,452.39h1260.86l-2.92-408.61Z"/>
  <rect class="cls-8" x="1025.06" y="1089.31" width="1262.32" height="71.51"/>
  <path class="cls-21" d="M1020.69,1200.41h-79.88c-9.08,0-16.43-7.36-16.43-16.43V431.36c0-9.08,7.36-16.43,16.43-16.43h79.88v785.49Z"/>
  <rect class="cls-21" x="2244.33" y="448.67" width="37.21" height="700.48"/>
  <path class="cls-10" d="M2283.01,413.65H988.58c-16.93,0-30.65,13.72-30.65,30.65v726.75c0,16.93,13.72,30.65,30.65,30.65h1294.43c16.93,0,30.65-13.72,30.65-30.65V444.29c0-16.93-13.72-30.65-30.65-30.65ZM2271.57,1111.08c0,14.57-11.81,26.39-26.39,26.39h-1178.89c-14.57,0-26.39-11.81-26.39-26.39V504.25c0-14.57,11.82-26.39,26.39-26.39h1178.89c14.57,0,26.39,11.82,26.39,26.39v606.84Z"/>
  <g>
    <path class="cls-13" d="M1174.47,752.73h70.48c.7,0,1.27.57,1.27,1.27v41.08c0,.89-.72,1.61-1.61,1.61h-68.53c-.89,0-1.61-.72-1.61-1.61v-42.35h0Z"/>
    <path class="cls-13" d="M1176.09,744.41h35.97c1,0,1.81.81,1.81,1.81v21.4h-39.39v-21.6c0-.89.72-1.61,1.61-1.61Z"/>
  </g>
  <g>
    <path class="cls-13" d="M1174.47,874.76h70.48c.7,0,1.27.57,1.27,1.27v41.08c0,.89-.72,1.61-1.61,1.61h-68.53c-.89,0-1.61-.72-1.61-1.61v-42.35h0Z"/>
    <path class="cls-13" d="M1176.09,866.44h35.97c1,0,1.81.81,1.81,1.81v21.4h-39.39v-21.6c0-.89.72-1.61,1.61-1.61Z"/>
  </g>
  <g>
    <path class="cls-13" d="M1174.47,997.01h70.48c.7,0,1.27.57,1.27,1.27v41.08c0,.89-.72,1.61-1.61,1.61h-68.53c-.89,0-1.61-.72-1.61-1.61v-42.35h0Z"/>
    <path class="cls-13" d="M1176.09,988.69h35.97c1,0,1.81.81,1.81,1.81v21.4h-39.39v-21.6c0-.89.72-1.61,1.61-1.61Z"/>
  </g>
  <rect class="cls-11" x="1173.21" y="622.26" width="71.3" height="71.3" rx="6.7" ry="6.7"/>
  <rect class="cls-6" x="1173.21" y="513.61" width="71.3" height="71.3" rx="6.7" ry="6.7"/>
  <g class="cls-12">
    <polygon class="cls-9" points="1756.2 506.2 1475.96 506.2 1462.63 519.53 1462.63 1018.54 1477.16 1033.07 1872.16 1033.07 1883.99 1021.25 1883.99 633.99 1756.2 506.2"/>
    <polygon class="cls-15" points="1737.04 653.14 1883.99 633.55 1756.64 506.2 1737.04 653.14"/>
    <line class="cls-2" x1="1493.2" y1="575.16" x2="1684.92" y2="575.16"/>
    <line class="cls-2" x1="1493.2" y1="602.74" x2="1684.92" y2="602.74"/>
    <line class="cls-2" x1="1493.2" y1="630.33" x2="1684.92" y2="630.33"/>
    <line class="cls-2" x1="1493.2" y1="657.91" x2="1684.92" y2="657.91"/>
    <line class="cls-2" x1="1493.2" y1="773.08" x2="1834.57" y2="773.08"/>
    <line class="cls-2" x1="1493.2" y1="817.22" x2="1834.57" y2="817.22"/>
    <line class="cls-2" x1="1493.2" y1="861.35" x2="1834.57" y2="861.35"/>
    <line class="cls-2" x1="1493.2" y1="905.49" x2="1834.57" y2="905.49"/>
    <line class="cls-2" x1="1493.2" y1="949.63" x2="1834.57" y2="949.63"/>
  </g>
  <polygon class="cls-4" points="1958.43 782.38 1925.2 766.19 1935.36 801.73 1941.2 791.93 1954.85 808.2 1961.4 802.7 1947.76 786.43 1958.43 782.38"/>
  <rect class="cls-7" x="1192.6" y="1101.17" width="337.11" height="22.62" rx="5.11" ry="5.11"/>
  <g>
    <rect class="cls-6" x="1065.56" y="1098.98" width="13.5" height="13.5" rx="1.92" ry="1.92"/>
    <rect class="cls-14" x="1065.56" y="1115.04" width="13.5" height="13.5" rx="1.92" ry="1.92"/>
  </g>
  <g>
    <rect class="cls-13" x="1081.61" y="1098.98" width="13.5" height="13.5" rx="1.92" ry="1.92"/>
    <rect class="cls-5" x="1081.61" y="1115.04" width="13.5" height="13.5" rx="1.92" ry="1.92"/>
  </g>
  <circle class="cls-1" cx="1205.37" cy="1112.31" r="3.49"/>
  <line class="cls-1" x1="1210.35" y1="1119.38" x2="1207.38" y2="1115.16"/>
  <circle class="cls-14" cx="1642.37" cy="1112.82" r="16.39"/>
  <circle class="cls-14" cx="1106.64" cy="657.91" r="37.94"/>
  <g>
    <path class="cls-13" d="M1666.04,1103.66h40.08c.7,0,1.27.57,1.27,1.27v24.06h-41.35v-25.34h0Z"/>
    <path class="cls-13" d="M1666.04,1096.98h20.89c1,0,1.81.81,1.81,1.81v11.57h-22.7v-13.38h0Z"/>
  </g>
  <g>
    <path class="cls-13" d="M1069.33,527.28h70.48c.7,0,1.27.57,1.27,1.27v41.08c0,.89-.72,1.61-1.61,1.61h-68.53c-.89,0-1.61-.72-1.61-1.61v-42.35h0Z"/>
    <path class="cls-13" d="M1070.94,518.96h35.97c1,0,1.81.81,1.81,1.81v21.4h-39.39v-21.6c0-.89.72-1.61,1.61-1.61Z"/>
  </g>
  <rect class="cls-17" x="1718.33" y="1096.12" width="33.08" height="33.08" rx="2.63" ry="2.63"/>
  <rect class="cls-17" x="1068.47" y="734.91" width="71.3" height="71.3" rx="6.7" ry="6.7"/>
  <rect class="cls-19" x="1068.47" y="856.94" width="71.3" height="71.3" rx="6.7" ry="6.7"/>
  <rect class="cls-20" x="1068.47" y="979.18" width="71.3" height="71.3" rx="6.7" ry="6.7"/>
  <rect class="cls-19" x="1764.79" y="1096.12" width="33.08" height="33.08" rx="2.63" ry="2.63"/>
  <rect class="cls-20" x="1812.46" y="1096.12" width="33.08" height="33.08" rx="2.63" ry="2.63"/>
  <rect class="cls-14" x="2142.91" y="1103.66" width="84.64" height="15.71" rx="3.55" ry="3.55"/>
  <path class="cls-22" d="M2240.81,1208.33h-18.49c-1.95,0-3.52-1.58-3.52-3.52v-37.91c0-1.3,1.05-2.35,2.35-2.35h20.84c1.3,0,2.35,1.05,2.35,2.35v37.91c0,1.95-1.58,3.52-3.52,3.52Z"/>
  <path class="cls-22" d="M2196.48,1208.33h-18.49c-1.95,0-3.52-1.58-3.52-3.52v-37.91c0-1.3,1.05-2.35,2.35-2.35h20.84c1.3,0,2.35,1.05,2.35,2.35v37.91c0,1.95-1.58,3.52-3.52,3.52Z"/>
  <path class="cls-22" d="M2152.16,1208.33h-18.49c-1.95,0-3.52-1.58-3.52-3.52v-37.91c0-1.3,1.05-2.35,2.35-2.35h20.84c1.3,0,2.35,1.05,2.35,2.35v37.91c0,1.95-1.58,3.52-3.52,3.52Z"/>
  <path class="cls-21" d="M1505.96,1508.87h-254.66c-2.81,0-5.08-2.28-5.08-5.08v-61.59c0-20,16.21-36.21,36.21-36.21h223.53v102.88Z"/>
  <path class="cls-10" d="M2079.51,1508.87h-798.94c-2.81,0-5.08-2.28-5.08-5.08v-61.59c0-20,16.21-36.21,36.21-36.21h736.69c20,0,36.21,16.21,36.21,36.21v61.59c0,2.81-2.28,5.08-5.08,5.08Z"/>
  <rect class="cls-16" x="1560.64" y="1397.23" width="235.04" height="8.76" rx="1.98" ry="1.98"/>
  <rect class="cls-16" x="1590.92" y="1201.68" width="172.93" height="8.76" rx="1.98" ry="1.98"/>
  <circle class="cls-6" cx="2094.07" cy="1173.24" r="9.48"/>
  <circle class="cls-6" cx="2647.84" cy="215.18" r="9.48"/>
  <circle class="cls-16" cx="2647.84" cy="151.7" r="32.83"/>
</svg>