<?xml version="1.0" encoding="UTF-8"?>
<svg xmlns="http://www.w3.org/2000/svg" viewBox="0 0 4200 2000">
  <defs>
    <style>
      .cls-1 {
        fill: #bf2026;
      }

      .cls-2 {
        stroke: #44b226;
      }

      .cls-2, .cls-3 {
        stroke-width: 2px;
      }

      .cls-2, .cls-3, .cls-4 {
        fill: none;
        stroke-miterlimit: 10;
      }

      .cls-5 {
        fill: #fff;
        opacity: .5;
      }

      .cls-6 {
        fill: #f2f2f2;
      }

      .cls-3, .cls-4 {
        stroke: #333;
      }

      .cls-7 {
        fill: #666;
      }

      .cls-8 {
        fill: #333;
      }

      .cls-9 {
        fill: #999;
      }

      .cls-4 {
        stroke-width: 5px;
      }

      .cls-10 {
        fill: #ccc;
      }

      .cls-11 {
        fill: #b3b3b3;
      }

      .cls-12 {
        fill: gray;
      }

      .cls-13 {
        fill: #e6e6e6;
      }
    </style>
  </defs>
  <g id="Layer_10" data-name="Layer 10">
    <rect class="cls-11" x="2141.95" y="1841.5" width="242.63" height="101.48" transform="translate(4526.52 3784.48) rotate(-180)"/>
    <polygon class="cls-13" points="2141.95 1841.5 2079.84 1738.24 2296.26 1738.24 2384.58 1841.5 2141.95 1841.5"/>
    <polygon class="cls-12" points="2079.84 1738.24 2079.84 1831.17 2141.95 1942.98 2141.95 1841.5 2079.84 1738.24"/>
    <rect class="cls-11" x="1854.29" y="1841.5" width="242.63" height="101.48" transform="translate(3951.21 3784.48) rotate(-180)"/>
    <polygon class="cls-13" points="1854.29 1841.5 1792.18 1738.24 2008.6 1738.24 2096.92 1841.5 1854.29 1841.5"/>
    <polygon class="cls-12" points="1792.18 1738.24 1792.18 1831.17 1854.29 1942.98 1854.29 1841.5 1792.18 1738.24"/>
    <rect class="cls-7" x="2451.82" y="891.79" width="104.66" height="292.3" transform="translate(1466.21 3542.09) rotate(-90)"/>
    <rect class="cls-8" x="2451.82" y="845.86" width="104.66" height="292.3" transform="translate(1512.15 3496.16) rotate(-90)"/>
    <path class="cls-7" d="M1846.22,1443.44h104.66v329.69h-98.61c-3.34,0-6.05-2.71-6.05-6.05v-323.64h0Z"/>
    <path class="cls-7" d="M2136.94,1443.44h104.66v329.69h-98.61c-3.34,0-6.05-2.71-6.05-6.05v-323.64h0Z"/>
    <path class="cls-8" d="M1892.15,1443.44h104.66v323.64c0,3.34-2.71,6.05-6.05,6.05h-98.61v-329.69h0Z"/>
    <path class="cls-8" d="M2179.88,1443.44h104.66v323.64c0,3.34-2.71,6.05-6.05,6.05h-98.61v-329.69h0Z"/>
    <rect class="cls-9" x="2099.9" y="1468.54" width="244.58" height="62.51" transform="translate(4444.38 2999.58) rotate(-180)"/>
    <polygon class="cls-7" points="2037.29 1415.94 2037.29 1469.18 2099.9 1531.04 2099.9 1468.54 2037.29 1415.94"/>
    <rect class="cls-9" x="1822.19" y="1468.54" width="244.58" height="62.51" transform="translate(3888.96 2999.58) rotate(-180)"/>
    <polygon class="cls-7" points="1759.58 1415.94 1759.58 1469.18 1822.19 1531.04 1822.19 1468.54 1759.58 1415.94"/>
    <rect class="cls-9" x="2294.47" y="473.33" width="103.19" height="267.54" transform="translate(4692.12 1214.2) rotate(-180)"/>
    <polygon class="cls-13" points="2294.47 473.33 2268.05 437.17 2360.1 437.17 2397.66 473.33 2294.47 473.33"/>
    <rect class="cls-9" x="2294.47" y="912.2" width="103.19" height="267.54" transform="translate(4692.12 2091.94) rotate(-180)"/>
    <polygon class="cls-13" points="2294.47 912.2 2268.05 876.05 2360.1 876.05 2397.66 912.2 2294.47 912.2"/>
    <rect class="cls-11" x="1841.6" y="882.99" width="503.61" height="601.03" transform="translate(4186.8 2367.01) rotate(-180)"/>
    <polygon class="cls-13" points="1841.6 882.99 1712.67 786.3 2161.89 786.3 2345.2 882.99 1841.6 882.99"/>
    <polygon class="cls-12" points="1712.67 786.3 1712.67 1379.32 1841.6 1484.02 1841.6 882.99 1712.67 786.3"/>
    <rect class="cls-9" x="1903.19" y="597.19" width="355.16" height="260.79" transform="translate(4161.54 1455.16) rotate(-180)"/>
    <polygon class="cls-7" points="1812.27 537.58 1812.27 793.43 1903.19 857.97 1903.19 597.19 1812.27 537.58"/>
    <rect class="cls-11" x="1841.6" y="394.64" width="503.61" height="423.03" transform="translate(4186.8 1212.31) rotate(-180)"/>
    <polygon class="cls-13" points="1841.6 394.64 1712.67 297.95 2161.89 297.95 2345.2 394.64 1841.6 394.64"/>
    <polygon class="cls-12" points="1712.67 297.95 1712.67 712.97 1841.6 817.67 1841.6 394.64 1712.67 297.95"/>
    <polyline class="cls-4" points="2235.05 1064.09 2302.03 1064.09 2302.03 1223.74 2345.2 1223.74"/>
    <polyline class="cls-4" points="2036.85 1064.09 1941.98 1064.09 1941.98 1223.74 1841.6 1223.74 1712.67 1135.16"/>
    <rect class="cls-11" x="1709.08" y="473.33" width="103.19" height="267.54" transform="translate(3521.34 1214.2) rotate(-180)"/>
    <polygon class="cls-13" points="1709.08 473.33 1682.66 437.17 1774.7 437.17 1812.26 473.33 1709.08 473.33"/>
    <polygon class="cls-12" points="1682.66 437.17 1682.66 674.65 1709.08 740.87 1709.08 473.33 1682.66 437.17"/>
    <rect class="cls-11" x="1709.08" y="894.12" width="103.19" height="267.54" transform="translate(3521.34 2055.79) rotate(-180)"/>
    <polygon class="cls-13" points="1709.08 894.12 1682.66 857.97 1774.7 857.97 1812.26 894.12 1709.08 894.12"/>
    <polygon class="cls-12" points="1682.66 857.97 1682.66 1095.45 1709.08 1161.67 1709.08 894.12 1682.66 857.97"/>
    <rect class="cls-11" x="1898.08" y="323.91" width="335.23" height="47.51" transform="translate(4131.39 695.33) rotate(-180)"/>
    <polygon class="cls-13" points="1898.08 323.91 1812.27 275.56 2111.29 275.56 2233.31 323.91 1898.08 323.91"/>
    <polygon class="cls-12" points="1812.27 275.56 1812.27 319.07 1898.08 371.42 1898.08 323.91 1812.27 275.56"/>
    <g>
      <circle class="cls-1" cx="2242.42" cy="565.59" r="61.91"/>
      <circle class="cls-5" cx="2257.98" cy="536.14" r="22.74"/>
      <circle class="cls-5" cx="2235.71" cy="570.48" r="11.6"/>
      <path class="cls-12" d="M2224.2,473.33c-50.95,0-92.26,41.31-92.26,92.26s41.31,92.26,92.26,92.26,92.26-41.31,92.26-92.26-41.31-92.26-92.26-92.26ZM2224.2,625.2c-32.92,0-59.61-26.69-59.61-59.61s26.69-59.61,59.61-59.61,59.61,26.69,59.61,59.61-26.69,59.61-59.61,59.61Z"/>
      <path class="cls-9" d="M2242.42,473.33c-50.95,0-92.26,41.31-92.26,92.26s41.31,92.26,92.26,92.26,92.26-41.31,92.26-92.26-41.31-92.26-92.26-92.26ZM2242.42,625.2c-32.92,0-59.61-26.69-59.61-59.61s26.69-59.61,59.61-59.61,59.61,26.69,59.61,59.61-26.69,59.61-59.61,59.61Z"/>
    </g>
    <g>
      <circle class="cls-1" cx="1988.51" cy="565.59" r="61.91"/>
      <circle class="cls-5" cx="2004.07" cy="536.14" r="22.74"/>
      <circle class="cls-5" cx="1981.8" cy="570.48" r="11.6"/>
      <path class="cls-12" d="M1970.29,473.33c-50.95,0-92.26,41.31-92.26,92.26s41.31,92.26,92.26,92.26,92.26-41.31,92.26-92.26-41.31-92.26-92.26-92.26ZM1970.29,625.2c-32.92,0-59.61-26.69-59.61-59.61s26.69-59.61,59.61-59.61,59.61,26.69,59.61,59.61-26.69,59.61-59.61,59.61Z"/>
      <path class="cls-9" d="M1988.51,473.33c-50.95,0-92.26,41.31-92.26,92.26s41.31,92.26,92.26,92.26,92.26-41.31,92.26-92.26-41.31-92.26-92.26-92.26ZM1988.51,625.2c-32.92,0-59.61-26.69-59.61-59.61s26.69-59.61,59.61-59.61,59.61,26.69,59.61,59.61-26.69,59.61-59.61,59.61Z"/>
    </g>
    <circle class="cls-1" cx="2136.96" cy="1054.31" r="79.63"/>
    <rect class="cls-5" x="2136.27" y="963.13" width="31.87" height="180.78"/>
    <rect class="cls-5" x="2075.22" y="973.7" width="47.29" height="180.78"/>
    <path class="cls-7" d="M1530.35,919.59h104.66v226.39h-95.73c-4.93,0-8.93-4-8.93-8.93v-217.45h0Z" transform="translate(549.89 2615.46) rotate(-90)"/>
    <path class="cls-8" d="M1530.35,873.66h104.66v217.45c0,4.93-4,8.93-8.93,8.93h-95.73v-226.39h0Z" transform="translate(595.82 2569.53) rotate(-90)"/>
    <path class="cls-7" d="M1399.55,744.78h104.66v226.39h-95.73c-4.93,0-8.93-4-8.93-8.93v-217.45h0Z"/>
    <path class="cls-8" d="M1445.48,744.78h104.66v217.45c0,4.93-4,8.93-8.93,8.93h-95.73v-226.39h0Z"/>
    <circle class="cls-13" cx="1491.67" cy="1000.78" r="75.84"/>
    <path class="cls-12" d="M2113.53,935.63c-65.54,0-118.68,53.13-118.68,118.68s53.13,118.68,118.68,118.68,118.68-53.13,118.68-118.68-53.13-118.68-118.68-118.68ZM2113.53,1130.99c-42.35,0-76.68-34.33-76.68-76.68s34.33-76.68,76.68-76.68,76.68,34.33,76.68,76.68-34.33,76.68-76.68,76.68Z"/>
    <path class="cls-9" d="M2136.96,935.63c-65.54,0-118.68,53.13-118.68,118.68s53.13,118.68,118.68,118.68,118.68-53.13,118.68-118.68-53.13-118.68-118.68-118.68ZM2136.96,1130.99c-42.35,0-76.68-34.33-76.68-76.68s34.33-76.68,76.68-76.68,76.68,34.33,76.68,76.68-34.33,76.68-76.68,76.68Z"/>
    <path class="cls-12" d="M1479.01,904.83c-53,0-95.96,42.96-95.96,95.96s42.96,95.96,95.96,95.96,95.96-42.96,95.96-95.96-42.96-95.96-95.96-95.96ZM1479.01,1062.79c-34.24,0-62-27.76-62-62s27.76-62,62-62,62,27.76,62,62-27.76,62-62,62Z"/>
    <path class="cls-9" d="M1497.96,904.83c-53,0-95.96,42.96-95.96,95.96s42.96,95.96,95.96,95.96,95.96-42.96,95.96-95.96-42.96-95.96-95.96-95.96ZM1497.96,1062.79c-34.24,0-62-27.76-62-62s27.76-62,62-62,62,27.76,62,62-27.76,62-62,62Z"/>
    <circle class="cls-13" cx="1491.67" cy="696.47" r="75.84"/>
    <rect class="cls-12" x="1540.73" y="569.87" width="121.96" height="63.84" transform="translate(3258.16 173.07) rotate(144.9)"/>
    <path class="cls-12" d="M1479.01,600.51c-53,0-95.96,42.96-95.96,95.96s42.96,95.96,95.96,95.96,95.96-42.96,95.96-95.96-42.96-95.96-95.96-95.96ZM1479.01,758.47c-34.24,0-62-27.76-62-62s27.76-62,62-62,62,27.76,62,62-27.76,62-62,62Z"/>
    <path class="cls-9" d="M1497.96,600.51c-53,0-95.96,42.96-95.96,95.96s42.96,95.96,95.96,95.96,95.96-42.96,95.96-95.96-42.96-95.96-95.96-95.96ZM1497.96,758.47c-34.24,0-62-27.76-62-62s27.76-62,62-62,62,27.76,62,62-27.76,62-62,62Z"/>
    <path class="cls-7" d="M2603.07,749.93h95.73v226.39h-104.66v-217.45c0-4.93,4-8.93,8.93-8.93Z" transform="translate(5292.94 1726.25) rotate(-180)"/>
    <path class="cls-8" d="M2543.21,749.93h95.73c4.93,0,8.93,4,8.93,8.93v217.45h-104.66v-226.39h0Z" transform="translate(5191.07 1726.25) rotate(-180)"/>
    <circle class="cls-13" cx="2626.32" cy="1005.94" r="75.84"/>
    <path class="cls-12" d="M2613.67,909.98c-53,0-95.96,42.96-95.96,95.96s42.96,95.96,95.96,95.96,95.96-42.96,95.96-95.96-42.96-95.96-95.96-95.96ZM2613.67,1067.94c-34.24,0-62-27.76-62-62s27.76-62,62-62,62,27.76,62,62-27.76,62-62,62Z"/>
    <path class="cls-9" d="M2632.62,909.98c-53,0-95.96,42.96-95.96,95.96s42.96,95.96,95.96,95.96,95.96-42.96,95.96-95.96-42.96-95.96-95.96-95.96ZM2632.62,1067.94c-34.24,0-62-27.76-62-62s27.76-62,62-62,62,27.76,62,62-27.76,62-62,62Z"/>
    <g>
      <rect class="cls-8" x="1910.44" y="693.13" width="392.26" height="90.39"/>
      <rect class="cls-7" x="1941.98" y="696.47" width="21.13" height="97.43"/>
      <rect class="cls-7" x="1985.93" y="696.47" width="21.13" height="97.43"/>
      <rect class="cls-7" x="2029.19" y="696.47" width="21.13" height="97.43"/>
      <rect class="cls-7" x="2074.62" y="696.47" width="21.13" height="97.43"/>
      <rect class="cls-7" x="2122.53" y="696.47" width="21.13" height="97.43"/>
      <rect class="cls-7" x="2168.14" y="696.47" width="21.13" height="97.43"/>
      <rect class="cls-7" x="2213.92" y="696.47" width="21.13" height="97.43"/>
      <rect class="cls-7" x="2256.33" y="696.47" width="21.13" height="97.43"/>
      <path class="cls-12" d="M2271.7,675.52h-355.9c-17.12,0-31.01,13.88-31.01,31.01v58.9c0,17.12,13.88,31.01,31.01,31.01h355.9c17.12,0,31.01-13.88,31.01-31.01v-58.9c0-17.12-13.88-31.01-31.01-31.01ZM2277.46,754.39c0,9.69-7.86,17.55-17.55,17.55h-331.92c-9.69,0-17.55-7.86-17.55-17.55v-36.83c0-9.69,7.86-17.55,17.55-17.55h331.92c9.69,0,17.55,7.86,17.55,17.55v36.83Z"/>
      <path class="cls-9" d="M2285.46,675.52h-355.9c-17.12,0-31.01,13.88-31.01,31.01v58.9c0,17.12,13.88,31.01,31.01,31.01h355.9c17.12,0,31.01-13.88,31.01-31.01v-58.9c0-17.12-13.88-31.01-31.01-31.01ZM2291.22,754.39c0,9.69-7.86,17.55-17.55,17.55h-331.92c-9.69,0-17.55-7.86-17.55-17.55v-36.83c0-9.69,7.86-17.55,17.55-17.55h331.92c9.69,0,17.55,7.86,17.55,17.55v36.83Z"/>
    </g>
    <path class="cls-8" d="M2060.77,306.43h-53.88c-1.81,0-3.23-1.54-3.1-3.34l14.75-198.57h30.58l14.75,198.57c.13,1.8-1.29,3.34-3.1,3.34Z"/>
    <circle class="cls-11" cx="2032.85" cy="76.73" r="43.73"/>
    <circle class="cls-13" cx="2629.51" cy="701.62" r="75.84"/>
    <rect class="cls-8" x="1267.93" y="559.01" width="117.52" height="49.48" transform="translate(576.97 -656.73) rotate(35.1)"/>
    <rect class="cls-8" x="1579.53" y="562.58" width="117.52" height="49.48" transform="translate(-39.76 1048.91) rotate(-35.1)"/>
    <rect class="cls-12" x="2450.3" y="607.94" width="117.52" height="63.84" transform="translate(824.29 -1326.45) rotate(35.1)"/>
    <path class="cls-12" d="M2616.85,605.67c-53,0-95.96,42.96-95.96,95.96s42.96,95.96,95.96,95.96,95.96-42.96,95.96-95.96-42.96-95.96-95.96-95.96ZM2616.85,763.63c-34.24,0-62-27.76-62-62s27.76-62,62-62,62,27.76,62,62-27.76,62-62,62Z"/>
    <rect class="cls-12" x="2684.85" y="582.23" width="121.96" height="63.84" transform="translate(5345.42 -462.37) rotate(144.9)"/>
    <path class="cls-9" d="M2635.8,605.67c-53,0-95.96,42.96-95.96,95.96s42.96,95.96,95.96,95.96,95.96-42.96,95.96-95.96-42.96-95.96-95.96-95.96ZM2635.8,763.63c-34.24,0-62-27.76-62-62s27.76-62,62-62,62,27.76,62,62-27.76,62-62,62Z"/>
    <path class="cls-5" d="M2032.59,33c-17.92,0-33.32,10.79-40.07,26.22,7.14-5.08,15.87-8.08,25.3-8.08,24.15,0,43.73,19.58,43.73,43.73,0,6.23-1.31,12.15-3.66,17.51,11.15-7.93,18.43-20.94,18.43-35.66,0-24.15-19.58-43.73-43.73-43.73Z"/>
    <rect class="cls-12" x="1306.18" y="595.58" width="117.52" height="63.84" transform="translate(609.09 -670.78) rotate(35.1)"/>
    <rect class="cls-9" x="1313.12" y="586.64" width="123.44" height="63.84" transform="translate(605.75 -678.09) rotate(35.1)"/>
    <rect class="cls-12" x="1220.57" y="480.01" width="180.6" height="74.47" transform="translate(2487.86 -257.77) rotate(125.1)"/>
    <rect class="cls-9" x="1233.14" y="484.12" width="170.17" height="63.84" transform="translate(2498.44 -265.68) rotate(125.1)"/>
    <rect class="cls-9" x="1547.86" y="576.81" width="119.94" height="63.84" transform="translate(3273.27 182.17) rotate(144.9)"/>
    <rect class="cls-12" x="1569.88" y="461.99" width="181.96" height="71.16" transform="translate(1112.87 -1147.34) rotate(54.9)"/>
    <rect class="cls-9" x="1582.16" y="468.37" width="170.17" height="63.84" transform="translate(1117.8 -1151.41) rotate(54.9)"/>
    <rect class="cls-8" x="2412.05" y="571.37" width="117.52" height="49.48" transform="translate(792.18 -1312.41) rotate(35.1)"/>
    <rect class="cls-8" x="2723.65" y="574.94" width="117.52" height="49.48" transform="translate(161.22 1709.08) rotate(-35.1)"/>
    <rect class="cls-9" x="2457.24" y="599.01" width="123.44" height="63.84" transform="translate(820.96 -1333.77) rotate(35.1)"/>
    <rect class="cls-12" x="2364.69" y="492.38" width="180.6" height="74.47" transform="translate(4300.02 -1174.32) rotate(125.1)"/>
    <rect class="cls-9" x="2377.26" y="496.49" width="170.17" height="63.84" transform="translate(4310.6 -1182.24) rotate(125.1)"/>
    <rect class="cls-9" x="2691.98" y="589.18" width="119.94" height="63.84" transform="translate(5360.53 -453.27) rotate(144.9)"/>
    <rect class="cls-12" x="2714" y="474.36" width="181.96" height="71.16" transform="translate(1609.18 -2078.11) rotate(54.9)"/>
    <rect class="cls-9" x="2726.28" y="480.73" width="170.17" height="63.84" transform="translate(1614.11 -2082.19) rotate(54.9)"/>
  </g>
  <g id="Layer_12" data-name="Layer 12">
    <g>
      <g>
        <rect class="cls-13" x="1424.67" y="1320.67" width="242.63" height="379.48" transform="translate(3091.97 3020.83) rotate(-180)"/>
        <polygon class="cls-6" points="1424.67 1320.67 1317.56 1178.41 1533.98 1178.41 1667.3 1320.67 1424.67 1320.67"/>
        <polygon class="cls-10" points="1317.56 1178.41 1317.56 1549.35 1424.67 1700.16 1424.67 1320.67 1317.56 1178.41"/>
      </g>
      <g>
        <polygon class="cls-11" points="1317.56 1178.41 1424.67 1320.67 1424.67 1332.39 1317.56 1190.74 1317.56 1178.41"/>
        <rect class="cls-10" x="1424.67" y="1320.67" width="242.63" height="11.72"/>
        <polygon class="cls-11" points="1317.56 1199.46 1424.67 1341.72 1424.67 1353.44 1317.56 1211.79 1317.56 1199.46"/>
        <rect class="cls-10" x="1424.67" y="1341.72" width="242.63" height="11.72"/>
        <polygon class="cls-11" points="1317.56 1223.85 1424.67 1366.11 1424.67 1377.83 1317.56 1236.18 1317.56 1223.85"/>
        <rect class="cls-10" x="1424.67" y="1366.11" width="242.63" height="11.72"/>
        <polygon class="cls-11" points="1317.56 1249.54 1424.67 1391.8 1424.67 1403.52 1317.56 1261.87 1317.56 1249.54"/>
        <rect class="cls-10" x="1424.67" y="1391.8" width="242.63" height="11.72"/>
        <polygon class="cls-11" points="1317.56 1276.45 1424.67 1418.71 1424.67 1430.43 1317.56 1288.78 1317.56 1276.45"/>
        <rect class="cls-10" x="1424.67" y="1418.71" width="242.63" height="11.72"/>
        <polygon class="cls-11" points="1317.56 1300.84 1424.67 1443.1 1424.67 1454.82 1317.56 1313.17 1317.56 1300.84"/>
        <rect class="cls-10" x="1424.67" y="1443.1" width="242.63" height="11.72"/>
        <polygon class="cls-11" points="1317.56 1326.53 1424.67 1468.79 1424.67 1480.51 1317.56 1338.86 1317.56 1326.53"/>
        <rect class="cls-10" x="1424.67" y="1468.79" width="242.63" height="11.72"/>
        <polygon class="cls-11" points="1317.56 1353.44 1424.67 1495.7 1424.67 1507.42 1317.56 1365.77 1317.56 1353.44"/>
        <rect class="cls-10" x="1424.67" y="1495.7" width="242.63" height="11.72"/>
        <polygon class="cls-11" points="1317.56 1377.83 1424.67 1520.09 1424.67 1531.81 1317.56 1390.16 1317.56 1377.83"/>
        <rect class="cls-10" x="1424.67" y="1520.09" width="242.63" height="11.72"/>
        <polygon class="cls-11" points="1317.56 1403.52 1424.67 1545.78 1424.67 1557.5 1317.56 1415.85 1317.56 1403.52"/>
        <rect class="cls-10" x="1424.67" y="1545.78" width="242.63" height="11.72"/>
        <polygon class="cls-11" points="1317.56 1430.43 1424.67 1572.69 1424.67 1584.41 1317.56 1442.76 1317.56 1430.43"/>
        <rect class="cls-10" x="1424.67" y="1572.69" width="242.63" height="11.72"/>
        <polygon class="cls-11" points="1317.56 1454.82 1424.67 1597.08 1424.67 1608.8 1317.56 1467.15 1317.56 1454.82"/>
        <rect class="cls-10" x="1424.67" y="1597.08" width="242.63" height="11.72"/>
        <polygon class="cls-11" points="1317.56 1480.51 1424.67 1622.77 1424.67 1634.49 1317.56 1492.84 1317.56 1480.51"/>
        <rect class="cls-10" x="1424.67" y="1622.77" width="242.63" height="11.72"/>
        <polygon class="cls-11" points="1317.56 1504.06 1424.67 1646.32 1424.67 1658.04 1317.56 1516.38 1317.56 1504.06"/>
        <rect class="cls-10" x="1424.67" y="1646.32" width="242.63" height="11.72"/>
        <polygon class="cls-11" points="1317.56 1528.47 1424.67 1670.73 1424.67 1682.45 1317.56 1540.8 1317.56 1528.47"/>
        <rect class="cls-10" x="1424.67" y="1670.73" width="242.63" height="11.72"/>
        <line class="cls-3" x1="1343.64" y1="1189.96" x2="1529.9" y2="1189.96"/>
        <line class="cls-3" x1="1350.68" y1="1206.91" x2="1545.99" y2="1206.91"/>
        <line class="cls-3" x1="1363.2" y1="1223.85" x2="1565.9" y2="1223.85"/>
        <line class="cls-3" x1="1375.72" y1="1241.68" x2="1578.42" y2="1241.68"/>
        <line class="cls-3" x1="1395.29" y1="1262.35" x2="1597.99" y2="1262.35"/>
        <line class="cls-3" x1="1428.94" y1="1307.71" x2="1636.33" y2="1307.71"/>
        <path class="cls-2" d="M1555.72,1290.42c6.71,1.46,11.91,4.32,15.13,9.01,5.04-15.75,15.8-23.85,30.26-26.99"/>
      </g>
    </g>
    <g>
      <g>
        <rect class="cls-13" x="2568.04" y="1334.17" width="242.63" height="379.48" transform="translate(5378.71 3047.82) rotate(-180)"/>
        <polygon class="cls-6" points="2568.04 1334.17 2460.93 1191.91 2677.35 1191.91 2810.67 1334.17 2568.04 1334.17"/>
        <polygon class="cls-10" points="2460.93 1191.91 2460.93 1562.84 2568.04 1713.65 2568.04 1334.17 2460.93 1191.91"/>
      </g>
      <g>
        <polygon class="cls-11" points="2460.93 1191.91 2568.04 1334.17 2568.04 1345.89 2460.93 1204.24 2460.93 1191.91"/>
        <rect class="cls-10" x="2568.04" y="1334.17" width="242.63" height="11.72"/>
        <polygon class="cls-11" points="2460.93 1212.96 2568.04 1355.22 2568.04 1366.94 2460.93 1225.29 2460.93 1212.96"/>
        <rect class="cls-10" x="2568.04" y="1355.22" width="242.63" height="11.72"/>
        <polygon class="cls-11" points="2460.93 1237.35 2568.04 1379.61 2568.04 1391.33 2460.93 1249.68 2460.93 1237.35"/>
        <rect class="cls-10" x="2568.04" y="1379.61" width="242.63" height="11.72"/>
        <polygon class="cls-11" points="2460.93 1263.04 2568.04 1405.3 2568.04 1417.02 2460.93 1275.37 2460.93 1263.04"/>
        <rect class="cls-10" x="2568.04" y="1405.3" width="242.63" height="11.72"/>
        <polygon class="cls-11" points="2460.93 1289.95 2568.04 1432.21 2568.04 1443.93 2460.93 1302.28 2460.93 1289.95"/>
        <rect class="cls-10" x="2568.04" y="1432.21" width="242.63" height="11.72"/>
        <polygon class="cls-11" points="2460.93 1314.34 2568.04 1456.6 2568.04 1468.32 2460.93 1326.67 2460.93 1314.34"/>
        <rect class="cls-10" x="2568.04" y="1456.6" width="242.63" height="11.72"/>
        <polygon class="cls-11" points="2460.93 1340.03 2568.04 1482.29 2568.04 1494.01 2460.93 1352.36 2460.93 1340.03"/>
        <rect class="cls-10" x="2568.04" y="1482.29" width="242.63" height="11.72"/>
        <polygon class="cls-11" points="2460.93 1366.94 2568.04 1509.2 2568.04 1520.92 2460.93 1379.27 2460.93 1366.94"/>
        <rect class="cls-10" x="2568.04" y="1509.2" width="242.63" height="11.72"/>
        <polygon class="cls-11" points="2460.93 1391.33 2568.04 1533.59 2568.04 1545.31 2460.93 1403.66 2460.93 1391.33"/>
        <rect class="cls-10" x="2568.04" y="1533.59" width="242.63" height="11.72"/>
        <polygon class="cls-11" points="2460.93 1417.02 2568.04 1559.28 2568.04 1571 2460.93 1429.35 2460.93 1417.02"/>
        <rect class="cls-10" x="2568.04" y="1559.28" width="242.63" height="11.72"/>
        <polygon class="cls-11" points="2460.93 1443.93 2568.04 1586.19 2568.04 1597.91 2460.93 1456.26 2460.93 1443.93"/>
        <rect class="cls-10" x="2568.04" y="1586.19" width="242.63" height="11.72"/>
        <polygon class="cls-11" points="2460.93 1468.32 2568.04 1610.58 2568.04 1622.3 2460.93 1480.65 2460.93 1468.32"/>
        <rect class="cls-10" x="2568.04" y="1610.58" width="242.63" height="11.72"/>
        <polygon class="cls-11" points="2460.93 1494.01 2568.04 1636.27 2568.04 1647.99 2460.93 1506.34 2460.93 1494.01"/>
        <rect class="cls-10" x="2568.04" y="1636.27" width="242.63" height="11.72"/>
        <polygon class="cls-11" points="2460.93 1517.55 2568.04 1659.81 2568.04 1671.53 2460.93 1529.88 2460.93 1517.55"/>
        <rect class="cls-10" x="2568.04" y="1659.81" width="242.63" height="11.72"/>
        <polygon class="cls-11" points="2460.93 1541.97 2568.04 1684.22 2568.04 1695.95 2460.93 1554.29 2460.93 1541.97"/>
        <rect class="cls-10" x="2568.04" y="1684.22" width="242.63" height="11.72"/>
        <line class="cls-3" x1="2487.01" y1="1203.46" x2="2673.27" y2="1203.46"/>
        <line class="cls-3" x1="2494.05" y1="1220.4" x2="2689.35" y2="1220.4"/>
        <line class="cls-3" x1="2506.57" y1="1237.35" x2="2709.27" y2="1237.35"/>
        <line class="cls-3" x1="2519.09" y1="1255.18" x2="2721.79" y2="1255.18"/>
        <line class="cls-3" x1="2538.66" y1="1275.84" x2="2741.35" y2="1275.84"/>
        <line class="cls-3" x1="2572.31" y1="1321.2" x2="2779.7" y2="1321.2"/>
        <path class="cls-2" d="M2699.09,1303.92c6.71,1.46,11.91,4.32,15.13,9.01,5.04-15.75,15.8-23.85,30.26-26.99"/>
      </g>
    </g>
    <g>
      <g>
        <rect class="cls-13" x="1084.06" y="1331.46" width="242.63" height="379.48" transform="translate(2410.74 3042.4) rotate(-180)"/>
        <polygon class="cls-6" points="1084.06 1331.46 976.94 1189.2 1193.37 1189.2 1326.69 1331.46 1084.06 1331.46"/>
        <polygon class="cls-10" points="976.94 1189.2 976.94 1560.14 1084.06 1710.94 1084.06 1331.46 976.94 1189.2"/>
      </g>
      <g>
        <polygon class="cls-11" points="976.94 1189.2 1084.06 1331.46 1084.06 1343.18 976.94 1201.53 976.94 1189.2"/>
        <rect class="cls-10" x="1084.06" y="1331.46" width="242.63" height="11.72"/>
        <polygon class="cls-11" points="976.94 1210.25 1084.06 1352.51 1084.06 1364.23 976.94 1222.58 976.94 1210.25"/>
        <rect class="cls-10" x="1084.06" y="1352.51" width="242.63" height="11.72"/>
        <polygon class="cls-11" points="976.94 1234.64 1084.06 1376.9 1084.06 1388.62 976.94 1246.97 976.94 1234.64"/>
        <rect class="cls-10" x="1084.06" y="1376.9" width="242.63" height="11.72"/>
        <polygon class="cls-11" points="976.94 1260.33 1084.06 1402.59 1084.06 1414.31 976.94 1272.66 976.94 1260.33"/>
        <rect class="cls-10" x="1084.06" y="1402.59" width="242.63" height="11.72"/>
        <polygon class="cls-11" points="976.94 1287.24 1084.06 1429.5 1084.06 1441.22 976.94 1299.57 976.94 1287.24"/>
        <rect class="cls-10" x="1084.06" y="1429.5" width="242.63" height="11.72"/>
        <polygon class="cls-11" points="976.94 1311.63 1084.06 1453.89 1084.06 1465.61 976.94 1323.96 976.94 1311.63"/>
        <rect class="cls-10" x="1084.06" y="1453.89" width="242.63" height="11.72"/>
        <polygon class="cls-11" points="976.94 1337.32 1084.06 1479.58 1084.06 1491.3 976.94 1349.65 976.94 1337.32"/>
        <rect class="cls-10" x="1084.06" y="1479.58" width="242.63" height="11.72"/>
        <polygon class="cls-11" points="976.94 1364.23 1084.06 1506.49 1084.06 1518.21 976.94 1376.56 976.94 1364.23"/>
        <rect class="cls-10" x="1084.06" y="1506.49" width="242.63" height="11.72"/>
        <polygon class="cls-11" points="976.94 1388.62 1084.06 1530.88 1084.06 1542.6 976.94 1400.95 976.94 1388.62"/>
        <rect class="cls-10" x="1084.06" y="1530.88" width="242.63" height="11.72"/>
        <polygon class="cls-11" points="976.94 1414.31 1084.06 1556.57 1084.06 1568.29 976.94 1426.64 976.94 1414.31"/>
        <rect class="cls-10" x="1084.06" y="1556.57" width="242.63" height="11.72"/>
        <polygon class="cls-11" points="976.94 1441.22 1084.06 1583.48 1084.06 1595.2 976.94 1453.55 976.94 1441.22"/>
        <rect class="cls-10" x="1084.06" y="1583.48" width="242.63" height="11.72"/>
        <polygon class="cls-11" points="976.94 1465.61 1084.06 1607.87 1084.06 1619.59 976.94 1477.94 976.94 1465.61"/>
        <rect class="cls-10" x="1084.06" y="1607.87" width="242.63" height="11.72"/>
        <polygon class="cls-11" points="976.94 1491.3 1084.06 1633.56 1084.06 1645.28 976.94 1503.63 976.94 1491.3"/>
        <rect class="cls-10" x="1084.06" y="1633.56" width="242.63" height="11.72"/>
        <polygon class="cls-11" points="976.94 1514.84 1084.06 1657.1 1084.06 1668.82 976.94 1527.17 976.94 1514.84"/>
        <rect class="cls-10" x="1084.06" y="1657.1" width="242.63" height="11.72"/>
        <polygon class="cls-11" points="976.94 1539.26 1084.06 1681.52 1084.06 1693.24 976.94 1551.59 976.94 1539.26"/>
        <rect class="cls-10" x="1084.06" y="1681.52" width="242.63" height="11.72"/>
        <line class="cls-3" x1="1003.02" y1="1200.75" x2="1189.28" y2="1200.75"/>
        <line class="cls-3" x1="1010.07" y1="1217.69" x2="1205.37" y2="1217.69"/>
        <line class="cls-3" x1="1022.59" y1="1234.64" x2="1225.28" y2="1234.64"/>
        <line class="cls-3" x1="1035.11" y1="1252.47" x2="1237.8" y2="1252.47"/>
        <line class="cls-3" x1="1054.67" y1="1273.14" x2="1257.37" y2="1273.14"/>
        <line class="cls-3" x1="1088.33" y1="1318.49" x2="1295.72" y2="1318.49"/>
        <path class="cls-2" d="M1215.11,1301.21c6.71,1.46,11.91,4.32,15.13,9.01,5.04-15.75,15.8-23.85,30.26-26.99"/>
      </g>
    </g>
    <g>
      <g>
        <rect class="cls-13" x="1371.12" y="1519.73" width="242.63" height="379.48" transform="translate(2984.86 3418.94) rotate(-180)"/>
        <polygon class="cls-6" points="1371.12 1519.73 1264 1377.47 1480.43 1377.47 1613.74 1519.73 1371.12 1519.73"/>
        <polygon class="cls-10" points="1264 1377.47 1264 1748.4 1371.12 1899.21 1371.12 1519.73 1264 1377.47"/>
      </g>
      <g>
        <polygon class="cls-11" points="1264 1377.47 1371.12 1519.73 1371.12 1531.45 1264 1389.8 1264 1377.47"/>
        <rect class="cls-10" x="1371.12" y="1519.73" width="242.63" height="11.72"/>
        <polygon class="cls-11" points="1264 1398.52 1371.12 1540.77 1371.12 1552.5 1264 1410.84 1264 1398.52"/>
        <rect class="cls-10" x="1371.12" y="1540.77" width="242.63" height="11.72"/>
        <polygon class="cls-11" points="1264 1422.91 1371.12 1565.17 1371.12 1576.89 1264 1435.24 1264 1422.91"/>
        <rect class="cls-10" x="1371.12" y="1565.17" width="242.63" height="11.72"/>
        <polygon class="cls-11" points="1264 1448.6 1371.12 1590.86 1371.12 1602.58 1264 1460.93 1264 1448.6"/>
        <rect class="cls-10" x="1371.12" y="1590.86" width="242.63" height="11.72"/>
        <polygon class="cls-11" points="1264 1475.51 1371.12 1617.76 1371.12 1629.49 1264 1487.83 1264 1475.51"/>
        <rect class="cls-10" x="1371.12" y="1617.76" width="242.63" height="11.72"/>
        <polygon class="cls-11" points="1264 1499.9 1371.12 1642.16 1371.12 1653.88 1264 1512.23 1264 1499.9"/>
        <rect class="cls-10" x="1371.12" y="1642.16" width="242.63" height="11.72"/>
        <polygon class="cls-11" points="1264 1525.59 1371.12 1667.85 1371.12 1679.57 1264 1537.92 1264 1525.59"/>
        <rect class="cls-10" x="1371.12" y="1667.85" width="242.63" height="11.72"/>
        <polygon class="cls-11" points="1264 1552.5 1371.12 1694.75 1371.12 1706.48 1264 1564.82 1264 1552.5"/>
        <rect class="cls-10" x="1371.12" y="1694.75" width="242.63" height="11.72"/>
        <polygon class="cls-11" points="1264 1576.89 1371.12 1719.15 1371.12 1730.87 1264 1589.22 1264 1576.89"/>
        <rect class="cls-10" x="1371.12" y="1719.15" width="242.63" height="11.72"/>
        <polygon class="cls-11" points="1264 1602.58 1371.12 1744.84 1371.12 1756.56 1264 1614.91 1264 1602.58"/>
        <rect class="cls-10" x="1371.12" y="1744.84" width="242.63" height="11.72"/>
        <polygon class="cls-11" points="1264 1629.49 1371.12 1771.74 1371.12 1783.47 1264 1641.81 1264 1629.49"/>
        <rect class="cls-10" x="1371.12" y="1771.74" width="242.63" height="11.72"/>
        <polygon class="cls-11" points="1264 1653.88 1371.12 1796.14 1371.12 1807.86 1264 1666.21 1264 1653.88"/>
        <rect class="cls-10" x="1371.12" y="1796.14" width="242.63" height="11.72"/>
        <polygon class="cls-11" points="1264 1679.57 1371.12 1821.83 1371.12 1833.55 1264 1691.9 1264 1679.57"/>
        <rect class="cls-10" x="1371.12" y="1821.83" width="242.63" height="11.72"/>
        <polygon class="cls-11" points="1264 1703.11 1371.12 1845.37 1371.12 1857.09 1264 1715.44 1264 1703.11"/>
        <rect class="cls-10" x="1371.12" y="1845.37" width="242.63" height="11.72"/>
        <polygon class="cls-11" points="1264 1727.52 1371.12 1869.78 1371.12 1881.5 1264 1739.85 1264 1727.52"/>
        <rect class="cls-10" x="1371.12" y="1869.78" width="242.63" height="11.72"/>
        <line class="cls-3" x1="1290.08" y1="1389.01" x2="1476.34" y2="1389.01"/>
        <line class="cls-3" x1="1297.12" y1="1405.96" x2="1492.43" y2="1405.96"/>
        <line class="cls-3" x1="1309.65" y1="1422.91" x2="1512.34" y2="1422.91"/>
        <line class="cls-3" x1="1322.17" y1="1440.73" x2="1524.86" y2="1440.73"/>
        <line class="cls-3" x1="1341.73" y1="1461.4" x2="1544.43" y2="1461.4"/>
        <line class="cls-3" x1="1375.39" y1="1506.76" x2="1582.78" y2="1506.76"/>
        <path class="cls-2" d="M1502.17,1489.48c6.71,1.46,11.91,4.32,15.13,9.01,5.04-15.75,15.8-23.85,30.26-26.99"/>
      </g>
    </g>
    <g>
      <g>
        <rect class="cls-13" x="2506.04" y="1533.56" width="242.63" height="379.48" transform="translate(5254.7 3446.61) rotate(-180)"/>
        <polygon class="cls-6" points="2506.04 1533.56 2398.93 1391.31 2615.35 1391.31 2748.67 1533.56 2506.04 1533.56"/>
        <polygon class="cls-10" points="2398.93 1391.31 2398.93 1762.24 2506.04 1913.05 2506.04 1533.56 2398.93 1391.31"/>
      </g>
      <g>
        <polygon class="cls-11" points="2398.93 1391.31 2506.04 1533.56 2506.04 1545.29 2398.93 1403.63 2398.93 1391.31"/>
        <rect class="cls-10" x="2506.04" y="1533.56" width="242.63" height="11.72"/>
        <polygon class="cls-11" points="2398.93 1412.35 2506.04 1554.61 2506.04 1566.33 2398.93 1424.68 2398.93 1412.35"/>
        <rect class="cls-10" x="2506.04" y="1554.61" width="242.63" height="11.72"/>
        <polygon class="cls-11" points="2398.93 1436.75 2506.04 1579 2506.04 1590.73 2398.93 1449.07 2398.93 1436.75"/>
        <rect class="cls-10" x="2506.04" y="1579" width="242.63" height="11.72"/>
        <polygon class="cls-11" points="2398.93 1462.43 2506.04 1604.69 2506.04 1616.41 2398.93 1474.76 2398.93 1462.43"/>
        <rect class="cls-10" x="2506.04" y="1604.69" width="242.63" height="11.72"/>
        <polygon class="cls-11" points="2398.93 1489.34 2506.04 1631.6 2506.04 1643.32 2398.93 1501.67 2398.93 1489.34"/>
        <rect class="cls-10" x="2506.04" y="1631.6" width="242.63" height="11.72"/>
        <polygon class="cls-11" points="2398.93 1513.74 2506.04 1655.99 2506.04 1667.71 2398.93 1526.06 2398.93 1513.74"/>
        <rect class="cls-10" x="2506.04" y="1655.99" width="242.63" height="11.72"/>
        <polygon class="cls-11" points="2398.93 1539.42 2506.04 1681.68 2506.04 1693.4 2398.93 1551.75 2398.93 1539.42"/>
        <rect class="cls-10" x="2506.04" y="1681.68" width="242.63" height="11.72"/>
        <polygon class="cls-11" points="2398.93 1566.33 2506.04 1708.59 2506.04 1720.31 2398.93 1578.66 2398.93 1566.33"/>
        <rect class="cls-10" x="2506.04" y="1708.59" width="242.63" height="11.72"/>
        <polygon class="cls-11" points="2398.93 1590.73 2506.04 1732.98 2506.04 1744.7 2398.93 1603.05 2398.93 1590.73"/>
        <rect class="cls-10" x="2506.04" y="1732.98" width="242.63" height="11.72"/>
        <polygon class="cls-11" points="2398.93 1616.41 2506.04 1758.67 2506.04 1770.39 2398.93 1628.74 2398.93 1616.41"/>
        <rect class="cls-10" x="2506.04" y="1758.67" width="242.63" height="11.72"/>
        <polygon class="cls-11" points="2398.93 1643.32 2506.04 1785.58 2506.04 1797.3 2398.93 1655.65 2398.93 1643.32"/>
        <rect class="cls-10" x="2506.04" y="1785.58" width="242.63" height="11.72"/>
        <polygon class="cls-11" points="2398.93 1667.71 2506.04 1809.97 2506.04 1821.69 2398.93 1680.04 2398.93 1667.71"/>
        <rect class="cls-10" x="2506.04" y="1809.97" width="242.63" height="11.72"/>
        <polygon class="cls-11" points="2398.93 1693.4 2506.04 1835.66 2506.04 1847.38 2398.93 1705.73 2398.93 1693.4"/>
        <rect class="cls-10" x="2506.04" y="1835.66" width="242.63" height="11.72"/>
        <polygon class="cls-11" points="2398.93 1716.95 2506.04 1859.21 2506.04 1870.93 2398.93 1729.28 2398.93 1716.95"/>
        <rect class="cls-10" x="2506.04" y="1859.21" width="242.63" height="11.72"/>
        <polygon class="cls-11" points="2398.93 1741.36 2506.04 1883.62 2506.04 1895.34 2398.93 1753.69 2398.93 1741.36"/>
        <rect class="cls-10" x="2506.04" y="1883.62" width="242.63" height="11.72"/>
        <line class="cls-3" x1="2425" y1="1402.85" x2="2611.26" y2="1402.85"/>
        <line class="cls-3" x1="2432.05" y1="1419.8" x2="2627.35" y2="1419.8"/>
        <line class="cls-3" x1="2444.57" y1="1436.75" x2="2647.26" y2="1436.75"/>
        <line class="cls-3" x1="2457.09" y1="1454.57" x2="2659.79" y2="1454.57"/>
        <line class="cls-3" x1="2476.66" y1="1475.24" x2="2679.35" y2="1475.24"/>
        <line class="cls-3" x1="2510.31" y1="1520.6" x2="2717.7" y2="1520.6"/>
        <path class="cls-2" d="M2637.09,1503.31c6.71,1.46,11.91,4.32,15.13,9.01,5.04-15.75,15.8-23.85,30.26-26.99"/>
      </g>
    </g>
  </g>
</svg>