<?xml version="1.0" encoding="UTF-8"?>
<svg id="Layer_3" data-name="Layer 3" xmlns="http://www.w3.org/2000/svg" viewBox="0 0 4200 2000">
  <defs>
    <style>
      .cls-1 {
        fill: #849596;
      }

      .cls-2 {
        fill: #ffc533;
      }

      .cls-3 {
        fill: #efd3b4;
      }

      .cls-4 {
        fill: #ffe5c5;
      }

      .cls-5 {
        fill: #d6e4e5;
      }

      .cls-6 {
        fill: #ff8a33;
      }
    </style>
  </defs>
  <path class="cls-1" d="M3120.26,463.36l-20.01,63.42c-8.04.71-15.95,2.15-23.65,4.27l-29.06-55.83c-1.61-3.08-5.4-4.29-8.49-2.68l-55.83,29.06c-3.08,1.61-4.29,5.4-2.68,8.49l31.68,60.89c-3.97,4.45-7.66,9.19-11.03,14.21l-63.19-19.93c-3.31-1.05-6.85.8-7.9,4.11l-18.93,60.03c-1.05,3.31.8,6.85,4.11,7.9l63.19,19.93c-.11,6.04.19,12.03.89,17.96l-60.89,31.68c-3.08,1.61-4.29,5.4-2.68,8.49l29.06,55.83c1.61,3.08,5.4,4.29,8.49,2.68l55.83-29.06c5.09,6.15,10.73,11.87,16.92,17.07l-20.01,63.42c-1.05,3.31.8,6.85,4.11,7.9l60.03,18.93c3.31,1.05,6.85-.8,7.9-4.11l17.64-55.95c10.63,1.3,21.21,1.3,31.56.07l31.21,59.97c1.61,3.08,5.4,4.29,8.49,2.68l55.83-29.06c3.08-1.61,4.29-5.4,2.68-8.49l-28.58-54.92c9.71-8.03,18.32-17.47,25.51-28.16l60.88,19.21c3.31,1.05,6.85-.8,7.9-4.11l18.93-60.03c1.05-3.31-.8-6.85-4.11-7.9l-60.88-19.21c.24-12.87-1.4-25.56-4.74-37.7l54.92-28.58c3.08-1.61,4.29-5.4,2.68-8.49l-29.06-55.83c-1.61-3.08-5.4-4.29-8.49-2.68l-59.97,31.21c-7.78-6.93-16.44-13.01-25.9-18.05l17.64-55.95c1.05-3.31-.8-6.85-4.11-7.9l-60.03-18.93c-3.31-1.05-6.85.8-7.9,4.11h.03ZM3163.13,675.87c-8.94,28.33-39.14,44.05-67.47,35.12-28.33-8.94-44.05-39.14-35.12-67.47,8.94-28.33,39.14-44.05,67.47-35.12,28.33,8.93,44.05,39.14,35.12,67.47Z"/>
  <path class="cls-1" d="M2511.55,698.37l32.45,80.33c-7.5,7.38-14.25,15.38-20.24,23.89l-75.48-32.04c-4.17-1.77-8.98.17-10.76,4.35l-32.04,75.48c-1.77,4.17.17,8.98,4.35,10.76l82.31,34.94c-.3,7.76-.08,15.59.69,23.42l-80.03,32.33c-4.2,1.69-6.23,6.48-4.53,10.68l30.71,76.03c1.69,4.2,6.48,6.23,10.68,4.53l80.03-32.33c4.89,6.16,10.16,11.94,15.77,17.32l-34.94,82.31c-1.77,4.17.17,8.98,4.35,10.76l75.48,32.04c4.17,1.77,8.98-.17,10.76-4.35l32.04-75.48c10.22,1.96,20.63,3.04,31.15,3.13l32.45,80.33c1.69,4.2,6.48,6.23,10.68,4.53l76.03-30.71c4.2-1.69,6.23-6.48,4.53-10.68l-28.63-70.86c11.76-7.5,22.4-16.28,31.79-26.09l81.08,34.42c4.17,1.77,8.98-.17,10.76-4.35l32.04-75.48c1.77-4.17-.17-8.98-4.35-10.76l-74.24-31.52c3.1-16.12,3.94-32.75,2.31-49.44l77.12-31.15c4.2-1.69,6.23-6.48,4.53-10.68l-30.71-76.03c-1.69-4.2-6.48-6.23-10.68-4.53l-77.12,31.15c-10.43-13.14-22.59-24.53-36.01-33.96l31.52-74.24c1.77-4.17-.17-8.98-4.35-10.76l-75.48-32.04c-4.17-1.77-8.98.17-10.76,4.35l-34.42,81.08c-13.56-.52-27.31.54-40.99,3.32l-28.63-70.86c-1.69-4.2-6.48-6.23-10.68-4.53l-76.03,30.71c-4.2,1.69-6.23,6.48-4.53,10.68l.04-.02ZM2730.76,876.44c14.49,35.88-2.84,76.72-38.72,91.22-35.88,14.49-76.72-2.84-91.22-38.72-14.49-35.88,2.84-76.72,38.72-91.22,35.87-14.5,76.72,2.84,91.22,38.72Z"/>
  <path class="cls-1" d="M2749.75,235.7l-20.67,62.1c-7.93.57-15.73,1.87-23.34,3.84l-27.73-55.39c-1.53-3.06-5.25-4.3-8.32-2.77l-55.39,27.73c-3.06,1.53-4.3,5.25-2.77,8.32l30.24,60.4c-3.97,4.32-7.68,8.92-11.07,13.81l-61.87-20.59c-3.24-1.08-6.75.68-7.84,3.92l-19.56,58.77c-1.08,3.24.68,6.75,3.92,7.84l61.87,20.59c-.21,5.94,0,11.85.59,17.69l-60.4,30.24c-3.06,1.53-4.3,5.25-2.77,8.32l27.73,55.39c1.53,3.06,5.25,4.3,8.32,2.77l55.39-27.73c4.92,6.13,10.38,11.85,16.39,17.06l-20.67,62.1c-1.08,3.24.68,6.75,3.92,7.84l58.77,19.56c3.24,1.08,6.75-.68,7.84-3.92l18.22-54.78c10.44,1.45,20.85,1.6,31.06.56l29.78,59.5c1.53,3.06,5.25,4.3,8.32,2.77l55.39-27.73c3.06-1.53,4.3-5.25,2.77-8.32l-27.28-54.48c9.68-7.75,18.3-16.91,25.54-27.31l59.61,19.84c3.24,1.08,6.75-.68,7.84-3.92l19.56-58.77c1.08-3.24-.68-6.75-3.92-7.84l-59.61-19.84c.44-12.66-.98-25.17-4.08-37.17l54.48-27.28c3.06-1.53,4.3-5.25,2.77-8.32l-27.73-55.39c-1.53-3.06-5.25-4.3-8.32-2.77l-59.5,29.78c-7.54-6.94-15.97-13.06-25.21-18.16l18.22-54.78c1.08-3.24-.68-6.75-3.92-7.84l-58.77-19.56c-3.24-1.08-6.75.68-7.84,3.92h.03ZM2788.66,445.47c-9.24,27.74-39.2,42.74-66.94,33.52-27.74-9.24-42.74-39.2-33.52-66.94,9.24-27.74,39.2-42.74,66.94-33.52,27.74,9.22,42.74,39.2,33.52,66.94Z"/>
  <path class="cls-5" d="M2499.71,651.42l32.45,80.33c-7.5,7.38-14.25,15.38-20.24,23.89l-75.48-32.04c-4.17-1.77-8.98.17-10.76,4.35l-32.04,75.48c-1.77,4.17.17,8.98,4.35,10.76l82.31,34.94c-.3,7.76-.08,15.59.69,23.42l-80.03,32.33c-4.2,1.69-6.23,6.48-4.53,10.68l30.71,76.03c1.69,4.2,6.48,6.23,10.68,4.53l80.03-32.33c4.89,6.16,10.16,11.94,15.77,17.32l-34.94,82.31c-1.77,4.17.17,8.98,4.35,10.76l75.48,32.04c4.17,1.77,8.98-.17,10.76-4.35l32.04-75.48c10.22,1.96,20.63,3.04,31.15,3.13l32.45,80.33c1.69,4.2,6.48,6.23,10.68,4.53l76.03-30.71c4.2-1.69,6.23-6.48,4.53-10.68l-28.63-70.86c11.76-7.5,22.4-16.28,31.79-26.09l81.08,34.42c4.17,1.77,8.98-.17,10.76-4.35l32.04-75.48c1.77-4.17-.17-8.98-4.35-10.76l-74.24-31.52c3.1-16.12,3.94-32.75,2.31-49.44l77.12-31.15c4.2-1.69,6.23-6.48,4.53-10.68l-30.71-76.03c-1.69-4.2-6.48-6.23-10.68-4.53l-77.12,31.15c-10.43-13.14-22.59-24.53-36.01-33.96l31.52-74.24c1.77-4.17-.17-8.98-4.35-10.76l-75.48-32.04c-4.17-1.77-8.98.17-10.76,4.35l-34.42,81.08c-13.56-.52-27.31.54-40.99,3.32l-28.63-70.86c-1.69-4.2-6.48-6.23-10.68-4.53l-76.03,30.71c-4.2,1.69-6.23,6.48-4.53,10.68l.04-.02ZM2718.92,829.49c14.49,35.88-2.84,76.72-38.72,91.22-35.88,14.49-76.72-2.84-91.22-38.72-14.49-35.88,2.84-76.72,38.72-91.22,35.87-14.5,76.72,2.84,91.22,38.72Z"/>
  <path class="cls-5" d="M3105.06,442.83l-20.01,63.42c-8.04.71-15.95,2.15-23.65,4.27l-29.06-55.83c-1.61-3.08-5.4-4.29-8.49-2.68l-55.83,29.06c-3.08,1.61-4.29,5.4-2.68,8.49l31.68,60.89c-3.97,4.45-7.66,9.19-11.03,14.21l-63.19-19.93c-3.31-1.05-6.85.8-7.9,4.11l-18.93,60.03c-1.05,3.31.8,6.85,4.11,7.9l63.19,19.93c-.11,6.04.19,12.03.89,17.96l-60.89,31.68c-3.08,1.61-4.29,5.4-2.68,8.49l29.06,55.83c1.61,3.08,5.4,4.29,8.49,2.68l55.83-29.06c5.09,6.15,10.73,11.87,16.92,17.07l-20.01,63.42c-1.05,3.31.8,6.85,4.11,7.9l60.03,18.93c3.31,1.05,6.85-.8,7.9-4.11l17.64-55.95c10.63,1.3,21.21,1.3,31.56.07l31.21,59.97c1.61,3.08,5.4,4.29,8.49,2.68l55.83-29.06c3.08-1.61,4.29-5.4,2.68-8.49l-28.58-54.92c9.71-8.03,18.32-17.47,25.51-28.16l60.88,19.21c3.31,1.05,6.85-.8,7.9-4.11l18.93-60.03c1.05-3.31-.8-6.85-4.11-7.9l-60.88-19.21c.24-12.87-1.4-25.56-4.74-37.7l54.92-28.58c3.08-1.61,4.29-5.4,2.68-8.49l-29.06-55.83c-1.61-3.08-5.4-4.29-8.49-2.68l-59.97,31.21c-7.78-6.93-16.44-13.01-25.9-18.05l17.64-55.95c1.05-3.31-.8-6.85-4.11-7.9l-60.03-18.93c-3.31-1.05-6.85.8-7.9,4.11h.03ZM3147.94,655.33c-8.94,28.33-39.14,44.05-67.47,35.12-28.33-8.94-44.05-39.14-35.12-67.47,8.94-28.33,39.14-44.05,67.47-35.12,28.33,8.93,44.05,39.14,35.12,67.47Z"/>
  <path class="cls-5" d="M2727.17,204.43l-20.67,62.1c-7.93.57-15.73,1.87-23.34,3.84l-27.73-55.39c-1.53-3.06-5.25-4.3-8.32-2.77l-55.39,27.73c-3.06,1.53-4.3,5.25-2.77,8.32l30.24,60.4c-3.97,4.32-7.68,8.92-11.07,13.81l-61.87-20.59c-3.24-1.08-6.75.68-7.84,3.92l-19.56,58.77c-1.08,3.24.68,6.75,3.92,7.84l61.87,20.59c-.21,5.94,0,11.85.59,17.69l-60.4,30.24c-3.06,1.53-4.3,5.25-2.77,8.32l27.73,55.39c1.53,3.06,5.25,4.3,8.32,2.77l55.39-27.73c4.92,6.13,10.38,11.85,16.39,17.06l-20.67,62.1c-1.08,3.24.68,6.75,3.92,7.84l58.77,19.56c3.24,1.08,6.75-.68,7.84-3.92l18.22-54.78c10.44,1.45,20.85,1.6,31.06.56l29.78,59.5c1.53,3.06,5.25,4.3,8.32,2.77l55.39-27.73c3.06-1.53,4.3-5.25,2.77-8.32l-27.28-54.48c9.68-7.75,18.3-16.91,25.54-27.31l59.61,19.84c3.24,1.08,6.75-.68,7.84-3.92l19.56-58.77c1.08-3.24-.68-6.75-3.92-7.84l-59.61-19.84c.44-12.66-.98-25.17-4.08-37.17l54.48-27.28c3.06-1.53,4.3-5.25,2.77-8.32l-27.73-55.39c-1.53-3.06-5.25-4.3-8.32-2.77l-59.5,29.78c-7.54-6.94-15.97-13.06-25.21-18.16l18.22-54.78c1.08-3.24-.68-6.75-3.92-7.84l-58.77-19.56c-3.24-1.08-6.75.68-7.84,3.92h.03ZM2766.07,414.2c-9.24,27.74-39.2,42.74-66.94,33.52-27.74-9.24-42.74-39.2-33.52-66.94,9.24-27.74,39.2-42.74,66.94-33.52,27.74,9.22,42.74,39.2,33.52,66.94Z"/>
  <path class="cls-2" d="M1451.97,739.64l114.75-66.25c107.55-62.1,144.4-199.62,82.31-307.17h0c-62.1-107.55-199.62-144.4-307.17-82.31l-276.04,159.37c-125.86,72.66-168.98,233.6-96.32,359.46h0s-.3.18-.3.18l403.38,698.67,389.48-224.87-310.08-537.08Z"/>
  <path class="cls-3" d="M1920.62,1425.64h0c-31.89,27.55-80.07,24.04-107.63-7.84l-235.93-273c9.49-41.9,36.35-73.99,88.07-92.06,15.85-5.54,33.48-.69,44.45,12.02l218.87,253.27c27.55,31.89,24.04,80.07-7.84,107.63Z"/>
  <rect class="cls-1" x="2030.64" y="1126.37" width="169.6" height="94.6" transform="translate(-297.68 1002.15) rotate(-24.96)"/>
  <path class="cls-5" d="M1992.84,1135.78c-57.64-123.85-163.19-219.18,119.88-328.6,98.43-38.05,205.44-22.12,276.71,46.77,4.21,4.07,3.08,11.09-2.23,13.57l-226.57,105.44c-12.42,5.78-17.8,20.53-12.02,32.95l30.56,65.66c7.37,15.84.51,34.65-15.33,42.02l-149.05,69.36-21.95-47.17Z"/>
  <path class="cls-5" d="M2028.55,1217.26c57.64,123.85,172.64,108.51,296.49,50.88,95.72-44.55,149.52-142.54,142.41-241.94-.41-5.8-6.54-9.36-11.81-6.91l-226.57,105.44-200.51,92.53Z"/>
  <path class="cls-5" d="M1983.17,1014.32c-120,98.23-651.09,315.09-1079.2,502.24-48.2,22.43-64.95,88.58-37.41,147.75h0c27.54,59.17,88.93,88.95,137.13,66.52,417.09-215.58,934.57-515.48,1079.2-502.24l-99.72-214.27ZM985.04,1689.33c-40.9,0-74.05-33.15-74.05-74.05s33.15-74.05,74.05-74.05,74.05,33.15,74.05,74.05-33.15,74.05-74.05,74.05Z"/>
  <path class="cls-1" d="M985.04,1541.23c-6.49,0-12.78.84-18.78,2.41,31.8,8.31,55.27,37.23,55.27,71.64s-23.47,63.33-55.27,71.64c6,1.57,12.29,2.41,18.78,2.41,40.9,0,74.05-33.15,74.05-74.05s-33.15-74.05-74.05-74.05Z"/>
  <path class="cls-4" d="M1860.17,1459.42l-84.64,39.39c-14.83,6.9-32.46.47-39.36-14.36l-171.94-369.45c20.59-37.7,55.21-61.22,109.9-64.46,16.76-.99,32.39,8.5,39.47,23.72l160.93,345.8c6.9,14.83.47,32.46-14.36,39.36Z"/>
  <path class="cls-4" d="M1740.73,1543.64l-84.64,39.39c-14.83,6.9-32.46.47-39.36-14.36l-182.89-392.99c19.34-61.51,66.78-81.01,138.36-64.39l182.89,392.99c6.9,14.83.47,32.46-14.36,39.36Z"/>
  <path class="cls-4" d="M1602.63,1579.28l-84.64,39.39c-14.83,6.9-32.46.47-39.36-14.36l-171.94-369.45c22.94-63.45,72-79.59,138.36-64.39l171.94,369.45c6.9,14.83.47,32.46-14.36,39.36Z"/>
  <path class="cls-4" d="M1462.45,1609.19l-84.64,39.39c-14.83,6.9-32.46.47-39.36-14.36l-149.34-320.9c-6.11-13.12-4.93-28.54,3.27-40.47,31.37-45.64,74.42-57.05,126.01-43.44l158.42,340.42c6.9,14.83.47,32.46-14.36,39.36Z"/>
  <rect class="cls-3" x="1407.24" y="1292.35" width="10.94" height="319.03" rx="5.47" ry="5.47" transform="translate(-480.68 731.62) rotate(-24.96)"/>
  <rect class="cls-6" x="1382.69" y="436.53" width="10.94" height="319.03" rx="5.47" ry="5.47" transform="translate(-121.87 641.36) rotate(-24.96)"/>
  <rect class="cls-6" x="1448.77" y="516.39" width="10.94" height="222.91" rx="5.47" ry="5.47"/>
  <rect class="cls-3" x="1681.93" y="1196.94" width="10.94" height="319.03" rx="5.47" ry="5.47" transform="translate(-414.77 838.61) rotate(-24.96)"/>
  <rect class="cls-3" x="1536.93" y="1209.89" width="10.94" height="372.96" rx="5.47" ry="5.47" transform="translate(-445.15 781.16) rotate(-24.96)"/>
  <path class="cls-2" d="M2383.84,702.37c-31.74,6.66-55.55-8.04-73.1-39.63,6.73,30.15-5.23,54.88-39.63,73.1,30.04-8.37,53.89,6.8,73.1,39.63,5.57-38.45,17.48-65.2,39.63-73.1Z"/>
  <path class="cls-2" d="M2435.07,644.74c-23.69,4.97-41.47-6-54.57-29.58,5.02,22.51-3.91,40.97-29.58,54.57,22.43-6.25,40.23,5.08,54.57,29.58,4.16-28.71,13.05-48.68,29.58-54.57Z"/>
  <path class="cls-2" d="M2350.91,605.29c-18.72,3.93-32.77-4.74-43.12-23.37,3.97,17.78-3.09,32.37-23.37,43.12,17.72-4.93,31.79,4.01,43.12,23.37,3.28-22.68,10.31-38.46,23.37-43.12Z"/>
</svg>