<?xml version="1.0" encoding="UTF-8"?>
<svg id="Layer_11" data-name="Layer 11" xmlns="http://www.w3.org/2000/svg" viewBox="0 0 4200 2000">
  <defs>
    <style>
      .cls-1 {
        fill: #4d4d4d;
      }

      .cls-2 {
        fill: #fff;
      }

      .cls-3 {
        fill: #f2f2f2;
      }

      .cls-4 {
        fill: #666;
      }

      .cls-5 {
        fill: #333;
      }

      .cls-6 {
        fill: #1a1a1a;
      }

      .cls-7 {
        fill: #ccc;
      }

      .cls-8 {
        fill: #b3b3b3;
      }

      .cls-9 {
        fill: none;
        stroke: #1a1a1a;
        stroke-miterlimit: 10;
        stroke-width: 2px;
      }

      .cls-10 {
        fill: gray;
      }

      .cls-11 {
        fill: #e6e6e6;
      }
    </style>
  </defs>
  <polygon class="cls-6" points="2603 1661.59 1690.16 1819.52 1690.16 340.78 2594.07 321.61 2603 1661.59"/>
  <path class="cls-10" d="M2208.57,98.57l-908.61,44.61,11.74,1338.26,312.26,389.74,1023.65-180.78V241.78l-439.04-143.22ZM1715.52,1770.22l-11.74-1368.78,864-70.43,9.39,1326.52-861.65,112.7Z"/>
  <polygon class="cls-10" points="2549 349.78 2549 1643.43 2055.96 1955.7 1966.74 1904.04 1952.65 511.78 2480.91 349.78 2549 349.78"/>
  <polygon class="cls-1" points="1299.96 143.17 1609.87 309.87 1623.96 1871.17 1311.7 1481.43 1299.96 143.17"/>
  <polygon class="cls-7" points="1941.52 1446.44 1425.08 1157.75 1630.14 790.92 2034.58 1046.6 1941.52 1446.44"/>
  <line class="cls-9" x1="1697.32" y1="866.62" x2="1525.47" y2="1174.58"/>
  <line class="cls-9" x1="1753" y1="896.63" x2="1581.15" y2="1204.59"/>
  <line class="cls-9" x1="1795.81" y1="924.61" x2="1623.96" y2="1232.57"/>
  <line class="cls-9" x1="1838.93" y1="949.83" x2="1667.08" y2="1257.79"/>
  <line class="cls-9" x1="1890.67" y1="984.87" x2="1718.81" y2="1292.83"/>
  <line class="cls-9" x1="1935.31" y1="1009.72" x2="1763.46" y2="1317.67"/>
  <line class="cls-9" x1="1987.61" y1="1036.33" x2="1815.76" y2="1344.28"/>
  <polygon class="cls-3" points="1934.48 1348.36 1418.04 1059.68 1623.1 692.84 2028.54 940.53 1934.48 1348.36"/>
  <line class="cls-9" x1="1656.83" y1="742.65" x2="1484.97" y2="1050.61"/>
  <line class="cls-9" x1="1709.88" y1="783.74" x2="1538.03" y2="1091.7"/>
  <line class="cls-9" x1="1763.46" y1="808.93" x2="1591.6" y2="1116.88"/>
  <line class="cls-9" x1="1809.22" y1="830.89" x2="1637.36" y2="1138.85"/>
  <line class="cls-9" x1="1849.38" y1="866.62" x2="1677.53" y2="1174.58"/>
  <line class="cls-9" x1="1901.68" y1="896.63" x2="1729.83" y2="1204.59"/>
  <line class="cls-9" x1="1947.8" y1="924.61" x2="1775.94" y2="1232.57"/>
  <line class="cls-9" x1="2003.1" y1="952.13" x2="1831.25" y2="1260.09"/>
  <polygon class="cls-8" points="1962.83 527.04 1879.09 561.06 1894.74 1782.42 1991.92 1819.52 1962.83 527.04"/>
  <rect class="cls-11" x="1888.48" y="742.65" width="90.78" height="90.78"/>
  <rect class="cls-11" x="1888.48" y="1144.91" width="90.78" height="90.78"/>
  <rect class="cls-11" x="1888.48" y="1564.39" width="90.78" height="90.78"/>
  <polygon class="cls-8" points="1609.87 309.87 2647.61 241.78 2208.57 98.57 1299.96 143.17 1609.87 309.87"/>
  <path class="cls-8" d="M2505.88,367h162.68c14.16,0,25.65,11.49,25.65,25.65v202.27c0,14.16-11.49,25.65-25.65,25.65h-162.68c-7.3,0-13.23-5.93-13.23-13.23v-227.11c0-7.3,5.93-13.23,13.23-13.23Z"/>
  <path class="cls-8" d="M2505.88,1408.02h162.68c14.16,0,25.65,11.49,25.65,25.65v202.27c0,14.16-11.49,25.65-25.65,25.65h-162.68c-7.3,0-13.23-5.93-13.23-13.23v-227.11c0-7.3,5.93-13.23,13.23-13.23Z"/>
  <ellipse class="cls-5" cx="2358.04" cy="845.96" rx="68.87" ry="111.13"/>
  <rect class="cls-5" x="2345.52" y="788.04" width="92.35" height="123.65"/>
  <ellipse class="cls-4" cx="2437.87" cy="849.87" rx="32.87" ry="61.83"/>
  <ellipse class="cls-2" cx="1895.52" cy="788.04" rx="33.65" ry="45.39"/>
  <path class="cls-8" d="M2204.65,1091.7h43.83v130.7c0,7.34-5.96,13.3-13.3,13.3h-17.22c-7.34,0-13.3-5.96-13.3-13.3v-130.7h0Z"/>
  <path class="cls-8" d="M2285.26,889.15h43.83v130.7c0,7.34-5.96,13.3-13.3,13.3h-17.22c-7.34,0-13.3-5.96-13.3-13.3v-130.7h0Z" transform="translate(3281.52 3262.77) rotate(-135.56)"/>
  <path class="cls-8" d="M2141.74,890.91h43.83v130.7c0,7.34-5.96,13.3-13.3,13.3h-17.22c-7.34,0-13.3-5.96-13.3-13.3v-130.7h0Z" transform="translate(4366.05 92.26) rotate(134.44)"/>
  <path class="cls-8" d="M2189.07,1103.81h66.27s0-120.52,0-120.52h-66.27c-4.34,0-8.24,2.58-10.01,6.54-15.97,35.81-15.97,71.62,0,107.43,1.77,3.96,5.67,6.54,10.01,6.54Z"/>
  <ellipse class="cls-11" cx="2259.5" cy="1043.55" rx="38.59" ry="60.26"/>
  <ellipse class="cls-2" cx="1895.52" cy="1190.3" rx="33.65" ry="45.39"/>
  <ellipse class="cls-2" cx="1895.52" cy="1609.78" rx="33.65" ry="45.39"/>
  <polygon class="cls-1" points="1952.65 509.43 2039.52 527.04 2055.96 1955.7 1966.74 1904.04 1952.65 509.43"/>
  <polygon class="cls-8" points="2039.52 525.87 2546.65 350.13 2480.91 349.78 1952 510.78 2039.52 525.87"/>
  <polygon class="cls-7" points="1504.22 1852.39 1217.78 1483.78 842.13 1556.57 1098.04 1939.65 1504.22 1852.39"/>
  <line class="cls-9" x1="921.49" y1="1642.26" x2="1233.75" y2="1577.3"/>
  <line class="cls-9" x1="944.68" y1="1676.99" x2="1256.94" y2="1612.03"/>
  <line class="cls-9" x1="973.61" y1="1714.65" x2="1285.87" y2="1649.7"/>
  <line class="cls-9" x1="999.43" y1="1747.13" x2="1311.7" y2="1682.17"/>
  <line class="cls-9" x1="1017.04" y1="1787.04" x2="1329.3" y2="1722.09"/>
  <line class="cls-9" x1="1038.6" y1="1819.52" x2="1350.86" y2="1754.57"/>
  <line class="cls-9" x1="1063.51" y1="1852" x2="1375.77" y2="1787.04"/>
  <line class="cls-9" x1="1085.13" y1="1891.91" x2="1397.39" y2="1826.96"/>
  <line class="cls-9" x1="895.2" y1="1596.87" x2="1207.46" y2="1531.91"/>
  <polygon class="cls-3" points="1572.3 1871.17 1285.87 1502.57 910.22 1575.35 1166.13 1958.43 1572.3 1871.17"/>
  <line class="cls-9" x1="973.61" y1="1609.78" x2="1285.87" y2="1544.83"/>
  <line class="cls-9" x1="987.7" y1="1642.26" x2="1299.96" y2="1577.3"/>
  <line class="cls-9" x1="1017.04" y1="1674.74" x2="1329.3" y2="1609.78"/>
  <line class="cls-9" x1="1038.6" y1="1707.22" x2="1350.86" y2="1642.26"/>
  <line class="cls-9" x1="1063.51" y1="1744.2" x2="1375.77" y2="1679.24"/>
  <line class="cls-9" x1="1085.13" y1="1776.67" x2="1397.39" y2="1711.72"/>
  <line class="cls-9" x1="1112.82" y1="1819.52" x2="1425.08" y2="1754.57"/>
  <line class="cls-9" x1="1143.83" y1="1852" x2="1456.09" y2="1787.04"/>
  <line class="cls-9" x1="1173.17" y1="1894.85" x2="1485.43" y2="1829.89"/>
</svg>