<?xml version="1.0" encoding="utf-8"?>
<!-- Generator: Adobe Illustrator 27.0.0, SVG Export Plug-In . SVG Version: 6.00 Build 0)  -->
<svg version="1.1" xmlns="http://www.w3.org/2000/svg" xmlns:xlink="http://www.w3.org/1999/xlink" x="0px" y="0px"
	 viewBox="0 0 330.4 271.1" style="enable-background:new 0 0 330.4 271.1;" xml:space="preserve">
<style type="text/css">
	.st0{opacity:0.89;fill:#FAEFEF;}
	.st1{fill:#FFFFFF;}
	.st2{opacity:0.38;fill:#C8C9CB;}
	.st3{fill:none;stroke:#601113;stroke-width:2;stroke-miterlimit:10;}
	.st4{fill:#E6A6A8;}
	.st5{fill:#C8C9CB;}
	.st6{fill:#C02126;}
	.st7{opacity:0.78;}
	.st8{fill:#B58D90;}
	.st9{fill:#CCBABD;}
	.st10{fill:#601113;}
	.st11{fill:#D97A7D;}
	.st12{fill:#F2D3D4;}
	.st13{fill:#F7E5E5;}
	.st14{opacity:0.42;}
	.st15{opacity:0.29;}
	.st16{fill:none;stroke:#601113;stroke-width:2;stroke-linecap:round;stroke-linejoin:round;stroke-miterlimit:10;}
	.st17{fill:none;stroke:#601113;stroke-width:1.5;stroke-linecap:round;stroke-linejoin:round;stroke-miterlimit:10;}
	.st18{fill:#D9E1E2;}
	.st19{opacity:0.79;fill:#D9E1E2;}
	.st20{opacity:0.56;fill:#D9E1E2;}
	.st21{fill:none;stroke:#601113;stroke-width:2;stroke-linecap:round;stroke-miterlimit:10;}
	.st22{opacity:0.15;fill:#601113;}
	.st23{opacity:0.36;}
	.st24{opacity:0.49;}
	.st25{opacity:0.48;}
	.st26{opacity:0.36;fill:none;stroke:#B58D90;stroke-width:2;stroke-linecap:round;stroke-linejoin:round;stroke-miterlimit:10;}
	.st27{opacity:0.42;fill:none;stroke:#C02126;stroke-width:2;stroke-linecap:round;stroke-linejoin:round;stroke-miterlimit:10;}
	.st28{opacity:0.34;fill:none;stroke:#D97A7D;stroke-width:2;stroke-linecap:round;stroke-linejoin:round;stroke-miterlimit:10;}
	.st29{fill:#E3E5E7;}
	.st30{opacity:0.29;fill:#601113;}
	.st31{opacity:0.74;}
	.st32{opacity:0.44;fill:#C8C9CB;}
	.st33{fill:#FAEFEF;}
	.st34{opacity:0.2;fill:#601113;}
	.st35{opacity:0.25;fill:#FFFFFF;}
	.st36{opacity:0.34;fill:none;stroke:#601113;stroke-width:2;stroke-miterlimit:10;}
	.st37{opacity:0.34;}
	.st38{opacity:0.15;}
	.st39{opacity:0.23;fill:#253746;}
	.st40{fill:#253746;}
	.st41{opacity:0.3;fill:#C8C9CB;}
	.st42{fill:none;stroke:#23185D;stroke-width:1.5;stroke-linecap:round;stroke-linejoin:round;stroke-miterlimit:10;}
	.st43{opacity:0.54;}
	.st44{fill:none;stroke:#601113;stroke-width:0.25;stroke-miterlimit:10;}
	.st45{fill:#D1D1D1;}
	.st46{fill:none;stroke:#C02126;stroke-width:2;stroke-miterlimit:10;}
	.st47{fill:none;stroke:#C02126;stroke-width:2;stroke-miterlimit:10;stroke-dasharray:1.9895,1.9895;}
	.st48{opacity:0.25;fill:#601113;}
	.st49{opacity:0.26;fill:#FFFFFF;}
	.st50{fill:none;stroke:#FFFFFF;stroke-miterlimit:10;}
	.st51{fill:none;stroke:#FFFFFF;stroke-width:2;stroke-miterlimit:10;}
	.st52{opacity:0.15;fill:#253746;}
	.st53{opacity:0.43;}
	.st54{opacity:0.52;fill:none;stroke:#FFFFFF;stroke-width:2;stroke-linecap:round;stroke-linejoin:round;stroke-miterlimit:10;}
	.st55{fill:#401010;}
	.st56{opacity:0.15;fill:#3D0016;}
	.st57{fill:#717171;}
	.st58{opacity:0.42;fill:#FFFFFF;}
	.st59{opacity:0.33;fill:#601113;}
	.st60{fill:#ECEAEC;}
	.st61{opacity:0.17;fill:#601113;}
	.st62{opacity:0.58;fill:#FFFFFF;}
	.st63{opacity:0.12;fill:#601113;}
	.st64{opacity:0.35;}
	
		.st65{fill:none;stroke:#601113;stroke-width:2;stroke-linejoin:round;stroke-dasharray:2.0929,2.0929,2.0929,2.0929,2.0929,2.0929;}
	.st66{opacity:0.41;}
	.st67{opacity:0.33;}
	.st68{fill:none;stroke:#601113;stroke-width:2;stroke-linejoin:round;stroke-miterlimit:10;stroke-dasharray:2,2,2,2,2,2;}
	.st69{opacity:0.57;fill:#FFFFFF;}
	.st70{opacity:0.37;fill:none;stroke:#FFFFFF;stroke-linecap:round;stroke-linejoin:round;stroke-miterlimit:10;}
	.st71{opacity:0.48;fill:#FFFFFF;}
	.st72{fill:none;stroke:#601113;stroke-linecap:round;stroke-linejoin:round;stroke-miterlimit:10;}
	.st73{fill:none;stroke:#C02126;stroke-width:2;stroke-miterlimit:10;stroke-dasharray:2.0141,2.0141;}
</style>
<g id="Layer_2">
</g>
<g id="Layer_1">
	<g>
		<path class="st0" d="M32.3,139.4c-0.7-31,16.9-52.9,37.9-56.2s42.5-0.8,57.4-12.8s35.6-41.7,59.1-42.2
			c57.7-1.2,110.2,85.6,111.4,137.2s-34.5,67.3-56.3,67.7c-21.8,0.5-46.4-27.5-73.6-26.9s-35.7,14.4-67.2,15.1
			S33.3,183.1,32.3,139.4z"/>
		<line class="st3" x1="289.4" y1="213.4" x2="294.5" y2="213.4"/>
		<polyline class="st3" points="57.8,213.4 73.8,213.4 137.7,213.4 207,213.4 216.6,213.4 260.3,213.4 272.7,213.4 284,213.4 		"/>
		<g>
			<path id="XMLID_00000067925957902516483140000003104417183741166479_" class="st1" d="M213.2,157.6l-5.4-5.5
				c2.2-3.5,3.8-7.2,4.6-11.1l7.7,0c2.8,0,5-2.2,5-4.9l0-5.8c0-2.7-2.2-5-4.9-5l-7.7,0c-0.8-3.9-2.4-7.6-4.5-11.1l5.5-5.4
				c2-1.9,2-5.1,0-7l-4-4.1c-1.9-2-5.1-2-7,0l-5.5,5.4c-3.4-2.2-7.1-3.7-10.9-4.6l0.1-7.7c0-2.7-2.2-5-4.9-5l-5.8-0.1
				c-2.7,0-5,2.2-5,4.9l-0.1,7.7c-3.9,0.8-7.7,2.3-11.1,4.5l-5.4-5.5c-1.9-2-5.1-2-7,0l-4.1,4c-2,1.9-2,5.1-0.1,7l5.4,5.5
				c-2.2,3.5-3.8,7.2-4.7,11.1l-7.7-0.1c-2.7,0-5,2.2-5,4.9l-0.1,5.7c0,2.8,2.2,5,4.9,5l7.7,0.1c0.9,3.9,2.3,7.7,4.5,11.1l-5.5,5.4
				c-2,1.9-2,5.1-0.1,7l4,4.1c1.9,2,5.1,2,7,0.1l5.5-5.4c3.5,2.2,7.2,3.8,11.1,4.7l-0.1,7.7c0,2.7,2.2,5,5,5l5.7,0
				c2.7,0,5-2.2,5-4.9l0.1-7.7c3.9-0.9,7.6-2.4,11.1-4.5l5.4,5.5c1.9,2,5.1,2,7,0l4.1-4.1C215.1,162.7,215.2,159.6,213.2,157.6z"/>
			<path id="XMLID_00000029048161856155027570000009500712938796580262_" class="st16" d="M213.2,157.6l-5.4-5.5
				c2.2-3.5,3.8-7.2,4.6-11.1l7.7,0c2.8,0,5-2.2,5-4.9l0-5.8c0-2.7-2.2-5-4.9-5l-7.7,0c-0.8-3.9-2.4-7.6-4.5-11.1l5.5-5.4
				c2-1.9,2-5.1,0-7l-4-4.1c-1.9-2-5.1-2-7,0l-5.5,5.4c-3.4-2.2-7.1-3.7-10.9-4.6l0.1-7.7c0-2.7-2.2-5-4.9-5l-5.8-0.1
				c-2.7,0-5,2.2-5,4.9l-0.1,7.7c-3.9,0.8-7.7,2.3-11.1,4.5l-5.4-5.5c-1.9-2-5.1-2-7,0l-4.1,4c-2,1.9-2,5.1-0.1,7l5.4,5.5
				c-2.2,3.5-3.8,7.2-4.7,11.1l-7.7-0.1c-2.7,0-5,2.2-5,4.9l-0.1,5.7c0,2.8,2.2,5,4.9,5l7.7,0.1c0.9,3.9,2.3,7.7,4.5,11.1l-5.5,5.4
				c-2,1.9-2,5.1-0.1,7l4,4.1c1.9,2,5.1,2,7,0.1l5.5-5.4c3.5,2.2,7.2,3.8,11.1,4.7l-0.1,7.7c0,2.7,2.2,5,5,5l5.7,0
				c2.7,0,5-2.2,5-4.9l0.1-7.7c3.9-0.9,7.6-2.4,11.1-4.5l5.4,5.5c1.9,2,5.1,2,7,0l4.1-4.1C215.1,162.7,215.2,159.6,213.2,157.6z"/>
			<polygon class="st68" points="211.6,72.5 139.2,72.5 103.1,135.2 139.2,197.8 211.6,197.8 247.8,135.2 			"/>
			<circle class="st4" cx="138.5" cy="72.4" r="16"/>
			<circle class="st4" cx="138.5" cy="197.4" r="16"/>
			<circle class="st5" cx="103.2" cy="135.2" r="16"/>
			<circle class="st5" cx="211.5" cy="72.4" r="16"/>
			<circle class="st5" cx="211.5" cy="197.4" r="16"/>
			<circle class="st4" cx="246.8" cy="135.2" r="16"/>
			<path class="st69" d="M154.5,72.4c0,8-5.8,14.6-13.5,15.8c5.2-2.6,8.8-8,8.8-14.3c0-8.8-7.2-16-16-16c-0.9,0-1.7,0.1-2.5,0.2
				c2.2-1.1,4.6-1.7,7.2-1.7C147.3,56.4,154.5,63.6,154.5,72.4z"/>
			<path class="st69" d="M154.5,197.4c0,8-5.8,14.6-13.5,15.8c5.2-2.6,8.8-8,8.8-14.3c0-8.8-7.2-16-16-16c-0.9,0-1.7,0.1-2.5,0.2
				c2.1-1.1,4.6-1.7,7.2-1.7C147.3,181.4,154.5,188.5,154.5,197.4z"/>
			<path class="st69" d="M119.2,135.2c0,8-5.8,14.6-13.5,15.8c5.2-2.6,8.8-8,8.8-14.3c0-8.8-7.2-16-16-16c-0.9,0-1.7,0.1-2.5,0.2
				c2.2-1.1,4.6-1.7,7.2-1.7C112,119.2,119.2,126.3,119.2,135.2z"/>
			<path class="st69" d="M227.5,72.4c0,8-5.8,14.6-13.5,15.8c5.2-2.6,8.8-8,8.8-14.3c0-8.8-7.2-16-16-16c-0.9,0-1.7,0.1-2.5,0.2
				c2.2-1.1,4.6-1.7,7.2-1.7C220.3,56.4,227.5,63.6,227.5,72.4z"/>
			<path class="st69" d="M227.5,197.4c0,8-5.8,14.6-13.5,15.8c5.2-2.6,8.8-8,8.8-14.3c0-8.8-7.2-16-16-16c-0.9,0-1.7,0.1-2.5,0.2
				c2.1-1.1,4.6-1.7,7.2-1.7C220.3,181.4,227.5,188.5,227.5,197.4z"/>
			<path class="st69" d="M262.8,135.2c0,8-5.8,14.6-13.5,15.8c5.2-2.6,8.8-8,8.8-14.3c0-8.8-7.2-16-16-16c-0.9,0-1.7,0.1-2.5,0.2
				c2.2-1.1,4.6-1.7,7.2-1.7C255.7,119.2,262.8,126.3,262.8,135.2z"/>
			<circle class="st16" cx="138.5" cy="72.4" r="16"/>
			<circle class="st16" cx="138.5" cy="197.4" r="16"/>
			<circle class="st16" cx="103.2" cy="135.2" r="16"/>
			<circle class="st16" cx="211.5" cy="72.4" r="16"/>
			<circle class="st16" cx="211.5" cy="197.4" r="16"/>
			<circle class="st16" cx="246.8" cy="135.2" r="16"/>
			<g>
				<path class="st6" d="M190.6,117.2l0.1,0c5.4,2,4.5,6.9,4.4,7.2c2.5,0.9,4.2,3.3,4.2,6.1v1.7c0,2.8-1.7,5.1-4.1,6.1l0.1,0.2
					c0,0,2.1,5.8-4.5,7.7l-0.6,0.2c0.2,0.5,0.2,1.1,0.1,1.7c-0.3,1.8-2,3.5-5.7,3.5c-3.7,0-5.2-3.6-5.2-6.1c0-2.5,1.4-3.1,1.4-3.1
					l0.2-0.3c-0.6-0.3-1.4-0.9-1.4-2.1c0-2,0-10.6,0-10.6l1.5-2.3l-1.5-2.6v-9.1c0-1.4,1.8-3.9,5.1-3.9c3.3,0,5.8,1.7,6,4.3
					C190.8,116.3,190.7,116.8,190.6,117.2z"/>
				<path class="st6" d="M165.7,146.4l-0.6-0.2c-6.6-1.9-4.5-7.7-4.5-7.7l0.1-0.2c-2.4-0.9-4.1-3.3-4.1-6.1v-1.7
					c0-2.8,1.7-5.2,4.2-6.1c-0.1-0.3-1-5.3,4.4-7.2l0.1,0c-0.1-0.5-0.1-1-0.1-1.5c0.2-2.6,2.8-4.3,6-4.3c3.3,0,5.1,2.5,5.1,3.9v9.1
					l-1.5,2.6l1.5,2.3c0,0,0,8.6,0,10.6s-2,2.3-2,2.3l0.8,0.1c0,0,1.4,0.6,1.4,3.1c0,2.5-1.5,6.1-5.2,6.1c-3.7,0-5.3-1.7-5.7-3.5
					C165.4,147.5,165.5,146.9,165.7,146.4z"/>
				<path class="st70" d="M162,130.4c0,0-0.6,1-0.4,2.1s1.2,1.3,1.2,1.3"/>
				<path class="st70" d="M166.4,131.9c0,0,1.5-1.1,1.5-2.6c0-1.5-1.9-1.3-1.5-3.9c0.4-2.6,3.4-2.4,3.8-1.3"/>
				<path class="st70" d="M169.6,117.3c0,0,1.6-0.8,2.8,0c1.3,0.9,0.6,1.9,0.6,1.9"/>
				<path class="st70" d="M166.8,138.1c0,0,2.3-0.6,2.7,1c0.4,1.5-1.3,2.6-1.3,2.6"/>
				<path class="st70" d="M173.7,135.3c0,0-1.3-0.8-2.6,0c-1.3,0.8-1.4,2.3-1.4,2.3"/>
				<path class="st70" d="M170,147.6c0,0,0.6,0.4,1.5,0.1c0.9-0.2,1.4-0.9,1.4-0.9"/>
				<path class="st70" d="M193.8,130.4c0,0,0.6,1,0.4,2.1s-1.2,1.3-1.2,1.3"/>
				<path class="st70" d="M189.5,131.9c0,0-1.5-1.1-1.5-2.6c0-1.5,1.9-1.3,1.5-3.9c-0.4-2.6-3.4-2.4-3.8-1.3"/>
				<path class="st70" d="M186.2,117.3c0,0-1.6-0.8-2.8,0c-1.3,0.9-0.6,1.9-0.6,1.9"/>
				<path class="st70" d="M189,138.1c0,0-2.3-0.6-2.7,1c-0.4,1.5,1.3,2.6,1.3,2.6"/>
				<path class="st70" d="M182.4,134.6c0,0,1.3-0.8,2.6,0c1.3,0.8,1.4,2.3,1.4,2.3"/>
				<path class="st70" d="M185.9,147.6c0,0-0.6,0.4-1.5,0.1c-0.9-0.2-1.4-0.9-1.4-0.9"/>
				<path class="st5" d="M180.9,163.1v0.8c0,1.6-1.3,2.9-2.9,2.9c-1.6,0-3-1.3-3-2.9v-0.8h3H180.9z"/>
				<path class="st5" d="M171.1,160.4h13.9v0.4c0,1.3-1,2.3-2.3,2.3h-1.9h-2.9h-3h-1.9c-1.3,0-2.3-1-2.3-2.3v-0.4H171.1z"/>
				<polygon class="st5" points="185.1,157.7 185.1,160.4 171.1,160.4 170.8,160.4 170.8,157.7 171.1,157.7 				"/>
				<polygon class="st5" points="170.8,155.2 177.9,155.2 185.1,155.2 185.1,157.7 171.1,157.7 170.8,157.7 				"/>
				<path class="st71" d="M199.4,130.6v1.7c0,2.8-1.7,5.1-4.1,6.1l0.1,0.2c0,0,2.1,5.8-4.5,7.7l-0.6,0.2c0.2,0.5,0.2,1.1,0.1,1.7
					c-0.3,1.8-2,3.5-5.7,3.5c-0.5,0-1-0.1-1.5-0.2c2.3-0.5,3.3-1.8,3.6-3.2c0.1-0.6,0-1.2-0.1-1.7l0.6-0.2c6.6-1.9,4.5-7.7,4.5-7.7
					l-0.1-0.2c2.4-0.9,4.1-3.3,4.1-6.1v-1.7c0-2.8-1.7-5.2-4.2-6.1c0.1-0.3,1-5.3-4.4-7.2l-0.1,0c0.1-0.5,0.1-1,0.1-1.5
					c-0.2-2.1-1.8-3.5-4.1-4.1c0.5-0.1,1-0.2,1.6-0.2c3.3,0,5.8,1.7,6,4.3c0.1,0.6,0,1.1-0.1,1.5l0.1,0c5.4,2,4.5,6.9,4.4,7.2
					C197.6,125.4,199.4,127.8,199.4,130.6z"/>
				<path class="st16" d="M166.6,119.9c0,0-1.1-1-1.4-2.7c-0.1-0.5-0.1-1-0.1-1.5c0.2-2.6,2.8-4.3,6-4.3c3.3,0,5.1,2.5,5.1,3.9v9.1
					l-1.5,2.6l1.5,2.3c0,0,0,8.6,0,10.6s-2,2.3-2,2.3"/>
				<path class="st16" d="M160.7,124.5C160.7,124.5,160.7,124.5,160.7,124.5c-0.1-0.4-1-5.3,4.4-7.2"/>
				<path class="st16" d="M166.1,124.1H163c-0.8,0-1.6,0.2-2.3,0.4c-2.5,0.9-4.2,3.3-4.2,6.1v1.7c0,2.8,1.7,5.1,4.1,6.1
					c0.7,0.3,1.5,0.5,2.4,0.5"/>
				<line class="st16" x1="174.7" y1="127" x2="172.4" y2="127"/>
				<path class="st16" d="M160.6,138.5c0,0-2.1,5.8,4.5,7.7"/>
				<path class="st16" d="M166.6,144.7c0,0-0.6,0.7-0.9,1.7c-0.2,0.5-0.2,1.1-0.1,1.7c0.3,1.8,2,3.5,5.7,3.5c3.7,0,5.2-3.6,5.2-6.1
					c0-2.5-1.4-3.1-1.4-3.1"/>
				<line class="st16" x1="155.2" y1="107.4" x2="157.2" y2="109.5"/>
				<line class="st16" x1="159.2" y1="111.6" x2="160.4" y2="112.8"/>
				<line class="st16" x1="146.5" y1="130.4" x2="151" y2="130.4"/>
				<line class="st16" x1="177.9" y1="107.4" x2="177.9" y2="102.1"/>
				<path class="st16" d="M177.9,155.2h-7.1v2.5v2.7v0.4c0,1.3,1,2.3,2.3,2.3h1.9h3"/>
				<path class="st16" d="M177.9,166.9c-1.6,0-3-1.3-3-2.9v-0.8"/>
				<path class="st16" d="M189.3,119.9c0,0,1.1-1,1.4-2.7c0.1-0.5,0.1-1,0.1-1.5c-0.2-2.6-2.8-4.3-6-4.3c-3.3,0-5.1,2.5-5.1,3.9v9.1
					l1.5,2.6l-1.5,2.3c0,0,0,8.6,0,10.6c0,1.2,0.8,1.8,1.4,2.1c0.4,0.2,0.6,0.2,0.6,0.2"/>
				<path class="st16" d="M195.2,124.5C195.2,124.5,195.2,124.5,195.2,124.5c0.1-0.4,1-5.3-4.4-7.2"/>
				<path class="st16" d="M189.7,124.1h3.1c0.8,0,1.6,0.2,2.3,0.4c2.5,0.9,4.2,3.3,4.2,6.1v1.7c0,2.8-1.7,5.1-4.1,6.1
					c-0.7,0.3-1.5,0.5-2.4,0.5"/>
				<line class="st16" x1="181.1" y1="127" x2="183.4" y2="127"/>
				<path class="st16" d="M195.3,138.5c0,0,2.1,5.8-4.5,7.7"/>
				<path class="st16" d="M189.3,144.7c0,0,0.6,0.7,0.9,1.7c0.2,0.5,0.2,1.1,0.1,1.7c-0.3,1.8-2,3.5-5.7,3.5c-3.7,0-5.2-3.6-5.2-6.1
					c0-2.5,1.4-3.1,1.4-3.1"/>
				<line class="st16" x1="200.6" y1="107.4" x2="198.6" y2="109.5"/>
				<line class="st16" x1="196.7" y1="111.6" x2="195.5" y2="112.8"/>
				<line class="st16" x1="209.4" y1="130.4" x2="204.9" y2="130.4"/>
				<path class="st16" d="M177.9,155.2h7.1v2.5v2.7v0.4c0,1.3-1,2.3-2.3,2.3h-1.9h-2.9"/>
				<path class="st16" d="M177.9,166.9c1.6,0,2.9-1.3,2.9-2.9v-0.8"/>
				<line class="st72" x1="171.1" y1="157.7" x2="185.1" y2="157.7"/>
				<line class="st72" x1="171.1" y1="160.4" x2="185.1" y2="160.4"/>
			</g>
		</g>
	</g>
</g>
</svg>
