<?xml version="1.0" encoding="utf-8"?>
<!-- Generator: Adobe Illustrator 27.0.0, SVG Export Plug-In . SVG Version: 6.00 Build 0)  -->
<svg version="1.1" xmlns="http://www.w3.org/2000/svg" xmlns:xlink="http://www.w3.org/1999/xlink" x="0px" y="0px"
	 viewBox="0 0 330.4 271.1" style="enable-background:new 0 0 330.4 271.1;" xml:space="preserve">
<style type="text/css">
	.st0{opacity:0.89;fill:#FAEFEF;}
	.st1{fill:#FFFFFF;}
	.st2{opacity:0.38;fill:#C8C9CB;}
	.st3{fill:none;stroke:#601113;stroke-width:2;stroke-miterlimit:10;}
	.st4{fill:#E6A6A8;}
	.st5{fill:#C8C9CB;}
	.st6{fill:#C02126;}
	.st7{opacity:0.78;}
	.st8{fill:#B58D90;}
	.st9{fill:#CCBABD;}
	.st10{fill:#601113;}
	.st11{fill:#D97A7D;}
	.st12{fill:#F2D3D4;}
	.st13{fill:#F7E5E5;}
	.st14{opacity:0.42;}
	.st15{opacity:0.29;}
	.st16{fill:none;stroke:#601113;stroke-width:2;stroke-linecap:round;stroke-linejoin:round;stroke-miterlimit:10;}
	.st17{fill:none;stroke:#601113;stroke-width:1.5;stroke-linecap:round;stroke-linejoin:round;stroke-miterlimit:10;}
	.st18{fill:#D9E1E2;}
	.st19{opacity:0.79;fill:#D9E1E2;}
	.st20{opacity:0.56;fill:#D9E1E2;}
	.st21{fill:none;stroke:#601113;stroke-width:2;stroke-linecap:round;stroke-miterlimit:10;}
	.st22{opacity:0.15;fill:#601113;}
	.st23{opacity:0.36;}
	.st24{opacity:0.49;}
	.st25{opacity:0.48;}
	.st26{opacity:0.36;fill:none;stroke:#B58D90;stroke-width:2;stroke-linecap:round;stroke-linejoin:round;stroke-miterlimit:10;}
	.st27{opacity:0.42;fill:none;stroke:#C02126;stroke-width:2;stroke-linecap:round;stroke-linejoin:round;stroke-miterlimit:10;}
	.st28{opacity:0.34;fill:none;stroke:#D97A7D;stroke-width:2;stroke-linecap:round;stroke-linejoin:round;stroke-miterlimit:10;}
	.st29{fill:#E3E5E7;}
	.st30{opacity:0.29;fill:#601113;}
	.st31{opacity:0.74;}
	.st32{opacity:0.44;fill:#C8C9CB;}
	.st33{fill:#FAEFEF;}
	.st34{opacity:0.2;fill:#601113;}
	.st35{opacity:0.25;fill:#FFFFFF;}
	.st36{opacity:0.34;fill:none;stroke:#601113;stroke-width:2;stroke-miterlimit:10;}
	.st37{opacity:0.34;}
	.st38{opacity:0.15;}
	.st39{opacity:0.23;fill:#253746;}
	.st40{fill:#253746;}
	.st41{opacity:0.3;fill:#C8C9CB;}
	.st42{fill:none;stroke:#23185D;stroke-width:1.5;stroke-linecap:round;stroke-linejoin:round;stroke-miterlimit:10;}
	.st43{opacity:0.54;}
	.st44{fill:none;stroke:#601113;stroke-width:0.25;stroke-miterlimit:10;}
	.st45{fill:#D1D1D1;}
	.st46{fill:none;stroke:#C02126;stroke-width:2;stroke-miterlimit:10;}
	.st47{fill:none;stroke:#C02126;stroke-width:2;stroke-miterlimit:10;stroke-dasharray:1.9895,1.9895;}
	.st48{opacity:0.25;fill:#601113;}
	.st49{opacity:0.26;fill:#FFFFFF;}
	.st50{fill:none;stroke:#FFFFFF;stroke-miterlimit:10;}
	.st51{fill:none;stroke:#FFFFFF;stroke-width:2;stroke-miterlimit:10;}
	.st52{opacity:0.15;fill:#253746;}
	.st53{opacity:0.43;}
	.st54{opacity:0.52;fill:none;stroke:#FFFFFF;stroke-width:2;stroke-linecap:round;stroke-linejoin:round;stroke-miterlimit:10;}
	.st55{fill:#401010;}
	.st56{opacity:0.15;fill:#3D0016;}
	.st57{fill:#717171;}
	.st58{opacity:0.42;fill:#FFFFFF;}
	.st59{opacity:0.33;fill:#601113;}
	.st60{fill:#ECEAEC;}
	.st61{opacity:0.17;fill:#601113;}
	.st62{opacity:0.58;fill:#FFFFFF;}
	.st63{opacity:0.12;fill:#601113;}
	.st64{opacity:0.35;}
	
		.st65{fill:none;stroke:#601113;stroke-width:2;stroke-linejoin:round;stroke-dasharray:2.0929,2.0929,2.0929,2.0929,2.0929,2.0929;}
	.st66{opacity:0.41;}
	.st67{opacity:0.33;}
	.st68{fill:none;stroke:#601113;stroke-width:2;stroke-linejoin:round;stroke-miterlimit:10;stroke-dasharray:2,2,2,2,2,2;}
	.st69{opacity:0.57;fill:#FFFFFF;}
	.st70{opacity:0.37;fill:none;stroke:#FFFFFF;stroke-linecap:round;stroke-linejoin:round;stroke-miterlimit:10;}
	.st71{opacity:0.48;fill:#FFFFFF;}
	.st72{fill:none;stroke:#601113;stroke-linecap:round;stroke-linejoin:round;stroke-miterlimit:10;}
	.st73{fill:none;stroke:#C02126;stroke-width:2;stroke-miterlimit:10;stroke-dasharray:2.0141,2.0141;}
</style>
<g id="Layer_2">
</g>
<g id="Layer_1">
	<g>
		<path class="st0" d="M29.8,139.1c-0.7-30.9,16.9-52.7,37.9-56c20.9-3.3,42.5-0.8,57.4-12.8s35.6-41.6,59.1-42.1
			c57.7-1.2,110.2,85.4,111.4,136.8S261,232,239.2,232.5c-21.8,0.5-46.4-27.4-73.6-26.8c-27.2,0.6-35.7,14.3-67.2,15
			S30.7,182.6,29.8,139.1z"/>
		<g class="st23">
			<g>
				<g>
					<path class="st1" d="M78.1,123.5c6.5-3.3,10.9-10.1,10.8-17.4c3.1,4.5,9,6.8,14.3,5.8c1.5-0.3,3-0.9,4.6-1.1
						c1.5-0.3,3.2-0.3,4.6,0.4c2,1,2.9,3.3,3.6,5.4c0.7,2.1,1.5,4.3,3.4,5.6c0.6,0.4,1.3,0.7,1.9,0.5c0,0,0,0,0,0
						c1.5,1.4,2.2,3.5,1.8,5.5c-0.5,2.3-2.6,4.2-4.9,4.5c-1.5,4.4-3.3,8.7-6.3,12.3c-0.1,0.1-0.2,0.3-0.3,0.4
						c-3,3.4-7.1,5.8-11.5,6.1c-4.5-0.2-8.6-2.7-11.6-6.1c-0.1-0.1-0.2-0.2-0.3-0.3c-3-3.5-4.8-7.9-6.3-12.3
						c-2.3-0.3-4.4-2.2-4.9-4.5c-0.4-1.7,0.1-3.6,1.3-5c0,0,0,0.1,0.1,0.1L78.1,123.5z"/>
					<path class="st1" d="M122.1,160.4L122.1,160.4c-4.7,7.3-13.4,11.8-22.1,11.6c-8.7,0.2-17.3-4.4-22.1-11.6
						c1.9-0.8,3.7-1.8,5.4-3.1c2.3-1.9,4.4-7.3,5.1-12.1c3,3.4,7.1,5.9,11.6,6.1c4.4-0.2,8.6-2.7,11.5-6.1c0.7,4.7,2.9,10.1,5.2,12
						C118.3,158.6,120.2,159.5,122.1,160.4z"/>
					<path class="st5" d="M147.2,212.4H52.9c0-5.5,0-14.9,0-20.4c0-8-0.4-17.2,5.8-23.2c3.3-3.2,7.8-4.7,12.2-6
						c2.4-0.7,4.8-1.4,7.1-2.4c4.7,7.3,13.4,11.8,22.1,11.6c8.7,0.2,17.3-4.4,22.1-11.6v0c2.3,1,4.7,1.7,7.1,2.4
						c4.4,1.3,8.9,2.8,12.2,6c6.2,6,5.8,15.2,5.8,23.2C147.2,197.6,147.2,206.9,147.2,212.4z"/>
					<path class="st55" d="M78.3,123.1c-2.4-3.2-3.6-7.2-3.5-11.1c0.1-4,1.7-7.9,4.3-11c0.8-0.9,1.7-1.7,2.7-2.2
						c1.2-0.5,2.2-0.3,3.4-0.1c2.1-4.6,5-8.4,10-10.1c4.7-1.6,10.1-0.8,14.2,2c1.9,1.3,3.5,3.1,5.5,4.1c2,1.1,4.8,1.3,6.5-0.3
						c0.3,2.9-0.3,5.4-2,7.7c2.2,2.3,3.6,4.9,4,8.1c0.4,3.2,0.1,6.4-0.4,9.5c-0.2,1.1-0.5,2.4-1.6,2.7c0,0,0,0,0,0
						c-0.7,0.2-1.3-0.1-1.9-0.5c-1.8-1.3-2.6-3.5-3.4-5.6c-0.7-2.1-1.7-4.3-3.6-5.4c-1.4-0.7-3.1-0.7-4.6-0.4
						c-1.5,0.3-3,0.9-4.6,1.1c-5.3,1-11.2-1.3-14.3-5.8c0,7.3-4.3,14.1-10.8,17.4L78.3,123.1C78.3,123.1,78.3,123.1,78.3,123.1z"/>
				</g>
				<path class="st5" d="M89.2,145.5c2.5,4.5,6.6,8.1,11.4,9.9c1.7,0.7,3.5,1.2,4.6,2.6c1.2,1.6,1,3.8,0.4,5.7c-1,3.3-3.2,6.3-6,8.3
					c4.3,0.4,8.7-1,12.4-3.2c3.7-2.2,6.9-5.2,10-8.2c-1.4,0.2-2.8-0.3-3.9-1.2c-1.1-0.9-1.9-2-2.6-3.2c-1.7-2.9-2.9-6.2-3.6-9.5
					c-2.6,3-6.5,4.9-10.5,5c-4,0.1-8-1.5-10.8-4.4"/>
				<path class="st16" d="M88.5,145.6c-0.7,4.7-2.8,10.2-5.1,12.1c-3.5,2.9-8.1,4.2-12.5,5.5s-8.9,2.8-12.2,6
					c-6.2,6-5.8,15.2-5.8,23.2c0,5.5,0,14.9,0,20.4h94.3c0-5.5,0-14.9,0-20.4c0-8,0.4-17.2-5.8-23.2c-3.3-3.2-7.8-4.7-12.2-6
					c-4.4-1.3-8.9-2.6-12.5-5.5c-2.2-1.8-4.2-6.7-5-11.2"/>
				<line class="st16" x1="72.2" y1="194.8" x2="72.2" y2="212.1"/>
				<line class="st16" x1="127.9" y1="194.8" x2="127.9" y2="212.1"/>
				<path class="st16" d="M122.1,160.7c-4.7,7.3-13.4,11.8-22.1,11.6c-8.7,0.2-17.3-4.4-22.1-11.6"/>
				<path class="st16" d="M121.5,122.4c2,1.3,3,3.8,2.5,6.1c-0.5,2.3-2.6,4.2-4.9,4.5c-1.5,4.4-3.3,8.7-6.3,12.3s-7.2,6.2-11.9,6.5
					c-4.6-0.2-8.9-2.9-11.9-6.5c-3-3.5-4.8-7.9-6.3-12.3c-2.3-0.3-4.4-2.2-4.9-4.5c-0.5-2.3,0.5-4.8,2.5-6.1"/>
				<path class="st10" d="M78.3,124.6c-2.4-3.2-3.7-7.2-3.6-11.2c0.1-4,1.7-7.9,4.3-11c0.8-0.9,1.7-1.7,2.7-2.2
					c1.2-0.5,2.2-0.3,3.4-0.1c2.1-4.6,5-8.4,10-10.1c4.7-1.6,10.1-0.8,14.2,2c1.9,1.3,3.5,3.1,5.5,4.1c2,1.1,4.8,1.3,6.5-0.3
					c0.3,2.9-0.3,5.4-2,7.7c2.2,2.3,3.6,4.9,4,8.1s0.1,6.4-0.4,9.5c-0.2,1.1-0.5,2.4-1.6,2.7c-0.7,0.2-1.3-0.1-1.9-0.5
					c-1.8-1.3-2.6-3.5-3.4-5.6c-0.7-2.1-1.7-4.3-3.6-5.4c-1.4-0.7-3.1-0.7-4.6-0.4c-1.5,0.3-3,0.9-4.6,1.2c-5.3,1-11.2-1.3-14.3-5.8
					c0,7.3-4.3,14.1-10.8,17.4"/>
			</g>
			<path class="st16" d="M106.9,137c-1,1.5-3.3,2.6-5.8,2.7c-2.5,0.1-5-0.9-6.1-2.3"/>
			<path class="st16" d="M245.6,133.2c-0.6,1-2.2,1.7-3.8,1.7c-1.6,0-3.2-0.6-4-1.5"/>
			<line class="st16" x1="100.1" y1="172.4" x2="100.1" y2="194.8"/>
		</g>
		<g class="st23">
			<path class="st1" d="M248.3,94.6c-3,2.3-5.1,5.4-7.5,8.4c-2.3,3-5,5.8-8.6,7c-2,0.7-4.1,0.8-6,1.6c-1.5,0.6-2.8,1.7-3.9,3
				c-2.9,3.7-3.3,9.2-1,13.3c0.7,1.1,2.1,2.2,3.1,1.4c-0.3,5.6,4.2,10.2,5.5,15.6c1.1,4.7-0.4,10-4,13.3c2.8,2.8,6.9,4,10.9,4
				c4,0,7.8-1,11.7-2c1.7-0.5,3.6-1.1,4.5-2.6c1.1-1.7,0.6-3.9,0.3-6c-1.1-7.7,1.6-15.4,4.3-22.8c0.8,0.3,1.8-0.2,2.3-0.9
				s0.7-1.6,0.9-2.5c0.4-2.1,0.8-4.2,1.3-6.3c0.2-0.9,0.3-2.1-0.4-2.7c-0.3-0.3-0.8-0.4-1.2-0.6c-1.9-1.1-1.7-3.9-1.6-6.1
				c0.2-7.2-5.5-14.1-12.7-15.2"/>
			<path class="st4" d="M286.1,212.1l-3.2-26.6c-2-5.8-0.9-12.8-4.8-17.4c-1.8-2.2-4.5-3.4-7-4.7c-4.6-2.2-9.5-4.4-14.6-4.4
				c-4,0.1-7.8,1.5-11.6,2.6c-3.8,1.1-8,1.8-11.8,0.5c-2.1-0.8-4.1-2.2-6.3-2.5c-1.7-0.2-3.4,0.3-5,0.8c-4.2,1.3-8.5,2.6-12.7,4
				c-3.1,1-6.5,2.3-7.8,5.3l-6.1,42.7c0,0-0.1,0.1-0.1,0.1L286.1,212.1z"/>
			<path class="st56" d="M235.5,149c1.7,1.5,3.9,2.6,6.1,2.5c1.4-0.1,2.8-0.5,4,0c1.6,0.7,2.1,2.7,1.9,4.3c-0.3,2.4-1.9,4.5-4,5.6
				c1.7,0,3.4,0,5-0.4c1.6-0.4,3.2-1.4,4-2.9c0.6-1.1,0.7-2.3,0.8-3.5c0.4-4.7,0.5-9.5,0.2-14.2c-2.4,3.3-6,5.6-10,6.3
				c-2,0.4-4,0.3-6-0.1c-1.2-0.2-3.6-1.7-4.6-1C233.4,147,234.5,148.1,235.5,149z"/>
			<path class="st16" d="M220.8,116.4c-0.3-0.6-1.2-0.5-1.6,0s-0.5,1.2-0.5,1.8c0,2.5,0.7,5,1.3,7.4c0.2,0.9,0.5,1.9,1.1,2.6
				c0.6,0.7,1.7,1.2,2.5,0.8c1.2,3,0.8,6.6,2.4,9.5c0.8,1.5,2.1,2.7,3.5,3.7c1.9,1.5,3.9,2.8,6,4c1,0.6,1.9,1.1,3,1.4
				c0.7,0.2,1.4,0.2,2.1,0.1c0.7,0.1,1.4,0.1,2.1-0.1c1.1-0.3,2.1-0.8,3-1.4c2.1-1.2,4.1-2.5,6-4c1.3-1.1,2.7-2.2,3.5-3.7
				c1.5-2.9,1.2-6.4,2.4-9.5c0.9,0.4,1.9,0,2.5-0.8c0.6-0.7,0.9-1.7,1.1-2.6c0.6-2.4,1.3-4.9,1.3-7.4c0-0.6,0-1.4-0.5-1.8
				c-0.4-0.5-1.3-0.6-1.6,0"/>
			<path class="st16" d="M229.5,143c-0.3,2.6,0.1,5.1-0.1,7.7c-0.1,2.6-0.8,5.3-2.8,7c-5.1,4.4-12.5,4.9-18.8,7.2
				c-2.2,0.8-5.5,1.8-6.2,4.3c-1.1,3.6-1.7,7.4-2.4,11c-1.5,7.4-2.6,14.9-3.5,22.4c-0.4,3.4-0.7,6.9-1,10.4"/>
			<path class="st16" d="M251.7,143c0.3,2.6-0.1,5.1,0.1,7.7c0.1,2.6,0.8,5.3,2.8,7c5.1,4.4,12.5,4.9,18.8,7.2
				c2.2,0.8,5.5,1.8,6.2,4.3c1.1,3.6,1.7,7.4,2.4,11c1.5,7.4,2.6,14.9,3.5,22.4c0.4,3.4,0.7,6.9,1,10.4"/>
			<path class="st10" d="M253.8,108.8c-1.9-3.1-3.7-6.8-2.5-10.2c-4.5,6.4-11.6,10.9-19.3,12.4c2.3-1,4.2-2.9,5.2-5.3
				c-2.6,2.7-6.6,3.6-9.6,5.9c-3.3,2.5-5.2,6.8-4.8,10.9c-1.9-3.7-3.3-7.8-3.6-12c-0.3-4.2,0.5-8.5,2.5-12.2
				c3.8-6.9,11.7-10.8,19.6-11.4c3.1-0.2,6.4,0,9,1.6c1.4,0.9,2.6,2.1,3.8,3.2c1.6,1.4,3.4,2.5,4.8,4.1c2.8,3,3.9,7.3,3.7,11.4
				c-0.2,3-0.6,6.9-2,9.6c-0.3,0.7-2.1,4.8-3,3.4c-0.3-0.5-0.1-4.4-0.3-5c-0.2-0.7-0.6-1.4-0.9-2.1
				C255.6,111.6,254.7,110.3,253.8,108.8z"/>
			<path class="st10" d="M250.1,142.6c2.1,6.6,0.7,13.9-2.3,20.1c-1.8,3.7-4,7.3-4.9,11.4c-1.3,6.3,1.4,13.3,6.7,17.1
				c3.3,2.3,7.4,3.5,11.4,2.7c3.9-0.7,7.6-3.3,9.2-7c-3.1,1.6-7.4,0.1-8.9-3c-1.4-3-0.3-6.6,1.6-9.2c1.9-2.6,4.6-4.6,7-6.9
				c2.4-2.2,4.6-5,5-8.2c0.3-2.1-0.3-4.4-1.8-6c-2.1-2.3-5.7-2.7-7.9-4.9c-2.3-2.2-2.8-5.5-3.5-8.5c-0.7-3-2-6.4-4.9-7.6
				c0.5,4.1-1.7,8.4-5.3,10.4"/>
			<path class="st16" d="M250.4,159.8c-7.5,3.9-17,3.5-24.3-0.9"/>
		</g>
		<line class="st3" x1="295.5" y1="212.8" x2="300.6" y2="212.8"/>
		<polyline class="st3" points="47.3,212.8 64.4,212.8 132.9,212.8 207.3,212.8 217.5,212.8 264.4,212.8 277.7,212.8 289.7,212.8 		
			"/>
		<g>
			<g>
				<g>
					<path class="st1" d="M142.9,99.3c8.7-4.4,14.4-13.4,14.4-23.1c4.1,5.9,11.9,9.1,19,7.7c2-0.4,4-1.1,6.1-1.5
						c2-0.4,4.3-0.4,6.1,0.6c2.6,1.4,3.9,4.3,4.8,7.1c1,2.8,2,5.8,4.4,7.4c0.7,0.5,1.7,0.9,2.5,0.6c0,0,0,0,0,0
						c1.9,1.8,2.9,4.7,2.3,7.3c-0.7,3-3.4,5.6-6.5,6c-1.9,5.8-4.4,11.6-8.4,16.3c-0.1,0.2-0.3,0.3-0.4,0.5
						c-3.9,4.4-9.4,7.8-15.3,8.1c-5.9-0.3-11.4-3.6-15.4-8.1c-0.1-0.1-0.3-0.3-0.4-0.4c-4-4.7-6.4-10.5-8.4-16.3
						c-3.1-0.4-5.8-3-6.5-6c-0.5-2.3,0.2-4.8,1.7-6.6c0,0,0.1,0.1,0.1,0.1L142.9,99.3z"/>
					<path class="st1" d="M201.3,148.2L201.3,148.2c-6.3,9.6-17.8,15.7-29.3,15.4c-11.5,0.2-23-5.8-29.3-15.4c2.6-1.1,5-2.4,7.1-4.1
						c3.1-2.5,5.9-9.7,6.8-16c3.9,4.5,9.4,7.8,15.4,8.1c5.9-0.3,11.4-3.6,15.3-8.1c1,6.3,3.8,13.4,6.9,15.9
						C196.4,145.9,198.8,147.2,201.3,148.2z"/>
					<path class="st6" d="M234.6,212.3H109.5c0-7.4,0-14.7,0-22.1c0-10.6-0.5-22.8,7.7-30.8c4.3-4.2,10.3-6.3,16.1-8
						c3.2-1,6.4-1.9,9.4-3.2c6.3,9.6,17.8,15.7,29.3,15.4c11.5,0.2,23-5.8,29.3-15.4v0c3,1.3,6.3,2.2,9.4,3.2
						c5.8,1.8,11.8,3.8,16.1,8c8.2,8,7.7,20.2,7.7,30.8C234.6,197.6,234.6,205,234.6,212.3z"/>
					<path class="st55" d="M143.2,98.7c-3.2-4.2-4.8-9.5-4.6-14.8c0.2-5.3,2.2-10.5,5.7-14.5c1-1.2,2.2-2.3,3.6-2.9
						c1.6-0.7,2.9-0.4,4.5-0.2c2.8-6.1,6.6-11.1,13.2-13.4c6.2-2.1,13.4-1.1,18.8,2.7c2.5,1.8,4.6,4.1,7.3,5.5
						c2.7,1.4,6.4,1.7,8.6-0.4c0.3,3.8-0.4,7.2-2.7,10.2c3,3,4.8,6.6,5.4,10.8c0.6,4.2,0.2,8.5-0.5,12.7c-0.2,1.5-0.7,3.2-2.1,3.6
						c0,0,0,0,0,0c-0.9,0.2-1.8-0.1-2.5-0.6c-2.4-1.7-3.5-4.7-4.4-7.4c-1-2.8-2.2-5.7-4.8-7.1c-1.8-1-4.1-1-6.1-0.6
						c-2,0.4-4,1.1-6.1,1.5c-7.1,1.4-14.9-1.8-19-7.7c0,9.7-5.7,18.8-14.4,23.1l0.4-0.5C143.2,98.8,143.2,98.8,143.2,98.7z"/>
				</g>
				<path class="st5" d="M157.7,128.5c3.3,6,8.7,10.7,15.1,13.2c2.2,0.9,4.7,1.6,6.1,3.5c1.6,2.1,1.4,5.1,0.6,7.6
					c-1.3,4.4-4.2,8.4-8,11c5.7,0.6,11.5-1.3,16.4-4.2c5-2.9,9.2-6.9,13.3-10.9c-1.8,0.3-3.7-0.4-5.2-1.6s-2.5-2.7-3.5-4.3
					c-2.3-3.9-3.9-8.2-4.7-12.7c-3.4,4-8.6,6.5-13.9,6.6c-5.3,0.1-10.6-2-14.3-5.9"/>
				<path class="st16" d="M156.8,128.6c-0.9,6.3-3.7,13.5-6.8,16c-4.7,3.8-10.7,5.6-16.5,7.3c-5.8,1.8-11.8,3.8-16.1,8
					c-8.2,8-7.7,20.2-7.7,30.8c0,7.4,0,14.7,0,22.1h125.1c0-7.4,0-14.7,0-22.1c0-10.6,0.5-22.8-7.7-30.8c-4.3-4.2-10.3-6.3-16.1-8
					c-5.8-1.8-11.8-3.5-16.5-7.3c-2.9-2.4-5.6-8.9-6.7-14.9"/>
				<line class="st16" x1="135.2" y1="193.9" x2="135.2" y2="211.9"/>
				<line class="st16" x1="209.1" y1="193.9" x2="209.1" y2="211.9"/>
				<path class="st16" d="M201.4,148.7c-6.3,9.6-17.8,15.7-29.3,15.4c-11.5,0.2-23-5.8-29.3-15.4"/>
				<path class="st16" d="M200.5,97.8c2.6,1.7,4,5,3.3,8.1c-0.7,3-3.4,5.6-6.5,6c-1.9,5.8-4.4,11.6-8.4,16.3
					c-4,4.7-9.6,8.3-15.7,8.6c-6.1-0.3-11.8-3.9-15.7-8.6c-4-4.7-6.4-10.5-8.4-16.3c-3.1-0.4-5.8-3-6.5-6s0.7-6.4,3.3-8.1"/>
				<path class="st10" d="M143.3,100.8c-3.2-4.2-4.9-9.6-4.7-14.9c0.2-5.3,2.2-10.5,5.7-14.5c1-1.2,2.2-2.3,3.6-2.9
					c1.6-0.7,2.9-0.4,4.5-0.2c2.8-6.1,6.6-11.1,13.2-13.4c6.2-2.1,13.4-1.1,18.8,2.7c2.5,1.8,4.6,4.1,7.3,5.5
					c2.7,1.4,6.4,1.7,8.6-0.4c0.3,3.8-0.4,7.2-2.7,10.2c3,3,4.8,6.6,5.4,10.8s0.2,8.5-0.5,12.7c-0.2,1.5-0.7,3.2-2.2,3.6
					c-0.9,0.2-1.8-0.1-2.5-0.6c-2.4-1.7-3.5-4.7-4.5-7.4c-1-2.8-2.2-5.7-4.8-7.1c-1.8-1-4.1-1-6.1-0.6s-4,1.1-6.1,1.5
					c-7.1,1.4-14.9-1.8-19-7.7c0,9.7-5.7,18.8-14.4,23.1"/>
			</g>
			<path class="st16" d="M181.2,117.3c-1.3,2-4.4,3.4-7.7,3.5c-3.3,0.1-6.6-1.2-8.1-3.1"/>
			<line class="st16" x1="172.1" y1="164.2" x2="172.1" y2="193.9"/>
		</g>
	</g>
</g>
</svg>
