<?xml version="1.0" encoding="utf-8"?>
<!-- Generator: Adobe Illustrator 27.0.0, SVG Export Plug-In . SVG Version: 6.00 Build 0)  -->
<svg version="1.1" xmlns="http://www.w3.org/2000/svg" xmlns:xlink="http://www.w3.org/1999/xlink" x="0px" y="0px"
	 viewBox="0 0 330.4 271.1" style="enable-background:new 0 0 330.4 271.1;" xml:space="preserve">
<style type="text/css">
	.st0{opacity:0.89;fill:#FAEFEF;}
	.st1{fill:#FFFFFF;}
	.st2{opacity:0.38;fill:#C8C9CB;}
	.st3{fill:none;stroke:#601113;stroke-width:2;stroke-miterlimit:10;}
	.st4{fill:#E6A6A8;}
	.st5{fill:#C8C9CB;}
	.st6{fill:#C02126;}
	.st7{opacity:0.78;}
	.st8{fill:#B58D90;}
	.st9{fill:#CCBABD;}
	.st10{fill:#601113;}
	.st11{fill:#D97A7D;}
	.st12{fill:#F2D3D4;}
	.st13{fill:#F7E5E5;}
	.st14{opacity:0.42;}
	.st15{opacity:0.29;}
	.st16{fill:none;stroke:#601113;stroke-width:2;stroke-linecap:round;stroke-linejoin:round;stroke-miterlimit:10;}
	.st17{fill:none;stroke:#601113;stroke-width:1.5;stroke-linecap:round;stroke-linejoin:round;stroke-miterlimit:10;}
	.st18{fill:#D9E1E2;}
	.st19{opacity:0.79;fill:#D9E1E2;}
	.st20{opacity:0.56;fill:#D9E1E2;}
	.st21{fill:none;stroke:#601113;stroke-width:2;stroke-linecap:round;stroke-miterlimit:10;}
	.st22{opacity:0.15;fill:#601113;}
	.st23{opacity:0.36;}
	.st24{opacity:0.49;}
	.st25{opacity:0.48;}
	.st26{opacity:0.36;fill:none;stroke:#B58D90;stroke-width:2;stroke-linecap:round;stroke-linejoin:round;stroke-miterlimit:10;}
	.st27{opacity:0.42;fill:none;stroke:#C02126;stroke-width:2;stroke-linecap:round;stroke-linejoin:round;stroke-miterlimit:10;}
	.st28{opacity:0.34;fill:none;stroke:#D97A7D;stroke-width:2;stroke-linecap:round;stroke-linejoin:round;stroke-miterlimit:10;}
	.st29{fill:#E3E5E7;}
	.st30{opacity:0.29;fill:#601113;}
	.st31{opacity:0.74;}
	.st32{opacity:0.44;fill:#C8C9CB;}
	.st33{fill:#FAEFEF;}
	.st34{opacity:0.2;fill:#601113;}
	.st35{opacity:0.25;fill:#FFFFFF;}
	.st36{opacity:0.34;fill:none;stroke:#601113;stroke-width:2;stroke-miterlimit:10;}
	.st37{opacity:0.34;}
	.st38{opacity:0.15;}
	.st39{opacity:0.23;fill:#253746;}
	.st40{fill:#253746;}
	.st41{opacity:0.3;fill:#C8C9CB;}
	.st42{fill:none;stroke:#23185D;stroke-width:1.5;stroke-linecap:round;stroke-linejoin:round;stroke-miterlimit:10;}
	.st43{opacity:0.54;}
	.st44{fill:none;stroke:#601113;stroke-width:0.25;stroke-miterlimit:10;}
	.st45{fill:#D1D1D1;}
	.st46{fill:none;stroke:#C02126;stroke-width:2;stroke-miterlimit:10;}
	.st47{fill:none;stroke:#C02126;stroke-width:2;stroke-miterlimit:10;stroke-dasharray:1.9895,1.9895;}
	.st48{opacity:0.25;fill:#601113;}
	.st49{opacity:0.26;fill:#FFFFFF;}
	.st50{fill:none;stroke:#FFFFFF;stroke-miterlimit:10;}
	.st51{fill:none;stroke:#FFFFFF;stroke-width:2;stroke-miterlimit:10;}
	.st52{opacity:0.15;fill:#253746;}
	.st53{opacity:0.43;}
	.st54{opacity:0.52;fill:none;stroke:#FFFFFF;stroke-width:2;stroke-linecap:round;stroke-linejoin:round;stroke-miterlimit:10;}
	.st55{fill:#401010;}
	.st56{opacity:0.15;fill:#3D0016;}
	.st57{fill:#717171;}
	.st58{opacity:0.42;fill:#FFFFFF;}
	.st59{opacity:0.33;fill:#601113;}
	.st60{fill:#ECEAEC;}
	.st61{opacity:0.17;fill:#601113;}
	.st62{opacity:0.58;fill:#FFFFFF;}
	.st63{opacity:0.12;fill:#601113;}
	.st64{opacity:0.35;}
	
		.st65{fill:none;stroke:#601113;stroke-width:2;stroke-linejoin:round;stroke-dasharray:2.0929,2.0929,2.0929,2.0929,2.0929,2.0929;}
	.st66{opacity:0.41;}
	.st67{opacity:0.33;}
	.st68{fill:none;stroke:#601113;stroke-width:2;stroke-linejoin:round;stroke-miterlimit:10;stroke-dasharray:2,2,2,2,2,2;}
	.st69{opacity:0.57;fill:#FFFFFF;}
	.st70{opacity:0.37;fill:none;stroke:#FFFFFF;stroke-linecap:round;stroke-linejoin:round;stroke-miterlimit:10;}
	.st71{opacity:0.48;fill:#FFFFFF;}
	.st72{fill:none;stroke:#601113;stroke-linecap:round;stroke-linejoin:round;stroke-miterlimit:10;}
	.st73{fill:none;stroke:#C02126;stroke-width:2;stroke-miterlimit:10;stroke-dasharray:2.0141,2.0141;}
</style>
<g id="Layer_2">
</g>
<g id="Layer_1">
	<g>
		<path class="st0" d="M32.3,139.4c-0.7-31,16.9-52.9,37.9-56.2s42.5-0.8,57.4-12.8s35.6-41.7,59.1-42.2
			c57.7-1.2,110.2,85.6,111.4,137.2s-34.5,67.3-56.3,67.7c-21.8,0.5-46.4-27.5-73.6-26.9s-35.7,14.4-67.2,15.1
			S33.3,183.1,32.3,139.4z"/>
		<line class="st3" x1="288.5" y1="213.4" x2="293.5" y2="213.4"/>
		<polyline class="st3" points="57.8,213.4 73.8,213.4 137.7,213.4 207,213.4 216.6,213.4 260.3,213.4 272.7,213.4 284,213.4 		"/>
		<g>
			<path class="st1" d="M267.8,130c-4.5-17.1-8.8-33.8-11.9-45.7c-16.2,0-119.4,0-175.4,0c-4.9,18.1-26,95.9-32.3,119.3
				c76,0,238.7,0,238.7,0S277.2,165.9,267.8,130z"/>
			<path class="st3" d="M267.8,130l-11.5-44.4c-0.2-0.8-0.9-1.3-1.6-1.3c-19.6,0-117.9,0-172.7,0c-0.8,0-1.4,0.5-1.6,1.3L48.8,201.5
				c-0.3,1.1,0.5,2.2,1.6,2.2c71.6,0,214.9,0,234.3,0c1.1,0,1.9-1.1,1.6-2.1L267.8,130z"/>
			<g>
				<path class="st45" d="M281.4,199.9c0,0-12.9,0-32.9,0l-4.2-31.9c9.4-1.3,18.2-6.2,24.3-13.4c0.1-0.1,0.2-0.2,0.3-0.4
					C275.5,179,281.4,199.9,281.4,199.9z"/>
				<path class="st45" d="M266.5,145.4c-2.3,3.6-5,7-8.3,9.7c-5,4.3-11.4,7.1-18,7.1c0.1-2.6,0.9-5.9,0.4-8.4
					c4.5-0.9,9.3-1.9,12.7-5.1c0.7-0.7,1.4-1.5,1.8-2.5c0.3-1,0.3-2.1-0.2-2.9c-0.4-0.6-1-1.1-1.6-1.4c-3.8-2.4-8.6-2.2-13.1-2.2
					l-1.9-12.3l23.5,0.1c0.3,1,0.5,2,0.8,3C263.8,135.4,265.2,140.4,266.5,145.4z"/>
				<path class="st4" d="M260.2,121.4l-22.9,0.1L234,99.2h20.7C256.4,106,258.2,113.5,260.2,121.4z"/>
				<path class="st45" d="M253.2,93.3h-20.1l-0.8-5.1c9.5,0,16.4,0,19.6,0C252.3,89.8,252.7,91.5,253.2,93.3z"/>
				<path class="st5" d="M231.7,127.4l9.8,72.5c-8.8,0-18.6,0-29.2,0l-1.5-38.9c-0.6-3.1-1.6-5.7-3.8-7.9c-2.2-2.2-5.3-3.6-8.4-3.3
					l-0.6-16.3H97l3.5-16.7h38.8c12.9,0,26.6,3.9,37.8,10.4L231.7,127.4z"/>
				<polygon class="st45" points="227.9,99.2 230.9,121.6 183.3,121.9 183.9,99.2 				"/>
				<path class="st45" d="M226.4,88.1l0.7,5.1h-43l0.1-5.1C200,88.1,214.7,88.1,226.4,88.1z"/>
				<path class="st4" d="M204.6,181.2v18.7c-10.6,0-21.7,0-33,0l0.8-18.7H204.6z"/>
				<path class="st45" d="M204.4,164.5c0.1,3.2-0.1,6.6,0,9.8H173l0.7-16.7l27.1-1.1c1.5,0.5,2.5,1.8,3,3.3S204.3,162.9,204.4,164.5
					z"/>
				<polygon class="st4" points="192.1,139.9 191.9,150.6 168.6,150.6 138.4,159.7 91.5,159.7 95.7,139.9 				"/>
				<path class="st45" d="M177.9,88.1l-0.1,5.1h-23.8l0.6-5.1C162.4,88.1,170.2,88.1,177.9,88.1z"/>
				<path class="st4" d="M177.7,99.2l-0.4,20.9c-7.6-4.9-16.5-7.7-25.5-7.9l1.5-12.9H177.7z"/>
				<path class="st4" d="M167,157.7l-2.2,42.2c-10,0-20.1,0-30,0l4-34L167,157.7z"/>
				<path class="st45" d="M147.9,88.1l-0.4,5.1h-42l1.1-5.1C119.4,88.1,133.6,88.1,147.9,88.1z"/>
				<polygon class="st5" points="147,99.2 145.9,111.2 101.7,111.2 104.2,99.2 				"/>
				<path class="st5" d="M133.1,165.9l-4.1,34c-16.1,0-31.8,0-46,0l7.1-33.6L133.1,165.9z"/>
				<path class="st45" d="M100.3,88.1l-1.1,5.1H82.8c0.6-2,1-3.8,1.4-5.1C89.2,88.1,94.6,88.1,100.3,88.1z"/>
				<path class="st45" d="M98,99.2l-1.1,5.3h-17c0.5-1.9,1-3.7,1.4-5.3H98z"/>
				<path class="st4" d="M95.4,111.2l-2.2,10.4H75.3c1-3.6,1.9-7.1,2.8-10.4H95.4z"/>
				<path class="st45" d="M89.3,139.9l-1.9,8.9H68.1c1.9-7.3,3.9-14.6,5.7-21.5H92L89.3,139.9z"/>
				<path class="st4" d="M83.6,166.9l-7,33c-8,0-15.4,0-22.1,0c1.3-4.7,3.2-11.8,5.4-20.1C69.1,173.2,75,170.1,83.6,166.9z"/>
			</g>
		</g>
		<g>
			<g>
				<path class="st46" d="M75.7,187.2c0.3,0,0.7-0.1,1-0.2"/>
				<path class="st47" d="M78.7,186.7c8.8-2.2,16.5-8.7,19.8-17.1c2.2-5.7,2.5-11.8,3.8-17.8c2.8-12.9,10.2-24.7,20.7-32.7
					c4.1-3.1,8.7-5.7,13.8-6.5s10.7,0.4,14.4,4c2.1,2.1,3.5,4.7,5.4,7c6.1,7.1,18.5,8,24.6,0.9c2.9-3.3,4.1-7.8,6.7-11.3
					c5.9-7.8,18.5-8.7,26.4-2.9c7.9,5.8,11.2,16.6,9.3,26.3c-0.8,4.2-2.4,8.5-1.2,12.5c1.2,3.9,4.7,6.6,7.3,9.8
					c4.2,5.2,6,12.3,4.8,18.9c-0.8,4.1-2.6,8.4-1.9,12.3"/>
				<path class="st46" d="M232.7,191c0.1,0.3,0.2,0.6,0.4,0.9"/>
			</g>
		</g>
		<g>
			<g id="XMLID_00000020396229206952418040000006024522785295702429_">
				<g>
					<path class="st6" d="M233.4,145.2c10.2,0,18.5,8.3,18.5,18.5c0,12.5-18.5,29.5-18.5,29.5s-18.5-17-18.5-29.5
						C214.9,153.5,223.2,145.2,233.4,145.2z M242.8,163.7c0-5.2-4.2-9.4-9.4-9.4c-5.2,0-9.4,4.2-9.4,9.4c0,5.2,4.2,9.4,9.4,9.4
						C238.6,173.2,242.8,168.9,242.8,163.7z"/>
					<path class="st1" d="M233.4,154.3c5.2,0,9.4,4.2,9.4,9.4c0,5.2-4.2,9.4-9.4,9.4c-5.2,0-9.4-4.2-9.4-9.4
						C224,158.6,228.2,154.3,233.4,154.3z"/>
				</g>
				<g>
					<path class="st3" d="M242.8,163.7c0,5.2-4.2,9.4-9.4,9.4c-5.2,0-9.4-4.2-9.4-9.4c0-5.2,4.2-9.4,9.4-9.4
						C238.6,154.3,242.8,158.6,242.8,163.7z"/>
					<path class="st3" d="M233.4,193.2c0,0,18.5-17,18.5-29.5c0-10.2-8.3-18.5-18.5-18.5c-10.2,0-18.5,8.3-18.5,18.5
						C214.9,176.3,233.4,193.2,233.4,193.2z"/>
				</g>
			</g>
		</g>
		<g>
			<g id="XMLID_00000004540266961699065470000017941628060510590115_">
				<g>
					<path class="st6" d="M204.4,70.4c7.6,0,13.7,6.1,13.7,13.7c0,9.3-13.7,21.8-13.7,21.8s-13.7-12.5-13.7-21.8
						C190.7,76.5,196.8,70.4,204.4,70.4z M211.3,84.1c0-3.8-3.1-7-7-7c-3.8,0-7,3.1-7,7c0,3.8,3.1,7,7,7
						C208.2,91,211.3,87.9,211.3,84.1z"/>
					<path class="st1" d="M204.4,77.1c3.8,0,7,3.1,7,7c0,3.8-3.1,7-7,7c-3.8,0-7-3.1-7-7C197.4,80.2,200.5,77.1,204.4,77.1z"/>
				</g>
				<g>
					<path class="st3" d="M211.3,84.1c0,3.8-3.1,7-7,7c-3.8,0-7-3.1-7-7c0-3.8,3.1-7,7-7C208.2,77.1,211.3,80.2,211.3,84.1z"/>
					<path class="st3" d="M204.4,105.9c0,0,13.7-12.5,13.7-21.8c0-7.6-6.1-13.7-13.7-13.7c-7.6,0-13.7,6.1-13.7,13.7
						C190.7,93.3,204.4,105.9,204.4,105.9z"/>
				</g>
			</g>
		</g>
		<ellipse class="st48" cx="69.7" cy="187.8" rx="5.1" ry="1.8"/>
		<g>
			<g id="XMLID_00000075847375227666618780000003393292614069079945_">
				<g>
					<path class="st6" d="M69.7,123c13.6,0,24.7,11.1,24.7,24.7c0,16.7-24.7,39.3-24.7,39.3S45,164.4,45,147.7
						C45,134.1,56.1,123,69.7,123z M82.2,147.7c0-6.9-5.6-12.5-12.5-12.5c-6.9,0-12.5,5.6-12.5,12.5c0,6.9,5.6,12.5,12.5,12.5
						C76.6,160.2,82.2,154.6,82.2,147.7z"/>
					<path class="st1" d="M69.7,135.2c6.9,0,12.5,5.6,12.5,12.5c0,6.9-5.6,12.5-12.5,12.5c-6.9,0-12.5-5.6-12.5-12.5
						C57.2,140.8,62.8,135.2,69.7,135.2z"/>
				</g>
				<g>
					<path class="st3" d="M82.2,147.7c0,6.9-5.6,12.5-12.5,12.5c-6.9,0-12.5-5.6-12.5-12.5c0-6.9,5.6-12.5,12.5-12.5
						C76.6,135.2,82.2,140.8,82.2,147.7z"/>
					<path class="st3" d="M69.7,187c0,0,24.7-22.6,24.7-39.3c0-13.6-11.1-24.7-24.7-24.7C56.1,123,45,134.1,45,147.7
						C45,164.4,69.7,187,69.7,187z"/>
				</g>
			</g>
		</g>
	</g>
</g>
</svg>
