<?xml version="1.0" encoding="utf-8"?>
<!-- Generator: Adobe Illustrator 27.0.0, SVG Export Plug-In . SVG Version: 6.00 Build 0)  -->
<svg version="1.1" xmlns="http://www.w3.org/2000/svg" xmlns:xlink="http://www.w3.org/1999/xlink" x="0px" y="0px"
	 viewBox="0 0 330.4 271.1" style="enable-background:new 0 0 330.4 271.1;" xml:space="preserve">
<style type="text/css">
	.st0{opacity:0.89;fill:#FAEFEF;}
	.st1{fill:#FFFFFF;}
	.st2{opacity:0.38;fill:#C8C9CB;}
	.st3{fill:none;stroke:#601113;stroke-width:2;stroke-miterlimit:10;}
	.st4{fill:#E6A6A8;}
	.st5{fill:#C8C9CB;}
	.st6{fill:#C02126;}
	.st7{opacity:0.78;}
	.st8{fill:#B58D90;}
	.st9{fill:#CCBABD;}
	.st10{fill:#601113;}
	.st11{fill:#D97A7D;}
	.st12{fill:#F2D3D4;}
	.st13{fill:#F7E5E5;}
	.st14{opacity:0.42;}
	.st15{opacity:0.29;}
	.st16{fill:none;stroke:#601113;stroke-width:2;stroke-linecap:round;stroke-linejoin:round;stroke-miterlimit:10;}
	.st17{fill:none;stroke:#601113;stroke-width:1.5;stroke-linecap:round;stroke-linejoin:round;stroke-miterlimit:10;}
	.st18{fill:#D9E1E2;}
	.st19{opacity:0.79;fill:#D9E1E2;}
	.st20{opacity:0.56;fill:#D9E1E2;}
	.st21{fill:none;stroke:#601113;stroke-width:2;stroke-linecap:round;stroke-miterlimit:10;}
	.st22{opacity:0.15;fill:#601113;}
	.st23{opacity:0.36;}
	.st24{opacity:0.49;}
	.st25{opacity:0.48;}
	.st26{opacity:0.36;fill:none;stroke:#B58D90;stroke-width:2;stroke-linecap:round;stroke-linejoin:round;stroke-miterlimit:10;}
	.st27{opacity:0.42;fill:none;stroke:#C02126;stroke-width:2;stroke-linecap:round;stroke-linejoin:round;stroke-miterlimit:10;}
	.st28{opacity:0.34;fill:none;stroke:#D97A7D;stroke-width:2;stroke-linecap:round;stroke-linejoin:round;stroke-miterlimit:10;}
	.st29{fill:#E3E5E7;}
	.st30{opacity:0.29;fill:#601113;}
	.st31{opacity:0.74;}
	.st32{opacity:0.44;fill:#C8C9CB;}
	.st33{fill:#FAEFEF;}
	.st34{opacity:0.2;fill:#601113;}
	.st35{opacity:0.25;fill:#FFFFFF;}
	.st36{opacity:0.34;fill:none;stroke:#601113;stroke-width:2;stroke-miterlimit:10;}
	.st37{opacity:0.34;}
	.st38{opacity:0.15;}
	.st39{opacity:0.23;fill:#253746;}
	.st40{fill:#253746;}
	.st41{opacity:0.3;fill:#C8C9CB;}
	.st42{fill:none;stroke:#23185D;stroke-width:1.5;stroke-linecap:round;stroke-linejoin:round;stroke-miterlimit:10;}
	.st43{opacity:0.54;}
	.st44{fill:none;stroke:#601113;stroke-width:0.25;stroke-miterlimit:10;}
	.st45{fill:#D1D1D1;}
	.st46{fill:none;stroke:#C02126;stroke-width:2;stroke-miterlimit:10;}
	.st47{fill:none;stroke:#C02126;stroke-width:2;stroke-miterlimit:10;stroke-dasharray:1.9895,1.9895;}
	.st48{opacity:0.25;fill:#601113;}
	.st49{opacity:0.26;fill:#FFFFFF;}
	.st50{fill:none;stroke:#FFFFFF;stroke-miterlimit:10;}
	.st51{fill:none;stroke:#FFFFFF;stroke-width:2;stroke-miterlimit:10;}
	.st52{opacity:0.15;fill:#253746;}
	.st53{opacity:0.43;}
	.st54{opacity:0.52;fill:none;stroke:#FFFFFF;stroke-width:2;stroke-linecap:round;stroke-linejoin:round;stroke-miterlimit:10;}
	.st55{fill:#401010;}
	.st56{opacity:0.15;fill:#3D0016;}
	.st57{fill:#717171;}
	.st58{opacity:0.42;fill:#FFFFFF;}
	.st59{opacity:0.33;fill:#601113;}
	.st60{fill:#ECEAEC;}
	.st61{opacity:0.17;fill:#601113;}
	.st62{opacity:0.58;fill:#FFFFFF;}
	.st63{opacity:0.12;fill:#601113;}
	.st64{opacity:0.35;}
	
		.st65{fill:none;stroke:#601113;stroke-width:2;stroke-linejoin:round;stroke-dasharray:2.0929,2.0929,2.0929,2.0929,2.0929,2.0929;}
	.st66{opacity:0.41;}
	.st67{opacity:0.33;}
	.st68{fill:none;stroke:#601113;stroke-width:2;stroke-linejoin:round;stroke-miterlimit:10;stroke-dasharray:2,2,2,2,2,2;}
	.st69{opacity:0.57;fill:#FFFFFF;}
	.st70{opacity:0.37;fill:none;stroke:#FFFFFF;stroke-linecap:round;stroke-linejoin:round;stroke-miterlimit:10;}
	.st71{opacity:0.48;fill:#FFFFFF;}
	.st72{fill:none;stroke:#601113;stroke-linecap:round;stroke-linejoin:round;stroke-miterlimit:10;}
	.st73{fill:none;stroke:#C02126;stroke-width:2;stroke-miterlimit:10;stroke-dasharray:2.0141,2.0141;}
</style>
<g id="Layer_2">
</g>
<g id="Layer_1">
	<g>
		<path class="st0" d="M32.3,139.4c-0.7-31,16.9-52.9,37.9-56.2s42.5-0.8,57.4-12.8s35.6-41.7,59.1-42.2
			c57.7-1.2,110.2,85.6,111.4,137.2s-34.5,67.3-56.3,67.7c-21.8,0.5-46.4-27.5-73.6-26.9s-35.7,14.4-67.2,15.1
			S33.3,183.1,32.3,139.4z"/>
		<g class="st25">
			<path class="st1" d="M127.3,89.1v70.4c0,2.1-1.7,3.8-3.8,3.8H78c-2.1,0-3.8-1.7-3.8-3.8V89.6c0-1.9-0.8-3.6-2-4.8
				c-1-1-2.2-1.6-3.6-1.9h52.4C124.5,82.9,127.3,85.7,127.3,89.1z"/>
			<path class="st6" d="M68.7,82.9c1.4,0.3,2.6,0.9,3.6,1.9c1.2,1.2,2,2.9,2,4.8V97H60.6v-7.5c0-3.8,3-6.8,6.8-6.8
				C67.8,82.8,68.3,82.8,68.7,82.9z"/>
			<path class="st3" d="M127.3,141.1v9v9.3c0,2.1-1.7,3.8-3.8,3.8H78c-2.1,0-3.8-1.7-3.8-3.8v-31.9v-9.6"/>
			<line class="st3" x1="74.2" y1="121.5" x2="74.2" y2="97"/>
			<path class="st3" d="M68.7,82.9c1.4,0.3,2.6,0.9,3.6,1.9c1.2,1.2,2,2.9,2,4.8V97H60.6v-7.5c0-3.8,3-6.8,6.8-6.8
				C67.8,82.8,68.3,82.8,68.7,82.9"/>
			<path class="st3" d="M127.3,143.2V89.1c0-3.4-2.8-6.2-6.2-6.2H68.7h-1.6"/>
			<line class="st26" x1="83.8" y1="97.2" x2="97.2" y2="97.2"/>
			<line class="st26" x1="83.8" y1="103.9" x2="118.4" y2="103.9"/>
			<line class="st26" x1="85" y1="110.5" x2="109" y2="110.5"/>
			<line class="st27" x1="82.8" y1="123.7" x2="110" y2="123.7"/>
			<line class="st27" x1="81.9" y1="130.6" x2="104.1" y2="130.6"/>
			<line class="st28" x1="81.9" y1="137.5" x2="83.8" y2="137.5"/>
			<line class="st28" x1="81.9" y1="143.2" x2="106" y2="143.2"/>
			<line class="st28" x1="81.9" y1="150.2" x2="89.6" y2="150.2"/>
			<line class="st28" x1="95" y1="150.2" x2="111.7" y2="150.2"/>
			<line class="st27" x1="88.5" y1="137.5" x2="101.4" y2="137.5"/>
			<line class="st27" x1="82.8" y1="117.1" x2="119.2" y2="117.1"/>
			<line class="st26" x1="104.1" y1="97.2" x2="117.5" y2="97.2"/>
		</g>
		<line class="st3" x1="290.5" y1="213.4" x2="295.5" y2="213.4"/>
		<polyline class="st3" points="57.8,213.4 73.8,213.4 137.7,213.4 207,213.4 216.6,213.4 260.3,213.4 272.7,213.4 284,213.4 		"/>
		<path class="st4" d="M205.5,63.3c0,3.1,0,5.3,0,5.3h-72v-6.4c0-2.4,1.9-4.3,4.3-4.3h63.4c2.4,0,4.3,1.9,4.3,4.3V63.3z"/>
		<rect x="126" y="73.1" class="st1" width="87.1" height="53.3"/>
		<path class="st6" d="M219.1,58c0,17.3,0,48.8,0,66.3c0,3.5-2.9,6.4-6.4,6.4c-27.5,0-70.1,0-86.1,0c-3.5,0-6.4-2.9-6.4-6.4V52.1
			v-1.4c0-3.5,2.9-6.4,6.4-6.4h35.6c1.1,0,2.1,0.5,2.6,1.5l2.1,3.4c0.9,1.5,2.6,2.4,4.4,2.4h41.3C216.2,51.6,219.1,54.4,219.1,58z
			 M213.1,126.5V73.1H126v53.3H213.1z M205.5,68.6c0,0,0-2.2,0-5.3v-1.1c0-2.4-1.9-4.3-4.3-4.3h-63.4c-2.4,0-4.3,1.9-4.3,4.3v6.4
			H205.5z"/>
		<path class="st49" d="M219.1,56.9v4.2c0-3.3-2.9-5.9-6.4-5.9h-41.3c-1.8,0-3.4-0.8-4.4-2.2l-2.1-3.1c-0.6-0.8-1.6-1.4-2.7-1.4
			h-35.6c-3.5,0-6.4,2.6-6.4,5.9v-4.2c0-3.3,2.9-5.9,6.4-5.9h35.6c1.1,0,2.1,0.5,2.7,1.4l2.1,3.1c1,1.4,2.6,2.2,4.4,2.2h41.3
			C216.2,51,219.1,53.7,219.1,56.9z"/>
		<g>
			<path class="st3" d="M120.2,52.1v-1.4c0-3.5,2.9-6.4,6.4-6.4h35.6c1.1,0,2.1,0.5,2.6,1.5l2.1,3.4c0.9,1.5,2.6,2.4,4.4,2.4h41.3
				c3.5,0,6.4,2.9,6.4,6.4c0,17.3,0,48.8,0,66.3c0,3.5-2.9,6.4-6.4,6.4c-27.5,0-70.1,0-86.1,0c-3.5,0-6.4-2.9-6.4-6.4V52.1z"/>
			<path class="st3" d="M205.5,63.3c0,3.1,0,5.3,0,5.3h-72v-6.4c0-2.4,1.9-4.3,4.3-4.3h63.4c2.4,0,4.3,1.9,4.3,4.3V63.3z"/>
		</g>
		<line class="st3" x1="171.6" y1="130.6" x2="171.6" y2="153.7"/>
		<path class="st3" d="M110.9,155.8v-8.1c0-3,2.5-5.5,5.5-5.5h55.2"/>
		<path class="st3" d="M232.3,155.8v-8.1c0-3-2.5-5.5-5.5-5.5h-55.2"/>
		<path class="st1" d="M127.8,213.4H91.5c-1.7,0-3-1.4-3-3v-47.8c0-1.7,1.4-3,3-3h36.2c1.7,0,3,1.4,3,3v47.8
			C130.8,212,129.5,213.4,127.8,213.4z"/>
		<path class="st3" d="M127.8,213.4H91.5c-1.7,0-3-1.4-3-3v-47.8c0-1.7,1.4-3,3-3h36.2c1.7,0,3,1.4,3,3v47.8
			C130.8,212,129.5,213.4,127.8,213.4z"/>
		<line class="st3" x1="96.7" y1="167.7" x2="123.6" y2="167.7"/>
		<line class="st3" x1="96.7" y1="173.4" x2="123.6" y2="173.4"/>
		<line class="st3" x1="96.7" y1="179" x2="123.6" y2="179"/>
		<line class="st3" x1="96.7" y1="184.7" x2="123.6" y2="184.7"/>
		<line class="st3" x1="96.7" y1="190.4" x2="123.6" y2="190.4"/>
		<line class="st3" x1="96.7" y1="196.1" x2="123.6" y2="196.1"/>
		<line class="st3" x1="96.7" y1="201.8" x2="123.6" y2="201.8"/>
		<line class="st3" x1="96.7" y1="207.4" x2="123.6" y2="207.4"/>
		<path class="st1" d="M189.7,213.4h-36.2c-1.7,0-3-1.4-3-3v-47.8c0-1.7,1.4-3,3-3h36.2c1.7,0,3,1.4,3,3v47.8
			C192.8,212,191.4,213.4,189.7,213.4z"/>
		<path class="st3" d="M189.7,213.4h-36.2c-1.7,0-3-1.4-3-3v-47.8c0-1.7,1.4-3,3-3h36.2c1.7,0,3,1.4,3,3v47.8
			C192.8,212,191.4,213.4,189.7,213.4z"/>
		<line class="st3" x1="158.7" y1="167.7" x2="185.5" y2="167.7"/>
		<line class="st3" x1="158.7" y1="173.4" x2="185.5" y2="173.4"/>
		<line class="st3" x1="158.7" y1="179" x2="185.5" y2="179"/>
		<line class="st3" x1="158.7" y1="184.7" x2="185.5" y2="184.7"/>
		<line class="st3" x1="158.7" y1="190.4" x2="185.5" y2="190.4"/>
		<line class="st3" x1="158.7" y1="196.1" x2="185.5" y2="196.1"/>
		<line class="st3" x1="158.7" y1="201.8" x2="185.5" y2="201.8"/>
		<line class="st3" x1="158.7" y1="207.4" x2="185.5" y2="207.4"/>
		<path class="st1" d="M250.4,213.4h-36.2c-1.7,0-3-1.4-3-3v-47.8c0-1.7,1.4-3,3-3h36.2c1.7,0,3,1.4,3,3v47.8
			C253.4,212,252.1,213.4,250.4,213.4z"/>
		<path class="st3" d="M250.4,213.4h-36.2c-1.7,0-3-1.4-3-3v-47.8c0-1.7,1.4-3,3-3h36.2c1.7,0,3,1.4,3,3v47.8
			C253.4,212,252.1,213.4,250.4,213.4z"/>
		<line class="st3" x1="219.3" y1="167.7" x2="246.2" y2="167.7"/>
		<line class="st3" x1="219.3" y1="173.4" x2="246.2" y2="173.4"/>
		<line class="st3" x1="219.3" y1="179" x2="246.2" y2="179"/>
		<line class="st3" x1="219.3" y1="184.7" x2="246.2" y2="184.7"/>
		<line class="st3" x1="219.3" y1="190.4" x2="246.2" y2="190.4"/>
		<line class="st3" x1="219.3" y1="196.1" x2="246.2" y2="196.1"/>
		<line class="st3" x1="219.3" y1="201.8" x2="246.2" y2="201.8"/>
		<line class="st3" x1="219.3" y1="207.4" x2="246.2" y2="207.4"/>
		<line class="st50" x1="177.8" y1="85.8" x2="191.8" y2="85.8"/>
		<line class="st50" x1="177.8" y1="88.9" x2="199.3" y2="88.9"/>
		<line class="st50" x1="177.8" y1="91.9" x2="190.7" y2="91.9"/>
		<g>
			<path class="st6" d="M180.2,137.4h-18c-3.2,0-5.7-2.6-5.7-5.7v-18c0-3.2,2.6-5.7,5.7-5.7h18c3.2,0,5.7,2.6,5.7,5.7v18
				C185.9,134.9,183.4,137.4,180.2,137.4z"/>
			<path class="st3" d="M180.2,137.4h-18c-3.2,0-5.7-2.6-5.7-5.7v-18c0-3.2,2.6-5.7,5.7-5.7h18c3.2,0,5.7,2.6,5.7,5.7v18
				C185.9,134.9,183.4,137.4,180.2,137.4z"/>
			<path id="XMLID_00000036964442738992964420000018293752023626191292_" class="st1" d="M179.7,128.6l-1.3-1.3
				c0.5-0.8,0.9-1.7,1.1-2.7l1.9,0c0.7,0,1.2-0.5,1.2-1.2l0-1.4c0-0.7-0.5-1.2-1.2-1.2l-1.9,0c-0.2-0.9-0.6-1.8-1.1-2.7l1.3-1.3
				c0.5-0.5,0.5-1.2,0-1.7l-1-1c-0.5-0.5-1.2-0.5-1.7,0l-1.3,1.3c-0.8-0.5-1.7-0.9-2.6-1.1l0-1.9c0-0.7-0.5-1.2-1.2-1.2l-1.4,0
				c-0.7,0-1.2,0.5-1.2,1.2l0,1.9c-0.9,0.2-1.8,0.6-2.7,1.1l-1.3-1.3c-0.5-0.5-1.2-0.5-1.7,0l-1,1c-0.5,0.5-0.5,1.2,0,1.7l1.3,1.3
				c-0.5,0.8-0.9,1.7-1.1,2.7l-1.9,0c-0.7,0-1.2,0.5-1.2,1.2l0,1.4c0,0.7,0.5,1.2,1.2,1.2l1.9,0c0.2,0.9,0.6,1.8,1.1,2.7l-1.3,1.3
				c-0.5,0.5-0.5,1.2,0,1.7l1,1c0.5,0.5,1.2,0.5,1.7,0l1.3-1.3c0.8,0.5,1.7,0.9,2.7,1.1l0,1.9c0,0.7,0.5,1.2,1.2,1.2l1.4,0
				c0.7,0,1.2-0.5,1.2-1.2l0-1.9c0.9-0.2,1.8-0.6,2.7-1.1l1.3,1.3c0.5,0.5,1.2,0.5,1.7,0l1-1C180.2,129.8,180.2,129.1,179.7,128.6z
				 M168.5,125.4c-1.5-1.5-1.5-3.9,0-5.4c1.5-1.5,3.9-1.5,5.4,0c1.5,1.5,1.5,3.9,0,5.4C172.4,126.9,170,126.9,168.5,125.4z"/>
		</g>
		<path class="st4" d="M202.8,98.9h-67c-2.1,0-3.8-1.7-3.8-3.8V82.6c0-2.1,1.7-3.8,3.8-3.8h67c2.1,0,3.8,1.7,3.8,3.8v12.5
			C206.6,97.2,204.9,98.9,202.8,98.9z"/>
		<line class="st51" x1="144.7" y1="83.2" x2="190.7" y2="83.2"/>
		<line class="st51" x1="155.2" y1="88.1" x2="180.2" y2="88.1"/>
		<line class="st51" x1="158.8" y1="93.4" x2="176.6" y2="93.4"/>
	</g>
</g>
</svg>
