<?xml version="1.0" encoding="utf-8"?>
<!-- Generator: Adobe Illustrator 27.0.0, SVG Export Plug-In . SVG Version: 6.00 Build 0)  -->
<svg version="1.1" xmlns="http://www.w3.org/2000/svg" xmlns:xlink="http://www.w3.org/1999/xlink" x="0px" y="0px"
	 viewBox="0 0 330.4 271.1" style="enable-background:new 0 0 330.4 271.1;" xml:space="preserve">
<style type="text/css">
	.st0{opacity:0.89;fill:#FAEFEF;}
	.st1{fill:#FFFFFF;}
	.st2{opacity:0.38;fill:#C8C9CB;}
	.st3{fill:none;stroke:#601113;stroke-width:2;stroke-miterlimit:10;}
	.st4{fill:#E6A6A8;}
	.st5{fill:#C8C9CB;}
	.st6{fill:#C02126;}
	.st7{opacity:0.78;}
	.st8{fill:#B58D90;}
	.st9{fill:#CCBABD;}
	.st10{fill:#601113;}
	.st11{fill:#D97A7D;}
	.st12{fill:#F2D3D4;}
	.st13{fill:#F7E5E5;}
	.st14{opacity:0.42;}
	.st15{opacity:0.29;}
	.st16{fill:none;stroke:#601113;stroke-width:2;stroke-linecap:round;stroke-linejoin:round;stroke-miterlimit:10;}
	.st17{fill:none;stroke:#601113;stroke-width:1.5;stroke-linecap:round;stroke-linejoin:round;stroke-miterlimit:10;}
	.st18{fill:#D9E1E2;}
	.st19{opacity:0.79;fill:#D9E1E2;}
	.st20{opacity:0.56;fill:#D9E1E2;}
	.st21{fill:none;stroke:#601113;stroke-width:2;stroke-linecap:round;stroke-miterlimit:10;}
	.st22{opacity:0.15;fill:#601113;}
	.st23{opacity:0.36;}
	.st24{opacity:0.49;}
	.st25{opacity:0.48;}
	.st26{opacity:0.36;fill:none;stroke:#B58D90;stroke-width:2;stroke-linecap:round;stroke-linejoin:round;stroke-miterlimit:10;}
	.st27{opacity:0.42;fill:none;stroke:#C02126;stroke-width:2;stroke-linecap:round;stroke-linejoin:round;stroke-miterlimit:10;}
	.st28{opacity:0.34;fill:none;stroke:#D97A7D;stroke-width:2;stroke-linecap:round;stroke-linejoin:round;stroke-miterlimit:10;}
	.st29{fill:#E3E5E7;}
	.st30{opacity:0.29;fill:#601113;}
	.st31{opacity:0.74;}
	.st32{opacity:0.44;fill:#C8C9CB;}
	.st33{fill:#FAEFEF;}
	.st34{opacity:0.2;fill:#601113;}
	.st35{opacity:0.25;fill:#FFFFFF;}
	.st36{opacity:0.34;fill:none;stroke:#601113;stroke-width:2;stroke-miterlimit:10;}
	.st37{opacity:0.34;}
	.st38{opacity:0.15;}
	.st39{opacity:0.23;fill:#253746;}
	.st40{fill:#253746;}
	.st41{opacity:0.3;fill:#C8C9CB;}
	.st42{fill:none;stroke:#23185D;stroke-width:1.5;stroke-linecap:round;stroke-linejoin:round;stroke-miterlimit:10;}
	.st43{opacity:0.54;}
	.st44{fill:none;stroke:#601113;stroke-width:0.25;stroke-miterlimit:10;}
	.st45{fill:#D1D1D1;}
	.st46{fill:none;stroke:#C02126;stroke-width:2;stroke-miterlimit:10;}
	.st47{fill:none;stroke:#C02126;stroke-width:2;stroke-miterlimit:10;stroke-dasharray:1.9895,1.9895;}
	.st48{opacity:0.25;fill:#601113;}
	.st49{opacity:0.26;fill:#FFFFFF;}
	.st50{fill:none;stroke:#FFFFFF;stroke-miterlimit:10;}
	.st51{fill:none;stroke:#FFFFFF;stroke-width:2;stroke-miterlimit:10;}
	.st52{opacity:0.15;fill:#253746;}
	.st53{opacity:0.43;}
	.st54{opacity:0.52;fill:none;stroke:#FFFFFF;stroke-width:2;stroke-linecap:round;stroke-linejoin:round;stroke-miterlimit:10;}
	.st55{fill:#401010;}
	.st56{opacity:0.15;fill:#3D0016;}
	.st57{fill:#717171;}
	.st58{opacity:0.42;fill:#FFFFFF;}
	.st59{opacity:0.33;fill:#601113;}
	.st60{fill:#ECEAEC;}
	.st61{opacity:0.17;fill:#601113;}
	.st62{opacity:0.58;fill:#FFFFFF;}
	.st63{opacity:0.12;fill:#601113;}
	.st64{opacity:0.35;}
	
		.st65{fill:none;stroke:#601113;stroke-width:2;stroke-linejoin:round;stroke-dasharray:2.0929,2.0929,2.0929,2.0929,2.0929,2.0929;}
	.st66{opacity:0.41;}
	.st67{opacity:0.33;}
	.st68{fill:none;stroke:#601113;stroke-width:2;stroke-linejoin:round;stroke-miterlimit:10;stroke-dasharray:2,2,2,2,2,2;}
	.st69{opacity:0.57;fill:#FFFFFF;}
	.st70{opacity:0.37;fill:none;stroke:#FFFFFF;stroke-linecap:round;stroke-linejoin:round;stroke-miterlimit:10;}
	.st71{opacity:0.48;fill:#FFFFFF;}
	.st72{fill:none;stroke:#601113;stroke-linecap:round;stroke-linejoin:round;stroke-miterlimit:10;}
	.st73{fill:none;stroke:#C02126;stroke-width:2;stroke-miterlimit:10;stroke-dasharray:2.0141,2.0141;}
</style>
<g id="Layer_2">
</g>
<g id="Layer_1">
	<g>
		<path class="st0" d="M42.4,139.4c-0.7-31,16.9-52.9,37.9-56.2s42.5-0.8,57.4-12.8c14.9-12,35.6-41.7,59.1-42.2
			c57.7-1.2,110.2,85.6,111.4,137.2s-34.5,67.3-56.3,67.7c-21.8,0.5-46.4-27.5-73.6-26.9s-35.7,14.4-67.2,15.1
			S43.3,183.1,42.4,139.4z"/>
		<g>
			<path class="st1" d="M217.4,213.1h-16.1c-2.1,0-3.7-1.7-3.7-3.7v-89.3c0-2.1,1.7-3.7,3.7-3.7h16.1c2.1,0,3.7,1.7,3.7,3.7v89.3
				C221.1,211.4,219.4,213.1,217.4,213.1z"/>
			<path class="st2" d="M201.3,116.3c-2.1,0-3.7,1.7-3.7,3.7v89.3c0,2.1,1.7,3.7,3.7,3.7h8.3v-96.7H201.3z"/>
			<path class="st1" d="M217.4,116.3h-7.8v96.7h7.8c2.1,0,3.7-1.7,3.7-3.7v-89.3C221.1,118,219.4,116.3,217.4,116.3z"/>
			<path class="st3" d="M217.4,213.1h-16.1c-2.1,0-3.7-1.7-3.7-3.7v-89.3c0-2.1,1.7-3.7,3.7-3.7h16.1c2.1,0,3.7,1.7,3.7,3.7v89.3
				C221.1,211.4,219.4,213.1,217.4,213.1z"/>
			<rect x="201.2" y="121.9" class="st4" width="16.2" height="36.1"/>
			<rect x="201.2" y="160" class="st5" width="16.2" height="4"/>
			<rect x="201.2" y="165.8" class="st5" width="16.2" height="4"/>
			<rect x="201.2" y="171.7" class="st5" width="16.2" height="4"/>
			<circle class="st6" cx="209.3" cy="200.8" r="5.7"/>
		</g>
		<g>
			<path class="st1" d="M241,213.1h-16.1c-2.1,0-3.7-1.7-3.7-3.7v-89.3c0-2.1,1.7-3.7,3.7-3.7H241c2.1,0,3.7,1.7,3.7,3.7v89.3
				C244.7,211.4,243,213.1,241,213.1z"/>
			<path class="st2" d="M224.8,116.3c-2.1,0-3.7,1.7-3.7,3.7v89.3c0,2.1,1.7,3.7,3.7,3.7h8.3v-96.7H224.8z"/>
			<path class="st1" d="M241,116.3h-7.8v96.7h7.8c2.1,0,3.7-1.7,3.7-3.7v-89.3C244.7,118,243,116.3,241,116.3z"/>
			<path class="st3" d="M241,213.1h-16.1c-2.1,0-3.7-1.7-3.7-3.7v-89.3c0-2.1,1.7-3.7,3.7-3.7H241c2.1,0,3.7,1.7,3.7,3.7v89.3
				C244.7,211.4,243,213.1,241,213.1z"/>
			<rect x="224.8" y="121.9" class="st4" width="16.2" height="36.1"/>
			<rect x="224.8" y="160" class="st5" width="16.2" height="4"/>
			<rect x="224.8" y="165.8" class="st5" width="16.2" height="4"/>
			<rect x="224.8" y="171.7" class="st5" width="16.2" height="4"/>
			<circle class="st6" cx="232.9" cy="200.8" r="5.7"/>
		</g>
		<g>
			<path class="st1" d="M282.7,210.5l-15.8,3.2c-2,0.4-4-0.9-4.4-2.9l-17.6-87.5c-0.4-2,0.9-4,2.9-4.4l15.8-3.2c2-0.4,4,0.9,4.4,2.9
				l17.6,87.5C286,208.1,284.7,210.1,282.7,210.5z"/>
			<path class="st2" d="M247.8,118.9c-2,0.4-3.3,2.4-2.9,4.4l17.6,87.5c0.4,2,2.4,3.3,4.4,2.9l8.2-1.6L256,117.2L247.8,118.9z"/>
			<path class="st1" d="M263.6,115.7l-7.7,1.5l19.1,94.8l7.7-1.5c2-0.4,3.3-2.4,2.9-4.4L268,118.6
				C267.6,116.6,265.6,115.3,263.6,115.7z"/>
			<path class="st3" d="M282.7,210.5l-15.8,3.2c-2,0.4-4-0.9-4.4-2.9l-17.6-87.5c-0.4-2,0.9-4,2.9-4.4l15.8-3.2c2-0.4,4,0.9,4.4,2.9
				l17.6,87.5C286,208.1,284.7,210.1,282.7,210.5z"/>
			
				<rect x="252.3" y="122.4" transform="matrix(0.9804 -0.1972 0.1972 0.9804 -22.5837 54.0981)" class="st4" width="16.2" height="36.1"/>
			
				<rect x="256.6" y="160" transform="matrix(0.9804 -0.1972 0.1972 0.9804 -26.7435 55.3744)" class="st5" width="16.2" height="4"/>
			
				<rect x="257.8" y="165.8" transform="matrix(0.9804 -0.1972 0.1972 0.9804 -27.8564 55.7159)" class="st5" width="16.2" height="4"/>
			
				<rect x="259" y="171.5" transform="matrix(0.9804 -0.1972 0.1972 0.9804 -28.9694 56.0574)" class="st5" width="16.2" height="4"/>
			<circle class="st6" cx="272.4" cy="200.1" r="5.7"/>
		</g>
		<line class="st3" x1="300.8" y1="213.4" x2="305.9" y2="213.4"/>
		<polyline class="st3" points="67.9,213.4 83.9,213.4 147.7,213.4 217.1,213.4 226.7,213.4 270.4,213.4 282.7,213.4 294,213.4 		
			"/>
		<g>
			<path class="st1" d="M153.1,128.1v-18.7v-0.3l-15.2-14.7h-11.9V75h58.1v15.2h14.9v13.2v24.7C187.4,128.1,169.9,128.1,153.1,128.1
				z"/>
			<rect x="139.5" y="101.9" class="st32" width="16.1" height="13.8"/>
			<path class="st1" d="M153.1,109.4v18.7c-5.8,0-11.6,0-17,0c-9.7,0-18.4,0-24.3,0c-10.9,0-21.8,0-32.1,0v-13.3V94.4h46.5h11.9v15
				H153.1z"/>
			<rect x="90" y="119.4" class="st33" width="16.1" height="13.8"/>
			<polygon class="st4" points="199.1,90.2 199.1,90.3 184.2,90.3 184.2,75 			"/>
			<polygon class="st5" points="153.1,109.1 153.1,109.4 137.9,109.4 137.9,94.4 			"/>
			<path class="st4" d="M205.3,107.1v21c-1.8,0-3.9,0-6.2,0v-24.7h2.5C203.7,103.4,205.3,105.1,205.3,107.1z"/>
			<path class="st4" d="M79.6,114.8v13.3c-2.1,0-4.2,0-6.2,0l0.9-10.1c0.2-1.8,1.7-3.2,3.5-3.2H79.6z"/>
			<path class="st6" d="M205.6,128.1c3.8,0,6.8,3.3,6.4,7.2c-2.1,18.3-5.9,51.1-8.3,71.5c-0.4,3.6-3.5,6.3-7.1,6.3h-63.2h-10h-41
				c-3.6,0-6.7-2.7-7.1-6.3c-2.4-20.4-6.2-53.2-8.3-71.5c-0.4-3.8,2.5-7.2,6.4-7.2c2.1,0,4.1,0,6.2,0c10.4,0,21.2,0,32.1,0
				c6,0,14.6,0,24.3,0c5.4,0,11.2,0,17,0c16.8,0,34.3,0,46,0c2.3,0,4.4,0,6.2,0C205.4,128.1,205.5,128.1,205.6,128.1z"/>
			<path class="st34" d="M211.9,135.2c-2.1,18.3-5.9,51.1-8.3,71.5c-0.4,3.6-3.5,6.3-7.1,6.3H82.4c-3.6,0-6.7-2.7-7.1-6.3
				c-2.4-20.4-6.2-53.2-8.3-71.5c-0.1-0.9,0-1.7,0.2-2.5c2.1,18.5,5.8,49.9,8.1,69.7c0.4,3.6,3.5,6.3,7.1,6.3h114.1
				c3.6,0,6.7-2.7,7.1-6.3c2.3-19.8,5.9-51.2,8.1-69.7C212,133.5,212,134.4,211.9,135.2z"/>
			<path class="st35" d="M211.9,135.2c-0.1,0.8-0.2,1.5-0.3,2.4c-0.8-2.6-3.2-4.4-6.1-4.4H73.4c-2.9,0-5.3,1.9-6.1,4.4
				c-0.1-0.8-0.2-1.6-0.3-2.4c-0.4-3.8,2.5-7.2,6.4-7.2h132.2C209.4,128.1,212.4,131.4,211.9,135.2z"/>
			<g>
				<path class="st3" d="M123.4,213.1h-41c-3.6,0-6.7-2.7-7.1-6.3c-2.4-20.4-6.2-53.2-8.3-71.5c-0.4-3.8,2.5-7.2,6.4-7.2
					c2.1,0,4.1,0,6.2,0c10.4,0,21.2,0,32.1,0"/>
				<path class="st3" d="M123.4,213.1h10h63.2c3.6,0,6.7-2.7,7.1-6.3c2.4-20.4,6.2-53.2,8.3-71.5c0.4-3.8-2.5-7.2-6.4-7.2
					c-0.1,0-0.2,0-0.3,0c-1.8,0-3.9,0-6.2,0c-11.7,0-29.2,0-46,0c-5.8,0-11.6,0-17,0c-9.7,0-18.4,0-24.3,0"/>
				<path class="st3" d="M79.6,128.1v-13.3V97c0-1.4,1.2-2.6,2.6-2.6h43.9h11.9l15.2,14.7v0.3v18.7"/>
				<path class="st3" d="M126.1,94.4V77.6c0-1.4,1.2-2.6,2.6-2.6h55.5l14.9,15.2v0.1v13.2v24.7"/>
				<path class="st3" d="M79.6,114.8h-1.9c-1.8,0-3.3,1.4-3.5,3.2l-0.9,10.1"/>
				<path class="st3" d="M199.1,103.4h2.5c2,0,3.7,1.6,3.7,3.7v21"/>
				<path class="st3" d="M137.9,94.4v12.7c0,1.3,1,2.3,2.3,2.3h12.8"/>
				<path class="st3" d="M184.2,75v12.9c0,1.3,1,2.3,2.3,2.3h12.6"/>
				<line class="st36" x1="158.4" y1="103.4" x2="188.2" y2="103.4"/>
				<line class="st3" x1="158.4" y1="109.4" x2="188.2" y2="109.4"/>
				<line class="st36" x1="158.4" y1="115.8" x2="188.2" y2="115.8"/>
				<line class="st3" x1="155.6" y1="121.9" x2="188.2" y2="121.9"/>
				<line class="st36" x1="111.7" y1="121.9" x2="144.4" y2="121.9"/>
			</g>
		</g>
		<g>
			<circle class="st4" cx="199.1" cy="89" r="23.6"/>
			<circle class="st3" cx="199.1" cy="89" r="23.6"/>
			<g>
				<path class="st1" d="M207.5,84.4h-2.6V80c0-3-2.4-5.4-5.4-5.4c-3,0-5.4,2.4-5.4,5.4v3.9h-2.6V80c0-4.4,3.6-8,8-8s8,3.6,8,8V84.4
					z"/>
			</g>
			<path class="st1" d="M199.2,104.6c6,0,10.9-4.8,10.9-10.8v-6c0-1.2-1-2.2-2.3-2.2h-8.7c0,0-8.7,0-8.7,0c-1.3,0-2.3,1-2.3,2.2v6
				C188.3,99.8,193.2,104.6,199.2,104.6"/>
			<path class="st6" d="M201.5,92.3c0,1-0.6,1.8-1.4,2.2v2.1c0,0.6-0.5,1.1-1.1,1.1c-0.6,0-1.1-0.5-1.1-1.1v-2.1
				c-0.8-0.4-1.4-1.2-1.4-2.2c0-1.3,1.1-2.4,2.4-2.4C200.4,89.9,201.5,91,201.5,92.3z"/>
		</g>
		<g class="st37">
			<circle class="st4" cx="245.9" cy="100.3" r="13.1"/>
			<circle class="st3" cx="245.9" cy="100.3" r="13.1"/>
			<g>
				<path class="st1" d="M250.6,97.8h-1.5v-2.5c0-1.7-1.4-3-3-3s-3,1.4-3,3v2.2h-1.5v-2.2c0-2.5,2-4.5,4.5-4.5c2.5,0,4.5,2,4.5,4.5
					V97.8z"/>
			</g>
			<path class="st1" d="M246,109c3.4,0,6.1-2.7,6.1-6v-3.3c0-0.7-0.6-1.2-1.3-1.2H246c0,0-4.8,0-4.8,0c-0.7,0-1.3,0.6-1.3,1.2v3.3
				C239.9,106.4,242.6,109,246,109"/>
			<path class="st6" d="M247.3,102.2c0,0.5-0.3,1-0.8,1.2v1.2c0,0.3-0.3,0.6-0.6,0.6c-0.3,0-0.6-0.3-0.6-0.6v-1.2
				c-0.4-0.2-0.8-0.7-0.8-1.2c0-0.7,0.6-1.3,1.3-1.3C246.7,100.8,247.3,101.4,247.3,102.2z"/>
		</g>
		<g>
			<g class="st38">
				<g id="XMLID_00000022535390922477595870000017012933704460563644_">
					<g>
						<circle class="st39" cx="83" cy="110.6" r="22.7"/>
						<path class="st40" d="M81.8,139.3c-15.8-0.7-28.1-14-27.4-29.8s14-28.1,29.8-27.4s28.1,14,27.4,29.8S97.6,139.9,81.8,139.3z
							 M82,133.4c12.5,0.5,23.1-9.2,23.7-21.8c0.5-12.5-9.2-23.1-21.8-23.7c-12.5-0.5-23.1,9.2-23.7,21.8
							C59.7,122.2,69.5,132.8,82,133.4z"/>
						<path class="st40" d="M35.5,161.3l-3.7,3.4c-3.4-1.8-5.8-4.5-7.3-8l3.7-3.4L35.5,161.3z"/>
						<polygon class="st40" points="51.7,129.3 53.8,131.6 59.3,137.5 61.4,139.8 57.1,143.7 47.5,133.3 						"/>
						<polygon class="st40" points="36.7,162.5 35.5,161.3 28.2,153.3 27,152 47.5,133.3 57.1,143.7 						"/>
					</g>
					<g>
						<circle class="st40" cx="83" cy="110.6" r="28.6"/>
						<polyline class="st40" points="53.8,131.6 58.9,126.9 64.7,132.3 59.3,137.5 						"/>
						<path class="st40" d="M57.1,143.7l3.3-3.1c0.5-0.5,0.5-1.2,0.1-1.7l-1.3-1.4l-5.4-5.9l-1.2-1.4c-0.5-0.5-1.2-0.5-1.7-0.1
							l-3.3,3.1"/>
						<path class="st40" d="M35.8,161.6l-8-8.7c-0.5-0.5-0.4-1.3,0.1-1.7l19.5-18l9.6,10.5l-19.5,18
							C37.1,162.1,36.3,162.1,35.8,161.6l-0.3-0.3"/>
						<path class="st40" d="M28.2,153.3l-3.7,3.4c1.5,3.5,3.9,6.2,7.3,8l3.7-3.4L28.2,153.3z"/>
					</g>
				</g>
			</g>
			<g>
				<g id="XMLID_00000043443462938243874750000004009244097423726992_">
					<g>
						<polygon class="st1" points="62.2,129 57,133.7 51.6,127.8 56.7,123.1 						"/>
						<path class="st1" d="M109.4,108c0.7-15.8-11.6-29.2-27.4-29.8c-15.8-0.7-29.2,11.6-29.8,27.4c-0.7,15.8,11.6,29.2,27.4,29.8
							C95.4,136.1,108.7,123.8,109.4,108z M79.8,129.5C67.3,129,57.5,118.4,58,105.9c0.5-12.5,11.1-22.3,23.7-21.8
							c12.5,0.5,22.3,11.1,21.8,23.7C103,120.3,92.3,130.1,79.8,129.5z"/>
						<path class="st41" d="M79.8,129.5C67.3,129,57.5,118.4,58,105.9c0.5-12.5,11.1-22.3,23.7-21.8c12.5,0.5,22.3,11.1,21.8,23.7
							C103,120.3,92.3,130.1,79.8,129.5z"/>
						<path class="st1" d="M33.3,157.4l-3.7,3.4c-3.4-1.8-5.8-4.5-7.3-8l3.7-3.4L33.3,157.4z"/>
						<polygon class="st1" points="49.5,125.5 51.6,127.8 57,133.7 59.1,136 54.9,139.9 45.2,129.4 						"/>
						<polygon class="st4" points="34.4,158.7 33.3,157.4 26,149.5 24.8,148.2 45.2,129.4 54.9,139.9 						"/>
					</g>
					<g>
						<circle class="st3" cx="80.8" cy="106.8" r="28.6"/>
						<polyline class="st3" points="51.6,127.8 56.7,123.1 62.2,129 57,133.7 						"/>
						<path class="st3" d="M54.9,139.9l3.3-3.1c0.5-0.5,0.5-1.2,0.1-1.7l-1.3-1.4l-5.4-5.9l-1.2-1.4c-0.5-0.5-1.2-0.5-1.7-0.1
							l-3.3,3.1"/>
						<path class="st3" d="M33.6,157.8l-8-8.7c-0.5-0.5-0.4-1.3,0.1-1.7l19.5-18l9.6,10.5l-19.5,18
							C34.8,158.3,34.1,158.3,33.6,157.8l-0.3-0.3"/>
						<path class="st42" d="M26,149.5l-3.7,3.4c1.5,3.5,3.9,6.2,7.3,8l3.7-3.4L26,149.5z"/>
					</g>
				</g>
			</g>
		</g>
	</g>
</g>
</svg>
