<?xml version="1.0" encoding="utf-8"?>
<!-- Generator: Adobe Illustrator 27.0.0, SVG Export Plug-In . SVG Version: 6.00 Build 0)  -->
<svg version="1.1" xmlns="http://www.w3.org/2000/svg" xmlns:xlink="http://www.w3.org/1999/xlink" x="0px" y="0px"
	 viewBox="0 0 330.4 271.1" style="enable-background:new 0 0 330.4 271.1;" xml:space="preserve">
<style type="text/css">
	.st0{opacity:0.89;fill:#FAEFEF;}
	.st1{fill:#FFFFFF;}
	.st2{opacity:0.38;fill:#C8C9CB;}
	.st3{fill:none;stroke:#601113;stroke-width:2;stroke-miterlimit:10;}
	.st4{fill:#E6A6A8;}
	.st5{fill:#C8C9CB;}
	.st6{fill:#C02126;}
	.st7{opacity:0.78;}
	.st8{fill:#B58D90;}
	.st9{fill:#CCBABD;}
	.st10{fill:#601113;}
	.st11{fill:#D97A7D;}
	.st12{fill:#F2D3D4;}
	.st13{fill:#F7E5E5;}
	.st14{opacity:0.42;}
	.st15{opacity:0.29;}
	.st16{fill:none;stroke:#601113;stroke-width:2;stroke-linecap:round;stroke-linejoin:round;stroke-miterlimit:10;}
	.st17{fill:none;stroke:#601113;stroke-width:1.5;stroke-linecap:round;stroke-linejoin:round;stroke-miterlimit:10;}
	.st18{fill:#D9E1E2;}
	.st19{opacity:0.79;fill:#D9E1E2;}
	.st20{opacity:0.56;fill:#D9E1E2;}
	.st21{fill:none;stroke:#601113;stroke-width:2;stroke-linecap:round;stroke-miterlimit:10;}
	.st22{opacity:0.15;fill:#601113;}
	.st23{opacity:0.36;}
	.st24{opacity:0.49;}
	.st25{opacity:0.48;}
	.st26{opacity:0.36;fill:none;stroke:#B58D90;stroke-width:2;stroke-linecap:round;stroke-linejoin:round;stroke-miterlimit:10;}
	.st27{opacity:0.42;fill:none;stroke:#C02126;stroke-width:2;stroke-linecap:round;stroke-linejoin:round;stroke-miterlimit:10;}
	.st28{opacity:0.34;fill:none;stroke:#D97A7D;stroke-width:2;stroke-linecap:round;stroke-linejoin:round;stroke-miterlimit:10;}
	.st29{fill:#E3E5E7;}
	.st30{opacity:0.29;fill:#601113;}
	.st31{opacity:0.74;}
	.st32{opacity:0.44;fill:#C8C9CB;}
	.st33{fill:#FAEFEF;}
	.st34{opacity:0.2;fill:#601113;}
	.st35{opacity:0.25;fill:#FFFFFF;}
	.st36{opacity:0.34;fill:none;stroke:#601113;stroke-width:2;stroke-miterlimit:10;}
	.st37{opacity:0.34;}
	.st38{opacity:0.15;}
	.st39{opacity:0.23;fill:#253746;}
	.st40{fill:#253746;}
	.st41{opacity:0.3;fill:#C8C9CB;}
	.st42{fill:none;stroke:#23185D;stroke-width:1.5;stroke-linecap:round;stroke-linejoin:round;stroke-miterlimit:10;}
	.st43{opacity:0.54;}
	.st44{fill:none;stroke:#601113;stroke-width:0.25;stroke-miterlimit:10;}
	.st45{fill:#D1D1D1;}
	.st46{fill:none;stroke:#C02126;stroke-width:2;stroke-miterlimit:10;}
	.st47{fill:none;stroke:#C02126;stroke-width:2;stroke-miterlimit:10;stroke-dasharray:1.9895,1.9895;}
	.st48{opacity:0.25;fill:#601113;}
	.st49{opacity:0.26;fill:#FFFFFF;}
	.st50{fill:none;stroke:#FFFFFF;stroke-miterlimit:10;}
	.st51{fill:none;stroke:#FFFFFF;stroke-width:2;stroke-miterlimit:10;}
	.st52{opacity:0.15;fill:#253746;}
	.st53{opacity:0.43;}
	.st54{opacity:0.52;fill:none;stroke:#FFFFFF;stroke-width:2;stroke-linecap:round;stroke-linejoin:round;stroke-miterlimit:10;}
	.st55{fill:#401010;}
	.st56{opacity:0.15;fill:#3D0016;}
	.st57{fill:#717171;}
	.st58{opacity:0.42;fill:#FFFFFF;}
	.st59{opacity:0.33;fill:#601113;}
	.st60{fill:#ECEAEC;}
	.st61{opacity:0.17;fill:#601113;}
	.st62{opacity:0.58;fill:#FFFFFF;}
	.st63{opacity:0.12;fill:#601113;}
	.st64{opacity:0.35;}
	
		.st65{fill:none;stroke:#601113;stroke-width:2;stroke-linejoin:round;stroke-dasharray:2.0929,2.0929,2.0929,2.0929,2.0929,2.0929;}
	.st66{opacity:0.41;}
	.st67{opacity:0.33;}
	.st68{fill:none;stroke:#601113;stroke-width:2;stroke-linejoin:round;stroke-miterlimit:10;stroke-dasharray:2,2,2,2,2,2;}
	.st69{opacity:0.57;fill:#FFFFFF;}
	.st70{opacity:0.37;fill:none;stroke:#FFFFFF;stroke-linecap:round;stroke-linejoin:round;stroke-miterlimit:10;}
	.st71{opacity:0.48;fill:#FFFFFF;}
	.st72{fill:none;stroke:#601113;stroke-linecap:round;stroke-linejoin:round;stroke-miterlimit:10;}
	.st73{fill:none;stroke:#C02126;stroke-width:2;stroke-miterlimit:10;stroke-dasharray:2.0141,2.0141;}
</style>
<g id="Layer_2">
</g>
<g id="Layer_1">
	<g>
		<path class="st0" d="M32.3,139.1c-0.7-30.9,16.9-52.7,37.9-56c20.9-3.3,42.5-0.8,57.4-12.8s35.6-41.6,59.1-42.1
			C244.4,26.9,296.9,113.6,298,165s-34.5,67.1-56.3,67.5c-21.8,0.5-46.4-27.4-73.6-26.8c-27.2,0.6-35.7,14.3-67.2,15
			S33.3,182.6,32.3,139.1z"/>
		<g class="st25">
			<path class="st1" d="M130.1,126.8v70.4c0,2.1-1.7,3.8-3.8,3.8H80.9c-2.1,0-3.8-1.7-3.8-3.8v-69.9c0-1.9-0.8-3.6-2-4.8
				c-1-1-2.2-1.6-3.6-1.9h52.4C127.4,120.6,130.1,123.4,130.1,126.8z"/>
			<path class="st6" d="M71.5,120.6c1.4,0.3,2.6,0.9,3.6,1.9c1.2,1.2,2,2.9,2,4.8v7.5H63.5v-7.5c0-3.8,3-6.8,6.8-6.8
				C70.7,120.5,71.1,120.5,71.5,120.6z"/>
			<path class="st3" d="M130.1,178.9v9v9.3c0,2.1-1.7,3.8-3.8,3.8H80.9c-2.1,0-3.8-1.7-3.8-3.8v-31.9v-9.6"/>
			<line class="st3" x1="77.1" y1="159.2" x2="77.1" y2="134.8"/>
			<path class="st3" d="M71.5,120.6c1.4,0.3,2.6,0.9,3.6,1.9c1.2,1.2,2,2.9,2,4.8v7.5H63.5v-7.5c0-3.8,3-6.8,6.8-6.8
				C70.7,120.5,71.1,120.5,71.5,120.6"/>
			<path class="st3" d="M130.1,180.9v-54.1c0-3.4-2.8-6.2-6.2-6.2H71.5h-1.6"/>
			<line class="st26" x1="86.7" y1="134.9" x2="100" y2="134.9"/>
			<line class="st26" x1="86.7" y1="141.6" x2="121.3" y2="141.6"/>
			<line class="st26" x1="87.9" y1="148.2" x2="111.8" y2="148.2"/>
			<line class="st27" x1="85.7" y1="161.4" x2="112.8" y2="161.4"/>
			<line class="st27" x1="84.7" y1="168.3" x2="107" y2="168.3"/>
			<line class="st28" x1="84.7" y1="175.2" x2="86.7" y2="175.2"/>
			<line class="st28" x1="84.7" y1="180.9" x2="108.9" y2="180.9"/>
			<line class="st28" x1="84.7" y1="187.9" x2="92.5" y2="187.9"/>
			<line class="st28" x1="97.8" y1="187.9" x2="114.5" y2="187.9"/>
			<line class="st27" x1="91.4" y1="175.2" x2="104.2" y2="175.2"/>
			<line class="st27" x1="85.7" y1="154.8" x2="122" y2="154.8"/>
			<line class="st26" x1="107" y1="134.9" x2="120.3" y2="134.9"/>
		</g>
		<path class="st57" d="M210.7,203.2v5.7h-34h-33.9v-5.7c0-2.6,2.1-4.7,4.7-4.7h29.3h29.3C208.6,198.5,210.7,200.6,210.7,203.2z"/>
		<path class="st58" d="M210.7,203.2v2.8c0-2.6-2.1-4.7-4.7-4.7h-58.6c-2.6,0-4.7,2.1-4.7,4.7v-2.8c0-2.6,2.1-4.7,4.7-4.7h58.6
			C208.6,198.5,210.7,200.6,210.7,203.2z"/>
		<path class="st6" d="M250,92.3v23.3c0,2.3-1.9,4.2-4.2,4.2h-1.2h-15.3h-10.7H135h-10.7h-15.3h-1.3c-2.3,0-4.2-1.9-4.2-4.2V92.3
			c0-2.3,1.9-4.2,4.2-4.2h0.4h47.4v18.2c0,2.1,1.7,3.9,3.9,3.9h34.8c2.1,0,3.9-1.7,3.9-3.9V88.1h0.9h45.6h1.3
			C248.1,88.1,250,90,250,92.3z M240.8,109.2v-1.4c0-0.9-0.8-1.7-1.7-1.7h-4.9c-0.9,0-1.7,0.8-1.7,1.7v1.4c0,0.9,0.8,1.7,1.7,1.7
			h4.9C240,110.9,240.8,110.1,240.8,109.2z M240.8,100.1v-1.4c0-0.9-0.8-1.7-1.7-1.7h-4.9c-0.9,0-1.7,0.8-1.7,1.7v1.4
			c0,0.9,0.8,1.7,1.7,1.7h4.9C240,101.8,240.8,101,240.8,100.1z M226.9,109.2v-1.4c0-0.9-0.8-1.7-1.7-1.7h-4.9
			c-0.9,0-1.7,0.8-1.7,1.7v1.4c0,0.9,0.8,1.7,1.7,1.7h4.9C226.1,110.9,226.9,110.1,226.9,109.2z M226.9,100.1v-1.4
			c0-0.9-0.8-1.7-1.7-1.7h-4.9c-0.9,0-1.7,0.8-1.7,1.7v1.4c0,0.9,0.8,1.7,1.7,1.7h4.9C226.1,101.8,226.9,101,226.9,100.1z
			 M213,109.2v-1.4c0-0.9-0.8-1.7-1.7-1.7h-4.9c-0.9,0-1.7,0.8-1.7,1.7v1.4c0,0.9,0.8,1.7,1.7,1.7h4.9
			C212.3,110.9,213,110.1,213,109.2z M213,100.1v-1.4c0-0.9-0.8-1.7-1.7-1.7h-4.9c-0.9,0-1.7,0.8-1.7,1.7v1.4c0,0.9,0.8,1.7,1.7,1.7
			h4.9C212.3,101.8,213,101,213,100.1z M149,109.2v-1.4c0-0.9-0.8-1.7-1.7-1.7h-4.9c-0.9,0-1.7,0.8-1.7,1.7v1.4
			c0,0.9,0.8,1.7,1.7,1.7h4.9C148.3,110.9,149,110.1,149,109.2z M149,100.1v-1.4c0-0.9-0.8-1.7-1.7-1.7h-4.9c-0.9,0-1.7,0.8-1.7,1.7
			v1.4c0,0.9,0.8,1.7,1.7,1.7h4.9C148.3,101.8,149,101,149,100.1z"/>
		<path class="st59" d="M250,112.3v3.3c0,2.3-1.9,4.2-4.2,4.2H107.6c-2.3,0-4.2-1.9-4.2-4.2v-3.3c0,2.3,1.9,4.2,4.2,4.2h138.1
			C248.1,116.5,250,114.6,250,112.3z"/>
		<path class="st60" d="M244.6,188.3v16.9c0,2-1.6,3.7-3.6,3.7h-2h-9.6h-18.6v-5.7c0-2.6-2.1-4.7-4.7-4.7h-29.3h-29.3
			c-2.6,0-4.7,2.1-4.7,4.7v5.7h-18.7h-9.6h-2c-2,0-3.7-1.6-3.7-3.7v-16.9H244.6z"/>
		<path class="st61" d="M244.6,201.3v3.9c0,2-1.6,3.7-3.7,3.7h-30.2v-3.9H241C243,204.9,244.6,203.3,244.6,201.3z"/>
		<path class="st61" d="M142.9,204.9v3.9h-30.3c-2,0-3.7-1.6-3.7-3.7v-3.9c0,2,1.6,3.7,3.7,3.7H142.9z"/>
		<polygon class="st60" points="244.6,146.2 244.6,188.3 108.9,188.3 108.9,146.2 124.3,146.2 135,146.2 218.6,146.2 229.3,146.2 		
			"/>
		<rect x="229.3" y="119.9" class="st11" width="15.3" height="26.3"/>
		<path class="st11" d="M244.5,78.5v9.6h-45.6H198v-1.9c0-2.1-1.7-3.9-3.9-3.9h-17.5v-0.7v-6.2h0.1h20.7h43.9
			C243.1,75.4,244.5,76.8,244.5,78.5z"/>
		<path class="st62" d="M244.5,78.5v2.9c0-1.7-1.4-3.1-3.1-3.1h-64.7v-2.9h64.7C243.1,75.4,244.5,76.8,244.5,78.5z"/>
		<path class="st10" d="M240.8,107.8v1.4c0,0.9-0.8,1.7-1.7,1.7h-4.9c-0.9,0-1.7-0.8-1.7-1.7v-1.4c0-0.9,0.8-1.7,1.7-1.7h4.9
			C240,106.1,240.8,106.9,240.8,107.8z"/>
		<path class="st10" d="M240.8,98.7v1.4c0,0.9-0.8,1.7-1.7,1.7h-4.9c-0.9,0-1.7-0.8-1.7-1.7v-1.4c0-0.9,0.8-1.7,1.7-1.7h4.9
			C240,97,240.8,97.8,240.8,98.7z"/>
		<rect x="229.3" y="208.8" class="st10" width="9.6" height="3.9"/>
		<polygon class="st5" points="229.3,119.9 229.3,146.2 218.6,146.2 218.6,130.3 218.6,119.9 		"/>
		<path class="st10" d="M226.9,107.8v1.4c0,0.9-0.8,1.7-1.7,1.7h-4.9c-0.9,0-1.7-0.8-1.7-1.7v-1.4c0-0.9,0.8-1.7,1.7-1.7h4.9
			C226.1,106.1,226.9,106.9,226.9,107.8z"/>
		<path class="st10" d="M226.9,98.7v1.4c0,0.9-0.8,1.7-1.7,1.7h-4.9c-0.9,0-1.7-0.8-1.7-1.7v-1.4c0-0.9,0.8-1.7,1.7-1.7h4.9
			C226.1,97,226.9,97.8,226.9,98.7z"/>
		<path class="st4" d="M221.2,57.4v5.1c0,1.4-1.2,2.6-2.6,2.6h-18.3c-1.6,0-2.8,1.3-2.8,2.9v7.4h-20.7h-0.1V54.8h0.1h41.8
			C220,54.8,221.2,55.9,221.2,57.4z"/>
		<path class="st62" d="M221.2,57.4v3.4c0-1.4-1.2-2.5-2.6-2.5h-41.9v-3.5h41.9C220,54.8,221.2,55.9,221.2,57.4z"/>
		<polygon class="st11" points="182.3,130.3 194.8,130.3 207.2,130.3 218.6,130.3 218.6,146.2 135,146.2 135,130.3 145.1,130.3 
			157.5,130.3 169.9,130.3 		"/>
		<polygon class="st5" points="218.6,119.9 218.6,130.3 207.2,130.3 194.8,130.3 182.3,130.3 169.9,130.3 157.5,130.3 145.1,130.3 
			135,130.3 135,119.9 		"/>
		<path class="st10" d="M213,107.8v1.4c0,0.9-0.8,1.7-1.7,1.7h-4.9c-0.9,0-1.7-0.8-1.7-1.7v-1.4c0-0.9,0.8-1.7,1.7-1.7h4.9
			C212.3,106.1,213,106.9,213,107.8z"/>
		<path class="st10" d="M213,98.7v1.4c0,0.9-0.8,1.7-1.7,1.7h-4.9c-0.9,0-1.7-0.8-1.7-1.7v-1.4c0-0.9,0.8-1.7,1.7-1.7h4.9
			C212.3,97,213,97.8,213,98.7z"/>
		<path class="st1" d="M198,88.1v18.2c0,2.1-1.7,3.9-3.9,3.9h-34.8c-2.1,0-3.9-1.7-3.9-3.9V88.1v-1.9c0-2.1,1.7-3.9,3.9-3.9h17.3
			h17.5c2.1,0,3.9,1.7,3.9,3.9V88.1z"/>
		<path class="st60" d="M176.7,81.6v0.7h-17.3c-2.1,0-3.9,1.7-3.9,3.9v1.9h-47.4V56.2c0-3.8,3.1-6.9,6.9-6.9h59.2
			c1.3,0,2.4,1.1,2.4,2.4v3.1v20.6V81.6z"/>
		<path class="st1" d="M176.7,51.7v4.6c0-1.3-1.1-2.4-2.4-2.4H115c-3.8,0-6.9,3.1-6.9,6.9v-4.6c0-3.8,3.1-6.9,6.9-6.9h59.2
			C175.6,49.3,176.7,50.4,176.7,51.7z"/>
		<path class="st10" d="M149,107.8v1.4c0,0.9-0.8,1.7-1.7,1.7h-4.9c-0.9,0-1.7-0.8-1.7-1.7v-1.4c0-0.9,0.8-1.7,1.7-1.7h4.9
			C148.3,106.1,149,106.9,149,107.8z"/>
		<path class="st10" d="M149,98.7v1.4c0,0.9-0.8,1.7-1.7,1.7h-4.9c-0.9,0-1.7-0.8-1.7-1.7v-1.4c0-0.9,0.8-1.7,1.7-1.7h4.9
			C148.3,97,149,97.8,149,98.7z"/>
		<polygon class="st5" points="135,130.3 135,146.2 124.3,146.2 124.3,119.9 135,119.9 		"/>
		<rect x="108.9" y="119.9" class="st11" width="15.3" height="26.3"/>
		<rect x="114.6" y="208.8" class="st10" width="9.6" height="3.9"/>
		<rect x="108.9" y="120.4" class="st63" width="135.7" height="6.1"/>
		<g>
			<line class="st3" x1="289" y1="212.8" x2="294.1" y2="212.8"/>
			<polyline class="st3" points="57.8,212.8 73.8,212.8 114.6,212.8 137.7,212.8 207,212.8 216.6,212.8 229.3,212.8 260.3,212.8 
				272.7,212.8 284,212.8 			"/>
			<path class="st16" d="M176.7,81.6v-6.2V54.8v-3.1c0-1.3-1.1-2.4-2.4-2.4H115c-3.8,0-6.9,3.1-6.9,6.9v31.9"/>
			<path class="st16" d="M155.5,88.1h-47.4h-0.4c-2.3,0-4.2,1.9-4.2,4.2v23.3c0,2.3,1.9,4.2,4.2,4.2h1.3h15.3H135h83.6h10.7h15.3
				h1.2c2.3,0,4.2-1.9,4.2-4.2V92.3c0-2.3-1.9-4.2-4.2-4.2h-1.3h-45.6"/>
			<path class="st16" d="M198,88.1v18.2c0,2.1-1.7,3.9-3.9,3.9h-34.8c-2.1,0-3.9-1.7-3.9-3.9V88.1v-1.9c0-2.1,1.7-3.9,3.9-3.9h17.3
				h17.5c2.1,0,3.9,1.7,3.9,3.9V88.1z"/>
			<path class="st16" d="M176.8,75.4h20.7h43.9c1.7,0,3.1,1.4,3.1,3.1v9.6"/>
			<path class="st16" d="M176.8,54.8h41.8c1.4,0,2.6,1.2,2.6,2.6v5.1c0,1.4-1.2,2.6-2.6,2.6h-18.3c-1.6,0-2.8,1.3-2.8,2.9v7.4"/>
			<polyline class="st16" points="112.6,208.8 142.9,208.8 176.8,208.8 			"/>
			<path class="st16" d="M108.9,119.9v26.3v42.2v16.9c0,2,1.6,3.7,3.7,3.7h2"/>
			<polyline class="st16" points="238.9,208.8 210.7,208.8 176.8,208.8 			"/>
			<path class="st16" d="M244.6,119.9v26.3v42.2v16.9c0,2-1.6,3.7-3.6,3.7h-2"/>
			<polyline class="st16" points="108.9,146.2 124.3,146.2 135,146.2 218.6,146.2 229.3,146.2 244.6,146.2 			"/>
			<line class="st16" x1="124.3" y1="119.9" x2="124.3" y2="146.2"/>
			<polyline class="st16" points="135,119.9 135,130.3 135,146.2 			"/>
			<polyline class="st16" points="218.6,119.9 218.6,130.3 218.6,146.2 			"/>
			<line class="st16" x1="229.3" y1="119.9" x2="229.3" y2="146.2"/>
			<polyline class="st16" points="135,130.3 145.1,130.3 157.5,130.3 169.9,130.3 182.3,130.3 194.8,130.3 207.2,130.3 218.6,130.3 
							"/>
			<line class="st16" x1="145.1" y1="135" x2="145.1" y2="130.3"/>
			<line class="st16" x1="157.5" y1="135" x2="157.5" y2="130.3"/>
			<line class="st16" x1="169.9" y1="135" x2="169.9" y2="130.3"/>
			<line class="st16" x1="182.3" y1="135" x2="182.3" y2="130.3"/>
			<line class="st16" x1="194.8" y1="135" x2="194.8" y2="130.3"/>
			<line class="st16" x1="207.2" y1="135" x2="207.2" y2="130.3"/>
			<line class="st16" x1="108.9" y1="188.3" x2="244.6" y2="188.3"/>
			<path class="st16" d="M142.9,208.8v-5.7c0-2.6,2.1-4.7,4.7-4.7h29.3"/>
			<path class="st16" d="M210.7,208.8v-5.7c0-2.6-2.1-4.7-4.7-4.7h-29.3"/>
		</g>
	</g>
</g>
</svg>
