<?xml version="1.0" encoding="utf-8"?>
<!-- Generator: Adobe Illustrator 27.0.0, SVG Export Plug-In . SVG Version: 6.00 Build 0)  -->
<svg version="1.1" xmlns="http://www.w3.org/2000/svg" xmlns:xlink="http://www.w3.org/1999/xlink" x="0px" y="0px"
	 viewBox="0 0 330.4 271.1" style="enable-background:new 0 0 330.4 271.1;" xml:space="preserve">
<style type="text/css">
	.st0{opacity:0.89;fill:#FAEFEF;}
	.st1{fill:#FFFFFF;}
	.st2{opacity:0.38;fill:#C8C9CB;}
	.st3{fill:none;stroke:#601113;stroke-width:2;stroke-miterlimit:10;}
	.st4{fill:#E6A6A8;}
	.st5{fill:#C8C9CB;}
	.st6{fill:#C02126;}
	.st7{opacity:0.78;}
	.st8{fill:#B58D90;}
	.st9{fill:#CCBABD;}
	.st10{fill:#601113;}
	.st11{fill:#D97A7D;}
	.st12{fill:#F2D3D4;}
	.st13{fill:#F7E5E5;}
	.st14{opacity:0.42;}
	.st15{opacity:0.29;}
	.st16{fill:none;stroke:#601113;stroke-width:2;stroke-linecap:round;stroke-linejoin:round;stroke-miterlimit:10;}
	.st17{fill:none;stroke:#601113;stroke-width:1.5;stroke-linecap:round;stroke-linejoin:round;stroke-miterlimit:10;}
	.st18{fill:#D9E1E2;}
	.st19{opacity:0.79;fill:#D9E1E2;}
	.st20{opacity:0.56;fill:#D9E1E2;}
	.st21{fill:none;stroke:#601113;stroke-width:2;stroke-linecap:round;stroke-miterlimit:10;}
	.st22{opacity:0.15;fill:#601113;}
	.st23{opacity:0.36;}
	.st24{opacity:0.49;}
	.st25{opacity:0.48;}
	.st26{opacity:0.36;fill:none;stroke:#B58D90;stroke-width:2;stroke-linecap:round;stroke-linejoin:round;stroke-miterlimit:10;}
	.st27{opacity:0.42;fill:none;stroke:#C02126;stroke-width:2;stroke-linecap:round;stroke-linejoin:round;stroke-miterlimit:10;}
	.st28{opacity:0.34;fill:none;stroke:#D97A7D;stroke-width:2;stroke-linecap:round;stroke-linejoin:round;stroke-miterlimit:10;}
	.st29{fill:#E3E5E7;}
	.st30{opacity:0.29;fill:#601113;}
	.st31{opacity:0.74;}
	.st32{opacity:0.44;fill:#C8C9CB;}
	.st33{fill:#FAEFEF;}
	.st34{opacity:0.2;fill:#601113;}
	.st35{opacity:0.25;fill:#FFFFFF;}
	.st36{opacity:0.34;fill:none;stroke:#601113;stroke-width:2;stroke-miterlimit:10;}
	.st37{opacity:0.34;}
	.st38{opacity:0.15;}
	.st39{opacity:0.23;fill:#253746;}
	.st40{fill:#253746;}
	.st41{opacity:0.3;fill:#C8C9CB;}
	.st42{fill:none;stroke:#23185D;stroke-width:1.5;stroke-linecap:round;stroke-linejoin:round;stroke-miterlimit:10;}
	.st43{opacity:0.54;}
	.st44{fill:none;stroke:#601113;stroke-width:0.25;stroke-miterlimit:10;}
	.st45{fill:#D1D1D1;}
	.st46{fill:none;stroke:#C02126;stroke-width:2;stroke-miterlimit:10;}
	.st47{fill:none;stroke:#C02126;stroke-width:2;stroke-miterlimit:10;stroke-dasharray:1.9895,1.9895;}
	.st48{opacity:0.25;fill:#601113;}
	.st49{opacity:0.26;fill:#FFFFFF;}
	.st50{fill:none;stroke:#FFFFFF;stroke-miterlimit:10;}
	.st51{fill:none;stroke:#FFFFFF;stroke-width:2;stroke-miterlimit:10;}
	.st52{opacity:0.15;fill:#253746;}
	.st53{opacity:0.43;}
	.st54{opacity:0.52;fill:none;stroke:#FFFFFF;stroke-width:2;stroke-linecap:round;stroke-linejoin:round;stroke-miterlimit:10;}
	.st55{fill:#401010;}
	.st56{opacity:0.15;fill:#3D0016;}
	.st57{fill:#717171;}
	.st58{opacity:0.42;fill:#FFFFFF;}
	.st59{opacity:0.33;fill:#601113;}
	.st60{fill:#ECEAEC;}
	.st61{opacity:0.17;fill:#601113;}
	.st62{opacity:0.58;fill:#FFFFFF;}
	.st63{opacity:0.12;fill:#601113;}
	.st64{opacity:0.35;}
	
		.st65{fill:none;stroke:#601113;stroke-width:2;stroke-linejoin:round;stroke-dasharray:2.0929,2.0929,2.0929,2.0929,2.0929,2.0929;}
	.st66{opacity:0.41;}
	.st67{opacity:0.33;}
	.st68{fill:none;stroke:#601113;stroke-width:2;stroke-linejoin:round;stroke-miterlimit:10;stroke-dasharray:2,2,2,2,2,2;}
	.st69{opacity:0.57;fill:#FFFFFF;}
	.st70{opacity:0.37;fill:none;stroke:#FFFFFF;stroke-linecap:round;stroke-linejoin:round;stroke-miterlimit:10;}
	.st71{opacity:0.48;fill:#FFFFFF;}
	.st72{fill:none;stroke:#601113;stroke-linecap:round;stroke-linejoin:round;stroke-miterlimit:10;}
	.st73{fill:none;stroke:#C02126;stroke-width:2;stroke-miterlimit:10;stroke-dasharray:2.0141,2.0141;}
</style>
<g id="Layer_2">
</g>
<g id="Layer_1">
	<g>
		<path class="st0" d="M32.3,139.4c-0.7-31,16.9-52.9,37.9-56.2s42.5-0.8,57.4-12.8s35.6-41.7,59.1-42.2
			c57.7-1.2,110.2,85.6,111.4,137.2s-34.5,67.3-56.3,67.7c-21.8,0.5-46.4-27.5-73.6-26.9s-35.7,14.4-67.2,15.1
			S33.3,183.1,32.3,139.4z"/>
		<g class="st25">
			<path class="st1" d="M112.8,116.7V187c0,2.1-1.7,3.8-3.8,3.8H63.6c-2.1,0-3.8-1.7-3.8-3.8v-69.9c0-1.9-0.8-3.6-2-4.8
				c-1-1-2.2-1.6-3.6-1.9h52.4C110,110.5,112.8,113.2,112.8,116.7z"/>
			<path class="st6" d="M54.2,110.5c1.4,0.3,2.6,0.9,3.6,1.9c1.2,1.2,2,2.9,2,4.8v7.5H46.1v-7.5c0-3.8,3-6.8,6.8-6.8
				C53.4,110.4,53.8,110.4,54.2,110.5z"/>
			<path class="st3" d="M112.8,168.7v9v9.3c0,2.1-1.7,3.8-3.8,3.8H63.6c-2.1,0-3.8-1.7-3.8-3.8v-31.9v-9.6"/>
			<line class="st3" x1="59.8" y1="149.1" x2="59.8" y2="124.6"/>
			<path class="st3" d="M54.2,110.5c1.4,0.3,2.6,0.9,3.6,1.9c1.2,1.2,2,2.9,2,4.8v7.5H46.1v-7.5c0-3.8,3-6.8,6.8-6.8
				C53.4,110.4,53.8,110.4,54.2,110.5"/>
			<path class="st3" d="M112.8,170.8v-54.1c0-3.4-2.8-6.2-6.2-6.2H54.2h-1.6"/>
			<line class="st26" x1="69.3" y1="124.8" x2="82.7" y2="124.8"/>
			<line class="st26" x1="69.3" y1="131.5" x2="104" y2="131.5"/>
			<line class="st26" x1="70.5" y1="138.1" x2="94.5" y2="138.1"/>
			<line class="st27" x1="68.4" y1="151.3" x2="95.5" y2="151.3"/>
			<line class="st27" x1="67.4" y1="158.2" x2="89.6" y2="158.2"/>
			<line class="st28" x1="67.4" y1="165.1" x2="69.3" y2="165.1"/>
			<line class="st28" x1="67.4" y1="170.8" x2="91.5" y2="170.8"/>
			<line class="st28" x1="67.4" y1="177.7" x2="75.2" y2="177.7"/>
			<line class="st28" x1="80.5" y1="177.7" x2="97.2" y2="177.7"/>
			<line class="st27" x1="74.1" y1="165.1" x2="86.9" y2="165.1"/>
			<line class="st27" x1="68.4" y1="144.7" x2="104.7" y2="144.7"/>
			<line class="st26" x1="89.6" y1="124.8" x2="103" y2="124.8"/>
		</g>
		<g>
			<circle class="st4" cx="62.7" cy="152.3" r="20"/>
			<circle class="st3" cx="62.7" cy="152.3" r="20"/>
			<g>
				<path class="st1" d="M69.8,148.4h-2.2v-3.7c0-2.5-2.1-4.6-4.6-4.6c-2.5,0-4.6,2.1-4.6,4.6v3.3h-2.2v-3.3c0-3.8,3.1-6.8,6.8-6.8
					c3.8,0,6.8,3.1,6.8,6.8V148.4z"/>
			</g>
			<path class="st1" d="M62.8,165.5c5.1,0,9.3-4.1,9.3-9.2v-5.1c0-1-0.9-1.9-1.9-1.9h-7.4c0,0-7.4,0-7.4,0c-1.1,0-1.9,0.8-1.9,1.9
				v5.1C53.5,161.4,57.7,165.5,62.8,165.5"/>
			<path class="st6" d="M64.7,155.1c0,0.8-0.5,1.5-1.1,1.8v1.8c0,0.5-0.4,0.9-0.9,0.9c-0.5,0-0.9-0.4-0.9-0.9v-1.8
				c-0.7-0.3-1.1-1-1.1-1.8c0-1.1,0.9-2,2-2C63.8,153,64.7,153.9,64.7,155.1z"/>
		</g>
		<g>
			<g>
				<path class="st4" d="M139.3,212H77.8c-6.1,0-11.1-5-11.1-11.1h20.7h8.3H253h8.1h21c0,6.5-5.3,11.8-11.8,11.8c0,0-0.1,0-0.1,0
					L139.3,212z"/>
				<path class="st1" d="M184.4,206.8h-21c-4,0-7.2-1.9-7.2-5.9l0,0h35.5l0,0C191.6,204.9,188.4,206.8,184.4,206.8z"/>
				<rect x="96" y="96.8" class="st1" width="157.3" height="104.1"/>
				<path class="st5" d="M261.4,91.4v109.6h-8.1V96.8v-2.5c0-3.4-2.7-6.1-6.1-6.1c-25.3,0-111.8,0-145.1,0c-3.4,0-6.1,2.7-6.1,6.1
					v2.5v104.1h-8.3V91.4c0-6.6,5.3-11.9,11.9-11.9c36.9,0,100.1,0,149.8,0C256,79.4,261.4,84.8,261.4,91.4z"/>
				<path class="st6" d="M101.8,88.3c33.4,0,119.8,0,145.1,0c3.4,0,6.1,2.7,6.1,6.1v2.5H95.7v-2.5C95.7,91,98.5,88.3,101.8,88.3z"/>
				<path class="st3" d="M141.9,212h-2.5H77.8c-6.1,0-11.1-5-11.1-11.1h20.7h8.3H253h8.1h21c0,6.5-5.3,11.8-11.8,11.8
					c0,0-0.1,0-0.1,0L139.3,212"/>
				<path class="st3" d="M261.1,200.9V91.4c0-6.6-5.3-11.9-11.9-11.9c-49.7,0-112.9,0-149.8,0c-6.6,0-11.9,5.3-11.9,11.9v109.6"/>
			</g>
		</g>
		<g>
			<path class="st18" d="M241.7,131.4H109.4c-3.2,0-5.8-2.6-5.8-5.8v-14c0-3.2,2.6-5.8,5.8-5.8h132.3c3.2,0,5.8,2.6,5.8,5.8v14
				C247.5,128.8,244.9,131.4,241.7,131.4z"/>
			<path class="st18" d="M151.2,140.9h-46.6c-0.5,0-1-0.4-1-1v-0.8c0-0.5,0.4-1,1-1h46.6c0.5,0,1,0.4,1,1v0.8
				C152.2,140.5,151.8,140.9,151.2,140.9z"/>
			<path class="st18" d="M234.2,148H104.8c-0.7,0-1.2-0.5-1.2-1.2v-0.4c0-0.7,0.5-1.2,1.2-1.2h129.4c0.7,0,1.2,0.5,1.2,1.2v0.4
				C235.4,147.4,234.8,148,234.2,148z"/>
			<path class="st19" d="M241.8,163.5H106.8c-1.8,0-3.2-1.4-3.2-3.2v-4.8c0-1.8,1.4-3.2,3.2-3.2h134.9c1.8,0,3.2,1.4,3.2,3.2v4.8
				C244.9,162,243.5,163.5,241.8,163.5z"/>
			<path class="st20" d="M165.1,186.5h-20.7c-1,0-1.8-0.8-1.8-1.8v-15.2c0-1,0.8-1.8,1.8-1.8h20.7c1,0,1.8,0.8,1.8,1.8v15.2
				C166.9,185.7,166.1,186.5,165.1,186.5z"/>
			<path class="st20" d="M127,186.5h-20.7c-1,0-1.8-0.8-1.8-1.8v-15.2c0-1,0.8-1.8,1.8-1.8H127c1,0,1.8,0.8,1.8,1.8v15.2
				C128.8,185.7,128,186.5,127,186.5z"/>
			<path class="st20" d="M204.6,186.5h-20.7c-1,0-1.8-0.8-1.8-1.8v-15.2c0-1,0.8-1.8,1.8-1.8h20.7c1,0,1.8,0.8,1.8,1.8v15.2
				C206.4,185.7,205.6,186.5,204.6,186.5z"/>
			<path class="st20" d="M244.9,186.5h-20.7c-1,0-1.8-0.8-1.8-1.8v-15.2c0-1,0.8-1.8,1.8-1.8h20.7c1,0,1.8,0.8,1.8,1.8v15.2
				C246.7,185.7,245.9,186.5,244.9,186.5z"/>
		</g>
		<line class="st3" x1="289.5" y1="213.4" x2="294.5" y2="213.4"/>
		<polyline class="st3" points="57.8,213.4 73.8,213.4 137.7,213.4 207,213.4 216.6,213.4 260.3,213.4 272.7,213.4 284,213.4 		"/>
		<g>
			<path class="st52" d="M272,59.2h-147c-3.2,0-5.9,2.6-5.9,5.9V80v102.7c0,3.2,2.6,5.9,5.9,5.9h147c3.2,0,5.9-2.6,5.9-5.9V80V65.1
				C277.9,61.8,275.2,59.2,272,59.2z"/>
			<g>
				<path class="st6" d="M284,60.3v14.9H125.3V60.3c0-3.3,2.6-5.9,5.9-5.9h147C281.3,54.4,284,57,284,60.3z"/>
			</g>
			<circle class="st1" cx="244.9" cy="64.8" r="2.9"/>
			<circle class="st1" cx="255.9" cy="64.8" r="2.9"/>
			<circle class="st1" cx="267" cy="64.8" r="2.9"/>
			<path class="st1" d="M284,75.2v102.7c0,3.2-2.6,5.9-5.9,5.9h-147c-3.2,0-5.9-2.6-5.9-5.9V75.2H284z"/>
			<rect x="141.8" y="63.4" class="st1" width="84.8" height="4.3"/>
			<g>
				<path class="st3" d="M284,75.2v102.7c0,3.2-2.6,5.9-5.9,5.9h-147c-3.2,0-5.9-2.6-5.9-5.9V75.2V60.3c0-3.3,2.6-5.9,5.9-5.9h147
					c3.2,0,5.9,2.6,5.9,5.9V75.2z"/>
				<line class="st3" x1="125.3" y1="75.2" x2="284" y2="75.2"/>
			</g>
		</g>
		<g class="st53">
			<path class="st18" d="M262,112.9H147.7c-2.8,0-5-2.2-5-5V95.8c0-2.8,2.2-5,5-5H262c2.8,0,5,2.2,5,5v12.1
				C267,110.6,264.8,112.9,262,112.9z"/>
			<path class="st18" d="M183.8,121.1h-40.3c-0.5,0-0.8-0.4-0.8-0.8v-0.7c0-0.5,0.4-0.8,0.8-0.8h40.3c0.5,0,0.8,0.4,0.8,0.8v0.7
				C184.6,120.8,184.3,121.1,183.8,121.1z"/>
			<path class="st18" d="M255.5,127.2H143.7c-0.6,0-1-0.5-1-1v-0.3c0-0.6,0.5-1,1-1h111.8c0.6,0,1,0.5,1,1v0.3
				C256.5,126.8,256.1,127.2,255.5,127.2z"/>
			<path class="st19" d="M262,140.6H145.4c-1.5,0-2.7-1.2-2.7-2.7v-4.2c0-1.5,1.2-2.7,2.7-2.7H262c1.5,0,2.7,1.2,2.7,2.7v4.2
				C264.8,139.4,263.6,140.6,262,140.6z"/>
			<path class="st20" d="M195.8,160.5h-17.9c-0.9,0-1.6-0.7-1.6-1.6v-13.1c0-0.9,0.7-1.6,1.6-1.6h17.9c0.9,0,1.6,0.7,1.6,1.6V159
				C197.3,159.8,196.6,160.5,195.8,160.5z"/>
			<path class="st20" d="M162.8,160.5H145c-0.9,0-1.6-0.7-1.6-1.6v-13.1c0-0.9,0.7-1.6,1.6-1.6h17.9c0.9,0,1.6,0.7,1.6,1.6V159
				C164.4,159.8,163.7,160.5,162.8,160.5z"/>
			<path class="st20" d="M229.9,160.5H212c-0.9,0-1.6-0.7-1.6-1.6v-13.1c0-0.9,0.7-1.6,1.6-1.6h17.9c0.9,0,1.6,0.7,1.6,1.6V159
				C231.5,159.8,230.8,160.5,229.9,160.5z"/>
			<path class="st20" d="M264.8,160.5h-17.9c-0.9,0-1.6-0.7-1.6-1.6v-13.1c0-0.9,0.7-1.6,1.6-1.6h17.9c0.9,0,1.6,0.7,1.6,1.6V159
				C266.3,159.8,265.6,160.5,264.8,160.5z"/>
		</g>
		<g>
			<path class="st3" d="M204.8,89.8l-1.4,0c-16.1,0.3-29.2,12.9-30.1,29v0"/>
			<path class="st3" d="M204.8,89.8l1.3,0c15.2,0.3,27.6,12.9,28.4,29v0"/>
			<path class="st3" d="M233.8,149.2L233.8,149.2c-1.5,8.4-8.3,14.9-16.8,15.9l-3.7,0.4"/>
			<g id="XMLID_00000150075276604558368540000016963550064506876067_">
				<g>
					<path class="st4" d="M245.1,126.4v15.3c0,1.3-1,2.3-2.3,2.3h-3.3v-19.9h3.3C244.1,124.1,245.1,125.1,245.1,126.4z"/>
					<path class="st6" d="M239.5,144v1.9c0,1.8-1.5,3.3-3.3,3.3h-3.9c-1.8,0-3.3-1.5-3.3-3.3v-23.7c0-1.8,1.5-3.3,3.3-3.3h3.9
						c1.8,0,3.3,1.5,3.3,3.3v1.9V144z"/>
					<path class="st10" d="M213.3,164.2v2.8c0,1.2-1,2.3-2.3,2.3h-8.5c-1.2,0-2.3-1-2.3-2.3v-2.8c0-1.2,1-2.2,2.3-2.2h8.5
						C212.3,162,213.3,163,213.3,164.2z"/>
					<path class="st6" d="M178.3,122.2v23.7c0,1.8-1.5,3.3-3.3,3.3h-3.9c-1.8,0-3.3-1.5-3.3-3.3V144v-19.9v-1.9
						c0-1.8,1.5-3.3,3.3-3.3h3.9C176.8,118.9,178.3,120.4,178.3,122.2z"/>
					<path class="st4" d="M167.8,124.1V144h-3.3c-1.3,0-2.3-1-2.3-2.3v-15.3c0-1.3,1-2.3,2.3-2.3H167.8z"/>
				</g>
				<g>
					<path class="st3" d="M167.8,124.1v-1.9c0-1.8,1.5-3.3,3.3-3.3h3.9c1.8,0,3.3,1.5,3.3,3.3v23.7c0,1.8-1.5,3.3-3.3,3.3h-3.9
						c-1.8,0-3.3-1.5-3.3-3.3V144"/>
					<path class="st3" d="M167.8,144h-3.3c-1.3,0-2.3-1-2.3-2.3v-15.3c0-1.3,1-2.3,2.3-2.3h3.3V144z"/>
					<path class="st3" d="M239.5,144v1.9c0,1.8-1.5,3.3-3.3,3.3h-3.9c-1.8,0-3.3-1.5-3.3-3.3v-23.7c0-1.8,1.5-3.3,3.3-3.3h3.9
						c1.8,0,3.3,1.5,3.3,3.3v1.9"/>
					<path class="st3" d="M239.5,124.1h3.3c1.3,0,2.3,1,2.3,2.3v15.3c0,1.3-1,2.3-2.3,2.3h-3.3V124.1z"/>
					<path class="st3" d="M211,169.3h-8.5c-1.2,0-2.3-1-2.3-2.3v-2.8c0-1.2,1-2.2,2.3-2.2h8.5c1.2,0,2.3,1,2.3,2.2v2.8
						C213.3,168.3,212.3,169.3,211,169.3z"/>
				</g>
			</g>
			<path class="st4" d="M224.1,117.8v16.3c0,2.7-2.2,4.9-4.9,4.9h-0.2l-1.8,7.5l-6.2-7.5h-22.2c-2.7,0-4.9-2.2-4.9-4.9v-16.3
				c0-2.7,2.2-4.9,4.9-4.9h30.4C221.9,112.9,224.1,115.1,224.1,117.8z"/>
			<path class="st1" d="M195,128L195,128c-1.3,0-2.4-1.1-2.4-2.4v0c0-1.3,1.1-2.4,2.4-2.4h0c1.3,0,2.4,1.1,2.4,2.4v0
				C197.3,126.9,196.3,128,195,128z"/>
			<path class="st1" d="M204,128L204,128c-1.3,0-2.4-1.1-2.4-2.4v0c0-1.3,1.1-2.4,2.4-2.4l0,0c1.3,0,2.4,1.1,2.4,2.4v0
				C206.4,126.9,205.3,128,204,128z"/>
			<path class="st1" d="M213.1,128L213.1,128c-1.3,0-2.4-1.1-2.4-2.4v0c0-1.3,1.1-2.4,2.4-2.4h0c1.3,0,2.4,1.1,2.4,2.4v0
				C215.4,126.9,214.4,128,213.1,128z"/>
		</g>
	</g>
</g>
</svg>
