<?xml version="1.0" encoding="utf-8"?>
<!-- Generator: Adobe Illustrator 27.0.0, SVG Export Plug-In . SVG Version: 6.00 Build 0)  -->
<svg version="1.1" xmlns="http://www.w3.org/2000/svg" xmlns:xlink="http://www.w3.org/1999/xlink" x="0px" y="0px"
	 viewBox="0 0 330.4 271.1" style="enable-background:new 0 0 330.4 271.1;" xml:space="preserve">
<style type="text/css">
	.st0{opacity:0.89;fill:#FAEFEF;}
	.st1{fill:#FFFFFF;}
	.st2{opacity:0.38;fill:#C8C9CB;}
	.st3{fill:none;stroke:#601113;stroke-width:2;stroke-miterlimit:10;}
	.st4{fill:#E6A6A8;}
	.st5{fill:#C8C9CB;}
	.st6{fill:#C02126;}
	.st7{opacity:0.78;}
	.st8{fill:#B58D90;}
	.st9{fill:#CCBABD;}
	.st10{fill:#601113;}
	.st11{fill:#D97A7D;}
	.st12{fill:#F2D3D4;}
	.st13{fill:#F7E5E5;}
	.st14{opacity:0.42;}
	.st15{opacity:0.29;}
	.st16{fill:none;stroke:#601113;stroke-width:2;stroke-linecap:round;stroke-linejoin:round;stroke-miterlimit:10;}
	.st17{fill:none;stroke:#601113;stroke-width:1.5;stroke-linecap:round;stroke-linejoin:round;stroke-miterlimit:10;}
	.st18{fill:#D9E1E2;}
	.st19{opacity:0.79;fill:#D9E1E2;}
	.st20{opacity:0.56;fill:#D9E1E2;}
	.st21{fill:none;stroke:#601113;stroke-width:2;stroke-linecap:round;stroke-miterlimit:10;}
	.st22{opacity:0.15;fill:#601113;}
	.st23{opacity:0.36;}
	.st24{opacity:0.49;}
	.st25{opacity:0.48;}
	.st26{opacity:0.36;fill:none;stroke:#B58D90;stroke-width:2;stroke-linecap:round;stroke-linejoin:round;stroke-miterlimit:10;}
	.st27{opacity:0.42;fill:none;stroke:#C02126;stroke-width:2;stroke-linecap:round;stroke-linejoin:round;stroke-miterlimit:10;}
	.st28{opacity:0.34;fill:none;stroke:#D97A7D;stroke-width:2;stroke-linecap:round;stroke-linejoin:round;stroke-miterlimit:10;}
	.st29{fill:#E3E5E7;}
	.st30{opacity:0.29;fill:#601113;}
	.st31{opacity:0.74;}
	.st32{opacity:0.44;fill:#C8C9CB;}
	.st33{fill:#FAEFEF;}
	.st34{opacity:0.2;fill:#601113;}
	.st35{opacity:0.25;fill:#FFFFFF;}
	.st36{opacity:0.34;fill:none;stroke:#601113;stroke-width:2;stroke-miterlimit:10;}
	.st37{opacity:0.34;}
	.st38{opacity:0.15;}
	.st39{opacity:0.23;fill:#253746;}
	.st40{fill:#253746;}
	.st41{opacity:0.3;fill:#C8C9CB;}
	.st42{fill:none;stroke:#23185D;stroke-width:1.5;stroke-linecap:round;stroke-linejoin:round;stroke-miterlimit:10;}
	.st43{opacity:0.54;}
	.st44{fill:none;stroke:#601113;stroke-width:0.25;stroke-miterlimit:10;}
	.st45{fill:#D1D1D1;}
	.st46{fill:none;stroke:#C02126;stroke-width:2;stroke-miterlimit:10;}
	.st47{fill:none;stroke:#C02126;stroke-width:2;stroke-miterlimit:10;stroke-dasharray:1.9895,1.9895;}
	.st48{opacity:0.25;fill:#601113;}
	.st49{opacity:0.26;fill:#FFFFFF;}
	.st50{fill:none;stroke:#FFFFFF;stroke-miterlimit:10;}
	.st51{fill:none;stroke:#FFFFFF;stroke-width:2;stroke-miterlimit:10;}
	.st52{opacity:0.15;fill:#253746;}
	.st53{opacity:0.43;}
	.st54{opacity:0.52;fill:none;stroke:#FFFFFF;stroke-width:2;stroke-linecap:round;stroke-linejoin:round;stroke-miterlimit:10;}
	.st55{fill:#401010;}
	.st56{opacity:0.15;fill:#3D0016;}
	.st57{fill:#717171;}
	.st58{opacity:0.42;fill:#FFFFFF;}
	.st59{opacity:0.33;fill:#601113;}
	.st60{fill:#ECEAEC;}
	.st61{opacity:0.17;fill:#601113;}
	.st62{opacity:0.58;fill:#FFFFFF;}
	.st63{opacity:0.12;fill:#601113;}
	.st64{opacity:0.35;}
	
		.st65{fill:none;stroke:#601113;stroke-width:2;stroke-linejoin:round;stroke-dasharray:2.0929,2.0929,2.0929,2.0929,2.0929,2.0929;}
	.st66{opacity:0.41;}
	.st67{opacity:0.33;}
	.st68{fill:none;stroke:#601113;stroke-width:2;stroke-linejoin:round;stroke-miterlimit:10;stroke-dasharray:2,2,2,2,2,2;}
	.st69{opacity:0.57;fill:#FFFFFF;}
	.st70{opacity:0.37;fill:none;stroke:#FFFFFF;stroke-linecap:round;stroke-linejoin:round;stroke-miterlimit:10;}
	.st71{opacity:0.48;fill:#FFFFFF;}
	.st72{fill:none;stroke:#601113;stroke-linecap:round;stroke-linejoin:round;stroke-miterlimit:10;}
	.st73{fill:none;stroke:#C02126;stroke-width:2;stroke-miterlimit:10;stroke-dasharray:2.0141,2.0141;}
</style>
<g id="Layer_2">
</g>
<g id="Layer_1">
	<g>
		<path class="st0" d="M32.3,139.4c-0.7-31,16.9-52.9,37.9-56.2s42.5-0.8,57.4-12.8s35.6-41.7,59.1-42.2
			c57.7-1.2,110.2,85.6,111.4,137.2s-34.5,67.3-56.3,67.7c-21.8,0.5-46.4-27.5-73.6-26.9s-35.7,14.4-67.2,15.1
			S33.3,183.1,32.3,139.4z"/>
		<g class="st7">
			<path class="st5" d="M269.8,163.6h-28.5c-5,0-9.1-4.1-9.1-9.1V126c0-5,4.1-9.1,9.1-9.1h28.5c5,0,9.1,4.1,9.1,9.1v28.5
				C278.9,159.5,274.8,163.6,269.8,163.6z"/>
			<path class="st3" d="M269.8,163.6h-28.5c-5,0-9.1-4.1-9.1-9.1V126c0-5,4.1-9.1,9.1-9.1h28.5c5,0,9.1,4.1,9.1,9.1v28.5
				C278.9,159.5,274.8,163.6,269.8,163.6z"/>
			<path id="XMLID_00000042731602569165528100000009026725360747636920_" class="st1" d="M269,149.6l-2.1-2.1
				c0.8-1.3,1.4-2.8,1.8-4.2l2.9,0c1,0,1.9-0.8,1.9-1.9l0-2.2c0-1-0.8-1.9-1.9-1.9l-2.9,0c-0.3-1.5-0.9-2.9-1.7-4.2l2.1-2.1
				c0.7-0.7,0.7-1.9,0-2.7l-1.5-1.6c-0.7-0.7-1.9-0.8-2.7,0l-2.1,2.1c-1.3-0.8-2.7-1.4-4.1-1.8l0-2.9c0-1-0.8-1.9-1.9-1.9l-2.2,0
				c-1,0-1.9,0.8-1.9,1.9l0,2.9c-1.5,0.3-2.9,0.9-4.2,1.7l-2.1-2.1c-0.7-0.8-1.9-0.8-2.7,0l-1.6,1.5c-0.7,0.7-0.8,1.9,0,2.7l2.1,2.1
				c-0.8,1.3-1.4,2.7-1.8,4.2l-2.9,0c-1,0-1.9,0.8-1.9,1.9l0,2.2c0,1.1,0.8,1.9,1.9,1.9l2.9,0c0.3,1.5,0.9,2.9,1.7,4.3l-2.1,2.1
				c-0.7,0.7-0.8,1.9,0,2.7l1.5,1.6c0.7,0.7,1.9,0.8,2.7,0l2.1-2.1c1.3,0.8,2.7,1.4,4.2,1.8l0,2.9c0,1,0.8,1.9,1.9,1.9l2.2,0
				c1,0,1.9-0.8,1.9-1.9l0-2.9c1.5-0.3,2.9-0.9,4.2-1.7l2.1,2.1c0.7,0.7,1.9,0.8,2.7,0l1.6-1.5C269.7,151.6,269.8,150.4,269,149.6z
				 M251.3,144.5c-2.3-2.4-2.3-6.2,0-8.5c2.4-2.3,6.2-2.3,8.5,0.1c2.3,2.4,2.3,6.2,0,8.5C257.4,146.9,253.6,146.9,251.3,144.5z"/>
		</g>
		<g class="st25">
			<path class="st1" d="M125.1,127.9v70.4c0,2.1-1.7,3.8-3.8,3.8H75.9c-2.1,0-3.8-1.7-3.8-3.8v-69.9c0-1.9-0.8-3.6-2-4.8
				c-1-1-2.2-1.6-3.6-1.9H119C122.4,121.8,125.1,124.5,125.1,127.9z"/>
			<path class="st6" d="M66.6,121.8c1.4,0.3,2.6,0.9,3.6,1.9c1.2,1.2,2,2.9,2,4.8v7.5H58.5v-7.5c0-3.8,3-6.8,6.8-6.8
				C65.7,121.6,66.1,121.7,66.6,121.8z"/>
			<path class="st3" d="M125.1,180v9v9.3c0,2.1-1.7,3.8-3.8,3.8H75.9c-2.1,0-3.8-1.7-3.8-3.8v-31.9v-9.6"/>
			<line class="st3" x1="72.1" y1="160.3" x2="72.1" y2="135.9"/>
			<path class="st3" d="M66.6,121.8c1.4,0.3,2.6,0.9,3.6,1.9c1.2,1.2,2,2.9,2,4.8v7.5H58.5v-7.5c0-3.8,3-6.8,6.8-6.8
				C65.7,121.6,66.1,121.7,66.6,121.8"/>
			<path class="st3" d="M125.1,182.1v-54.1c0-3.4-2.8-6.2-6.2-6.2H66.6h-1.6"/>
			<line class="st26" x1="81.7" y1="136" x2="95" y2="136"/>
			<line class="st26" x1="81.7" y1="142.7" x2="116.3" y2="142.7"/>
			<line class="st26" x1="82.9" y1="149.3" x2="106.8" y2="149.3"/>
			<line class="st27" x1="80.7" y1="162.5" x2="107.9" y2="162.5"/>
			<line class="st27" x1="79.7" y1="169.4" x2="102" y2="169.4"/>
			<line class="st28" x1="79.7" y1="176.3" x2="81.7" y2="176.3"/>
			<line class="st28" x1="79.7" y1="182.1" x2="103.9" y2="182.1"/>
			<line class="st28" x1="79.7" y1="189" x2="87.5" y2="189"/>
			<line class="st28" x1="92.8" y1="189" x2="109.6" y2="189"/>
			<line class="st27" x1="86.4" y1="176.3" x2="99.3" y2="176.3"/>
			<line class="st27" x1="80.7" y1="155.9" x2="117" y2="155.9"/>
			<line class="st26" x1="102" y1="136" x2="115.3" y2="136"/>
		</g>
		<g>
			<path class="st1" d="M109.6,130.1h25l0.4,0.2l-5,12h30h9.9h46.8l-5.1-12.2h24.4v-12.1H109.6V130.1z M252,86.1v100.5
				c0,2.9-2.4,5.3-5.3,5.3h-20.8h-1v-38.9c0-3-2.4-5.5-5.5-5.5h-92c-3,0-5.5,2.5-5.5,5.5V192h-1.3h-20.6c-2.9,0-5.3-2.4-5.3-5.3v-92
				h88.8v14c0,2.5,2.1,4.6,4.6,4.6h50.1c2.5,0,4.6-2.1,4.6-4.6V86.1H252z"/>
			<path class="st29" d="M252,84.1v2h-9.2h-148v-2c0-3.7,2.7-6.8,6.3-7.4c0.4-0.1,0.8-0.1,1.2-0.1h142.3c0.4,0,0.8,0,1.2,0.1
				C249.3,77.3,252,80.4,252,84.1z"/>
			<path class="st29" d="M245.7,74v2.6l0,0.1c-0.4-0.1-0.8-0.1-1.2-0.1H102.3c-0.4,0-0.8,0-1.2,0.1l0-0.1v-3.5
				c0-2.9,2.2-5.4,5.1-5.8l102.3-14.4c0.6-0.1,1.1,0.4,1.1,0.9v5.1c0,0.4-0.2,0.7-0.6,0.9l-17.6,6.8c-0.4,0.1-0.6,0.5-0.6,0.9v2.5
				c0,0.5,0.4,0.9,0.9,0.9h50.9C244.3,70.9,245.7,72.3,245.7,74z"/>
			<path class="st1" d="M209.5,53.8v2.6L109.2,70.6c-2.9,0.4-5.1,2.9-5.1,5.8v0.2h-1.9c-0.4,0-0.8,0-1.2,0.1l0-0.1v-3.5
				c0-2.9,2.2-5.4,5.1-5.8l102.3-14.4C209,52.8,209.5,53.3,209.5,53.8z"/>
			<path class="st4" d="M242.8,86.1v22.5c0,2.5-2.1,4.6-4.6,4.6h-50.1c-2.5,0-4.6-2.1-4.6-4.6v-14H94.8v-8.5H242.8z M218.8,106.6
				V94.7h-23.5v11.9H218.8z"/>
			<polygon class="st5" points="236.1,118.1 236.1,130.1 211.7,130.1 210.4,126.9 170,126.9 167.8,126.9 136.5,126.9 135.1,130.3 
				134.7,130.1 109.6,130.1 109.6,118.1 			"/>
			<polygon class="st1" points="233.4,209.1 233.4,212.7 173.3,212.7 113.2,212.7 113.2,209.1 120.7,192.2 120.7,192 122,192 
				130.1,192 130.1,198.2 163.3,198.2 173.4,198.2 183.6,198.2 216.8,198.2 216.8,192 217,192 224.9,192 225.9,192 225.9,192.2 			
				"/>
			<path class="st6" d="M213.3,174h-79.7l-3.5,14.5v0.4v3.1H122c0,0,0-24.9,0-38.9c0-3,2.5-5.5,5.5-5.5h92c3,0,5.5,2.4,5.5,5.5
				c0,14,0,38.9,0,38.9H217h-0.2v-3.1v-0.4L213.3,174z"/>
			<path class="st30" d="M224.9,153.1v4.2c0-3-2.5-5.5-5.5-5.5h-92c-3,0-5.5,2.4-5.5,5.5v-4.2c0-3,2.5-5.5,5.5-5.5h92
				C222.4,147.6,224.9,150,224.9,153.1z"/>
			<rect x="195.4" y="94.7" class="st6" width="23.5" height="11.9"/>
			<polygon class="st1" points="216.8,192 216.8,198.2 183.6,198.2 183.6,188.8 216.8,188.8 			"/>
			<polygon class="st1" points="216.8,188.5 216.8,188.8 183.6,188.8 183.6,186.1 163.3,186.1 163.3,188.8 130.1,188.8 130.1,188.5 
				133.6,174 213.3,174 			"/>
			<polygon class="st1" points="211.7,130.1 216.8,142.3 170,142.3 160.1,142.3 130.1,142.3 135.1,130.3 136.5,126.9 167.8,126.9 
				170,126.9 210.4,126.9 			"/>
			<polygon class="st5" points="183.6,188.8 183.6,198.2 173.4,198.2 163.3,198.2 163.3,188.8 163.3,186.1 183.6,186.1 			"/>
			<polygon class="st1" points="130.1,192 130.1,188.8 163.3,188.8 163.3,198.2 130.1,198.2 			"/>
		</g>
		<path class="st22" d="M95,98.5h85.3v10.9c0,3.5,2.8,6.3,6.3,6.3h51.6v-2.6h-49.6c0,0-4.6-0.6-4.6-4.6c0-4,0,0,0,0v-14H95.8
			L95,98.5z"/>
		<line class="st3" x1="290.8" y1="213.4" x2="295.8" y2="213.4"/>
		<polyline class="st3" points="57.8,213.4 73.8,213.4 137.7,213.4 207,213.4 216.6,213.4 260.3,213.4 272.7,213.4 284,213.4 		"/>
		<path class="st3" d="M246.2,76.6V74c0-1.7-1.4-3.1-3.1-3.1h-50.9c-0.5,0-0.9-0.4-0.9-0.9v-2.5c0-0.4,0.2-0.7,0.6-0.9l17.6-6.8
			c0.4-0.1,0.6-0.5,0.6-0.9v-5.1c0-0.6-0.5-1-1-0.9L106.6,67.3c-2.9,0.4-5.1,2.9-5.1,5.8v3.5"/>
		<path class="st3" d="M217.5,192h29.2c3.2,0,5.8-2.6,5.8-5.8V84.1c0-4.1-3.3-7.5-7.5-7.5H102.7c-4.1,0-7.5,3.3-7.5,7.5v102.1
			c0,3.2,2.6,5.8,5.8,5.8h29.6"/>
		<path class="st3" d="M122.5,192c0,0,0-25,0-38.9c0-3,2.5-5.5,5.5-5.5h92c3,0,5.5,2.4,5.5,5.5c0,14,0,38.9,0,38.9"/>
		<polyline class="st3" points="134.1,174 130.6,188.4 130.6,198.2 173.9,198.2 		"/>
		<line class="st3" x1="163.8" y1="188.8" x2="130.6" y2="188.8"/>
		<polyline class="st3" points="213.8,174 217.3,188.4 217.3,198.2 173.9,198.2 		"/>
		<line class="st3" x1="184" y1="188.8" x2="217.3" y2="188.8"/>
		<polyline class="st3" points="163.8,198.2 163.8,186.1 184.1,186.1 184.1,198.2 		"/>
		<line class="st3" x1="128.3" y1="174" x2="220.1" y2="174"/>
		<polyline class="st3" points="121.2,192.2 113.7,209.1 113.7,212.7 173.8,212.7 		"/>
		<polyline class="st3" points="226.4,192.2 233.9,209.1 233.9,212.7 173.8,212.7 		"/>
		<line class="st3" x1="101.5" y1="130.1" x2="135.2" y2="130.1"/>
		<line class="st3" x1="212" y1="130.1" x2="246.2" y2="130.1"/>
		<polyline class="st3" points="110.1,130.1 110.1,118.1 236.6,118.1 236.6,130.1 		"/>
		<polyline class="st16" points="170.5,126.9 137,126.9 130.6,142.3 170.5,142.3 		"/>
		<polyline class="st16" points="168.3,126.9 210.9,126.9 217.3,142.3 160.6,142.3 		"/>
		<line class="st3" x1="95.3" y1="86.1" x2="252.5" y2="86.1"/>
		<path class="st3" d="M95.3,94.6H184v14c0,2.5,2.1,4.6,4.6,4.6h50.1c2.5,0,4.6-2.1,4.6-4.6V86.1"/>
		<rect x="195.9" y="94.7" class="st3" width="23.5" height="11.9"/>
		<line class="st3" x1="224.1" y1="94.5" x2="229.1" y2="94.5"/>
		<line class="st3" x1="224.1" y1="100.7" x2="229.1" y2="100.7"/>
		<line class="st3" x1="224.1" y1="106.8" x2="229.1" y2="106.8"/>
		<line class="st3" x1="233.2" y1="94.5" x2="238.2" y2="94.5"/>
		<line class="st3" x1="233.2" y1="100.7" x2="238.2" y2="100.7"/>
		<line class="st3" x1="233.2" y1="106.8" x2="238.2" y2="106.8"/>
		<line class="st3" x1="189.8" y1="103.6" x2="189.8" y2="106.6"/>
	</g>
</g>
</svg>
