<?xml version="1.0" encoding="utf-8"?>
<!-- Generator: Adobe Illustrator 27.0.0, SVG Export Plug-In . SVG Version: 6.00 Build 0)  -->
<svg version="1.1" xmlns="http://www.w3.org/2000/svg" xmlns:xlink="http://www.w3.org/1999/xlink" x="0px" y="0px"
	 viewBox="0 0 330.4 271.1" style="enable-background:new 0 0 330.4 271.1;" xml:space="preserve">
<style type="text/css">
	.st0{opacity:0.89;fill:#FAEFEF;}
	.st1{fill:#FFFFFF;}
	.st2{opacity:0.38;fill:#C8C9CB;}
	.st3{fill:none;stroke:#601113;stroke-width:2;stroke-miterlimit:10;}
	.st4{fill:#E6A6A8;}
	.st5{fill:#C8C9CB;}
	.st6{fill:#C02126;}
	.st7{opacity:0.78;}
	.st8{fill:#B58D90;}
	.st9{fill:#CCBABD;}
	.st10{fill:#601113;}
	.st11{fill:#D97A7D;}
	.st12{fill:#F2D3D4;}
	.st13{fill:#F7E5E5;}
	.st14{opacity:0.42;}
	.st15{opacity:0.29;}
	.st16{fill:none;stroke:#601113;stroke-width:2;stroke-linecap:round;stroke-linejoin:round;stroke-miterlimit:10;}
	.st17{fill:none;stroke:#601113;stroke-width:1.5;stroke-linecap:round;stroke-linejoin:round;stroke-miterlimit:10;}
	.st18{fill:#D9E1E2;}
	.st19{opacity:0.79;fill:#D9E1E2;}
	.st20{opacity:0.56;fill:#D9E1E2;}
	.st21{fill:none;stroke:#601113;stroke-width:2;stroke-linecap:round;stroke-miterlimit:10;}
	.st22{opacity:0.15;fill:#601113;}
	.st23{opacity:0.36;}
	.st24{opacity:0.49;}
	.st25{opacity:0.48;}
	.st26{opacity:0.36;fill:none;stroke:#B58D90;stroke-width:2;stroke-linecap:round;stroke-linejoin:round;stroke-miterlimit:10;}
	.st27{opacity:0.42;fill:none;stroke:#C02126;stroke-width:2;stroke-linecap:round;stroke-linejoin:round;stroke-miterlimit:10;}
	.st28{opacity:0.34;fill:none;stroke:#D97A7D;stroke-width:2;stroke-linecap:round;stroke-linejoin:round;stroke-miterlimit:10;}
	.st29{fill:#E3E5E7;}
	.st30{opacity:0.29;fill:#601113;}
	.st31{opacity:0.74;}
	.st32{opacity:0.44;fill:#C8C9CB;}
	.st33{fill:#FAEFEF;}
	.st34{opacity:0.2;fill:#601113;}
	.st35{opacity:0.25;fill:#FFFFFF;}
	.st36{opacity:0.34;fill:none;stroke:#601113;stroke-width:2;stroke-miterlimit:10;}
	.st37{opacity:0.34;}
	.st38{opacity:0.15;}
	.st39{opacity:0.23;fill:#253746;}
	.st40{fill:#253746;}
	.st41{opacity:0.3;fill:#C8C9CB;}
	.st42{fill:none;stroke:#23185D;stroke-width:1.5;stroke-linecap:round;stroke-linejoin:round;stroke-miterlimit:10;}
	.st43{opacity:0.54;}
	.st44{fill:none;stroke:#601113;stroke-width:0.25;stroke-miterlimit:10;}
	.st45{fill:#D1D1D1;}
	.st46{fill:none;stroke:#C02126;stroke-width:2;stroke-miterlimit:10;}
	.st47{fill:none;stroke:#C02126;stroke-width:2;stroke-miterlimit:10;stroke-dasharray:1.9895,1.9895;}
	.st48{opacity:0.25;fill:#601113;}
	.st49{opacity:0.26;fill:#FFFFFF;}
	.st50{fill:none;stroke:#FFFFFF;stroke-miterlimit:10;}
	.st51{fill:none;stroke:#FFFFFF;stroke-width:2;stroke-miterlimit:10;}
	.st52{opacity:0.15;fill:#253746;}
	.st53{opacity:0.43;}
	.st54{opacity:0.52;fill:none;stroke:#FFFFFF;stroke-width:2;stroke-linecap:round;stroke-linejoin:round;stroke-miterlimit:10;}
	.st55{fill:#401010;}
	.st56{opacity:0.15;fill:#3D0016;}
	.st57{fill:#717171;}
	.st58{opacity:0.42;fill:#FFFFFF;}
	.st59{opacity:0.33;fill:#601113;}
	.st60{fill:#ECEAEC;}
	.st61{opacity:0.17;fill:#601113;}
	.st62{opacity:0.58;fill:#FFFFFF;}
	.st63{opacity:0.12;fill:#601113;}
	.st64{opacity:0.35;}
	
		.st65{fill:none;stroke:#601113;stroke-width:2;stroke-linejoin:round;stroke-dasharray:2.0929,2.0929,2.0929,2.0929,2.0929,2.0929;}
	.st66{opacity:0.41;}
	.st67{opacity:0.33;}
	.st68{fill:none;stroke:#601113;stroke-width:2;stroke-linejoin:round;stroke-miterlimit:10;stroke-dasharray:2,2,2,2,2,2;}
	.st69{opacity:0.57;fill:#FFFFFF;}
	.st70{opacity:0.37;fill:none;stroke:#FFFFFF;stroke-linecap:round;stroke-linejoin:round;stroke-miterlimit:10;}
	.st71{opacity:0.48;fill:#FFFFFF;}
	.st72{fill:none;stroke:#601113;stroke-linecap:round;stroke-linejoin:round;stroke-miterlimit:10;}
	.st73{fill:none;stroke:#C02126;stroke-width:2;stroke-miterlimit:10;stroke-dasharray:2.0141,2.0141;}
</style>
<g id="Layer_2">
</g>
<g id="Layer_1">
	<g>
		<path class="st0" d="M32.3,139.4c-0.7-31,16.9-52.9,37.9-56.2s42.5-0.8,57.4-12.8s35.6-41.7,59.1-42.2
			c57.7-1.2,110.2,85.6,111.4,137.2s-34.5,67.3-56.3,67.7c-21.8,0.5-46.4-27.5-73.6-26.9s-35.7,14.4-67.2,15.1
			S33.3,183.1,32.3,139.4z"/>
		<g class="st7">
			<path class="st5" d="M94.8,171.3H66.3c-5,0-9.1-4.1-9.1-9.1v-28.5c0-5,4.1-9.1,9.1-9.1h28.5c5,0,9.1,4.1,9.1,9.1v28.5
				C103.9,167.2,99.8,171.3,94.8,171.3z"/>
			<path class="st3" d="M94.8,171.3H66.3c-5,0-9.1-4.1-9.1-9.1v-28.5c0-5,4.1-9.1,9.1-9.1h28.5c5,0,9.1,4.1,9.1,9.1v28.5
				C103.9,167.2,99.8,171.3,94.8,171.3z"/>
			<path id="XMLID_00000021105416851368375440000000071674157362338488_" class="st1" d="M94,157.4l-2.1-2.1
				c0.8-1.3,1.4-2.8,1.8-4.2l2.9,0c1,0,1.9-0.8,1.9-1.9l0-2.2c0-1-0.8-1.9-1.9-1.9l-2.9,0c-0.3-1.5-0.9-2.9-1.7-4.2l2.1-2.1
				c0.7-0.7,0.7-1.9,0-2.7l-1.5-1.6c-0.7-0.7-1.9-0.8-2.7,0l-2.1,2.1c-1.3-0.8-2.7-1.4-4.1-1.8l0-2.9c0-1-0.8-1.9-1.9-1.9l-2.2,0
				c-1,0-1.9,0.8-1.9,1.9l0,2.9c-1.5,0.3-2.9,0.9-4.2,1.7l-2.1-2.1c-0.7-0.8-1.9-0.8-2.7,0l-1.6,1.5c-0.7,0.7-0.8,1.9,0,2.7l2.1,2.1
				c-0.8,1.3-1.4,2.7-1.8,4.2l-2.9,0c-1,0-1.9,0.8-1.9,1.9l0,2.2c0,1.1,0.8,1.9,1.9,1.9l2.9,0c0.3,1.5,0.9,2.9,1.7,4.3l-2.1,2.1
				c-0.7,0.7-0.8,1.9,0,2.7l1.5,1.6c0.7,0.7,1.9,0.8,2.7,0l2.1-2.1c1.3,0.8,2.7,1.4,4.2,1.8l0,2.9c0,1,0.8,1.9,1.9,1.9l2.2,0
				c1,0,1.9-0.8,1.9-1.9l0-2.9c1.5-0.3,2.9-0.9,4.2-1.7l2.1,2.1c0.7,0.7,1.9,0.8,2.7,0L94,160C94.7,159.3,94.7,158.1,94,157.4z
				 M76.3,152.2c-2.3-2.4-2.3-6.2,0-8.5c2.4-2.3,6.2-2.3,8.5,0.1c2.3,2.4,2.3,6.2,0,8.5C82.4,154.6,78.6,154.6,76.3,152.2z"/>
		</g>
		<line class="st3" x1="290.8" y1="213.4" x2="295.8" y2="213.4"/>
		<polyline class="st3" points="57.8,213.4 73.8,213.4 137.7,213.4 207,213.4 216.6,213.4 260.3,213.4 272.7,213.4 284,213.4 		"/>
		<g>
			<g>
				<path class="st4" d="M139.6,212.6H78.1c-6.1,0-11.1-5-11.1-11.1h20.7h8.3h157.3h8.1h21c0,6.5-5.3,11.8-11.8,11.8
					c0,0-0.1,0-0.1,0L139.6,212.6z"/>
				<path class="st1" d="M184.6,207.4h-21c-4,0-7.2-1.9-7.2-5.9l0,0h35.5l0,0C191.9,205.5,188.6,207.4,184.6,207.4z"/>
				<rect x="96.2" y="97.4" class="st1" width="157.3" height="104.1"/>
				<path class="st5" d="M261.6,91.9v109.6h-8.1V97.4v-2.5c0-3.4-2.7-6.1-6.1-6.1c-25.3,0-111.8,0-145.1,0c-3.4,0-6.1,2.7-6.1,6.1
					v2.5v104.1h-8.3V91.9c0-6.6,5.3-11.9,11.9-11.9c36.9,0,100.1,0,149.8,0C256.2,80,261.6,85.3,261.6,91.9z"/>
				<path class="st6" d="M102,88.8c33.4,0,119.8,0,145.1,0c3.4,0,6.1,2.7,6.1,6.1v2.5H95.9v-2.5C95.9,91.5,98.7,88.8,102,88.8z"/>
				<path class="st3" d="M142.1,212.6h-2.5H78.1c-6.1,0-11.1-5-11.1-11.1h20.7h8.3h157.3h8.1h21c0,6.5-5.3,11.8-11.8,11.8
					c0,0-0.1,0-0.1,0l-130.9-0.7"/>
				<path class="st3" d="M261.3,201.5V91.9c0-6.6-5.3-11.9-11.9-11.9c-49.7,0-112.9,0-149.8,0c-6.6,0-11.9,5.3-11.9,11.9v109.6"/>
			</g>
		</g>
		<g class="st15">
			<path class="st12" d="M243.1,45.7l11.9,6.7l33.4-22c-0.1,0.1-0.2,0.1-0.3,0.2L243.1,45.7z"/>
			<path class="st12" d="M281.2,67l8-35.5c0-0.1,0-0.1,0-0.2l-27.1,24.5"/>
			<path class="st4" d="M282.5,35.5L255,52.2c0.1,0.2,0.2,0.3,0.3,0.5l4.5,12.8c0.4-0.6,0.6-1.3,0.7-2.1l1.8-8.4l22.8-20.6
				c-0.7,0.2-1.4,0.8-2.1,0.6L282.5,35.5z"/>
			<path class="st4" d="M262.7,56.5l-1.7,8.4l7.5-5.2c-0.4-0.2-0.8-0.6-1.2-0.7l-5.5-2.6"/>
			<g>
				<polygon class="st16" points="242.8,45.3 289.9,29.6 281.8,67.1 262.1,56 260.2,65.4 256.1,52.4 				"/>
				<polyline class="st16" points="255.6,52.2 289.6,30.2 262.2,56 				"/>
				<line class="st17" x1="233.4" y1="66.1" x2="236.1" y2="64.4"/>
				<line class="st17" x1="238.9" y1="62.5" x2="250.2" y2="55.1"/>
				<line class="st17" x1="245.2" y1="69.1" x2="245.9" y2="68.5"/>
				<line class="st17" x1="247.7" y1="67.4" x2="253.7" y2="63.2"/>
				<line class="st17" x1="264.6" y1="69.9" x2="269.4" y2="66.5"/>
				<line class="st16" x1="260.2" y1="65.4" x2="268.7" y2="59.9"/>
			</g>
		</g>
		<g>
			<path class="st18" d="M241.9,131.4H109.7c-3.2,0-5.8-2.6-5.8-5.8v-14c0-3.2,2.6-5.8,5.8-5.8h132.3c3.2,0,5.8,2.6,5.8,5.8v14
				C247.7,128.8,245.1,131.4,241.9,131.4z"/>
			<path class="st18" d="M151.4,140.9h-46.6c-0.5,0-1-0.4-1-1v-0.8c0-0.5,0.4-1,1-1h46.6c0.5,0,1,0.4,1,1v0.8
				C152.4,140.5,152,140.9,151.4,140.9z"/>
			<path class="st18" d="M234.4,148H105c-0.7,0-1.2-0.5-1.2-1.2v-0.4c0-0.7,0.5-1.2,1.2-1.2h129.4c0.7,0,1.2,0.5,1.2,1.2v0.4
				C235.6,147.4,235.1,148,234.4,148z"/>
			<path class="st19" d="M242,163.5H107c-1.8,0-3.2-1.4-3.2-3.2v-4.8c0-1.8,1.4-3.2,3.2-3.2H242c1.8,0,3.2,1.4,3.2,3.2v4.8
				C245.2,162,243.7,163.5,242,163.5z"/>
			<path class="st20" d="M165.3,186.5h-20.7c-1,0-1.8-0.8-1.8-1.8v-15.2c0-1,0.8-1.8,1.8-1.8h20.7c1,0,1.8,0.8,1.8,1.8v15.2
				C167.1,185.7,166.3,186.5,165.3,186.5z"/>
			<path class="st20" d="M127.2,186.5h-20.7c-1,0-1.8-0.8-1.8-1.8v-15.2c0-1,0.8-1.8,1.8-1.8h20.7c1,0,1.8,0.8,1.8,1.8v15.2
				C129,185.7,128.2,186.5,127.2,186.5z"/>
			<path class="st20" d="M204.8,186.5h-20.7c-1,0-1.8-0.8-1.8-1.8v-15.2c0-1,0.8-1.8,1.8-1.8h20.7c1,0,1.8,0.8,1.8,1.8v15.2
				C206.6,185.7,205.8,186.5,204.8,186.5z"/>
			<path class="st20" d="M245.1,186.5h-20.7c-1,0-1.8-0.8-1.8-1.8v-15.2c0-1,0.8-1.8,1.8-1.8h20.7c1,0,1.8,0.8,1.8,1.8v15.2
				C246.9,185.7,246.1,186.5,245.1,186.5z"/>
		</g>
		<g>
			<g>
				<path class="st4" d="M208.7,79.9h-65.7L175.8,55C175.8,55,208.7,79.9,208.7,79.9z"/>
				<path class="st4" d="M238.9,102.9c0,0.2-0.1,0.4-0.2,0.5l-0.1,0h-14.5V91.1h0l14.5,11.2C238.8,102.4,238.9,102.7,238.9,102.9z"
					/>
				<path class="st4" d="M238.7,103.5c0,0.1-0.1,0.1-0.1,0.1l-14.1,10.8l-0.4-0.5v-10.4h14.5L238.7,103.5z"/>
				<path class="st4" d="M127.5,103.4v10.4l-0.4,0.5L113,103.6c0,0-0.1,0-0.1-0.1l0.1-0.1H127.5z"/>
				<path class="st6" d="M238.9,102.9c0,6,0,50.5,0,71.2c0,4.4-3.6,8-8,8h-4.5l-38.8-39.4l0.2-0.2l36.7-28.1l14.1-10.8
					c0.1,0,0.1-0.1,0.1-0.1C238.8,103.3,238.9,103.1,238.9,102.9z"/>
				<path class="st11" d="M187.5,142.7l38.8,39.4h-50.6h0h-50.6l38.8-39.4l4.7-4.7c3.9-3.9,10.3-3.9,14.2,0L187.5,142.7z"/>
				<path class="st1" d="M224.1,113.9l0.4,0.5l-36.7,28.1l-0.2,0.2l-4.7-4.7c-3.9-3.9-10.3-3.9-14.2,0l-4.7,4.7l-0.2-0.2l-36.7-28.1
					l0.4-0.5v-10.4V91.1v-8c0-1.8,1.4-3.2,3.2-3.2h12.3h65.7h12.2c1.8,0,3.2,1.4,3.2,3.2v8v12.4V113.9z"/>
				<path class="st6" d="M164,142.7l-38.8,39.4h-4.6c-4.4,0-8-3.6-8-8c0-20.7,0-65.3,0-71.2c0,0.2,0.1,0.4,0.2,0.6
					c0,0,0,0.1,0.1,0.1l14.1,10.8l36.7,28.1L164,142.7z"/>
				<path class="st4" d="M127.5,91.1v12.4H113l-0.1,0.1c-0.2-0.2-0.2-0.4-0.2-0.6c0-0.2,0.1-0.5,0.3-0.7L127.5,91.1z"/>
			</g>
			<g>
				<path class="st3" d="M127.5,113.9v-10.4V91.1v-7.3c0-2.1,1.7-3.8,3.8-3.8h11.6h65.7h11.6c2.1,0,3.8,1.7,3.8,3.8v7.3v12.4v10.4"
					/>
				<path class="st3" d="M127.5,91.1L113,102.3c-0.2,0.2-0.3,0.4-0.3,0.7c0,0.2,0.1,0.4,0.2,0.6c0,0,0,0.1,0.1,0.1l14.1,10.8
					l36.7,28.1"/>
				<path class="st3" d="M175.8,182.1h-50.6h-4.6c-4.4,0-8-3.6-8-8c0-20.7,0-65.3,0-71.2c0-0.4,0-0.7,0-0.7"/>
				<path class="st3" d="M208.7,79.9c0,0-24.1-18.3-31-23.5c-1.1-0.8-2.6-0.8-3.7,0l-31,23.5"/>
				<path class="st3" d="M224.1,91.1l14.5,11.2c0.2,0.2,0.3,0.4,0.3,0.7c0,0.2-0.1,0.4-0.2,0.5c0,0.1-0.1,0.1-0.1,0.1l-14.1,10.8
					l-36.7,28.1"/>
				<path class="st3" d="M175.8,182.1h50.6h4.5c4.4,0,8-3.6,8-8c0-20.7,0-65.3,0-71.2c0-0.4,0-0.7,0-0.7"/>
				<path class="st3" d="M226.4,182.1l-38.8-39.4l-4.7-4.7c-3.9-3.9-10.3-3.9-14.2,0l-4.7,4.7l-38.8,39.4"/>
				<line class="st21" x1="136.3" y1="94.3" x2="153.4" y2="94.3"/>
				<line class="st21" x1="136.3" y1="99.7" x2="150.4" y2="99.7"/>
				<line class="st21" x1="184.9" y1="99.7" x2="195.5" y2="99.7"/>
				<line class="st21" x1="200.6" y1="99.7" x2="205.6" y2="99.7"/>
				<line class="st21" x1="155.8" y1="99.7" x2="179.5" y2="99.7"/>
				<line class="st21" x1="136.3" y1="105" x2="153.4" y2="105"/>
				<line class="st21" x1="158.8" y1="105" x2="175.8" y2="105"/>
				<line class="st21" x1="180.7" y1="105" x2="195" y2="105"/>
				<line class="st21" x1="200.8" y1="105" x2="210.9" y2="105"/>
				<line class="st21" x1="136.3" y1="110.4" x2="150.8" y2="110.4"/>
				<line class="st21" x1="156.6" y1="110.4" x2="164.6" y2="110.4"/>
				<line class="st21" x1="137.9" y1="121.6" x2="150.1" y2="121.6"/>
				<line class="st21" x1="198.3" y1="110.4" x2="209" y2="110.4"/>
				<line class="st21" x1="169.2" y1="110.4" x2="192.3" y2="110.4"/>
				<line class="st21" x1="127.5" y1="103.4" x2="113" y2="103.4"/>
				<line class="st21" x1="224.1" y1="103.4" x2="238.6" y2="103.4"/>
			</g>
			<path class="st22" d="M162.7,141.7l-45,39.2c2.7,0,5.3,1.6,8,1l38.7-39.6c-0.1,0-0.2-0.1-0.3-0.1L162.7,141.7z"/>
			<path class="st22" d="M189.6,141.7l45,39.2c-2.7,0-5.3,1.6-8,1l-38.7-39.6c0.1,0,0.2-0.1,0.3-0.1L189.6,141.7z"/>
			<path class="st22" d="M120,103.3l46.8,35.7L164,143l-50.7-39.2l0.9-0.2c0.2,0,0.3,0,0.5,0L120,103.3z"/>
			<path class="st22" d="M230.6,103.3l-46.8,35.7l2.8,3.9l50.7-39.2l-0.9-0.2c-0.2,0-0.3,0-0.5,0L230.6,103.3z"/>
		</g>
	</g>
</g>
</svg>
