<?xml version="1.0" encoding="utf-8"?>
<!-- Generator: Adobe Illustrator 27.0.0, SVG Export Plug-In . SVG Version: 6.00 Build 0)  -->
<svg version="1.1" xmlns="http://www.w3.org/2000/svg" xmlns:xlink="http://www.w3.org/1999/xlink" x="0px" y="0px"
	 viewBox="0 0 330.4 271.1" style="enable-background:new 0 0 330.4 271.1;" xml:space="preserve">
<style type="text/css">
	.st0{opacity:0.89;fill:#FAEFEF;}
	.st1{fill:#FFFFFF;}
	.st2{opacity:0.38;fill:#C8C9CB;}
	.st3{fill:none;stroke:#601113;stroke-width:2;stroke-miterlimit:10;}
	.st4{fill:#E6A6A8;}
	.st5{fill:#C8C9CB;}
	.st6{fill:#C02126;}
	.st7{opacity:0.78;}
	.st8{fill:#B58D90;}
	.st9{fill:#CCBABD;}
	.st10{fill:#601113;}
	.st11{fill:#D97A7D;}
	.st12{fill:#F2D3D4;}
	.st13{fill:#F7E5E5;}
	.st14{opacity:0.42;}
	.st15{opacity:0.29;}
	.st16{fill:none;stroke:#601113;stroke-width:2;stroke-linecap:round;stroke-linejoin:round;stroke-miterlimit:10;}
	.st17{fill:none;stroke:#601113;stroke-width:1.5;stroke-linecap:round;stroke-linejoin:round;stroke-miterlimit:10;}
	.st18{fill:#D9E1E2;}
	.st19{opacity:0.79;fill:#D9E1E2;}
	.st20{opacity:0.56;fill:#D9E1E2;}
	.st21{fill:none;stroke:#601113;stroke-width:2;stroke-linecap:round;stroke-miterlimit:10;}
	.st22{opacity:0.15;fill:#601113;}
	.st23{opacity:0.36;}
	.st24{opacity:0.49;}
	.st25{opacity:0.48;}
	.st26{opacity:0.36;fill:none;stroke:#B58D90;stroke-width:2;stroke-linecap:round;stroke-linejoin:round;stroke-miterlimit:10;}
	.st27{opacity:0.42;fill:none;stroke:#C02126;stroke-width:2;stroke-linecap:round;stroke-linejoin:round;stroke-miterlimit:10;}
	.st28{opacity:0.34;fill:none;stroke:#D97A7D;stroke-width:2;stroke-linecap:round;stroke-linejoin:round;stroke-miterlimit:10;}
	.st29{fill:#E3E5E7;}
	.st30{opacity:0.29;fill:#601113;}
	.st31{opacity:0.74;}
	.st32{opacity:0.44;fill:#C8C9CB;}
	.st33{fill:#FAEFEF;}
	.st34{opacity:0.2;fill:#601113;}
	.st35{opacity:0.25;fill:#FFFFFF;}
	.st36{opacity:0.34;fill:none;stroke:#601113;stroke-width:2;stroke-miterlimit:10;}
	.st37{opacity:0.34;}
	.st38{opacity:0.15;}
	.st39{opacity:0.23;fill:#253746;}
	.st40{fill:#253746;}
	.st41{opacity:0.3;fill:#C8C9CB;}
	.st42{fill:none;stroke:#23185D;stroke-width:1.5;stroke-linecap:round;stroke-linejoin:round;stroke-miterlimit:10;}
	.st43{opacity:0.54;}
	.st44{fill:none;stroke:#601113;stroke-width:0.25;stroke-miterlimit:10;}
	.st45{fill:#D1D1D1;}
	.st46{fill:none;stroke:#C02126;stroke-width:2;stroke-miterlimit:10;}
	.st47{fill:none;stroke:#C02126;stroke-width:2;stroke-miterlimit:10;stroke-dasharray:1.9895,1.9895;}
	.st48{opacity:0.25;fill:#601113;}
	.st49{opacity:0.26;fill:#FFFFFF;}
	.st50{fill:none;stroke:#FFFFFF;stroke-miterlimit:10;}
	.st51{fill:none;stroke:#FFFFFF;stroke-width:2;stroke-miterlimit:10;}
	.st52{opacity:0.15;fill:#253746;}
	.st53{opacity:0.43;}
	.st54{opacity:0.52;fill:none;stroke:#FFFFFF;stroke-width:2;stroke-linecap:round;stroke-linejoin:round;stroke-miterlimit:10;}
	.st55{fill:#401010;}
	.st56{opacity:0.15;fill:#3D0016;}
	.st57{fill:#717171;}
	.st58{opacity:0.42;fill:#FFFFFF;}
	.st59{opacity:0.33;fill:#601113;}
	.st60{fill:#ECEAEC;}
	.st61{opacity:0.17;fill:#601113;}
	.st62{opacity:0.58;fill:#FFFFFF;}
	.st63{opacity:0.12;fill:#601113;}
	.st64{opacity:0.35;}
	
		.st65{fill:none;stroke:#601113;stroke-width:2;stroke-linejoin:round;stroke-dasharray:2.0929,2.0929,2.0929,2.0929,2.0929,2.0929;}
	.st66{opacity:0.41;}
	.st67{opacity:0.33;}
	.st68{fill:none;stroke:#601113;stroke-width:2;stroke-linejoin:round;stroke-miterlimit:10;stroke-dasharray:2,2,2,2,2,2;}
	.st69{opacity:0.57;fill:#FFFFFF;}
	.st70{opacity:0.37;fill:none;stroke:#FFFFFF;stroke-linecap:round;stroke-linejoin:round;stroke-miterlimit:10;}
	.st71{opacity:0.48;fill:#FFFFFF;}
	.st72{fill:none;stroke:#601113;stroke-linecap:round;stroke-linejoin:round;stroke-miterlimit:10;}
	.st73{fill:none;stroke:#C02126;stroke-width:2;stroke-miterlimit:10;stroke-dasharray:2.0141,2.0141;}
</style>
<g id="Layer_2">
</g>
<g id="Layer_1">
	<g>
		<path class="st0" d="M32.3,139.4c-0.7-31,16.9-52.9,37.9-56.2s42.5-0.8,57.4-12.8s35.6-41.7,59.1-42.2
			c57.7-1.2,110.2,85.6,111.4,137.2s-34.5,67.3-56.3,67.7c-21.8,0.5-46.4-27.5-73.6-26.9s-35.7,14.4-67.2,15.1
			S33.3,183.1,32.3,139.4z"/>
		<g>
			<path class="st4" d="M166.4,70.9v30.9h-25.7v111.6H94.4V105.6L166.4,70.9z M132.8,193.8v-15.9c0-0.7-0.6-1.2-1.2-1.2h-7.4
				c-0.7,0-1.2,0.6-1.2,1.2v15.9c0,0.7,0.6,1.2,1.2,1.2h7.4C132.3,195,132.8,194.5,132.8,193.8z M132.8,165.6v-15.9
				c0-0.7-0.6-1.2-1.2-1.2h-7.4c-0.7,0-1.2,0.5-1.2,1.2v15.9c0,0.7,0.6,1.2,1.2,1.2h7.4C132.3,166.8,132.8,166.3,132.8,165.6z
				 M132.8,137.4v-15.9c0-0.7-0.6-1.2-1.2-1.2h-7.4c-0.7,0-1.2,0.6-1.2,1.2v15.9c0,0.7,0.6,1.2,1.2,1.2h7.4
				C132.3,138.7,132.8,138.1,132.8,137.4z M115,193.8v-15.9c0-0.7-0.6-1.2-1.2-1.2h-7.4c-0.7,0-1.2,0.6-1.2,1.2v15.9
				c0,0.7,0.6,1.2,1.2,1.2h7.4C114.5,195,115,194.5,115,193.8z M115,165.6v-15.9c0-0.7-0.6-1.2-1.2-1.2h-7.4c-0.7,0-1.2,0.5-1.2,1.2
				v15.9c0,0.7,0.6,1.2,1.2,1.2h7.4C114.5,166.8,115,166.3,115,165.6z M115,137.4v-15.9c0-0.7-0.6-1.2-1.2-1.2h-7.4
				c-0.7,0-1.2,0.6-1.2,1.2v15.9c0,0.7,0.6,1.2,1.2,1.2h7.4C114.5,138.7,115,138.1,115,137.4z"/>
		</g>
		<path class="st1" d="M224.4,97.7v5.8c0,0.9-0.8,1.7-1.7,1.7h-5.8c-0.9,0-1.7-0.8-1.7-1.7v-5.8c0-0.9,0.8-1.7,1.7-1.7h5.8
			C223.6,96,224.4,96.7,224.4,97.7z"/>
		<path class="st1" d="M243.6,97.7v5.8c0,0.9-0.8,1.7-1.7,1.7h-5.8c-0.9,0-1.7-0.8-1.7-1.7v-5.8c0-0.9,0.8-1.7,1.7-1.7h5.8
			C242.9,96,243.6,96.7,243.6,97.7z"/>
		<path class="st1" d="M243.6,118.3v5.8c0,0.9-0.8,1.7-1.7,1.7h-5.8c-0.9,0-1.7-0.8-1.7-1.7v-5.8c0-0.9,0.8-1.7,1.7-1.7h5.8
			C242.9,116.6,243.6,117.3,243.6,118.3z"/>
		<path class="st1" d="M224.4,118.3v5.8c0,0.9-0.8,1.7-1.7,1.7h-5.8c-0.9,0-1.7-0.8-1.7-1.7v-5.8c0-0.9,0.8-1.7,1.7-1.7h5.8
			C223.6,116.6,224.4,117.3,224.4,118.3z"/>
		<path class="st1" d="M224.4,159.5v5.8c0,0.9-0.8,1.7-1.7,1.7h-5.8c-0.9,0-1.7-0.8-1.7-1.7v-5.8c0-0.9,0.8-1.7,1.7-1.7h5.8
			C223.6,157.8,224.4,158.6,224.4,159.5z"/>
		<path class="st1" d="M243.6,159.5v5.8c0,0.9-0.8,1.7-1.7,1.7h-5.8c-0.9,0-1.7-0.8-1.7-1.7v-5.8c0-0.9,0.8-1.7,1.7-1.7h5.8
			C242.9,157.8,243.6,158.6,243.6,159.5z"/>
		<path class="st1" d="M243.6,138.9v5.8c0,0.9-0.8,1.7-1.7,1.7h-5.8c-0.9,0-1.7-0.8-1.7-1.7v-5.8c0-0.9,0.8-1.7,1.7-1.7h5.8
			C242.9,137.2,243.6,138,243.6,138.9z"/>
		<path class="st1" d="M224.4,138.9v5.8c0,0.9-0.8,1.7-1.7,1.7h-5.8c-0.9,0-1.7-0.8-1.7-1.7v-5.8c0-0.9,0.8-1.7,1.7-1.7h5.8
			C223.6,137.2,224.4,138,224.4,138.9z"/>
		<path class="st1" d="M132.8,177.9v15.9c0,0.7-0.6,1.2-1.2,1.2h-7.4c-0.7,0-1.2-0.5-1.2-1.2v-15.9c0-0.7,0.6-1.2,1.2-1.2h7.4
			C132.3,176.7,132.8,177.2,132.8,177.9z"/>
		<path class="st1" d="M115,177.9v15.9c0,0.7-0.6,1.2-1.2,1.2h-7.4c-0.7,0-1.2-0.5-1.2-1.2v-15.9c0-0.7,0.6-1.2,1.2-1.2h7.4
			C114.5,176.7,115,177.2,115,177.9z"/>
		<path class="st1" d="M115,149.7v15.9c0,0.7-0.6,1.2-1.2,1.2h-7.4c-0.7,0-1.2-0.6-1.2-1.2v-15.9c0-0.7,0.6-1.2,1.2-1.2h7.4
			C114.5,148.5,115,149,115,149.7z"/>
		<path class="st1" d="M132.8,149.7v15.9c0,0.7-0.6,1.2-1.2,1.2h-7.4c-0.7,0-1.2-0.6-1.2-1.2v-15.9c0-0.7,0.6-1.2,1.2-1.2h7.4
			C132.3,148.5,132.8,149,132.8,149.7z"/>
		<path class="st1" d="M132.8,121.6v15.9c0,0.7-0.6,1.2-1.2,1.2h-7.4c-0.7,0-1.2-0.6-1.2-1.2v-15.9c0-0.7,0.6-1.2,1.2-1.2h7.4
			C132.3,120.3,132.8,120.9,132.8,121.6z"/>
		<path class="st1" d="M115,121.6v15.9c0,0.7-0.6,1.2-1.2,1.2h-7.4c-0.7,0-1.2-0.6-1.2-1.2v-15.9c0-0.7,0.6-1.2,1.2-1.2h7.4
			C114.5,120.3,115,120.9,115,121.6z"/>
		<path class="st5" d="M254.8,68.6v144.8h-11.7v-29.1c0-0.7-0.6-1.2-1.2-1.2H229h-12.8c-0.7,0-1.2,0.6-1.2,1.2v29.1h-1.3h-10.4
			v-68.4V45.7L254.8,68.6z M243.6,165.3v-5.8c0-0.9-0.8-1.7-1.7-1.7h-5.8c-0.9,0-1.7,0.8-1.7,1.7v5.8c0,0.9,0.8,1.7,1.7,1.7h5.8
			C242.9,167,243.6,166.2,243.6,165.3z M243.6,144.7v-5.8c0-0.9-0.8-1.7-1.7-1.7h-5.8c-0.9,0-1.7,0.8-1.7,1.7v5.8
			c0,0.9,0.8,1.7,1.7,1.7h5.8C242.9,146.4,243.6,145.6,243.6,144.7z M243.6,124.1v-5.8c0-0.9-0.8-1.7-1.7-1.7h-5.8
			c-0.9,0-1.7,0.8-1.7,1.7v5.8c0,0.9,0.8,1.7,1.7,1.7h5.8C242.9,125.8,243.6,125,243.6,124.1z M243.6,103.4v-5.8
			c0-0.9-0.8-1.7-1.7-1.7h-5.8c-0.9,0-1.7,0.8-1.7,1.7v5.8c0,0.9,0.8,1.7,1.7,1.7h5.8C242.9,105.1,243.6,104.4,243.6,103.4z
			 M224.4,165.3v-5.8c0-0.9-0.8-1.7-1.7-1.7h-5.8c-0.9,0-1.7,0.8-1.7,1.7v5.8c0,0.9,0.8,1.7,1.7,1.7h5.8
			C223.6,167,224.4,166.2,224.4,165.3z M224.4,144.7v-5.8c0-0.9-0.8-1.7-1.7-1.7h-5.8c-0.9,0-1.7,0.8-1.7,1.7v5.8
			c0,0.9,0.8,1.7,1.7,1.7h5.8C223.6,146.4,224.4,145.6,224.4,144.7z M224.4,124.1v-5.8c0-0.9-0.8-1.7-1.7-1.7h-5.8
			c-0.9,0-1.7,0.8-1.7,1.7v5.8c0,0.9,0.8,1.7,1.7,1.7h5.8C223.6,125.8,224.4,125,224.4,124.1z M224.4,103.4v-5.8
			c0-0.9-0.8-1.7-1.7-1.7h-5.8c-0.9,0-1.7,0.8-1.7,1.7v5.8c0,0.9,0.8,1.7,1.7,1.7h5.8C223.6,105.1,224.4,104.4,224.4,103.4z"/>
		<polygon class="st49" points="254.8,68.6 254.8,72.9 203.2,50 203.2,45.7 		"/>
		<path class="st10" d="M243.1,184.3v29.1H229v-30.3h12.8C242.5,183.1,243.1,183.7,243.1,184.3z"/>
		<path class="st10" d="M229,183.1v30.3h-14.1v-29.1c0-0.7,0.6-1.2,1.2-1.2H229z"/>
		<polygon class="st1" points="203.2,145.1 203.2,213.4 193.5,213.4 193.5,212.8 193.5,138.7 		"/>
		<path class="st22" d="M188.5,212.8v0.6h-49.2h-3.6V104.3c0-1.4,1.1-2.5,2.5-2.5h23.2h24.7c1.4,0,2.5,1.1,2.5,2.5v34.4V212.8z"/>
		<path class="st6" d="M193.5,212.8v0.6h-49.2h-3.6V104.3c0-1.4,1.1-2.5,2.5-2.5h23.2h24.7c1.4,0,2.5,1.1,2.5,2.5v34.4V212.8z"/>
		<path class="st49" d="M193.5,104.3v4.8c0-1.3-1.1-2.4-2.4-2.4h-47.9c-1.4,0-2.5,1.1-2.5,2.4v-4.8c0-1.3,1.1-2.5,2.5-2.5h47.9
			C192.4,101.8,193.5,102.9,193.5,104.3z"/>
		<polygon class="st49" points="166.4,70.9 166.4,75.1 94.4,109.8 94.4,105.6 		"/>
		<line class="st3" x1="289.4" y1="213.4" x2="294.5" y2="213.4"/>
		<polyline class="st16" points="166.4,101.8 166.4,70.9 94.4,105.6 94.4,213.4 		"/>
		<path class="st16" d="M140.7,213.5V104.4c0-1.4,1.2-2.6,2.6-2.6h47.6c1.4,0,2.6,1.2,2.6,2.6v108.3"/>
		<polyline class="st16" points="254.8,213.5 254.8,68.6 203.2,45.6 203.2,213.5 		"/>
		<line class="st16" x1="193.5" y1="138.6" x2="203.2" y2="145"/>
		<path class="st16" d="M113.8,138.6h-7.4c-0.7,0-1.2-0.6-1.2-1.2v-15.9c0-0.7,0.6-1.2,1.2-1.2h7.4c0.7,0,1.2,0.6,1.2,1.2v15.9
			C115,138.1,114.5,138.6,113.8,138.6z"/>
		<path class="st16" d="M131.6,138.6h-7.4c-0.7,0-1.2-0.6-1.2-1.2v-15.9c0-0.7,0.6-1.2,1.2-1.2h7.4c0.7,0,1.2,0.6,1.2,1.2v15.9
			C132.8,138.1,132.3,138.6,131.6,138.6z"/>
		<path class="st16" d="M113.8,166.8h-7.4c-0.7,0-1.2-0.6-1.2-1.2v-15.9c0-0.7,0.6-1.2,1.2-1.2h7.4c0.7,0,1.2,0.6,1.2,1.2v15.9
			C115,166.3,114.5,166.8,113.8,166.8z"/>
		<path class="st16" d="M131.6,166.8h-7.4c-0.7,0-1.2-0.6-1.2-1.2v-15.9c0-0.7,0.6-1.2,1.2-1.2h7.4c0.7,0,1.2,0.6,1.2,1.2v15.9
			C132.8,166.3,132.3,166.8,131.6,166.8z"/>
		<path class="st16" d="M113.8,195h-7.4c-0.7,0-1.2-0.6-1.2-1.2v-15.9c0-0.7,0.6-1.2,1.2-1.2h7.4c0.7,0,1.2,0.6,1.2,1.2v15.9
			C115,194.4,114.5,195,113.8,195z"/>
		<path class="st16" d="M131.6,195h-7.4c-0.7,0-1.2-0.6-1.2-1.2v-15.9c0-0.7,0.6-1.2,1.2-1.2h7.4c0.7,0,1.2,0.6,1.2,1.2v15.9
			C132.8,194.4,132.3,195,131.6,195z"/>
		<line class="st16" x1="155" y1="118.1" x2="181.2" y2="118.1"/>
		<line class="st16" x1="155" y1="133.2" x2="181.2" y2="133.2"/>
		<line class="st16" x1="155" y1="148.2" x2="181.2" y2="148.2"/>
		<line class="st16" x1="155" y1="163.3" x2="181.2" y2="163.3"/>
		<line class="st16" x1="155" y1="178.4" x2="181.2" y2="178.4"/>
		<line class="st16" x1="155" y1="193.4" x2="181.2" y2="193.4"/>
		<path class="st16" d="M222.7,105.1h-5.8c-0.9,0-1.7-0.8-1.7-1.7v-5.8c0-0.9,0.8-1.7,1.7-1.7h5.8c0.9,0,1.7,0.8,1.7,1.7v5.8
			C224.4,104.3,223.6,105.1,222.7,105.1z"/>
		<path class="st16" d="M241.9,105.1h-5.8c-0.9,0-1.7-0.8-1.7-1.7v-5.8c0-0.9,0.8-1.7,1.7-1.7h5.8c0.9,0,1.7,0.8,1.7,1.7v5.8
			C243.6,104.3,242.9,105.1,241.9,105.1z"/>
		<path class="st16" d="M222.7,125.7h-5.8c-0.9,0-1.7-0.8-1.7-1.7v-5.8c0-0.9,0.8-1.7,1.7-1.7h5.8c0.9,0,1.7,0.8,1.7,1.7v5.8
			C224.4,125,223.6,125.7,222.7,125.7z"/>
		<path class="st16" d="M241.9,125.7h-5.8c-0.9,0-1.7-0.8-1.7-1.7v-5.8c0-0.9,0.8-1.7,1.7-1.7h5.8c0.9,0,1.7,0.8,1.7,1.7v5.8
			C243.6,125,242.9,125.7,241.9,125.7z"/>
		<path class="st16" d="M222.7,146.3h-5.8c-0.9,0-1.7-0.8-1.7-1.7v-5.8c0-0.9,0.8-1.7,1.7-1.7h5.8c0.9,0,1.7,0.8,1.7,1.7v5.8
			C224.4,145.6,223.6,146.3,222.7,146.3z"/>
		<path class="st16" d="M241.9,146.3h-5.8c-0.9,0-1.7-0.8-1.7-1.7v-5.8c0-0.9,0.8-1.7,1.7-1.7h5.8c0.9,0,1.7,0.8,1.7,1.7v5.8
			C243.6,145.6,242.9,146.3,241.9,146.3z"/>
		<path class="st16" d="M222.7,166.9h-5.8c-0.9,0-1.7-0.8-1.7-1.7v-5.8c0-0.9,0.8-1.7,1.7-1.7h5.8c0.9,0,1.7,0.8,1.7,1.7v5.8
			C224.4,166.2,223.6,166.9,222.7,166.9z"/>
		<path class="st16" d="M241.9,166.9h-5.8c-0.9,0-1.7-0.8-1.7-1.7v-5.8c0-0.9,0.8-1.7,1.7-1.7h5.8c0.9,0,1.7,0.8,1.7,1.7v5.8
			C243.6,166.2,242.9,166.9,241.9,166.9z"/>
		<line class="st54" x1="229" y1="183.1" x2="229" y2="213.5"/>
		<polyline class="st3" points="57.8,213.4 73.8,213.4 137.7,213.4 207,213.4 216.6,213.4 260.3,213.4 272.7,213.4 284,213.4 		"/>
		<path class="st16" d="M243.1,213.4h-28.1v-29.1c0-0.7,0.6-1.2,1.2-1.2h25.7c0.7,0,1.2,0.6,1.2,1.2V213.4z"/>
	</g>
</g>
</svg>
